<svg xmlns="http://www.w3.org/2000/svg" xmlns:xlink="http://www.w3.org/1999/xlink" viewBox="0 0 47.8 25.31"><defs><style>.cls-1,.cls-3,.cls-4{fill:none;}.cls-2{fill:#ac0000;}.cls-3,.cls-4{stroke-linecap:round;stroke-linejoin:round;stroke-width:1.5px;}.cls-3{stroke:url(#New_Pattern_Swatch_1);}.cls-4{stroke:url(#New_Pattern_Swatch_1-3);}</style><pattern id="New_Pattern_Swatch_1" data-name="New Pattern Swatch 1" width="45" height="45" patternTransform="translate(-28.39 24.5) scale(0.23 0.21)" patternUnits="userSpaceOnUse" viewBox="0 0 45 45"><rect class="cls-1" width="45" height="45"/><rect class="cls-2" width="45" height="45"/></pattern><pattern id="New_Pattern_Swatch_1-3" data-name="New Pattern Swatch 1" width="45" height="45" patternTransform="translate(-18.38 24.5) scale(0.23 0.21)" patternUnits="userSpaceOnUse" viewBox="0 0 45 45"><rect class="cls-1" width="45" height="45"/><rect class="cls-2" width="45" height="45"/></pattern></defs><title>nav1_3</title><g id="Layer_2" data-name="Layer 2"><g id="Layer_1-2" data-name="Layer 1"><rect class="cls-1" width="47.8" height="25.31"/><path class="cls-3" d="M14.07,6.63h7.09a0,0,0,0,1,0,0v9.74a0,0,0,0,1,0,0H14.07a.8.8,0,0,1-.8-.8V7.44A.8.8,0,0,1,14.07,6.63Z"/><path class="cls-4" d="M30.35,18.65l-7.07-2.28V6.63l7.07-2.28a.63.63,0,0,1,.83.6V18A.63.63,0,0,1,30.35,18.65Z"/><path class="cls-4" d="M11.08,7.88h2.19a0,0,0,0,1,0,0v6.6a0,0,0,0,1,0,0H11.08a.68.68,0,0,1-.68-.68V8.56A.68.68,0,0,1,11.08,7.88Z"/><rect class="cls-3" x="21.17" y="6.63" width="2.11" height="9.74"/><path class="cls-3" d="M15,16.37h2a0,0,0,0,1,0,0v4a.63.63,0,0,1-.63.63h-.77a.63.63,0,0,1-.63-.63v-4A0,0,0,0,1,15,16.37Z"/><line class="cls-3" x1="34.5" y1="7.88" x2="37.53" y2="5.46"/><line class="cls-3" x1="35.29" y1="11.5" x2="39.4" y2="11.5"/><line class="cls-3" x1="34.5" y1="15.2" x2="37.53" y2="17.08"/></g></g></svg>