<svg xmlns="http://www.w3.org/2000/svg" viewBox="0 0 56.66 30"><defs><style>.cls-1{fill:#AC0000;}.cls-2{fill:none;}</style></defs><title>nav2-2</title><g id="Layer_2" data-name="Layer 2"><g id="Layer_1-2" data-name="Layer 1"><path class="cls-1" d="M37.76,2.42V5.2A6.56,6.56,0,0,0,32,11.56h0A8,8,0,0,1,37.72,9.3h0v3L41.12,10l3.27-2.19.72-.48Z"/><path class="cls-1" d="M23.83,18a2.18,2.18,0,0,0,.37,0,1,1,0,0,0,.3-.1.66.66,0,0,0,.25-.24h0a.62.62,0,0,0,.1-.33.71.71,0,0,0-.12-.41.66.66,0,0,0-.33-.25l-.13,0a.67.67,0,0,1-.53.26h0a.66.66,0,0,1-.51-.24V18h.61Z"/><path class="cls-1" d="M23.74,15.53a.66.66,0,0,1,.48.2l.1,0a.48.48,0,0,0,.2-.2.55.55,0,0,0,.08-.28.56.56,0,0,0-.08-.28.51.51,0,0,0-.17-.19.73.73,0,0,0-.24-.09,1.85,1.85,0,0,0-.34,0h-.54v1.16a.67.67,0,0,1,.51-.24Z"/><path class="cls-1" d="M24.55,21.68l11-9.12a1.13,1.13,0,0,0-.77-.3H12.69a1.13,1.13,0,0,0-.77.3l11,9.12A1.32,1.32,0,0,0,24.55,21.68Zm-2-2.83a.11.11,0,0,1,0,.08.11.11,0,0,1-.09,0h-.5a.13.13,0,0,1-.12-.13.82.82,0,0,1,.6-.76V14.53a.82.82,0,0,1-.6-.76.12.12,0,0,1,.12-.12h.5a.13.13,0,0,1,.12.12s0,0,.08.06h1a3.49,3.49,0,0,1,.6,0,1.43,1.43,0,0,1,.55.23,1.36,1.36,0,0,1,.43.48,1.32,1.32,0,0,1,.17.65,1.21,1.21,0,0,1-.16.61,1.34,1.34,0,0,1-.21.28,1.34,1.34,0,0,1,.39.39,1.45,1.45,0,0,1,.23.8,1.48,1.48,0,0,1-.17.69,1.37,1.37,0,0,1-.48.53,1.71,1.71,0,0,1-.68.25,5.69,5.69,0,0,1-.68,0h-1C22.58,18.81,22.56,18.84,22.55,18.85Z"/><path class="cls-1" d="M24.61,23.15a1.4,1.4,0,0,1-1.73,0L11.55,13.77V26.43a1.15,1.15,0,0,0,1.14,1.15h22.1a1.15,1.15,0,0,0,1.15-1.15V13.77Zm-6-1.66-5.33,5.1a.47.47,0,0,1-.33.13.48.48,0,0,1-.35-.15.49.49,0,0,1,0-.68l5.33-5.1a.48.48,0,0,1,.68,0A.49.49,0,0,1,18.58,21.49Zm16.34,5.08a.48.48,0,0,1-.68,0l-5.33-5.1a.48.48,0,1,1,.66-.7l5.33,5.1A.49.49,0,0,1,34.91,26.57Z"/><rect class="cls-2" width="56.66" height="30"/></g></g></svg>