<svg xmlns="http://www.w3.org/2000/svg" viewBox="0 0 56.66 30"><defs><style>.cls-1{fill:#AC0000;}.cls-2{fill:none;}</style></defs><title>nav2-1</title><g id="Layer_2" data-name="Layer 2"><g id="Layer_1-2" data-name="Layer 1"><path class="cls-1" d="M17.29,2.42V5.2a6.58,6.58,0,0,0-5.74,6.37h0a8.07,8.07,0,0,1,5.71-2.26h0v3L20.67,10,24,7.83l.73-.48Z"/><path class="cls-1" d="M32.95,18a2.2,2.2,0,0,0,.37,0,1.06,1.06,0,0,0,.3-.1.66.66,0,0,0,.25-.24h0a.62.62,0,0,0,.1-.33.7.7,0,0,0-.12-.41.67.67,0,0,0-.33-.25l-.13,0a.68.68,0,0,1-.53.26h0a.67.67,0,0,1-.51-.24V18h.61Z"/><path class="cls-1" d="M32.86,15.52a.67.67,0,0,1,.48.2l.11,0a.48.48,0,0,0,.2-.2.55.55,0,0,0,.08-.28.56.56,0,0,0-.08-.28.51.51,0,0,0-.17-.2.74.74,0,0,0-.25-.09,1.87,1.87,0,0,0-.34,0h-.54v1.16a.67.67,0,0,1,.51-.24Z"/><path class="cls-1" d="M33.67,21.68l11.07-9.13a1.14,1.14,0,0,0-.77-.3H21.74a1.14,1.14,0,0,0-.77.3L32,21.68A1.33,1.33,0,0,0,33.67,21.68Zm-2-2.83a.11.11,0,0,1,0,.08.12.12,0,0,1-.09,0H31a.13.13,0,0,1-.12-.13.82.82,0,0,1,.6-.76V14.52a.82.82,0,0,1-.6-.76.13.13,0,0,1,.13-.12h.5a.13.13,0,0,1,.13.12s0,0,.08.06h1a3.52,3.52,0,0,1,.61,0,1.44,1.44,0,0,1,.55.23,1.37,1.37,0,0,1,.44.48,1.31,1.31,0,0,1,.17.65,1.2,1.2,0,0,1-.16.61,1.34,1.34,0,0,1-.22.28,1.34,1.34,0,0,1,.39.39,1.45,1.45,0,0,1,.23.8,1.47,1.47,0,0,1-.17.69,1.37,1.37,0,0,1-.48.53,1.73,1.73,0,0,1-.68.25,5.75,5.75,0,0,1-.68,0h-1C31.69,18.8,31.67,18.83,31.66,18.85Z"/><path class="cls-1" d="M33.72,23.15a1.42,1.42,0,0,1-1.74,0L20.59,13.75V26.43a1.15,1.15,0,0,0,1.15,1.15H44a1.15,1.15,0,0,0,1.15-1.15V13.75Zm-6.06-1.67L22.3,26.59a.48.48,0,0,1-.33.13.48.48,0,0,1-.33-.83L27,20.78a.48.48,0,1,1,.67.7Zm16.42,5.09a.48.48,0,0,1-.68,0L38,21.48a.48.48,0,1,1,.67-.7l5.36,5.11A.48.48,0,0,1,44.09,26.57Z"/><rect class="cls-2" width="56.66" height="30"/></g></g></svg>