<?xml version="1.0" encoding="utf-8"?>
<!-- Generator: Adobe Illustrator 21.0.0, SVG Export Plug-In . SVG Version: 6.00 Build 0)  -->
<svg version="1.1" id="Layer_1" xmlns="http://www.w3.org/2000/svg" xmlns:xlink="http://www.w3.org/1999/xlink" x="0px" y="0px"
	 viewBox="0 0 56.7 30" style="enable-background:new 0 0 56.7 30;" xml:space="preserve">
<style type="text/css">
	.st0{fill:#AC0000;}
	.st1{fill:none;}
</style>
<title>nav2</title>
<path class="st0" d="M28.4,13.1c0.1,0,0.2,0,0.4,0c0.1,0,0.2-0.1,0.3-0.1c0.1-0.1,0.2-0.1,0.3-0.2l0,0c0.1-0.1,0.1-0.2,0.1-0.3
	c0-0.1,0-0.3-0.1-0.4c-0.1-0.1-0.2-0.2-0.3-0.3h-0.1c-0.1,0.2-0.3,0.3-0.5,0.3l0,0c-0.2,0-0.4-0.1-0.5-0.2v1.4L28.4,13.1L28.4,13.1z
	"/>
<path class="st0" d="M28.3,10.6c0.2,0,0.4,0.1,0.5,0.2h0.1c0.1,0,0.2-0.1,0.2-0.2c0.1-0.1,0.1-0.2,0.1-0.3c0-0.1,0-0.2-0.1-0.3
	c0-0.1-0.1-0.2-0.1-0.2c-0.1,0-0.2-0.1-0.3-0.1c-0.1,0-0.2,0-0.3,0h-0.5v1.2C28,10.7,28.2,10.6,28.3,10.6L28.3,10.6z"/>
<path class="st0" d="M29.1,16.8l11-9.1c-0.2-0.2-0.5-0.3-0.8-0.3H17.2c-0.3,0-0.6,0.1-0.8,0.3l11,9.1C28,17.2,28.7,17.2,29.1,16.8z
	 M27.1,13.9C27.2,14,27.2,14,27.1,13.9C27.1,14,27,14,27,14h-0.5c-0.1,0-0.1-0.1-0.1-0.1c0-0.4,0.3-0.7,0.6-0.8V9.6
	c-0.3-0.1-0.6-0.4-0.6-0.8c0-0.1,0.1-0.1,0.1-0.1c0,0,0,0,0,0H27c0.1,0,0.1,0.1,0.1,0.1c0,0,0,0,0.1,0.1h1c0.2,0,0.4,0,0.6,0
	C29,9,29.2,9,29.4,9.1c0.2,0.1,0.3,0.3,0.4,0.5c0.1,0.2,0.2,0.4,0.2,0.6c0,0.2-0.1,0.4-0.2,0.6c-0.1,0.1-0.1,0.2-0.2,0.3
	c0.2,0.1,0.3,0.2,0.4,0.4c0.2,0.2,0.2,0.5,0.2,0.8c0,0.2-0.1,0.5-0.2,0.7c-0.1,0.2-0.3,0.4-0.5,0.5c-0.2,0.1-0.4,0.2-0.7,0.3
	c-0.2,0-0.5,0-0.7,0h-1C27.2,13.9,27.1,13.9,27.1,13.9L27.1,13.9z"/>
<path class="st0" d="M29.2,18.2c-0.5,0.4-1.2,0.4-1.7,0L16.1,8.9v12.7c0,0.6,0.5,1.1,1.1,1.1h22.2c0.6,0,1.2-0.5,1.2-1.1
	c0,0,0,0,0,0V8.9L29.2,18.2z M23.2,16.6l-5.4,5.1c-0.1,0.1-0.2,0.1-0.3,0.1c-0.3,0-0.5-0.2-0.5-0.5c0-0.1,0.1-0.3,0.2-0.4l5.4-5.1
	c0.2-0.2,0.5-0.2,0.7,0C23.4,16.1,23.4,16.4,23.2,16.6L23.2,16.6z M39.6,21.6c-0.2,0.2-0.5,0.2-0.7,0c0,0,0,0,0,0l-5.3-5.1
	c-0.2-0.2-0.2-0.5,0-0.7c0.2-0.2,0.5-0.2,0.7,0l5.3,5.2C39.7,21.2,39.7,21.5,39.6,21.6L39.6,21.6z"/>
<rect class="st1" width="56.7" height="30"/>
</svg>
