<svg xmlns="http://www.w3.org/2000/svg" xmlns:xlink="http://www.w3.org/1999/xlink" viewBox="0 0 47.8 25.31"><defs><style>.cls-1{fill:none;}.cls-2{fill:#ac0000;}.cls-3{fill:url(#New_Pattern_Swatch_1);}</style><pattern id="New_Pattern_Swatch_1" data-name="New Pattern Swatch 1" width="45" height="45" patternTransform="matrix(1.11, 0, 0, -1.08, -163.04, 760.28)" patternUnits="userSpaceOnUse" viewBox="0 0 45 45"><rect class="cls-1" width="45" height="45"/><rect class="cls-1" width="45" height="45"/><rect class="cls-2" width="45" height="45"/></pattern></defs><title>nav3-3</title><g id="Layer_2" data-name="Layer 2"><g id="Layer_1-2" data-name="Layer 1"><rect class="cls-1" width="47.8" height="25.31"/><path class="cls-3" d="M29.08,13a4.92,4.92,0,0,0-.5-.05c-.15,0-.3,0-.46,0s-.22,0-.33,0a5.14,5.14,0,0,0-.52.05,4.93,4.93,0,1,0,1.82,0Zm-1,8.73a3.86,3.86,0,0,1-.5-7.69,2.77,2.77,0,0,1,1.11,0,3.86,3.86,0,0,1-.61,7.68Z"/><path class="cls-3" d="M30.56,17.06H28.88V15.38a.76.76,0,1,0-1.53,0v1.69H25.66a.77.77,0,0,0,0,1.53h1.69v1.69a.76.76,0,1,0,1.53,0V18.59h1.69a.77.77,0,1,0,0-1.53Z"/><circle class="cls-3" cx="22.19" cy="9.64" r="4.16"/><path class="cls-3" d="M22.64,17.83A5.41,5.41,0,0,1,23.46,15c0-.07.1-.12.14-.19a8,8,0,0,0-1.42-.13h0a7.57,7.57,0,0,0-6.4,3.4,6.58,6.58,0,0,0-1.05,3.56v1.14H25.82a5.41,5.41,0,0,1-3.18-4.95Z"/></g></g></svg>