<svg xmlns="http://www.w3.org/2000/svg" xmlns:xlink="http://www.w3.org/1999/xlink" viewBox="0 0 47.8 25.31"><defs><style>.cls-1{fill:none;}.cls-2{fill:#ac0000;}.cls-3{fill:url(#New_Pattern_Swatch_1);}</style><pattern id="New_Pattern_Swatch_1" data-name="New Pattern Swatch 1" width="45" height="45" patternTransform="translate(-171.69 37.52) scale(1.11 1.08)" patternUnits="userSpaceOnUse" viewBox="0 0 45 45"><rect class="cls-1" width="45" height="45"/><rect class="cls-2" width="45" height="45"/></pattern></defs><title>nav3_3</title><g id="Layer_2" data-name="Layer 2"><g id="Layer_1-2" data-name="Layer 1"><rect class="cls-1" width="47.8" height="25.31"/><circle class="cls-3" cx="19.58" cy="7.23" r="5.03"/><circle class="cls-3" cx="31.16" cy="12.39" r="3.39"/><path class="cls-3" d="M19.59,13.31a9.13,9.13,0,0,1,7.7,4.12l0,0A9.15,9.15,0,0,0,19.59,13.31Z"/><path class="cls-3" d="M19.58,13.31h0c-5,0-9,3.77-9,8.41v1.39h0V21.85A8.8,8.8,0,0,1,19.58,13.31Z"/><path class="cls-3" d="M28.59,21.85v-.13a8,8,0,0,0-1.27-4.31l0,0A8.16,8.16,0,0,1,28.59,21.85Z"/><path class="cls-3" d="M37.24,22.16a5.88,5.88,0,0,0-6.08-5.67,6.36,6.36,0,0,0-3.17.84,8.12,8.12,0,0,1,1.3,4.39v1.37h8Z"/><path class="cls-3" d="M27.29,17.43a9.13,9.13,0,0,0-7.7-4.12h0a8.8,8.8,0,0,0-9,8.54v1.25h18V21.85A8.16,8.16,0,0,0,27.29,17.43Z"/><polygon class="cls-3" points="19.58 13.31 19.58 13.31 19.58 13.31 19.58 13.31"/></g></g></svg>