<svg xmlns="http://www.w3.org/2000/svg" xmlns:xlink="http://www.w3.org/1999/xlink" viewBox="0 0 47.8 25.31"><defs><style>.cls-1{fill:none;}.cls-2{fill:#ac0000;}.cls-3{fill:url(#New_Pattern_Swatch_1);}</style><pattern id="New_Pattern_Swatch_1" data-name="New Pattern Swatch 1" width="45" height="45" patternTransform="translate(-171.69 37.52) scale(1.11 1.08)" patternUnits="userSpaceOnUse" viewBox="0 0 45 45"><rect class="cls-1" width="45" height="45"/><rect class="cls-2" width="45" height="45"/></pattern></defs><title>nav3-2</title><g id="Layer_2" data-name="Layer 2"><g id="Layer_1-2" data-name="Layer 1"><rect class="cls-1" width="47.8" height="25.31"/><circle class="cls-3" cx="23.9" cy="9.47" r="2.95"/><path class="cls-3" d="M23.91,13a5.36,5.36,0,0,1,4.52,2.42h0A5.37,5.37,0,0,0,23.91,13Z"/><path class="cls-3" d="M23.9,13h0A5.12,5.12,0,0,0,18.61,18v.81h0v-.74A5.17,5.17,0,0,1,23.9,13Z"/><path class="cls-3" d="M29.19,18.06V18a4.67,4.67,0,0,0-.75-2.53h0A4.79,4.79,0,0,1,29.19,18.06Z"/><path class="cls-3" d="M28.43,15.46A5.36,5.36,0,0,0,23.91,13h0a5.17,5.17,0,0,0-5.29,5v.74H29.19v-.73A4.79,4.79,0,0,0,28.43,15.46Z"/><polygon class="cls-3" points="23.9 13.04 23.9 13.04 23.91 13.04 23.9 13.04"/><path class="cls-3" d="M31.84,4.27a11.55,11.55,0,1,0,3.61,8.39A11.51,11.51,0,0,0,31.84,4.27ZM14.06,12.66A9.79,9.79,0,0,1,30,5L16.48,19.1A9.79,9.79,0,0,1,14.06,12.66ZM23.9,22.5a9.8,9.8,0,0,1-6.2-2.21L31.25,6.12a9.74,9.74,0,0,1,2.49,6.53A9.85,9.85,0,0,1,23.9,22.5Z"/></g></g></svg>