<svg xmlns="http://www.w3.org/2000/svg" xmlns:xlink="http://www.w3.org/1999/xlink" viewBox="0 0 47.8 25.31"><defs><style>.cls-1{fill:none;}.cls-2{fill:#ac0000;}.cls-3{fill:url(#New_Pattern_Swatch_1);}</style><pattern id="New_Pattern_Swatch_1" data-name="New Pattern Swatch 1" width="45" height="45" patternTransform="translate(-205.48 63.26) scale(1.13 1.1)" patternUnits="userSpaceOnUse" viewBox="0 0 45 45"><rect class="cls-1" width="45" height="45"/><rect class="cls-2" width="45" height="45"/></pattern></defs><title>nav4.svg</title><g id="Layer_2" data-name="Layer 2"><g id="Layer_1-2" data-name="Layer 1"><rect class="cls-1" width="47.8" height="25.31"/><path class="cls-3" d="M28.69,2s-3.87,3.49-5,3.74l1.54.35a12.45,12.45,0,0,1-9.56,6.8A12.35,12.35,0,0,0,29,6.88c.83.17,1.49.3,1.7.31C31.39,7.22,28.51,2.69,28.69,2Z"/><path class="cls-3" d="M20.49,21.29V16.8a1,1,0,0,0-1-1h-2a1,1,0,0,0-1,1v4.48Z"/><path class="cls-3" d="M25.95,21.29V14.64a1,1,0,0,0-1-1h-2a1,1,0,0,0-1,1v6.65Z"/><path class="cls-3" d="M31.41,21.29V11.75a1,1,0,0,0-1-1h-2a1,1,0,0,0-1,1v9.53Z"/><rect class="cls-3" x="15.48" y="22.21" width="16.84" height="1.14"/></g></g></svg>