<svg xmlns="http://www.w3.org/2000/svg" xmlns:xlink="http://www.w3.org/1999/xlink" viewBox="0 0 47.8 25.31"><defs><style>.cls-1{fill:none;}.cls-2{fill:#ac0000;}.cls-3{fill:url(#New_Pattern_Swatch_1);}.cls-4{fill:url(#New_Pattern_Swatch_1-3);}</style><pattern id="New_Pattern_Swatch_1" data-name="New Pattern Swatch 1" width="45" height="45" patternTransform="translate(-226.44 229.82) scale(1.39 1.35)" patternUnits="userSpaceOnUse" viewBox="0 0 45 45"><rect class="cls-1" width="45" height="45"/><rect class="cls-2" width="45" height="45"/></pattern><pattern id="New_Pattern_Swatch_1-3" data-name="New Pattern Swatch 1" width="45" height="45" patternTransform="translate(-215.3 177.24) scale(1.39 1.35)" patternUnits="userSpaceOnUse" viewBox="0 0 45 45"><rect class="cls-1" width="45" height="45"/><rect class="cls-2" width="45" height="45"/></pattern></defs><title>nav5</title><g id="Layer_2" data-name="Layer 2"><g id="Layer_1-2" data-name="Layer 1"><rect class="cls-1" width="47.8" height="25.31"/><path class="cls-3" d="M30.51,9.68V8.27a6.79,6.79,0,0,0-13.58,0V9.75a2.83,2.83,0,0,0-2.1,2.72V21a2.83,2.83,0,0,0,2.83,2.83H30.15A2.83,2.83,0,0,0,33,21V12.48A2.83,2.83,0,0,0,30.51,9.68ZM18.75,8.27a5,5,0,0,1,9.93,0V9.64H18.75ZM31,21a.84.84,0,0,1-.84.84H17.66a.84.84,0,0,1-.84-.84V12.48A.81.81,0,0,1,17,12a.83.83,0,0,1,.7-.41H30.15a.82.82,0,0,1,.35.08.84.84,0,0,1,.49.76Z"/><path class="cls-4" d="M23.9,12.77a2.08,2.08,0,0,0-2.07,2.07h0a2.07,2.07,0,0,0,1.34,1.93v2.48a.73.73,0,0,0,1.47,0V16.77A2.07,2.07,0,0,0,26,14.84h0A2.08,2.08,0,0,0,23.9,12.77Z"/></g></g></svg>