<svg xmlns="http://www.w3.org/2000/svg" viewBox="0 0 6.38 7.61"><defs><style>.cls-1,.cls-3{fill:#6c6d6d;}.cls-1,.cls-2{stroke:#6c6d6d;stroke-width:0.25px;}.cls-1{stroke-miterlimit:10;}.cls-2{fill:#e8e6e6;stroke-linecap:round;stroke-linejoin:round;}</style></defs><title>Asset 1</title><g id="Layer_2" data-name="Layer 2"><g id="Layer_1-2" data-name="Layer 1"><path class="cls-1" d="M1.12,1.71l.59-.48a.5.5,0,0,1,.71.07l-.8-1A.5.5,0,0,0,.9.24L.31.71a.5.5,0,0,0-.07.7l.42.52A.11.11,0,0,0,.81,2Z"/><path class="cls-2" d="M.81,2.13,4.44,6.62a.6.6,0,0,0,.24.18l1,.41a.07.07,0,0,0,.09,0A.52.52,0,0,1,6,6.94a.07.07,0,0,0,.05-.08L5.93,5.79a.6.6,0,0,0-.13-.29L2.41,1.31a.5.5,0,0,0-.71-.07l-.87.71A.14.14,0,0,0,.81,2.13Z"/><path class="cls-3" d="M6,7.51l.22.09a.1.1,0,0,0,.13-.1l0-.23a.1.1,0,0,0-.13-.07l-.13.08L6,7.37A.1.1,0,0,0,6,7.51Z"/></g></g></svg>