<?xml version="1.0" encoding="utf-8"?>
<!-- Generator: Adobe Illustrator 21.0.0, SVG Export Plug-In . SVG Version: 6.00 Build 0)  -->
<svg version="1.1" id="Layer_1" xmlns="http://www.w3.org/2000/svg" xmlns:xlink="http://www.w3.org/1999/xlink" x="0px" y="0px"
	 viewBox="0 0 6.4 7.6" style="enable-background:new 0 0 6.4 7.6;" xml:space="preserve">
<style type="text/css">
	.st0{fill:#CC3333;stroke:#993333;stroke-width:0.25;stroke-miterlimit:10;}
	.st1{fill:#CC3333;stroke:#993333;stroke-width:0.25;stroke-linecap:round;stroke-linejoin:round;}
	.st2{fill:#993333;}
</style>
<title>Asset 1</title>
<path class="st0" d="M1.1,1.7l0.6-0.5c0.2-0.2,0.5-0.1,0.7,0.1c0,0,0,0,0,0l-0.8-1C1.4,0.1,1.1,0.1,0.9,0.2c0,0,0,0,0,0L0.3,0.7
	C0.1,0.9,0.1,1.2,0.2,1.4l0.4,0.5C0.7,2,0.7,2,0.8,2c0,0,0,0,0,0L1.1,1.7z"/>
<path class="st1" d="M0.8,2.1l3.6,4.5c0.1,0.1,0.1,0.1,0.2,0.2l1,0.4c0,0,0.1,0,0.1,0C5.8,7.1,5.9,7,6,6.9c0,0,0.1,0,0.1-0.1
	L5.9,5.8c0-0.1-0.1-0.2-0.1-0.3L2.4,1.3C2.2,1.1,1.9,1.1,1.7,1.2c0,0,0,0,0,0L0.8,1.9C0.8,2,0.8,2.1,0.8,2.1z"/>
<path class="st2" d="M6,7.5l0.2,0.1c0.1,0,0.1,0,0.1-0.1c0,0,0,0,0,0V7.3c0-0.1-0.1-0.1-0.1-0.1c0,0,0,0,0,0L6.1,7.3L6,7.4
	C6,7.4,6,7.5,6,7.5z"/>
</svg>
