<svg xmlns="http://www.w3.org/2000/svg" xmlns:xlink="http://www.w3.org/1999/xlink" viewBox="0 0 16.71 21.82"><defs><style>.cls-1{isolation:isolate;}.cls-2{fill:#231f20;}.cls-3{fill:url(#linear-gradient);}.cls-4{fill:url(#linear-gradient-2);}.cls-5{fill:url(#linear-gradient-3);}.cls-6{fill:url(#linear-gradient-4);}.cls-7{fill:url(#radial-gradient);}.cls-8,.cls-9{fill:#fff;}.cls-8{stroke:#fff;stroke-miterlimit:10;stroke-width:0.5px;}.cls-10{fill:url(#linear-gradient-5);}.cls-11{fill:url(#linear-gradient-6);}.cls-12{fill:url(#linear-gradient-7);}.cls-13{fill:url(#linear-gradient-8);}.cls-14{fill:url(#linear-gradient-9);}.cls-15{fill:#c2a574;mix-blend-mode:multiply;}.cls-16{fill:url(#linear-gradient-10);}.cls-17{fill:#fffaac;}</style><linearGradient id="linear-gradient" x1="7.1" y1="4.12" x2="1.91" y2="7.82" gradientUnits="userSpaceOnUse"><stop offset="0" stop-color="#e24b5e"/><stop offset="0.99" stop-color="#AC0000"/></linearGradient><linearGradient id="linear-gradient-2" x1="12.54" y1="19.21" x2="2.31" y2="9.14" gradientUnits="userSpaceOnUse"><stop offset="0" stop-color="#a30814"/><stop offset="1" stop-color="#AC0000"/></linearGradient><linearGradient id="linear-gradient-3" x1="8.94" y1="14.5" x2="14.06" y2="8.13" gradientUnits="userSpaceOnUse"><stop offset="0" stop-color="#e24b5e"/><stop offset="1" stop-color="#d33d48"/></linearGradient><linearGradient id="linear-gradient-4" x1="8.2" y1="2.8" x2="14.75" y2="8.23" xlink:href="#linear-gradient-3"/><radialGradient id="radial-gradient" cx="8.4" cy="11.33" r="7.31" gradientUnits="userSpaceOnUse"><stop offset="0" stop-color="#e24b5e"/><stop offset="1" stop-color="#AC0000"/></radialGradient><linearGradient id="linear-gradient-5" x1="8.36" y1="11.42" x2="8.36" y2="5.33" gradientTransform="translate(16.58 -0.13) rotate(89)" gradientUnits="userSpaceOnUse"><stop offset="0" stop-color="#bf7600"/><stop offset="0.05" stop-color="#d39100"/><stop offset="0.11" stop-color="#e6ac00"/><stop offset="0.18" stop-color="#f4c000"/><stop offset="0.24" stop-color="#fccb00"/><stop offset="0.31" stop-color="#ffcf00"/><stop offset="0.43" stop-color="#ffd82b"/><stop offset="0.61" stop-color="#ffe976"/><stop offset="0.74" stop-color="#fff17d"/><stop offset="0.9" stop-color="#fff681"/><stop offset="1" stop-color="#ffe976"/></linearGradient><linearGradient id="linear-gradient-6" x1="8.36" y1="11.52" x2="8.36" y2="5.23" gradientUnits="userSpaceOnUse"><stop offset="0" stop-color="#fcfca2"/><stop offset="0.01" stop-color="#fcf37e"/><stop offset="0.03" stop-color="#fceb5c"/><stop offset="0.04" stop-color="#fce43f"/><stop offset="0.06" stop-color="#fcdf28"/><stop offset="0.08" stop-color="#fcda16"/><stop offset="0.11" stop-color="#fcd709"/><stop offset="0.14" stop-color="#fcd602"/><stop offset="0.22" stop-color="#fcd500"/><stop offset="0.48" stop-color="#db9900"/><stop offset="0.61" stop-color="#cc7f00"/><stop offset="1" stop-color="#c37600"/></linearGradient><linearGradient id="linear-gradient-7" x1="8.36" y1="11.89" x2="8.36" y2="4.86" xlink:href="#linear-gradient-6"/><linearGradient id="linear-gradient-8" x1="8.36" y1="12.33" x2="8.36" y2="4.42" gradientUnits="userSpaceOnUse"><stop offset="0" stop-color="#bf7f00"/><stop offset="0.09" stop-color="#c78a00"/><stop offset="0.26" stop-color="#dca600"/><stop offset="0.47" stop-color="#ffd400"/><stop offset="0.47" stop-color="#ffd500"/><stop offset="0.56" stop-color="#ffd503"/><stop offset="0.63" stop-color="#ffd70e"/><stop offset="0.7" stop-color="#ffd91f"/><stop offset="0.76" stop-color="#fedc38"/><stop offset="0.83" stop-color="#fedf57"/><stop offset="0.89" stop-color="#fee47e"/><stop offset="0.95" stop-color="#fdeaab"/><stop offset="1" stop-color="#fdefd9"/></linearGradient><linearGradient id="linear-gradient-9" x1="8.36" y1="11.73" x2="8.36" y2="5.02" xlink:href="#linear-gradient-8"/><linearGradient id="linear-gradient-10" x1="8.41" y1="10.28" x2="8.41" y2="6.2" gradientUnits="userSpaceOnUse"><stop offset="0" stop-color="#c70"/><stop offset="0.37" stop-color="#f4c100"/><stop offset="0.47" stop-color="#ffd500"/><stop offset="0.53" stop-color="#ffd604"/><stop offset="0.58" stop-color="#ffd80e"/><stop offset="0.63" stop-color="#ffdd20"/><stop offset="0.68" stop-color="#ffe33a"/><stop offset="0.73" stop-color="#ffeb5b"/><stop offset="0.74" stop-color="#ffec60"/><stop offset="0.8" stop-color="#ffeb5d"/><stop offset="0.86" stop-color="#ffe953"/><stop offset="0.9" stop-color="#ffe543"/><stop offset="0.94" stop-color="#ffdf2c"/><stop offset="0.98" stop-color="#ffd80e"/><stop offset="1" stop-color="#ffd500"/></linearGradient></defs><title>sticher</title><g class="cls-1"><g id="Layer_2" data-name="Layer 2"><g id="Layer_1-2" data-name="Layer 1"><path class="cls-2" d="M8.36,12.83a4.46,4.46,0,1,1,1.74-.35A4.45,4.45,0,0,1,8.36,12.83Zm0-8.94a4.47,4.47,0,1,0,4.47,4.47A4.47,4.47,0,0,0,8.36,3.89Z"/><path class="cls-3" d="M8.36,0h0A8.35,8.35,0,0,0,0,8.36H8.36Z"/><path class="cls-4" d="M0,8.36A6.27,6.27,0,0,0,.36,10.3a14.28,14.28,0,0,0,.92,2.11A33.56,33.56,0,0,0,4,16.67c2,2.65,4,4.78,4,4.8l.33.35h0V8.36Z"/><path class="cls-5" d="M8.36,8.36V21.82l.33-.35s2-2.16,4-4.8a33.56,33.56,0,0,0,2.75-4.26,14.28,14.28,0,0,0,.92-2.11,6.27,6.27,0,0,0,.36-1.95Z"/><path class="cls-6" d="M16.71,8.36h0A8.35,8.35,0,0,0,8.36,0V8.36Z"/><path class="cls-7" d="M8.34,14.12a5.72,5.72,0,1,1,2.23-.45A5.7,5.7,0,0,1,8.34,14.12Z"/><path class="cls-8" d="M12.41,4.3a5.78,5.78,0,0,1,.72.87,5.69,5.69,0,0,1,.53,1,5.78,5.78,0,0,1,0,4.4,5.7,5.7,0,0,1-.53,1,5.83,5.83,0,0,1-1.58,1.6,5.76,5.76,0,0,1-6.43,0,5.81,5.81,0,0,1-1.6-1.6,5.77,5.77,0,0,1,0-6.43,5.83,5.83,0,0,1,1.6-1.58,5.75,5.75,0,0,1,2.08-.85,5.83,5.83,0,0,1,1.12-.11,5.74,5.74,0,0,1,2.2.44,5.69,5.69,0,0,1,1,.53A5.78,5.78,0,0,1,12.41,4.3Zm0,0a5.78,5.78,0,0,0-.87-.71,5.71,5.71,0,0,0-6.37,0A5.78,5.78,0,0,0,3.61,5.18a5.7,5.7,0,0,0-.84,2.06,5.79,5.79,0,0,0-.1,1.11,5.69,5.69,0,0,0,.44,2.18,5.63,5.63,0,0,0,.53,1A5.81,5.81,0,0,0,5.2,13.09a5.63,5.63,0,0,0,1,.53,5.72,5.72,0,0,0,4.36,0,5.65,5.65,0,0,0,1-.52,5.78,5.78,0,0,0,1.58-1.57,5.71,5.71,0,0,0,0-6.37A5.78,5.78,0,0,0,12.41,4.3Z"/><circle class="cls-9" cx="8.36" cy="8.36" r="1.89"/><circle class="cls-10" cx="8.36" cy="8.37" r="3.05" transform="translate(-0.16 16.58) rotate(-89)"/><path class="cls-11" d="M11.37,9.27c0-.08,0-.16.06-.25V9s0,0,0,0a3.09,3.09,0,0,0,.05-.51,3.15,3.15,0,0,0-3.09-3.2H8.19l-.2,0-.14,0-.2,0-.09,0h0a3.18,3.18,0,0,0-.4.14h0L7,5.52l-.23.12-.06,0,0,0-.17.12-.07.05,0,0L6.3,6l-.09.07,0,0-.09.09L6,6.28l0,0-.07.08-.08.1,0,0-.06.09-.05.08,0,.07-.06.1,0,.05L5.51,7l0,.09v0l-.09.23h0v0c0,.06,0,.13-.06.19v0l0,.09,0,.11V8s0,0,0,.07,0,.13,0,.2,0,.05,0,.08,0,.09,0,.14,0,.09,0,.13v0l0,.11c0,.06,0,.12,0,.18V9l0,.07c0,.09,0,.17.07.26l0,.06,0,.06.06.14.06.14.07.14,0,.08,0,0a3.1,3.1,0,0,0,.26.36l.05.06a3.25,3.25,0,0,0,.33.33h0l.25.19.06,0,.2.13h0l0,0,.28.13,0,0,.08,0,.17.06.07,0,.08,0,.14,0,.07,0h.1l.12,0h.65l.18,0H8.9l.09,0,.1,0,.09,0,.09,0,.05,0,.15-.05.07,0h0l.23-.11h0l.07,0L10,11h0l.1-.07.11-.08,0,0,.13-.11.09-.07,0,0a3.23,3.23,0,0,0,.44-.53l0,0,0,0a3.3,3.3,0,0,0,.2-.37v0h0a3.32,3.32,0,0,0,.12-.31Zm-6-1.21V8c0-.07,0-.13,0-.2l0-.09c0-.08,0-.16.07-.24v0c0-.09.06-.17.1-.26l0-.06.09-.18,0-.09.1-.15.06-.08L6,6.46l.07-.08.11-.12.09-.09.11-.09L6.48,6l.1-.07.16-.11.1-.06.23-.12.09,0a3,3,0,0,1,.39-.14l.11,0,.19,0,.13,0,.2,0h.21a3,3,0,0,1,3,3.1,3.1,3.1,0,0,1-.05.49V9c0,.08,0,.15-.06.23l0,.09a3.17,3.17,0,0,1-.11.3v0a3.07,3.07,0,0,1-.19.35l-.05.08a3.41,3.41,0,0,1-.21.28l-.22.23-.1.09-.12.1-.13.09-.1.07-.18.1-.06,0-.25.11-.07,0-.19.06-.09,0-.18,0-.09,0-.23,0H8.3L8,11.4H7.92l-.17,0-.13,0-.14,0-.17-.06-.12,0-.26-.12-.06,0-.17-.11-.08-.05-.24-.18a3,3,0,0,1-.32-.32l0-.06A3,3,0,0,1,5.76,10l-.06-.1-.07-.14-.06-.13-.06-.14,0-.12c0-.09-.05-.17-.07-.26l0-.09c0-.06,0-.12,0-.18s0-.09,0-.14,0-.08,0-.12,0-.15,0-.22S5.32,8.14,5.33,8.05Z"/><path class="cls-12" d="M11.86,8.16s0-.06,0-.09a3.15,3.15,0,0,0,0-.33l0-.1c0-.07,0-.15-.05-.22l0-.13,0-.14v0a3.54,3.54,0,0,0-.23-.49l0-.08a3.57,3.57,0,0,0-.31-.43L11,6.07a3.51,3.51,0,0,0-.38-.38l0,0a3.57,3.57,0,0,0-.45-.31h0l-.08,0L9.8,5.17l-.11,0L9.5,5.05,9.37,5,9.18,5,9,4.93l-.11,0H8.88a3.42,3.42,0,0,0-.46,0H8.15a3.55,3.55,0,0,0-.48.06h0L7.57,5,7.26,5l-.06,0-.06,0-.23.09-.08,0,0,0-.18.1-.1.05,0,0-.14.1-.11.07,0,0-.12.1L6,5.78l0,0-.11.11L5.76,6l0,0-.09.1-.06.07-.05.08-.07.1,0,.05-.07.12-.06.1,0,0-.12.24h0c0,.08-.07.17-.1.26v0l0,.1,0,.14,0,.08,0,.11,0,.09s0,.08,0,.12,0,.07,0,.11v.06c0,.09,0,.17,0,.26s0,0,0,.06,0,.14,0,.22,0,.06,0,.1,0,0,0,0,0,.11,0,.16,0,.12,0,.18v0l0,.08c0,.09,0,.19.07.28v0l0,0a3.47,3.47,0,0,0,.21.49h0l.06.09.12.2.08.12.13.17.1.11.14.15L6,11l.15.13.06.05,0,0a3.44,3.44,0,0,0,.43.28l0,0,.08,0,.24.11.07,0,.07,0,.18.06.09,0,.07,0,.14,0,.1,0h.09l.13,0h.68l.28,0h.1l.17,0,.07,0,.1,0,.1,0,.11,0,.1,0,.05,0,.16-.07.08,0h0l.25-.15.25-.18h0l.09-.08.14-.12,0,0,.12-.12.1-.1v0l.17-.22,0-.06h0c.07-.1.14-.21.2-.32v0l0-.05a3.34,3.34,0,0,0,.14-.31l0-.06v0a3.47,3.47,0,0,0,.14-.47h0c0-.07,0-.13,0-.2l0-.12c0-.12,0-.23,0-.35V8.38C11.87,8.31,11.86,8.23,11.86,8.16Zm-.17.61s0,.09,0,.13,0,.13,0,.19a3.38,3.38,0,0,1-.13.44l0,.1c0,.1-.08.19-.13.29l0,.08c-.06.1-.12.21-.19.3l-.06.07-.16.2-.09.1-.13.13-.13.11-.11.09-.22.16,0,0-.26.15-.08,0-.19.09-.1,0-.18.06-.11,0-.21,0-.09,0-.3,0H8.3l-.28,0-.13,0-.18,0-.15,0-.15,0-.18-.06-.13-.05-.23-.1-.1-.05a3.17,3.17,0,0,1-.42-.27L6.26,11l-.16-.13L6,10.76l-.14-.15-.09-.11-.12-.16-.08-.11-.11-.18-.06-.11a3.34,3.34,0,0,1-.2-.46l0-.1c0-.08,0-.17-.07-.26l0-.11c0-.06,0-.12,0-.19s0-.1,0-.15,0-.09,0-.13,0-.15,0-.23,0-.2,0-.3V7.9c0-.07,0-.13,0-.2l0-.11.06-.21,0-.08c0-.1.07-.19.11-.28h0c0-.09.08-.18.13-.26l0-.08.11-.17.07-.09.12-.15.08-.09L6,6l.09-.09.14-.12.1-.09.13-.1.13-.09.12-.07.17-.09L7,5.32l.21-.09.13,0,.29-.08.09,0A3.36,3.36,0,0,1,8.16,5h.25a3.47,3.47,0,0,1,.44,0l.16,0,.13,0,.18.05.12,0,.19.07.11,0,.21.1.07,0,0,0a3.27,3.27,0,0,1,.43.3l0,0a3.23,3.23,0,0,1,.37.36l.05.06a3.49,3.49,0,0,1,.29.41l0,.07a3.39,3.39,0,0,1,.22.47l.05.15,0,.12c0,.07,0,.13,0,.2l0,.1c0,.1,0,.21,0,.31s0,.07,0,.11,0,.16,0,.24S11.7,8.66,11.69,8.77Z"/><path class="cls-13" d="M8.43,4.42a4,4,0,1,0,3.88,4A4,4,0,0,0,8.43,4.42Zm-.13,7.47a3.51,3.51,0,1,1,3.57-3.45A3.51,3.51,0,0,1,8.29,11.89Z"/><path class="cls-14" d="M5,8.32A3.35,3.35,0,1,1,8.3,11.73,3.35,3.35,0,0,1,5,8.32Zm.2,0a3.15,3.15,0,1,0,3.2-3.09,3.15,3.15,0,0,0-3.2,3.09Z"/><path class="cls-15" d="M9.87,8.67a1,1,0,0,0-.41-.36A1.05,1.05,0,0,0,9.72,8a.89.89,0,0,0,.11-.45,1,1,0,0,0-.13-.48,1,1,0,0,0-.33-.36A1.09,1.09,0,0,0,9,6.55a2.81,2.81,0,0,0-.48,0H7.62c-.1,0-.15-.09-.15-.14a0,0,0,0,1,0,0H7.05l0,.12.17.22h0l0,0a.68.68,0,0,0,.33.18V10a.62.62,0,0,0-.46.36H6.91l.14.18h.41s0-.1.17-.14h.85a4.55,4.55,0,0,0,.54,0,1.31,1.31,0,0,0,.52-.19,1,1,0,0,0,.36-.39A1.11,1.11,0,0,0,10,9.27,1.09,1.09,0,0,0,9.87,8.67ZM8,6.95h.55l.3,0a.72.72,0,0,1,.24.09.52.52,0,0,1,.18.2.56.56,0,0,1,.08.28.56.56,0,0,1-.08.28.49.49,0,0,1-.2.2l-.17.07a.45.45,0,0,0-.74,0H8ZM9.47,9.6a.64.64,0,0,1-.25.24,1,1,0,0,1-.28.09l-.33,0H8V8.57h.12l0,.06h0a.45.45,0,0,0,.14.13.45.45,0,0,0,.61-.16l.19,0a.65.65,0,0,1,.32.24.68.68,0,0,1,.12.4A.61.61,0,0,1,9.47,9.6Z"/><path class="cls-16" d="M9.73,8.48a1,1,0,0,0-.41-.36,1.05,1.05,0,0,0,.26-.3.89.89,0,0,0,.11-.45,1,1,0,0,0-.13-.48,1,1,0,0,0-.33-.36,1.09,1.09,0,0,0-.41-.17,2.81,2.81,0,0,0-.48,0H7.48c-.1,0-.15-.09-.15-.14a0,0,0,0,1,0,0H6.91a.58.58,0,0,0,.5.55V9.81a.58.58,0,0,0-.5.55h.41s0-.1.17-.14h.85a4.55,4.55,0,0,0,.54,0A1.31,1.31,0,0,0,9.41,10a1,1,0,0,0,.36-.39,1.11,1.11,0,0,0,.13-.52A1.09,1.09,0,0,0,9.73,8.48ZM7.88,6.77h.55l.3,0A.72.72,0,0,1,9,6.88a.52.52,0,0,1,.18.2.56.56,0,0,1,.08.28.56.56,0,0,1-.08.28.49.49,0,0,1-.2.2l-.17.07a.45.45,0,0,0-.74,0H7.88ZM9.33,9.41a.64.64,0,0,1-.25.24,1,1,0,0,1-.28.09l-.33,0h-.6V8.38H8a.45.45,0,0,0,.79,0l.19,0a.65.65,0,0,1,.32.24.68.68,0,0,1,.12.4A.61.61,0,0,1,9.33,9.41Z"/><path class="cls-17" d="M7.44,9.83V6.73h0V9.81a.58.58,0,0,0-.5.55h0A.59.59,0,0,1,7.44,9.83Z"/><path class="cls-17" d="M7.3,6.22a0,0,0,0,0,0,0c0,.05,0,.11.15.14h.85a2.75,2.75,0,0,1,.47,0,1.43,1.43,0,0,1,.48.18,1.14,1.14,0,0,1,.24.2,1,1,0,0,0-.24-.23,1.09,1.09,0,0,0-.41-.17,2.81,2.81,0,0,0-.48,0H7.47c-.1,0-.15-.09-.15-.14a0,0,0,0,1,0,0H6.91a.53.53,0,0,0,.11.3.49.49,0,0,1-.07-.27Z"/><path class="cls-17" d="M9.13,7.64a.49.49,0,0,1-.2.2l-.17.07a.45.45,0,0,0-.74,0h-.1V8H8a.44.44,0,0,1,.73,0l.18-.07a.48.48,0,0,0,.2-.19.54.54,0,0,0,.08-.28.51.51,0,0,0,0-.11.52.52,0,0,1,0,.06A.56.56,0,0,1,9.13,7.64Z"/><path class="cls-17" d="M9.75,8.54l0-.06a1,1,0,0,0-.38-.34l0,0A1.08,1.08,0,0,1,9.75,8.54Z"/><path class="cls-17" d="M9.32,9.41a.64.64,0,0,1-.25.24,1,1,0,0,1-.28.09l-.33,0H7.93v.05h.59l.32,0a.94.94,0,0,0,.27-.09.62.62,0,0,0,.24-.23.6.6,0,0,0,.09-.31.69.69,0,0,0-.05-.27.73.73,0,0,1,0,.2A.61.61,0,0,1,9.32,9.41Z"/></g></g></g></svg>