<svg xmlns="http://www.w3.org/2000/svg" viewBox="0 0 21.43 21.51"><defs><style>.cls-1{fill:#fff;}.cls-2{fill:#a00e0e;}</style></defs><title>tab11-selected</title><g id="Layer_2" data-name="Layer 2"><g id="Layer_1-2" data-name="Layer 1"><path class="cls-1" d="M8.38,1.87H8.32C4.83,3.48-2.2,8.46.67,11.77a40.63,40.63,0,0,0,6.2,5.74c2.5,1.75,7.31,5.1,10.46,3.66S21,14,21.33,11A39.73,39.73,0,0,0,21,2.59C20.28-1.71,11.87.29,8.38,1.87Z"/><path class="cls-1" d="M21,2.59c-.67-4.3-9.09-2.3-12.58-.72H8.32A21.76,21.76,0,0,0,1.38,7a22.71,22.71,0,0,1,6.4-4.49h.06c3.49-1.58,11.9-3.58,12.58.72a39.73,39.73,0,0,1,.37,8.37c-.23,2.4-.63,6.55-2.38,8.86,2.2-2.11,2.66-6.83,2.91-9.45A39.73,39.73,0,0,0,21,2.59Z"/><path class="cls-2" d="M9,3.15H8.92c-3,1.37-9.12,5.7-6.63,8.56a35.24,35.24,0,0,0,5.38,5c2.17,1.52,6.34,4.42,9.07,3.17S20,13.65,20.2,11a34.46,34.46,0,0,0-.32-7.26C19.3,0,12,1.78,9,3.15Z"/><path class="cls-1" d="M14.83,10.59a2.57,2.57,0,0,0,.63-.39,2.26,2.26,0,0,0,.66-1A2.43,2.43,0,0,0,16.23,8a2.56,2.56,0,0,0-.48-1.12,2.74,2.74,0,0,0-.84-.75,6.9,6.9,0,0,0-1.08-.47L11.91,5c-.1-.08-.16-.17-.14-.23h0a.18.18,0,0,0,0-.09c0-.06-.07-.11-.21-.14l-.84-.29a.18.18,0,0,0-.23.11A1.51,1.51,0,0,0,11.13,6L8.8,12.55a1.54,1.54,0,0,0-1.58.95.18.18,0,0,0,.11.23l.92.32A.18.18,0,0,0,8.48,14s.07-.09.29-.08l1.88.65a11,11,0,0,0,1.26.38,3.32,3.32,0,0,0,1.39,0,2.61,2.61,0,0,0,1.2-.63,2.77,2.77,0,0,0,.74-1.11,2.68,2.68,0,0,0,.1-1.57A2.51,2.51,0,0,0,14.83,10.59Zm-2.34-4L13.54,7a3.76,3.76,0,0,1,.62.27,1.51,1.51,0,0,1,.41.34,1,1,0,0,1,.21.49,1.08,1.08,0,0,1-.39,1.06,1,1,0,0,1-.53.24l-.28,0a1.23,1.23,0,0,0-.73-.67,1.26,1.26,0,0,0-1.15.16h0Zm.93,6.59a1.34,1.34,0,0,1-.65.29,2.11,2.11,0,0,1-.63,0,4.43,4.43,0,0,1-.72-.19l-1.17-.4,1-2.71h0a1.24,1.24,0,0,0,.81.89A1.27,1.27,0,0,0,13.14,11l.26.17a1.33,1.33,0,0,1,.47.69,1.38,1.38,0,0,1,0,.86A1.26,1.26,0,0,1,13.42,13.23Z"/></g></g></svg>