<svg xmlns="http://www.w3.org/2000/svg" xmlns:xlink="http://www.w3.org/1999/xlink" viewBox="0 0 22.11 22.11"><defs><style>.cls-1,.cls-3{fill:none;}.cls-2{fill:#ac0000;}.cls-3{stroke-miterlimit:10;stroke:url(#New_Pattern_Swatch_1);}</style><pattern id="New_Pattern_Swatch_1" data-name="New Pattern Swatch 1" width="45" height="45" patternTransform="translate(-207.26 86.3) scale(0.78 0.76)" patternUnits="userSpaceOnUse" viewBox="0 0 45 45"><rect class="cls-1" width="45" height="45"/><rect class="cls-2" width="45" height="45"/></pattern></defs><title>tab1</title><g id="Layer_2" data-name="Layer 2"><g id="Layer_1-2" data-name="Layer 1"><rect class="cls-1" width="22.11" height="22.11"/><circle class="cls-3" cx="11.06" cy="6.22" r="4.11"/><path class="cls-3" d="M11.06,12a7.47,7.47,0,0,1,6.3,3.37h0A7.49,7.49,0,0,0,11.06,12Z"/><path class="cls-3" d="M11.06,12h0a7.14,7.14,0,0,0-7.38,6.88V20h0V19A7.2,7.2,0,0,1,11.06,12Z"/><path class="cls-3" d="M18.43,19v-.11a6.51,6.51,0,0,0-1-3.53h0A6.68,6.68,0,0,1,18.43,19Z"/><path class="cls-3" d="M17.36,15.36A7.47,7.47,0,0,0,11.06,12h0a7.2,7.2,0,0,0-7.38,7v1H18.43V19A6.68,6.68,0,0,0,17.36,15.36Z"/><polygon class="cls-3" points="11.05 11.99 11.05 11.99 11.06 11.99 11.05 11.99"/></g></g></svg>