<svg xmlns="http://www.w3.org/2000/svg" xmlns:xlink="http://www.w3.org/1999/xlink" viewBox="0 0 22.11 22.11"><defs><style>.cls-1,.cls-3{fill:none;}.cls-2{fill:#ac0000;}.cls-3{stroke-miterlimit:10;stroke-width:0.5px;stroke:url(#New_Pattern_Swatch_1);}</style><pattern id="New_Pattern_Swatch_1" data-name="New Pattern Swatch 1" width="45" height="45" patternTransform="translate(-271.35 186.22) scale(0.94 0.91)" patternUnits="userSpaceOnUse" viewBox="0 0 45 45"><rect class="cls-1" width="45" height="45"/><rect class="cls-2" width="45" height="45"/></pattern></defs><title>tab2</title><g id="Layer_2" data-name="Layer 2"><g id="Layer_1-2" data-name="Layer 1"><rect class="cls-1" width="22.11" height="22.11"/><path class="cls-3" d="M19.78,20.06H2.33a.24.24,0,0,1-.23-.32L5,11a.24.24,0,0,1,.23-.17H7.9l.48.48h-3L2.66,19.57H19.45L16.7,11.33H16l.43-.48h.48a.24.24,0,0,1,.23.17L20,19.74a.24.24,0,0,1-.23.32Z"/><path class="cls-3" d="M12.16,13.22a.24.24,0,0,1-.17-.07L8.88,10a4.69,4.69,0,0,1,0-6.6,4.62,4.62,0,0,1,6.56,0,4.69,4.69,0,0,1,0,6.6l-3.11,3.13A.24.24,0,0,1,12.16,13.22Zm0-10.68A4.11,4.11,0,0,0,9.22,3.76a4.21,4.21,0,0,0,0,5.92h0l2.94,3,2.94-3a4.21,4.21,0,0,0,0-5.92A4.11,4.11,0,0,0,12.16,2.54Z"/><path class="cls-3" d="M12.16,8.92a2.2,2.2,0,1,1,1.55-.64h0A2.18,2.18,0,0,1,12.16,8.92Zm0-3.91a1.71,1.71,0,1,0,1.21,2.92h0A1.71,1.71,0,0,0,12.16,5Z"/></g></g></svg>