<svg xmlns="http://www.w3.org/2000/svg" xmlns:xlink="http://www.w3.org/1999/xlink" viewBox="0 0 22.11 22.11"><defs><style>.cls-1,.cls-3,.cls-4{fill:none;}.cls-2{fill:#ac0000;}.cls-3,.cls-4{stroke-miterlimit:10;stroke:url(#New_Pattern_Swatch_1);}.cls-4{stroke-linecap:round;}</style><pattern id="New_Pattern_Swatch_1" data-name="New Pattern Swatch 1" width="45" height="45" patternTransform="translate(-86.24 38.41) scale(0.5 0.48)" patternUnits="userSpaceOnUse" viewBox="0 0 45 45"><rect class="cls-1" width="45" height="45"/><rect class="cls-2" width="45" height="45"/></pattern></defs><title>tab3</title><g id="Layer_2" data-name="Layer 2"><g id="Layer_1-2" data-name="Layer 1"><polyline class="cls-1" points="22.11 22.11 0 22.11 0 0"/><circle class="cls-3" cx="15.55" cy="13.73" r="0.23"/><path class="cls-3" d="M2.63,14.27v5a.64.64,0,0,0,.64.64H18a.64.64,0,0,0,.64-.64v-4H15.15A1.11,1.11,0,0,1,14,14.15v-.83a1.11,1.11,0,0,1,1.11-1.11h3.47v-4A.64.64,0,0,0,18,7.59H3.27a.64.64,0,0,0-.64.64Z"/><path class="cls-3" d="M18.74,12.2h-.13v3.05h.13a.74.74,0,0,0,.74-.74V12.94A.74.74,0,0,0,18.74,12.2Z"/><path class="cls-4" d="M3.85,6.26,15,2.25s1.11-.17,1.11.85V6.26"/></g></g></svg>