<svg xmlns="http://www.w3.org/2000/svg" xmlns:xlink="http://www.w3.org/1999/xlink" viewBox="0 0 22.11 22.11"><defs><style>.cls-1{fill:none;}.cls-2{fill:#ac0000;}.cls-3,.cls-4{stroke-miterlimit:10;stroke-width:0.3px;}.cls-3{fill:url(#New_Pattern_Swatch_1);stroke:url(#New_Pattern_Swatch_1);}.cls-4{fill:url(#New_Pattern_Swatch_1-9);stroke:url(#New_Pattern_Swatch_1-9);}</style><pattern id="New_Pattern_Swatch_1" data-name="New Pattern Swatch 1" width="45" height="45" patternTransform="translate(-426.67 149.3) scale(1.13 1.1)" patternUnits="userSpaceOnUse" viewBox="0 0 45 45"><rect class="cls-1" width="45" height="45"/><rect class="cls-2" width="45" height="45"/></pattern><pattern id="New_Pattern_Swatch_1-9" data-name="New Pattern Swatch 1" width="45" height="45" patternTransform="translate(-426.67 165.78) scale(1.13 1.1)" patternUnits="userSpaceOnUse" viewBox="0 0 45 45"><rect class="cls-1" width="45" height="45"/><rect class="cls-2" width="45" height="45"/></pattern></defs><title>tab4</title><g id="Layer_2" data-name="Layer 2"><g id="Layer_1-2" data-name="Layer 1"><rect class="cls-1" width="22.11" height="22.11"/><path class="cls-3" d="M11,11.38a.29.29,0,0,1-.21-.09L8.6,9.06a.29.29,0,0,1,0-.42l.06-.05a.29.29,0,0,1,.19-.08,1.06,1.06,0,0,0,.71-.26.68.68,0,0,0-.07-.93l0,0a.67.67,0,0,0-.91-.06A1.12,1.12,0,0,0,8.3,8a.29.29,0,0,1-.08.18l-.05.06A.29.29,0,0,1,8,8.29a.3.3,0,0,1-.21-.09L5.54,6a.29.29,0,0,1,0-.41L7.4,3.69a1.41,1.41,0,0,1-.62-.35,1.26,1.26,0,0,1,0-1.74l0,0A1.25,1.25,0,0,1,8.6,1.49,1.42,1.42,0,0,1,9,2.13L10.81.26a.3.3,0,0,1,.42,0l2.21,2.22a.29.29,0,0,1,0,.42l-.1.09a.29.29,0,0,1-.18.08,1.11,1.11,0,0,0-.71.26.68.68,0,0,0,.07.93l0,0a.66.66,0,0,0,.91.06,1.12,1.12,0,0,0,.26-.72.29.29,0,0,1,.08-.18l.09-.09a.29.29,0,0,1,.21-.09.3.3,0,0,1,.21.09l2.22,2.23a.29.29,0,0,1,0,.41L14.65,7.86a1.43,1.43,0,0,1,.64.39A1.26,1.26,0,0,1,15.18,10h0l0,0a1.25,1.25,0,0,1-1.74,0,1.4,1.4,0,0,1-.32-.59l-1.85,1.86A.29.29,0,0,1,11,11.38ZM9.38,9,11,10.67l2-2a.31.31,0,0,1,.22-.09.29.29,0,0,1,.21.1l0,.05a.29.29,0,0,1,.07.19,1.12,1.12,0,0,0,.24.73.66.66,0,0,0,.92,0l0,0a.68.68,0,0,0,.09-.92,1.07,1.07,0,0,0-.71-.28A.29.29,0,0,1,14,8.27l-.08-.08a.29.29,0,0,1,0-.41l2-2L14.22,4.1a1.45,1.45,0,0,1-.36.66,1.25,1.25,0,0,1-1.73,0l0,0A1.26,1.26,0,0,1,12,2.92a1.43,1.43,0,0,1,.66-.37L11,.88l-2,2A.29.29,0,0,1,8.81,3a.29.29,0,0,1-.21-.09l-.07-.08a.29.29,0,0,1-.08-.18,1.12,1.12,0,0,0-.27-.72A.66.66,0,0,0,7.27,2l0,0a.67.67,0,0,0-.05.92,1.07,1.07,0,0,0,.72.26.29.29,0,0,1,.18.08l.07.07a.29.29,0,0,1,0,.42l-2,2L7.8,7.42a1.41,1.41,0,0,1,.35-.6A1.14,1.14,0,0,1,9,6.49a1.32,1.32,0,0,1,.93.39l0,0A1.26,1.26,0,0,1,10,8.66,1.41,1.41,0,0,1,9.38,9Zm5.6.76h0Z"/><path class="cls-3" d="M11.09,21.94a.29.29,0,0,1-.21-.09L8.67,19.62a.29.29,0,0,1,0-.42l.06-.05a.29.29,0,0,1,.19-.08,1.06,1.06,0,0,0,.71-.26.68.68,0,0,0-.07-.93l0,0a.67.67,0,0,0-.91-.06,1.12,1.12,0,0,0-.26.72.3.3,0,0,1-.08.18l-.05.06a.29.29,0,0,1-.42,0L5.61,16.54a.29.29,0,0,1,0-.41l1.86-1.87a1.42,1.42,0,0,1-.62-.35,1.26,1.26,0,0,1,0-1.74l0,0A1.25,1.25,0,0,1,8.67,12a1.43,1.43,0,0,1,.36.64l1.86-1.87a.3.3,0,0,1,.42,0L13.51,13a.29.29,0,0,1,0,.42l-.1.09a.29.29,0,0,1-.18.08,1.11,1.11,0,0,0-.71.26.68.68,0,0,0,.07.93l0,0a.66.66,0,0,0,.91.06,1.12,1.12,0,0,0,.26-.72.29.29,0,0,1,.08-.18l.09-.09a.29.29,0,0,1,.21-.09.28.28,0,0,1,.21.09l2.22,2.23a.29.29,0,0,1,0,.41l-1.86,1.87a1.43,1.43,0,0,1,.64.39,1.26,1.26,0,0,1-.11,1.74h0l0,0a1.25,1.25,0,0,1-1.74,0,1.41,1.41,0,0,1-.32-.59L11.3,21.85A.29.29,0,0,1,11.09,21.94ZM9.45,19.57l1.65,1.66,2-2a.29.29,0,0,1,.43,0l0,.06a.29.29,0,0,1,.07.19,1.12,1.12,0,0,0,.24.73.66.66,0,0,0,.92,0l0,0a.68.68,0,0,0,.09-.92,1.11,1.11,0,0,0-.71-.28.29.29,0,0,1-.18-.09L14,18.75a.29.29,0,0,1,0-.42l2-2-1.67-1.68a1.46,1.46,0,0,1-.36.66,1.25,1.25,0,0,1-1.73,0l0,0a1.26,1.26,0,0,1-.07-1.75,1.43,1.43,0,0,1,.66-.37l-1.66-1.67-2,2a.28.28,0,0,1-.21.09.29.29,0,0,1-.21-.09l-.07-.08a.29.29,0,0,1-.08-.18,1.13,1.13,0,0,0-.27-.72.66.66,0,0,0-.92.07l0,0a.67.67,0,0,0-.05.92,1.06,1.06,0,0,0,.72.26.29.29,0,0,1,.18.08l.07.07a.29.29,0,0,1,0,.42l-2,2L7.87,18a1.41,1.41,0,0,1,.35-.6A1.14,1.14,0,0,1,9,17H9a1.32,1.32,0,0,1,.93.39l0,0A1.26,1.26,0,0,1,10,19.22,1.41,1.41,0,0,1,9.45,19.57Zm5.6.76h0Z"/><path class="cls-4" d="M17.23,16l-.42-.41L18,14.36a1.45,1.45,0,0,1-.66-.36,1.26,1.26,0,0,1,0-1.74l0,0a1.25,1.25,0,0,1,1.74-.07,1.44,1.44,0,0,1,.37.66l1.65-1.67-2-2a.29.29,0,0,1,0-.42l.08-.08a.29.29,0,0,1,.18-.08,1.11,1.11,0,0,0,.71-.27.68.68,0,0,0-.08-.93l0,0a.66.66,0,0,0-.91-.05,1.13,1.13,0,0,0-.25.72.3.3,0,0,1-.08.18l-.07.07a.29.29,0,0,1-.21.1.3.3,0,0,1-.21-.09L16.67,6.6l.41-.42L18.42,7.5a1.42,1.42,0,0,1,.35-.63,1.25,1.25,0,0,1,1.74,0l0,0a1.26,1.26,0,0,1,.08,1.75,1.42,1.42,0,0,1-.63.37l1.87,1.87a.29.29,0,0,1,0,.41l-2.2,2.23a.32.32,0,0,1-.21.09.29.29,0,0,1-.21-.09l-.09-.1a.3.3,0,0,1-.08-.18,1.13,1.13,0,0,0-.26-.72.67.67,0,0,0-.92.07l0,0a.67.67,0,0,0-.06.92,1.11,1.11,0,0,0,.72.26.3.3,0,0,1,.19.08l.09.09a.29.29,0,0,1,0,.42Z"/><path class="cls-4" d="M5,15.92l-1.28-1.3a1.4,1.4,0,0,1-.32.59,1.25,1.25,0,0,1-1.74,0l0,0a1.26,1.26,0,0,1-.11-1.75A1.43,1.43,0,0,1,2.12,13L.26,11.15a.29.29,0,0,1,0-.41L2.49,8.51a.29.29,0,0,1,.21-.09.29.29,0,0,1,.21.09L3,8.62a.3.3,0,0,1,.08.18,1.13,1.13,0,0,0,.26.72.66.66,0,0,0,.91-.06l0,0a.67.67,0,0,0,.07-.92,1.11,1.11,0,0,0-.71-.27.29.29,0,0,1-.18-.08l-.1-.09a.29.29,0,0,1,0-.42L4.81,6.19l.42.42L4.1,7.74a1.43,1.43,0,0,1,.66.37A1.25,1.25,0,0,1,4.7,9.84l0,0a1.24,1.24,0,0,1-1.74.05,1.46,1.46,0,0,1-.36-.66L.88,10.95l2,2a.29.29,0,0,1,0,.41l-.08.08a.29.29,0,0,1-.18.09,1.11,1.11,0,0,0-.71.28.69.69,0,0,0,.1.92l0,0a.66.66,0,0,0,.91,0,1.13,1.13,0,0,0,.24-.73.29.29,0,0,1,.07-.19l0-.06a.3.3,0,0,1,.21-.1.31.31,0,0,1,.22.09L5.38,15.5Z"/></g></g></svg>