<svg xmlns="http://www.w3.org/2000/svg" xmlns:xlink="http://www.w3.org/1999/xlink" viewBox="0 0 22.11 22.11"><defs><style>.cls-1,.cls-4{fill:none;}.cls-2{fill:#ac0000;}.cls-3{fill:url(#New_Pattern_Swatch_1);}.cls-4{stroke:#fff;stroke-miterlimit:10;}</style><pattern id="New_Pattern_Swatch_1" data-name="New Pattern Swatch 1" width="45" height="45" patternUnits="userSpaceOnUse" viewBox="0 0 45 45"><rect class="cls-1" width="45" height="45"/><rect class="cls-2" width="45" height="45"/></pattern></defs><title>tab5-selected</title><g id="Layer_2" data-name="Layer 2"><g id="Layer_1-2" data-name="Layer 1"><rect class="cls-3" width="22.11" height="22.11"/><path class="cls-4" d="M12.71,10.94a1.82,1.82,0,0,0,1.66-1.66V7.2c0-1.37-1.24-2.07-3.32-2.07s-3.32.7-3.32,2.07V9.28A1.82,1.82,0,0,0,9.4,10.94"/><path class="cls-4" d="M11.06,3.89A1.23,1.23,0,0,0,12.3,2.56V1.89a1.25,1.25,0,1,0-2.49,0v.66A1.23,1.23,0,0,0,11.06,3.89Z"/><polyline class="cls-4" points="12.71 7.62 12.71 17.65 9.4 17.65 9.4 7.62"/><line class="cls-4" x1="11.06" y1="10.52" x2="11.06" y2="17.65"/><path class="cls-4" d="M14,15.55c1.49.44,2.48,1.22,2.48,2.09,0,1.37-2.41,2.49-5.39,2.49S5.66,19,5.66,17.65c0-.88,1-1.65,2.48-2.1"/><line class="cls-4" x1="3.31" y1="17.65" x2="8.01" y2="17.65"/><line class="cls-4" x1="14.1" y1="17.65" x2="18.8" y2="17.65"/><line class="cls-4" x1="11.06" y1="18.97" x2="11.06" y2="22.07"/></g></g></svg>