<svg xmlns="http://www.w3.org/2000/svg" viewBox="0 0 22.11 22.11"><defs><style>.cls-1{fill:none;}.cls-2,.cls-3{fill:#6c6d6d;}.cls-2{stroke:#6c6d6d;stroke-miterlimit:10;stroke-width:0.3px;}</style></defs><title>tab-6-deactive</title><g id="Layer_2" data-name="Layer 2"><g id="Layer_1-2" data-name="Layer 1"><rect class="cls-1" width="22.11" height="22.11"/><path class="cls-2" d="M10.83,8.25v4.19L9.09,12a1.76,1.76,0,0,1-1.17-1.34A1.35,1.35,0,0,1,9,9.09a1,1,0,0,1,1.19.81.76.76,0,0,1-.6.89.55.55,0,0,1-.64-.44.29.29,0,1,0-.56.11,1.12,1.12,0,0,0,1.31.9A1.34,1.34,0,0,0,10.75,9.8,1.6,1.6,0,0,0,8.88,8.53a1.92,1.92,0,0,0-1.53,2.25,2.33,2.33,0,0,0,1.57,1.78H6.84a1,1,0,0,0-1,1v2.51a.29.29,0,0,0,.29.29h.66a.26.26,0,0,0,0,.15V21a.86.86,0,0,0,.85.86h6.87a.86.86,0,0,0,.86-.86V16.5a.26.26,0,0,0,0-.15H16a.29.29,0,0,0,.29-.29V13.56a1,1,0,0,0-1-1H13.19a2.33,2.33,0,0,0,1.57-1.78,1.92,1.92,0,0,0-1.53-2.25A1.6,1.6,0,0,0,11.36,9.8a1.34,1.34,0,0,0,1.06,1.56,1.12,1.12,0,0,0,1.31-.9.29.29,0,1,0-.56-.11.55.55,0,0,1-.64.44.76.76,0,0,1-.6-.89,1,1,0,0,1,1.19-.81,1.35,1.35,0,0,1,1.07,1.58A1.76,1.76,0,0,1,13,12l-1.74.43V8.23Zm3.94,8.26V21a.29.29,0,0,1-.29.29H7.61A.28.28,0,0,1,7.34,21V16.5a.26.26,0,0,0,0-.15h7.53A.26.26,0,0,0,14.77,16.5Zm.9-.72H6.43V13.56a.41.41,0,0,1,.41-.41h8.41a.41.41,0,0,1,.42.41Z"/><path class="cls-3" d="M11.28,8.23A2.93,2.93,0,0,0,12,8.06a2.24,2.24,0,0,0,.36-.39,2,2,0,0,0,.26-.5,2.07,2.07,0,0,0,.1-.56h0l-.13.09a1.72,1.72,0,0,1-.47.22L11.91,7h0l-.2,0a1.67,1.67,0,0,1-1.3-.45c-.75-.64-.38-1.73.12-2.31,0,0,.66-.67.95-.94s.3-.28.45-.44a5.31,5.31,0,0,1-.6.47l-.57.37c-.19.12-.38.25-.56.38A3.56,3.56,0,0,0,9.3,5a2,2,0,0,0-.25.61A2.25,2.25,0,0,0,9,6.3a2.59,2.59,0,0,0,.47,1.23A3.83,3.83,0,0,0,9.9,8a2.68,2.68,0,0,0,.93.21A3.21,3.21,0,0,0,11.28,8.23Z"/><path class="cls-3" d="M11.73,3.52a7.94,7.94,0,0,0-.73.75,2.11,2.11,0,0,1,1.63,1.16,1.13,1.13,0,0,1,.06.16A2.71,2.71,0,0,1,12.8,6a2.58,2.58,0,0,1,0,.4,2,2,0,0,0,.35-.56,3.13,3.13,0,0,0,.22-1,5.31,5.31,0,0,0,0-.71,2.6,2.6,0,0,0-1-.88,4,4,0,0,0,.75-2.21,3,3,0,0,1-.44,1.33A5.28,5.28,0,0,1,11.73,3.52Z"/><path class="cls-3" d="M12.08,6.9h.05a1.69,1.69,0,0,0,.45-.23l.16-.13a2.45,2.45,0,0,0,0-.38A1.1,1.1,0,0,1,12.08,6.9Z"/><path class="cls-3" d="M12.83,6.51s0,.07,0,.1a2.16,2.16,0,0,1-.12.58,2,2,0,0,1-.28.52,2.22,2.22,0,0,1-.27.3,2.72,2.72,0,0,0,1.63-2.53,2.3,2.3,0,0,0-.21-1c0,.14,0,.28,0,.42a3.24,3.24,0,0,1-.27,1A2,2,0,0,1,12.83,6.51Z"/><path class="cls-3" d="M9.62,7.9a3.41,3.41,0,0,1-.24-.3A2.94,2.94,0,0,1,9,7a2.54,2.54,0,0,1-.1-.33,2.64,2.64,0,0,1-.05-.35,2.36,2.36,0,0,1,0-.69A2.06,2.06,0,0,1,9.21,5a3.64,3.64,0,0,1,1-1c.19-.13.38-.26.57-.38l.58-.36a4.52,4.52,0,0,0,1-.85l.1-.16a2.39,2.39,0,0,0,.31-.67,2.2,2.2,0,0,0,.07-.45.9.9,0,0,0-.71-1h0a.68.68,0,0,1,.09.22A.72.72,0,0,1,12,1l-.11.17a6.87,6.87,0,0,1-1.76,1.58l-.1.07a4.8,4.8,0,0,0-1.77,2.1c0,.19,0,.39,0,.6A2.64,2.64,0,0,0,9.62,7.9Z"/><path class="cls-3" d="M10,2.69l.08-.06C10.44,1.07,11.5.94,11.88,1l0,0a.61.61,0,0,0,.15-.5h0a.37.37,0,0,0-.35-.29h-.14S8.79-.12,8.32,4.5A5.32,5.32,0,0,1,10,2.69Z"/></g></g></svg>