<svg xmlns="http://www.w3.org/2000/svg" xmlns:xlink="http://www.w3.org/1999/xlink" viewBox="0 0 22.13 22.11"><defs><style>.cls-1{fill:none;}.cls-2{fill:#ac0000;}.cls-3{fill:url(#New_Pattern_Swatch_1);}</style><pattern id="New_Pattern_Swatch_1" data-name="New Pattern Swatch 1" width="45" height="45" patternUnits="userSpaceOnUse" viewBox="0 0 45 45"><rect class="cls-1" width="45" height="45"/><rect class="cls-2" width="45" height="45"/></pattern></defs><title>tab7</title><g id="Layer_2" data-name="Layer 2"><g id="Layer_1-2" data-name="Layer 1"><rect class="cls-1" x="0.01" width="22.11" height="22.11"/><path class="cls-3" d="M20.82,16.78V4.62H1.32V16.78H0v.71H22.13v-.71ZM11.37,6.27a1.3,1.3,0,0,1,1-.4,1.36,1.36,0,0,1,.71.19,1.24,1.24,0,0,1,.48.53,1.67,1.67,0,0,1,.16.74,1.64,1.64,0,0,1-.17.75,1.21,1.21,0,0,1-.5.52,1.41,1.41,0,0,1-.68.17,1.35,1.35,0,0,1-.71-.19,1.26,1.26,0,0,1-.48-.53,1.58,1.58,0,0,1-.16-.7A1.52,1.52,0,0,1,11.37,6.27ZM8.56,5.91h.63V7h1v-1h.62V8.73h-.62V7.54h-1V8.73H8.56ZM6.78,16.78v.07H2.12V10H6.78ZM6.67,8.66a1,1,0,0,1-.43-.35,1,1,0,0,1-.16-.53V7.64l.59-.05,0,.14A.56.56,0,0,0,6.76,8,.43.43,0,0,0,7,8.12a.82.82,0,0,0,.33.06.78.78,0,0,0,.29,0A.33.33,0,0,0,7.72,8a.22.22,0,0,0,0-.13.18.18,0,0,0,0-.12.37.37,0,0,0-.16-.1l-.43-.12a2.43,2.43,0,0,1-.52-.17.83.83,0,0,1-.32-.29.72.72,0,0,1-.11-.39.79.79,0,0,1,.13-.44A.81.81,0,0,1,6.69,6a1.35,1.35,0,0,1,.52-.1,1.42,1.42,0,0,1,.55.1.86.86,0,0,1,.4.32.91.91,0,0,1,.15.47v.14l-.6,0,0-.14a.38.38,0,0,0-.12-.27.55.55,0,0,0-.35-.09.56.56,0,0,0-.35.08.19.19,0,0,0-.08.16.14.14,0,0,0,.05.12A1.16,1.16,0,0,0,7.27,7a3.42,3.42,0,0,1,.59.17.91.91,0,0,1,.39.31.77.77,0,0,1,.13.44.83.83,0,0,1-.14.46.91.91,0,0,1-.39.33,1.31,1.31,0,0,1-.55.11A1.6,1.6,0,0,1,6.67,8.66Zm8,8.11H7.51V10h7.12ZM14.47,7.7v1h-.62V5.91h1.1a2.37,2.37,0,0,1,.41,0,.9.9,0,0,1,.37.14.77.77,0,0,1,.25.3,1,1,0,0,1-.15,1.05A1.1,1.1,0,0,1,15,7.7ZM20,16.78v.07H15.37V10H20Z"/><path class="cls-3" d="M12.35,8.2A.66.66,0,0,0,12.86,8a.94.94,0,0,0,.21-.66A1.16,1.16,0,0,0,13,6.85a.65.65,0,0,0-.25-.29.68.68,0,0,0-.37-.1.71.71,0,0,0-.51.2,1,1,0,0,0-.21.71.87.87,0,0,0,.21.62A.66.66,0,0,0,12.35,8.2Z"/><path class="cls-3" d="M15.25,6.52a1.26,1.26,0,0,0-.27,0h-.5v.61H15A.55.55,0,0,0,15.34,7a.29.29,0,0,0,.09-.23.31.31,0,0,0-.05-.19A.23.23,0,0,0,15.25,6.52Z"/></g></g></svg>