<svg xmlns="http://www.w3.org/2000/svg" xmlns:xlink="http://www.w3.org/1999/xlink" viewBox="0 0 22.11 22.11"><defs><style>.cls-1,.cls-4,.cls-5{fill:none;}.cls-2{fill:#ac0000;}.cls-3{fill:url(#New_Pattern_Swatch_1);}.cls-4,.cls-5{stroke:#fff;stroke-linecap:round;}.cls-4{stroke-linejoin:round;}.cls-5{stroke-miterlimit:10;}</style><pattern id="New_Pattern_Swatch_1" data-name="New Pattern Swatch 1" width="45" height="45" patternUnits="userSpaceOnUse" viewBox="0 0 45 45"><rect class="cls-1" width="45" height="45"/><rect class="cls-2" width="45" height="45"/></pattern></defs><title>tab8-selected</title><g id="Layer_2" data-name="Layer 2"><g id="Layer_1-2" data-name="Layer 1"><rect class="cls-3" width="22.11" height="22.11"/><path class="cls-4" d="M12.62.73v2.7A6.38,6.38,0,0,0,7.05,9.61h0a7.83,7.83,0,0,1,5.53-2.2h0v2.87L15.9,8.1,19.09,6l.71-.47Z"/><path class="cls-5" d="M15.28,10.53v9.34a1.51,1.51,0,0,1-1.51,1.51H3.83a1.51,1.51,0,0,1-1.51-1.51v-16A1.51,1.51,0,0,1,3.83,2.32H9.4"/></g></g></svg>