<svg xmlns="http://www.w3.org/2000/svg" xmlns:xlink="http://www.w3.org/1999/xlink" viewBox="0 0 22.11 22.11"><defs><style>.cls-1{fill:none;}.cls-2{fill:#ac0000;}.cls-3{fill:url(#New_Pattern_Swatch_1);}.cls-4{fill:#fff;}</style><pattern id="New_Pattern_Swatch_1" data-name="New Pattern Swatch 1" width="45" height="45" patternUnits="userSpaceOnUse" viewBox="0 0 45 45"><rect class="cls-1" width="45" height="45"/><rect class="cls-2" width="45" height="45"/></pattern></defs><title>tab9-selected</title><g id="Layer_2" data-name="Layer 2"><g id="Layer_1-2" data-name="Layer 1"><rect class="cls-3" width="22.11" height="22.11"/><path class="cls-4" d="M19.9,9l-.73-.12-.73-.12q-.1-.34-.24-.66t-.3-.64l.42-.59.42-.59a.9.9,0,0,0-.06-1.21l-.82-.82L17,3.42a.89.89,0,0,0-.64-.26.92.92,0,0,0-.3.05.81.81,0,0,0-.25.14l-.6.43-.6.43Q14.34,4,14,3.9t-.66-.24l-.12-.72-.12-.72a.9.9,0,0,0-.9-.81H9.89a.91.91,0,0,0-.6.23A.87.87,0,0,0,9,2.21l-.12.73-.12.73q-.34.11-.66.24t-.64.3l-.59-.42-.59-.42a.92.92,0,0,0-1.21.06l-.82.82-.82.82a.9.9,0,0,0-.27.59.86.86,0,0,0,.19.6l.43.6.43.6q-.16.31-.3.64t-.24.66l-.72.12L2.23,9a.9.9,0,0,0-.81.9v2.33a.91.91,0,0,0,.23.61.87.87,0,0,0,.56.29l.73.12.73.12q.1.33.24.66t.3.64l-.42.59-.42.59A.9.9,0,0,0,3.42,17l.82.82.82.82a.91.91,0,0,0,.29.2A.9.9,0,0,0,5.7,19,.92.92,0,0,0,6,18.9a.82.82,0,0,0,.25-.14l.6-.43.6-.43q.31.16.64.3t.66.24l.12.72.12.72a.9.9,0,0,0,.9.81h2.33a.91.91,0,0,0,.61-.23.86.86,0,0,0,.29-.56l.12-.73.12-.73q.34-.1.66-.24t.64-.3l.59.42.59.42A.92.92,0,0,0,17,18.69l.82-.82.82-.82a.91.91,0,0,0,.27-.59.87.87,0,0,0-.19-.6l-.43-.6-.43-.6q.16-.31.3-.64t.24-.66l.72-.12.72-.12a.89.89,0,0,0,.81-.9V9.89a.91.91,0,0,0-.23-.61A.86.86,0,0,0,19.9,9Zm.15,3.22a.26.26,0,0,1-.07.18.29.29,0,0,1-.19.09l-.82.14-.82.14a.32.32,0,0,0-.16.08.31.31,0,0,0-.09.15,7,7,0,0,1-.27.79,7,7,0,0,1-.36.75.32.32,0,0,0,0,.17.32.32,0,0,0,.06.17l.49.69.49.69a.26.26,0,0,1,0,.35l-.82.82-.82.82a.26.26,0,0,1-.17.08.29.29,0,0,1-.2-.07l-.68-.48-.68-.48a.31.31,0,0,0-.17-.06.32.32,0,0,0-.17,0,7.08,7.08,0,0,1-.75.36,7.27,7.27,0,0,1-.79.27.32.32,0,0,0-.15.09.31.31,0,0,0-.08.16l-.14.83-.14.83a.27.27,0,0,1-.26.24H9.89A.26.26,0,0,1,9.71,20a.29.29,0,0,1-.09-.19L9.49,19l-.14-.82a.32.32,0,0,0-.23-.26,7.09,7.09,0,0,1-1.54-.64l-.08,0H7.43l-.1,0-.09,0-.69.49-.69.49a.26.26,0,0,1-.18.06.26.26,0,0,1-.17-.08l-.82-.82-.82-.82a.25.25,0,0,1-.08-.18.3.3,0,0,1,.07-.2l.48-.68.48-.68a.31.31,0,0,0,.06-.17.32.32,0,0,0,0-.17A7,7,0,0,1,4.22,13,.32.32,0,0,0,4,12.76l-.84-.14-.84-.14a.26.26,0,0,1-.17-.09.27.27,0,0,1-.07-.18V9.89a.26.26,0,0,1,.07-.18.3.3,0,0,1,.19-.09l.82-.14L4,9.35a.32.32,0,0,0,.16-.08.32.32,0,0,0,.09-.15,7,7,0,0,1,.64-1.53.33.33,0,0,0,0-.17.32.32,0,0,0-.06-.17l-.49-.69-.49-.69a.26.26,0,0,1-.06-.18.26.26,0,0,1,.08-.17l.82-.82.82-.82a.26.26,0,0,1,.17-.08.3.3,0,0,1,.2.07l.68.49.68.49a.31.31,0,0,0,.17.06.32.32,0,0,0,.17,0,6.89,6.89,0,0,1,.75-.36,7,7,0,0,1,.79-.27A.32.32,0,0,0,9.35,4l.14-.83.14-.83a.26.26,0,0,1,.26-.24h2.33a.26.26,0,0,1,.18.07.3.3,0,0,1,.09.19l.14.82.14.82a.32.32,0,0,0,.08.16.31.31,0,0,0,.15.09,7.22,7.22,0,0,1,1.54.64.32.32,0,0,0,.34,0l.69-.49.69-.49a.26.26,0,0,1,.18-.06.26.26,0,0,1,.17.08l.82.82.82.82a.26.26,0,0,1,.08.18.3.3,0,0,1-.07.19l-.49.68-.49.68a.32.32,0,0,0-.06.17.32.32,0,0,0,0,.17,7,7,0,0,1,.64,1.54.32.32,0,0,0,.09.15.32.32,0,0,0,.16.08l.83.14.83.14a.26.26,0,0,1,.17.09.26.26,0,0,1,.07.18v2.33Z"/><path class="cls-4" d="M12.22,20.84H9.89a1,1,0,0,1-1-.94l-.22-1.34L8,18.34l-.57-.26-1.12.8a1,1,0,0,1-.29.16,1.06,1.06,0,0,1-.35.06A1,1,0,0,1,5.3,19,1.06,1.06,0,0,1,5,18.8L3.31,17.15a1,1,0,0,1-.07-1.4L4,14.64c-.1-.19-.18-.38-.26-.57s-.15-.39-.22-.59l-1.36-.23a1,1,0,0,1-.65-.34,1.06,1.06,0,0,1-.27-.7V9.89a1,1,0,0,1,.94-1l1.34-.22c.06-.2.14-.4.22-.59s.17-.38.26-.57l-.8-1.12A1,1,0,0,1,3,5.65,1,1,0,0,1,3.32,5L5,3.31a1.07,1.07,0,0,1,1.4-.07L7.47,4,8,3.77l.59-.22.23-1.36a1,1,0,0,1,.34-.65,1.06,1.06,0,0,1,.7-.27h2.33a1,1,0,0,1,1,.94l.22,1.34.59.22.57.26,1.12-.8a1,1,0,0,1,.29-.16A1.06,1.06,0,0,1,16.41,3a1,1,0,0,1,.74.31L18.8,5a1,1,0,0,1,.07,1.4l-.79,1.1c.1.19.18.38.26.57s.15.39.22.59l1.36.23a1,1,0,0,1,.65.34,1.06,1.06,0,0,1,.27.7v2.33a1,1,0,0,1-.94,1l-1.34.22c-.06.2-.14.4-.22.59s-.17.38-.26.57l.8,1.12a1,1,0,0,1,.22.7,1.05,1.05,0,0,1-.31.69l-1.65,1.65a1.07,1.07,0,0,1-1.4.07l-1.1-.79-.57.26-.59.22-.23,1.36a1,1,0,0,1-.34.65A1.06,1.06,0,0,1,12.22,20.84Zm-4.78-3.1.08,0c.2.11.42.21.63.29s.43.17.65.23l.09,0,.25,1.53a.75.75,0,0,0,.75.68h2.33a.76.76,0,0,0,.51-.19.72.72,0,0,0,.24-.47h0l.26-1.54.09,0c.22-.07.44-.15.65-.23s.42-.19.63-.29l.08,0,1.26.9a.77.77,0,0,0,1-.05l1.65-1.65a.76.76,0,0,0,.22-.49.72.72,0,0,0-.16-.5h0l-.91-1.27,0-.08c.11-.2.21-.41.29-.63s.17-.43.24-.65l0-.09L19.86,13a.75.75,0,0,0,.68-.75V9.89a.76.76,0,0,0-.19-.51.72.72,0,0,0-.47-.24h0l-1.54-.26,0-.09c-.07-.22-.15-.44-.24-.65s-.19-.42-.29-.62l0-.08.9-1.26a.75.75,0,0,0-.05-1L16.94,3.52a.75.75,0,0,0-.53-.22.78.78,0,0,0-.25,0,.67.67,0,0,0-.21.11h0l-1.27.91-.08,0c-.2-.11-.41-.21-.63-.29s-.43-.17-.65-.24l-.09,0L13,2.25a.75.75,0,0,0-.75-.68H9.89a.76.76,0,0,0-.51.19.72.72,0,0,0-.24.47h0L8.89,3.78l-.09,0c-.22.07-.44.15-.65.24s-.42.19-.63.29l-.08,0-1.26-.9a.78.78,0,0,0-1,.05L3.52,5.17a.76.76,0,0,0-.22.49.72.72,0,0,0,.16.5h0l.91,1.27,0,.08c-.11.2-.21.41-.29.62s-.17.43-.24.65l0,.09-1.53.26a.75.75,0,0,0-.68.75v2.33a.76.76,0,0,0,.19.51.72.72,0,0,0,.47.24h0l1.54.26,0,.09c.07.22.15.43.23.65s.19.42.29.63l0,.08-.9,1.26a.75.75,0,0,0,0,1l1.65,1.65a.77.77,0,0,0,.25.16.75.75,0,0,0,.29.06.78.78,0,0,0,.25,0,.68.68,0,0,0,.21-.11h0Zm4.78,2.46H9.89a.4.4,0,0,1-.28-.11.44.44,0,0,1-.13-.27l-.27-1.64A.17.17,0,0,0,9.08,18a7.24,7.24,0,0,1-1.57-.65l0,0H7.38l0,0L6,18.37a.4.4,0,0,1-.28.09.41.41,0,0,1-.27-.12L3.77,16.7a.4.4,0,0,1-.12-.28.44.44,0,0,1,.1-.29l1-1.36a.17.17,0,0,0,0-.09.17.17,0,0,0,0-.09A7.13,7.13,0,0,1,4.08,13,.17.17,0,0,0,4,12.95a.17.17,0,0,0-.09,0l-1.67-.28A.41.41,0,0,1,2,12.49a.41.41,0,0,1-.1-.28V9.89A.4.4,0,0,1,2,9.61a.44.44,0,0,1,.27-.13L3.94,9.2a.17.17,0,0,0,.09,0,.17.17,0,0,0,.05-.08,7.1,7.1,0,0,1,.65-1.57.18.18,0,0,0,0-.09.17.17,0,0,0,0-.09L3.74,6a.41.41,0,0,1-.09-.28.41.41,0,0,1,.12-.27L5.41,3.77a.41.41,0,0,1,.26-.12.44.44,0,0,1,.3.1l1.36,1a.17.17,0,0,0,.09,0l.09,0a7,7,0,0,1,.76-.37,7.19,7.19,0,0,1,.8-.28.17.17,0,0,0,.12-.14l.28-1.66a.41.41,0,0,1,.41-.36h2.33A.4.4,0,0,1,12.5,2a.44.44,0,0,1,.13.27l.27,1.64a.17.17,0,0,0,0,.09.17.17,0,0,0,.08,0,7.36,7.36,0,0,1,1.57.65l.09,0,.09,0,1.37-1a.4.4,0,0,1,.28-.09.41.41,0,0,1,.27.12l1.65,1.65a.4.4,0,0,1,.12.28.44.44,0,0,1-.1.29l-1,1.36a.17.17,0,0,0,0,.09.18.18,0,0,0,0,.09A7.13,7.13,0,0,1,18,9.08a.17.17,0,0,0,.05.08.17.17,0,0,0,.09,0l1.66.28a.4.4,0,0,1,.26.13.41.41,0,0,1,.11.27v2.33a.4.4,0,0,1-.11.28.44.44,0,0,1-.27.13l-1.65.27a.17.17,0,0,0-.09,0A.17.17,0,0,0,18,13a7.23,7.23,0,0,1-.28.8,7.13,7.13,0,0,1-.37.76.17.17,0,0,0,0,.09.17.17,0,0,0,0,.09l1,1.37a.41.41,0,0,1,0,.55L16.7,18.34a.41.41,0,0,1-.26.12.44.44,0,0,1-.3-.1l-1.36-1a.16.16,0,0,0-.09,0l-.09,0a7.26,7.26,0,0,1-.77.37A7.44,7.44,0,0,1,13,18a.17.17,0,0,0-.08.05.16.16,0,0,0,0,.08l-.28,1.67a.41.41,0,0,1-.41.36ZM7.43,17.07l.12,0,.11,0a6.95,6.95,0,0,0,1.51.62.47.47,0,0,1,.33.37l.27,1.66a.15.15,0,0,0,0,.09.11.11,0,0,0,.08,0h2.33a.12.12,0,0,0,.08,0,.12.12,0,0,0,0-.07h0l.28-1.67a.45.45,0,0,1,.11-.23.46.46,0,0,1,.22-.14,7.14,7.14,0,0,0,.77-.27,7,7,0,0,0,.73-.36.46.46,0,0,1,.25-.06.45.45,0,0,1,.25.09l1.37,1a.16.16,0,0,0,.1,0,.11.11,0,0,0,.07,0l1.65-1.65a.12.12,0,0,0,0-.16h0l-1-1.38a.47.47,0,0,1-.09-.25.46.46,0,0,1,.06-.25,6.84,6.84,0,0,0,.36-.73,6.92,6.92,0,0,0,.27-.77.46.46,0,0,1,.14-.22.46.46,0,0,1,.23-.11l1.66-.28a.15.15,0,0,0,.09,0,.11.11,0,0,0,0-.08V9.89a.12.12,0,0,0,0-.08.11.11,0,0,0-.07,0h0L18.12,9.5a.46.46,0,0,1-.23-.11.47.47,0,0,1-.14-.22,6.84,6.84,0,0,0-.62-1.5.47.47,0,0,1-.06-.25.46.46,0,0,1,.09-.25l1-1.37a.15.15,0,0,0,0-.1.11.11,0,0,0,0-.08L16.49,4a.12.12,0,0,0-.08,0,.11.11,0,0,0-.08,0h0L14.95,5a.46.46,0,0,1-.5,0,7.07,7.07,0,0,0-1.5-.62.46.46,0,0,1-.22-.14A.47.47,0,0,1,12.62,4l-.28-1.66a.16.16,0,0,0,0-.1.11.11,0,0,0-.08,0H9.89a.12.12,0,0,0-.08,0,.11.11,0,0,0,0,.07h0L9.5,4a.47.47,0,0,1-.33.37,6.89,6.89,0,0,0-.77.27A6.77,6.77,0,0,0,7.66,5,.47.47,0,0,1,7.41,5,.46.46,0,0,1,7.16,5L5.79,4a.16.16,0,0,0-.1,0,.12.12,0,0,0-.07,0L4,5.62a.12.12,0,0,0,0,.08.11.11,0,0,0,0,.08H4L5,7.16A.47.47,0,0,1,5,7.41.48.48,0,0,1,5,7.66a6.81,6.81,0,0,0-.63,1.5.47.47,0,0,1-.14.22A.46.46,0,0,1,4,9.49l-1.66.28a.15.15,0,0,0-.1,0,.11.11,0,0,0,0,.08v2.33a.12.12,0,0,0,0,.08.11.11,0,0,0,.07,0h0L4,12.61a.47.47,0,0,1,.37.33A6.84,6.84,0,0,0,5,14.45.47.47,0,0,1,5,14.7a.46.46,0,0,1-.09.25L4,16.32a.15.15,0,0,0,0,.1.11.11,0,0,0,0,.07l1.65,1.65a.12.12,0,0,0,.08,0,.11.11,0,0,0,.08,0h0l1.38-1,.13-.06Z"/><path class="cls-4" d="M11.06,7.24a3.82,3.82,0,1,0,2.69,1.12A3.8,3.8,0,0,0,11.06,7.24Zm0,7a3.18,3.18,0,1,1,2.24-.93A3.17,3.17,0,0,1,11.06,14.23Z"/><path class="cls-4" d="M11.06,15a4,4,0,1,1,2.8-1.16A3.93,3.93,0,0,1,11.06,15Zm0-7.62a3.67,3.67,0,1,0,2.59,1.07A3.64,3.64,0,0,0,11.06,7.39Zm0,7a3.33,3.33,0,1,1,2.35-1A3.3,3.3,0,0,1,11.06,14.38Zm0-6.35a3,3,0,1,0,2.14.89A3,3,0,0,0,11.06,8Z"/></g></g></svg>