<svg xmlns="http://www.w3.org/2000/svg" viewBox="0 0 48.58 48.58"><defs><style>.cls-1{fill:#fff;}.cls-2{fill:#d9d9d9;}.cls-3{fill:none;stroke:#a0a0a0;stroke-miterlimit:10;}.cls-4{fill:#AC0000;}</style></defs><title>func-10</title><g id="Layer_2" data-name="Layer 2"><g id="Layer_1-2" data-name="Layer 1"><rect class="cls-1" x="0.5" y="0.5" width="47.58" height="47.58" rx="3.24" ry="3.24"/><path class="cls-2" d="M48.08,42.63v2.2a3.24,3.24,0,0,1-3.22,3.25H3.72A3.23,3.23,0,0,1,.5,44.83v-2.2a3.23,3.23,0,0,0,3.22,3.25H44.86A3.24,3.24,0,0,0,48.08,42.63Z"/><rect class="cls-3" x="0.5" y="0.5" width="47.58" height="47.58" rx="3.24" ry="3.24"/><path class="cls-4" d="M22.07,22.18a1.94,1.94,0,0,1,1,.61,3.58,3.58,0,0,1,.34,2,3.89,3.89,0,0,1-.34,1.79,2.15,2.15,0,0,1-1.16,1,5.75,5.75,0,0,1-2.12.33,5.63,5.63,0,0,1-2.31-.39,2.12,2.12,0,0,1-1.1-.94,5,5,0,0,1-.26-1.94v-.76h3.09v1.57a2,2,0,0,0,.1.8q.1.17.42.17a.49.49,0,0,0,.47-.22A3.17,3.17,0,0,0,20.37,25v-.67a1.58,1.58,0,0,0-.16-.81.76.76,0,0,0-.47-.34,6.22,6.22,0,0,0-1.22-.09V21.7a8,8,0,0,0,1.36-.07.55.55,0,0,0,.37-.29,1.58,1.58,0,0,0,.11-.69v-.54a1.13,1.13,0,0,0-.13-.67.51.51,0,0,0-.42-.16.5.5,0,0,0-.44.17,1.44,1.44,0,0,0-.12.73V21H16.17v-.82A2,2,0,0,1,17,18.28a5.2,5.2,0,0,1,2.58-.49,4.8,4.8,0,0,1,3,.67,2.33,2.33,0,0,1,.79,1.87,1.92,1.92,0,0,1-.28,1.17A2.46,2.46,0,0,1,22.07,22.18Z"/><path class="cls-4" d="M34.22,23.3v.31c2.45.64,4,1.55,4,2.64,0,1.57-4.44,2.89-10.46,3.26v.61c6.56-.41,11.43-2,11.43-3.86C39.18,25.08,37.26,24,34.22,23.3Z"/><path class="cls-4" d="M27,29.87l-2.46-.79v.54h-.23c-7.68,0-13.88-1.5-13.9-3.36,0-1.34,2.23-2.39,5.68-3v-.29c-4,.71-6.67,1.93-6.67,3.31,0,2.19,6.66,4,14.89,4h.24v.56Z"/><path class="cls-4" d="M25,27.84c-.3,0-.67.06-.68-.18a10.7,10.7,0,0,1,0-1.24c0-.19.7-.09.7-.28s0-6.44,0-6.58c0-.32-.14-.31-.38-.31s-.19-.81-.19-1.2.54-.25.93-.25h3.2a6.61,6.61,0,0,1,2.46.37,3.91,3.91,0,0,1,2,1.88,5.93,5.93,0,0,1,.61,2.77,6.1,6.1,0,0,1-.22,1.63,5.14,5.14,0,0,1-.61,1.41,4.19,4.19,0,0,1-2.18,1.7,5.21,5.21,0,0,1-1.74.29ZM28,20v5.56a.91.91,0,0,0,.18.64.83.83,0,0,0,.61.19q2,0,2-3.19a6.49,6.49,0,0,0-.46-2.73,1.77,1.77,0,0,0-1.73-1.07.63.63,0,0,0-.46.14A.65.65,0,0,0,28,20Z"/></g></g></svg>