<svg xmlns="http://www.w3.org/2000/svg" viewBox="0 0 48.58 48.58"><defs><style>.cls-1{fill:#AC0000;}.cls-2{fill:#a30814;}.cls-3{fill:none;stroke:#9e0720;stroke-miterlimit:10;}.cls-4{fill:#fff;}</style></defs><title>func-12-selected</title><g id="Layer_2" data-name="Layer 2"><g id="Layer_1-2" data-name="Layer 1"><rect class="cls-1" x="0.5" y="0.5" width="47.58" height="47.58" rx="3.24" ry="3.24"/><path class="cls-2" d="M48.08,42.63v2.2a3.24,3.24,0,0,1-3.22,3.25H3.72A3.23,3.23,0,0,1,.5,44.83v-2.2a3.23,3.23,0,0,0,3.22,3.25H44.86A3.24,3.24,0,0,0,48.08,42.63Z"/><rect class="cls-3" x="0.5" y="0.5" width="47.58" height="47.58" rx="3.24" ry="3.24"/><path class="cls-4" d="M39.93,33.47V14H8.65V33.47H6.54V34.6H42V33.47ZM24.78,16.62A2.08,2.08,0,0,1,26.35,16a2.18,2.18,0,0,1,1.13.3,2,2,0,0,1,.78.85,2.68,2.68,0,0,1,.26,1.19,2.63,2.63,0,0,1-.27,1.21,1.94,1.94,0,0,1-.8.84,2.26,2.26,0,0,1-1.1.28,2.16,2.16,0,0,1-1.15-.31,2,2,0,0,1-.77-.85,2.54,2.54,0,0,1-.26-1.12A2.44,2.44,0,0,1,24.78,16.62ZM20.27,16h1v1.67h1.64V16h1v4.52h-1V18.66H21.27v1.91h-1ZM17.41,33.47v.12H9.95v-11h7.46Zm-.18-13a1.53,1.53,0,0,1-.69-.57,1.61,1.61,0,0,1-.26-.85v-.22l.95-.08,0,.22a.9.9,0,0,0,.13.4.7.7,0,0,0,.31.23,1.32,1.32,0,0,0,.53.1,1.26,1.26,0,0,0,.46-.08.53.53,0,0,0,.25-.17.35.35,0,0,0,.07-.21.3.3,0,0,0-.06-.19.59.59,0,0,0-.26-.16,6.65,6.65,0,0,0-.69-.19,3.9,3.9,0,0,1-.84-.27,1.34,1.34,0,0,1-.52-.46,1.16,1.16,0,0,1-.18-.63,1.26,1.26,0,0,1,.21-.7,1.31,1.31,0,0,1,.62-.49A2.17,2.17,0,0,1,18.1,16a2.28,2.28,0,0,1,.89.16,1.38,1.38,0,0,1,.63.51,1.46,1.46,0,0,1,.24.76v.22l-1,.07,0-.22a.6.6,0,0,0-.2-.43.89.89,0,0,0-.56-.14.9.9,0,0,0-.56.13.3.3,0,0,0-.14.25.23.23,0,0,0,.08.19,1.86,1.86,0,0,0,.71.24,5.49,5.49,0,0,1,.94.27,1.46,1.46,0,0,1,.62.5,1.24,1.24,0,0,1,.21.71,1.34,1.34,0,0,1-.22.74,1.46,1.46,0,0,1-.63.53,2.1,2.1,0,0,1-.88.18A2.57,2.57,0,0,1,17.23,20.46ZM30,33.47H18.59V22.56H30Zm-.26-14.55v1.65h-1V16h1.76a3.81,3.81,0,0,1,.66,0,1.45,1.45,0,0,1,.59.23,1.23,1.23,0,0,1,.4.48,1.55,1.55,0,0,1-.24,1.69,1.77,1.77,0,0,1-1.36.43Zm8.88,14.55v.12H31.19v-11h7.45Z"/><path class="cls-4" d="M26.35,19.71a1.06,1.06,0,0,0,.83-.35,1.51,1.51,0,0,0,.33-1.05,1.86,1.86,0,0,0-.15-.77,1,1,0,0,0-.4-.47,1.09,1.09,0,0,0-.6-.17,1.13,1.13,0,0,0-.82.33,1.54,1.54,0,0,0-.34,1.14,1.39,1.39,0,0,0,.33,1A1.07,1.07,0,0,0,26.35,19.71Z"/><path class="cls-4" d="M31,17a2,2,0,0,0-.44,0h-.8v1h.82a.89.89,0,0,0,.58-.13.47.47,0,0,0,.14-.37.5.5,0,0,0-.09-.3A.37.37,0,0,0,31,17Z"/></g></g></svg>