<svg xmlns="http://www.w3.org/2000/svg" viewBox="0 0 48.58 48.58"><defs><style>.cls-1{fill:#fff;}.cls-2{fill:#d9d9d9;}.cls-3{fill:none;stroke:#a0a0a0;stroke-miterlimit:10;}.cls-4{fill:#AC0000;}</style></defs><title>func-6</title><g id="Layer_2" data-name="Layer 2"><g id="Layer_1-2" data-name="Layer 1"><rect class="cls-1" x="0.5" y="0.5" width="47.58" height="47.58" rx="3.24" ry="3.24"/><path class="cls-2" d="M48.08,42.63v2.2a3.24,3.24,0,0,1-3.22,3.25H3.72A3.23,3.23,0,0,1,.5,44.83v-2.2a3.23,3.23,0,0,0,3.22,3.25H44.86A3.24,3.24,0,0,0,48.08,42.63Z"/><rect class="cls-3" x="0.5" y="0.5" width="47.58" height="47.58" rx="3.24" ry="3.24"/><path class="cls-1" d="M28.77,38.43h-9a1.12,1.12,0,0,1-1.12-1.12V31.49a.37.37,0,0,1,.37-.37H29.51a.37.37,0,0,1,.37.37v5.82A1.12,1.12,0,0,1,28.77,38.43Z"/><path class="cls-4" d="M30.68,31.3H17.9a.37.37,0,0,1-.37-.37V27.66a1.29,1.29,0,0,1,1.29-1.29h11a1.29,1.29,0,0,1,1.29,1.29v3.26A.37.37,0,0,1,30.68,31.3Zm-12.41-.75h12V27.66a.54.54,0,0,0-.54-.54h-11a.54.54,0,0,0-.54.54Z"/><path class="cls-4" d="M28.77,38.43h-9a1.12,1.12,0,0,1-1.12-1.12V31.49a.37.37,0,1,1,.75,0v5.82a.37.37,0,0,0,.37.37h9a.37.37,0,0,0,.37-.37V31.49a.37.37,0,1,1,.75,0v5.82A1.12,1.12,0,0,1,28.77,38.43Z"/><path class="cls-4" d="M24.21,27h-.09l-2.58-.63h0a3,3,0,0,1-2-2.32,2.5,2.5,0,0,1,2-2.93,2.08,2.08,0,0,1,2.43,1.65,1.74,1.74,0,0,1-1.38,2,1.46,1.46,0,0,1-1.71-1.17.37.37,0,1,1,.74-.14.72.72,0,0,0,.84.57,1,1,0,0,0,.79-1.16,1.33,1.33,0,0,0-1.56-1.06,1.76,1.76,0,0,0-1.4,2.05,2.29,2.29,0,0,0,1.53,1.74l2.56.63a.37.37,0,0,1-.09.74Z"/><path class="cls-4" d="M24.26,27a.37.37,0,0,1-.09-.74l2.67-.65a2.29,2.29,0,0,0,1.53-1.74A1.76,1.76,0,0,0,27,21.84a1.33,1.33,0,0,0-1.56,1.06,1,1,0,0,0,.79,1.16.72.72,0,0,0,.84-.57.37.37,0,1,1,.74.14,1.46,1.46,0,0,1-1.71,1.17,1.74,1.74,0,0,1-1.38-2,2.08,2.08,0,0,1,2.43-1.65,2.5,2.5,0,0,1,2,2.93,3,3,0,0,1-2,2.32h0L24.35,27Z"/><path class="cls-4" d="M25.18,14.58a10.34,10.34,0,0,0-1,1,2.75,2.75,0,0,1,2.12,1.51,1.48,1.48,0,0,1,.07.21,3.53,3.53,0,0,1,.14.57,3.36,3.36,0,0,1,0,.52,2.57,2.57,0,0,0,.46-.73,4.07,4.07,0,0,0,.29-1.27,6.91,6.91,0,0,0,0-.92A3.39,3.39,0,0,0,26,14.3a5.23,5.23,0,0,0,1-2.87,3.92,3.92,0,0,1-.57,1.73A6.88,6.88,0,0,1,25.18,14.58Z"/><path class="cls-4" d="M25.62,19h0l.05,0a2.2,2.2,0,0,0,.58-.3l.2-.17a3.19,3.19,0,0,0,0-.5A1.43,1.43,0,0,1,25.62,19Z"/><path class="cls-4" d="M27.57,15.85c0,.18,0,.36,0,.54a4.22,4.22,0,0,1-.36,1.3,2.64,2.64,0,0,1-.57.79s0,.09,0,.13a2.81,2.81,0,0,1-.16.75,2.65,2.65,0,0,1-.36.67,2.89,2.89,0,0,1-.35.39,3.54,3.54,0,0,0,2.13-3.3A3,3,0,0,0,27.57,15.85Z"/><path class="cls-4" d="M25.56,11.25a.93.93,0,0,0,.2-.75.89.89,0,0,0-.12-.29h0a1.17,1.17,0,0,1,.92,1.27,2.86,2.86,0,0,1-.09.59,3.11,3.11,0,0,1-.41.87l-.14.2a5.89,5.89,0,0,1-1.29,1.11l-.75.47c-.25.16-.5.32-.74.49a4.74,4.74,0,0,0-1.27,1.25,2.68,2.68,0,0,0-.35.83,3.08,3.08,0,0,0-.06.9,3.44,3.44,0,0,0,.07.45,3.31,3.31,0,0,0,.13.43,3.83,3.83,0,0,0,.43.79,4.45,4.45,0,0,0,.32.39,3.44,3.44,0,0,1-1.77-3.14c0-.27,0-.53,0-.78A6.24,6.24,0,0,1,23,13.64l.13-.1a9,9,0,0,0,2.29-2.06Z"/><path class="cls-4" d="M26.34,19.33a2.7,2.7,0,0,0,.13-.72h0l-.17.12a2.25,2.25,0,0,1-.61.28l-.29.07.06,0-.26.05a2.18,2.18,0,0,1-1.7-.58c-1-.84-.49-2.25.16-3,0,0,.86-.87,1.23-1.22.2-.19.39-.37.58-.57a6.92,6.92,0,0,1-.78.61l-.75.48c-.25.16-.49.33-.73.5A4.63,4.63,0,0,0,22,16.55a2.54,2.54,0,0,0-.32.8,2.93,2.93,0,0,0,0,.86,3.37,3.37,0,0,0,.61,1.6,5,5,0,0,0,.55.67,3.48,3.48,0,0,0,1.36.29,3.81,3.81,0,0,0,1.38-.26A2.91,2.91,0,0,0,26,20,2.55,2.55,0,0,0,26.34,19.33Z"/><path class="cls-4" d="M25.37,11.24c-.49,0-1.88.16-2.37,2.19l-.1.08a6.93,6.93,0,0,0-2.16,2.36c.61-6,4.23-5.71,4.23-5.71h.18a.48.48,0,0,1,.45.38h0a.8.8,0,0,1-.2.65Z"/><rect class="cls-4" x="24" y="20.12" width="0.58" height="6.33"/></g></g></svg>