<svg xmlns="http://www.w3.org/2000/svg" viewBox="0 0 48.58 48.58"><defs><style>.cls-1{fill:#fff;}.cls-2{fill:#d9d9d9;}.cls-3,.cls-5{fill:none;}.cls-3{stroke:#a0a0a0;stroke-miterlimit:10;}.cls-4{fill:#AC0000;}.cls-5{stroke:#AC0000;stroke-linecap:round;stroke-linejoin:round;stroke-width:1.27px;}</style></defs><title>func-7</title><g id="Layer_2" data-name="Layer 2"><g id="Layer_1-2" data-name="Layer 1"><rect class="cls-1" x="0.5" y="0.5" width="47.58" height="47.58" rx="3.24" ry="3.24"/><path class="cls-2" d="M48.08,42.63v2.2a3.24,3.24,0,0,1-3.22,3.25H3.72A3.23,3.23,0,0,1,.5,44.83v-2.2a3.23,3.23,0,0,0,3.22,3.25H44.86A3.24,3.24,0,0,0,48.08,42.63Z"/><rect class="cls-3" x="0.5" y="0.5" width="47.58" height="47.58" rx="3.24" ry="3.24"/><path class="cls-4" d="M33.3,34.74h-3a.31.31,0,0,1-.31-.31V24.08H14.88V34.43a.31.31,0,0,1-.31.31H11.62a.31.31,0,0,1-.31-.31V21a.31.31,0,0,1,.55-.2,2,2,0,0,0,3.43-1.2.31.31,0,0,1,.31-.3.32.32,0,0,1,.32.3,2,2,0,0,0,3.91,0,.31.31,0,0,1,.31-.3.32.32,0,0,1,.32.3,2,2,0,0,0,3.91,0,.31.31,0,0,1,.31-.3.32.32,0,0,1,.32.3,2,2,0,0,0,3.91,0,.31.31,0,0,1,.31-.3.32.32,0,0,1,.32.3,2,2,0,0,0,3.51,1.1.31.31,0,0,1,.56.19V34.43A.31.31,0,0,1,33.3,34.74Zm-2.69-.62H33V21.64a2.58,2.58,0,0,1-3.76-.88,2.58,2.58,0,0,1-4.54,0,2.58,2.58,0,0,1-4.54,0,2.58,2.58,0,0,1-4.54,0,2.58,2.58,0,0,1-3.67.94V34.12h2.32V23.77a.31.31,0,0,1,.31-.31H30.3a.31.31,0,0,1,.31.31Z"/><path class="cls-4" d="M13.33,22.11a2.59,2.59,0,0,1-2.58-2.58V14.15a.31.31,0,0,1,.31-.31H15.6a.31.31,0,0,1,.31.31v5.37A2.59,2.59,0,0,1,13.33,22.11Zm-2-7.64v5.06a2,2,0,0,0,3.92,0V14.47Z"/><path class="cls-4" d="M17.87,22.11a2.58,2.58,0,0,1-2.58-2.58V14.15a.31.31,0,0,1,.31-.31h4.54a.31.31,0,0,1,.31.31v5.37A2.58,2.58,0,0,1,17.87,22.11Zm-2-7.64v5.06a2,2,0,1,0,3.92,0V14.47Z"/><path class="cls-4" d="M22.41,22.11a2.58,2.58,0,0,1-2.58-2.58V14.15a.31.31,0,0,1,.31-.31h4.54a.31.31,0,0,1,.31.31v5.37A2.59,2.59,0,0,1,22.41,22.11Zm-2-7.64v5.06a2,2,0,0,0,3.92,0V14.47Z"/><path class="cls-4" d="M27,22.11a2.59,2.59,0,0,1-2.58-2.58V14.15a.31.31,0,0,1,.31-.31h4.54a.31.31,0,0,1,.31.31v5.37A2.58,2.58,0,0,1,27,22.11Zm-2-7.64v5.06a2,2,0,1,0,3.92,0V14.47Z"/><path class="cls-4" d="M31.5,22.11a2.59,2.59,0,0,1-2.58-2.58V14.15a.31.31,0,0,1,.31-.31h4.54a.31.31,0,0,1,.31.31v5.37A2.58,2.58,0,0,1,31.5,22.11Zm-2-7.64v5.06a2,2,0,0,0,3.92,0V14.47Z"/><path class="cls-4" d="M30.3,34.74H14.56a.31.31,0,0,1-.31-.31V23.77a.31.31,0,0,1,.31-.31H30.3a.31.31,0,0,1,.31.31V34.43A.31.31,0,0,1,30.3,34.74Zm-15.42-.62H30v-10H14.88Z"/><rect class="cls-4" x="18.62" y="25.75" width="0.62" height="8.68"/><rect class="cls-4" x="24.3" y="30.34" width="0.62" height="4.09"/><rect class="cls-4" x="22.96" y="30.03" width="3.29" height="0.62"/><path class="cls-4" d="M23.49,32.27H21a.31.31,0,0,1-.3-.24l-.73-3,.61-.15.68,2.81h2.27Z"/><rect class="cls-4" x="20.96" y="32.07" width="0.62" height="2.36"/><rect class="cls-4" x="22.53" y="31.96" width="0.62" height="2.47"/><path class="cls-4" d="M28.24,32.27H25.73v-.62H28l.68-2.81.61.15-.73,3A.31.31,0,0,1,28.24,32.27Z"/><rect class="cls-4" x="27.64" y="32.07" width="0.62" height="2.36"/><rect class="cls-4" x="26.07" y="31.96" width="0.62" height="2.47"/><rect class="cls-4" x="17.14" y="29.1" width="0.62" height="1.98"/><rect class="cls-4" x="33.77" y="15.57" width="4.76" height="0.62"/><rect class="cls-4" x="36.4" y="15.89" width="0.62" height="1.72"/><path class="cls-4" d="M36.71,20.82A1.87,1.87,0,1,1,38.58,19,1.87,1.87,0,0,1,36.71,20.82Zm0-3.11A1.25,1.25,0,1,0,38,19,1.25,1.25,0,0,0,36.71,17.71Z"/><rect class="cls-4" x="14.64" y="25.44" width="15.66" height="0.62"/><rect class="cls-4" x="10.09" y="34.12" width="24.59" height="0.62"/><polygon class="cls-5" points="10.97 13.84 33.68 13.84 33.68 21.47 33.44 21.48 33.52 34.12 34.6 34.12 34.6 34.74 10.01 34.74 10.01 34.12 11.22 34.12 11.41 21.56 11.04 21.56 10.97 13.84"/></g></g></svg>