<svg xmlns="http://www.w3.org/2000/svg" viewBox="0 0 48.58 48.58"><defs><style>.cls-1{fill:#fff;}.cls-2{fill:#d9d9d9;}.cls-3{fill:none;stroke:#a0a0a0;stroke-miterlimit:10;}.cls-4{fill:#AC0000;}</style></defs><title>func-9</title><g id="Layer_2" data-name="Layer 2"><g id="Layer_1-2" data-name="Layer 1"><rect class="cls-1" x="0.5" y="0.5" width="47.58" height="47.58" rx="3.24" ry="3.24"/><path class="cls-2" d="M48.08,42.63v2.2a3.24,3.24,0,0,1-3.22,3.25H3.72A3.23,3.23,0,0,1,.5,44.83v-2.2a3.23,3.23,0,0,0,3.22,3.25H44.86A3.24,3.24,0,0,0,48.08,42.63Z"/><rect class="cls-3" x="0.5" y="0.5" width="47.58" height="47.58" rx="3.24" ry="3.24"/><path class="cls-4" d="M34.26,18.79l-8.85-.16a72.42,72.42,0,0,1-8.19-3.41c-.11-.94-.62-2.23-2-2.23L15,13A2.13,2.13,0,0,0,13,14.92v4.75a3.4,3.4,0,0,0-2.81,3.4A3.34,3.34,0,0,0,13,26.36v4.39a2.15,2.15,0,0,0,1.89,1.92,1.91,1.91,0,0,0,1.75-.51,2.38,2.38,0,0,0,.58-1.35,69.6,69.6,0,0,1,8.17-3.37c.39,0,1.92-.06,3.25-.08-.06.37-.13.75-.19,1.12-.14.84-.28,1.71-.44,2.45a7.48,7.48,0,0,1-.86,2c-.38.68-.7,1.26-.36,1.84s1.26.75,2.89.78h0c1.89,0,2.47-1.91,2.78-2.93l.07-.24c.42-1.31,1-3.43,1.47-5.11l.2,0c2-.29,4.09-1.54,4.06-4.17A4.27,4.27,0,0,0,34.26,18.79ZM13.57,25.12c-.61-.12-2-.55-2-2a2.13,2.13,0,0,1,2-2.18Zm2.16,6.12a.49.49,0,0,1-.39.14l-.2,0a.93.93,0,0,1-.78-.62V14.92a.88.88,0,0,1,.75-.61h.1c.69,0,.72,1.32.72,1.33V16h0l0,14.35A1.75,1.75,0,0,1,15.72,31.25Zm9.18-5a70.16,70.16,0,0,0-8.17,3.37V16.44a74.32,74.32,0,0,0,8.17,3.4ZM31.36,32l-.08.26c-.33,1.09-.68,2-1.53,2h0a8,8,0,0,1-1.68-.14c.07-.15.19-.36.28-.53a8.7,8.7,0,0,0,1-2.4c.17-.77.32-1.66.46-2.52.1-.63.09-.83.21-1.41h2.74C32.29,29,31.79,30.68,31.36,32Zm2.38-6s-7.27.08-8.05.11V19.95l8.11.15Zm.84-.12v-5.7a2.88,2.88,0,0,1,0,5.7Z"/></g></g></svg>