<svg xmlns="http://www.w3.org/2000/svg" viewBox="0 0 48.58 48.58"><defs><style>.cls-1{fill:#AC0000;}.cls-2{fill:#a30814;}.cls-3{fill:none;stroke:#9e0720;stroke-miterlimit:10;}.cls-4{fill:#fff;}</style></defs><title>func-1-selected</title><g id="Layer_2" data-name="Layer 2"><g id="Layer_1-2" data-name="Layer 1"><rect class="cls-1" x="0.5" y="0.5" width="47.58" height="47.58" rx="3.24" ry="3.24"/><path class="cls-2" d="M48.08,42.63v2.2a3.24,3.24,0,0,1-3.22,3.25H3.72A3.23,3.23,0,0,1,.5,44.83v-2.2a3.23,3.23,0,0,0,3.22,3.25H44.86A3.24,3.24,0,0,0,48.08,42.63Z"/><rect class="cls-3" x="0.5" y="0.5" width="47.58" height="47.58" rx="3.24" ry="3.24"/><polygon class="cls-4" points="18.53 15.29 30.05 24.63 24.96 25.92 28.27 32.06 26.1 33.29 22.82 26.96 18.53 30.62 18.53 15.29"/></g></g></svg>