<svg xmlns="http://www.w3.org/2000/svg" viewBox="0 0 48.58 48.58"><defs><style>.cls-1{fill:#AC0000;}.cls-2{fill:#a30814;}.cls-3,.cls-4{fill:none;}.cls-3{stroke:#9e0720;stroke-miterlimit:10;}.cls-4{stroke:#fff;stroke-linejoin:round;stroke-width:1.5px;}.cls-5{fill:#fff;}</style></defs><title>func-3-selected</title><g id="Layer_2" data-name="Layer 2"><g id="Layer_1-2" data-name="Layer 1"><rect class="cls-1" x="0.5" y="0.5" width="47.58" height="47.58" rx="3.24" ry="3.24"/><path class="cls-2" d="M48.08,42.63v2.2a3.24,3.24,0,0,1-3.22,3.25H3.72A3.23,3.23,0,0,1,.5,44.83v-2.2a3.23,3.23,0,0,0,3.22,3.25H44.86A3.24,3.24,0,0,0,48.08,42.63Z"/><rect class="cls-3" x="0.5" y="0.5" width="47.58" height="47.58" rx="3.24" ry="3.24"/><polyline class="cls-4" points="13.49 28.7 13.49 13.49 28.06 13.49"/><polyline class="cls-4" points="35.09 20.22 35.09 35.09 20.32 35.09"/><polyline class="cls-4" points="30.43 13.49 35.09 13.49 35.09 18.01"/><polyline class="cls-4" points="18.15 35.09 13.49 35.09 13.49 30.57"/><rect class="cls-5" x="21.69" y="16.15" width="3.73" height="3.73" rx="0.31" ry="0.31"/><rect class="cls-5" x="16.01" y="16.15" width="3.73" height="3.73" rx="0.31" ry="0.31"/><rect class="cls-5" x="16.01" y="21.69" width="3.73" height="3.73" rx="0.31" ry="0.31"/><rect class="cls-5" x="29.07" y="23.56" width="3.73" height="3.73" rx="0.31" ry="0.31"/><rect class="cls-5" x="29.07" y="29.12" width="3.73" height="3.73" rx="0.31" ry="0.31"/><rect class="cls-5" x="23.47" y="29.12" width="3.73" height="3.73" rx="0.31" ry="0.31"/></g></g></svg>