<svg xmlns="http://www.w3.org/2000/svg" viewBox="0 0 48.58 48.58"><defs><style>.cls-1{fill:#AC0000;}.cls-2{fill:#a30814;}.cls-3,.cls-4{fill:none;stroke-miterlimit:10;}.cls-3{stroke:#9e0720;}.cls-4{stroke:#fff;stroke-width:1.25px;}.cls-5{fill:#fff;}</style></defs><title>func-11-selected</title><g id="Layer_2" data-name="Layer 2"><g id="Layer_1-2" data-name="Layer 1"><rect class="cls-1" x="0.5" y="0.5" width="47.58" height="47.58" rx="3.24" ry="3.24"/><path class="cls-2" d="M48.08,42.63v2.2a3.24,3.24,0,0,1-3.22,3.25H3.72A3.23,3.23,0,0,1,.5,44.83v-2.2a3.23,3.23,0,0,0,3.22,3.25H44.86A3.24,3.24,0,0,0,48.08,42.63Z"/><rect class="cls-3" x="0.5" y="0.5" width="47.58" height="47.58" rx="3.24" ry="3.24"/><path class="cls-4" d="M37.77,20.18a7.05,7.05,0,0,0-1.51-3.92l-.14-.16A5.87,5.87,0,0,0,27.74,16l-.07.08H20.6L20.52,16a5.87,5.87,0,0,0-8.39.08l-.14.16a7,7,0,0,0-1.51,3.92s-1.38,9.6-1.38,10a4.12,4.12,0,0,0,7.77,1.92h0l2-3.29a2.66,2.66,0,0,0,4.05-2.27h2.39a2.66,2.66,0,0,0,4.05,2.27l2,3.29h0a4.12,4.12,0,0,0,7.77-1.92C39.15,29.78,37.77,20.18,37.77,20.18Z"/><rect class="cls-5" x="24.73" y="22.79" width="1.77" height="0.91" rx="0.27" ry="0.27"/><path class="cls-5" d="M19.13,20.53v-.71a.54.54,0,0,0-.54-.54h-1.5v-1.5a.54.54,0,0,0-.54-.54h-.71a.54.54,0,0,0-.54.54v1.5h-1.5a.54.54,0,0,0-.54.54v.71a.54.54,0,0,0,.54.54h1.5v1.5a.54.54,0,0,0,.54.54h.71a.54.54,0,0,0,.54-.54v-1.5h1.5A.54.54,0,0,0,19.13,20.53Z"/><circle class="cls-5" cx="32.27" cy="17.8" r="1.08"/><circle class="cls-5" cx="34.64" cy="20.17" r="1.08"/><circle class="cls-5" cx="29.91" cy="20.17" r="1.08"/><circle class="cls-5" cx="32.27" cy="22.54" r="1.08"/><path class="cls-5" d="M21.35,25a1.71,1.71,0,0,0-.9-.26h0a1.74,1.74,0,1,0,.92.26Z"/><rect class="cls-5" x="22.12" y="22.79" width="1.77" height="0.91" rx="0.27" ry="0.27"/><path class="cls-5" d="M28.19,24.79h0a1.75,1.75,0,1,0,1.53.94A1.71,1.71,0,0,0,28.17,24.78Z"/><path class="cls-5" d="M35.19,34.6a4.44,4.44,0,0,1-3.92-2.35h0l-1.85-3a3,3,0,0,1-1.27.29,3,3,0,0,1-3-2.67H23.41a3,3,0,0,1-3,2.67,3,3,0,0,1-1.27-.29l-1.85,3a4.45,4.45,0,0,1-8.37-2.1c0-.38,1.15-8.42,1.39-10A7.36,7.36,0,0,1,11.91,16l.15-.16a6.2,6.2,0,0,1,8.84-.1h6.78a6.2,6.2,0,0,1,8.84.1h0l.14.16a7.18,7.18,0,0,1,1.59,4.1c.23,1.61,1.38,9.64,1.38,10A4.45,4.45,0,0,1,35.19,34.6Zm-3.48-2.9.12.22A3.8,3.8,0,0,0,39,30.16c0-.34-.83-6.12-1.38-9.93h0a6.59,6.59,0,0,0-1.43-3.75L36,16.33a5.55,5.55,0,0,0-7.92-.07l0,0,0,0-.1.1H20.62l-.1-.1,0,0,0,0a5.55,5.55,0,0,0-7.92.07l-.14.15A6.57,6.57,0,0,0,11,20.23c-.55,3.81-1.37,9.6-1.38,9.94a3.8,3.8,0,0,0,7.16,1.77l.12-.22h0l2.06-3.37.28.17a2.33,2.33,0,0,0,3.56-2v-.32h3v.32a2.33,2.33,0,0,0,3.56,2l.28-.17,2.06,3.37Z"/></g></g></svg>