<svg xmlns="http://www.w3.org/2000/svg" viewBox="0 0 48.58 48.58"><defs><style>.cls-1{fill:#AC0000;}.cls-2{fill:#a30814;}.cls-3,.cls-4,.cls-5,.cls-6{fill:none;}.cls-3{stroke:#9e0720;}.cls-3,.cls-4,.cls-6{stroke-miterlimit:10;}.cls-4,.cls-5,.cls-6{stroke:#fff;stroke-width:1.07px;}.cls-5,.cls-6{stroke-linecap:round;}.cls-5{stroke-linejoin:round;}</style></defs><title>func-5-selected</title><g id="Layer_2" data-name="Layer 2"><g id="Layer_1-2" data-name="Layer 1"><rect class="cls-1" x="0.5" y="0.5" width="47.58" height="47.58" rx="3.24" ry="3.24"/><path class="cls-2" d="M48.08,42.63v2.2a3.24,3.24,0,0,1-3.22,3.25H3.72A3.23,3.23,0,0,1,.5,44.83v-2.2a3.23,3.23,0,0,0,3.22,3.25H44.86A3.24,3.24,0,0,0,48.08,42.63Z"/><rect class="cls-3" x="0.5" y="0.5" width="47.58" height="47.58" rx="3.24" ry="3.24"/><path class="cls-4" d="M26.44,23.8a2.36,2.36,0,0,0,2.14-2.14V19c0-1.77-1.61-2.68-4.29-2.68S20,17.2,20,19v2.68a2.36,2.36,0,0,0,2.14,2.14"/><path class="cls-4" d="M24.29,14.68A1.6,1.6,0,0,0,25.9,13v-.86a1.61,1.61,0,1,0-3.22,0V13A1.6,1.6,0,0,0,24.29,14.68Z"/><polyline class="cls-5" points="22.15 32.47 26.44 32.47 26.44 19.51"/><line class="cls-6" x1="22.15" y1="19.51" x2="22.15" y2="32.47"/><line class="cls-4" x1="24.29" y1="23.26" x2="24.29" y2="32.47"/><path class="cls-6" d="M28.06,29.76c1.92.57,3.2,1.57,3.2,2.71,0,1.78-3.12,3.22-7,3.22s-7-1.44-7-3.22c0-1.14,1.28-2.14,3.21-2.71"/><line class="cls-6" x1="14.29" y1="32.47" x2="20.36" y2="32.47"/><line class="cls-6" x1="28.23" y1="32.47" x2="34.3" y2="32.47"/><line class="cls-6" x1="24.29" y1="34.18" x2="24.29" y2="38.19"/></g></g></svg>