<svg xmlns="http://www.w3.org/2000/svg" viewBox="0 0 48.58 48.58"><defs><style>.cls-1{fill:#AC0000;}.cls-2{fill:#a30814;}.cls-3{fill:none;stroke:#9e0720;}.cls-3,.cls-4{stroke-miterlimit:10;}.cls-4{fill:#fff;stroke:#fff;stroke-width:0.47px;}</style></defs><title>func-4-selected</title><g id="Layer_2" data-name="Layer 2"><g id="Layer_1-2" data-name="Layer 1"><rect class="cls-1" x="0.5" y="0.5" width="47.58" height="47.58" rx="3.24" ry="3.24"/><path class="cls-2" d="M48.08,42.63v2.2a3.24,3.24,0,0,1-3.22,3.25H3.72A3.23,3.23,0,0,1,.5,44.83v-2.2a3.23,3.23,0,0,0,3.22,3.25H44.86A3.24,3.24,0,0,0,48.08,42.63Z"/><rect class="cls-3" x="0.5" y="0.5" width="47.58" height="47.58" rx="3.24" ry="3.24"/><path class="cls-4" d="M20.82,21.45a.38.38,0,0,0-.24.23l-.38,1-.38-1a.38.38,0,0,0-.22-.22l-1-.38,1-.38a.38.38,0,0,0,.24-.28l.36-1.7.36,1.7a.38.38,0,0,0,.26.28l1.18.37-1.18.37Zm.44-1.4-.68-3.22a.38.38,0,0,0-.74,0l-.69,3.24-1.78.66a.38.38,0,0,0,0,.71l1.81.67.67,1.81a.38.38,0,0,0,.71,0l.67-1.8,2.15-.68a.38.38,0,0,0,0-.72l-2.12-.66Z"/><path class="cls-4" d="M26,16.74a.38.38,0,0,0,.24-.28l.36-1.7.36,1.7a.38.38,0,0,0,.26.28l1.18.37-1.18.37a.38.38,0,0,0-.24.23l-.38,1-.38-1a.38.38,0,0,0-.22-.22l-1-.38,1-.38Zm-2.24.73,1.81.67L26.22,20a.38.38,0,0,0,.71,0l.67-1.8,2.15-.68a.38.38,0,0,0,0-.72l-2.12-.66-.68-3.22a.38.38,0,0,0-.74,0l-.69,3.24-1.78.66a.38.38,0,0,0,0,.71Z"/><path class="cls-4" d="M15.74,30.93h7.07l-.3,4.32h-9l2.19-4.32ZM12.94,36h9.93a.38.38,0,0,0,.38-.35l.35-5.08a.38.38,0,0,0-.38-.4H15.51a.38.38,0,0,0-.34.21L12.6,35.47a.38.38,0,0,0,.34.55Z"/><path class="cls-4" d="M31,26.47l1,2.12H25.72l-.12-2.12Zm-5.59,2.88h7.25a.38.38,0,0,0,.32-.57l-1.41-2.85a.38.38,0,0,0-.34-.21h-6a.38.38,0,0,0-.38.4L25,29a.38.38,0,0,0,.38.36Z"/><path class="cls-4" d="M26.07,35.26l-.24-4.32H32.9L35,35.26Zm7.4-4.87a.38.38,0,0,0-.34-.21H25.42a.38.38,0,0,0-.38.4l.29,5.08a.38.38,0,0,0,.38.36h9.93a.38.38,0,0,0,.32-.57l-2.49-5.05Z"/><path class="cls-4" d="M17.73,26.47h5.35l-.15,2.12H16.66l1.07-2.12Zm-2,2.7a.38.38,0,0,0,.32.18h7.25a.38.38,0,0,0,.38-.35l.2-2.88a.38.38,0,0,0-.38-.4h-6a.38.38,0,0,0-.34.21L15.71,28.8a.38.38,0,0,0,0,.37Z"/></g></g></svg>