<svg xmlns="http://www.w3.org/2000/svg" viewBox="0 0 48.58 48.58"><defs><style>.cls-1{fill:#fff;}.cls-2{fill:#d9d9d9;}.cls-3{fill:none;stroke:#a0a0a0;stroke-miterlimit:10;}.cls-4{fill:#AC0000;}</style></defs><title>func-2</title><g id="Layer_2" data-name="Layer 2"><g id="Layer_1-2" data-name="Layer 1"><rect class="cls-1" x="0.5" y="0.5" width="47.58" height="47.58" rx="3.24" ry="3.24"/><path class="cls-2" d="M48.08,42.63v2.2a3.24,3.24,0,0,1-3.22,3.25H3.72A3.23,3.23,0,0,1,.5,44.83v-2.2a3.23,3.23,0,0,0,3.22,3.25H44.86A3.24,3.24,0,0,0,48.08,42.63Z"/><rect class="cls-3" x="0.5" y="0.5" width="47.58" height="47.58" rx="3.24" ry="3.24"/><rect class="cls-4" x="13.27" y="24.29" width="11.02" height="11.02"/><polygon class="cls-4" points="29.8 18.78 18.78 18.78 18.78 22.83 25.75 22.83 25.75 29.8 29.8 29.8 29.8 18.78"/><polygon class="cls-4" points="35.31 13.27 24.29 13.27 24.29 17.32 31.26 17.32 31.26 24.29 35.31 24.29 35.31 13.27"/></g></g></svg>