<svg xmlns="http://www.w3.org/2000/svg" viewBox="0 0 48.58 48.58"><defs><style>.cls-1{fill:#AC0000;}.cls-2{fill:#a30814;}.cls-3{fill:none;stroke:#9e0720;stroke-miterlimit:10;}.cls-4{fill:#fff;}</style></defs><title>func-8-selected</title><g id="Layer_2" data-name="Layer 2"><g id="Layer_1-2" data-name="Layer 1"><rect class="cls-1" x="0.5" y="0.5" width="47.58" height="47.58" rx="3.24" ry="3.24"/><path class="cls-2" d="M48.08,42.63v2.2a3.24,3.24,0,0,1-3.22,3.25H3.72A3.23,3.23,0,0,1,.5,44.83v-2.2a3.23,3.23,0,0,0,3.22,3.25H44.86A3.24,3.24,0,0,0,48.08,42.63Z"/><rect class="cls-3" x="0.5" y="0.5" width="47.58" height="47.58" rx="3.24" ry="3.24"/><path class="cls-4" d="M35.45,23.94v-10H32.92l-.54-2.11L24,13.94H13.13v2.77l-1.89.48,1.89,7.45v10h2.54l.54,2.11,8.33-2.11H35.45V31.88l1.89-.48ZM13.13,21.49l-1-3.75,1-.24Zm18.69-8.73.3,1.17H27.19ZM16.76,35.82l-.3-1.17h4.93Zm17.41-17V33.36H14.42V15.22H34.17Zm1.29,8.22,1,3.75-1,.24Z"/><path class="cls-4" d="M16.31,21.18l.12,0h.39l.13,0a.22.22,0,0,0,.1-.06.17.17,0,0,0,0-.09l.42-2.11q.05-.25.09-.49l0-.23,0,.17c0,.14.08.29.13.43l.61,1.84a2.47,2.47,0,0,0,.09.26.59.59,0,0,0,.1.17.34.34,0,0,0,.15.1.71.71,0,0,0,.2,0h.36l.14,0a.39.39,0,0,0,.13-.07.43.43,0,0,0,.1-.11.42.42,0,0,0,.06-.15l.75-3.72a.14.14,0,0,0,0-.09.14.14,0,0,0-.08-.06l-.13,0a2.21,2.21,0,0,0-.38,0l-.13,0a.22.22,0,0,0-.09.05.17.17,0,0,0,0,.08l-.39,1.94q0,.23-.09.47l0,.24,0-.12c0-.12-.07-.24-.11-.36l-.61-1.86a1.48,1.48,0,0,0-.08-.21.56.56,0,0,0-.1-.15A.37.37,0,0,0,18,17a.66.66,0,0,0-.2,0h-.44a.43.43,0,0,0-.26.09.4.4,0,0,0-.15.26L16.23,21a.14.14,0,0,0,0,.1A.14.14,0,0,0,16.31,21.18Z"/><path class="cls-4" d="M20.68,21.18l.11,0h2.07a.16.16,0,0,0,.11,0A.35.35,0,0,0,23,21a.7.7,0,0,0,0-.12l0-.12a1.1,1.1,0,0,0,0-.11s0-.06,0-.07a.25.25,0,0,0,0-.13.12.12,0,0,0-.11-.06H21.57l.21-1H23a.15.15,0,0,0,.11,0,.35.35,0,0,0,.07-.1.7.7,0,0,0,0-.12s0-.08,0-.12l0-.11s0-.06,0-.07a.22.22,0,0,0,0-.12.13.13,0,0,0-.11-.06H21.94l.18-.89h1.43a.15.15,0,0,0,.11-.05.37.37,0,0,0,.07-.1.74.74,0,0,0,0-.13l0-.13v-.11s0-.06,0-.07-.1-.18-.14-.18H21.62a.38.38,0,0,0-.22.07.37.37,0,0,0-.14.24l-.72,3.6a.39.39,0,0,0,0,.14.25.25,0,0,0,0,.11A.21.21,0,0,0,20.68,21.18Z"/><path class="cls-4" d="M24.37,20.93a.43.43,0,0,0,0,.15.19.19,0,0,0,.12.1l.19,0h.58l.18,0a.27.27,0,0,0,.12-.09.58.58,0,0,0,.08-.14l1.05-2.41L26.87,21a.3.3,0,0,0,0,.13.19.19,0,0,0,.11.09l.18,0h.56l.19,0a.3.3,0,0,0,.14-.08.48.48,0,0,0,.08-.14l1.67-3.6a1.55,1.55,0,0,0,.07-.19.17.17,0,0,0,0-.15.22.22,0,0,0-.14-.07h-.46l-.15,0A.23.23,0,0,0,29,17a.28.28,0,0,0-.05.09l-1.26,3-.15-2.9a.42.42,0,0,0,0-.12.16.16,0,0,0-.09-.09l-.15,0h-.48l-.16,0a.26.26,0,0,0-.11.07.41.41,0,0,0-.06.11l-1.3,2.93-.08-2.91a.37.37,0,0,0,0-.11A.15.15,0,0,0,25,17l-.15,0h-.48a.34.34,0,0,0-.16,0,.18.18,0,0,0-.08.13,1.05,1.05,0,0,0,0,.17Z"/><path class="cls-4" d="M30.2,18.93a1.19,1.19,0,0,0,.22.22l.25.17.25.14.21.14a.63.63,0,0,1,.14.15.32.32,0,0,1,0,.18.53.53,0,0,1,0,.22.5.5,0,0,1-.13.17.64.64,0,0,1-.22.12,1,1,0,0,1-.31,0,1.11,1.11,0,0,1-.35,0L30,20.33l-.18-.11a.3.3,0,0,0-.16-.06.13.13,0,0,0-.1.05.39.39,0,0,0-.06.1.85.85,0,0,0,0,.12l0,.12,0,.11a.66.66,0,0,0,0,.08.26.26,0,0,0,.06.18.64.64,0,0,0,.15.11l.24.1.32.08a2.1,2.1,0,0,0,.39,0,2.19,2.19,0,0,0,.72-.11,1.69,1.69,0,0,0,.55-.31,1.39,1.39,0,0,0,.36-.47,1.35,1.35,0,0,0,.13-.58,1.09,1.09,0,0,0-.06-.38,1.05,1.05,0,0,0-.16-.29,1.25,1.25,0,0,0-.23-.22l-.25-.17-.25-.15-.21-.14a.64.64,0,0,1-.14-.15.3.3,0,0,1,0-.17A.5.5,0,0,1,31,18a.45.45,0,0,1,.1-.16.51.51,0,0,1,.18-.11,1,1,0,0,1,.55,0l.22.08.16.08a.28.28,0,0,0,.14,0,.13.13,0,0,0,.1-.05.39.39,0,0,0,.05-.09.83.83,0,0,0,0-.12l0-.12,0-.11s0-.06,0-.08a.27.27,0,0,0,0-.11.25.25,0,0,0-.06-.08l-.13-.08L32.16,17l-.27-.06-.31,0a2,2,0,0,0-.64.1,1.56,1.56,0,0,0-.51.28,1.3,1.3,0,0,0-.33.44,1.28,1.28,0,0,0-.12.55,1.12,1.12,0,0,0,.06.38A1.06,1.06,0,0,0,30.2,18.93Z"/><path class="cls-4" d="M16.23,28.15H23V22.29H16.23ZM17,23.06h5.18v4.31H17Z"/><rect class="cls-4" x="24.35" y="22.67" width="8.25" height="0.7"/><rect class="cls-4" x="24.35" y="27.07" width="8.25" height="0.77"/><rect class="cls-4" x="16.18" y="29.24" width="16.41" height="0.67"/><polygon class="cls-4" points="16.18 32 31.84 32 32.59 32 32.59 31.81 32.59 31.25 16.18 31.25 16.18 32"/><rect class="cls-4" x="24.35" y="25.08" width="8.25" height="0.68"/></g></g></svg>