<svg xmlns="http://www.w3.org/2000/svg" xmlns:xlink="http://www.w3.org/1999/xlink" viewBox="0 0 47.8 25.31"><defs><style>.cls-1{fill:none;}.cls-2{fill:#ac0000;}.cls-3{fill:url(#New_Pattern_Swatch_1);}</style><pattern id="New_Pattern_Swatch_1" data-name="New Pattern Swatch 1" width="45" height="45" patternTransform="translate(-101.37 -46.75) scale(0.5 0.48)" patternUnits="userSpaceOnUse" viewBox="0 0 45 45"><rect class="cls-1" width="45" height="45"/><rect class="cls-2" width="45" height="45"/></pattern></defs><title>nav1_2</title><g id="Layer_2" data-name="Layer 2"><g id="Layer_1-2" data-name="Layer 1"><rect class="cls-1" width="47.8" height="25.31"/><path class="cls-3" d="M31.21,13.41a.67.67,0,0,0-.63-.46h-.73l-1.41,1.33h1.68l3.06,7.65H14.66l3-7.65h4.2L20.53,13H17.16a.66.66,0,0,0-.62.43l-3.73,9a.67.67,0,0,0,.63.88h21A.67.67,0,0,0,35,23a.68.68,0,0,0,.08-.63Z"/><path class="cls-3" d="M25.27,11.1a3,3,0,0,0,2.13-5.15,3.09,3.09,0,0,0-4.27,0,3,3,0,0,0,2.13,5.15Zm0-4.7a1.69,1.69,0,0,1,1.19,2.88,1.73,1.73,0,0,1-2.38,0,1.69,1.69,0,0,1,1.19-2.88Z"/><path class="cls-3" d="M14.8,16.48H4.24L8.48,10h3l2.51,2.52a.59.59,0,0,0,.84,0l2.75-2.77a4.53,4.53,0,0,0,0-6.37,4.46,4.46,0,0,0-6.34,0,4.52,4.52,0,0,0-.71,5.41H8a.67.67,0,0,0-.61.4l-5,7.68,0,.09a.67.67,0,0,0,.63.88H14.17ZM12,4.19a3.28,3.28,0,0,1,4.67,0,3.35,3.35,0,0,1,0,4.71l-2.33,2.35L12,8.9A3.35,3.35,0,0,1,12,4.19Z"/><path class="cls-3" d="M14.37,8.87a2.32,2.32,0,0,0,1.64-4,2.37,2.37,0,0,0-3.28,0,2.32,2.32,0,0,0,1.64,4Zm-.81-3.12a1.14,1.14,0,0,1,1.61,1.61,1.17,1.17,0,0,1-1.61,0,1.14,1.14,0,0,1,0-1.61Z"/><path class="cls-3" d="M37.06,6.55a2.3,2.3,0,0,0-.68-1.64,2.37,2.37,0,0,0-3.28,0,2.32,2.32,0,1,0,4,1.64Zm-1.51.81a1.17,1.17,0,0,1-1.61,0,1.14,1.14,0,1,1,1.61,0Z"/><path class="cls-3" d="M45.51,17,40.43,9.21a.67.67,0,0,0-.61-.4H38.59a4.52,4.52,0,0,0-.68-5.45,4.44,4.44,0,0,0-7.43,1.86,5.91,5.91,0,0,0-9.42-1.38,6,6,0,0,0,0,8.47l3.74,3.77a.67.67,0,0,0,.95,0l3.74-3.77a6,6,0,0,0,1.64-3.13,4.44,4.44,0,0,0,.45.55l2.75,2.77a.59.59,0,0,0,.84,0L37.62,10h1.7l4.24,6.51H33l.62,1.33H44.88a.67.67,0,0,0,.63-.88ZM25.27,3.41a4.58,4.58,0,0,1,3.27,1.36,4.69,4.69,0,0,1,0,6.59l-3.27,3.29L22,11.37a4.69,4.69,0,0,1,0-6.59A4.58,4.58,0,0,1,25.27,3.41Zm9.47,7.83L32.4,8.9a3.35,3.35,0,0,1,0-4.71,3.28,3.28,0,0,1,4.67,0,3.34,3.34,0,0,1,.07,4.62h0L37,9Z"/></g></g></svg>