<svg xmlns="http://www.w3.org/2000/svg" xmlns:xlink="http://www.w3.org/1999/xlink" viewBox="0 0 47.8 25.31"><defs><style>.cls-1,.cls-3{fill:none;}.cls-2{fill:#ac0000;}.cls-3{stroke-miterlimit:10;stroke-width:1.25px;stroke:url(#New_Pattern_Swatch_1);}.cls-4,.cls-5{fill:url(#New_Pattern_Swatch_1);}.cls-5{font-size:6.25px;font-family:GodoB, Godo B;}.cls-6{letter-spacing:-0.03em;}.cls-7{letter-spacing:-0.03em;}.cls-8{letter-spacing:0em;}</style><pattern id="New_Pattern_Swatch_1" data-name="New Pattern Swatch 1" width="45" height="45" patternTransform="translate(-101.37 -46.75) scale(0.5 0.48)" patternUnits="userSpaceOnUse" viewBox="0 0 45 45"><rect class="cls-1" width="45" height="45"/><rect class="cls-2" width="45" height="45"/></pattern></defs><title>nav2_2</title><g id="Layer_2" data-name="Layer 2"><g id="Layer_1-2" data-name="Layer 1"><rect class="cls-1" width="47.8" height="25.31"/><path class="cls-3" d="M32.25,18.53l-21.14-.1A1.41,1.41,0,0,1,9.71,17l0-8.94a1.41,1.41,0,0,1,1.41-1.4l21.14.1a1.41,1.41,0,0,1,1,.42l4.39,4.49a1.41,1.41,0,0,1,0,2l-4.44,4.45A1.41,1.41,0,0,1,32.25,18.53Z"/><circle class="cls-4" cx="33.57" cy="12.66" r="1.42" transform="translate(20.75 46.16) rotate(-89.73)"/><text class="cls-5" transform="translate(13.6 15.07)"><tspan class="cls-6">S</tspan><tspan x="3.75" y="0">A</tspan><tspan class="cls-7" x="8" y="0">L</tspan><tspan class="cls-8" x="11.47" y="0">E</tspan></text></g></g></svg>