<svg xmlns="http://www.w3.org/2000/svg" xmlns:xlink="http://www.w3.org/1999/xlink" viewBox="0 0 47.8 25.31"><defs><style>.cls-1{fill:none;}.cls-2{fill:#ac0000;}.cls-3{fill:url(#New_Pattern_Swatch_1);}</style><pattern id="New_Pattern_Swatch_1" data-name="New Pattern Swatch 1" width="45" height="45" patternTransform="translate(-310.26 -118.35) scale(1.51 1.46)" patternUnits="userSpaceOnUse" viewBox="0 0 45 45"><rect class="cls-1" width="45" height="45"/><rect class="cls-2" width="45" height="45"/></pattern></defs><title>nav3_2</title><g id="Layer_2" data-name="Layer 2"><g id="Layer_1-2" data-name="Layer 1"><rect class="cls-1" width="47.8" height="25.31"/><path class="cls-3" d="M24.77,20.73H17.14a.59.59,0,0,1-.59-.59V2.64a.59.59,0,0,1,.59-.59h9.7V4.66a.45.45,0,0,0,.45.45h3v6.28a.45.45,0,0,0,.9,0V4.76a.44.44,0,0,0-.13-.34L28.24,1.59a1.48,1.48,0,0,0-1.05-.44h-10a1.49,1.49,0,0,0-1.49,1.49v17.5a1.49,1.49,0,0,0,1.49,1.49h7.63a.45.45,0,1,0,0-.9ZM29.59,4.21H27.75V2.37Z"/><path class="cls-3" d="M27.53,6.72h-8.2a.45.45,0,1,0,0,.9h8.2a.45.45,0,0,0,0-.9Z"/><path class="cls-3" d="M28,10.46a.45.45,0,0,0-.45-.45h-8.2a.45.45,0,1,0,0,.9h8.2A.45.45,0,0,0,28,10.46Z"/><path class="cls-3" d="M19.33,13.3a.45.45,0,0,0,0,.9h3.35a.45.45,0,0,0,0-.9Z"/><path class="cls-3" d="M34.15,14.17a.45.45,0,0,0-.79-.28,2.16,2.16,0,0,1-3.8-1.41.45.45,0,0,0-.9,0,2.16,2.16,0,0,1-3.8,1.41.45.45,0,0,0-.79.28c0,.25-.16,6.16,4.82,9a.45.45,0,0,0,.45,0C34.26,20.36,34.16,14.43,34.15,14.17Zm-5,8.07A9.3,9.3,0,0,1,25,15.16a3.07,3.07,0,0,0,4.09-1.09,3.06,3.06,0,0,0,4.1,1.09A9.28,9.28,0,0,1,29.1,22.25Z"/><path class="cls-3" d="M30.06,18.13a1,1,0,0,0,.15-.2.87.87,0,0,0,.11-.44A1,1,0,0,0,30.2,17a1,1,0,0,0-.31-.35,1,1,0,0,0-.39-.16,2.56,2.56,0,0,0-.44,0h-.75s-.06,0-.06,0h0a.09.09,0,0,0-.09-.08H27.8a.09.09,0,0,0-.09.09.59.59,0,0,0,.43.55v2.55a.59.59,0,0,0-.44.55.09.09,0,0,0,.09.09h.36a.08.08,0,0,0,.06,0,.08.08,0,0,0,0-.06s0,0,.07,0h.73l.49,0a1.23,1.23,0,0,0,.49-.18,1,1,0,0,0,.35-.38,1.06,1.06,0,0,0,.12-.5,1,1,0,0,0-.16-.58A1,1,0,0,0,30.06,18.13Zm-.89,1.36h-.44v-1a.5.5,0,0,0,.37.17.49.49,0,0,0,.38-.19l.1,0a.48.48,0,0,1,.24.18.5.5,0,0,1,.09.3.45.45,0,0,1-.07.24.47.47,0,0,1-.18.17.75.75,0,0,1-.22.07Zm.51-1.82a.35.35,0,0,1-.15.14l-.08,0a.48.48,0,0,0-.34-.14h0a.48.48,0,0,0-.37.17V17h.39l.25,0a.54.54,0,0,1,.18.07.37.37,0,0,1,.13.14.38.38,0,0,1,0,.4Z"/></g></g></svg>