<svg xmlns="http://www.w3.org/2000/svg" viewBox="0 0 10.41 10.62"><defs><style>.cls-1{fill:#de4134;}.cls-2{fill:#f1b621;}.cls-3{fill:#32a250;}.cls-4{fill:#5078b4;}</style></defs><title>gmail</title><g id="Layer_2" data-name="Layer 2"><g id="Layer_1-2" data-name="Layer 1"><path class="cls-1" d="M10.31,4.36h-5v2H8.19A2.63,2.63,0,0,1,5.31,8.45a3.15,3.15,0,1,1,2-5.6L8.81,1.32a5.31,5.31,0,1,0-3.5,9.3c2.93,0,5-2.07,5.1-5.31A4.73,4.73,0,0,0,10.31,4.36Z"/><path class="cls-2" d="M10.31,4.36h-5v2H8.19A2.63,2.63,0,0,1,5.31,8.45,3.15,3.15,0,0,1,2.16,5.31a3.28,3.28,0,0,1,.16-1C1.55,3.71,1.55,3.71.55,3a5.31,5.31,0,0,0,4.76,7.66c2.93,0,5-2.07,5.1-5.31A4.73,4.73,0,0,0,10.31,4.36Z"/><path class="cls-3" d="M10.31,4.36h-5v2H8.19A2.63,2.63,0,0,1,5.31,8.45a3.15,3.15,0,0,1-3-2.16L.55,7.66a5.31,5.31,0,0,0,4.76,3c2.93,0,5-2.07,5.1-5.31A4.73,4.73,0,0,0,10.31,4.36Z"/><path class="cls-4" d="M10.31,4.36h-5v2H8.19A2.29,2.29,0,0,1,7.12,8c.64.51,1,.77,1.69,1.3a5.49,5.49,0,0,0,1.6-4A4.73,4.73,0,0,0,10.31,4.36Z"/></g></g></svg>