<svg xmlns="http://www.w3.org/2000/svg" viewBox="0 0 11.6 10.62"><defs><style>.cls-1{fill:#321c15;}.cls-2{fill:#ffe600;}</style></defs><title>kakao</title><g id="Layer_2" data-name="Layer 2"><g id="Layer_1-2" data-name="Layer 1"><path class="cls-1" d="M5.8,0C2.6,0,0,2,0,4.54A4.42,4.42,0,0,0,2.69,8.37l-.54,2a.19.19,0,0,0,.28.2L4.74,9h0a7.4,7.4,0,0,0,1.06.08c3.2,0,5.8-2,5.8-4.54S9,0,5.8,0Z"/><path class="cls-2" d="M3.83,3.36A.32.32,0,0,0,3.5,3H1.81a.32.32,0,1,0,0,.65h.52V5.61a.32.32,0,0,0,.65,0V3.68H3.5A.32.32,0,0,0,3.83,3.36Z"/><path class="cls-2" d="M10,5.43l-.8-1L10,3.58a.32.32,0,1,0-.48-.44l-.9,1V3.36a.32.32,0,1,0-.65,0V5.61a.32.32,0,0,0,.65,0V5.08l.19-.2.73,1A.32.32,0,1,0,10,5.43Z"/><path class="cls-2" d="M7.49,5.3h-.7V3.36a.32.32,0,1,0-.65,0V5.61h0A.32.32,0,0,0,6.47,6h1a.32.32,0,0,0,0-.65Z"/><path class="cls-2" d="M5.13,3.32A.47.47,0,0,0,4.66,3a.49.49,0,0,0-.46.31L3.41,5.54a.31.31,0,1,0,.58.2l.12-.33H5.23l.12.33a.31.31,0,0,0,.58-.2ZM4.32,4.8l.34-1L5,4.8Z"/></g></g></svg>