<svg xmlns="http://www.w3.org/2000/svg" viewBox="0 0 10.62 10.62"><defs><style>.cls-1{fill:#15a7f6;}.cls-2{fill:#fff;}</style></defs><title>twitter</title><g id="Layer_2" data-name="Layer 2"><g id="Layer_1-2" data-name="Layer 1"><circle class="cls-1" cx="5.31" cy="5.31" r="5.31"/><path class="cls-2" d="M8.57,3.64s-.46.23-.67.14a1.27,1.27,0,0,0,.51-.66,2.12,2.12,0,0,1-.78.29,1.29,1.29,0,0,0-2.27.85,1.44,1.44,0,0,0,0,.3A4.2,4.2,0,0,1,2.78,3.27a1.29,1.29,0,0,0,.37,1.66C3,5,2.63,4.83,2.63,4.83a1.3,1.3,0,0,0,1,1.25,1.55,1.55,0,0,1-.51,0A1.21,1.21,0,0,0,4.19,7a3.23,3.23,0,0,1-1.79.52,3.6,3.6,0,0,0,2,.6A3.55,3.55,0,0,0,8,4.59a1.52,1.52,0,0,0,0-.18,1,1,0,0,0,0-.13A2.4,2.4,0,0,0,8.57,3.64Z"/></g></g></svg>