<?xml version="1.0" encoding="utf-8"?>
<!-- Generator: Adobe Illustrator 21.0.0, SVG Export Plug-In . SVG Version: 6.00 Build 0)  -->
<svg version="1.1" id="Layer_1" xmlns="http://www.w3.org/2000/svg" xmlns:xlink="http://www.w3.org/1999/xlink" x="0px" y="0px"
	 viewBox="0 0 47.8 25.3" style="enable-background:new 0 0 47.8 25.3;" xml:space="preserve">
<style type="text/css">
	.st0{fill:#AC0000;}
</style>
<title>nav1</title>
<g>
	<g>
		<polygon class="st0" points="18.8,14.3 25.6,14.3 25.6,16.5 29.6,12.6 25.6,8.6 25.6,10.9 18.8,10.9 		"/>
	</g>
	<g>
		<path class="st0" d="M10.4,19.4c0,0-0.1,0-0.1,0c0,0-0.1,0-0.1,0l0,0l0.2,0.6l0,0c0.1,0,0.1,0,0.2-0.1c0,0,0.1,0,0.1-0.1
			c0.1-0.1,0.1-0.2,0.1-0.3c0-0.1,0-0.1-0.1-0.1C10.5,19.4,10.5,19.4,10.4,19.4z"/>
		<path class="st0" d="M7,5.9C7,6,6.9,6,7,5.9C6.8,6,6.8,6,6.8,6l0,0l0.1,0.4l0.2,0c0,0,0.1,0,0.1,0c0,0,0,0,0.1,0c0,0,0,0,0.1-0.1
			c0,0,0-0.1,0-0.1c0,0,0-0.1-0.1-0.1C7.1,6,7.1,5.9,7,5.9C7,5.9,7,5.9,7,5.9z"/>
		<path class="st0" d="M7.2,19.4C7.1,19.4,7.1,19.3,7.2,19.4c-0.1,0-0.1-0.1-0.1-0.1l-0.1,0l-0.1,0.3l0,0c0,0,0,0,0,0
			c0,0,0.1,0,0.1,0c0,0,0.1,0,0.1,0.1c0,0,0,0,0,0c0,0,0,0,0.1,0c0,0,0,0,0-0.1C7.2,19.5,7.2,19.5,7.2,19.4
			C7.2,19.4,7.2,19.4,7.2,19.4z"/>
		<path class="st0" d="M9.4,19.5c-0.1,0-0.1,0.1-0.2,0.1c0,0.1-0.1,0.1-0.1,0.2c0,0.1,0.1,0.2,0.1,0.2c0.1,0.1,0.1,0.1,0.2,0.1
			c0.1,0,0.1-0.1,0.2-0.1c0-0.1,0.1-0.2,0.1-0.2c0-0.1,0-0.2-0.1-0.2C9.6,19.5,9.5,19.5,9.4,19.5z"/>
		<path class="st0" d="M7.7,12c0.2-0.3,0.5-0.5,0.8-0.5c0.3,0,0.6,0.2,0.8,0.4c0.1,0,0.3-0.1,0.4-0.2c0.2-0.1,0.3-0.2,0.5-0.4
			c0.1-0.2,0.2-0.4,0.2-0.6c0-0.2-0.1-0.4-0.2-0.6c-0.1-0.2-0.2-0.3-0.4-0.4C9.6,9.5,9.4,9.5,9.3,9.4c-0.2,0-0.4-0.1-0.7-0.1H7.4V12
			L7.7,12C7.7,12,7.7,12,7.7,12z"/>
		<path class="st0" d="M6.7,5.9L6.7,5.9C6.8,5.8,6.8,5.8,6.7,5.9c0.1-0.1,0.2-0.1,0.2,0c0,0,0,0,0,0c0,0,0,0,0-0.1s0-0.1,0-0.1
			c0,0,0,0,0-0.1c0,0,0,0-0.1,0c0,0,0,0-0.1,0c0,0-0.1,0-0.1,0l-0.1,0L6.7,5.9L6.7,5.9z"/>
		<path class="st0" d="M7.1,19.8C7.1,19.8,7,19.8,7.1,19.8c-0.1,0-0.1,0-0.2,0c0,0-0.1,0-0.1-0.1l0,0l-0.1,0.4l0.2,0
			c0,0,0.1,0,0.1,0c0,0,0.1,0,0.1,0c0,0,0.1,0,0.1,0c0,0,0-0.1,0-0.1C7.2,19.9,7.2,19.9,7.1,19.8C7.1,19.8,7.1,19.8,7.1,19.8z"/>
		<path class="st0" d="M9.4,16c0.2,0,0.4-0.1,0.6-0.2c0.2-0.1,0.4-0.3,0.5-0.5c0.1-0.2,0.2-0.5,0.2-0.7c0-0.3-0.1-0.6-0.3-0.9
			c-0.2-0.3-0.4-0.4-0.7-0.5c-0.1,0-0.3-0.1-0.4-0.1c-0.2,0.3-0.5,0.5-0.9,0.5c-0.4,0-0.7-0.2-0.9-0.5H7.4V16h1.3
			C8.9,16,9.2,16,9.4,16z"/>
		<path class="st0" d="M8.5,19.6c-0.1,0-0.2,0-0.2,0.1c-0.1,0.1-0.1,0.1-0.1,0.2c0,0.1,0,0.2,0.1,0.2c0.1,0.1,0.1,0.1,0.2,0.1
			c0.1,0,0.1,0,0.2-0.1c0.1-0.1,0.1-0.1,0.1-0.2c0-0.1,0-0.2-0.1-0.2C8.7,19.6,8.6,19.6,8.5,19.6z"/>
		<path class="st0" d="M8.5,4.2C3.8,4.2,0,8,0,12.7c0,4.7,3.8,8.5,8.5,8.5c4.7,0,8.5-3.8,8.5-8.5C17,8,13.2,4.2,8.5,4.2z M15.9,12.4
			c0,0.1,0,0.1-0.1,0.2c-0.1,0.1-0.1,0.1-0.2,0.1h0l0,0c-0.1,0-0.2,0-0.2-0.1c0,0-0.1-0.1-0.1-0.1c0-0.1,0-0.1,0-0.2
			c0-0.1,0.1-0.3,0.1-0.5c0-0.1,0-0.1,0.1-0.2c0,0,0-0.1,0-0.1s0.1,0.1,0.2,0.2c0.1,0.1,0.2,0.3,0.2,0.4
			C15.9,12.3,15.9,12.4,15.9,12.4z M15.6,11.1c0.1,0.3,0,0.5-0.2,0.5l0,0l0,0c-0.2,0-0.4-0.1-0.4-0.4c0-0.1,0-0.3,0-0.5
			c0-0.2,0.1-0.3,0.1-0.3s0.1,0.1,0.2,0.2C15.5,10.8,15.6,10.9,15.6,11.1z M14.7,8.8c0.2,0.2,0.1,0.5,0,0.6l0,0c0,0,0.1,0.1,0.2,0.2
			c0.1,0,0.1,0.1,0.2,0.2c0.1,0.1,0.1,0.1,0.2,0.2c0.2,0.2,0.1,0.5-0.1,0.6l0,0l0,0c-0.2,0.1-0.4-0.1-0.5-0.3c0-0.1,0-0.1,0-0.2
			c0-0.1,0-0.2,0-0.2c0-0.2,0-0.3,0-0.3l0,0c-0.1,0.1-0.4,0-0.5-0.2c-0.1-0.1-0.1-0.3-0.1-0.5c0-0.1,0-0.3,0-0.3s0.1,0,0.3,0.1
			C14.4,8.6,14.6,8.7,14.7,8.8z M13.9,7.9c0.2,0.2,0.2,0.5,0.1,0.6l0,0l0,0c-0.1,0.1-0.4,0.1-0.5-0.2c-0.1-0.1-0.1-0.3-0.2-0.4
			c0-0.2-0.1-0.3-0.1-0.3s0.1,0,0.3,0.1C13.6,7.7,13.8,7.8,13.9,7.9z M13,7.1c0.2,0.1,0.3,0.4,0.2,0.5l0,0l0,0
			c-0.1,0.1-0.4,0.1-0.5-0.1c-0.1-0.1-0.2-0.3-0.3-0.4c-0.1-0.1-0.1-0.3-0.1-0.3s0.1,0,0.3,0C12.7,7,12.9,7,13,7.1z M11.5,6.3
			c0.2,0,0.4,0,0.5,0.1c0.1,0,0.2,0.1,0.3,0.2c0,0.1,0,0.2,0,0.3l0,0l0,0C12.2,7,12.2,7,12.1,7c-0.1,0-0.2,0-0.3-0.1
			c-0.1-0.1-0.2-0.2-0.3-0.3c-0.1-0.1-0.2-0.2-0.2-0.2S11.4,6.4,11.5,6.3z M10.2,5.4l0.2,0.1c0.1,0,0.1,0,0.2,0.1
			c0.1,0,0.1,0.1,0.2,0.1c0,0.1,0.1,0.1,0.1,0.2c0,0.1,0,0.1,0,0.2c0,0.1,0,0.1-0.1,0.2c0,0.1-0.1,0.1-0.2,0.1c-0.1,0-0.1,0-0.2,0
			c-0.1,0-0.1,0-0.2,0L9.9,6.4L10.2,5.4z M9.2,5.4c0.1-0.1,0.2-0.1,0.3-0.1c0.1,0,0.2,0.1,0.3,0.2c0.1,0.1,0.1,0.2,0.1,0.4
			c0,0.1-0.1,0.2-0.2,0.3C9.6,6.3,9.5,6.3,9.4,6.3c-0.1,0-0.2-0.1-0.3-0.2C9,6,9,5.9,9,5.7C9,5.6,9.1,5.5,9.2,5.4z M8.1,5.4
			c0.1-0.1,0.2-0.1,0.3-0.2c0.1,0,0.2,0,0.3,0.1c0.1,0.1,0.1,0.2,0.1,0.4c0,0.1,0,0.3-0.1,0.4C8.7,6.2,8.6,6.2,8.4,6.2
			c-0.1,0-0.2,0-0.3-0.1C8,6,8,5.9,8,5.7C8,5.6,8,5.5,8.1,5.4z M7.5,5.3l0.1,0.8l0.3,0l0,0.2L7.5,6.3l-0.1-1L7.5,5.3z M6.5,5.4
			C6.5,5.4,6.5,5.5,6.5,5.4l0.3,0c0,0,0.1,0,0.1,0c0,0,0.1,0,0.1,0c0,0,0.1,0,0.1,0.1c0,0,0,0.1,0.1,0.1c0,0,0,0.1,0,0.1
			c0,0,0,0.1-0.1,0.1c0,0,0.1,0,0.1,0.1c0,0,0.1,0.1,0.1,0.2c0,0,0,0.1,0,0.1c0,0,0,0.1-0.1,0.1c0,0-0.1,0.1-0.1,0.1
			c0,0-0.1,0-0.1,0l-0.2,0c0,0,0,0,0,0l-0.1,0c0,0,0-0.1,0.1-0.2L6.5,5.6c-0.1,0-0.1-0.1-0.2-0.1L6.5,5.4L6.5,5.4z M4.9,6.4
			c0.1,0,0.3-0.1,0.5-0.1c0.2,0,0.3,0,0.3,0S5.6,6.5,5.5,6.6C5.4,6.7,5.3,6.9,5.2,6.9C5.1,7,5,7.1,4.9,7C4.8,7,4.7,7,4.7,6.9l0,0
			l0,0c0-0.1-0.1-0.2,0-0.3C4.7,6.6,4.8,6.5,4.9,6.4z M3.9,7.1C4,7,4.2,7,4.4,6.9c0.2,0,0.3,0,0.3,0s0,0.1-0.1,0.3
			C4.5,7.3,4.4,7.5,4.3,7.6C4.1,7.8,3.9,7.8,3.7,7.6l0,0l0,0C3.6,7.5,3.7,7.2,3.9,7.1z M3,7.9c0.1-0.1,0.3-0.2,0.4-0.2
			c0.1-0.1,0.3-0.1,0.3-0.1s0,0.1-0.1,0.3c0,0.1-0.1,0.3-0.2,0.4C3.4,8.6,3.1,8.6,3,8.5l0,0l0,0C2.8,8.4,2.8,8.1,3,7.9z M1.7,10.7
			c0.1-0.1,0.2-0.2,0.2-0.2l0,0c-0.2-0.1-0.3-0.3-0.1-0.5c0-0.1,0.1-0.1,0.1-0.2C2,9.7,2,9.7,2.1,9.6c0.1-0.1,0.2-0.2,0.2-0.2l0,0
			c-0.1-0.1-0.2-0.3,0-0.6c0.1-0.1,0.3-0.2,0.4-0.3C2.9,8.5,3,8.5,3,8.5s0,0.1,0,0.3c0,0.2,0,0.3-0.1,0.5C2.7,9.5,2.5,9.5,2.3,9.5
			l0,0c0,0,0,0.1,0,0.3c0,0.1,0,0.2,0,0.2c0,0.1,0,0.2,0,0.2c-0.1,0.3-0.3,0.4-0.4,0.3l0,0c0,0,0,0.1,0.1,0.3C2,11,2,11.1,2,11.3
			c0,0.3-0.2,0.4-0.4,0.4l0,0h0c-0.2,0-0.3-0.3-0.2-0.5C1.4,11,1.6,10.8,1.7,10.7z M1.5,14.7c0-0.1,0-0.3,0.1-0.5
			c0-0.2,0.1-0.3,0.1-0.3l0,0c-0.2,0-0.4-0.1-0.4-0.4c0-0.1,0-0.2,0-0.2c0-0.1,0.1-0.2,0.1-0.2c0.1-0.1,0.1-0.3,0.1-0.3h0
			c-0.1,0-0.2,0-0.2-0.1c0,0-0.1-0.1-0.1-0.2c0-0.1,0-0.1,0-0.2c0-0.1,0.1-0.3,0.2-0.4c0.1-0.1,0.2-0.2,0.2-0.2s0,0,0,0.1
			c0,0,0,0.1,0.1,0.2c0.1,0.1,0.1,0.3,0.1,0.5c0,0.1,0,0.1,0,0.2c0,0.1,0,0.1-0.1,0.1c-0.1,0.1-0.1,0.1-0.2,0.1h0
			c0,0,0.1,0.1,0.1,0.2c0,0.1,0.1,0.1,0.1,0.2c0,0.1,0.1,0.1,0.1,0.2c0.1,0.3-0.1,0.5-0.2,0.5l0,0c0,0,0.1,0.1,0.2,0.2
			c0.1,0.1,0.2,0.3,0.3,0.4c0.1,0.2,0,0.5-0.1,0.5l0,0l0,0C1.8,15.2,1.5,15,1.5,14.7z M1.9,15.9c0-0.1,0-0.3,0-0.5
			c0-0.2,0-0.3,0-0.3s0.1,0.1,0.2,0.2c0.1,0.1,0.3,0.2,0.3,0.3c0.1,0.2,0.1,0.5-0.1,0.5l0,0l0,0C2.2,16.2,2,16.2,1.9,15.9z
			 M2.5,16.9c0-0.1-0.1-0.1-0.1-0.2c0-0.1,0-0.2,0-0.3c0-0.2,0-0.3,0-0.3s0.1,0.1,0.2,0.1c0.1,0,0.1,0.1,0.2,0.1
			c0.1,0,0.1,0.1,0.2,0.1c0.2,0.2,0.2,0.4,0,0.5l0,0l0,0C2.9,17.2,2.6,17.2,2.5,16.9z M3.8,18c-0.1,0.1-0.4,0.1-0.6-0.1
			c-0.1-0.1-0.1-0.3-0.2-0.5C3,17.2,3,17.1,3,17.1s0.1,0,0.3,0.1c0.1,0.1,0.3,0.1,0.4,0.2C3.9,17.6,3.9,17.8,3.8,18L3.8,18L3.8,18z
			 M5.8,19.2L5.8,19.2c0,0.1-0.1,0.1-0.2,0.2c-0.1,0-0.2,0-0.3-0.1c-0.1-0.1-0.2-0.2-0.3-0.4c-0.1-0.1-0.1-0.2-0.1-0.2l0,0
			c0,0.1-0.1,0.1-0.2,0.1c-0.1,0-0.1,0-0.2,0c-0.1,0-0.1-0.1-0.2-0.1c-0.1-0.1-0.2-0.3-0.3-0.4c0-0.1-0.1-0.1-0.1-0.2
			c0,0,0-0.1,0-0.1s0,0,0.1,0c0,0,0.1,0,0.2,0c0.2,0,0.3,0.1,0.4,0.1c0.1,0,0.1,0.1,0.1,0.1c0,0,0.1,0.1,0.1,0.1c0,0.1,0,0.2,0,0.3
			l0,0c0,0,0.1,0,0.3,0c0.1,0,0.3,0,0.5,0.1c0.1,0,0.2,0.1,0.3,0.2C5.8,19.1,5.8,19.1,5.8,19.2L5.8,19.2z M6.1,17.3H5.2
			c0-0.4,0.2-1,1.1-1.2V9.3C5.5,9.1,5.2,8.5,5.2,8.1h0.9c0,0,0,0,0,0c0,0.1,0.1,0.3,0.3,0.3h1.9c0.4,0,0.8,0,1.1,0.1
			c0.3,0.1,0.6,0.2,0.9,0.4c0.3,0.2,0.5,0.5,0.7,0.8c0.2,0.3,0.3,0.7,0.3,1.1c0,0.4-0.1,0.7-0.3,1c-0.1,0.2-0.3,0.5-0.6,0.7
			c0.4,0.2,0.7,0.5,0.9,0.8c0.3,0.4,0.4,0.8,0.4,1.3c0,0.4-0.1,0.8-0.3,1.1c-0.2,0.4-0.5,0.7-0.8,0.9c-0.3,0.2-0.7,0.4-1.2,0.4
			c-0.2,0-0.6,0-1.2,0H6.5C6.2,17.1,6.1,17.3,6.1,17.3z M7.3,19.8c0,0.1,0,0.1,0,0.2c0,0,0,0.1-0.1,0.1c0,0-0.1,0.1-0.1,0.1
			c0,0-0.1,0-0.1,0c0,0-0.1,0-0.1,0l-0.2,0c0,0-0.1,0-0.1,0l-0.1,0c0,0,0.1-0.1,0.2-0.1l0.2-0.8c-0.1,0-0.1-0.1-0.1-0.2l0.1,0l0,0
			c0,0,0,0,0,0l0.2,0c0,0,0.1,0,0.1,0c0,0,0.1,0,0.1,0.1c0,0,0.1,0.1,0.1,0.1c0,0,0,0.1,0,0.1c0,0,0,0.1-0.1,0.1c0,0-0.1,0-0.1,0.1
			C7.2,19.8,7.2,19.8,7.3,19.8z M7.9,20.4l-0.5-0.1l0.1-1l0.2,0l-0.1,0.8l0.3,0L7.9,20.4z M8.8,20.3c-0.1,0.1-0.2,0.1-0.3,0.1
			c-0.1,0-0.2,0-0.3-0.1c-0.1-0.1-0.1-0.2-0.1-0.4c0-0.1,0-0.3,0.1-0.4c0.1-0.1,0.2-0.1,0.3-0.1c0.1,0,0.2,0.1,0.3,0.1
			C8.9,19.7,9,19.8,9,19.9C9,20.1,8.9,20.2,8.8,20.3z M9.8,20.2c-0.1,0.1-0.2,0.2-0.3,0.2c-0.1,0-0.2,0-0.3-0.1
			C9.1,20.2,9,20.1,9,19.9c0-0.1,0-0.3,0.1-0.4s0.2-0.2,0.3-0.2c0.1,0,0.2,0,0.3,0.1c0.1,0.1,0.2,0.2,0.2,0.3
			C9.9,19.9,9.9,20.1,9.8,20.2z M10.7,20c0,0.1-0.1,0.1-0.2,0.1c-0.1,0-0.1,0.1-0.2,0.1l-0.2,0.1l-0.3-0.9l0.2-0.1
			c0.1,0,0.2,0,0.2,0c0.1,0,0.1,0,0.2,0c0.1,0,0.1,0.1,0.2,0.1c0,0.1,0.1,0.1,0.1,0.2c0,0.1,0,0.1,0,0.2S10.8,19.9,10.7,20z
			 M12.3,18.9c-0.1,0.1-0.2,0.3-0.3,0.4c-0.1,0.1-0.2,0.1-0.3,0.1c-0.1,0-0.2-0.1-0.2-0.2l0,0l0,0c0-0.1,0-0.2,0-0.3
			c0-0.1,0.1-0.2,0.3-0.2c0.1,0,0.3,0,0.5-0.1c0.2,0,0.3,0,0.3,0S12.4,18.8,12.3,18.9z M13.4,18c0,0,0,0.1-0.1,0.2
			c-0.1,0.1-0.2,0.3-0.3,0.4c0,0.1-0.1,0.1-0.2,0.1c-0.1,0-0.1,0-0.2,0c-0.1,0-0.2,0-0.2-0.1l0,0l0,0c0-0.1-0.1-0.2,0-0.3
			c0,0,0-0.1,0.1-0.1c0,0,0.1-0.1,0.1-0.1c0.1-0.1,0.3-0.1,0.4-0.1C13.2,18,13.2,18,13.4,18C13.3,17.9,13.4,17.9,13.4,18
			C13.4,17.9,13.4,18,13.4,18z M14.1,17.4c0,0.2-0.1,0.3-0.2,0.5c-0.2,0.2-0.4,0.2-0.6,0.1l0,0l0,0c-0.1-0.1-0.1-0.4,0.1-0.5
			c0.1-0.1,0.3-0.2,0.4-0.2c0.1-0.1,0.3-0.1,0.3-0.1S14.1,17.2,14.1,17.4z M14.8,16.4c0,0.1,0,0.2,0,0.3c0,0.1,0,0.2-0.1,0.2
			c-0.1,0.3-0.4,0.3-0.5,0.2l0,0l0,0c-0.1-0.1-0.2-0.4,0-0.5c0,0,0.1-0.1,0.2-0.1c0.1-0.1,0.1-0.1,0.2-0.1c0.1-0.1,0.2-0.1,0.2-0.1
			S14.8,16.2,14.8,16.4z M15.2,15.8c-0.1,0.3-0.3,0.4-0.5,0.3l0,0l0,0c-0.1-0.1-0.2-0.3-0.1-0.5c0.1-0.1,0.2-0.2,0.3-0.3
			c0.1-0.1,0.2-0.2,0.2-0.2s0,0.1,0.1,0.3C15.3,15.5,15.3,15.7,15.2,15.8z M15.2,15L15.2,15L15.2,15c-0.2-0.1-0.3-0.3-0.2-0.5
			c0-0.1,0.2-0.3,0.3-0.4c0.1-0.1,0.2-0.2,0.2-0.2s0,0.1,0.1,0.3c0,0.2,0.1,0.3,0.1,0.5C15.6,14.9,15.4,15.1,15.2,15z M15.5,13.9
			L15.5,13.9L15.5,13.9c-0.2,0-0.3-0.2-0.3-0.5c0-0.1,0-0.1,0.1-0.2c0-0.1,0.1-0.1,0.1-0.2c0.1-0.1,0.1-0.2,0.1-0.2s0.1,0.1,0.1,0.2
			c0,0.1,0.1,0.2,0.1,0.2c0,0.1,0,0.2,0,0.2C15.9,13.7,15.7,13.9,15.5,13.9z"/>
		<path class="st0" d="M10.3,6.3c0,0,0.1,0,0.1,0c0.1,0,0.1-0.1,0.2-0.2c0,0,0-0.1,0-0.1s0-0.1-0.1-0.1c0,0-0.1-0.1-0.1-0.1
			c0,0-0.1,0-0.1,0l0,0l-0.2,0.6l0,0C10.2,6.3,10.3,6.3,10.3,6.3z"/>
		<path class="st0" d="M9.4,6.1c0.1,0,0.1,0,0.2-0.1C9.7,6,9.7,5.9,9.7,5.8c0-0.1,0-0.2-0.1-0.2c0-0.1-0.1-0.1-0.2-0.1
			c-0.1,0-0.2,0-0.2,0.1C9.2,5.6,9.2,5.7,9.1,5.8c0,0.1,0,0.2,0.1,0.2C9.2,6.1,9.3,6.1,9.4,6.1z"/>
		<path class="st0" d="M8.4,6.1c0.1,0,0.1,0,0.2-0.1c0.1-0.1,0.1-0.1,0.1-0.2c0-0.1,0-0.2-0.1-0.2C8.6,5.4,8.5,5.4,8.4,5.4
			c-0.1,0-0.2,0-0.2,0.1C8.2,5.6,8.1,5.6,8.1,5.7c0,0.1,0,0.2,0.1,0.2C8.3,6,8.4,6.1,8.4,6.1z"/>
	</g>
	<g>
		<ellipse transform="matrix(0.7378 -0.675 0.675 0.7378 -3.2721 28.4311)" class="st0" cx="35" cy="18.4" rx="0" ry="0"/>
		<ellipse transform="matrix(0.9016 -0.4325 0.4325 0.9016 0.9531 17.2675)" class="st0" cx="38.4" cy="6.5" rx="0" ry="0"/>
		<path class="st0" d="M39.1,4c-1.6,0-3,0.4-4.3,1.2c0,0,0,0,0,0c0,0,0,0,0,0c0,0,0,0,0,0c0,0,0,0,0,0c0,0,0,0,0,0c0,0,0,0,0,0
			c0,0,0,0,0,0c0,0-0.1,0-0.1,0c0,0,0,0,0,0c0,0,0,0,0,0c-2.5,1.5-4.2,4.2-4.2,7.4c0,4.8,3.9,8.6,8.6,8.6s8.6-3.9,8.6-8.6
			S43.9,4,39.1,4z M36.4,5c0,0-0.1,0.1-0.1,0.1l-0.1,0c0,0-0.1,0-0.1,0l0-0.1l0,0c0,0,0,0,0,0C36.2,5,36.2,5,36.4,5
			C36.3,5,36.3,5,36.4,5z M35.9,20.2C35.9,20.2,35.8,20.2,35.9,20.2c-0.2-0.1-0.3-0.1-0.3-0.2c-0.4-0.2-0.6-0.3-0.9-0.5
			c-0.1,0-0.1-0.1-0.2-0.1c0,0,0,0,0,0c0,0,0,0-0.1,0c-0.2-0.1-0.3-0.2-0.5-0.3c0,0,0,0-0.1,0c0,0,0,0-0.1,0c0,0,0,0,0,0
			c-0.1-0.1-0.2-0.2-0.4-0.4c0,0,0,0,0,0c0,0,0,0,0,0c0,0-0.1-0.1-0.1-0.1c-0.1-0.1-0.2-0.2-0.3-0.3c0,0,0,0,0-0.1c0,0,0,0-0.1-0.1
			c-0.1-0.1-0.2-0.3-0.4-0.4c0,0,0,0,0,0c0-0.1-0.1-0.1-0.1-0.2c0,0-0.1-0.1-0.1-0.1c0,0-0.1-0.1-0.1-0.1c0,0-0.1-0.1-0.1-0.1
			c0,0,0,0,0-0.1c0,0,0,0,0,0l-0.3-0.5c-0.1-0.2-0.2-0.4-0.2-0.5c0,0,0,0,0-0.1c-0.1-0.2-0.1-0.3-0.2-0.6c-0.1-0.2-0.1-0.3-0.1-0.5
			c-0.1-0.3-0.1-0.5-0.2-0.8c0-0.2,0-0.4-0.1-0.6c0-0.2,0-0.4,0-0.6c0-0.1,0-0.3,0-0.5c0-0.1,0-0.2,0-0.3c0-0.2,0.1-0.4,0.1-0.6
			c0.1-0.3,0.1-0.4,0.1-0.7c0,0,0,0,0-0.1c0.1-0.3,0.1-0.5,0.2-0.6c0,0,0,0,0,0c0.1-0.2,0.1-0.4,0.2-0.5c0,0,0,0,0-0.1
			c0,0,0-0.1,0-0.1C31.8,9,31.9,8.9,32,8.7l0.2-0.3c0,0.3-0.3,0.8-0.3,0.8l0,0c-0.1,0.2-0.1,0.8-0.1,0.8l0,0c0.3-0.3,0-0.9,0.4-1.2
			c-0.3,2.5-0.3,2.5,0.2,2.7c0,0,0.1,0,0.1,0c0.1,0,0.1,0,0.1,0l0,0c0.1,0.1,0.1,0.1,0.1,0.1c0.1,0.3,0.2,0.4,0.4,0.5c0,0,0,0,0,0h0
			l0,0l0,0c0.3,0.8,0.3,0.8,0.7,1.1c0,0,0,0,0.1,0c0,0,0-0.1,0-0.1c0,0,0.1,0,0.1,0c0.6,0.6-0.4,1.1-0.2,1.8c-0.1,0.2-0.1,0.2,0,0.4
			c0.2,0.5,0.6,1.3,1.3,1.8c0.1,0.1,0.2,0.2,0.2,0.3c0.2,0.8,0.3,1.3,0.3,1.6c0.1,0.7,0.1,0.7,0.2,0.7c0,0,0-0.1,0-0.1
			c0,0,0.1,0.1,0.1,0.1c0,0-0.1,0-0.1,0c0,0,0,0,0,0l0,0.1c0,0,0,0.1,0,0.1c0,0,0,0,0,0c0,0,0.1,0,0.1,0c0,0,0,0.1,0,0.1
			C35.8,20.1,35.9,20.2,35.9,20.2C35.9,20.2,35.9,20.2,35.9,20.2C35.9,20.2,35.9,20.2,35.9,20.2z M37.5,20.7L37.5,20.7
			C37.5,20.7,37.5,20.7,37.5,20.7C37.5,20.7,37.5,20.7,37.5,20.7C37.5,20.7,37.5,20.7,37.5,20.7C37.5,20.7,37.5,20.7,37.5,20.7
			C37.5,20.7,37.5,20.7,37.5,20.7C37.5,20.7,37.5,20.7,37.5,20.7C37.5,20.7,37.5,20.7,37.5,20.7C37.5,20.7,37.5,20.7,37.5,20.7
			C37.5,20.7,37.5,20.7,37.5,20.7z M44.7,18.7C44.7,18.7,44.7,18.7,44.7,18.7C44.6,18.7,44.6,18.7,44.7,18.7
			c-0.2,0.2-0.3,0.3-0.5,0.4l0,0l0,0c-0.3,0.2-0.4,0.3-0.6,0.4c-0.1,0-0.1,0.1-0.2,0.1c-0.1,0.1-0.2,0.1-0.3,0.2c0,0,0,0-0.1,0
			c0,0-0.1,0-0.1,0.1c-0.1,0.1-0.3,0.1-0.4,0.2c0,0,0,0-0.1,0c0,0-0.1,0-0.1,0c0,0-0.1,0-0.1,0.1c-0.1,0-0.2,0.1-0.3,0.1
			c-0.1,0-0.2,0.1-0.4,0.1c0,0-0.1,0-0.1,0c-0.1,0-0.1,0-0.2,0.1c0,0,0,0,0,0c0,0,0,0,0,0c-0.1,0-0.2,0-0.3,0.1c0,0,0,0-0.1,0
			c0,0,0,0,0,0c0,0,0,0,0,0c0,0,0,0,0,0c0,0,0,0,0,0c0,0,0,0,0,0h0c0,0,0,0,0,0h0l0,0h0l0,0h0l0,0h0h0h0h0h0l0,0h0c0,0,0,0,0,0
			c0,0,0,0,0,0l0,0c0,0,0,0,0,0c0,0,0,0,0,0l0,0c0,0-0.1,0-0.1,0c-0.1,0-0.1,0-0.2,0c0,0,0,0,0,0c0,0,0,0-0.1,0c0,0,0,0,0,0
			c-0.1,0-0.2,0-0.3,0c0,0,0,0,0,0c0,0,0,0,0,0c0,0-0.1,0-0.1,0c0,0,0,0,0,0c0,0,0,0,0,0l0,0h0c0,0,0,0,0,0c0,0-0.1,0-0.1,0
			c0,0,0,0,0,0c0,0,0,0,0,0c0,0,0,0,0,0c0,0-0.1,0-0.1,0c0,0,0,0,0,0c0,0,0,0,0,0c0,0,0,0-0.1,0c0,0,0,0-0.1,0c-0.1,0-0.2,0-0.2,0
			c0,0-0.1,0-0.1,0c0,0,0,0,0,0c0,0,0,0,0,0c0,0,0,0,0,0c0,0-0.1,0-0.1,0c0,0-0.1,0-0.1,0c0,0-0.1,0-0.1,0c0,0,0,0,0,0h0
			c0,0,0,0,0,0c0,0,0,0,0,0c-0.1,0-0.2,0-0.3,0c0,0,0,0,0,0c0,0,0,0,0,0c-0.1,0-0.1,0-0.2,0c0,0,0,0,0,0c-0.1,0-0.1,0-0.2,0
			c0,0,0,0,0,0c0,0,0,0-0.1,0c0,0,0,0,0,0c0,0,0,0,0,0c0,0,0,0,0,0c0,0,0,0,0,0h0l0,0h0l0,0h0h0c0,0,0,0,0,0h0l0,0l0,0h0
			c0,0,0,0,0,0c0,0,0,0,0,0c0,0,0,0,0,0c0,0,0,0,0,0c-0.1,0-0.1,0-0.2,0c0,0,0,0,0,0c0,0,0,0,0,0c0,0,0,0,0,0c0,0,0,0-0.1,0
			c0,0,0,0,0,0c0,0,0,0,0,0c0,0,0,0,0,0c0,0,0,0,0,0h0l0,0l0,0c0,0,0,0,0,0l0,0h0c0,0,0,0,0,0h0c0,0,0,0,0,0h0c0,0,0,0,0,0h0l0,0
			l0,0l0,0h0l0,0c0,0,0,0,0,0l0,0l0,0l0,0l0,0l0,0c0,0,0,0,0,0h0l0,0h0l0,0c0,0,0,0,0,0c0,0-0.1,0-0.1,0l0,0c0,0,0,0,0,0
			c-0.2,0-0.3-0.1-0.4-0.1c0,0,0,0,0,0c0,0,0,0,0,0l0,0c0,0,0,0,0,0c0,0,0,0,0,0l0,0c0,0,0,0,0,0c-0.2-0.1-0.4-0.1-0.4-0.3
			c0,0,0.1-0.1,0.1-0.1c0,0,0,0,0,0C36.4,20,36.4,20,36.4,20c0.1-0.1,0.1-0.1,0.2-0.2c0,0,0,0,0-0.1c0,0-0.1-0.1-0.1-0.1
			c0,0,0,0,0,0c0,0,0.1,0,0.1,0c0.1,0,0.1,0,0.1,0c0,0,0.1,0,0.1,0c0,0,0-0.1,0-0.1c0,0,0,0,0,0c0.1,0,0.1,0,0.1,0h0h0l0,0h0h0h0h0
			h0h0l0,0c0.2,0,0.4,0,0.4-0.2c-0.1-0.1-0.1-0.1-0.1-0.2c0.1,0,0.1,0,0.2,0.1c0,0,0,0,0,0c0.8,0,0.7-1.1,1.4-1.2l0,0l0,0
			c0.5-0.1,0.5-0.9,0.6-1.2c0,0,0.6-0.9,0.6-0.9c0-0.3-0.8-0.6-0.8-0.6c-0.1,0-0.2-0.1-0.4-0.1c0,0-0.1,0-0.2,0
			c-0.2-0.3-0.7-0.2-0.9-0.7c0,0,0-0.1,0-0.1c0-0.1-0.1-0.2-0.1-0.3c0,0,0,0-0.1,0c0,0-0.1-0.1-0.1-0.1c0,0,0,0-0.1,0l0,0
			c-0.1-0.1-0.2-0.1-0.3-0.1c0,0,0,0,0,0c0,0-0.1,0-0.1,0c0,0,0,0,0,0c-0.1,0-0.2-0.1-0.2-0.2c-0.1-0.1-0.1-0.2-0.3-0.2c0,0,0,0,0,0
			l0,0c-0.1-0.3-0.3-0.3-0.5-0.4c0,0,0,0.1,0,0.1c-0.2,0-0.2,0-0.7-0.4c-0.2,0.1-0.2,0.1-0.2,0.1l0,0c0,0,0.1-0.1,0.1-0.1
			c-0.3-0.1-0.3-0.1-0.8,0.4C34,13.1,34,13,33.8,12.9c0,0-0.1,0-0.1,0c0,0-0.1,0-0.1,0c-0.4-0.2,0-0.7-0.1-1
			c-0.1-0.1-0.1-0.1-0.3-0.2c0,0-0.1,0-0.1,0c0,0,0,0,0,0c0,0,0,0-0.1,0c0,0,0-0.1,0-0.1c0.1-0.2,0.3-0.3,0.3-0.6c0,0,0-0.1,0-0.1
			c0,0,0,0-0.1-0.1c-0.3,0-0.4,0.3-0.7,0.3c0,0,0,0,0,0l0,0c-0.2-0.2-0.2-1.1,0.5-1.5c0,0,0.1,0,0.1,0c0.1,0,0.1,0,0.1,0l0,0
			c0.1,0.1,0.1,0.1,0.2,0.2c0,0,0,0,0,0c0.1,0,0.1,0,0.1,0c0,0,0,0,0,0c0,0,0,0,0,0c0,0,0,0,0,0c0,0,0,0,0,0c0,0,0,0,0,0
			c0,0,0,0,0,0c0,0,0,0,0,0l0,0c0.1,0,0.1,0,0.2,0c0,0,0,0,0.2,0.1c0,0,0.1,0,0.1,0c0,0,0,0,0,0l0,0c0.2,0.2,0,0.5,0.1,0.7
			c0,0,0.1,0,0.1,0c0.1-0.3,0-0.6,0.2-0.9c0.2-0.3,0.6-0.2,0.8-0.4c0-0.2,0-0.2,0-0.2c0.2-0.2,0.4-0.3,0.6-0.5c0.1,0,0.1,0,0.2,0
			c0,0,0-0.1,0-0.1c0,0,0-0.1,0-0.1c0.2-0.2,0.6-0.3,0.6-0.3c0,0,0,0,0,0c0,0-0.1,0.1-0.1,0.1c0,0,0,0.1,0,0.1c0,0,0,0,0,0
			c0.4-0.1,0.6-0.2,0.6-0.3c0,0,0-0.1,0-0.1c-0.1,0-0.1,0.1-0.2,0.1l0,0c0,0,0-0.1,0-0.1c0,0,0,0,0,0c0,0,0,0,0,0c0,0,0,0,0,0
			c0,0,0,0,0,0c0,0,0,0,0,0c0,0,0,0,0,0c0,0,0,0,0,0c0,0,0,0,0,0c0,0-0.1-0.1-0.1-0.1c0,0,0-0.1,0.1-0.1c0,0,0,0,0,0c0,0,0,0,0,0
			c0,0,0,0,0,0c0,0,0,0,0,0c0,0,0,0,0,0c0,0,0,0,0,0c0,0,0,0,0,0c0,0,0,0,0,0l0,0c0.1,0,0.1,0,0.2-0.1l-0.1-0.1
			c-0.1,0-0.1,0-0.5,0.1c0,0,0,0,0,0c0.2-0.1,0.2-0.1,0.2-0.1c0.1-0.1,0.1-0.1,0.3-0.1l0.1,0c0,0,0.1,0.1,0.1,0.1c0,0,0,0,0,0l0,0
			l0.1,0l0-0.1c0.2,0,0.6-0.1,0.7-0.4c0,0,0,0-0.1-0.1c0,0,0,0,0,0h0h0l0,0c0,0,0-0.1,0-0.1c-0.2-0.1-0.2-0.1-0.3-0.6c0,0,0,0,0,0
			c0,0,0,0,0,0c0,0,0,0,0,0c0,0,0,0,0,0c0,0,0,0-0.1,0c0,0,0,0,0,0c0,0,0,0,0,0c0,0,0,0,0,0c0,0,0,0,0,0c-0.1,0.1-0.1,0.1-0.2,0.1
			c0-0.1,0-0.1,0-0.2c0,0,0,0,0.1-0.1c0,0,0,0,0,0c0,0-0.1-0.1-0.1-0.1c-0.1-0.1-0.1-0.1-0.1-0.1c0,0,0,0,0,0c0,0,0,0,0,0
			c0,0,0,0,0,0c0,0,0,0,0,0c0,0,0,0,0,0c0,0,0,0,0,0c0,0,0,0,0,0c-0.1,0.1-0.1,0.1-0.2,0.2l0,0.1c0,0-0.1,0.1-0.1,0.1
			c0,0.1,0,0.1-0.4,0.4c-0.1,0.3-0.1,0.3-0.2,0.3c0,0,0,0,0,0l0,0l0,0c0,0,0-0.1,0-0.1c0,0,0,0,0,0l0,0c0,0,0-0.1,0-0.1
			c0,0,0.1-0.1,0.1-0.1c-0.1-0.2-0.3-0.4-0.3-0.4l-0.1,0c0-0.1,0-0.1,0.1-0.3C35.9,6,36.2,6,36.5,5.8c-0.1,0.1-0.1,0.1-0.2,0.2
			l0,0.1l0,0c0,0,0.1,0,0.1,0l0.1,0l0,0c0,0,0.1,0,0.1,0c0,0,0,0,0,0c0-0.1,0-0.1,0-0.2l0,0l0,0c0.2-0.1,0.2-0.1,0.3-0.2
			c0,0,0.1,0,0.1,0l0-0.1l0.1,0c0,0,0.1,0,0.1,0l0,0c0,0,0,0.1-0.1,0.1c0,0-0.1,0-0.1,0.1l0,0.1c0,0,0.1,0,0.1,0c0,0,0.1,0,0.1,0
			c0,0,0,0,0,0c0,0,0,0,0,0c0,0,0,0,0,0c0,0,0,0,0,0c0,0,0,0,0,0c0,0,0,0,0,0c0,0,0,0,0,0l0,0.1c-0.1,0-0.1,0.1-0.2,0.1c0,0,0,0,0,0
			c0,0,0,0,0,0c0,0,0,0,0,0c0,0,0,0,0,0c0,0,0,0,0,0c0,0,0,0,0,0c0,0,0,0,0,0c0,0,0,0,0,0c-0.1,0-0.1,0-0.2,0.1c0,0,0,0,0,0l0,0.1
			l0,0l0,0c0,0,0.1,0,0.1,0c0,0,0,0,0,0l0,0c0,0.1,0,0.1,0.1,0.2h0h0l0,0c0.1,0,0.1,0.1,0.2,0.1l0,0c0,0,0-0.1,0-0.1l0,0
			c0,0,0,0,0,0l0,0l0,0c0,0,0,0,0.1,0.1c0,0,0,0,0,0l0-0.1c0,0,0,0,0.1-0.1c0,0,0,0,0,0c0,0,0-0.1-0.1-0.1c0,0,0,0,0-0.1l0,0
			c0,0,0,0.1,0,0.1c0,0,0.1,0,0.1,0c0,0,0.1-0.1,0.2-0.1c0,0,0,0,0-0.1c-0.2-0.2-0.2-0.2-0.2-0.2l0,0c0,0,0-0.1,0-0.1
			c0,0,0,0-0.1-0.2l0,0c0,0,0,0,0,0h0c0,0,0-0.1,0-0.2c0,0,0,0,0,0c-0.1,0-0.1,0-0.1,0l0,0h0c-0.2,0-0.4-0.1-0.6,0.2
			c0,0,0,0.1,0,0.1c0,0,0,0-0.1,0.1c-0.1,0-0.1,0-0.2,0.1l0,0c0,0,0.1-0.1,0.1-0.1c0,0,0,0,0,0h0h0l0,0c0,0-0.1,0-0.1,0l0,0
			c0,0,0.1,0,0.1,0c0,0,0,0,0,0c0.1-0.2,0.1-0.2,0.2-0.2c0.1,0,0.2,0,0.3-0.1l0,0c-0.1,0-0.2,0.1-0.3,0.1c0,0-0.1,0-0.1,0.1
			c0,0-0.1,0.1-0.1,0.1l0,0c0,0-0.1,0-0.1,0l-0.1,0.1c0,0-0.1,0-0.1,0h0l0,0c0,0,0,0,0,0l0,0c-0.1,0-0.1,0-0.1,0l0,0
			c0,0,0-0.1,0-0.1c0,0,0,0,0,0l0,0c0.1,0,0.1,0,0.2-0.1c0-0.1,0-0.1,0.2-0.2c0,0,0.1,0,0.1,0c0,0,0,0,0,0l0,0c0,0-0.1,0-0.1,0
			c0,0,0,0,0,0c0,0,0,0,0,0c0,0,0,0,0,0c0,0,0,0,0,0c0,0,0,0,0,0c0,0,0,0,0,0c0,0,0,0,0,0c0,0,0,0,0,0l0,0c0,0,0.1-0.1,0.1-0.1
			c0,0,0-0.1,0-0.1c0,0,0.1,0,0.1-0.1l0,0l0,0c0,0,0,0,0,0c0,0,0.1,0,0.1,0c0,0,0,0,0,0c0,0,0,0,0.1,0c0,0-0.1,0-0.1,0c0,0,0,0,0,0
			c0,0,0.2,0,0.3,0c0,0,0,0,0,0c0,0,0,0,0,0c0,0,0,0,0,0c0,0,0,0,0,0l0,0h0h0v0h0h0c0,0,0,0,0,0c0,0,0,0,0,0c0,0,0,0-0.1,0
			c0,0,0,0,0,0c0,0,0,0,0,0c0,0,0,0,0,0c0,0,0,0,0,0c0,0,0.1,0,0.1,0c0,0,0,0,0,0c0,0,0.1,0,0.1,0c0,0,0,0,0,0c0,0,0,0,0,0
			c0,0,0,0,0,0c0,0,0,0,0.1,0c0,0,0,0,0,0c0,0,0,0,0,0c0.1,0,0.1,0,0.2,0c0,0,0.1,0,0.2,0l0,0c0,0,0,0,0,0c0.1,0,0.1,0,0.2,0
			c0,0,0,0,0,0c0,0,0,0,0,0c0,0,0.1,0,0.1,0c0,0,0,0,0,0c0,0,0,0,0,0c0,0,0.1,0,0.1,0c0,0,0,0,0,0c0,0,0.1,0,0.1,0c0,0,0,0,0,0
			c0,0,0,0,0,0l0,0c0,0,0.1,0,0.1,0c0,0,0,0,0,0c0,0,0,0,0,0c0,0,0.1,0,0.1,0c0,0,0,0,0.1,0c0,0,0,0,0,0c0,0,0,0,0,0c0,0,0,0,0.1,0
			h0c0,0,0,0,0,0c0,0,0,0,0,0h0h0c0,0,0,0,0,0c0,0,0,0,0,0c0,0,0,0,0,0c0,0,0,0,0,0h0c0,0,0,0,0,0h0h0c0,0,0.1,0,0.1,0c0,0,0,0,0,0
			c0,0,0.1,0,0.1,0c0,0,0,0,0,0c0,0,0,0,0,0c0,0,0.1,0,0.1,0c0,0,0,0,0,0c0.1,0,0.1,0,0.2,0c0,0,0,0,0,0c0,0,0,0,0,0c0,0,0,0,0,0
			c0,0,0,0,0,0c0,0,0,0,0,0c0,0,0,0,0,0l0,0c0,0,0,0,0,0l0,0c0,0,0,0,0,0c0,0,0,0,0,0c0,0,0,0,0,0c0,0,0,0,0.1,0c0,0,0,0,0,0
			c0,0,0,0,0,0c0.1,0,0.1,0,0.2,0l0,0c0,0,0.1,0,0.2,0c0,0,0.1,0,0.1,0c0,0,0,0,0,0c0.1,0,0.2,0,0.2,0c0,0,0,0,0,0h0
			c0.4,0.1,0.6,0.2,0.9,0.3C41.9,5,42,5,42.2,5.1c0,0,0,0,0,0h0l0,0h0v0l0,0c0,0,0,0,0,0c0,0,0,0,0,0l0,0c0,0,0,0,0,0
			c0,0,0.1,0,0.1,0c0,0,0,0,0,0c0,0,0.1,0,0.1,0.1c0,0,0,0,0,0c0,0,0,0,0,0c-0.2-0.1-0.4-0.1-0.6-0.1c0,0-0.1,0-0.1,0c0,0,0,0,0,0
			l0,0c0,0,0,0,0,0c0,0,0,0,0,0l0,0h0l0,0l0,0c0,0,0,0,0,0h0l0,0h0l0,0h0l0,0h0h0c0,0,0,0,0,0l0,0c0,0,0,0,0,0c0,0,0,0,0,0
			c0,0,0,0.1,0,0.1c0,0,0,0,0,0l0,0c0,0,0,0,0,0c0,0,0,0,0,0v0l0,0l0,0c0,0,0,0,0,0c0,0,0,0,0,0c0,0.1,0,0.1,0,0.2c0,0,0,0,0,0h0h0
			h0l0,0c0,0,0,0,0,0l0.1,0c0,0,0,0,0,0l0,0c0,0,0,0,0,0.1c0,0.1,0.1,0.2,0.2,0.3c0,0,0,0,0,0c0,0,0,0,0,0c0,0,0,0,0,0
			c0,0.1,0,0.1,0,0.2c0,0,0.2,0.4,0.4,0.3c0,0,0.1,0,0.1,0c0,0,0-0.1,0-0.1c0,0,0,0,0,0c0.1,0,0.3,0.1,0.3,0.2c0,0,0,0,0,0
			c0,0,0,0,0,0c0,0,0,0,0,0c0,0-0.1,0-0.1,0c0,0,0,0-0.1,0c0,0,0,0,0,0c0,0,0,0,0-0.1c0,0,0,0,0,0c0,0,0,0,0,0c0,0,0,0,0,0
			c-0.1,0.2,0.2,0.3,0.3,0.4C42.7,7,42.7,7,42.7,7.4c0,0,0,0,0,0.1c0,0-0.1,0-0.1,0c0,0,0,0,0,0h0l0,0c0,0,0,0,0,0
			c0.1,0.1,0.1,0.1,0.1,0.1l0,0c0,0,0,0,0,0c-0.1,0-0.1,0-0.2,0c0,0,0,0-0.1,0c0,0,0,0,0,0c0.1,0.1,0.3,0.2,0.4,0.3
			c0.1,0.1,0.1,0.1,0.1,0.2l0,0c0,0,0,0,0,0c0,0,0,0.1,0,0.1c0,0,0,0-0.1,0c0,0-0.1,0-0.1,0c-0.2,0-0.2,0-0.3,0c0,0-0.1,0.1-0.1,0.1
			c0,0,0,0,0,0c0.1,0.2,0.1,0.6,0.3,0.8l0,0l0,0l0.1,0c0.1,0,0.1,0,0.2,0.1l0.1,0c0.1,0,0.1,0,0.2-0.1c0,0,0,0,0,0
			c0.1,0,0.2-0.1,0.2-0.1c0,0,0,0,0,0c0.2-0.3,0.1-0.7,0-0.8c0,0,0,0,0,0c0,0,0,0,0,0c0,0,0,0,0,0c0,0,0.1,0,0.1,0c0,0,0,0,0,0l0,0
			h0l0,0h0h0h0l0,0c0,0,0,0,0,0c0,0,0,0,0,0c0-0.1,0-0.1,0-0.1c0,0,0.1,0,0.1,0c0,0,0.1,0,0.1,0l0,0h0h0c0,0,0,0,0,0l0,0h0
			c0,0,0,0,0,0l0,0c0,0,0,0,0,0c0.1,0.1,0.6,0.4,0.8,0.5c0,0,0,0.1-0.1,0.2c0,0,0,0,0,0.1c0.1,0,0.2,0.1,0.3,0.1c0,0,0-0.1,0-0.2
			c0-0.1,0-0.2,0-0.2c0,0,0,0,0-0.1c0,0,0,0,0-0.1c0,0,0,0,0,0c0,0,0,0,0,0c0,0,0,0,0,0c0,0,0,0,0,0c0,0,0,0,0,0c0,0,0,0,0,0
			C44.5,8.2,44.3,8,44.1,8l0,0c0,0,0,0,0,0c0,0,0,0-0.1,0c-0.1,0-0.1,0-0.1-0.2c0,0,0,0,0,0c0,0,0.1,0,0.1,0
			c0.1,0.1,0.3,0.1,0.4,0.2c0,0,0-0.1,0-0.1c0,0,0.1,0,0.1,0c0.1,0.1,0.1,0.1,0.4,0.4c0,0,0.1,0.2,0.3,0.2c-0.1-0.2-0.1-0.2-0.3-0.4
			c0,0,0,0,0,0c0,0,0,0,0,0l0,0h0l0,0h0h0h0l0,0h0h0l0,0c0,0,0,0,0,0h0l0,0h0c0,0,0,0,0,0c0,0,0,0,0,0l0,0l0,0c0,0,0,0,0,0
			c0.1,0,0.1,0,0.3,0.2l0,0c0,0,0.1,0,0.1,0.1c0,0,0,0.1,0.1,0.1l0,0c0,0,0,0,0.1,0c0,0,0,0,0,0c0,0,0,0,0,0c0,0,0,0,0,0
			c0,0,0,0,0,0c0,0,0,0,0.1,0c0,0,0,0,0,0c0,0,0,0,0,0c0,0,0,0,0,0c0,0,0,0,0,0c0,0,0,0,0,0c0,0,0,0,0,0c0,0,0,0,0,0l0,0l0,0h0l0,0
			l0,0l0,0l0,0c0,0,0,0,0,0c0-0.1,0-0.1,0-0.1c0.2,0.2,0.2,0.3,0.3,0.5c0,0,0,0.1,0.1,0.1c0,0,0,0,0,0c0,0-0.1,0.1-0.1,0.1l0,0l0,0
			v0h0c0,0,0,0,0,0.1c0,0,0,0-0.1,0c-0.2,0-0.3-0.1-0.5,0l0,0c0,0.1,0,0.1,0.1,0.3c0,0,0,0,0,0l0,0l-0.1,0c-0.2,0-0.3-0.2-0.5-0.1
			l0,0c-0.1,0-0.1,0-0.3-0.1c0,0,0,0,0,0c0-0.1,0-0.1-0.1-0.3c0,0,0,0,0,0c0,0,0,0,0,0c0,0,0,0,0,0c0,0,0,0,0,0c0,0,0,0-0.1,0
			c0,0,0,0-0.1,0l0,0h0l0,0l0,0c0,0,0,0,0,0l0,0c0,0,0,0,0,0h0c0,0,0,0,0,0c0,0,0,0,0,0c0,0,0,0,0,0c-0.1,0-0.1,0.1-0.2,0.1
			c0,0,0,0,0,0c0,0-0.1,0-0.1,0l0,0c0,0,0,0,0,0h0l0,0l0,0h0h0h0h0l0,0c0,0,0,0,0,0l0,0c0,0,0,0,0,0c0,0,0,0,0,0c0,0-0.1,0-0.1,0.1
			C43.4,9.2,43,9.4,43,9.4c-0.2,0.2-0.1,0.5-0.2,0.8c0,0,0,0,0,0c0,0,0,0.1,0,0.1c0,0,0,0,0,0c0,0,0,0,0,0.1c0,0,0,0-0.1,0.1
			c0,0,0,0-0.1,0.1c0,0-0.1,0.1-0.1,0.1c0,0-0.4,0.8-0.2,1.1c0.1,0.3,0,0.6,0,0.8c0.1,0.1,0.1,0.1,0.1,0.3c0,0,0.1,0.1,0.1,0.1
			c0,0,0,0,0.1,0c0.6,1,1,0.9,1.1,0.9c0,0,0.1,0,0.1,0c0.3-0.1,0.3-0.1,0.3-0.1c0,0,0.1,0,0.2,0c0,0,0.1,0,0.1,0c0,0,0.1,0,0.1-0.1
			c0.1-0.1,0.1-0.1,0.2-0.2c0.1-0.1,0.1-0.1,0.3-0.1c0.1,0,0.2,0,0.2,0.1c0.1,0.1,0.1,0.1,0.2,0.1c0,0,0.1,0,0.1,0c0,0,0,0,0.1,0
			c0,0,0.1,0,0.1,0c0,0,0,0,0,0c0,0,0,0,0,0.1c0,0,0.1,0,0.1,0c0.1,0.2-0.1,0.5,0,0.7c0.3,1.1,0.3,1.1,0.3,1.3l-0.5,1.8
			c-0.1,0.2-0.3,0.8-0.3,0.9C45,18.4,44.9,18.5,44.7,18.7C44.8,18.6,44.7,18.6,44.7,18.7z"/>
		<path class="st0" d="M39.4,20.6C39.4,20.6,39.4,20.6,39.4,20.6C39.4,20.6,39.4,20.6,39.4,20.6C39.4,20.6,39.3,20.6,39.4,20.6
			C39.3,20.6,39.3,20.6,39.4,20.6C39.3,20.6,39.3,20.6,39.4,20.6C39.3,20.6,39.3,20.6,39.4,20.6L39.4,20.6c-0.1,0-0.1,0-0.1,0
			C39.3,20.6,39.3,20.7,39.4,20.6C39.3,20.7,39.3,20.7,39.4,20.6C39.3,20.7,39.3,20.7,39.4,20.6L39.4,20.6L39.4,20.6L39.4,20.6
			L39.4,20.6L39.4,20.6L39.4,20.6L39.4,20.6C39.4,20.7,39.4,20.7,39.4,20.6C39.4,20.7,39.4,20.7,39.4,20.6
			C39.4,20.7,39.4,20.7,39.4,20.6C39.4,20.7,39.4,20.7,39.4,20.6C39.4,20.7,39.4,20.7,39.4,20.6C39.4,20.7,39.4,20.7,39.4,20.6
			C39.4,20.6,39.4,20.6,39.4,20.6z"/>
		<path class="st0" d="M37.3,4.8C37.3,4.8,37.3,4.8,37.3,4.8L37.3,4.8C37.3,4.8,37.3,4.8,37.3,4.8C37.3,4.8,37.3,4.8,37.3,4.8
			C37.3,4.8,37.3,4.8,37.3,4.8C37.3,4.8,37.3,4.8,37.3,4.8C37.3,4.8,37.4,4.8,37.3,4.8C37.4,4.8,37.4,4.8,37.3,4.8L37.3,4.8
			L37.3,4.8C37.4,4.8,37.4,4.8,37.3,4.8C37.4,4.8,37.4,4.8,37.3,4.8z"/>
		<path class="st0" d="M40.8,4.8C40.8,4.8,40.8,4.8,40.8,4.8c-0.1,0-0.2,0-0.2,0c0,0,0,0,0,0c0,0,0,0,0,0c0,0,0,0,0,0c0,0,0,0,0,0
			c0,0,0,0,0,0c0,0,0,0,0,0c0,0,0,0,0,0c0,0,0,0,0,0s0,0,0,0h0h0h0l0,0h0h0l0,0c0,0,0,0,0,0l0,0c0,0,0,0,0,0c0,0,0,0,0,0l0,0l0,0
			c0,0,0,0,0,0h0c0,0,0,0,0,0c0,0,0,0,0,0c0,0,0,0,0,0c0,0,0,0,0,0c0,0,0,0,0,0.1c0,0,0,0,0,0c0,0,0,0,0,0c0,0,0,0,0,0c0,0,0,0,0,0
			c0,0,0,0,0,0c0,0,0,0,0,0c0,0,0,0,0,0l0,0h0l0,0h0h0h0l0,0l0,0c0,0,0,0,0,0l0,0c0,0,0,0,0,0l0,0c0,0,0,0,0,0c0,0,0,0,0,0l0,0
			c0,0,0,0,0,0c0,0,0,0,0.1,0c0,0,0,0,0.1,0c0,0,0,0,0,0c0,0,0,0,0,0c0,0,0,0,0,0c0,0,0,0,0,0c0,0,0,0,0,0l0,0c0,0,0,0,0,0l0,0
			c0,0,0,0,0,0c0,0,0,0,0.1,0c0,0,0,0,0.1,0c0,0,0,0,0,0c0,0,0.1,0,0.1,0c0,0,0.1,0,0.1,0c0,0,0,0,0,0l0,0c0,0,0,0,0,0l0,0
			c0,0,0,0,0,0C40.8,4.9,40.8,4.9,40.8,4.8C40.7,4.9,40.7,4.9,40.8,4.8C40.7,4.9,40.7,4.9,40.8,4.8C40.7,4.9,40.7,4.9,40.8,4.8
			C40.7,4.9,40.7,4.9,40.8,4.8C40.7,4.9,40.7,4.9,40.8,4.8c-0.1,0.1-0.1,0-0.1,0c0,0,0,0,0,0c0,0,0,0,0,0c0,0,0,0,0,0c0,0,0,0,0,0
			c0,0,0,0,0,0c0,0,0,0,0,0l0,0c0,0,0,0,0,0c0,0,0,0,0,0c0,0,0,0,0,0c0,0,0,0,0,0C40.6,4.8,40.6,4.8,40.8,4.8
			C40.7,4.9,40.7,4.9,40.8,4.8C40.7,4.9,40.7,4.9,40.8,4.8C40.8,4.9,40.8,4.9,40.8,4.8C40.8,4.9,40.8,4.9,40.8,4.8L40.8,4.8
			L40.8,4.8L40.8,4.8L40.8,4.8L40.8,4.8L40.8,4.8L40.8,4.8C40.8,4.9,40.8,4.9,40.8,4.8C40.8,4.9,40.8,4.9,40.8,4.8
			C40.8,4.8,40.8,4.8,40.8,4.8z"/>
		<path class="st0" d="M43.6,8.7C43.6,8.7,43.6,8.7,43.6,8.7C43.6,8.7,43.6,8.7,43.6,8.7L43.6,8.7C43.6,8.7,43.6,8.7,43.6,8.7
			C43.6,8.6,43.6,8.6,43.6,8.7C43.6,8.6,43.6,8.6,43.6,8.7C43.6,8.7,43.6,8.7,43.6,8.7C43.6,8.7,43.6,8.7,43.6,8.7z"/>
		<path class="st0" d="M41.6,6.7C41.6,6.7,41.6,6.7,41.6,6.7C41.6,6.7,41.6,6.7,41.6,6.7C41.6,6.7,41.6,6.7,41.6,6.7
			c0,0.1,0,0.1,0,0.1C41.6,6.8,41.6,6.7,41.6,6.7L41.6,6.7C41.6,6.7,41.6,6.7,41.6,6.7z"/>
		<path class="st0" d="M42.4,10.5C42.4,10.4,42.4,10.4,42.4,10.5c0-0.1,0-0.1,0-0.1C42.4,10.4,42.4,10.4,42.4,10.5
			C42.4,10.5,42.4,10.5,42.4,10.5C42.4,10.5,42.4,10.5,42.4,10.5z"/>
		<path class="st0" d="M40.2,10.4L40.2,10.4C40.2,10.4,40.2,10.4,40.2,10.4C40.1,10.4,40.1,10.4,40.2,10.4
			C40.2,10.4,40.2,10.4,40.2,10.4C40.2,10.4,40.2,10.4,40.2,10.4C40.2,10.4,40.2,10.4,40.2,10.4z"/>
		<path class="st0" d="M40.5,10.4C40.5,10.4,40.5,10.4,40.5,10.4c0.1,0,0.1,0,0.2,0c0,0,0,0,0,0C40.6,10.4,40.5,10.4,40.5,10.4z"/>
		<path class="st0" d="M40,5.5C40,5.5,40,5.6,40,5.5C40,5.5,40,5.5,40,5.5c0-0.1,0-0.2,0-0.3c0,0,0,0,0,0l0,0c0,0,0,0,0,0v0h0
			c0,0,0,0,0,0c0,0,0,0,0,0c0,0,0,0,0,0c0,0,0,0,0,0c0,0,0,0,0,0c0,0,0,0,0,0c0,0,0,0,0,0c0,0,0,0-0.1,0c0,0,0,0,0,0l0,0
			c0,0,0,0,0,0c0,0,0,0,0.1,0c0,0,0,0,0,0h0l0,0c0,0,0,0,0,0c0-0.1-0.1-0.1-0.1-0.1c0,0,0,0,0,0c0,0,0,0,0,0c0,0,0,0,0,0h0
			c0-0.1,0-0.1,0-0.1c0,0,0,0,0,0c0,0,0,0,0,0c0,0,0,0,0,0c0,0,0,0,0,0c0,0,0,0,0,0l0,0c0,0-0.1,0-0.1,0c0,0,0,0,0,0h0h0h0h0h0h0h0
			h0l0,0c0,0,0,0,0,0c0,0,0,0,0,0c0,0,0,0,0,0c0,0,0,0,0,0c0,0,0,0,0,0c0,0,0,0,0,0c0,0,0,0,0,0c0,0,0,0,0,0c0,0,0,0,0,0
			c0,0,0,0,0,0c0,0,0,0,0,0l0,0c0,0,0,0,0,0c0,0,0,0,0,0c0,0,0,0,0,0l0,0h0h0h0h0h0h0l0,0h0c0,0,0,0,0,0c0,0,0,0-0.1,0c0,0,0,0,0,0
			c0,0,0,0,0,0c0,0,0,0,0,0c0,0,0,0,0,0c0,0,0,0,0,0h0c0,0,0,0,0,0h0h0h0h0h0h0h0h0h0h0h0h0h0l0,0h0c0,0,0,0,0,0c0,0-0.1,0-0.1,0
			c-0.2,0-0.2,0-0.2,0h0c0,0,0,0,0,0c0,0,0,0,0,0c0,0,0,0,0,0c0,0,0,0,0,0c0,0,0,0,0,0c0,0,0,0,0,0l0,0h0h0h0h0h0h0h0h0h0l0,0
			c0,0,0,0,0,0c0,0,0,0,0,0c-0.1,0-0.1,0-0.2,0c0,0,0,0,0,0c0,0,0,0,0,0c0,0,0,0,0,0h0c0,0,0,0,0,0c0,0,0,0,0,0c0,0,0,0,0,0
			c0,0,0,0,0.1,0c0,0,0,0,0,0c0,0,0,0,0,0c0,0,0,0,0,0c0,0,0,0,0,0c0,0,0,0,0,0c0,0,0,0,0,0c0,0,0,0-0.1,0l0,0c0,0,0,0-0.1,0
			c0,0,0,0,0,0l0,0c0,0,0,0,0,0l0,0c0,0,0,0,0,0c0,0,0,0-0.1,0c0,0,0,0,0,0l0,0l0,0c-0.1,0-0.1,0-0.1,0c0,0,0,0,0,0l0,0h0h0h0h0h0h0
			h0l0,0h0l0,0c-0.1,0-0.1,0-0.1,0c0,0,0,0-0.1,0c0,0,0,0,0,0c0,0,0,0,0,0c-0.2,0.1-0.2,0.1-0.3,0.1c0,0-0.1,0.1-0.1,0.1
			c0,0,0,0,0,0c0,0,0,0,0.1,0c0,0,0,0,0,0c0,0,0,0,0,0c0,0,0,0,0,0c0,0,0,0,0,0c0,0,0,0,0,0l0,0l0,0c0,0,0,0,0,0c0,0,0,0,0,0
			c0,0,0,0-0.1,0c0,0,0,0,0.1,0c0,0,0,0,0,0c0,0-0.1,0-0.1,0c-0.1,0-0.1,0-0.1,0c0,0,0,0,0,0l0,0l0,0c0,0,0,0,0,0c0,0,0,0,0,0
			c0,0,0,0,0,0c0,0,0,0,0,0c0,0,0,0,0,0c0,0,0,0,0.1,0c0.1-0.1,0.1-0.1,0.1-0.1l0,0c0,0,0,0-0.1,0c0,0,0,0-0.1,0.1c0,0,0,0,0,0
			c0,0,0,0,0,0c0,0,0,0,0,0c0,0,0,0,0,0c0,0,0,0,0,0c0,0,0,0-0.1,0c0,0,0,0-0.1,0.1c0,0,0,0,0,0l0,0c0,0,0,0,0,0
			c-0.1,0-0.1,0.1-0.1,0.1c0,0,0,0,0,0c0,0,0.1,0,0.1,0c0,0,0.1-0.1,0.1-0.1c0,0,0,0,0,0c0,0,0,0,0,0c-0.1,0.1-0.1,0.1-0.1,0.1
			c0,0,0,0,0.3,0.1c0,0,0.2,0,0.2-0.1h0h0h0h0h0c0,0,0,0-0.1,0c0,0,0,0,0,0c0,0,0,0,0,0c0,0,0,0,0,0c0,0,0,0,0,0c0,0,0,0,0,0
			c0,0,0,0,0,0c0,0,0,0,0,0c0,0,0,0,0,0c0,0,0,0,0,0l0,0c0,0,0,0,0,0c0,0,0,0,0,0c0,0,0,0,0,0c0,0,0,0,0,0l0,0c0,0,0,0,0,0
			c0,0,0,0,0,0c0,0,0,0,0,0c0,0,0,0,0,0c0,0,0,0,0,0c0,0,0,0,0,0c0,0,0,0,0,0c0,0,0,0,0,0c0,0,0,0,0,0l0,0c0,0,0,0,0,0c0,0,0,0,0,0
			c0,0,0,0,0,0h0c0,0,0,0,0,0c0,0,0,0,0,0c0,0,0,0,0,0c0,0,0,0,0,0c0,0,0,0,0,0c0,0,0,0,0,0c0,0,0,0,0,0c0,0,0,0,0,0c0,0,0,0,0,0
			c0,0,0,0,0,0c0,0,0,0,0,0l0,0h0c0,0,0,0,0,0h0l0,0c0,0,0,0,0,0c0,0,0,0,0,0h0c0,0,0,0,0,0c0,0,0,0,0,0c0,0,0,0,0,0c0,0,0,0,0,0
			c0,0,0,0,0,0c0,0,0,0,0,0c0,0,0,0,0,0c0,0,0,0,0,0c0,0,0,0,0,0c0.6-0.2,0.6-0.2,0.7-0.2c0,0,0,0,0,0c0,0,0,0,0,0c0,0,0,0,0,0
			c0,0,0,0,0,0c0,0,0,0,0,0c0,0,0,0,0,0c0,0,0,0,0,0c0,0,0,0,0,0c0,0,0,0,0,0c0,0,0,0,0,0c0,0,0,0,0,0C38.1,5,38.1,5,38.1,5
			c0,0,0,0,0,0c0,0,0,0,0,0c0,0,0,0,0,0.1c0,0,0,0,0,0c0,0,0.1,0,0.1,0c0,0,0,0,0,0h0c0.2,0,0.2,0,0.2,0.1c0,0.1,0,0.2,0,0.3
			c0,0,0,0,0,0c0,0,0,0,0,0c0,0,0,0,0,0c0,0,0,0,0,0.1c0,0.1,0,0.1,0,0.1c0,0,0,0,0,0c0,0,0,0,0.1,0c0,0,0,0,0,0c0,0,0,0,0,0
			c0,0,0,0,0,0l0,0v0l0,0l0,0h0c0,0,0,0,0,0v0c0,0,0,0-0.1,0.1C38.3,5.8,38.3,6,38.3,6c0,0.1,0.2,0.5,0.3,0.5l0,0c0,0,0,0,0,0
			c0,0,0,0,0,0c0.1,0,0.1,0.1,0.2,0.1c0,0,0,0,0.1-0.1c0,0,0,0,0,0l0-0.1c0,0,0,0,0,0c0,0,0,0,0,0c0,0,0,0,0,0l0.2-0.4
			c0.1,0,0.2,0,0.3-0.1c0.2-0.2,0.2-0.2,0.2-0.2c0,0,0,0,0,0C39.8,5.9,40.1,5.7,40,5.5C40,5.6,40,5.6,40,5.5z"/>
		<path class="st0" d="M42.5,7.4c0.1,0,0.1-0.1,0.1-0.1c0,0,0,0,0,0c0,0,0,0,0,0c0,0,0,0,0,0c0,0,0,0,0,0c0,0,0,0,0-0.1c0,0,0,0,0,0
			l0,0c0,0,0,0-0.1-0.1c0,0,0,0,0,0c0,0,0,0-0.2-0.1c-0.1,0-0.1-0.1-0.3-0.2c0,0,0,0,0,0c0,0,0,0,0,0c0-0.1,0-0.1,0-0.1c0,0,0,0,0,0
			c0,0,0,0-0.1,0c0,0,0,0,0,0c0,0,0,0,0,0c0,0,0,0,0,0c0,0,0,0,0,0c0,0,0,0,0,0c0,0,0,0,0,0c0,0,0,0,0,0c0,0,0,0,0,0c0,0,0,0,0,0
			c0,0,0,0,0,0c0,0,0,0,0,0c0,0,0,0,0,0c0,0,0,0,0,0c0,0,0,0,0,0c0,0,0,0.1-0.1,0.1h0h0h0h0l0,0h0h0h0h0h0l0,0h0h0h0h0c0,0,0,0,0,0
			c0,0,0,0,0,0c0,0,0,0,0,0c0,0,0,0,0,0c0,0,0,0,0,0c0,0,0,0,0,0c0,0,0,0,0,0c0,0,0,0,0,0c0,0,0,0,0,0c0,0,0,0,0,0l0,0c0,0,0,0,0,0
			c0,0,0,0,0,0c0,0,0,0,0,0c0,0,0,0,0,0l0,0h0c0,0,0,0,0,0c0,0.1,0.1,0.1,0.1,0.1c0,0,0,0,0,0c0,0,0,0,0.1,0c0,0-0.1,0-0.1,0
			c0,0,0,0,0,0c0,0,0,0,0,0c0,0,0,0,0,0.1c0,0-0.1,0-0.1,0c0,0,0.1,0.1,0.1,0.1c0,0,0,0,0.1,0.1c0,0,0,0.1,0,0.1
			c0.1,0.1,0.1,0.1,0.1,0.1c0,0,0,0,0,0c0,0,0,0,0,0c0,0,0.1-0.1,0.1-0.1c0,0,0,0,0,0c0,0,0,0,0,0l0,0l0,0c0,0,0,0,0-0.1
			c0,0,0-0.1-0.1-0.1c0,0,0,0,0,0c0,0,0,0,0,0c0,0,0,0,0,0c0,0,0,0,0,0c0,0,0,0,0,0l0,0l0,0c0,0,0,0,0,0c0,0,0,0,0,0c0,0,0,0,0,0
			c0,0,0,0,0,0c0,0,0,0,0,0c0,0,0,0,0,0c0.1,0,0.1,0,0.1,0c0,0,0,0,0,0.1c0,0,0,0,0,0c0,0,0,0,0,0l0,0c0,0,0,0,0,0h0c0,0,0,0,0,0
			l0,0c0,0,0,0,0,0c0,0,0,0,0,0c0,0,0,0,0,0c0,0,0,0,0,0c0,0,0,0,0,0c0,0,0,0,0,0c0,0,0,0,0,0c0,0,0,0,0,0c0,0,0,0,0,0
			c0,0,0,0,0,0.1c0,0,0,0,0,0c0,0,0.1,0,0.1,0.1c0,0,0,0,0,0c0,0,0,0,0,0c0,0,0,0,0,0c0,0,0,0,0,0c0,0,0,0,0,0c0,0,0,0,0,0
			c0,0,0,0,0,0c0,0,0,0,0,0c0,0,0,0,0,0c0,0,0,0,0,0C42.3,7.5,42.4,7.5,42.5,7.4z"/>
		<path class="st0" d="M40.6,5.9C40.5,6,40.5,6,40.6,5.9L40.6,5.9c-0.1,0-0.1,0-0.2,0.1l0,0h0h0h0h0l0,0h0h0c0,0,0,0,0,0
			c0,0,0,0,0,0c0,0,0,0,0,0h0l0,0h0h0l0,0h0h0h0h0h0l0,0l0,0c0,0,0,0,0,0c0,0,0,0,0,0c0,0,0,0,0,0c0,0,0,0,0,0l0,0c0,0,0,0,0,0
			c0,0,0,0,0,0c0,0-0.1-0.1-0.1-0.1c0,0,0,0,0,0c0,0,0,0,0,0c0,0,0,0,0,0c0,0,0,0,0,0c0,0,0,0,0,0c0,0,0,0,0,0c0,0,0,0.1,0,0.1
			c0,0,0.1,0,0.1,0c0,0,0,0,0,0c0,0,0.1,0,0.1,0c0,0,0,0,0,0c0.1,0,0.2,0,0.2,0c0,0,0,0,0,0c0.1,0,0.2-0.1,0.2-0.2c0,0,0,0,0,0
			C40.7,6,40.6,6,40.6,5.9z"/>
		<path class="st0" d="M37.2,4.9C37.2,4.9,37.1,4.9,37.2,4.9C37.1,4.9,37.1,4.9,37.2,4.9C37.2,4.8,37.2,4.8,37.2,4.9L37.2,4.9
			C37.2,4.8,37.2,4.8,37.2,4.9C37.1,4.8,37.1,4.8,37.2,4.9C37.1,4.8,37.1,4.8,37.2,4.9C37.1,4.8,37.1,4.8,37.2,4.9
			C37.1,4.8,37.1,4.8,37.2,4.9C37.1,4.8,37.1,4.8,37.2,4.9c-0.1,0-0.1,0-0.1,0c0,0,0,0,0,0c0,0,0,0,0,0C37.1,4.8,37.1,4.8,37.2,4.9
			c0-0.1,0-0.1,0-0.1c0,0,0,0,0,0c0,0-0.1,0-0.3,0.1c0,0,0,0,0,0c0,0,0,0,0,0c0,0,0,0-0.1,0c0,0,0,0,0,0c0,0,0,0,0.1,0
			c0,0,0.1,0,0.1,0c0,0,0,0,0,0C37,4.9,37.1,4.9,37.2,4.9C37.1,4.9,37.2,4.9,37.2,4.9C37.2,4.9,37.2,4.9,37.2,4.9z"/>
		<path class="st0" d="M37.8,7.8c-0.1,0-0.1-0.1-0.1-0.1c0,0,0-0.1,0.1-0.1c-0.1,0-0.2,0.1-0.3,0.2c-0.1,0.1-0.1,0.1-0.1,0.1
			c0,0,0,0.1,0,0.1c0.1,0,0.1,0,0.1,0c0,0,0.1,0,0.1,0c0,0,0,0,0,0c0,0,0,0,0.1,0.1c0,0,0.1,0,0.1,0c0,0.1,0.1,0.1,0.1,0.1
			c0,0,0,0,0,0c0,0,0,0,0-0.1C38,8,38,8,37.8,7.8C37.8,7.8,37.8,7.8,37.8,7.8z"/>
		<path class="st0" d="M34.7,11.5c-0.2-0.2-0.3-0.3-0.4-0.4c0,0,0,0-0.1-0.1c-0.1,0-0.1-0.1-0.2-0.1c0,0-0.1,0-0.1,0c0,0,0,0,0,0
			c-0.1,0-0.2,0.1-0.3,0.2c0.1,0,0.2,0,0.3,0c0.1,0.1,0.1,0.1,0.2,0.2c0,0,0.1,0,0.1,0c0,0,0,0,0.1,0.3c0,0,0.1,0,0.1,0
			C34.6,11.5,34.6,11.5,34.7,11.5C34.7,11.5,34.7,11.5,34.7,11.5z"/>
		<path class="st0" d="M37.1,5.1L37.1,5.1c0,0-0.1,0-0.2,0c0,0,0,0,0,0c0,0,0,0-0.1,0c0,0,0,0-0.1,0.1c0,0,0,0,0,0c0,0,0.1,0,0.2,0
			C36.9,5.2,37.1,5.1,37.1,5.1L37.1,5.1L37.1,5.1z"/>
		<path class="st0" d="M37.3,5C37.3,4.9,37.3,4.9,37.3,5C37.4,4.9,37.4,4.9,37.3,5C37.3,4.9,37.3,4.9,37.3,5c0-0.1,0-0.1,0-0.1l0,0
			C37.3,4.9,37.2,4.9,37.3,5c-0.1-0.1-0.1,0-0.1,0c0,0,0,0,0,0c0,0,0,0,0,0c0,0,0,0,0,0c0,0,0,0,0,0h0h0l0,0h0h0h0c0,0,0.1,0,0.1,0
			S37.2,5,37.3,5z"/>
		<path class="st0" d="M35.1,11.6L35.1,11.6C35.1,11.6,35.1,11.6,35.1,11.6C35.1,11.6,35.1,11.6,35.1,11.6c0,0,0,0-0.3,0
			c0,0.1,0,0.1-0.2,0.1c0.1,0.1,0.3,0.1,0.4,0.2c0,0,0,0,0,0c0,0,0.1-0.1,0.2-0.1l0,0c0,0,0.1,0,0.1,0c0,0,0,0,0-0.1
			C35.4,11.8,35.3,11.6,35.1,11.6z"/>
		<path class="st0" d="M37.5,4.8C37.4,4.8,37.4,4.8,37.5,4.8C37.4,4.8,37.4,4.8,37.5,4.8C37.4,4.8,37.4,4.8,37.5,4.8L37.5,4.8
			L37.5,4.8L37.5,4.8C37.4,4.8,37.4,4.8,37.5,4.8C37.4,4.8,37.4,4.8,37.5,4.8C37.4,4.8,37.5,4.8,37.5,4.8
			C37.5,4.8,37.5,4.8,37.5,4.8C37.5,4.8,37.5,4.8,37.5,4.8C37.5,4.8,37.5,4.8,37.5,4.8L37.5,4.8L37.5,4.8L37.5,4.8
			C37.5,4.8,37.5,4.8,37.5,4.8C37.5,4.8,37.5,4.8,37.5,4.8c0.1,0,0.1,0,0.2,0c0,0,0,0,0,0c0,0,0,0,0,0c0,0,0,0,0,0c0,0,0,0-0.1,0
			c0,0,0,0,0,0C37.6,4.7,37.6,4.7,37.5,4.8C37.5,4.8,37.5,4.8,37.5,4.8C37.5,4.8,37.5,4.8,37.5,4.8z"/>
		<path class="st0" d="M43.8,8.2C43.8,8.2,43.9,8.2,43.8,8.2C43.9,8.2,43.9,8.2,43.8,8.2C43.9,8.2,43.9,8.2,43.8,8.2
			C43.9,8.2,43.9,8.2,43.8,8.2C43.9,8.3,43.9,8.3,43.8,8.2C43.9,8.3,43.9,8.3,43.8,8.2c0.1,0.1,0.1,0.1,0.1,0.1c0,0,0,0,0,0
			c0,0,0,0,0,0.1c0,0,0,0,0,0c0,0,0,0,0,0c0,0,0.1,0.1,0.1,0.1c0,0,0,0,0,0c0,0,0,0,0,0l0,0l0,0h0c0,0,0,0,0,0c0,0,0,0,0,0l0,0
			c0,0,0,0,0,0c0,0,0,0,0,0c0,0,0,0,0,0c0,0,0,0,0,0c0,0,0,0,0,0l0,0l0,0c0,0,0,0,0,0c0,0,0,0,0,0c0,0,0,0,0,0c0,0,0,0,0,0
			c0,0,0,0,0,0c0,0,0,0,0,0c0,0,0,0,0,0c0,0,0-0.1-0.1-0.1c0,0,0,0,0,0C44,8.2,43.9,8.2,43.8,8.2C43.9,8.2,43.9,8.2,43.8,8.2
			C43.9,8.2,43.9,8.2,43.8,8.2C43.9,8.2,43.9,8.2,43.8,8.2C43.9,8.1,43.9,8.1,43.8,8.2C43.9,8.1,43.9,8.1,43.8,8.2
			C43.9,8.1,43.9,8.1,43.8,8.2C43.9,8.1,43.9,8.1,43.8,8.2C43.9,8.1,43.9,8.1,43.8,8.2C43.9,8.1,43.9,8.1,43.8,8.2
			C43.9,8.1,43.9,8.1,43.8,8.2C43.9,8.1,43.9,8.1,43.8,8.2C43.8,8.1,43.8,8.1,43.8,8.2C43.8,8.1,43.8,8.1,43.8,8.2
			C43.8,8.2,43.8,8.2,43.8,8.2C43.8,8.2,43.8,8.2,43.8,8.2C43.8,8.2,43.8,8.2,43.8,8.2C43.8,8.2,43.8,8.2,43.8,8.2z"/>
		<path class="st0" d="M37.3,4.8C37.3,4.8,37.3,4.8,37.3,4.8c0.1,0,0.2,0,0.2,0c0,0,0,0,0,0c0,0,0,0,0,0c0,0,0,0,0,0c0,0,0,0,0,0v0
			h0h0l0,0h0l0,0h0h0h0c0,0,0,0,0,0h0c0,0,0,0,0,0c0,0,0,0,0,0h0c0,0,0,0,0,0c0,0,0,0,0,0c0,0,0,0,0,0h0c0,0,0,0,0,0c0,0,0,0,0,0
			C37.4,4.7,37.4,4.7,37.3,4.8C37.3,4.7,37.3,4.7,37.3,4.8C37.3,4.7,37.3,4.7,37.3,4.8L37.3,4.8L37.3,4.8
			C37.3,4.7,37.3,4.7,37.3,4.8L37.3,4.8C37.3,4.7,37.3,4.7,37.3,4.8C37.3,4.7,37.3,4.8,37.3,4.8C37.2,4.8,37.2,4.8,37.3,4.8
			C37.2,4.8,37.2,4.8,37.3,4.8C37.2,4.8,37.2,4.8,37.3,4.8C37.2,4.8,37.2,4.8,37.3,4.8C37.2,4.8,37.2,4.8,37.3,4.8
			C37.3,4.8,37.3,4.8,37.3,4.8z"/>
		<path class="st0" d="M36.3,6.1C36.3,6.1,36.4,6.2,36.3,6.1L36.3,6.1c0,0,0.1,0,0.1,0c0,0,0,0,0,0c0,0,0,0,0,0
			C36.4,6.1,36.4,6.1,36.3,6.1z"/>
		<path class="st0" d="M45.5,8.6C45.5,8.6,45.5,8.6,45.5,8.6c0,0-0.1,0-0.1,0c0,0,0,0,0,0C45.4,8.7,45.4,8.7,45.5,8.6
			C45.5,8.7,45.5,8.7,45.5,8.6z"/>
		<path class="st0" d="M37.3,5.6C37.3,5.6,37.3,5.5,37.3,5.6c0,0-0.1,0-0.1,0c0,0,0,0,0,0.1C37.2,5.6,37.2,5.6,37.3,5.6
			C37.3,5.6,37.3,5.6,37.3,5.6z"/>
		<path class="st0" d="M36,6.8C36.1,6.8,36.1,6.8,36,6.8L36,6.8c0.1,0,0.1,0,0.1,0c0,0,0,0,0,0C36.2,6.8,36.1,6.7,36,6.8
			C36.1,6.7,36.1,6.8,36,6.8z"/>
		<path class="st0" d="M34.4,10.9C34.4,10.9,34.5,10.9,34.4,10.9c0-0.1,0-0.1,0-0.2C34.4,10.8,34.4,10.8,34.4,10.9z"/>
		<path class="st0" d="M34.6,10.6C34.6,10.6,34.6,10.6,34.6,10.6c0-0.1,0-0.1,0-0.1c0,0-0.1,0-0.1,0.1
			C34.5,10.5,34.5,10.5,34.6,10.6C34.6,10.5,34.6,10.5,34.6,10.6z"/>
		<path class="st0" d="M36.5,6.2L36.5,6.2C36.5,6.2,36.5,6.2,36.5,6.2C36.5,6.2,36.5,6.2,36.5,6.2L36.5,6.2L36.5,6.2
			C36.5,6.2,36.5,6.2,36.5,6.2C36.6,6.2,36.6,6.2,36.5,6.2C36.6,6.2,36.6,6.2,36.5,6.2C36.6,6.2,36.6,6.2,36.5,6.2
			C36.6,6.2,36.5,6.2,36.5,6.2z"/>
		<path class="st0" d="M37.4,20.4C37.4,20.4,37.4,20.5,37.4,20.4C37.4,20.5,37.4,20.5,37.4,20.4C37.4,20.5,37.4,20.5,37.4,20.4
			c0.1,0,0.1,0,0.1,0c0,0,0,0,0,0C37.4,20.4,37.4,20.4,37.4,20.4C37.4,20.4,37.4,20.4,37.4,20.4z"/>
		<path class="st0" d="M37.8,4.7C37.8,4.7,37.8,4.7,37.8,4.7C37.8,4.7,37.8,4.7,37.8,4.7C37.7,4.8,37.7,4.8,37.8,4.7
			C37.7,4.8,37.7,4.8,37.8,4.7C37.8,4.8,37.8,4.7,37.8,4.7z"/>
		<path class="st0" d="M40.5,4.7C40.5,4.7,40.5,4.7,40.5,4.7C40.5,4.7,40.5,4.7,40.5,4.7L40.5,4.7L40.5,4.7L40.5,4.7
			C40.5,4.7,40.5,4.7,40.5,4.7C40.5,4.6,40.5,4.6,40.5,4.7C40.5,4.6,40.5,4.7,40.5,4.7C40.5,4.7,40.5,4.7,40.5,4.7z"/>
		<path class="st0" d="M42,10.6C42.1,10.6,42.1,10.6,42,10.6C42.1,10.6,42.1,10.6,42,10.6C42.1,10.6,42.1,10.6,42,10.6
			C42.1,10.6,42.1,10.6,42,10.6c0.1,0,0.1,0,0.1-0.1c0,0,0,0,0,0C42.1,10.5,42.1,10.5,42,10.6z"/>
		<path class="st0" d="M37.2,20.4C37.2,20.4,37.2,20.4,37.2,20.4C37.2,20.4,37.2,20.4,37.2,20.4C37.2,20.4,37.2,20.4,37.2,20.4
			C37.2,20.4,37.2,20.4,37.2,20.4C37.2,20.4,37.2,20.4,37.2,20.4C37.2,20.4,37.2,20.4,37.2,20.4C37.2,20.4,37.2,20.4,37.2,20.4
			C37.2,20.4,37.2,20.4,37.2,20.4z"/>
		<path class="st0" d="M36.7,6.1C36.7,6.1,36.7,6.1,36.7,6.1C36.7,6.1,36.7,6.1,36.7,6.1L36.7,6.1C36.8,6.1,36.8,6.1,36.7,6.1
			C36.8,6.1,36.7,6.1,36.7,6.1z"/>
		<path class="st0" d="M40.7,4.7L40.7,4.7L40.7,4.7L40.7,4.7L40.7,4.7L40.7,4.7L40.7,4.7C40.7,4.7,40.7,4.7,40.7,4.7L40.7,4.7
			L40.7,4.7C40.7,4.7,40.7,4.7,40.7,4.7C40.7,4.7,40.7,4.7,40.7,4.7C40.7,4.7,40.6,4.7,40.7,4.7L40.7,4.7
			C40.6,4.7,40.6,4.7,40.7,4.7L40.7,4.7L40.7,4.7C40.6,4.7,40.6,4.7,40.7,4.7L40.7,4.7L40.7,4.7L40.7,4.7L40.7,4.7L40.7,4.7
			L40.7,4.7L40.7,4.7C40.6,4.7,40.6,4.7,40.7,4.7L40.7,4.7L40.7,4.7L40.7,4.7L40.7,4.7L40.7,4.7L40.7,4.7L40.7,4.7L40.7,4.7
			L40.7,4.7L40.7,4.7L40.7,4.7C40.6,4.7,40.6,4.7,40.7,4.7L40.7,4.7L40.7,4.7L40.7,4.7L40.7,4.7C40.6,4.7,40.6,4.7,40.7,4.7
			L40.7,4.7C40.7,4.7,40.7,4.7,40.7,4.7C40.7,4.7,40.7,4.7,40.7,4.7z"/>
	</g>
</g>
</svg>
