<?xml version="1.0" encoding="utf-8"?>
<!-- Generator: Adobe Illustrator 21.0.0, SVG Export Plug-In . SVG Version: 6.00 Build 0)  -->
<svg version="1.1" id="Layer_1" xmlns="http://www.w3.org/2000/svg" xmlns:xlink="http://www.w3.org/1999/xlink" x="0px" y="0px"
	 viewBox="0 0 47.8 25.3" style="enable-background:new 0 0 47.8 25.3;" xml:space="preserve">
<style type="text/css">
	.st0{fill:#FFFFFF;}
</style>
<title>nav1-hover</title>
<g>
	<g>
		<polygon class="st0" points="18.8,14.1 25.6,14.1 25.6,16.4 29.6,12.4 25.6,8.5 25.6,10.8 18.8,10.7 		"/>
	</g>
	<g>
		<path class="st0" d="M10.5,19.3c0,0-0.1,0-0.1,0c0,0-0.1,0-0.1,0l0,0l0.2,0.6l0,0c0.1,0,0.1,0,0.2-0.1c0,0,0.1,0,0.1-0.1
			c0.1-0.1,0.1-0.2,0.1-0.3c0-0.1,0-0.1-0.1-0.1C10.5,19.3,10.5,19.3,10.5,19.3z"/>
		<path class="st0" d="M7,5.8C7,5.8,6.9,5.9,7,5.8c-0.1,0.1-0.2,0.1-0.2,0l0,0l0.1,0.4l0.2,0c0,0,0.1,0,0.1,0c0,0,0,0,0.1,0
			c0,0,0,0,0.1-0.1c0,0,0-0.1,0-0.1c0,0,0-0.1-0.1-0.1C7.1,5.8,7.1,5.8,7,5.8C7,5.8,7,5.8,7,5.8z"/>
		<path class="st0" d="M7.2,19.2C7.1,19.2,7.1,19.2,7.2,19.2c-0.1,0-0.1-0.1-0.1-0.1l-0.1,0l-0.1,0.3l0,0c0,0,0,0,0,0
			c0,0,0.1,0,0.1,0c0,0,0.1,0,0.1,0.1c0,0,0,0,0,0c0,0,0,0,0.1,0c0,0,0,0,0-0.1C7.2,19.3,7.2,19.3,7.2,19.2
			C7.2,19.3,7.2,19.2,7.2,19.2z"/>
		<path class="st0" d="M9.4,19.4c-0.1,0-0.1,0.1-0.2,0.1c0,0.1-0.1,0.1-0.1,0.2c0,0.1,0.1,0.2,0.1,0.2C9.4,20,9.5,20,9.5,20
			c0.1,0,0.1-0.1,0.2-0.1c0-0.1,0.1-0.2,0.1-0.2c0-0.1,0-0.2-0.1-0.2C9.6,19.4,9.5,19.4,9.4,19.4z"/>
		<path class="st0" d="M7.7,11.9c0.2-0.3,0.5-0.5,0.8-0.5c0.3,0,0.6,0.2,0.8,0.4c0.1,0,0.3-0.1,0.4-0.2c0.2-0.1,0.3-0.2,0.5-0.4
			c0.1-0.2,0.2-0.4,0.2-0.6c0-0.2-0.1-0.4-0.2-0.6c-0.1-0.2-0.2-0.3-0.4-0.4C9.6,9.4,9.5,9.3,9.3,9.3c-0.2,0-0.4-0.1-0.7-0.1H7.4
			v2.6L7.7,11.9C7.7,11.9,7.7,11.9,7.7,11.9z"/>
		<path class="st0" d="M6.7,5.7L6.7,5.7C6.8,5.7,6.8,5.6,6.7,5.7c0.1-0.1,0.2-0.1,0.2,0c0,0,0,0,0,0c0,0,0,0,0-0.1c0,0,0-0.1,0-0.1
			c0,0,0,0,0-0.1c0,0,0,0-0.1,0c0,0,0,0-0.1,0c0,0-0.1,0-0.1,0l-0.1,0L6.7,5.7L6.7,5.7z"/>
		<path class="st0" d="M7.1,19.6C7.1,19.6,7.1,19.6,7.1,19.6c-0.1,0-0.1,0-0.2,0c0,0-0.1,0-0.1-0.1l0,0l-0.1,0.4l0.2,0
			c0,0,0.1,0,0.1,0C7,20,7,20,7,20c0,0,0.1,0,0.1,0c0,0,0-0.1,0-0.1C7.2,19.8,7.2,19.8,7.1,19.6C7.1,19.7,7.1,19.7,7.1,19.6z"/>
		<path class="st0" d="M9.4,15.8c0.2,0,0.4-0.1,0.6-0.2c0.2-0.1,0.4-0.3,0.5-0.5c0.1-0.2,0.2-0.5,0.2-0.7c0-0.3-0.1-0.6-0.3-0.9
			c-0.2-0.3-0.4-0.4-0.7-0.5c-0.1,0-0.3-0.1-0.4-0.1c-0.2,0.3-0.5,0.5-0.9,0.5c-0.4,0-0.7-0.2-0.9-0.5H7.4v3.1h1.3
			C9,15.9,9.2,15.9,9.4,15.8z"/>
		<path class="st0" d="M8.5,19.4c-0.1,0-0.2,0-0.2,0.1c-0.1,0.1-0.1,0.1-0.1,0.2c0,0.1,0,0.2,0.1,0.2c0.1,0.1,0.1,0.1,0.2,0.1
			c0.1,0,0.1,0,0.2-0.1c0.1-0.1,0.1-0.1,0.1-0.2c0-0.1,0-0.2-0.1-0.2C8.7,19.5,8.6,19.4,8.5,19.4z"/>
		<path class="st0" d="M8.5,4.1C3.9,4.1,0,7.9,0,12.6c0,4.7,3.8,8.5,8.5,8.5c4.7,0,8.5-3.8,8.5-8.5C17.1,7.9,13.2,4.1,8.5,4.1z
			 M15.9,12.3c0,0.1,0,0.1-0.1,0.2c-0.1,0.1-0.1,0.1-0.2,0.1h0l0,0c-0.1,0-0.2,0-0.2-0.1c0,0-0.1-0.1-0.1-0.1c0-0.1,0-0.1,0-0.2
			c0-0.1,0.1-0.3,0.1-0.5c0-0.1,0-0.1,0.1-0.2c0,0,0-0.1,0-0.1s0.1,0.1,0.2,0.2c0.1,0.1,0.2,0.3,0.2,0.4
			C15.9,12.2,15.9,12.2,15.9,12.3z M15.7,10.9c0.1,0.3,0,0.5-0.2,0.5l0,0l0,0c-0.2,0-0.4-0.1-0.4-0.4c0-0.1,0-0.3,0-0.5
			c0-0.2,0.1-0.3,0.1-0.3s0.1,0.1,0.2,0.2C15.5,10.6,15.6,10.8,15.7,10.9z M14.7,8.7c0.2,0.2,0.1,0.5,0,0.6l0,0c0,0,0.1,0.1,0.2,0.2
			c0.1,0,0.1,0.1,0.2,0.2c0.1,0.1,0.1,0.1,0.2,0.2c0.2,0.2,0.1,0.5-0.1,0.6l0,0l0,0c-0.2,0.1-0.4-0.1-0.5-0.3c0-0.1,0-0.1,0-0.2
			c0-0.1,0-0.2,0-0.2c0-0.2,0-0.3,0-0.3l0,0c-0.1,0.1-0.4,0-0.5-0.2c-0.1-0.1-0.1-0.3-0.1-0.5c0-0.1,0-0.3,0-0.3s0.1,0,0.3,0.1
			C14.4,8.5,14.6,8.6,14.7,8.7z M13.9,7.7c0.2,0.2,0.2,0.5,0.1,0.6l0,0l0,0c-0.1,0.1-0.4,0.1-0.5-0.2c-0.1-0.1-0.1-0.3-0.2-0.4
			c0-0.2-0.1-0.3-0.1-0.3s0.1,0,0.3,0.1C13.6,7.6,13.8,7.7,13.9,7.7z M13.1,6.9c0.2,0.1,0.3,0.4,0.2,0.5l0,0l0,0
			c-0.1,0.1-0.4,0.1-0.5-0.1c-0.1-0.1-0.2-0.3-0.3-0.4c-0.1-0.1-0.1-0.3-0.1-0.3s0.1,0,0.3,0C12.7,6.8,12.9,6.8,13.1,6.9z M11.5,6.2
			c0.2,0,0.4,0,0.5,0.1c0.1,0,0.2,0.1,0.3,0.2c0,0.1,0,0.2,0,0.3l0,0l0,0c0,0.1-0.1,0.1-0.2,0.1c-0.1,0-0.2,0-0.3-0.1
			c-0.1-0.1-0.2-0.2-0.3-0.3c-0.1-0.1-0.2-0.2-0.2-0.2S11.4,6.2,11.5,6.2z M10.2,5.3l0.2,0.1c0.1,0,0.1,0,0.2,0.1
			c0.1,0,0.1,0.1,0.2,0.1c0,0.1,0.1,0.1,0.1,0.2c0,0.1,0,0.1,0,0.2c0,0.1,0,0.1-0.1,0.2c0,0.1-0.1,0.1-0.2,0.1c-0.1,0-0.1,0-0.2,0
			c-0.1,0-0.1,0-0.2,0L9.9,6.2L10.2,5.3z M9.2,5.3c0.1-0.1,0.2-0.1,0.3-0.1c0.1,0,0.2,0.1,0.3,0.2c0.1,0.1,0.1,0.2,0.1,0.4
			C9.9,5.8,9.8,6,9.7,6C9.6,6.1,9.5,6.2,9.4,6.1C9.3,6.1,9.2,6.1,9.1,6C9,5.9,9,5.7,9,5.6C9,5.5,9.1,5.3,9.2,5.3z M8.1,5.2
			c0.1-0.1,0.2-0.1,0.3-0.2c0.1,0,0.2,0,0.3,0.1c0.1,0.1,0.1,0.2,0.1,0.4c0,0.1,0,0.3-0.1,0.4C8.7,6,8.6,6.1,8.5,6.1
			C8.3,6.1,8.2,6,8.1,6C8,5.9,8,5.7,8,5.6C8,5.5,8,5.3,8.1,5.2z M7.6,5.2L7.7,6l0.3,0l0,0.2L7.5,6.2l-0.1-1L7.6,5.2z M6.5,5.3
			C6.5,5.3,6.5,5.3,6.5,5.3l0.3,0c0,0,0.1,0,0.1,0c0,0,0.1,0,0.1,0c0,0,0.1,0,0.1,0.1c0,0,0,0.1,0.1,0.1c0,0,0,0.1,0,0.1
			c0,0,0,0.1-0.1,0.1c0,0,0.1,0,0.1,0.1c0,0,0.1,0.1,0.1,0.2c0,0,0,0.1,0,0.1c0,0,0,0.1-0.1,0.1c0,0-0.1,0.1-0.1,0.1
			c0,0-0.1,0-0.1,0l-0.2,0c0,0,0,0,0,0l-0.1,0c0,0,0-0.1,0.1-0.2L6.5,5.4c-0.1,0-0.1-0.1-0.2-0.1L6.5,5.3L6.5,5.3z M4.9,6.3
			c0.1,0,0.3-0.1,0.5-0.1c0.2,0,0.3,0,0.3,0S5.6,6.3,5.5,6.4C5.4,6.6,5.3,6.7,5.2,6.8C5.1,6.9,5,6.9,4.9,6.9c-0.1,0-0.2-0.1-0.2-0.1
			l0,0l0,0c0-0.1-0.1-0.2,0-0.3C4.7,6.4,4.8,6.3,4.9,6.3z M3.9,6.9C4,6.9,4.2,6.8,4.4,6.8c0.2,0,0.3,0,0.3,0s0,0.1-0.1,0.3
			C4.5,7.2,4.4,7.3,4.3,7.4C4.1,7.6,3.9,7.6,3.8,7.5l0,0l0,0C3.6,7.4,3.7,7.1,3.9,6.9z M3,7.8c0.1-0.1,0.3-0.2,0.4-0.2
			c0.1-0.1,0.3-0.1,0.3-0.1s0,0.1-0.1,0.3c0,0.1-0.1,0.3-0.2,0.4C3.4,8.4,3.1,8.5,3,8.4l0,0l0,0C2.8,8.3,2.8,8,3,7.8z M1.7,10.6
			c0.1-0.1,0.2-0.2,0.2-0.2l0,0c-0.2-0.1-0.3-0.3-0.1-0.5c0-0.1,0.1-0.1,0.1-0.2C2,9.6,2.1,9.5,2.1,9.5c0.1-0.1,0.2-0.2,0.2-0.2l0,0
			C2.2,9.2,2.1,9,2.3,8.8c0.1-0.1,0.3-0.2,0.4-0.3C2.9,8.4,3,8.4,3,8.4s0,0.1,0,0.3c0,0.2,0,0.3-0.1,0.5C2.7,9.3,2.5,9.4,2.4,9.3
			l0,0c0,0,0,0.1,0,0.3c0,0.1,0,0.2,0,0.2c0,0.1,0,0.2,0,0.2c-0.1,0.3-0.3,0.4-0.4,0.3l0,0c0,0,0,0.1,0.1,0.3C2,10.8,2,11,2,11.1
			c0,0.3-0.2,0.4-0.4,0.4l0,0h0c-0.2,0-0.3-0.3-0.2-0.5C1.5,10.9,1.6,10.7,1.7,10.6z M1.5,14.6c0-0.1,0-0.3,0.1-0.5
			c0-0.2,0.1-0.3,0.1-0.3l0,0c-0.2,0-0.4-0.1-0.4-0.4c0-0.1,0-0.2,0-0.2c0-0.1,0.1-0.2,0.1-0.2c0.1-0.1,0.1-0.3,0.1-0.3h0
			c-0.1,0-0.2,0-0.2-0.1c0,0-0.1-0.1-0.1-0.2c0-0.1,0-0.1,0-0.2c0-0.1,0.1-0.3,0.2-0.4c0.1-0.1,0.2-0.2,0.2-0.2s0,0,0,0.1
			c0,0,0,0.1,0.1,0.2c0.1,0.1,0.1,0.3,0.1,0.5c0,0.1,0,0.1,0,0.2c0,0.1,0,0.1-0.1,0.1c-0.1,0.1-0.1,0.1-0.2,0.1h0
			c0,0,0.1,0.1,0.1,0.2c0,0.1,0.1,0.1,0.1,0.2c0,0.1,0.1,0.1,0.1,0.2c0.1,0.3-0.1,0.5-0.2,0.5l0,0c0,0,0.1,0.1,0.2,0.2
			c0.1,0.1,0.2,0.3,0.3,0.4c0.1,0.2,0,0.5-0.1,0.5l0,0l0,0C1.8,15,1.5,14.9,1.5,14.6z M1.9,15.7c0-0.1,0-0.3,0-0.5
			c0-0.2,0-0.3,0-0.3S2,15,2.1,15.1c0.1,0.1,0.3,0.2,0.3,0.3c0.1,0.2,0.1,0.5-0.1,0.5l0,0l0,0C2.2,16.1,2,16,1.9,15.7z M2.5,16.8
			c0-0.1-0.1-0.1-0.1-0.2c0-0.1,0-0.2,0-0.3c0-0.2,0-0.3,0-0.3s0.1,0.1,0.2,0.1c0.1,0,0.1,0.1,0.2,0.1c0.1,0,0.1,0.1,0.2,0.1
			c0.2,0.2,0.2,0.4,0,0.5l0,0l0,0C2.9,17.1,2.6,17,2.5,16.8z M3.8,17.8c-0.1,0.1-0.4,0.1-0.6-0.1c-0.1-0.1-0.1-0.3-0.2-0.5
			C3,17.1,3,17,3,17s0.1,0,0.3,0.1c0.1,0.1,0.3,0.1,0.4,0.2C3.9,17.4,3.9,17.7,3.8,17.8L3.8,17.8L3.8,17.8z M5.8,19.1L5.8,19.1
			c0,0.1-0.1,0.1-0.2,0.2c-0.1,0-0.2,0-0.3-0.1c-0.1-0.1-0.2-0.2-0.3-0.4c-0.1-0.1-0.1-0.2-0.1-0.2l0,0c0,0.1-0.1,0.1-0.2,0.1
			c-0.1,0-0.1,0-0.2,0c-0.1,0-0.1-0.1-0.2-0.1c-0.1-0.1-0.2-0.3-0.3-0.4c0-0.1-0.1-0.1-0.1-0.2c0,0,0-0.1,0-0.1s0,0,0.1,0
			c0,0,0.1,0,0.2,0c0.2,0,0.3,0.1,0.4,0.1c0.1,0,0.1,0.1,0.1,0.1c0,0,0.1,0.1,0.1,0.1c0,0.1,0,0.2,0,0.3l0,0c0,0,0.1,0,0.3,0
			c0.1,0,0.3,0,0.5,0.1c0.1,0,0.2,0.1,0.3,0.2C5.8,18.9,5.8,19,5.8,19.1L5.8,19.1z M6.2,17.2H5.2c0-0.4,0.2-1,1.1-1.2V9.2
			C5.5,9,5.2,8.3,5.2,8h0.9c0,0,0,0,0,0c0,0.1,0.1,0.3,0.3,0.3h1.9c0.4,0,0.8,0,1.1,0.1c0.3,0.1,0.6,0.2,0.9,0.4
			c0.3,0.2,0.5,0.5,0.7,0.8c0.2,0.3,0.3,0.7,0.3,1.1c0,0.4-0.1,0.7-0.3,1c-0.1,0.2-0.3,0.5-0.6,0.7c0.4,0.2,0.7,0.5,0.9,0.8
			c0.3,0.4,0.4,0.8,0.4,1.3c0,0.4-0.1,0.8-0.3,1.1c-0.2,0.4-0.5,0.7-0.8,0.9c-0.3,0.2-0.7,0.4-1.2,0.4c-0.2,0-0.6,0-1.2,0H6.5
			C6.2,17,6.2,17.2,6.2,17.2z M7.3,19.7c0,0.1,0,0.1,0,0.2c0,0,0,0.1-0.1,0.1c0,0-0.1,0.1-0.1,0.1c0,0-0.1,0-0.1,0c0,0-0.1,0-0.1,0
			l-0.2,0c0,0-0.1,0-0.1,0l-0.1,0c0,0,0.1-0.1,0.2-0.1l0.2-0.8c-0.1,0-0.1-0.1-0.1-0.2l0.1,0l0,0c0,0,0,0,0,0L7,19c0,0,0.1,0,0.1,0
			c0,0,0.1,0,0.1,0.1c0,0,0.1,0.1,0.1,0.1c0,0,0,0.1,0,0.1c0,0,0,0.1-0.1,0.1c0,0-0.1,0-0.1,0.1C7.2,19.6,7.3,19.6,7.3,19.7z
			 M7.9,20.2l-0.5-0.1l0.1-1l0.2,0L7.7,20l0.3,0L7.9,20.2z M8.8,20.1c-0.1,0.1-0.2,0.1-0.3,0.1c-0.1,0-0.2,0-0.3-0.1
			c-0.1-0.1-0.1-0.2-0.1-0.4c0-0.1,0-0.3,0.1-0.4c0.1-0.1,0.2-0.1,0.3-0.1c0.1,0,0.2,0.1,0.3,0.1C8.9,19.5,9,19.6,9,19.8
			C9,19.9,8.9,20,8.8,20.1z M9.9,20c-0.1,0.1-0.2,0.2-0.3,0.2c-0.1,0-0.2,0-0.3-0.1C9.1,20,9.1,19.9,9,19.8c0-0.1,0-0.3,0.1-0.4
			c0.1-0.1,0.2-0.2,0.3-0.2c0.1,0,0.2,0,0.3,0.1c0.1,0.1,0.2,0.2,0.2,0.3C10,19.8,9.9,19.9,9.9,20z M10.8,19.8
			c0,0.1-0.1,0.1-0.2,0.1c-0.1,0-0.1,0.1-0.2,0.1l-0.2,0.1L10,19.2l0.2-0.1c0.1,0,0.2,0,0.2,0c0.1,0,0.1,0,0.2,0
			c0.1,0,0.1,0.1,0.2,0.1c0,0.1,0.1,0.1,0.1,0.2c0,0.1,0,0.1,0,0.2C10.8,19.7,10.8,19.8,10.8,19.8z M12.4,18.8
			c-0.1,0.1-0.2,0.3-0.3,0.4c-0.1,0.1-0.2,0.1-0.3,0.1c-0.1,0-0.2-0.1-0.2-0.2l0,0l0,0c0-0.1,0-0.2,0-0.3c0-0.1,0.1-0.2,0.3-0.2
			c0.1,0,0.3,0,0.5-0.1c0.2,0,0.3,0,0.3,0S12.4,18.6,12.4,18.8z M13.4,17.9c0,0,0,0.1-0.1,0.2c-0.1,0.1-0.2,0.3-0.3,0.4
			c0,0.1-0.1,0.1-0.2,0.1c-0.1,0-0.1,0-0.2,0c-0.1,0-0.2,0-0.2-0.1l0,0l0,0c0-0.1-0.1-0.2,0-0.3c0,0,0-0.1,0.1-0.1
			c0,0,0.1-0.1,0.1-0.1c0.1-0.1,0.3-0.1,0.4-0.1C13.2,17.9,13.3,17.8,13.4,17.9C13.4,17.8,13.4,17.8,13.4,17.9
			C13.4,17.8,13.4,17.8,13.4,17.9z M14.1,17.2c0,0.2-0.1,0.3-0.2,0.5c-0.2,0.2-0.4,0.2-0.6,0.1l0,0l0,0c-0.1-0.1-0.1-0.4,0.1-0.5
			c0.1-0.1,0.3-0.2,0.4-0.2c0.1-0.1,0.3-0.1,0.3-0.1S14.2,17.1,14.1,17.2z M14.8,16.2c0,0.1,0,0.2,0,0.3c0,0.1,0,0.2-0.1,0.2
			c-0.1,0.3-0.4,0.3-0.5,0.2l0,0l0,0c-0.1-0.1-0.2-0.4,0-0.5c0,0,0.1-0.1,0.2-0.1c0.1-0.1,0.1-0.1,0.2-0.1c0.1-0.1,0.2-0.1,0.2-0.1
			S14.8,16.1,14.8,16.2z M15.3,15.7c-0.1,0.3-0.3,0.4-0.5,0.3l0,0l0,0c-0.1-0.1-0.2-0.3-0.1-0.5c0.1-0.1,0.2-0.2,0.3-0.3
			c0.1-0.1,0.2-0.2,0.2-0.2s0,0.1,0.1,0.3C15.3,15.3,15.3,15.5,15.3,15.7z M15.2,14.9L15.2,14.9L15.2,14.9c-0.2-0.1-0.3-0.3-0.2-0.5
			c0-0.1,0.2-0.3,0.3-0.4c0.1-0.1,0.2-0.2,0.2-0.2s0,0.1,0.1,0.3c0,0.2,0.1,0.3,0.1,0.5C15.6,14.8,15.4,14.9,15.2,14.9z M15.5,13.8
			L15.5,13.8L15.5,13.8c-0.2,0-0.3-0.2-0.3-0.5c0-0.1,0-0.1,0.1-0.2c0-0.1,0.1-0.1,0.1-0.2c0.1-0.1,0.1-0.2,0.1-0.2s0.1,0.1,0.1,0.2
			c0,0.1,0.1,0.2,0.1,0.2c0,0.1,0,0.2,0,0.2C15.9,13.6,15.7,13.8,15.5,13.8z"/>
		<path class="st0" d="M10.3,6.1c0,0,0.1,0,0.1,0c0.1,0,0.1-0.1,0.2-0.2c0,0,0-0.1,0-0.1c0,0,0-0.1-0.1-0.1c0,0-0.1-0.1-0.1-0.1
			c0,0-0.1,0-0.1,0l0,0l-0.2,0.6l0,0C10.2,6.1,10.3,6.1,10.3,6.1z"/>
		<path class="st0" d="M9.4,6c0.1,0,0.1,0,0.2-0.1c0.1-0.1,0.1-0.1,0.1-0.2s0-0.2-0.1-0.2c0-0.1-0.1-0.1-0.2-0.1
			c-0.1,0-0.2,0-0.2,0.1C9.2,5.4,9.2,5.5,9.2,5.6c0,0.1,0,0.2,0.1,0.2C9.3,5.9,9.3,6,9.4,6z"/>
		<path class="st0" d="M8.5,5.9c0.1,0,0.1,0,0.2-0.1c0.1-0.1,0.1-0.1,0.1-0.2c0-0.1,0-0.2-0.1-0.2S8.5,5.3,8.4,5.3
			c-0.1,0-0.2,0-0.2,0.1C8.2,5.4,8.2,5.5,8.2,5.6c0,0.1,0,0.2,0.1,0.2C8.3,5.9,8.4,5.9,8.5,5.9z"/>
	</g>
	<g>
		<ellipse transform="matrix(0.7378 -0.675 0.675 0.7378 -3.1717 28.4006)" class="st0" cx="35" cy="18.3" rx="0" ry="0"/>
		<ellipse transform="matrix(0.9016 -0.4325 0.4325 0.9016 1.0167 17.258)" class="st0" cx="38.4" cy="6.4" rx="0" ry="0"/>
		<path class="st0" d="M39.1,3.9c-1.6,0-3,0.4-4.3,1.2c0,0,0,0,0,0c0,0,0,0,0,0c0,0,0,0,0,0c0,0,0,0,0,0c0,0,0,0,0,0c0,0,0,0,0,0
			c0,0,0,0,0,0c0,0-0.1,0-0.1,0c0,0,0,0,0,0c0,0,0,0,0,0c-2.5,1.5-4.2,4.2-4.2,7.4c0,4.8,3.9,8.6,8.6,8.6s8.6-3.9,8.6-8.6
			S43.9,3.9,39.1,3.9z M36.4,4.8c0,0-0.1,0.1-0.1,0.1l-0.1,0c0,0-0.1,0-0.1,0l0-0.1l0,0c0,0,0,0,0,0C36.2,4.9,36.2,4.8,36.4,4.8
			C36.3,4.8,36.4,4.8,36.4,4.8z M35.9,20C35.9,20,35.9,20,35.9,20c-0.2-0.1-0.3-0.1-0.3-0.2c-0.4-0.2-0.6-0.3-0.9-0.5
			c-0.1,0-0.1-0.1-0.2-0.1c0,0,0,0,0,0c0,0,0,0-0.1,0c-0.2-0.1-0.3-0.2-0.5-0.3c0,0,0,0-0.1,0c0,0,0,0-0.1,0c0,0,0,0,0,0
			c-0.1-0.1-0.2-0.2-0.4-0.4c0,0,0,0,0,0c0,0,0,0,0,0c0,0-0.1-0.1-0.1-0.1c-0.1-0.1-0.2-0.2-0.3-0.3c0,0,0,0,0-0.1c0,0,0,0-0.1-0.1
			c-0.1-0.1-0.2-0.3-0.4-0.4c0,0,0,0,0,0c0-0.1-0.1-0.1-0.1-0.2c0,0-0.1-0.1-0.1-0.1c0,0-0.1-0.1-0.1-0.1c0,0-0.1-0.1-0.1-0.1
			c0,0,0,0,0-0.1c0,0,0,0,0,0l-0.3-0.5c-0.1-0.2-0.2-0.4-0.2-0.5c0,0,0,0,0-0.1c-0.1-0.2-0.1-0.3-0.2-0.6c-0.1-0.2-0.1-0.3-0.1-0.5
			c-0.1-0.3-0.1-0.5-0.2-0.8c0-0.2,0-0.4-0.1-0.6c0-0.2,0-0.4,0-0.6c0-0.1,0-0.3,0-0.5c0-0.1,0-0.2,0-0.3c0-0.2,0.1-0.4,0.1-0.6
			c0.1-0.3,0.1-0.4,0.1-0.7c0,0,0,0,0-0.1c0.1-0.3,0.1-0.5,0.2-0.6c0,0,0,0,0,0c0.1-0.2,0.1-0.4,0.2-0.5c0,0,0,0,0-0.1
			c0,0,0-0.1,0-0.1c0.1-0.2,0.2-0.3,0.3-0.5l0.2-0.3c0,0.3-0.3,0.8-0.3,0.8l0,0c-0.1,0.2-0.1,0.8-0.1,0.8l0,0c0.3-0.3,0-0.9,0.4-1.2
			c-0.3,2.5-0.3,2.5,0.2,2.7c0,0,0.1,0,0.1,0c0.1,0,0.1,0,0.1,0l0,0c0.1,0.1,0.1,0.1,0.1,0.1c0.1,0.3,0.2,0.4,0.4,0.5c0,0,0,0,0,0h0
			l0,0l0,0c0.3,0.8,0.3,0.8,0.7,1.1c0,0,0,0,0.1,0c0,0,0-0.1,0-0.1c0,0,0.1,0,0.1,0c0.6,0.6-0.4,1.1-0.2,1.8c-0.1,0.2-0.1,0.2,0,0.4
			c0.2,0.5,0.6,1.3,1.3,1.8c0.1,0.1,0.2,0.2,0.2,0.3c0.2,0.8,0.3,1.3,0.3,1.6c0.1,0.7,0.1,0.7,0.2,0.7c0,0,0-0.1,0-0.1
			c0,0,0.1,0.1,0.1,0.1c0,0-0.1,0-0.1,0c0,0,0,0,0,0l0,0.1c0,0,0,0.1,0,0.1c0,0,0,0,0,0c0,0,0.1,0,0.1,0c0,0,0,0.1,0,0.1
			C35.8,20,35.9,20,35.9,20C35.9,20,35.9,20,35.9,20C35.9,20,35.9,20,35.9,20z M37.6,20.5L37.6,20.5C37.5,20.5,37.5,20.5,37.6,20.5
			C37.5,20.5,37.5,20.5,37.6,20.5C37.5,20.5,37.5,20.5,37.6,20.5C37.5,20.5,37.5,20.5,37.6,20.5C37.5,20.5,37.5,20.5,37.6,20.5
			C37.5,20.5,37.5,20.5,37.6,20.5C37.5,20.5,37.5,20.5,37.6,20.5C37.6,20.5,37.6,20.5,37.6,20.5C37.6,20.5,37.6,20.5,37.6,20.5z
			 M44.7,18.5C44.7,18.5,44.7,18.5,44.7,18.5C44.7,18.6,44.7,18.6,44.7,18.5c-0.2,0.2-0.3,0.3-0.5,0.4l0,0l0,0
			c-0.3,0.2-0.4,0.3-0.6,0.4c-0.1,0-0.1,0.1-0.2,0.1c-0.1,0.1-0.2,0.1-0.3,0.2c0,0,0,0-0.1,0c0,0-0.1,0-0.1,0.1
			c-0.1,0.1-0.3,0.1-0.4,0.2c0,0,0,0-0.1,0c0,0-0.1,0-0.1,0c0,0-0.1,0-0.1,0.1c-0.1,0-0.2,0.1-0.3,0.1c-0.1,0-0.2,0.1-0.4,0.1
			c0,0-0.1,0-0.1,0c-0.1,0-0.1,0-0.2,0.1c0,0,0,0,0,0c0,0,0,0,0,0c-0.1,0-0.2,0-0.3,0.1c0,0,0,0-0.1,0c0,0,0,0,0,0c0,0,0,0,0,0
			c0,0,0,0,0,0c0,0,0,0,0,0c0,0,0,0,0,0h0c0,0,0,0,0,0h0l0,0h0l0,0h0l0,0h0h0h0h0h0l0,0h0c0,0,0,0,0,0c0,0,0,0,0,0l0,0c0,0,0,0,0,0
			c0,0,0,0,0,0l0,0c0,0-0.1,0-0.1,0c-0.1,0-0.1,0-0.2,0c0,0,0,0,0,0c0,0,0,0-0.1,0c0,0,0,0,0,0c-0.1,0-0.2,0-0.3,0c0,0,0,0,0,0
			c0,0,0,0,0,0c0,0-0.1,0-0.1,0c0,0,0,0,0,0c0,0,0,0,0,0l0,0h0c0,0,0,0,0,0c0,0-0.1,0-0.1,0c0,0,0,0,0,0c0,0,0,0,0,0c0,0,0,0,0,0
			c0,0-0.1,0-0.1,0c0,0,0,0,0,0c0,0,0,0,0,0c0,0,0,0-0.1,0c0,0,0,0-0.1,0c-0.1,0-0.2,0-0.2,0c0,0-0.1,0-0.1,0c0,0,0,0,0,0
			c0,0,0,0,0,0c0,0,0,0,0,0c0,0-0.1,0-0.1,0c0,0-0.1,0-0.1,0c0,0-0.1,0-0.1,0c0,0,0,0,0,0h0c0,0,0,0,0,0c0,0,0,0,0,0
			c-0.1,0-0.2,0-0.3,0c0,0,0,0,0,0c0,0,0,0,0,0c-0.1,0-0.1,0-0.2,0c0,0,0,0,0,0c-0.1,0-0.1,0-0.2,0c0,0,0,0,0,0c0,0,0,0-0.1,0
			c0,0,0,0,0,0c0,0,0,0,0,0c0,0,0,0,0,0c0,0,0,0,0,0h0l0,0h0l0,0h0h0c0,0,0,0,0,0h0l0,0l0,0h0c0,0,0,0,0,0c0,0,0,0,0,0c0,0,0,0,0,0
			c0,0,0,0,0,0c-0.1,0-0.1,0-0.2,0c0,0,0,0,0,0c0,0,0,0,0,0c0,0,0,0,0,0c0,0,0,0-0.1,0c0,0,0,0,0,0c0,0,0,0,0,0c0,0,0,0,0,0
			c0,0,0,0,0,0h0l0,0l0,0c0,0,0,0,0,0l0,0h0c0,0,0,0,0,0h0c0,0,0,0,0,0h0c0,0,0,0,0,0h0l0,0l0,0l0,0h0l0,0c0,0,0,0,0,0l0,0l0,0l0,0
			l0,0l0,0c0,0,0,0,0,0h0l0,0h0l0,0c0,0,0,0,0,0c0,0-0.1,0-0.1,0l0,0c0,0,0,0,0,0c-0.2,0-0.3-0.1-0.4-0.1c0,0,0,0,0,0c0,0,0,0,0,0
			l0,0c0,0,0,0,0,0c0,0,0,0,0,0l0,0c0,0,0,0,0,0c-0.2-0.1-0.4-0.1-0.4-0.3c0,0,0.1-0.1,0.1-0.1c0,0,0,0,0,0
			c-0.2-0.1-0.2-0.1-0.2-0.1c0.1-0.1,0.1-0.1,0.2-0.2c0,0,0,0,0-0.1c0,0-0.1-0.1-0.1-0.1c0,0,0,0,0,0c0,0,0.1,0,0.1,0
			c0.1,0,0.1,0,0.1,0c0,0,0.1,0,0.1,0c0,0,0-0.1,0-0.1c0,0,0,0,0,0c0.1,0,0.1,0,0.1,0h0h0l0,0h0h0h0h0h0h0l0,0c0.2,0,0.4,0,0.4-0.2
			C37.1,19,37.1,19,37.1,19c0.1,0,0.1,0,0.2,0.1c0,0,0,0,0,0c0.8,0,0.7-1.1,1.4-1.2l0,0l0,0c0.5-0.1,0.5-0.9,0.6-1.2
			c0,0,0.6-0.9,0.6-0.9c0-0.3-0.8-0.6-0.8-0.6c-0.1,0-0.2-0.1-0.4-0.1c0,0-0.1,0-0.2,0c-0.2-0.3-0.7-0.2-0.9-0.7c0,0,0-0.1,0-0.1
			c0-0.1-0.1-0.2-0.1-0.3c0,0,0,0-0.1,0c0,0-0.1-0.1-0.1-0.1c0,0,0,0-0.1,0l0,0c-0.1-0.1-0.2-0.1-0.3-0.1c0,0,0,0,0,0
			c0,0-0.1,0-0.1,0c0,0,0,0,0,0c-0.1,0-0.2-0.1-0.2-0.2c-0.1-0.1-0.1-0.2-0.3-0.2c0,0,0,0,0,0l0,0c-0.1-0.3-0.3-0.3-0.5-0.4
			c0,0,0,0.1,0,0.1c-0.2,0-0.2,0-0.7-0.4c-0.2,0.1-0.2,0.1-0.2,0.1l0,0c0,0,0.1-0.1,0.1-0.1c-0.3-0.1-0.3-0.1-0.8,0.4
			c-0.1-0.1-0.2-0.2-0.3-0.2c0,0-0.1,0-0.1,0c0,0-0.1,0-0.1,0c-0.4-0.2,0-0.7-0.1-1c-0.1-0.1-0.1-0.1-0.3-0.2c0,0-0.1,0-0.1,0
			c0,0,0,0,0,0c0,0,0,0-0.1,0c0,0,0-0.1,0-0.1c0.1-0.2,0.3-0.3,0.3-0.6c0,0,0-0.1,0-0.1c0,0,0,0-0.1-0.1c-0.3,0-0.4,0.3-0.7,0.3
			c0,0,0,0,0,0l0,0c-0.2-0.2-0.2-1.1,0.5-1.5c0,0,0.1,0,0.1,0c0.1,0,0.1,0,0.1,0l0,0c0.1,0.1,0.1,0.1,0.2,0.2c0,0,0,0,0,0
			c0.1,0,0.1,0,0.1,0c0,0,0,0,0,0c0,0,0,0,0,0c0,0,0,0,0,0c0,0,0,0,0,0c0,0,0,0,0,0c0,0,0,0,0,0c0,0,0,0,0,0l0,0c0.1,0,0.1,0,0.2,0
			c0,0,0,0,0.2,0.1c0,0,0.1,0,0.1,0c0,0,0,0,0,0l0,0c0.2,0.2,0,0.5,0.1,0.7c0,0,0.1,0,0.1,0c0.1-0.3,0-0.6,0.2-0.9
			c0.2-0.3,0.6-0.2,0.8-0.4c0-0.2,0-0.2,0-0.2c0.2-0.2,0.4-0.3,0.6-0.5c0.1,0,0.1,0,0.2,0c0,0,0-0.1,0-0.1c0,0,0-0.1,0-0.1
			c0.2-0.2,0.6-0.3,0.6-0.3c0,0,0,0,0,0c0,0-0.1,0.1-0.1,0.1c0,0,0,0.1,0,0.1c0,0,0,0,0,0c0.4-0.1,0.6-0.2,0.6-0.3c0,0,0-0.1,0-0.1
			C37.1,8,37.1,8,37,8l0,0c0,0,0-0.1,0-0.1c0,0,0,0,0,0c0,0,0,0,0,0c0,0,0,0,0,0c0,0,0,0,0,0c0,0,0,0,0,0c0,0,0,0,0,0c0,0,0,0,0,0
			c0,0,0,0,0,0c0,0-0.1-0.1-0.1-0.1c0,0,0-0.1,0.1-0.1c0,0,0,0,0,0c0,0,0,0,0,0c0,0,0,0,0,0c0,0,0,0,0,0c0,0,0,0,0,0c0,0,0,0,0,0
			c0,0,0,0,0,0c0,0,0,0,0,0l0,0c0.1,0,0.1,0,0.2-0.1l-0.1-0.1c-0.1,0-0.1,0-0.5,0.1c0,0,0,0,0,0c0.2-0.1,0.2-0.1,0.2-0.1
			c0.1-0.1,0.1-0.1,0.3-0.1l0.1,0c0,0,0.1,0.1,0.1,0.1c0,0,0,0,0,0l0,0l0.1,0l0-0.1c0.2,0,0.6-0.1,0.7-0.4c0,0,0,0-0.1-0.1
			c0,0,0,0,0,0h0h0l0,0c0,0,0-0.1,0-0.1c-0.2-0.1-0.2-0.1-0.3-0.6c0,0,0,0,0,0c0,0,0,0,0,0c0,0,0,0,0,0c0,0,0,0,0,0c0,0,0,0-0.1,0
			c0,0,0,0,0,0c0,0,0,0,0,0c0,0,0,0,0,0c0,0,0,0,0,0c-0.1,0.1-0.1,0.1-0.2,0.1c0-0.1,0-0.1,0-0.2c0,0,0,0,0.1-0.1c0,0,0,0,0,0
			c0,0-0.1-0.1-0.1-0.1c-0.1-0.1-0.1-0.1-0.1-0.1c0,0,0,0,0,0c0,0,0,0,0,0c0,0,0,0,0,0c0,0,0,0,0,0c0,0,0,0,0,0c0,0,0,0,0,0
			c0,0,0,0,0,0c-0.1,0.1-0.1,0.1-0.2,0.2l0,0.1c0,0-0.1,0.1-0.1,0.1c0,0.1,0,0.1-0.4,0.4c-0.1,0.3-0.1,0.3-0.2,0.3c0,0,0,0,0,0l0,0
			l0,0c0,0,0-0.1,0-0.1c0,0,0,0,0,0l0,0c0,0,0-0.1,0-0.1c0,0,0.1-0.1,0.1-0.1c-0.1-0.2-0.3-0.4-0.3-0.4l-0.1,0c0-0.1,0-0.1,0.1-0.3
			c0.3-0.2,0.6-0.2,0.9-0.4c-0.1,0.1-0.1,0.1-0.2,0.2l0,0.1l0,0c0,0,0.1,0,0.1,0l0.1,0l0,0c0,0,0.1,0,0.1,0c0,0,0,0,0,0
			c0-0.1,0-0.1,0-0.2l0,0l0,0c0.2-0.1,0.2-0.1,0.3-0.2c0,0,0.1,0,0.1,0l0-0.1l0.1,0c0,0,0.1,0,0.1,0l0,0c0,0,0,0.1-0.1,0.1
			c0,0-0.1,0-0.1,0.1l0,0.1c0,0,0.1,0,0.1,0c0,0,0.1,0,0.1,0c0,0,0,0,0,0c0,0,0,0,0,0c0,0,0,0,0,0c0,0,0,0,0,0c0,0,0,0,0,0
			c0,0,0,0,0,0c0,0,0,0,0,0l0,0.1c-0.1,0-0.1,0.1-0.2,0.1c0,0,0,0,0,0c0,0,0,0,0,0c0,0,0,0,0,0c0,0,0,0,0,0c0,0,0,0,0,0c0,0,0,0,0,0
			c0,0,0,0,0,0c0,0,0,0,0,0c-0.1,0-0.1,0-0.2,0.1c0,0,0,0,0,0l0,0.1l0,0l0,0c0,0,0.1,0,0.1,0c0,0,0,0,0,0l0,0c0,0.1,0,0.1,0.1,0.2h0
			h0l0,0c0.1,0,0.1,0.1,0.2,0.1l0,0c0,0,0-0.1,0-0.1l0,0c0,0,0,0,0,0l0,0l0,0c0,0,0,0,0.1,0.1c0,0,0,0,0,0l0-0.1c0,0,0,0,0.1-0.1
			c0,0,0,0,0,0c0,0,0-0.1-0.1-0.1c0,0,0,0,0-0.1l0,0c0,0,0,0.1,0,0.1c0,0,0.1,0,0.1,0c0,0,0.1-0.1,0.2-0.1c0,0,0,0,0-0.1
			c-0.2-0.2-0.2-0.2-0.2-0.2l0,0c0,0,0-0.1,0-0.1c0,0,0,0-0.1-0.2l0,0c0,0,0,0,0,0h0c0,0,0-0.1,0-0.2c0,0,0,0,0,0
			c-0.1,0-0.1,0-0.1,0l0,0h0c-0.2,0-0.4-0.1-0.6,0.2c0,0,0,0.1,0,0.1c0,0,0,0-0.1,0.1c-0.1,0-0.1,0-0.2,0.1l0,0c0,0,0.1-0.1,0.1-0.1
			c0,0,0,0,0,0h0h0l0,0c0,0-0.1,0-0.1,0l0,0c0,0,0.1,0,0.1,0c0,0,0,0,0,0c0.1-0.2,0.1-0.2,0.2-0.2C37,5,37.2,5,37.3,5l0,0
			c-0.1,0-0.2,0.1-0.3,0.1c0,0-0.1,0-0.1,0.1c0,0-0.1,0.1-0.1,0.1l0,0c0,0-0.1,0-0.1,0l-0.1,0.1c0,0-0.1,0-0.1,0h0l0,0c0,0,0,0,0,0
			l0,0c-0.1,0-0.1,0-0.1,0l0,0c0,0,0-0.1,0-0.1c0,0,0,0,0,0l0,0c0.1,0,0.1,0,0.2-0.1c0-0.1,0-0.1,0.2-0.2c0,0,0.1,0,0.1,0
			c0,0,0,0,0,0l0,0c0,0-0.1,0-0.1,0c0,0,0,0,0,0c0,0,0,0,0,0c0,0,0,0,0,0c0,0,0,0,0,0c0,0,0,0,0,0c0,0,0,0,0,0c0,0,0,0,0,0
			c0,0,0,0,0,0l0,0c0,0,0.1-0.1,0.1-0.1c0,0,0-0.1,0-0.1c0,0,0.1,0,0.1-0.1l0,0l0,0c0,0,0,0,0,0c0,0,0.1,0,0.1,0c0,0,0,0,0,0
			c0,0,0,0,0.1,0c0,0-0.1,0-0.1,0c0,0,0,0,0,0c0,0,0.2,0,0.3,0c0,0,0,0,0,0c0,0,0,0,0,0c0,0,0,0,0,0c0,0,0,0,0,0l0,0h0h0v0h0h0
			c0,0,0,0,0,0c0,0,0,0,0,0c0,0,0,0-0.1,0c0,0,0,0,0,0c0,0,0,0,0,0c0,0,0,0,0,0c0,0,0,0,0,0c0,0,0.1,0,0.1,0c0,0,0,0,0,0
			c0,0,0.1,0,0.1,0c0,0,0,0,0,0c0,0,0,0,0,0c0,0,0,0,0,0c0,0,0,0,0.1,0c0,0,0,0,0,0c0,0,0,0,0,0c0.1,0,0.1,0,0.2,0c0,0,0.1,0,0.2,0
			l0,0c0,0,0,0,0,0c0.1,0,0.1,0,0.2,0c0,0,0,0,0,0c0,0,0,0,0,0c0,0,0.1,0,0.1,0c0,0,0,0,0,0c0,0,0,0,0,0c0,0,0.1,0,0.1,0
			c0,0,0,0,0,0c0,0,0.1,0,0.1,0c0,0,0,0,0,0c0,0,0,0,0,0l0,0c0,0,0.1,0,0.1,0c0,0,0,0,0,0c0,0,0,0,0,0c0,0,0.1,0,0.1,0
			c0,0,0,0,0.1,0c0,0,0,0,0,0c0,0,0,0,0,0c0,0,0,0,0.1,0h0c0,0,0,0,0,0c0,0,0,0,0,0h0h0c0,0,0,0,0,0c0,0,0,0,0,0c0,0,0,0,0,0
			c0,0,0,0,0,0h0c0,0,0,0,0,0h0h0c0,0,0.1,0,0.1,0c0,0,0,0,0,0c0,0,0.1,0,0.1,0c0,0,0,0,0,0c0,0,0,0,0,0c0,0,0.1,0,0.1,0
			c0,0,0,0,0,0c0.1,0,0.1,0,0.2,0c0,0,0,0,0,0c0,0,0,0,0,0c0,0,0,0,0,0c0,0,0,0,0,0c0,0,0,0,0,0c0,0,0,0,0,0l0,0c0,0,0,0,0,0l0,0
			c0,0,0,0,0,0c0,0,0,0,0,0c0,0,0,0,0,0c0,0,0,0,0.1,0c0,0,0,0,0,0c0,0,0,0,0,0c0.1,0,0.1,0,0.2,0l0,0c0,0,0.1,0,0.2,0
			c0,0,0.1,0,0.1,0c0,0,0,0,0,0c0.1,0,0.2,0,0.2,0c0,0,0,0,0,0h0c0.4,0.1,0.6,0.2,0.9,0.3c0.1,0,0.3,0.1,0.4,0.2c0,0,0,0,0,0h0l0,0
			h0v0l0,0c0,0,0,0,0,0c0,0,0,0,0,0l0,0c0,0,0,0,0,0c0,0,0.1,0,0.1,0c0,0,0,0,0,0c0,0,0.1,0,0.1,0.1c0,0,0,0,0,0c0,0,0,0,0,0
			C42.3,5,42.1,5,41.9,5c0,0-0.1,0-0.1,0c0,0,0,0,0,0l0,0c0,0,0,0,0,0c0,0,0,0,0,0l0,0h0l0,0l0,0c0,0,0,0,0,0h0l0,0h0l0,0h0l0,0h0h0
			c0,0,0,0,0,0l0,0c0,0,0,0,0,0c0,0,0,0,0,0c0,0,0,0.1,0,0.1c0,0,0,0,0,0l0,0c0,0,0,0,0,0c0,0,0,0,0,0v0l0,0l0,0c0,0,0,0,0,0
			c0,0,0,0,0,0c0,0.1,0,0.1,0,0.2c0,0,0,0,0,0h0h0h0l0,0c0,0,0,0,0,0l0.1,0c0,0,0,0,0,0l0,0c0,0,0,0,0,0.1c0,0.1,0.1,0.2,0.2,0.3
			c0,0,0,0,0,0c0,0,0,0,0,0c0,0,0,0,0,0c0,0.1,0,0.1,0,0.2c0,0,0.2,0.4,0.4,0.3c0,0,0.1,0,0.1,0c0,0,0-0.1,0-0.1c0,0,0,0,0,0
			c0.1,0,0.3,0.1,0.3,0.2c0,0,0,0,0,0c0,0,0,0,0,0c0,0,0,0,0,0c0,0-0.1,0-0.1,0c0,0,0,0-0.1,0c0,0,0,0,0,0c0,0,0,0,0-0.1
			c0,0,0,0,0,0c0,0,0,0,0,0c0,0,0,0,0,0c-0.1,0.2,0.2,0.3,0.3,0.4c-0.2,0.1-0.2,0.1-0.2,0.5c0,0,0,0,0,0.1c0,0-0.1,0-0.1,0
			c0,0,0,0,0,0h0l0,0c0,0,0,0,0,0c0.1,0.1,0.1,0.1,0.1,0.1l0,0c0,0,0,0,0,0c-0.1,0-0.1,0-0.2,0c0,0,0,0-0.1,0c0,0,0,0,0,0
			c0.1,0.1,0.3,0.2,0.4,0.3C42.9,7.9,42.9,8,42.9,8l0,0c0,0,0,0,0,0c0,0,0,0.1,0,0.1c0,0,0,0-0.1,0c0,0-0.1,0-0.1,0
			c-0.2,0-0.2,0-0.3,0c0,0-0.1,0.1-0.1,0.1c0,0,0,0,0,0c0.1,0.2,0.1,0.6,0.3,0.8l0,0l0,0l0.1,0c0.1,0,0.1,0,0.2,0.1l0.1,0
			c0.1,0,0.1,0,0.2-0.1c0,0,0,0,0,0c0.1,0,0.2-0.1,0.2-0.1c0,0,0,0,0,0c0.2-0.3,0.1-0.7,0-0.8c0,0,0,0,0,0c0,0,0,0,0,0c0,0,0,0,0,0
			c0,0,0.1,0,0.1,0c0,0,0,0,0,0l0,0h0l0,0h0h0h0l0,0c0,0,0,0,0,0c0,0,0,0,0,0c0-0.1,0-0.1,0-0.1c0,0,0.1,0,0.1,0c0,0,0.1,0,0.1,0
			l0,0h0h0c0,0,0,0,0,0l0,0h0c0,0,0,0,0,0l0,0c0,0,0,0,0,0c0.1,0.1,0.6,0.4,0.8,0.5c0,0,0,0.1-0.1,0.2c0,0,0,0,0,0.1
			c0.1,0,0.2,0.1,0.3,0.1c0,0,0-0.1,0-0.2c0-0.1,0-0.2,0-0.2c0,0,0,0,0-0.1c0,0,0,0,0-0.1c0,0,0,0,0,0c0,0,0,0,0,0c0,0,0,0,0,0
			c0,0,0,0,0,0c0,0,0,0,0,0c0,0,0,0,0,0c-0.1-0.1-0.4-0.2-0.6-0.3l0,0c0,0,0,0,0,0c0,0,0,0-0.1,0c-0.1,0-0.1,0-0.1-0.2c0,0,0,0,0,0
			c0,0,0.1,0,0.1,0c0.1,0.1,0.3,0.1,0.4,0.2c0,0,0-0.1,0-0.1c0,0,0.1,0,0.1,0c0.1,0.1,0.1,0.1,0.4,0.4c0,0,0.1,0.2,0.3,0.2
			C45.2,8.2,45.2,8.2,45,8c0,0,0,0,0,0c0,0,0,0,0,0l0,0h0l0,0h0h0h0l0,0h0h0l0,0c0,0,0,0,0,0h0l0,0h0c0,0,0,0,0,0c0,0,0,0,0,0l0,0
			l0,0c0,0,0,0,0,0c0.1,0,0.1,0,0.3,0.2l0,0c0,0,0.1,0,0.1,0.1c0,0,0,0.1,0.1,0.1l0,0c0,0,0,0,0.1,0c0,0,0,0,0,0c0,0,0,0,0,0
			c0,0,0,0,0,0c0,0,0,0,0,0c0,0,0,0,0.1,0c0,0,0,0,0,0c0,0,0,0,0,0c0,0,0,0,0,0c0,0,0,0,0,0c0,0,0,0,0,0c0,0,0,0,0,0c0,0,0,0,0,0
			l0,0l0,0h0l0,0l0,0l0,0l0,0c0,0,0,0,0,0c0-0.1,0-0.1,0-0.1c0.2,0.2,0.2,0.3,0.3,0.5c0,0,0,0.1,0.1,0.1c0,0,0,0,0,0
			c0,0-0.1,0.1-0.1,0.1l0,0l0,0v0h0c0,0,0,0,0,0.1c0,0,0,0-0.1,0c-0.2,0-0.3-0.1-0.5,0l0,0c0,0.1,0,0.1,0.1,0.3c0,0,0,0,0,0l0,0
			l-0.1,0c-0.2,0-0.3-0.2-0.5-0.1l0,0c-0.1,0-0.1,0-0.3-0.1c0,0,0,0,0,0c0-0.1,0-0.1-0.1-0.3c0,0,0,0,0,0c0,0,0,0,0,0c0,0,0,0,0,0
			c0,0,0,0,0,0c0,0,0,0-0.1,0c0,0,0,0-0.1,0l0,0h0l0,0l0,0c0,0,0,0,0,0l0,0c0,0,0,0,0,0h0c0,0,0,0,0,0c0,0,0,0,0,0c0,0,0,0,0,0
			c-0.1,0-0.1,0.1-0.2,0.1c0,0,0,0,0,0c0,0-0.1,0-0.1,0l0,0c0,0,0,0,0,0h0l0,0l0,0h0h0h0h0l0,0c0,0,0,0,0,0l0,0c0,0,0,0,0,0
			c0,0,0,0,0,0c0,0-0.1,0-0.1,0.1C43.4,9,43,9.3,43,9.3c-0.2,0.2-0.1,0.5-0.2,0.8c0,0,0,0,0,0c0,0,0,0.1,0,0.1c0,0,0,0,0,0
			c0,0,0,0,0,0.1c0,0,0,0-0.1,0.1c0,0,0,0-0.1,0.1c0,0-0.1,0.1-0.1,0.1c0,0-0.4,0.8-0.2,1.1c0.1,0.3,0,0.6,0,0.8
			c0.1,0.1,0.1,0.1,0.1,0.3c0,0,0.1,0.1,0.1,0.1c0,0,0,0,0.1,0c0.6,1,1,0.9,1.1,0.9c0,0,0.1,0,0.1,0c0.3-0.1,0.3-0.1,0.3-0.1
			c0,0,0.1,0,0.2,0c0,0,0.1,0,0.1,0c0,0,0.1,0,0.1-0.1c0.1-0.1,0.1-0.1,0.2-0.2c0.1-0.1,0.1-0.1,0.3-0.1c0.1,0,0.2,0,0.2,0.1
			c0.1,0.1,0.1,0.1,0.2,0.1c0,0,0.1,0,0.1,0c0,0,0,0,0.1,0c0,0,0.1,0,0.1,0c0,0,0,0,0,0c0,0,0,0,0,0.1c0,0,0.1,0,0.1,0
			c0.1,0.2-0.1,0.5,0,0.7c0.3,1.1,0.3,1.1,0.3,1.3l-0.5,1.8c-0.1,0.2-0.3,0.8-0.3,0.9C45,18.2,44.9,18.3,44.7,18.5
			C44.8,18.5,44.7,18.5,44.7,18.5z"/>
		<path class="st0" d="M39.4,20.5C39.4,20.5,39.4,20.5,39.4,20.5C39.4,20.5,39.4,20.5,39.4,20.5C39.4,20.5,39.4,20.5,39.4,20.5
			C39.4,20.5,39.4,20.5,39.4,20.5C39.3,20.5,39.3,20.5,39.4,20.5C39.3,20.5,39.3,20.5,39.4,20.5L39.4,20.5c-0.1,0-0.1,0-0.1,0
			C39.3,20.5,39.3,20.5,39.4,20.5C39.3,20.5,39.3,20.5,39.4,20.5C39.3,20.5,39.4,20.5,39.4,20.5L39.4,20.5L39.4,20.5L39.4,20.5
			L39.4,20.5L39.4,20.5L39.4,20.5L39.4,20.5C39.4,20.5,39.4,20.5,39.4,20.5C39.4,20.5,39.4,20.5,39.4,20.5
			C39.4,20.5,39.4,20.5,39.4,20.5C39.4,20.5,39.4,20.5,39.4,20.5C39.4,20.5,39.4,20.5,39.4,20.5C39.4,20.5,39.4,20.5,39.4,20.5
			C39.4,20.5,39.4,20.5,39.4,20.5z"/>
		<path class="st0" d="M37.3,4.7C37.3,4.7,37.3,4.7,37.3,4.7L37.3,4.7C37.3,4.7,37.3,4.7,37.3,4.7C37.3,4.7,37.3,4.7,37.3,4.7
			C37.3,4.7,37.4,4.7,37.3,4.7C37.4,4.7,37.4,4.7,37.3,4.7C37.4,4.7,37.4,4.7,37.3,4.7C37.4,4.7,37.4,4.7,37.3,4.7L37.3,4.7
			L37.3,4.7C37.4,4.6,37.4,4.6,37.3,4.7C37.4,4.6,37.4,4.7,37.3,4.7z"/>
		<path class="st0" d="M40.8,4.7C40.8,4.7,40.8,4.7,40.8,4.7c-0.1,0-0.2,0-0.2,0c0,0,0,0,0,0c0,0,0,0,0,0c0,0,0,0,0,0c0,0,0,0,0,0
			c0,0,0,0,0,0c0,0,0,0,0,0c0,0,0,0,0,0c0,0,0,0,0,0s0,0,0,0h0h0h0l0,0h0h0l0,0c0,0,0,0,0,0l0,0c0,0,0,0,0,0c0,0,0,0,0,0l0,0l0,0
			c0,0,0,0,0,0h0c0,0,0,0,0,0c0,0,0,0,0,0c0,0,0,0,0,0c0,0,0,0,0,0c0,0,0,0,0,0.1c0,0,0,0,0,0c0,0,0,0,0,0c0,0,0,0,0,0c0,0,0,0,0,0
			c0,0,0,0,0,0c0,0,0,0,0,0c0,0,0,0,0,0l0,0h0l0,0h0h0h0l0,0l0,0c0,0,0,0,0,0l0,0c0,0,0,0,0,0l0,0c0,0,0,0,0,0c0,0,0,0,0,0l0,0
			c0,0,0,0,0,0c0,0,0,0,0.1,0c0,0,0,0,0.1,0c0,0,0,0,0,0c0,0,0,0,0,0c0,0,0,0,0,0c0,0,0,0,0,0c0,0,0,0,0,0l0,0c0,0,0,0,0,0l0,0
			c0,0,0,0,0,0c0,0,0,0,0.1,0c0,0,0,0,0.1,0c0,0,0,0,0,0c0,0,0.1,0,0.1,0c0,0,0.1,0,0.1,0c0,0,0,0,0,0l0,0c0,0,0,0,0,0l0,0
			c0,0,0,0,0,0C40.8,4.8,40.8,4.8,40.8,4.7C40.8,4.8,40.8,4.8,40.8,4.7C40.8,4.8,40.8,4.8,40.8,4.7C40.7,4.8,40.7,4.8,40.8,4.7
			C40.7,4.8,40.7,4.8,40.8,4.7C40.7,4.7,40.7,4.7,40.8,4.7c-0.1,0.1-0.1,0-0.1,0c0,0,0,0,0,0c0,0,0,0,0,0c0,0,0,0,0,0c0,0,0,0,0,0
			c0,0,0,0,0,0c0,0,0,0,0,0l0,0c0,0,0,0,0,0c0,0,0,0,0,0c0,0,0,0,0,0c0,0,0,0,0,0C40.6,4.7,40.7,4.7,40.8,4.7
			C40.7,4.7,40.7,4.7,40.8,4.7C40.8,4.7,40.8,4.7,40.8,4.7C40.8,4.7,40.8,4.7,40.8,4.7C40.8,4.7,40.8,4.7,40.8,4.7L40.8,4.7
			L40.8,4.7L40.8,4.7L40.8,4.7L40.8,4.7L40.8,4.7L40.8,4.7C40.8,4.7,40.8,4.7,40.8,4.7C40.8,4.7,40.8,4.7,40.8,4.7
			C40.8,4.7,40.8,4.7,40.8,4.7z"/>
		<path class="st0" d="M43.6,8.5C43.6,8.5,43.6,8.5,43.6,8.5C43.6,8.5,43.6,8.5,43.6,8.5L43.6,8.5C43.6,8.5,43.6,8.5,43.6,8.5
			C43.6,8.5,43.6,8.5,43.6,8.5C43.6,8.5,43.6,8.5,43.6,8.5C43.6,8.5,43.6,8.5,43.6,8.5C43.6,8.5,43.6,8.5,43.6,8.5z"/>
		<path class="st0" d="M41.6,6.5C41.6,6.5,41.6,6.5,41.6,6.5C41.6,6.5,41.6,6.5,41.6,6.5C41.6,6.5,41.6,6.5,41.6,6.5
			c0,0.1,0,0.1,0,0.1C41.6,6.6,41.6,6.6,41.6,6.5L41.6,6.5C41.6,6.6,41.6,6.5,41.6,6.5z"/>
		<path class="st0" d="M42.4,10.3C42.5,10.3,42.5,10.3,42.4,10.3c0-0.1,0-0.1,0-0.1C42.4,10.3,42.4,10.3,42.4,10.3
			C42.4,10.3,42.4,10.3,42.4,10.3C42.4,10.3,42.4,10.3,42.4,10.3z"/>
		<path class="st0" d="M40.2,10.3L40.2,10.3C40.2,10.3,40.2,10.3,40.2,10.3C40.2,10.3,40.1,10.3,40.2,10.3
			C40.2,10.3,40.2,10.3,40.2,10.3C40.2,10.3,40.2,10.3,40.2,10.3C40.2,10.3,40.2,10.3,40.2,10.3z"/>
		<path class="st0" d="M40.5,10.3C40.5,10.3,40.5,10.3,40.5,10.3c0.1,0,0.1,0,0.2,0c0,0,0,0,0,0C40.6,10.2,40.6,10.3,40.5,10.3z"/>
		<path class="st0" d="M40,5.4C40,5.4,40,5.4,40,5.4C40,5.4,40,5.4,40,5.4c0-0.1,0-0.2,0-0.3c0,0,0,0,0,0l0,0c0,0,0,0,0,0v0h0
			c0,0,0,0,0,0c0,0,0,0,0,0c0,0,0,0,0,0c0,0,0,0,0,0c0,0,0,0,0,0c0,0,0,0,0,0c0,0,0,0,0,0c0,0,0,0-0.1,0c0,0,0,0,0,0l0,0
			c0,0,0,0,0,0c0,0,0,0,0.1,0c0,0,0,0,0,0h0l0,0c0,0,0,0,0,0c0-0.1-0.1-0.1-0.1-0.1c0,0,0,0,0,0c0,0,0,0,0,0c0,0,0,0,0,0h0
			c0-0.1,0-0.1,0-0.1c0,0,0,0,0,0c0,0,0,0,0,0c0,0,0,0,0,0c0,0,0,0,0,0c0,0,0,0,0,0l0,0c0,0-0.1,0-0.1,0c0,0,0,0,0,0h0h0h0h0h0h0h0
			h0l0,0c0,0,0,0,0,0c0,0,0,0,0,0c0,0,0,0,0,0c0,0,0,0,0,0c0,0,0,0,0,0c0,0,0,0,0,0c0,0,0,0,0,0c0,0,0,0,0,0c0,0,0,0,0,0
			c0,0,0,0,0,0c0,0,0,0,0,0l0,0c0,0,0,0,0,0c0,0,0,0,0,0c0,0,0,0,0,0l0,0h0h0h0h0h0h0l0,0h0c0,0,0,0,0,0c0,0,0,0-0.1,0c0,0,0,0,0,0
			c0,0,0,0,0,0c0,0,0,0,0,0c0,0,0,0,0,0c0,0,0,0,0,0h0c0,0,0,0,0,0h0h0h0h0h0h0h0h0h0h0h0h0h0l0,0h0c0,0,0,0,0,0c0,0-0.1,0-0.1,0
			c-0.2,0-0.2,0-0.2,0h0c0,0,0,0,0,0c0,0,0,0,0,0c0,0,0,0,0,0c0,0,0,0,0,0c0,0,0,0,0,0c0,0,0,0,0,0l0,0h0h0h0h0h0h0h0h0h0l0,0
			c0,0,0,0,0,0c0,0,0,0,0,0c-0.1,0-0.1,0-0.2,0c0,0,0,0,0,0c0,0,0,0,0,0c0,0,0,0,0,0h0c0,0,0,0,0,0c0,0,0,0,0,0c0,0,0,0,0,0
			c0,0,0,0,0.1,0c0,0,0,0,0,0c0,0,0,0,0,0c0,0,0,0,0,0c0,0,0,0,0,0c0,0,0,0,0,0c0,0,0,0,0,0c0,0,0,0-0.1,0l0,0c0,0,0,0-0.1,0
			c0,0,0,0,0,0l0,0c0,0,0,0,0,0l0,0c0,0,0,0,0,0c0,0,0,0-0.1,0c0,0,0,0,0,0l0,0l0,0c-0.1,0-0.1,0-0.1,0c0,0,0,0,0,0l0,0h0h0h0h0h0h0
			h0l0,0h0l0,0c-0.1,0-0.1,0-0.1,0c0,0,0,0-0.1,0c0,0,0,0,0,0c0,0,0,0,0,0c-0.2,0.1-0.2,0.1-0.3,0.1c0,0-0.1,0.1-0.1,0.1
			c0,0,0,0,0,0c0,0,0,0,0.1,0c0,0,0,0,0,0c0,0,0,0,0,0c0,0,0,0,0,0c0,0,0,0,0,0c0,0,0,0,0,0l0,0l0,0c0,0,0,0,0,0c0,0,0,0,0,0
			c0,0,0,0-0.1,0c0,0,0,0,0.1,0c0,0,0,0,0,0c0,0-0.1,0-0.1,0c-0.1,0-0.1,0-0.1,0c0,0,0,0,0,0l0,0l0,0c0,0,0,0,0,0c0,0,0,0,0,0
			c0,0,0,0,0,0c0,0,0,0,0,0c0,0,0,0,0,0c0,0,0,0,0.1,0c0.1-0.1,0.1-0.1,0.1-0.1l0,0c0,0,0,0-0.1,0c0,0,0,0-0.1,0.1c0,0,0,0,0,0
			c0,0,0,0,0,0c0,0,0,0,0,0c0,0,0,0,0,0c0,0,0,0,0,0c0,0,0,0-0.1,0c0,0,0,0-0.1,0.1c0,0,0,0,0,0l0,0c0,0,0,0,0,0
			c-0.1,0-0.1,0.1-0.1,0.1c0,0,0,0,0,0c0,0,0.1,0,0.1,0c0,0,0.1-0.1,0.1-0.1c0,0,0,0,0,0c0,0,0,0,0,0c-0.1,0.1-0.1,0.1-0.1,0.1
			c0,0,0,0,0.3,0.1c0,0,0.2,0,0.2-0.1h0h0h0h0h0c0,0,0,0-0.1,0c0,0,0,0,0,0c0,0,0,0,0,0c0,0,0,0,0,0c0,0,0,0,0,0c0,0,0,0,0,0
			c0,0,0,0,0,0c0,0,0,0,0,0c0,0,0,0,0,0c0,0,0,0,0,0l0,0c0,0,0,0,0,0c0,0,0,0,0,0c0,0,0,0,0,0c0,0,0,0,0,0l0,0c0,0,0,0,0,0
			c0,0,0,0,0,0c0,0,0,0,0,0c0,0,0,0,0,0c0,0,0,0,0,0c0,0,0,0,0,0c0,0,0,0,0,0c0,0,0,0,0,0c0,0,0,0,0,0l0,0c0,0,0,0,0,0c0,0,0,0,0,0
			c0,0,0,0,0,0h0c0,0,0,0,0,0c0,0,0,0,0,0c0,0,0,0,0,0c0,0,0,0,0,0c0,0,0,0,0,0c0,0,0,0,0,0c0,0,0,0,0,0c0,0,0,0,0,0c0,0,0,0,0,0
			c0,0,0,0,0,0c0,0,0,0,0,0l0,0h0c0,0,0,0,0,0h0l0,0c0,0,0,0,0,0c0,0,0,0,0,0h0c0,0,0,0,0,0c0,0,0,0,0,0c0,0,0,0,0,0c0,0,0,0,0,0
			c0,0,0,0,0,0c0,0,0,0,0,0c0,0,0,0,0,0c0,0,0,0,0,0s0,0,0,0c0.6-0.2,0.6-0.2,0.7-0.2c0,0,0,0,0,0c0,0,0,0,0,0c0,0,0,0,0,0
			c0,0,0,0,0,0c0,0,0,0,0,0c0,0,0,0,0,0c0,0,0,0,0,0c0,0,0,0,0,0c0,0,0,0,0,0c0,0,0,0,0,0c0,0,0,0,0,0c-0.3,0.1-0.3,0.1-0.3,0.1
			c0,0,0,0,0,0c0,0,0,0,0,0c0,0,0,0,0,0.1c0,0,0,0,0,0c0,0,0.1,0,0.1,0c0,0,0,0,0,0h0c0.2,0,0.2,0,0.2,0.1c0,0.1,0,0.2,0,0.3
			c0,0,0,0,0,0c0,0,0,0,0,0c0,0,0,0,0,0c0,0,0,0,0,0.1c0,0.1,0,0.1,0,0.1c0,0,0,0,0,0c0,0,0,0,0.1,0c0,0,0,0,0,0c0,0,0,0,0,0
			c0,0,0,0,0,0l0,0v0l0,0l0,0h0c0,0,0,0,0,0v0c0,0,0,0-0.1,0.1c-0.1,0.1-0.1,0.2-0.1,0.2c0,0.1,0.2,0.5,0.3,0.5l0,0c0,0,0,0,0,0
			c0,0,0,0,0,0c0.1,0,0.1,0.1,0.2,0.1c0,0,0,0,0.1-0.1c0,0,0,0,0,0l0-0.1c0,0,0,0,0,0c0,0,0,0,0,0c0,0,0,0,0,0L39.1,6
			c0.1,0,0.2,0,0.3-0.1c0.2-0.2,0.2-0.2,0.2-0.2c0,0,0,0,0,0C39.8,5.7,40.1,5.5,40,5.4C40,5.4,40,5.4,40,5.4z"/>
		<path class="st0" d="M42.5,7.3c0.1,0,0.1-0.1,0.1-0.1c0,0,0,0,0,0c0,0,0,0,0,0c0,0,0,0,0,0c0,0,0,0,0,0c0,0,0,0,0-0.1c0,0,0,0,0,0
			l0,0c0,0,0,0-0.1-0.1c0,0,0,0,0,0c0,0,0,0-0.2-0.1c-0.1,0-0.1-0.1-0.3-0.2c0,0,0,0,0,0c0,0,0,0,0,0c0-0.1,0-0.1,0-0.1c0,0,0,0,0,0
			c0,0,0,0-0.1,0c0,0,0,0,0,0c0,0,0,0,0,0c0,0,0,0,0,0c0,0,0,0,0,0c0,0,0,0,0,0c0,0,0,0,0,0c0,0,0,0,0,0c0,0,0,0,0,0c0,0,0,0,0,0
			c0,0,0,0,0,0c0,0,0,0,0,0c0,0,0,0,0,0c0,0,0,0,0,0c0,0,0,0,0,0c0,0,0,0.1-0.1,0.1h0h0h0h0l0,0h0h0h0h0h0l0,0h0h0h0h0c0,0,0,0,0,0
			c0,0,0,0,0,0c0,0,0,0,0,0c0,0,0,0,0,0c0,0,0,0,0,0c0,0,0,0,0,0c0,0,0,0,0,0c0,0,0,0,0,0c0,0,0,0,0,0c0,0,0,0,0,0l0,0c0,0,0,0,0,0
			c0,0,0,0,0,0c0,0,0,0,0,0c0,0,0,0,0,0l0,0h0c0,0,0,0,0,0c0,0.1,0.1,0.1,0.1,0.1c0,0,0,0,0,0c0,0,0,0,0.1,0c0,0-0.1,0-0.1,0
			c0,0,0,0,0,0c0,0,0,0,0,0c0,0,0,0,0,0.1c0,0-0.1,0-0.1,0c0,0,0.1,0.1,0.1,0.1c0,0,0,0,0.1,0.1c0,0,0,0.1,0,0.1
			c0.1,0.1,0.1,0.1,0.1,0.1c0,0,0,0,0,0c0,0,0,0,0,0c0,0,0.1-0.1,0.1-0.1c0,0,0,0,0,0c0,0,0,0,0,0l0,0l0,0c0,0,0,0,0-0.1
			c0,0,0-0.1-0.1-0.1c0,0,0,0,0,0c0,0,0,0,0,0c0,0,0,0,0,0c0,0,0,0,0,0c0,0,0,0,0,0l0,0l0,0c0,0,0,0,0,0c0,0,0,0,0,0c0,0,0,0,0,0
			c0,0,0,0,0,0c0,0,0,0,0,0c0,0,0,0,0,0c0.1,0,0.1,0,0.1,0c0,0,0,0,0,0.1c0,0,0,0,0,0c0,0,0,0,0,0l0,0c0,0,0,0,0,0h0c0,0,0,0,0,0
			l0,0c0,0,0,0,0,0c0,0,0,0,0,0c0,0,0,0,0,0c0,0,0,0,0,0c0,0,0,0,0,0c0,0,0,0,0,0c0,0,0,0,0,0c0,0,0,0,0,0c0,0,0,0,0,0
			c0,0,0,0,0,0.1c0,0,0,0,0,0c0,0,0.1,0,0.1,0.1c0,0,0,0,0,0c0,0,0,0,0,0c0,0,0,0,0,0c0,0,0,0,0,0c0,0,0,0,0,0c0,0,0,0,0,0
			c0,0,0,0,0,0c0,0,0,0,0,0c0,0,0,0,0,0c0,0,0,0,0,0C42.3,7.4,42.4,7.3,42.5,7.3z"/>
		<path class="st0" d="M40.6,5.8C40.5,5.8,40.5,5.8,40.6,5.8L40.6,5.8c-0.1,0-0.1,0-0.2,0.1l0,0h0h0h0h0l0,0h0h0c0,0,0,0,0,0
			c0,0,0,0,0,0c0,0,0,0,0,0h0l0,0h0h0l0,0h0h0h0h0h0l0,0l0,0c0,0,0,0,0,0c0,0,0,0,0,0c0,0,0,0,0,0c0,0,0,0,0,0l0,0c0,0,0,0,0,0
			c0,0,0,0,0,0c0,0-0.1-0.1-0.1-0.1c0,0,0,0,0,0c0,0,0,0,0,0c0,0,0,0,0,0c0,0,0,0,0,0c0,0,0,0,0,0c0,0,0,0,0,0c0,0,0,0.1,0,0.1
			c0,0,0.1,0,0.1,0c0,0,0,0,0,0c0,0,0.1,0,0.1,0c0,0,0,0,0,0c0.1,0,0.2,0,0.2,0c0,0,0,0,0,0c0.1,0,0.2-0.1,0.2-0.2c0,0,0,0,0,0
			C40.7,5.9,40.6,5.8,40.6,5.8z"/>
		<path class="st0" d="M37.2,4.7C37.2,4.7,37.2,4.7,37.2,4.7C37.1,4.7,37.1,4.7,37.2,4.7C37.2,4.7,37.2,4.7,37.2,4.7L37.2,4.7
			C37.2,4.7,37.2,4.7,37.2,4.7C37.1,4.7,37.1,4.7,37.2,4.7C37.1,4.7,37.1,4.7,37.2,4.7C37.1,4.7,37.1,4.7,37.2,4.7
			C37.1,4.7,37.1,4.7,37.2,4.7C37.1,4.7,37.1,4.7,37.2,4.7c-0.1,0-0.1,0-0.1,0c0,0,0,0,0,0c0,0,0,0,0,0C37.1,4.7,37.1,4.7,37.2,4.7
			c0-0.1,0-0.1,0-0.1c0,0,0,0,0,0c0,0-0.1,0-0.3,0.1c0,0,0,0,0,0c0,0,0,0,0,0c0,0,0,0-0.1,0c0,0,0,0,0,0c0,0,0,0,0.1,0
			c0,0,0.1,0,0.1,0c0,0,0,0,0,0C37,4.8,37.1,4.8,37.2,4.7C37.1,4.8,37.2,4.7,37.2,4.7C37.2,4.7,37.2,4.7,37.2,4.7z"/>
		<path class="st0" d="M37.8,7.6c-0.1,0-0.1-0.1-0.1-0.1c0,0,0-0.1,0.1-0.1c-0.1,0-0.2,0.1-0.3,0.2c-0.1,0.1-0.1,0.1-0.1,0.1
			c0,0,0,0.1,0,0.1c0.1,0,0.1,0,0.1,0c0,0,0.1,0,0.1,0c0,0,0,0,0,0c0,0,0,0,0.1,0.1c0,0,0.1,0,0.1,0C37.8,8,37.8,8,37.9,8
			c0,0,0,0,0,0c0,0,0,0,0-0.1C38,7.9,38,7.9,37.8,7.6C37.9,7.6,37.8,7.6,37.8,7.6z"/>
		<path class="st0" d="M34.7,11.3c-0.2-0.2-0.3-0.3-0.4-0.4c0,0,0,0-0.1-0.1c-0.1,0-0.1-0.1-0.2-0.1c0,0-0.1,0-0.1,0c0,0,0,0,0,0
			c-0.1,0-0.2,0.1-0.3,0.2c0.1,0,0.2,0,0.3,0c0.1,0.1,0.1,0.1,0.2,0.2c0,0,0.1,0,0.1,0c0,0,0,0,0.1,0.3c0,0,0.1,0,0.1,0
			C34.6,11.4,34.6,11.4,34.7,11.3C34.7,11.3,34.7,11.3,34.7,11.3z"/>
		<path class="st0" d="M37.1,4.9L37.1,4.9c0,0-0.1,0-0.2,0c0,0,0,0,0,0c0,0,0,0-0.1,0c0,0,0,0-0.1,0.1c0,0,0,0,0,0c0,0,0.1,0,0.2,0
			C36.9,5,37.1,4.9,37.1,4.9L37.1,4.9L37.1,4.9z"/>
		<path class="st0" d="M37.3,4.8C37.3,4.8,37.4,4.8,37.3,4.8C37.4,4.8,37.4,4.8,37.3,4.8C37.3,4.7,37.3,4.8,37.3,4.8
			c0-0.1,0-0.1,0-0.1l0,0C37.3,4.7,37.3,4.7,37.3,4.8c-0.1-0.1-0.1,0-0.1,0c0,0,0,0,0,0c0,0,0,0,0,0c0,0,0,0,0,0c0,0,0,0,0,0h0h0
			l0,0h0h0h0c0,0,0.1,0,0.1,0S37.2,4.8,37.3,4.8z"/>
		<path class="st0" d="M35.2,11.4L35.2,11.4C35.2,11.4,35.1,11.4,35.2,11.4C35.1,11.4,35.1,11.4,35.2,11.4c0,0,0,0-0.3,0
			c0,0.1,0,0.1-0.2,0.1c0.1,0.1,0.3,0.1,0.4,0.2c0,0,0,0,0,0c0,0,0.1-0.1,0.2-0.1l0,0c0,0,0.1,0,0.1,0c0,0,0,0,0-0.1
			C35.4,11.7,35.4,11.5,35.2,11.4z"/>
		<path class="st0" d="M37.5,4.7C37.5,4.7,37.4,4.7,37.5,4.7C37.4,4.7,37.4,4.7,37.5,4.7C37.4,4.7,37.4,4.7,37.5,4.7L37.5,4.7
			L37.5,4.7L37.5,4.7C37.4,4.7,37.4,4.7,37.5,4.7C37.4,4.7,37.4,4.7,37.5,4.7C37.5,4.7,37.5,4.7,37.5,4.7
			C37.5,4.7,37.5,4.7,37.5,4.7C37.5,4.7,37.5,4.7,37.5,4.7C37.5,4.7,37.5,4.7,37.5,4.7L37.5,4.7L37.5,4.7L37.5,4.7
			C37.5,4.7,37.5,4.7,37.5,4.7C37.5,4.7,37.5,4.7,37.5,4.7c0.1,0,0.1,0,0.2,0c0,0,0,0,0,0c0,0,0,0,0,0c0,0,0,0,0,0c0,0,0,0-0.1,0
			c0,0,0,0,0,0C37.6,4.6,37.6,4.6,37.5,4.7C37.5,4.6,37.5,4.6,37.5,4.7C37.5,4.6,37.5,4.6,37.5,4.7z"/>
		<path class="st0" d="M43.9,8C43.9,8.1,43.9,8.1,43.9,8C43.9,8.1,43.9,8.1,43.9,8C43.9,8.1,43.9,8.1,43.9,8
			C43.9,8.1,43.9,8.1,43.9,8C43.9,8.1,43.9,8.1,43.9,8C43.9,8.1,43.9,8.1,43.9,8c0.1,0.1,0.1,0.1,0.1,0.1c0,0,0,0,0,0c0,0,0,0,0,0.1
			c0,0,0,0,0,0c0,0,0,0,0,0c0,0,0.1,0.1,0.1,0.1c0,0,0,0,0,0c0,0,0,0,0,0l0,0l0,0h0c0,0,0,0,0,0c0,0,0,0,0,0l0,0c0,0,0,0,0,0
			c0,0,0,0,0,0c0,0,0,0,0,0c0,0,0,0,0,0c0,0,0,0,0,0l0,0l0,0c0,0,0,0,0,0c0,0,0,0,0,0c0,0,0,0,0,0c0,0,0,0,0,0c0,0,0,0,0,0
			c0,0,0,0,0,0c0,0,0,0,0,0c0,0,0-0.1-0.1-0.1c0,0,0,0,0,0C44,8.1,44,8.1,43.9,8C43.9,8,43.9,8,43.9,8C43.9,8,43.9,8,43.9,8
			C43.9,8,43.9,8,43.9,8C43.9,8,43.9,8,43.9,8C43.9,8,43.9,8,43.9,8C43.9,8,43.9,8,43.9,8C43.9,8,43.9,8,43.9,8
			C43.9,8,43.9,8,43.9,8C43.9,8,43.9,8,43.9,8C43.9,8,43.9,8,43.9,8C43.9,8,43.9,8,43.9,8C43.9,8,43.9,8,43.9,8
			C43.9,8,43.9,8,43.9,8C43.9,8,43.9,8,43.9,8C43.9,8,43.9,8,43.9,8C43.9,8,43.9,8,43.9,8C43.9,8,43.9,8,43.9,8z"/>
		<path class="st0" d="M37.3,4.6C37.3,4.6,37.3,4.6,37.3,4.6c0.1,0,0.2,0,0.2,0c0,0,0,0,0,0c0,0,0,0,0,0c0,0,0,0,0,0c0,0,0,0,0,0v0
			h0h0l0,0h0l0,0h0h0h0c0,0,0,0,0,0h0c0,0,0,0,0,0c0,0,0,0,0,0h0c0,0,0,0,0,0c0,0,0,0,0,0c0,0,0,0,0,0h0c0,0,0,0,0,0c0,0,0,0,0,0
			C37.4,4.6,37.4,4.6,37.3,4.6C37.4,4.6,37.3,4.6,37.3,4.6C37.3,4.6,37.3,4.6,37.3,4.6L37.3,4.6L37.3,4.6
			C37.3,4.6,37.3,4.6,37.3,4.6L37.3,4.6C37.3,4.6,37.3,4.6,37.3,4.6C37.3,4.6,37.3,4.6,37.3,4.6C37.3,4.6,37.3,4.6,37.3,4.6
			C37.3,4.6,37.3,4.6,37.3,4.6C37.2,4.6,37.2,4.6,37.3,4.6C37.2,4.6,37.2,4.6,37.3,4.6C37.2,4.6,37.3,4.6,37.3,4.6
			C37.3,4.6,37.3,4.6,37.3,4.6z"/>
		<path class="st0" d="M36.4,6C36.4,6,36.4,6,36.4,6L36.4,6c0,0,0.1,0,0.1,0c0,0,0,0,0,0c0,0,0,0,0,0C36.5,5.9,36.4,5.9,36.4,6z"/>
		<path class="st0" d="M45.5,8.5C45.5,8.5,45.5,8.5,45.5,8.5c0,0-0.1,0-0.1,0c0,0,0,0,0,0C45.4,8.5,45.4,8.6,45.5,8.5
			C45.5,8.5,45.5,8.5,45.5,8.5z"/>
		<path class="st0" d="M37.3,5.4C37.3,5.4,37.3,5.4,37.3,5.4c0,0-0.1,0-0.1,0c0,0,0,0,0,0.1C37.2,5.5,37.2,5.5,37.3,5.4
			C37.3,5.4,37.3,5.4,37.3,5.4z"/>
		<path class="st0" d="M36.1,6.7C36.1,6.7,36.1,6.7,36.1,6.7L36.1,6.7c0.1,0,0.1,0,0.1,0c0,0,0,0,0,0C36.2,6.6,36.2,6.6,36.1,6.7
			C36.1,6.6,36.1,6.6,36.1,6.7z"/>
		<path class="st0" d="M34.5,10.7C34.5,10.7,34.5,10.7,34.5,10.7c0-0.1,0-0.1,0-0.2C34.4,10.6,34.4,10.7,34.5,10.7z"/>
		<path class="st0" d="M34.6,10.4C34.6,10.4,34.6,10.4,34.6,10.4c0-0.1,0-0.1,0-0.1c0,0-0.1,0-0.1,0.1
			C34.5,10.3,34.5,10.3,34.6,10.4C34.6,10.4,34.6,10.4,34.6,10.4z"/>
		<path class="st0" d="M36.5,6.1L36.5,6.1C36.5,6.1,36.5,6.1,36.5,6.1C36.5,6.1,36.5,6.1,36.5,6.1L36.5,6.1L36.5,6.1
			C36.5,6.1,36.5,6.1,36.5,6.1C36.6,6.1,36.6,6.1,36.5,6.1C36.6,6.1,36.6,6,36.5,6.1C36.6,6,36.6,6,36.5,6.1C36.6,6,36.5,6,36.5,6.1
			z"/>
		<path class="st0" d="M37.4,20.3C37.4,20.3,37.4,20.3,37.4,20.3C37.4,20.3,37.4,20.3,37.4,20.3C37.4,20.3,37.4,20.3,37.4,20.3
			c0.1,0,0.1,0,0.1,0c0,0,0,0,0,0C37.4,20.3,37.4,20.3,37.4,20.3C37.4,20.3,37.4,20.3,37.4,20.3z"/>
		<path class="st0" d="M37.8,4.6C37.8,4.6,37.8,4.6,37.8,4.6C37.8,4.6,37.8,4.6,37.8,4.6C37.7,4.6,37.7,4.6,37.8,4.6
			C37.7,4.6,37.7,4.6,37.8,4.6C37.8,4.6,37.8,4.6,37.8,4.6z"/>
		<path class="st0" d="M40.5,4.5C40.5,4.5,40.5,4.5,40.5,4.5C40.5,4.5,40.5,4.5,40.5,4.5L40.5,4.5L40.5,4.5L40.5,4.5
			C40.5,4.5,40.5,4.5,40.5,4.5C40.5,4.5,40.5,4.5,40.5,4.5C40.5,4.5,40.5,4.5,40.5,4.5C40.5,4.5,40.5,4.5,40.5,4.5z"/>
		<path class="st0" d="M42.1,10.4C42.1,10.4,42.1,10.4,42.1,10.4C42.1,10.4,42.1,10.4,42.1,10.4C42.1,10.4,42.1,10.4,42.1,10.4
			C42.1,10.4,42.1,10.4,42.1,10.4c0.1,0,0.1,0,0.1-0.1c0,0,0,0,0,0C42.1,10.3,42.1,10.3,42.1,10.4z"/>
		<path class="st0" d="M37.2,20.3C37.2,20.3,37.2,20.3,37.2,20.3C37.2,20.3,37.2,20.3,37.2,20.3C37.2,20.3,37.2,20.3,37.2,20.3
			C37.2,20.3,37.2,20.3,37.2,20.3C37.2,20.3,37.2,20.3,37.2,20.3C37.2,20.3,37.2,20.3,37.2,20.3C37.2,20.3,37.2,20.3,37.2,20.3
			C37.2,20.3,37.2,20.3,37.2,20.3z"/>
		<path class="st0" d="M36.7,5.9C36.7,6,36.7,6,36.7,5.9C36.7,6,36.8,6,36.7,5.9L36.7,5.9C36.8,5.9,36.8,5.9,36.7,5.9
			C36.8,5.9,36.8,5.9,36.7,5.9z"/>
		<path class="st0" d="M40.7,4.6L40.7,4.6L40.7,4.6L40.7,4.6L40.7,4.6L40.7,4.6L40.7,4.6C40.7,4.6,40.7,4.6,40.7,4.6L40.7,4.6
			L40.7,4.6C40.7,4.6,40.7,4.6,40.7,4.6C40.7,4.6,40.7,4.6,40.7,4.6C40.7,4.6,40.7,4.6,40.7,4.6L40.7,4.6
			C40.7,4.6,40.7,4.6,40.7,4.6L40.7,4.6L40.7,4.6C40.7,4.6,40.7,4.6,40.7,4.6L40.7,4.6L40.7,4.6L40.7,4.6L40.7,4.6L40.7,4.6
			L40.7,4.6L40.7,4.6C40.7,4.6,40.7,4.6,40.7,4.6L40.7,4.6L40.7,4.6L40.7,4.6L40.7,4.6L40.7,4.6L40.7,4.6L40.7,4.6L40.7,4.6
			L40.7,4.6L40.7,4.6L40.7,4.6C40.7,4.6,40.7,4.6,40.7,4.6L40.7,4.6L40.7,4.6L40.7,4.6L40.7,4.6C40.6,4.6,40.6,4.6,40.7,4.6
			L40.7,4.6C40.7,4.6,40.7,4.6,40.7,4.6C40.7,4.6,40.7,4.6,40.7,4.6z"/>
	</g>
</g>
</svg>
