<?xml version="1.0" encoding="utf-8"?>
<!-- Generator: Adobe Illustrator 21.0.0, SVG Export Plug-In . SVG Version: 6.00 Build 0)  -->
<svg version="1.1" id="Layer_1" xmlns="http://www.w3.org/2000/svg" xmlns:xlink="http://www.w3.org/1999/xlink" x="0px" y="0px"
	 viewBox="0 0 47.8 25.3" style="enable-background:new 0 0 47.8 25.3;" xml:space="preserve">
<style type="text/css">
	.st0{fill:none;}
	.st1{fill:#AC0000;}
	.st2{fill:url(#SVGID_1_);}
	.st3{fill:url(#SVGID_2_);}
	.st4{fill:url(#SVGID_3_);}
	.st5{fill:url(#SVGID_4_);}
	.st6{fill:url(#SVGID_5_);}
	.st7{fill:url(#SVGID_6_);}
	.st8{fill:url(#SVGID_7_);}
	.st9{fill:url(#SVGID_8_);}
	.st10{fill:url(#SVGID_9_);}
	.st11{fill:url(#SVGID_10_);}
	.st12{fill:url(#SVGID_11_);}
	.st13{fill:url(#SVGID_12_);}
	.st14{fill:url(#SVGID_13_);}
	.st15{fill:url(#SVGID_14_);}
	.st16{fill:url(#SVGID_15_);}
	.st17{fill:url(#SVGID_16_);}
	.st18{fill:url(#SVGID_17_);}
	.st19{fill:url(#SVGID_18_);}
	.st20{fill:url(#SVGID_19_);}
	.st21{fill:url(#SVGID_20_);}
	.st22{fill:url(#SVGID_21_);}
	.st23{fill:url(#SVGID_22_);}
	.st24{fill:url(#SVGID_23_);}
	.st25{fill:url(#SVGID_24_);}
	.st26{fill:url(#SVGID_25_);}
	.st27{fill:url(#SVGID_26_);}
	.st28{fill:url(#SVGID_27_);}
	.st29{fill:url(#SVGID_28_);}
	.st30{fill:url(#SVGID_29_);}
	.st31{fill:url(#SVGID_30_);}
	.st32{fill:url(#SVGID_31_);}
	.st33{fill:url(#SVGID_32_);}
	.st34{fill:url(#SVGID_33_);}
	.st35{fill:url(#SVGID_34_);}
	.st36{fill:url(#SVGID_35_);}
	.st37{fill:url(#SVGID_36_);}
	.st38{fill:url(#SVGID_37_);}
	.st39{fill:url(#SVGID_38_);}
	.st40{fill:url(#SVGID_39_);}
	.st41{fill:url(#SVGID_40_);}
	.st42{fill:url(#SVGID_41_);}
	.st43{fill:url(#SVGID_42_);}
	.st44{fill:url(#SVGID_43_);}
	.st45{fill:url(#SVGID_44_);}
	.st46{fill:url(#SVGID_45_);}
	.st47{fill:url(#SVGID_46_);}
	.st48{fill:url(#SVGID_47_);}
	.st49{fill:url(#SVGID_48_);}
	.st50{fill:url(#SVGID_49_);}
	.st51{fill:url(#SVGID_50_);}
	.st52{fill:url(#SVGID_51_);}
</style>
<pattern  y="25.3" width="45" height="45" patternUnits="userSpaceOnUse" id="New_Pattern_Swatch_2" viewBox="0 -45 45 45" style="overflow:visible;">
	<g>
		<rect y="-45" class="st0" width="45" height="45"/>
		<rect y="-45" class="st1" width="45" height="45"/>
	</g>
</pattern>
<title>nav2</title>
<g>
	<g>
		<pattern  id="SVGID_1_" xlink:href="#New_Pattern_Swatch_2" patternTransform="matrix(0.6429 0 0 0.6226 -3115.9854 -2991.3215)">
		</pattern>
		<polygon class="st2" points="18.8,14.3 25.7,14.3 25.7,16.6 29.6,12.6 25.7,8.6 25.7,10.9 18.8,10.9 		"/>
	</g>
	<g>
		<pattern  id="SVGID_2_" xlink:href="#New_Pattern_Swatch_2" patternTransform="matrix(0.6429 0 0 0.6226 -3115.9854 -2991.3215)">
		</pattern>
		<path class="st3" d="M41,19.4c0,0-0.1,0-0.1,0c0,0-0.1,0-0.1,0l0,0l0.2,0.6l0,0c0.1,0,0.1,0,0.2-0.1c0,0,0.1,0,0.1-0.1
			c0.1-0.1,0.1-0.2,0.1-0.3c0-0.1,0-0.1-0.1-0.1C41.1,19.5,41.1,19.4,41,19.4z"/>
		<pattern  id="SVGID_3_" xlink:href="#New_Pattern_Swatch_2" patternTransform="matrix(0.6429 0 0 0.6226 -3115.9854 -2991.3215)">
		</pattern>
		<path class="st4" d="M37.5,6C37.5,6,37.5,6,37.5,6c-0.1,0.1-0.2,0.1-0.2,0l0,0l0.1,0.4l0.2,0c0,0,0.1,0,0.1,0c0,0,0,0,0.1,0
			c0,0,0,0,0.1-0.1c0,0,0-0.1,0-0.1c0,0,0-0.1-0.1-0.1C37.6,6,37.6,6,37.5,6C37.6,6,37.5,6,37.5,6z"/>
		<pattern  id="SVGID_4_" xlink:href="#New_Pattern_Swatch_2" patternTransform="matrix(0.6429 0 0 0.6226 -3115.9854 -2991.3215)">
		</pattern>
		<path class="st5" d="M37.7,19.4C37.7,19.4,37.7,19.4,37.7,19.4c-0.1,0-0.1-0.1-0.1-0.1l-0.1,0l-0.1,0.3l0,0c0,0,0,0,0,0
			c0,0,0.1,0,0.1,0c0,0,0.1,0,0.1,0.1c0,0,0,0,0,0c0,0,0,0,0.1,0c0,0,0,0,0-0.1C37.8,19.5,37.8,19.5,37.7,19.4
			C37.7,19.4,37.7,19.4,37.7,19.4z"/>
		<pattern  id="SVGID_5_" xlink:href="#New_Pattern_Swatch_2" patternTransform="matrix(0.6429 0 0 0.6226 -3115.9854 -2991.3215)">
		</pattern>
		<path class="st6" d="M40,19.6c-0.1,0-0.1,0.1-0.2,0.1c0,0.1-0.1,0.1-0.1,0.2c0,0.1,0.1,0.2,0.1,0.2c0.1,0.1,0.1,0.1,0.2,0.1
			c0.1,0,0.1-0.1,0.2-0.1c0-0.1,0.1-0.2,0.1-0.2c0-0.1,0-0.2-0.1-0.2C40.1,19.6,40.1,19.6,40,19.6z"/>
		<pattern  id="SVGID_6_" xlink:href="#New_Pattern_Swatch_2" patternTransform="matrix(0.6429 0 0 0.6226 -3115.9854 -2991.3215)">
		</pattern>
		<path class="st7" d="M38.2,12c0.2-0.3,0.5-0.5,0.8-0.5c0.3,0,0.6,0.2,0.8,0.4c0.1,0,0.3-0.1,0.4-0.2c0.2-0.1,0.3-0.2,0.5-0.4
			c0.1-0.2,0.2-0.4,0.2-0.6c0-0.2-0.1-0.4-0.2-0.6c-0.1-0.2-0.2-0.3-0.4-0.4c-0.2-0.1-0.3-0.2-0.5-0.2c-0.2,0-0.4-0.1-0.7-0.1h-1.2
			v2.6L38.2,12C38.2,12,38.2,12,38.2,12z"/>
		<pattern  id="SVGID_7_" xlink:href="#New_Pattern_Swatch_2" patternTransform="matrix(0.6429 0 0 0.6226 -3115.9854 -2991.3215)">
		</pattern>
		<path class="st8" d="M37.3,5.9L37.3,5.9C37.3,5.8,37.3,5.8,37.3,5.9c0.1-0.1,0.2-0.1,0.2,0c0,0,0,0,0,0c0,0,0,0,0-0.1
			c0,0,0-0.1,0-0.1c0,0,0,0,0-0.1c0,0,0,0-0.1,0c0,0,0,0-0.1,0c0,0-0.1,0-0.1,0l-0.1,0L37.3,5.9L37.3,5.9z"/>
		<pattern  id="SVGID_8_" xlink:href="#New_Pattern_Swatch_2" patternTransform="matrix(0.6429 0 0 0.6226 -3115.9854 -2991.3215)">
		</pattern>
		<path class="st9" d="M37.6,19.8C37.6,19.8,37.6,19.8,37.6,19.8c-0.1,0-0.1,0-0.2,0c0,0-0.1,0-0.1-0.1l0,0l-0.1,0.4l0.2,0
			c0,0,0.1,0,0.1,0c0,0,0.1,0,0.1,0c0,0,0.1,0,0.1,0c0,0,0-0.1,0-0.1C37.7,20,37.7,19.9,37.6,19.8C37.7,19.9,37.7,19.8,37.6,19.8z"
			/>
		<pattern  id="SVGID_9_" xlink:href="#New_Pattern_Swatch_2" patternTransform="matrix(0.6429 0 0 0.6226 -3115.9854 -2991.3215)">
		</pattern>
		<path class="st10" d="M40,16c0.2,0,0.4-0.1,0.6-0.2c0.2-0.1,0.4-0.3,0.5-0.5c0.1-0.2,0.2-0.5,0.2-0.7c0-0.3-0.1-0.6-0.3-0.9
			c-0.2-0.3-0.4-0.4-0.7-0.5c-0.1,0-0.3-0.1-0.4-0.1c-0.2,0.3-0.5,0.5-0.9,0.5c-0.4,0-0.7-0.2-0.9-0.5h-0.3v3.1h1.3
			C39.5,16.1,39.8,16,40,16z"/>
		
			<pattern  id="SVGID_10_" xlink:href="#New_Pattern_Swatch_2" patternTransform="matrix(0.6429 0 0 0.6226 -3115.9854 -2991.3215)">
		</pattern>
		<path class="st11" d="M39.1,19.6c-0.1,0-0.2,0-0.2,0.1c-0.1,0.1-0.1,0.1-0.1,0.2c0,0.1,0,0.2,0.1,0.2c0.1,0.1,0.1,0.1,0.2,0.1
			c0.1,0,0.1,0,0.2-0.1c0.1-0.1,0.1-0.1,0.1-0.2c0-0.1,0-0.2-0.1-0.2C39.2,19.7,39.1,19.6,39.1,19.6z"/>
		
			<pattern  id="SVGID_11_" xlink:href="#New_Pattern_Swatch_2" patternTransform="matrix(0.6429 0 0 0.6226 -3092.8401 -2992.9963)">
		</pattern>
		<path class="st12" d="M39.1,4.2c-4.7,0-8.5,3.8-8.5,8.5c0,4.7,3.8,8.5,8.5,8.5c4.7,0,8.5-3.8,8.5-8.5C47.6,8,43.8,4.2,39.1,4.2z
			 M46.4,12.5c0,0.1,0,0.1-0.1,0.2c-0.1,0.1-0.1,0.1-0.2,0.1h0l0,0c-0.1,0-0.2,0-0.2-0.1c0,0-0.1-0.1-0.1-0.1c0-0.1,0-0.1,0-0.2
			c0-0.1,0.1-0.3,0.1-0.5c0-0.1,0-0.1,0.1-0.2c0,0,0-0.1,0-0.1s0.1,0.1,0.2,0.2c0.1,0.1,0.2,0.3,0.2,0.4
			C46.4,12.3,46.4,12.4,46.4,12.5z M46.2,11.1c0.1,0.3,0,0.5-0.2,0.5l0,0l0,0c-0.2,0-0.4-0.1-0.4-0.4c0-0.1,0-0.3,0-0.5
			c0-0.2,0.1-0.3,0.1-0.3s0.1,0.1,0.2,0.2C46,10.8,46.1,11,46.2,11.1z M45.2,8.9c0.2,0.2,0.1,0.5,0,0.6l0,0c0,0,0.1,0.1,0.2,0.2
			c0.1,0,0.1,0.1,0.2,0.2c0.1,0.1,0.1,0.1,0.2,0.2c0.2,0.2,0.1,0.5-0.1,0.6l0,0l0,0c-0.2,0.1-0.4-0.1-0.5-0.3c0-0.1,0-0.1,0-0.2
			c0-0.1,0-0.2,0-0.2c0-0.2,0-0.3,0-0.3l0,0c-0.1,0.1-0.4,0-0.5-0.2c-0.1-0.1-0.1-0.3-0.1-0.5c0-0.1,0-0.3,0-0.3s0.1,0,0.3,0.1
			C45,8.7,45.1,8.8,45.2,8.9z M44.5,7.9c0.2,0.2,0.2,0.5,0.1,0.6l0,0l0,0c-0.1,0.1-0.4,0.1-0.5-0.2c-0.1-0.1-0.1-0.3-0.2-0.4
			c0-0.2-0.1-0.3-0.1-0.3s0.1,0,0.3,0.1C44.2,7.8,44.4,7.8,44.5,7.9z M43.6,7.1c0.2,0.1,0.3,0.4,0.2,0.5l0,0l0,0
			c-0.1,0.1-0.4,0.1-0.5-0.1C43.1,7.5,43,7.3,43,7.2c-0.1-0.1-0.1-0.3-0.1-0.3s0.1,0,0.3,0C43.3,7,43.5,7,43.6,7.1z M42.1,6.4
			c0.2,0,0.4,0,0.5,0.1c0.1,0,0.2,0.1,0.3,0.2c0,0.1,0,0.2,0,0.3l0,0l0,0c0,0.1-0.1,0.1-0.2,0.1c-0.1,0-0.2,0-0.3-0.1
			c-0.1-0.1-0.2-0.2-0.3-0.3c-0.1-0.1-0.2-0.2-0.2-0.2S41.9,6.4,42.1,6.4z M40.7,5.5l0.2,0.1c0.1,0,0.1,0,0.2,0.1
			c0.1,0,0.1,0.1,0.2,0.1c0,0.1,0.1,0.1,0.1,0.2c0,0.1,0,0.1,0,0.2c0,0.1,0,0.1-0.1,0.2c0,0.1-0.1,0.1-0.2,0.1c-0.1,0-0.1,0-0.2,0
			c-0.1,0-0.1,0-0.2,0l-0.2-0.1L40.7,5.5z M39.7,5.4c0.1-0.1,0.2-0.1,0.3-0.1c0.1,0,0.2,0.1,0.3,0.2c0.1,0.1,0.1,0.2,0.1,0.4
			c0,0.1-0.1,0.2-0.2,0.3c-0.1,0.1-0.2,0.1-0.3,0.1c-0.1,0-0.2-0.1-0.3-0.2c-0.1-0.1-0.1-0.2-0.1-0.4C39.6,5.6,39.6,5.5,39.7,5.4z
			 M38.7,5.4c0.1-0.1,0.2-0.1,0.3-0.2c0.1,0,0.2,0,0.3,0.1c0.1,0.1,0.1,0.2,0.1,0.4c0,0.1,0,0.3-0.1,0.4c-0.1,0.1-0.2,0.1-0.3,0.1
			c-0.1,0-0.2,0-0.3-0.1c-0.1-0.1-0.1-0.2-0.1-0.4C38.5,5.6,38.6,5.5,38.7,5.4z M38.1,5.3l0.1,0.8l0.3,0l0,0.2l-0.5,0.1l-0.1-1
			L38.1,5.3z M37,5.5C37,5.5,37,5.5,37,5.5l0.3,0c0,0,0.1,0,0.1,0c0,0,0.1,0,0.1,0c0,0,0.1,0,0.1,0.1c0,0,0,0.1,0.1,0.1
			c0,0,0,0.1,0,0.1c0,0,0,0.1-0.1,0.1c0,0,0.1,0,0.1,0.1c0,0,0.1,0.1,0.1,0.2c0,0,0,0.1,0,0.1c0,0,0,0.1-0.1,0.1
			c0,0-0.1,0.1-0.1,0.1c0,0-0.1,0-0.1,0l-0.2,0c0,0,0,0,0,0l-0.1,0c0,0,0-0.1,0.1-0.2l-0.1-0.8c-0.1,0-0.1-0.1-0.2-0.1L37,5.5
			L37,5.5z M35.5,6.4c0.1,0,0.3-0.1,0.5-0.1c0.2,0,0.3,0,0.3,0s-0.1,0.1-0.2,0.2C36,6.7,35.9,6.9,35.8,7c-0.1,0.1-0.2,0.1-0.3,0.1
			c-0.1,0-0.2-0.1-0.2-0.1l0,0l0,0c0-0.1-0.1-0.2,0-0.3C35.2,6.6,35.3,6.5,35.5,6.4z M34.5,7.1C34.6,7,34.8,7,34.9,7
			c0.2,0,0.3,0,0.3,0s0,0.1-0.1,0.3c-0.1,0.1-0.2,0.3-0.2,0.4c-0.2,0.2-0.4,0.2-0.5,0.1l0,0l0,0C34.2,7.5,34.2,7.3,34.5,7.1z
			 M33.6,8c0.1-0.1,0.3-0.2,0.4-0.2c0.1-0.1,0.3-0.1,0.3-0.1s0,0.1-0.1,0.3c0,0.1-0.1,0.3-0.2,0.4c-0.1,0.2-0.4,0.3-0.5,0.2l0,0l0,0
			C33.4,8.4,33.4,8.2,33.6,8z M32.2,10.8c0.1-0.1,0.2-0.2,0.2-0.2l0,0c-0.2-0.1-0.3-0.3-0.1-0.5c0-0.1,0.1-0.1,0.1-0.2
			c0.1-0.1,0.1-0.1,0.2-0.2c0.1-0.1,0.2-0.2,0.2-0.2l0,0c-0.1-0.1-0.2-0.3,0-0.6c0.1-0.1,0.3-0.2,0.4-0.3c0.1-0.1,0.3-0.1,0.3-0.1
			s0,0.1,0,0.3c0,0.2,0,0.3-0.1,0.5c-0.1,0.2-0.3,0.3-0.5,0.2l0,0c0,0,0,0.1,0,0.3c0,0.1,0,0.2,0,0.2c0,0.1,0,0.2,0,0.2
			c-0.1,0.3-0.3,0.4-0.4,0.3l0,0c0,0,0,0.1,0.1,0.3c0,0.2,0.1,0.3,0,0.5c0,0.3-0.2,0.4-0.4,0.4l0,0h0c-0.2,0-0.3-0.3-0.2-0.5
			C32,11,32.1,10.9,32.2,10.8z M32,14.8c0-0.1,0-0.3,0.1-0.5c0-0.2,0.1-0.3,0.1-0.3l0,0c-0.2,0-0.4-0.1-0.4-0.4c0-0.1,0-0.2,0-0.2
			c0-0.1,0.1-0.2,0.1-0.2c0.1-0.1,0.1-0.3,0.1-0.3h0c-0.1,0-0.2,0-0.2-0.1c0,0-0.1-0.1-0.1-0.2c0-0.1,0-0.1,0-0.2
			c0-0.1,0.1-0.3,0.2-0.4c0.1-0.1,0.2-0.2,0.2-0.2s0,0,0,0.1c0,0,0,0.1,0.1,0.2c0.1,0.1,0.1,0.3,0.1,0.5c0,0.1,0,0.1,0,0.2
			c0,0.1,0,0.1-0.1,0.1c-0.1,0.1-0.1,0.1-0.2,0.1h0c0,0,0.1,0.1,0.1,0.2c0,0.1,0.1,0.1,0.1,0.2c0,0.1,0.1,0.1,0.1,0.2
			c0.1,0.3-0.1,0.5-0.2,0.5l0,0c0,0,0.1,0.1,0.2,0.2c0.1,0.1,0.2,0.3,0.3,0.4c0.1,0.2,0,0.5-0.1,0.5l0,0l0,0
			C32.3,15.2,32.1,15.1,32,14.8z M32.5,15.9c0-0.1,0-0.3,0-0.5c0-0.2,0-0.3,0-0.3s0.1,0.1,0.2,0.2c0.1,0.1,0.3,0.2,0.3,0.3
			c0.1,0.2,0.1,0.5-0.1,0.5l0,0l0,0C32.8,16.3,32.5,16.2,32.5,15.9z M33,17c0-0.1-0.1-0.1-0.1-0.2c0-0.1,0-0.2,0-0.3
			c0-0.2,0-0.3,0-0.3s0.1,0.1,0.2,0.1c0.1,0,0.1,0.1,0.2,0.1c0.1,0,0.1,0.1,0.2,0.1c0.2,0.2,0.2,0.4,0,0.5l0,0l0,0
			C33.4,17.3,33.2,17.2,33,17z M34.4,18c-0.1,0.1-0.4,0.1-0.6-0.1c-0.1-0.1-0.1-0.3-0.2-0.5c0-0.2-0.1-0.3-0.1-0.3s0.1,0,0.3,0.1
			c0.1,0.1,0.3,0.1,0.4,0.2C34.5,17.6,34.5,17.9,34.4,18L34.4,18L34.4,18z M36.3,19.3L36.3,19.3c0,0.1-0.1,0.1-0.2,0.2
			c-0.1,0-0.2,0-0.3-0.1c-0.1-0.1-0.2-0.2-0.3-0.4c-0.1-0.1-0.1-0.2-0.1-0.2l0,0c0,0.1-0.1,0.1-0.2,0.1c-0.1,0-0.1,0-0.2,0
			c-0.1,0-0.1-0.1-0.2-0.1c-0.1-0.1-0.2-0.3-0.3-0.4c0-0.1-0.1-0.1-0.1-0.2c0,0,0-0.1,0-0.1s0,0,0.1,0c0,0,0.1,0,0.2,0
			c0.2,0,0.3,0.1,0.4,0.1c0.1,0,0.1,0.1,0.1,0.1c0,0,0.1,0.1,0.1,0.1c0,0.1,0,0.2,0,0.3l0,0c0,0,0.1,0,0.3,0c0.1,0,0.3,0,0.5,0.1
			c0.1,0,0.2,0.1,0.3,0.2C36.3,19.1,36.3,19.2,36.3,19.3L36.3,19.3z M36.7,17.4h-0.9c0-0.4,0.2-1,1.1-1.2V9.3
			c-0.8-0.2-1.1-0.8-1.1-1.2h0.9c0,0,0,0,0,0c0,0.1,0.1,0.3,0.3,0.3H39c0.4,0,0.8,0,1.1,0.1c0.3,0.1,0.6,0.2,0.9,0.4
			c0.3,0.2,0.5,0.5,0.7,0.8c0.2,0.3,0.3,0.7,0.3,1.1c0,0.4-0.1,0.7-0.3,1c-0.1,0.2-0.3,0.5-0.6,0.7c0.4,0.2,0.7,0.5,0.9,0.8
			c0.3,0.4,0.4,0.8,0.4,1.3c0,0.4-0.1,0.8-0.3,1.1c-0.2,0.4-0.5,0.7-0.8,0.9c-0.3,0.2-0.7,0.4-1.2,0.4c-0.2,0-0.6,0-1.2,0h-1.9
			C36.7,17.1,36.7,17.3,36.7,17.4z M37.8,19.9c0,0.1,0,0.1,0,0.2c0,0,0,0.1-0.1,0.1c0,0-0.1,0.1-0.1,0.1c0,0-0.1,0-0.1,0
			c0,0-0.1,0-0.1,0l-0.2,0c0,0-0.1,0-0.1,0l-0.1,0c0,0,0.1-0.1,0.2-0.1l0.2-0.8c-0.1,0-0.1-0.1-0.1-0.2l0.1,0l0,0c0,0,0,0,0,0l0.2,0
			c0,0,0.1,0,0.1,0c0,0,0.1,0,0.1,0.1c0,0,0.1,0.1,0.1,0.1c0,0,0,0.1,0,0.1c0,0,0,0.1-0.1,0.1c0,0-0.1,0-0.1,0.1
			C37.8,19.8,37.8,19.8,37.8,19.9z M38.5,20.4L38,20.4l0.1-1l0.2,0l-0.1,0.8l0.3,0L38.5,20.4z M39.4,20.3c-0.1,0.1-0.2,0.1-0.3,0.1
			c-0.1,0-0.2,0-0.3-0.1c-0.1-0.1-0.1-0.2-0.1-0.4c0-0.1,0-0.3,0.1-0.4c0.1-0.1,0.2-0.1,0.3-0.1c0.1,0,0.2,0.1,0.3,0.1
			c0.1,0.1,0.1,0.2,0.1,0.4C39.5,20.1,39.5,20.2,39.4,20.3z M40.4,20.2c-0.1,0.1-0.2,0.2-0.3,0.2c-0.1,0-0.2,0-0.3-0.1
			c-0.1-0.1-0.2-0.2-0.2-0.3c0-0.1,0-0.3,0.1-0.4c0.1-0.1,0.2-0.2,0.3-0.2c0.1,0,0.2,0,0.3,0.1c0.1,0.1,0.2,0.2,0.2,0.3
			C40.5,20,40.5,20.1,40.4,20.2z M41.3,20c0,0.1-0.1,0.1-0.2,0.1c-0.1,0-0.1,0.1-0.2,0.1l-0.2,0.1l-0.3-0.9l0.2-0.1
			c0.1,0,0.2,0,0.2,0c0.1,0,0.1,0,0.2,0c0.1,0,0.1,0.1,0.2,0.1s0.1,0.1,0.1,0.2c0,0.1,0,0.1,0,0.2C41.4,19.9,41.3,19.9,41.3,20z
			 M42.9,19c-0.1,0.1-0.2,0.3-0.3,0.4c-0.1,0.1-0.2,0.1-0.3,0.1c-0.1,0-0.2-0.1-0.2-0.2l0,0l0,0c0-0.1,0-0.2,0-0.3
			c0-0.1,0.1-0.2,0.3-0.2c0.1,0,0.3,0,0.5-0.1c0.2,0,0.3,0,0.3,0S43,18.8,42.9,19z M43.9,18.1c0,0,0,0.1-0.1,0.2
			c-0.1,0.1-0.2,0.3-0.3,0.4c0,0.1-0.1,0.1-0.2,0.1c-0.1,0-0.1,0-0.2,0c-0.1,0-0.2,0-0.2-0.1l0,0l0,0c0-0.1-0.1-0.2,0-0.3
			c0,0,0-0.1,0.1-0.1c0,0,0.1-0.1,0.1-0.1c0.1-0.1,0.3-0.1,0.4-0.1C43.7,18,43.8,18,43.9,18.1C43.9,18,43.9,18,43.9,18.1
			C43.9,18,43.9,18,43.9,18.1z M44.7,17.4c0,0.2-0.1,0.3-0.2,0.5c-0.2,0.2-0.4,0.2-0.6,0.1l0,0l0,0c-0.1-0.1-0.1-0.4,0.1-0.5
			c0.1-0.1,0.3-0.2,0.4-0.2c0.1-0.1,0.3-0.1,0.3-0.1S44.7,17.2,44.7,17.4z M45.3,16.4c0,0.1,0,0.2,0,0.3c0,0.1,0,0.2-0.1,0.2
			c-0.1,0.3-0.4,0.3-0.5,0.2l0,0l0,0c-0.1-0.1-0.2-0.4,0-0.5c0,0,0.1-0.1,0.2-0.1c0.1-0.1,0.1-0.1,0.2-0.1c0.1-0.1,0.2-0.1,0.2-0.1
			S45.3,16.2,45.3,16.4z M45.8,15.8c-0.1,0.3-0.3,0.4-0.5,0.3l0,0l0,0c-0.1-0.1-0.2-0.3-0.1-0.5c0.1-0.1,0.2-0.2,0.3-0.3
			c0.1-0.1,0.2-0.2,0.2-0.2s0,0.1,0.1,0.3C45.8,15.5,45.8,15.7,45.8,15.8z M45.8,15.1L45.8,15.1L45.8,15.1c-0.2-0.1-0.3-0.3-0.2-0.5
			c0-0.1,0.2-0.3,0.3-0.4C46,14,46,13.9,46,13.9s0,0.1,0.1,0.3c0,0.2,0.1,0.3,0.1,0.5C46.2,15,45.9,15.1,45.8,15.1z M46,13.9
			L46,13.9L46,13.9c-0.2,0-0.3-0.2-0.3-0.5c0-0.1,0-0.1,0.1-0.2c0-0.1,0.1-0.1,0.1-0.2c0.1-0.1,0.1-0.2,0.1-0.2s0.1,0.1,0.1,0.2
			c0,0.1,0.1,0.2,0.1,0.2c0,0.1,0,0.2,0,0.2C46.4,13.8,46.2,14,46,13.9z"/>
		
			<pattern  id="SVGID_12_" xlink:href="#New_Pattern_Swatch_2" patternTransform="matrix(0.6429 0 0 0.6226 -3115.9854 -2991.3215)">
		</pattern>
		<path class="st13" d="M40.9,6.3c0,0,0.1,0,0.1,0c0.1,0,0.1-0.1,0.2-0.2c0,0,0-0.1,0-0.1c0,0,0-0.1-0.1-0.1c0,0-0.1-0.1-0.1-0.1
			c0,0-0.1,0-0.1,0l0,0l-0.2,0.6l0,0C40.8,6.3,40.8,6.3,40.9,6.3z"/>
		
			<pattern  id="SVGID_13_" xlink:href="#New_Pattern_Swatch_2" patternTransform="matrix(0.6429 0 0 0.6226 -3115.9854 -2991.3215)">
		</pattern>
		<path class="st14" d="M39.9,6.2c0.1,0,0.1,0,0.2-0.1C40.2,6,40.3,6,40.3,5.9c0-0.1,0-0.2-0.1-0.2c0-0.1-0.1-0.1-0.2-0.1
			c-0.1,0-0.2,0-0.2,0.1c-0.1,0.1-0.1,0.1-0.1,0.2c0,0.1,0,0.2,0.1,0.2C39.8,6.1,39.9,6.1,39.9,6.2z"/>
		
			<pattern  id="SVGID_14_" xlink:href="#New_Pattern_Swatch_2" patternTransform="matrix(0.6429 0 0 0.6226 -3115.9854 -2991.3215)">
		</pattern>
		<path class="st15" d="M39,6.1c0.1,0,0.1,0,0.2-0.1c0.1-0.1,0.1-0.1,0.1-0.2c0-0.1,0-0.2-0.1-0.2S39.1,5.4,39,5.4
			c-0.1,0-0.2,0-0.2,0.1c-0.1,0.1-0.1,0.1-0.1,0.2c0,0.1,0,0.2,0.1,0.2C38.8,6.1,38.9,6.1,39,6.1z"/>
	</g>
	<g>
		
			<pattern  id="SVGID_15_" xlink:href="#New_Pattern_Swatch_2" patternTransform="matrix(0.6429 0 0 0.6226 -3115.9854 -2991.3215)">
		</pattern>
		<circle class="st16" cx="4.6" cy="18.5" r="0"/>
		
			<pattern  id="SVGID_16_" xlink:href="#New_Pattern_Swatch_2" patternTransform="matrix(0.6429 0 0 0.6226 -3115.9854 -2991.3215)">
		</pattern>
		<circle class="st17" cx="8.1" cy="6.6" r="0"/>
		
			<pattern  id="SVGID_17_" xlink:href="#New_Pattern_Swatch_2" patternTransform="matrix(0.6429 0 0 0.6226 -3092.8401 -2992.9963)">
		</pattern>
		<path class="st18" d="M8.8,4.1c-1.6,0-3,0.4-4.3,1.2c0,0,0,0,0,0c0,0,0,0,0,0c0,0,0,0,0,0c0,0,0,0,0,0c0,0,0,0,0,0c0,0,0,0,0,0
			c0,0,0,0,0,0c0,0-0.1,0-0.1,0c0,0,0,0,0,0c0,0,0,0,0,0c-2.5,1.5-4.2,4.2-4.2,7.4c0,4.8,3.9,8.6,8.6,8.6s8.6-3.9,8.6-8.6
			S13.5,4.1,8.8,4.1z M6,5c0,0-0.1,0.1-0.1,0.1l-0.1,0c0,0-0.1,0-0.1,0l0-0.1l0,0c0,0,0,0,0,0C5.8,5,5.9,5,6,5C6,5,6,5,6,5z
			 M5.6,20.2C5.5,20.2,5.5,20.2,5.6,20.2c-0.2-0.1-0.3-0.1-0.3-0.2c-0.4-0.2-0.6-0.3-0.9-0.5c-0.1,0-0.1-0.1-0.2-0.1c0,0,0,0,0,0
			c0,0,0,0-0.1,0c-0.2-0.1-0.3-0.2-0.5-0.3c0,0,0,0-0.1,0c0,0,0,0-0.1,0c0,0,0,0,0,0c-0.1-0.1-0.2-0.2-0.4-0.4c0,0,0,0,0,0
			c0,0,0,0,0,0c0,0-0.1-0.1-0.1-0.1c-0.1-0.1-0.2-0.2-0.3-0.3c0,0,0,0,0-0.1c0,0,0,0-0.1-0.1c-0.1-0.1-0.2-0.3-0.4-0.4c0,0,0,0,0,0
			c0-0.1-0.1-0.1-0.1-0.2c0,0-0.1-0.1-0.1-0.1c0,0-0.1-0.1-0.1-0.1c0,0-0.1-0.1-0.1-0.1c0,0,0,0,0-0.1c0,0,0,0,0,0l-0.3-0.5
			c-0.1-0.2-0.2-0.4-0.2-0.5c0,0,0,0,0-0.1c-0.1-0.2-0.1-0.3-0.2-0.6c-0.1-0.2-0.1-0.3-0.1-0.5c-0.1-0.3-0.1-0.5-0.2-0.8
			c0-0.2,0-0.4-0.1-0.6c0-0.2,0-0.4,0-0.6c0-0.1,0-0.3,0-0.5c0-0.1,0-0.2,0-0.3c0-0.2,0.1-0.4,0.1-0.6c0.1-0.3,0.1-0.4,0.1-0.7
			c0,0,0,0,0-0.1C1,10.2,1,10,1.1,9.9c0,0,0,0,0,0c0.1-0.2,0.1-0.4,0.2-0.5c0,0,0,0,0-0.1c0,0,0-0.1,0-0.1c0.1-0.2,0.2-0.3,0.3-0.5
			l0.2-0.3c0,0.3-0.3,0.8-0.3,0.8l0,0c-0.1,0.2-0.1,0.8-0.1,0.8l0,0c0.3-0.3,0-0.9,0.4-1.2c-0.3,2.5-0.3,2.5,0.2,2.7
			c0,0,0.1,0,0.1,0c0.1,0,0.1,0,0.1,0l0,0c0.1,0.1,0.1,0.1,0.1,0.1c0.1,0.3,0.2,0.4,0.4,0.5c0,0,0,0,0,0l0,0h0l0,0
			C2.9,13,2.9,13,3.3,13.3c0,0,0,0,0.1,0c0,0,0-0.1,0-0.1c0,0,0.1,0,0.1,0c0.6,0.6-0.4,1.1-0.2,1.8c-0.1,0.2-0.1,0.2,0,0.4
			c0.2,0.5,0.6,1.3,1.3,1.8c0.1,0.1,0.2,0.2,0.2,0.3c0.2,0.8,0.3,1.3,0.3,1.6c0.1,0.7,0.1,0.7,0.2,0.7c0,0,0-0.1,0-0.1
			c0,0,0.1,0.1,0.1,0.1c0,0-0.1,0-0.1,0c0,0,0,0,0,0l0,0.1c0,0,0,0.1,0,0.1c0,0,0,0,0,0c0,0,0.1,0,0.1,0c0,0,0,0.1,0,0.1
			C5.5,20.2,5.5,20.2,5.6,20.2C5.6,20.2,5.6,20.2,5.6,20.2C5.6,20.2,5.6,20.2,5.6,20.2z M7.2,20.7C7.2,20.7,7.2,20.7,7.2,20.7
			C7.2,20.7,7.2,20.7,7.2,20.7C7.2,20.7,7.2,20.7,7.2,20.7C7.2,20.7,7.2,20.7,7.2,20.7C7.2,20.7,7.2,20.7,7.2,20.7L7.2,20.7
			C7.2,20.7,7.2,20.7,7.2,20.7C7.2,20.7,7.2,20.7,7.2,20.7C7.2,20.7,7.2,20.7,7.2,20.7C7.2,20.7,7.2,20.7,7.2,20.7z M14.4,18.7
			C14.3,18.7,14.3,18.7,14.4,18.7C14.3,18.7,14.3,18.7,14.4,18.7c-0.2,0.2-0.3,0.3-0.5,0.4l0,0l0,0c-0.3,0.2-0.4,0.3-0.6,0.4
			c-0.1,0-0.1,0.1-0.2,0.1c-0.1,0.1-0.2,0.1-0.3,0.2c0,0,0,0-0.1,0c0,0-0.1,0-0.1,0.1c-0.1,0.1-0.3,0.1-0.4,0.2c0,0,0,0-0.1,0
			c0,0-0.1,0-0.1,0c0,0-0.1,0-0.1,0.1c-0.1,0-0.2,0.1-0.3,0.1c-0.1,0-0.2,0.1-0.4,0.1c0,0-0.1,0-0.1,0c-0.1,0-0.1,0-0.2,0.1
			c0,0,0,0,0,0c0,0,0,0,0,0c-0.1,0-0.2,0-0.3,0.1c0,0,0,0-0.1,0c0,0,0,0,0,0c0,0,0,0,0,0c0,0,0,0,0,0c0,0,0,0,0,0c0,0,0,0,0,0h0
			c0,0,0,0,0,0h0l0,0h0l0,0h0l0,0h0h0h0h0h0l0,0h0c0,0,0,0,0,0c0,0,0,0,0,0l0,0c0,0,0,0,0,0c0,0,0,0,0,0l0,0c0,0-0.1,0-0.1,0
			c-0.1,0-0.1,0-0.2,0c0,0,0,0,0,0c0,0,0,0-0.1,0c0,0,0,0,0,0c-0.1,0-0.2,0-0.3,0c0,0,0,0,0,0c0,0,0,0,0,0c0,0-0.1,0-0.1,0
			c0,0,0,0,0,0c0,0,0,0,0,0l0,0h0c0,0,0,0,0,0c0,0-0.1,0-0.1,0c0,0,0,0,0,0c0,0,0,0,0,0c0,0,0,0,0,0c0,0-0.1,0-0.1,0c0,0,0,0,0,0
			c0,0,0,0,0,0c0,0,0,0-0.1,0c0,0,0,0-0.1,0c-0.1,0-0.2,0-0.2,0c0,0-0.1,0-0.1,0l0,0c0,0,0,0,0,0c0,0,0,0,0,0c0,0-0.1,0-0.1,0
			c0,0-0.1,0-0.1,0c0,0-0.1,0-0.1,0c0,0,0,0,0,0h0c0,0,0,0,0,0c0,0,0,0,0,0c-0.1,0-0.2,0-0.3,0c0,0,0,0,0,0c0,0,0,0,0,0
			c-0.1,0-0.1,0-0.2,0c0,0,0,0,0,0c-0.1,0-0.1,0-0.2,0c0,0,0,0,0,0c0,0,0,0-0.1,0c0,0,0,0,0,0c0,0,0,0,0,0c0,0,0,0,0,0c0,0,0,0,0,0
			h0l0,0h0l0,0h0h0l0,0h0l0,0l0,0h0c0,0,0,0,0,0c0,0,0,0,0,0c0,0,0,0,0,0c0,0,0,0,0,0c-0.1,0-0.1,0-0.2,0l0,0c0,0,0,0,0,0
			c0,0,0,0,0,0c0,0,0,0-0.1,0c0,0,0,0,0,0c0,0,0,0,0,0c0,0,0,0,0,0c0,0,0,0,0,0h0l0,0c0,0,0,0,0,0c0,0,0,0,0,0l0,0l0,0c0,0,0,0,0,0
			h0c0,0,0,0,0,0h0c0,0,0,0,0,0h0l0,0l0,0l0,0h0l0,0c0,0,0,0,0,0l0,0l0,0c0,0,0,0,0,0l0,0l0,0l0,0h0c0,0,0,0,0,0l0,0l0,0
			c0,0,0,0,0,0c0,0-0.1,0-0.1,0l0,0c0,0,0,0,0,0c-0.2,0-0.3-0.1-0.4-0.1c0,0,0,0,0,0c0,0,0,0,0,0c0,0,0,0,0,0c0,0,0,0,0,0
			c0,0,0,0,0,0c0,0,0,0,0,0l0,0c-0.2-0.1-0.4-0.1-0.4-0.3c0,0,0.1-0.1,0.1-0.1c0,0,0,0,0,0C6,20,6,20,6,20c0.1-0.1,0.1-0.1,0.2-0.2
			c0,0,0,0,0-0.1c0,0-0.1-0.1-0.1-0.1c0,0,0,0,0,0c0,0,0.1,0,0.1,0c0.1,0,0.1,0,0.1,0c0,0,0.1,0,0.1,0c0,0,0-0.1,0-0.1c0,0,0,0,0,0
			c0.1,0,0.1,0,0.1,0h0h0l0,0h0h0h0h0h0h0c0,0,0,0,0,0c0.2,0,0.4,0,0.4-0.2c-0.1-0.1-0.1-0.1-0.1-0.2c0.1,0,0.1,0,0.2,0.1
			c0,0,0,0,0,0c0.8,0,0.7-1.1,1.4-1.2l0,0l0,0C8.9,17.9,9,17.1,9,16.8c0,0,0.6-0.9,0.6-0.9c0-0.3-0.8-0.6-0.8-0.6
			c-0.1,0-0.2-0.1-0.4-0.1c0,0-0.1,0-0.2,0C8,14.9,7.5,15,7.4,14.6c0,0,0-0.1,0-0.1c0-0.1-0.1-0.2-0.1-0.3c0,0,0,0-0.1,0
			c0,0-0.1-0.1-0.1-0.1c0,0,0,0-0.1,0l0,0c-0.1-0.1-0.2-0.1-0.3-0.1c0,0,0,0,0,0c0,0-0.1,0-0.1,0c0,0,0,0,0,0
			c-0.1,0-0.2-0.1-0.2-0.2c-0.1-0.1-0.1-0.2-0.3-0.2c0,0,0,0,0,0l0,0c-0.1-0.3-0.3-0.3-0.5-0.4c0,0,0,0.1,0,0.1
			c-0.2,0-0.2,0-0.7-0.4c-0.2,0.1-0.2,0.1-0.2,0.1l0,0c0,0,0.1-0.1,0.1-0.1c-0.3-0.1-0.3-0.1-0.8,0.4c-0.1-0.1-0.2-0.2-0.3-0.2
			c0,0-0.1,0-0.1,0c0,0-0.1,0-0.1,0c-0.4-0.2,0-0.7-0.1-1c-0.1-0.1-0.1-0.1-0.3-0.2c0,0-0.1,0-0.1,0c0,0,0,0,0,0c0,0,0,0-0.1,0
			c0,0,0-0.1,0-0.1C2.8,11.5,3,11.3,3,11.1c0,0,0-0.1,0-0.1c0,0,0,0-0.1-0.1c-0.3,0-0.4,0.3-0.7,0.3c0,0,0,0,0,0l0,0
			C2,11.1,2,10.1,2.7,9.7c0,0,0.1,0,0.1,0c0.1,0,0.1,0,0.1,0l0,0C2.9,9.7,3,9.8,3.1,9.9c0,0,0,0,0,0c0.1,0,0.1,0,0.1,0c0,0,0,0,0,0
			c0,0,0,0,0,0c0,0,0,0,0,0c0,0,0,0,0,0c0,0,0,0,0,0c0,0,0,0,0,0c0,0,0,0,0,0l0,0c0.1,0,0.1,0,0.2,0c0,0,0,0,0.2,0.1
			c0,0,0.1,0,0.1,0c0,0,0,0,0,0l0,0c0.2,0.2,0,0.5,0.1,0.7c0,0,0.1,0,0.1,0C4,10.4,3.9,10,4,9.8c0.2-0.3,0.6-0.2,0.8-0.4
			c0-0.2,0-0.2,0-0.2C5.1,9,5.3,8.8,5.5,8.6c0.1,0,0.1,0,0.2,0c0,0,0-0.1,0-0.1c0,0,0-0.1,0-0.1c0.2-0.2,0.6-0.3,0.6-0.3
			c0,0,0,0,0,0c0,0-0.1,0.1-0.1,0.1c0,0,0,0.1,0,0.1c0,0,0,0,0,0c0.4-0.1,0.6-0.2,0.6-0.3c0,0,0-0.1,0-0.1c-0.1,0-0.1,0.1-0.2,0.1
			l0,0c0,0,0-0.1,0-0.1c0,0,0,0,0,0c0,0,0,0,0,0c0,0,0,0,0,0c0,0,0,0,0,0c0,0,0,0,0,0c0,0,0,0,0,0c0,0,0,0,0,0c0,0,0,0,0,0
			c0,0-0.1-0.1-0.1-0.1c0,0,0-0.1,0.1-0.1c0,0,0,0,0,0c0,0,0,0,0,0c0,0,0,0,0,0c0,0,0,0,0,0c0,0,0,0,0,0c0,0,0,0,0,0c0,0,0,0,0,0
			c0,0,0,0,0,0l0,0c0.1,0,0.1,0,0.2-0.1L6.5,7.7c-0.1,0-0.1,0-0.5,0.1c0,0,0,0,0,0c0.2-0.1,0.2-0.1,0.2-0.1c0.1-0.1,0.1-0.1,0.3-0.1
			l0.1,0c0,0,0.1,0.1,0.1,0.1c0,0,0,0,0,0l0,0l0.1,0l0-0.1c0.2,0,0.6-0.1,0.7-0.4c0,0,0,0-0.1-0.1c0,0,0,0,0,0h0h0l0,0
			c0,0,0-0.1,0-0.1C7.2,7.1,7.2,7.1,7.1,6.6c0,0,0,0,0,0c0,0,0,0,0,0c0,0,0,0,0,0c0,0,0,0,0,0c0,0,0,0-0.1,0c0,0,0,0,0,0
			c0,0,0,0,0,0c0,0,0,0,0,0c0,0,0,0,0,0C6.9,6.7,6.9,6.7,6.7,6.7c0-0.1,0-0.1,0-0.2c0,0,0,0,0.1-0.1c0,0,0,0,0,0
			c0,0-0.1-0.1-0.1-0.1C6.6,6.2,6.6,6.2,6.5,6.2c0,0,0,0,0,0c0,0,0,0,0,0c0,0,0,0,0,0c0,0,0,0,0,0c0,0,0,0,0,0c0,0,0,0,0,0
			c0,0,0,0,0,0C6.2,6.3,6.2,6.3,6.2,6.4l0,0.1c0,0-0.1,0.1-0.1,0.1c0,0.1,0,0.1-0.4,0.4C5.5,7.3,5.5,7.3,5.4,7.3c0,0,0,0,0,0l0,0
			l0,0c0,0,0-0.1,0-0.1c0,0,0,0,0,0l0,0c0,0,0-0.1,0-0.1c0,0,0.1-0.1,0.1-0.1C5.4,6.7,5.2,6.5,5.2,6.5l-0.1,0c0-0.1,0-0.1,0.1-0.3
			C5.5,6,5.9,6,6.2,5.8C6.1,5.9,6,5.9,6,6l0,0.1l0,0c0,0,0.1,0,0.1,0l0.1,0l0,0c0,0,0.1,0,0.1,0c0,0,0,0,0,0c0-0.1,0-0.1,0-0.2l0,0
			l0,0c0.2-0.1,0.2-0.1,0.3-0.2c0,0,0.1,0,0.1,0l0-0.1l0.1,0c0,0,0.1,0,0.1,0l0,0c0,0,0,0.1-0.1,0.1c0,0-0.1,0-0.1,0.1l0,0.1
			c0,0,0.1,0,0.1,0c0,0,0.1,0,0.1,0c0,0,0,0,0,0c0,0,0,0,0,0c0,0,0,0,0,0c0,0,0,0,0,0c0,0,0,0,0,0c0,0,0,0,0,0c0,0,0,0,0,0l0,0.1
			C6.9,5.9,6.9,5.9,6.8,6c0,0,0,0,0,0c0,0,0,0,0,0c0,0,0,0,0,0c0,0,0,0,0,0c0,0,0,0,0,0c0,0,0,0,0,0c0,0,0,0,0,0c0,0,0,0,0,0
			C6.6,6,6.6,6,6.5,6c0,0,0,0,0,0l0,0.1l0,0l0,0c0,0,0.1,0,0.1,0c0,0,0,0,0,0l0,0c0,0.1,0,0.1,0.1,0.2h0h0l0,0C6.9,6.3,7,6.4,7,6.4
			l0,0c0,0,0-0.1,0-0.1l0,0c0,0,0,0,0,0l0,0l0,0c0,0,0,0,0.1,0.1c0,0,0,0,0,0l0-0.1c0,0,0,0,0.1-0.1c0,0,0,0,0,0c0,0,0-0.1-0.1-0.1
			c0,0,0,0,0-0.1l0,0c0,0,0,0.1,0,0.1c0,0,0.1,0,0.1,0c0,0,0.1-0.1,0.2-0.1c0,0,0,0,0-0.1C7.4,5.7,7.4,5.7,7.4,5.7l0,0
			c0,0,0-0.1,0-0.1c0,0,0,0-0.1-0.2l0,0c0,0,0,0,0,0h0c0,0,0-0.1,0-0.2c0,0,0,0,0,0c-0.1,0-0.1,0-0.1,0l0,0h0C7,5.2,6.7,5.2,6.6,5.4
			c0,0,0,0.1,0,0.1c0,0,0,0-0.1,0.1c-0.1,0-0.1,0-0.2,0.1l0,0c0,0,0.1-0.1,0.1-0.1h0h0h0l0,0c0,0-0.1,0-0.1,0l0,0c0,0,0.1,0,0.1,0
			c0,0,0,0,0,0c0.1-0.2,0.1-0.2,0.2-0.2c0.1,0,0.2,0,0.3-0.1l0,0c-0.1,0-0.2,0.1-0.3,0.1c0,0-0.1,0-0.1,0.1c0,0-0.1,0.1-0.1,0.1l0,0
			c0,0-0.1,0-0.1,0L6,5.5c0,0-0.1,0-0.1,0h0l0,0c0,0,0,0,0,0l0,0c-0.1,0-0.1,0-0.1,0l0,0c0,0,0-0.1,0-0.1c0,0,0,0,0,0l0,0
			c0.1,0,0.1,0,0.2-0.1c0-0.1,0-0.1,0.2-0.2c0,0,0.1,0,0.1,0c0,0,0,0,0,0l0,0c0,0-0.1,0-0.1,0c0,0,0,0,0,0c0,0,0,0,0,0c0,0,0,0,0,0
			c0,0,0,0,0,0c0,0,0,0,0,0c0,0,0,0,0,0c0,0,0,0,0,0c0,0,0,0,0,0l0,0c0,0,0.1-0.1,0.1-0.1c0,0,0-0.1,0-0.1c0,0,0.1,0,0.1-0.1l0,0
			l0,0c0,0,0,0,0,0c0,0,0.1,0,0.1,0c0,0,0,0,0,0c0,0,0,0,0.1,0c0,0-0.1,0-0.1,0c0,0,0,0,0,0c0,0,0.2,0,0.3,0c0,0,0,0,0,0
			c0,0,0,0,0,0c0,0,0,0,0,0c0,0,0,0,0,0c0,0,0,0,0,0h0h0v0h0h0c0,0,0,0,0,0c0,0,0,0,0,0c0,0,0,0-0.1,0c0,0,0,0,0,0c0,0,0,0,0,0
			c0,0,0,0,0,0c0,0,0,0,0,0c0,0,0.1,0,0.1,0c0,0,0,0,0,0c0,0,0.1,0,0.1,0c0,0,0,0,0,0c0,0,0,0,0,0c0,0,0,0,0,0c0,0,0,0,0.1,0
			c0,0,0,0,0,0c0,0,0,0,0,0c0.1,0,0.1,0,0.2,0c0,0,0.1,0,0.2,0l0,0c0,0,0,0,0,0c0.1,0,0.1,0,0.2,0c0,0,0,0,0,0c0,0,0,0,0,0
			c0,0,0.1,0,0.1,0c0,0,0,0,0,0c0,0,0,0,0,0c0,0,0.1,0,0.1,0c0,0,0,0,0,0c0,0,0.1,0,0.1,0c0,0,0,0,0,0c0,0,0,0,0,0l0,0
			c0,0,0.1,0,0.1,0c0,0,0,0,0,0c0,0,0,0,0,0c0,0,0.1,0,0.1,0c0,0,0,0,0.1,0c0,0,0,0,0,0c0,0,0,0,0,0c0,0,0,0,0.1,0h0c0,0,0,0,0,0
			c0,0,0,0,0,0h0h0c0,0,0,0,0,0c0,0,0,0,0,0c0,0,0,0,0,0c0,0,0,0,0,0c0,0,0,0,0,0c0,0,0,0,0,0c0,0,0,0,0,0h0c0,0,0.1,0,0.1,0
			c0,0,0,0,0,0c0,0,0.1,0,0.1,0c0,0,0,0,0,0c0,0,0,0,0,0c0,0,0.1,0,0.1,0c0,0,0,0,0,0c0.1,0,0.1,0,0.2,0c0,0,0,0,0,0c0,0,0,0,0,0
			c0,0,0,0,0,0c0,0,0,0,0,0c0,0,0,0,0,0c0,0,0,0,0,0l0,0c0,0,0,0,0,0l0,0c0,0,0,0,0,0c0,0,0,0,0,0c0,0,0,0,0,0c0,0,0,0,0.1,0
			c0,0,0,0,0,0c0,0,0,0,0,0c0.1,0,0.1,0,0.2,0c0,0,0,0,0,0c0,0,0.1,0,0.2,0c0,0,0.1,0,0.1,0c0,0,0,0,0,0c0.1,0,0.2,0,0.2,0
			c0,0,0,0,0,0h0c0.4,0.1,0.6,0.2,0.9,0.3c0.1,0,0.3,0.1,0.4,0.2c0,0,0,0,0,0c0,0,0,0,0,0s0,0,0,0h0v0l0,0c0,0,0,0,0,0c0,0,0,0,0,0
			l0,0c0,0,0,0,0,0c0,0,0.1,0,0.1,0c0,0,0,0,0,0c0,0,0.1,0,0.1,0.1c0,0,0,0,0,0c0,0,0,0,0,0c-0.2-0.1-0.4-0.1-0.6-0.1
			c0,0-0.1,0-0.1,0c0,0,0,0,0,0l0,0c0,0,0,0,0,0c0,0,0,0,0,0c0,0,0,0,0,0h0l0,0l0,0h0h0l0,0h0l0,0h0c0,0,0,0,0,0h0h0c0,0,0,0,0,0
			l0,0c0,0,0,0,0,0s0,0,0,0c0,0,0,0.1,0,0.1c0,0,0,0,0,0l0,0c0,0,0,0,0,0c0,0,0,0,0,0v0l0,0l0,0c0,0,0,0,0,0c0,0,0,0,0,0
			c0,0.1,0,0.1,0,0.2c0,0,0,0,0,0h0h0h0c0,0,0,0,0,0l0,0l0.1,0c0,0,0,0,0,0l0,0c0,0,0,0,0,0.1c0,0.1,0.1,0.2,0.2,0.3c0,0,0,0,0,0
			c0,0,0,0,0,0c0,0,0,0,0,0c0,0.1,0,0.1,0,0.2c0,0,0.2,0.4,0.4,0.3c0,0,0.1,0,0.1,0c0,0,0-0.1,0-0.1c0,0,0,0,0,0
			c0.1,0,0.3,0.1,0.3,0.2c0,0,0,0,0,0c0,0,0,0,0,0c0,0,0,0,0,0c0,0-0.1,0-0.1,0c0,0,0,0-0.1,0c0,0,0,0,0,0c0,0,0,0,0-0.1
			c0,0,0,0,0,0c0,0,0,0,0,0c0,0,0,0,0,0c-0.1,0.2,0.2,0.3,0.3,0.4C12.4,7,12.4,7,12.4,7.5c0,0,0,0,0,0.1c0,0-0.1,0-0.1,0l0,0l0,0
			l0,0c0,0,0,0,0,0c0.1,0.1,0.1,0.1,0.1,0.1l0,0c0,0,0,0,0,0c-0.1,0-0.1,0-0.2,0c0,0,0,0-0.1,0c0,0,0,0,0,0c0.1,0.1,0.3,0.2,0.4,0.3
			c0.1,0.1,0.1,0.1,0.1,0.2c0,0,0,0,0,0c0,0,0,0,0,0c0,0,0,0.1,0,0.1c0,0,0,0-0.1,0c0,0-0.1,0-0.1,0c-0.2,0-0.2,0-0.3,0
			c0,0-0.1,0.1-0.1,0.1c0,0,0,0,0,0c0.1,0.2,0.1,0.6,0.3,0.8c0,0,0,0,0,0l0,0l0.1,0c0.1,0,0.1,0,0.2,0.1l0.1,0c0.1,0,0.1,0,0.2-0.1
			c0,0,0,0,0,0C13,9.2,13,9.1,13,9.1c0,0,0,0,0,0c0.2-0.3,0.1-0.7,0-0.8c0,0,0,0,0,0c0,0,0,0,0,0c0,0,0,0,0,0c0,0,0.1,0,0.1,0
			c0,0,0,0,0,0l0,0h0l0,0h0h0h0l0,0c0,0,0,0,0,0c0,0,0,0,0,0c0-0.1,0-0.1,0-0.1c0,0,0.1,0,0.1,0c0,0,0.1,0,0.1,0l0,0h0h0l0,0
			c0,0,0,0,0,0h0c0,0,0,0,0,0l0,0c0,0,0,0,0,0c0.1,0.1,0.6,0.4,0.8,0.5c0,0,0,0.1-0.1,0.2c0,0,0,0,0,0.1c0.1,0,0.2,0.1,0.3,0.1
			c0,0,0-0.1,0-0.2c0-0.1,0-0.2,0-0.2c0,0,0,0,0-0.1c0,0,0,0,0-0.1c0,0,0,0,0,0c0,0,0,0,0,0c0,0,0,0,0,0c0,0,0,0,0,0c0,0,0,0,0,0
			c0,0,0,0,0,0C14.2,8.2,13.9,8,13.8,8c0,0,0,0,0,0c0,0,0,0,0,0c0,0,0,0-0.1,0c-0.1,0-0.1,0-0.1-0.2c0,0,0,0,0,0c0,0,0.1,0,0.1,0
			C13.8,7.9,14,8,14.1,8c0,0,0-0.1,0-0.1c0,0,0.1,0,0.1,0c0.1,0.1,0.1,0.1,0.4,0.4c0,0,0.1,0.2,0.3,0.2c-0.1-0.2-0.1-0.2-0.3-0.4
			c0,0,0,0,0,0c0,0,0,0,0,0l0,0h0l0,0h0h0h0l0,0h0h0l0,0l0,0h0l0,0h0c0,0,0,0,0,0c0,0,0,0,0,0l0,0l0,0c0,0,0,0,0,0
			c0.1,0,0.1,0,0.3,0.2l0,0c0,0,0.1,0,0.1,0.1c0,0,0,0.1,0.1,0.1l0,0c0,0,0,0,0.1,0c0,0,0,0,0,0c0,0,0,0,0,0c0,0,0,0,0,0
			c0,0,0,0,0,0c0,0,0,0,0.1,0c0,0,0,0,0,0c0,0,0,0,0,0c0,0,0,0,0,0c0,0,0,0,0,0c0,0,0,0,0,0c0,0,0,0,0,0c0,0,0,0,0,0l0,0l0,0h0l0,0
			l0,0l0,0l0,0c0,0,0,0,0,0c0-0.1,0-0.1,0-0.1c0.2,0.2,0.2,0.3,0.3,0.5c0,0,0,0.1,0.1,0.1c0,0,0,0,0,0c0,0-0.1,0.1-0.1,0.1l0,0l0,0
			v0h0c0,0,0,0,0,0.1c0,0,0,0-0.1,0c-0.2,0-0.3-0.1-0.5,0l0,0c0,0.1,0,0.1,0.1,0.3c0,0,0,0,0,0l0,0l-0.1,0c-0.2,0-0.3-0.2-0.5-0.1
			l0,0c-0.1,0-0.1,0-0.3-0.1c0,0,0,0,0,0c0-0.1,0-0.1-0.1-0.3c0,0,0,0,0,0c0,0,0,0,0,0c0,0,0,0,0,0c0,0,0,0,0,0c0,0,0,0-0.1,0
			c0,0,0,0-0.1,0l0,0l0,0l0,0l0,0l0,0l0,0c0,0,0,0,0,0c0,0,0,0,0,0c0,0,0,0,0,0c0,0,0,0,0,0c0,0,0,0,0,0c-0.1,0-0.1,0.1-0.2,0.1
			c0,0,0,0,0,0c0,0-0.1,0-0.1,0l0,0c0,0,0,0,0,0h0l0,0c0,0,0,0,0,0h0h0h0h0l0,0c0,0,0,0,0,0l0,0c0,0,0,0,0,0c0,0,0,0,0,0
			c0,0-0.1,0-0.1,0.1c-0.3,0.1-0.7,0.4-0.7,0.4c-0.2,0.2-0.1,0.5-0.2,0.8c0,0,0,0,0,0c0,0,0,0.1,0,0.1c0,0,0,0,0,0c0,0,0,0,0,0.1
			c0,0,0,0-0.1,0.1c0,0,0,0-0.1,0.1c0,0-0.1,0.1-0.1,0.1c0,0-0.4,0.8-0.2,1.1c0.1,0.3,0,0.6,0,0.8c0.1,0.1,0.1,0.1,0.1,0.3
			c0,0,0.1,0.1,0.1,0.1c0,0,0,0,0.1,0c0.6,1,1,0.9,1.1,0.9c0,0,0.1,0,0.1,0c0.3-0.1,0.3-0.1,0.3-0.1c0,0,0.1,0,0.2,0
			c0,0,0.1,0,0.1,0c0,0,0.1,0,0.1-0.1c0.1-0.1,0.1-0.1,0.2-0.2c0.1-0.1,0.1-0.1,0.3-0.1c0.1,0,0.2,0,0.2,0.1
			c0.1,0.1,0.1,0.1,0.2,0.1c0,0,0.1,0,0.1,0c0,0,0,0,0.1,0c0,0,0.1,0,0.1,0c0,0,0,0,0,0c0,0,0,0,0,0.1c0,0,0.1,0,0.1,0
			c0.1,0.2-0.1,0.5,0,0.7c0.3,1.1,0.3,1.1,0.3,1.3L15,17.4c-0.1,0.2-0.3,0.8-0.3,0.9C14.6,18.4,14.5,18.5,14.4,18.7
			C14.4,18.6,14.4,18.7,14.4,18.7z"/>
		
			<pattern  id="SVGID_18_" xlink:href="#New_Pattern_Swatch_2" patternTransform="matrix(0.6429 0 0 0.6226 -3115.9854 -2991.3215)">
		</pattern>
		<path class="st19" d="M9,20.7C9,20.7,9,20.7,9,20.7C9,20.7,9,20.7,9,20.7C9,20.7,9,20.7,9,20.7C9,20.7,9,20.7,9,20.7
			C9,20.7,9,20.7,9,20.7C9,20.7,8.9,20.7,9,20.7L9,20.7c-0.1,0-0.1,0-0.1,0C8.9,20.7,8.9,20.7,9,20.7C9,20.7,9,20.7,9,20.7
			C9,20.7,9,20.7,9,20.7L9,20.7L9,20.7L9,20.7L9,20.7L9,20.7L9,20.7L9,20.7C9,20.7,9,20.7,9,20.7C9,20.7,9,20.7,9,20.7
			C9,20.7,9,20.7,9,20.7C9,20.7,9,20.7,9,20.7C9.1,20.7,9.1,20.7,9,20.7C9,20.7,9,20.7,9,20.7C9,20.7,9,20.7,9,20.7z"/>
		
			<pattern  id="SVGID_19_" xlink:href="#New_Pattern_Swatch_2" patternTransform="matrix(0.6429 0 0 0.6226 -3115.9854 -2991.3215)">
		</pattern>
		<path class="st20" d="M7,4.8C7,4.9,7,4.9,7,4.8L7,4.8C7,4.9,7,4.9,7,4.8C7,4.9,7,4.9,7,4.8C7,4.9,7,4.9,7,4.8C7,4.9,7,4.9,7,4.8
			C7,4.9,7,4.8,7,4.8C7.1,4.8,7.1,4.8,7,4.8L7,4.8L7,4.8C7.1,4.8,7.1,4.8,7,4.8C7.1,4.8,7,4.8,7,4.8z"/>
		
			<pattern  id="SVGID_20_" xlink:href="#New_Pattern_Swatch_2" patternTransform="matrix(0.6429 0 0 0.6226 -3115.9854 -2991.3215)">
		</pattern>
		<path class="st21" d="M10.4,4.9C10.4,4.8,10.4,4.8,10.4,4.9c-0.1,0-0.2,0-0.2,0c0,0,0,0,0,0c0,0,0,0,0,0c0,0,0,0,0,0c0,0,0,0,0,0
			c0,0,0,0,0,0c0,0,0,0,0,0c0,0,0,0,0,0l0,0c0,0,0,0,0,0h0h0h0l0,0h0h0l0,0c0,0,0,0,0,0l0,0c0,0,0,0,0,0c0,0,0,0,0,0l0,0l0,0
			c0,0,0,0,0,0h0c0,0,0,0,0,0c0,0,0,0,0,0c0,0,0,0,0,0c0,0,0,0,0,0c0,0,0,0,0,0.1c0,0,0,0,0,0c0,0,0,0,0,0c0,0,0,0,0,0c0,0,0,0,0,0
			c0,0,0,0,0,0c0,0,0,0,0,0c0,0,0,0,0,0l0,0h0l0,0h0h0h0l0,0l0,0c0,0,0,0,0,0c0,0,0,0,0,0c0,0,0,0,0,0l0,0c0,0,0,0,0,0c0,0,0,0,0,0
			l0,0c0,0,0,0,0,0c0,0,0,0,0.1,0c0,0,0,0,0.1,0c0,0,0,0,0,0c0,0,0,0,0,0c0,0,0,0,0,0l0,0c0,0,0,0,0,0l0,0c0,0,0,0,0,0h0
			c0,0,0,0,0,0c0,0,0,0,0.1,0c0,0,0,0,0.1,0c0,0,0,0,0,0c0,0,0.1,0,0.1,0c0,0,0.1,0,0.1,0c0,0,0,0,0,0l0,0c0,0,0,0,0,0l0,0
			c0,0,0,0,0,0C10.4,5,10.4,5,10.4,4.9C10.4,4.9,10.4,4.9,10.4,4.9C10.4,4.9,10.4,4.9,10.4,4.9C10.4,4.9,10.4,4.9,10.4,4.9
			C10.4,4.9,10.4,4.9,10.4,4.9C10.4,4.9,10.4,4.9,10.4,4.9c-0.1,0.1-0.1,0-0.1,0c0,0,0,0,0,0c0,0,0,0,0,0c0,0,0,0,0,0c0,0,0,0,0,0
			l0,0c0,0,0,0,0,0l0,0c0,0,0,0,0,0c0,0,0,0,0,0h0c0,0,0,0,0,0C10.3,4.9,10.3,4.9,10.4,4.9C10.4,4.9,10.4,4.9,10.4,4.9
			C10.4,4.9,10.4,4.9,10.4,4.9C10.5,4.9,10.5,4.9,10.4,4.9C10.5,4.9,10.5,4.9,10.4,4.9L10.4,4.9L10.4,4.9L10.4,4.9L10.4,4.9
			L10.4,4.9L10.4,4.9L10.4,4.9C10.5,4.9,10.5,4.9,10.4,4.9C10.5,4.9,10.5,4.9,10.4,4.9C10.5,4.9,10.5,4.9,10.4,4.9z"/>
		
			<pattern  id="SVGID_21_" xlink:href="#New_Pattern_Swatch_2" patternTransform="matrix(0.6429 0 0 0.6226 -3115.9854 -2991.3215)">
		</pattern>
		<path class="st22" d="M13.3,8.7C13.3,8.7,13.3,8.7,13.3,8.7C13.3,8.7,13.3,8.7,13.3,8.7C13.3,8.7,13.3,8.7,13.3,8.7
			C13.3,8.7,13.3,8.7,13.3,8.7C13.3,8.6,13.3,8.6,13.3,8.7C13.2,8.7,13.2,8.7,13.3,8.7C13.2,8.7,13.3,8.7,13.3,8.7
			C13.3,8.7,13.3,8.7,13.3,8.7z"/>
		
			<pattern  id="SVGID_22_" xlink:href="#New_Pattern_Swatch_2" patternTransform="matrix(0.6429 0 0 0.6226 -3115.9854 -2991.3215)">
		</pattern>
		<path class="st23" d="M11.3,6.7C11.3,6.7,11.3,6.7,11.3,6.7C11.3,6.7,11.2,6.7,11.3,6.7C11.2,6.7,11.2,6.7,11.3,6.7
			c0,0.1,0,0.1,0,0.1C11.3,6.8,11.3,6.8,11.3,6.7L11.3,6.7C11.3,6.7,11.3,6.7,11.3,6.7z"/>
		
			<pattern  id="SVGID_23_" xlink:href="#New_Pattern_Swatch_2" patternTransform="matrix(0.6429 0 0 0.6226 -3115.9854 -2991.3215)">
		</pattern>
		<path class="st24" d="M12.1,10.5C12.1,10.5,12.1,10.5,12.1,10.5c0-0.1,0-0.1,0-0.1C12.1,10.4,12.1,10.5,12.1,10.5
			C12.1,10.5,12.1,10.5,12.1,10.5C12.1,10.5,12.1,10.5,12.1,10.5z"/>
		
			<pattern  id="SVGID_24_" xlink:href="#New_Pattern_Swatch_2" patternTransform="matrix(0.6429 0 0 0.6226 -3115.9854 -2991.3215)">
		</pattern>
		<path class="st25" d="M9.8,10.4L9.8,10.4C9.8,10.4,9.8,10.4,9.8,10.4C9.8,10.4,9.8,10.4,9.8,10.4C9.8,10.4,9.8,10.4,9.8,10.4
			C9.8,10.4,9.8,10.4,9.8,10.4C9.8,10.4,9.8,10.4,9.8,10.4z"/>
		
			<pattern  id="SVGID_25_" xlink:href="#New_Pattern_Swatch_2" patternTransform="matrix(0.6429 0 0 0.6226 -3115.9854 -2991.3215)">
		</pattern>
		<path class="st26" d="M10.1,10.4C10.2,10.4,10.2,10.4,10.1,10.4c0.1,0,0.1,0,0.2,0c0,0,0,0,0,0C10.3,10.4,10.2,10.4,10.1,10.4z"/>
		
			<pattern  id="SVGID_26_" xlink:href="#New_Pattern_Swatch_2" patternTransform="matrix(0.6429 0 0 0.6226 -3115.9854 -2991.3215)">
		</pattern>
		<path class="st27" d="M9.6,5.6C9.6,5.6,9.6,5.6,9.6,5.6C9.7,5.6,9.7,5.5,9.6,5.6c0-0.1,0-0.2,0-0.3c0,0,0,0,0,0c0,0,0,0,0,0
			c0,0,0,0,0,0v0h0c0,0,0,0,0,0c0,0,0,0,0,0c0,0,0,0,0,0c0,0,0,0,0,0c0,0,0,0,0,0c0,0,0,0,0,0c0,0,0,0,0,0c0,0,0,0-0.1,0
			c0,0,0,0,0,0l0,0c0,0,0,0,0,0c0,0,0,0,0.1,0c0,0,0,0,0,0h0l0,0c0,0,0,0,0,0C9.4,5.1,9.4,5,9.4,5c0,0,0,0,0,0c0,0,0,0,0,0
			c0,0,0,0,0,0h0c0-0.1,0-0.1,0-0.1c0,0,0,0,0,0c0,0,0,0,0,0c0,0,0,0,0,0c0,0,0,0,0,0c0,0,0,0,0,0l0,0c0,0-0.1,0-0.1,0l0,0h0h0h0h0
			h0h0h0h0c0,0,0,0,0,0c0,0,0,0,0,0c0,0,0,0,0,0c0,0,0,0,0,0c0,0,0,0,0,0c0,0,0,0,0,0c0,0,0,0,0,0c0,0,0,0,0,0c0,0,0,0,0,0
			c0,0,0,0,0,0c0,0,0,0,0,0c0,0,0,0,0,0l0,0c0,0,0,0,0,0c0,0,0,0,0,0c0,0,0,0,0,0l0,0h0h0h0h0h0h0l0,0h0c0,0,0,0,0,0c0,0,0,0-0.1,0
			c0,0,0,0,0,0c0,0,0,0,0,0c0,0,0,0,0,0c0,0,0,0,0,0c0,0,0,0,0,0h0c0,0,0,0,0,0h0h0h0h0h0h0h0h0h0h0h0h0h0l0,0h0c0,0,0,0,0,0
			c0,0-0.1,0-0.1,0c-0.2,0-0.2,0-0.2,0h0c0,0,0,0,0,0c0,0,0,0,0,0c0,0,0,0,0,0c0,0,0,0,0,0c0,0,0,0,0,0c0,0,0,0,0,0h0h0h0h0h0h0h0h0
			h0h0c0,0,0,0,0,0c0,0,0,0,0,0c0,0,0,0,0,0c-0.1,0-0.1,0-0.2,0c0,0,0,0,0,0c0,0,0,0,0,0c0,0,0,0,0,0h0c0,0,0,0,0,0c0,0,0,0,0,0
			c0,0,0,0,0,0c0,0,0,0,0.1,0c0,0,0,0,0,0c0,0,0,0,0,0c0,0,0,0,0,0c0,0,0,0,0,0c0,0,0,0,0,0c0,0,0,0,0,0c0,0,0,0-0.1,0l0,0
			c0,0,0,0-0.1,0c0,0,0,0,0,0l0,0c0,0,0,0,0,0l0,0c0,0,0,0,0,0c0,0,0,0-0.1,0c0,0,0,0,0,0l0,0l0,0c-0.1,0-0.1,0-0.1,0c0,0,0,0,0,0
			l0,0h0h0h0h0h0h0h0l0,0h0l0,0c-0.1,0-0.1,0-0.1,0c0,0,0,0-0.1,0c0,0,0,0,0,0c0,0,0,0,0,0C7.5,4.8,7.5,4.8,7.4,4.8
			c0,0-0.1,0.1-0.1,0.1c0,0,0,0,0,0c0,0,0,0,0.1,0c0,0,0,0,0,0c0,0,0,0,0,0c0,0,0,0,0,0c0,0,0,0,0,0c0,0,0,0,0,0l0,0l0,0
			c0,0,0,0,0,0c0,0,0,0,0,0c0,0,0,0-0.1,0c0,0,0,0,0.1,0c0,0,0,0,0,0c0,0-0.1,0-0.1,0C7.2,5,7.2,5,7.2,5c0,0,0,0,0,0l0,0l0,0
			c0,0,0,0,0,0c0,0,0,0,0,0c0,0,0,0,0,0c0,0,0,0,0,0c0,0,0,0,0,0c0,0,0,0,0.1,0c0.1-0.1,0.1-0.1,0.1-0.1c0,0,0,0,0,0c0,0,0,0-0.1,0
			c0,0,0,0-0.1,0.1c0,0,0,0,0,0c0,0,0,0,0,0c0,0,0,0,0,0c0,0,0,0,0,0c0,0,0,0,0,0c0,0,0,0-0.1,0C7,5,7,5,7,5c0,0,0,0,0,0l0,0
			c0,0,0,0,0,0c-0.1,0-0.1,0.1-0.1,0.1c0,0,0,0,0,0c0,0,0.1,0,0.1,0C7,5.1,7,5,7,5c0,0,0,0,0,0c0,0,0,0,0,0C7,5.1,7,5.1,6.9,5.1
			c0,0,0,0,0.3,0.1c0,0,0.2,0,0.2-0.1h0h0h0h0h0c0,0,0,0-0.1,0c0,0,0,0,0,0c0,0,0,0,0,0c0,0,0,0,0,0c0,0,0,0,0,0c0,0,0,0,0,0
			c0,0,0,0,0,0c0,0,0,0,0,0c0,0,0,0,0,0c0,0,0,0,0,0l0,0c0,0,0,0,0,0c0,0,0,0,0,0c0,0,0,0,0,0c0,0,0,0,0,0l0,0c0,0,0,0,0,0
			c0,0,0,0,0,0c0,0,0,0,0,0l0,0c0,0,0,0,0,0c0,0,0,0,0,0c0,0,0,0,0,0c0,0,0,0,0,0l0,0l0,0c0,0,0,0,0,0c0,0,0,0,0,0c0,0,0,0,0,0h0
			c0,0,0,0,0,0c0,0,0,0,0,0c0,0,0,0,0,0c0,0,0,0,0,0c0,0,0,0,0,0c0,0,0,0,0,0c0,0,0,0,0,0c0,0,0,0,0,0c0,0,0,0,0,0c0,0,0,0,0,0
			c0,0,0,0,0,0l0,0c0,0,0,0,0,0l0,0l0,0l0,0c0,0,0,0,0,0c0,0,0,0,0,0h0c0,0,0,0,0,0c0,0,0,0,0,0c0,0,0,0,0,0c0,0,0,0,0,0
			c0,0,0,0,0,0c0,0,0,0,0,0c0,0,0,0,0,0c0,0,0,0,0,0c0,0,0,0,0,0C8,4.9,8,4.9,8.1,4.9c0,0,0,0,0,0c0,0,0,0,0,0c0,0,0,0,0,0
			c0,0,0,0,0,0c0,0,0,0,0,0c0,0,0,0,0,0c0,0,0,0,0,0c0,0,0,0,0,0c0,0,0,0,0,0c0,0,0,0,0,0c0,0,0,0,0,0C7.8,5,7.8,5,7.8,5
			c0,0,0,0,0,0c0,0,0,0,0,0c0,0,0,0,0,0.1c0,0,0,0,0,0c0,0,0.1,0,0.1,0c0,0,0,0,0,0h0c0.2,0,0.2,0,0.2,0.1c0,0.1,0,0.2,0,0.3
			c0,0,0,0,0,0c0,0,0,0,0,0c0,0,0,0,0,0c0,0,0,0,0,0.1c0,0.1,0,0.1,0,0.1c0,0,0,0,0,0c0,0,0,0,0.1,0l0,0c0,0,0,0,0,0c0,0,0,0,0,0
			c0,0,0,0,0,0v0l0,0l0,0h0l0,0l0,0c0,0,0,0-0.1,0.1C8,5.9,8,6.1,8,6.1c0,0.1,0.2,0.5,0.3,0.5l0,0c0,0,0,0,0,0c0,0,0,0,0,0
			c0.1,0,0.1,0.1,0.2,0.1c0,0,0,0,0.1-0.1c0,0,0,0,0,0l0-0.1c0,0,0,0,0,0c0,0,0,0,0,0c0,0,0,0,0,0l0.2-0.4c0.1,0,0.2,0,0.3-0.1
			c0.2-0.2,0.2-0.2,0.2-0.2c0,0,0,0,0,0C9.5,5.9,9.8,5.7,9.6,5.6C9.7,5.6,9.6,5.6,9.6,5.6z"/>
		
			<pattern  id="SVGID_27_" xlink:href="#New_Pattern_Swatch_2" patternTransform="matrix(0.6429 0 0 0.6226 -3115.9854 -2991.3215)">
		</pattern>
		<path class="st28" d="M12.2,7.5c0.1,0,0.1-0.1,0.1-0.1c0,0,0,0,0,0c0,0,0,0,0,0c0,0,0,0,0,0c0,0,0,0,0,0c0,0,0,0,0-0.1
			c0,0,0,0,0,0l0,0c0,0,0,0-0.1-0.1c0,0,0,0,0,0c0,0,0,0-0.2-0.1c-0.1,0-0.1-0.1-0.3-0.2c0,0,0,0,0,0c0,0,0,0,0,0c0-0.1,0-0.1,0-0.1
			c0,0,0,0,0,0c0,0,0,0-0.1,0c0,0,0,0,0,0c0,0,0,0,0,0c0,0,0,0,0,0c0,0,0,0,0,0c0,0,0,0,0,0c0,0,0,0,0,0c0,0,0,0,0,0c0,0,0,0,0,0
			c0,0,0,0,0,0c0,0,0,0,0,0c0,0,0,0,0,0c0,0,0,0,0,0c0,0,0,0,0,0c0,0,0,0,0,0c0,0,0,0.1-0.1,0.1h0h0h0h0c0,0,0,0,0,0h0h0h0h0h0l0,0
			h0h0h0h0c0,0,0,0,0,0c0,0,0,0,0,0c0,0,0,0,0,0c0,0,0,0,0,0c0,0,0,0,0,0c0,0,0,0,0,0c0,0,0,0,0,0c0,0,0,0,0,0c0,0,0,0,0,0
			c0,0,0,0,0,0c0,0,0,0,0,0c0,0,0,0,0,0c0,0,0,0,0,0l0,0c0,0,0,0,0,0l0,0h0c0,0,0,0,0,0c0,0.1,0.1,0.1,0.1,0.1c0,0,0,0,0,0
			c0,0,0,0,0.1,0c0,0-0.1,0-0.1,0c0,0,0,0,0,0c0,0,0,0,0,0c0,0,0,0,0,0.1c0,0-0.1,0-0.1,0c0,0,0.1,0.1,0.1,0.1c0,0,0,0,0.1,0.1
			c0,0,0,0.1,0,0.1c0.1,0.1,0.1,0.1,0.1,0.1c0,0,0,0,0,0c0,0,0,0,0,0c0,0,0.1-0.1,0.1-0.1c0,0,0,0,0,0c0,0,0,0,0,0l0,0l0,0
			c0,0,0,0,0-0.1c0,0,0-0.1-0.1-0.1c0,0,0,0,0,0c0,0,0,0,0,0c0,0,0,0,0,0c0,0,0,0,0,0c0,0,0,0,0,0c0,0,0,0,0,0l0,0c0,0,0,0,0,0
			c0,0,0,0,0,0c0,0,0,0,0,0c0,0,0,0,0,0c0,0,0,0,0,0c0,0,0,0,0,0c0.1,0,0.1,0,0.1,0c0,0,0,0,0,0.1c0,0,0,0,0,0c0,0,0,0,0,0l0,0
			c0,0,0,0,0,0h0c0,0,0,0,0,0l0,0c0,0,0,0,0,0c0,0,0,0,0,0c0,0,0,0,0,0c0,0,0,0,0,0c0,0,0,0,0,0c0,0,0,0,0,0c0,0,0,0,0,0
			c0,0,0,0,0,0c0,0,0,0,0,0c0,0,0,0,0,0.1c0,0,0,0,0,0c0,0,0.1,0,0.1,0.1c0,0,0,0,0,0c0,0,0,0,0,0c0,0,0,0,0,0c0,0,0,0,0,0
			c0,0,0,0,0,0c0,0,0,0,0,0c0,0,0,0,0,0c0,0,0,0,0,0c0,0,0,0,0,0c0,0,0,0,0,0C12,7.5,12.1,7.5,12.2,7.5z"/>
		
			<pattern  id="SVGID_28_" xlink:href="#New_Pattern_Swatch_2" patternTransform="matrix(0.6429 0 0 0.6226 -3115.9854 -2991.3215)">
		</pattern>
		<path class="st29" d="M10.2,6C10.2,6,10.2,6,10.2,6L10.2,6c-0.1,0-0.1,0-0.2,0.1l0,0h0h0h0h0l0,0h0l0,0c0,0,0,0,0,0c0,0,0,0,0,0
			c0,0,0,0,0,0h0l0,0h0h0l0,0h0h0h0h0h0l0,0c0,0,0,0,0,0c0,0,0,0,0,0c0,0,0,0,0,0c0,0,0,0,0,0c0,0,0,0,0,0l0,0c0,0,0,0,0,0
			c0,0,0,0,0,0c0,0-0.1-0.1-0.1-0.1h0c0,0,0,0,0,0c0,0,0,0,0,0c0,0,0,0,0,0c0,0,0,0,0,0c0,0,0,0,0,0c0,0,0,0.1,0,0.1
			c0,0,0.1,0,0.1,0c0,0,0,0,0,0c0,0,0.1,0,0.1,0c0,0,0,0,0,0c0.1,0,0.2,0,0.2,0c0,0,0,0,0,0c0.1,0,0.2-0.1,0.2-0.2c0,0,0,0,0,0
			C10.3,6,10.3,6,10.2,6z"/>
		
			<pattern  id="SVGID_29_" xlink:href="#New_Pattern_Swatch_2" patternTransform="matrix(0.6429 0 0 0.6226 -3115.9854 -2991.3215)">
		</pattern>
		<path class="st30" d="M6.8,4.9C6.8,4.9,6.8,4.9,6.8,4.9C6.8,4.9,6.8,4.9,6.8,4.9C6.8,4.9,6.9,4.9,6.8,4.9L6.8,4.9
			C6.8,4.8,6.8,4.9,6.8,4.9C6.8,4.9,6.8,4.9,6.8,4.9C6.8,4.9,6.8,4.9,6.8,4.9C6.8,4.9,6.8,4.9,6.8,4.9C6.8,4.9,6.8,4.9,6.8,4.9
			C6.7,4.9,6.7,4.9,6.8,4.9c-0.1,0-0.1,0-0.1,0c0,0,0,0,0,0c0,0,0,0,0,0C6.7,4.9,6.7,4.8,6.8,4.9c0-0.1,0-0.1,0-0.1c0,0,0,0,0,0
			c0,0-0.1,0-0.3,0.1c0,0,0,0,0,0c0,0,0,0,0,0c0,0,0,0-0.1,0c0,0,0,0,0,0c0,0,0,0,0.1,0c0,0,0.1,0,0.1,0c0,0,0,0,0,0
			C6.7,5,6.7,5,6.8,4.9C6.8,4.9,6.8,4.9,6.8,4.9C6.8,4.9,6.8,4.9,6.8,4.9z"/>
		
			<pattern  id="SVGID_30_" xlink:href="#New_Pattern_Swatch_2" patternTransform="matrix(0.6429 0 0 0.6226 -3115.9854 -2991.3215)">
		</pattern>
		<path class="st31" d="M7.5,7.8c-0.1,0-0.1-0.1-0.1-0.1c0,0,0-0.1,0.1-0.1c-0.1,0-0.2,0.1-0.3,0.2C7.1,7.9,7.1,7.9,7,7.9
			C7,7.9,7,8,7,8c0.1,0,0.1,0,0.1,0c0,0,0.1,0,0.1,0c0,0,0,0,0,0c0,0,0,0,0.1,0.1c0,0,0.1,0,0.1,0c0,0.1,0.1,0.1,0.1,0.1
			c0,0,0,0,0,0c0,0,0,0,0-0.1C7.6,8.1,7.6,8.1,7.5,7.8C7.5,7.8,7.5,7.8,7.5,7.8z"/>
		
			<pattern  id="SVGID_31_" xlink:href="#New_Pattern_Swatch_2" patternTransform="matrix(0.6429 0 0 0.6226 -3115.9854 -2991.3215)">
		</pattern>
		<path class="st32" d="M4.4,11.5c-0.2-0.2-0.3-0.3-0.4-0.4c0,0,0,0-0.1-0.1c-0.1,0-0.1-0.1-0.2-0.1c0,0-0.1,0-0.1,0c0,0,0,0,0,0
			c-0.1,0-0.2,0.1-0.3,0.2c0.1,0,0.2,0,0.3,0c0.1,0.1,0.1,0.1,0.2,0.2c0,0,0.1,0,0.1,0c0,0,0,0,0.1,0.3c0,0,0.1,0,0.1,0
			C4.2,11.5,4.3,11.5,4.4,11.5C4.4,11.5,4.4,11.5,4.4,11.5z"/>
		
			<pattern  id="SVGID_32_" xlink:href="#New_Pattern_Swatch_2" patternTransform="matrix(0.6429 0 0 0.6226 -3115.9854 -2991.3215)">
		</pattern>
		<path class="st33" d="M6.7,5.1L6.7,5.1c0,0-0.1,0-0.2,0c0,0,0,0,0,0c0,0,0,0-0.1,0c0,0,0,0-0.1,0.1c0,0,0,0,0,0c0,0,0.1,0,0.2,0
			C6.6,5.2,6.8,5.1,6.7,5.1L6.7,5.1L6.7,5.1z"/>
		
			<pattern  id="SVGID_33_" xlink:href="#New_Pattern_Swatch_2" patternTransform="matrix(0.6429 0 0 0.6226 -3115.9854 -2991.3215)">
		</pattern>
		<path class="st34" d="M6.9,5C7,5,7,5,6.9,5C7,5,7,4.9,6.9,5C7,4.9,7,4.9,6.9,5c0-0.1,0-0.1,0-0.1c0,0,0,0,0,0
			C6.9,4.9,6.9,4.9,6.9,5C6.8,4.9,6.8,5,6.8,5c0,0,0,0,0,0l0,0c0,0,0,0,0,0c0,0,0,0,0,0h0h0l0,0h0h0h0c0,0,0.1,0,0.1,0
			C6.8,5,6.9,5,6.9,5z"/>
		
			<pattern  id="SVGID_34_" xlink:href="#New_Pattern_Swatch_2" patternTransform="matrix(0.6429 0 0 0.6226 -3115.9854 -2991.3215)">
		</pattern>
		<path class="st35" d="M4.8,11.6L4.8,11.6C4.8,11.6,4.8,11.6,4.8,11.6L4.8,11.6c0,0,0,0-0.3,0c0,0.1,0,0.1-0.2,0.1
			c0.1,0.1,0.3,0.1,0.4,0.2c0,0,0,0,0,0c0,0,0.1-0.1,0.2-0.1l0,0c0,0,0.1,0,0.1,0c0,0,0,0,0-0.1C5.1,11.8,5,11.7,4.8,11.6z"/>
		
			<pattern  id="SVGID_35_" xlink:href="#New_Pattern_Swatch_2" patternTransform="matrix(0.6429 0 0 0.6226 -3115.9854 -2991.3215)">
		</pattern>
		<path class="st36" d="M7.1,4.8C7.1,4.8,7.1,4.8,7.1,4.8C7.1,4.9,7.1,4.9,7.1,4.8C7.1,4.9,7.1,4.9,7.1,4.8L7.1,4.8L7.1,4.8
			C7.1,4.9,7.1,4.9,7.1,4.8C7.1,4.9,7.1,4.9,7.1,4.8C7.1,4.9,7.1,4.9,7.1,4.8C7.1,4.9,7.1,4.9,7.1,4.8C7.1,4.9,7.1,4.9,7.1,4.8
			C7.1,4.9,7.1,4.9,7.1,4.8C7.1,4.9,7.1,4.9,7.1,4.8L7.1,4.8L7.1,4.8L7.1,4.8C7.1,4.9,7.1,4.9,7.1,4.8C7.2,4.9,7.2,4.9,7.1,4.8
			c0.1,0,0.1,0,0.2,0c0,0,0,0,0,0c0,0,0,0,0,0c0,0,0,0,0,0c0,0,0,0-0.1,0c0,0,0,0,0,0C7.2,4.8,7.2,4.8,7.1,4.8
			C7.2,4.8,7.2,4.8,7.1,4.8C7.1,4.8,7.1,4.8,7.1,4.8z"/>
		
			<pattern  id="SVGID_36_" xlink:href="#New_Pattern_Swatch_2" patternTransform="matrix(0.6429 0 0 0.6226 -3115.9854 -2991.3215)">
		</pattern>
		<path class="st37" d="M13.5,8.2C13.5,8.2,13.5,8.2,13.5,8.2C13.5,8.2,13.5,8.2,13.5,8.2C13.5,8.3,13.5,8.3,13.5,8.2
			C13.5,8.3,13.5,8.3,13.5,8.2C13.5,8.3,13.6,8.3,13.5,8.2C13.6,8.3,13.6,8.3,13.5,8.2c0.1,0.1,0.1,0.1,0.1,0.1c0,0,0,0,0,0
			c0,0,0,0,0,0.1c0,0,0,0,0,0c0,0,0,0,0,0c0,0,0.1,0.1,0.1,0.1c0,0,0,0,0,0c0,0,0,0,0,0l0,0l0,0h0c0,0,0,0,0,0c0,0,0,0,0,0l0,0
			c0,0,0,0,0,0c0,0,0,0,0,0c0,0,0,0,0,0c0,0,0,0,0,0c0,0,0,0,0,0l0,0l0,0c0,0,0,0,0,0c0,0,0,0,0,0c0,0,0,0,0,0c0,0,0,0,0,0
			c0,0,0,0,0,0c0,0,0,0,0,0c0,0,0,0,0,0c0,0,0-0.1-0.1-0.1c0,0,0,0,0,0C13.6,8.3,13.6,8.2,13.5,8.2C13.6,8.2,13.6,8.2,13.5,8.2
			C13.6,8.2,13.6,8.2,13.5,8.2C13.6,8.2,13.6,8.2,13.5,8.2C13.6,8.2,13.6,8.2,13.5,8.2C13.6,8.2,13.6,8.2,13.5,8.2
			C13.6,8.2,13.6,8.2,13.5,8.2C13.6,8.2,13.5,8.1,13.5,8.2C13.5,8.1,13.5,8.1,13.5,8.2C13.5,8.1,13.5,8.1,13.5,8.2
			C13.5,8.1,13.5,8.2,13.5,8.2C13.5,8.2,13.5,8.2,13.5,8.2C13.5,8.2,13.5,8.2,13.5,8.2C13.5,8.2,13.5,8.2,13.5,8.2
			C13.5,8.2,13.5,8.2,13.5,8.2C13.5,8.2,13.5,8.2,13.5,8.2C13.5,8.2,13.5,8.2,13.5,8.2C13.5,8.2,13.5,8.2,13.5,8.2z"/>
		
			<pattern  id="SVGID_37_" xlink:href="#New_Pattern_Swatch_2" patternTransform="matrix(0.6429 0 0 0.6226 -3115.9854 -2991.3215)">
		</pattern>
		<path class="st38" d="M6.9,4.8C6.9,4.8,6.9,4.8,6.9,4.8c0.1,0,0.2,0,0.2,0c0,0,0,0,0,0l0,0c0,0,0,0,0,0c0,0,0,0,0,0v0h0h0l0,0h0
			l0,0h0h0h0c0,0,0,0,0,0h0l0,0c0,0,0,0,0,0h0c0,0,0,0,0,0c0,0,0,0,0,0c0,0,0,0,0,0h0c0,0,0,0,0,0c0,0,0,0,0,0C7,4.8,7,4.8,6.9,4.8
			C7,4.8,7,4.8,6.9,4.8C7,4.8,7,4.8,6.9,4.8L6.9,4.8L6.9,4.8C7,4.8,7,4.8,6.9,4.8L6.9,4.8C7,4.8,7,4.8,6.9,4.8
			C6.9,4.8,6.9,4.8,6.9,4.8C6.9,4.8,6.9,4.8,6.9,4.8C6.9,4.8,6.9,4.8,6.9,4.8C6.9,4.8,6.9,4.8,6.9,4.8C6.9,4.8,6.9,4.8,6.9,4.8
			C6.9,4.8,6.9,4.8,6.9,4.8C6.9,4.8,6.9,4.8,6.9,4.8z"/>
		
			<pattern  id="SVGID_38_" xlink:href="#New_Pattern_Swatch_2" patternTransform="matrix(0.6429 0 0 0.6226 -3115.9854 -2991.3215)">
		</pattern>
		<path class="st39" d="M6,6.1C6,6.2,6,6.2,6,6.1C6,6.2,6,6.2,6,6.1c0,0,0.1,0,0.1,0c0,0,0,0,0,0c0,0,0,0,0,0C6.1,6.1,6.1,6.1,6,6.1
			z"/>
		
			<pattern  id="SVGID_39_" xlink:href="#New_Pattern_Swatch_2" patternTransform="matrix(0.6429 0 0 0.6226 -3115.9854 -2991.3215)">
		</pattern>
		<path class="st40" d="M15.1,8.7C15.1,8.7,15.1,8.7,15.1,8.7c0,0-0.1,0-0.1,0c0,0,0,0,0,0C15,8.7,15.1,8.7,15.1,8.7
			C15.1,8.7,15.1,8.7,15.1,8.7z"/>
		
			<pattern  id="SVGID_40_" xlink:href="#New_Pattern_Swatch_2" patternTransform="matrix(0.6429 0 0 0.6226 -3115.9854 -2991.3215)">
		</pattern>
		<path class="st41" d="M6.9,5.6C6.9,5.6,6.9,5.6,6.9,5.6c0,0-0.1,0-0.1,0c0,0,0,0,0,0.1C6.8,5.7,6.9,5.6,6.9,5.6
			C6.9,5.6,6.9,5.6,6.9,5.6z"/>
		
			<pattern  id="SVGID_41_" xlink:href="#New_Pattern_Swatch_2" patternTransform="matrix(0.6429 0 0 0.6226 -3115.9854 -2991.3215)">
		</pattern>
		<path class="st42" d="M5.7,6.8C5.7,6.8,5.7,6.8,5.7,6.8L5.7,6.8c0.1,0,0.1,0,0.1,0c0,0,0,0,0,0C5.8,6.8,5.8,6.8,5.7,6.8
			C5.8,6.8,5.8,6.8,5.7,6.8z"/>
		
			<pattern  id="SVGID_42_" xlink:href="#New_Pattern_Swatch_2" patternTransform="matrix(0.6429 0 0 0.6226 -3115.9854 -2991.3215)">
		</pattern>
		<path class="st43" d="M4.1,10.9C4.1,10.9,4.1,10.9,4.1,10.9c0-0.1,0-0.1,0-0.2C4,10.8,4,10.8,4.1,10.9z"/>
		
			<pattern  id="SVGID_43_" xlink:href="#New_Pattern_Swatch_2" patternTransform="matrix(0.6429 0 0 0.6226 -3115.9854 -2991.3215)">
		</pattern>
		<path class="st44" d="M4.2,10.6C4.2,10.6,4.2,10.6,4.2,10.6c0-0.1,0-0.1,0-0.1c0,0-0.1,0-0.1,0.1C4.1,10.5,4.2,10.5,4.2,10.6
			C4.2,10.5,4.2,10.6,4.2,10.6z"/>
		
			<pattern  id="SVGID_44_" xlink:href="#New_Pattern_Swatch_2" patternTransform="matrix(0.6429 0 0 0.6226 -3115.9854 -2991.3215)">
		</pattern>
		<path class="st45" d="M6.2,6.2L6.2,6.2C6.2,6.2,6.2,6.2,6.2,6.2C6.2,6.2,6.2,6.3,6.2,6.2L6.2,6.2L6.2,6.2C6.2,6.3,6.2,6.3,6.2,6.2
			C6.2,6.2,6.2,6.2,6.2,6.2C6.2,6.2,6.3,6.2,6.2,6.2C6.3,6.2,6.3,6.2,6.2,6.2C6.2,6.2,6.2,6.2,6.2,6.2z"/>
		
			<pattern  id="SVGID_45_" xlink:href="#New_Pattern_Swatch_2" patternTransform="matrix(0.6429 0 0 0.6226 -3115.9854 -2991.3215)">
		</pattern>
		<path class="st46" d="M7,20.5C7,20.5,7,20.5,7,20.5C7,20.5,7,20.5,7,20.5C7,20.5,7.1,20.5,7,20.5c0.1,0,0.1,0,0.1,0c0,0,0,0,0,0
			C7.1,20.4,7.1,20.4,7,20.5C7,20.4,7,20.5,7,20.5z"/>
		
			<pattern  id="SVGID_46_" xlink:href="#New_Pattern_Swatch_2" patternTransform="matrix(0.6429 0 0 0.6226 -3115.9854 -2991.3215)">
		</pattern>
		<path class="st47" d="M7.4,4.8C7.4,4.8,7.5,4.8,7.4,4.8C7.5,4.8,7.4,4.8,7.4,4.8C7.4,4.8,7.4,4.8,7.4,4.8C7.4,4.8,7.4,4.8,7.4,4.8
			C7.4,4.8,7.4,4.8,7.4,4.8z"/>
		
			<pattern  id="SVGID_47_" xlink:href="#New_Pattern_Swatch_2" patternTransform="matrix(0.6429 0 0 0.6226 -3115.9854 -2991.3215)">
		</pattern>
		<path class="st48" d="M10.2,4.7C10.2,4.7,10.2,4.7,10.2,4.7C10.2,4.7,10.2,4.7,10.2,4.7L10.2,4.7L10.2,4.7L10.2,4.7
			C10.2,4.7,10.2,4.7,10.2,4.7C10.1,4.7,10.1,4.7,10.2,4.7C10.1,4.7,10.1,4.7,10.2,4.7C10.1,4.7,10.2,4.7,10.2,4.7z"/>
		
			<pattern  id="SVGID_48_" xlink:href="#New_Pattern_Swatch_2" patternTransform="matrix(0.6429 0 0 0.6226 -3115.9854 -2991.3215)">
		</pattern>
		<path class="st49" d="M11.7,10.6C11.7,10.6,11.7,10.6,11.7,10.6C11.8,10.6,11.8,10.6,11.7,10.6L11.7,10.6
			C11.8,10.6,11.8,10.6,11.7,10.6c0.1,0,0.1,0,0.1-0.1c0,0,0,0,0,0C11.8,10.5,11.7,10.5,11.7,10.6z"/>
		
			<pattern  id="SVGID_49_" xlink:href="#New_Pattern_Swatch_2" patternTransform="matrix(0.6429 0 0 0.6226 -3115.9854 -2991.3215)">
		</pattern>
		<path class="st50" d="M6.9,20.4C6.9,20.4,6.9,20.4,6.9,20.4C6.9,20.4,6.9,20.4,6.9,20.4C6.8,20.4,6.8,20.4,6.9,20.4
			C6.8,20.5,6.9,20.5,6.9,20.4C6.9,20.5,6.9,20.5,6.9,20.4C6.9,20.5,6.9,20.5,6.9,20.4C6.9,20.5,6.9,20.5,6.9,20.4
			C6.9,20.4,6.9,20.4,6.9,20.4z"/>
		
			<pattern  id="SVGID_50_" xlink:href="#New_Pattern_Swatch_2" patternTransform="matrix(0.6429 0 0 0.6226 -3115.9854 -2991.3215)">
		</pattern>
		<path class="st51" d="M6.4,6.1C6.4,6.1,6.4,6.1,6.4,6.1C6.4,6.2,6.4,6.2,6.4,6.1L6.4,6.1C6.4,6.1,6.4,6.1,6.4,6.1
			C6.4,6.1,6.4,6.1,6.4,6.1z"/>
		
			<pattern  id="SVGID_51_" xlink:href="#New_Pattern_Swatch_2" patternTransform="matrix(0.6429 0 0 0.6226 -3115.9854 -2991.3215)">
		</pattern>
		<path class="st52" d="M10.3,4.8L10.3,4.8L10.3,4.8L10.3,4.8L10.3,4.8L10.3,4.8L10.3,4.8L10.3,4.8L10.3,4.8L10.3,4.8
			C10.3,4.8,10.3,4.8,10.3,4.8C10.3,4.8,10.3,4.8,10.3,4.8L10.3,4.8L10.3,4.8L10.3,4.8L10.3,4.8L10.3,4.8
			C10.3,4.8,10.3,4.8,10.3,4.8L10.3,4.8L10.3,4.8C10.3,4.8,10.3,4.8,10.3,4.8L10.3,4.8L10.3,4.8C10.3,4.8,10.3,4.8,10.3,4.8
			L10.3,4.8C10.3,4.8,10.3,4.8,10.3,4.8L10.3,4.8L10.3,4.8L10.3,4.8L10.3,4.8L10.3,4.8L10.3,4.8L10.3,4.8L10.3,4.8L10.3,4.8
			L10.3,4.8L10.3,4.8C10.3,4.8,10.3,4.8,10.3,4.8L10.3,4.8L10.3,4.8L10.3,4.8L10.3,4.8C10.3,4.8,10.3,4.8,10.3,4.8L10.3,4.8
			C10.3,4.8,10.3,4.8,10.3,4.8C10.3,4.8,10.3,4.8,10.3,4.8z"/>
	</g>
</g>
</svg>
