<svg xmlns="http://www.w3.org/2000/svg" xmlns:xlink="http://www.w3.org/1999/xlink" viewBox="0 0 47.8 25.31"><defs><style>.cls-1{fill:none;}.cls-2{fill:#ac0000;}.cls-3{fill:url(#New_Pattern_Swatch_1);}</style><pattern id="New_Pattern_Swatch_1" data-name="New Pattern Swatch 1" width="45" height="45" patternTransform="translate(-118.75 190.58) scale(0.94 0.91)" patternUnits="userSpaceOnUse" viewBox="0 0 45 45"><rect class="cls-1" width="45" height="45"/><rect class="cls-2" width="45" height="45"/></pattern></defs><title>nav3</title><g id="Layer_2" data-name="Layer 2"><g id="Layer_1-2" data-name="Layer 1"><rect class="cls-1" width="47.8" height="25.31"/><path class="cls-3" d="M20.71,4.46h1.63V1.34a.78.78,0,0,1,.78-.78h1.56a.78.78,0,0,1,.78.78V4.46h1.63a.57.57,0,0,1,.42.93L24.63,8.81a1,1,0,0,1-1.45,0L20.29,5.39A.57.57,0,0,1,20.71,4.46ZM18.44,15.78c-2.59,0-4.68-.87-4.68-2V15c0,1.08,2.1,2,4.68,2s4.68-.87,4.68-2V13.83C23.12,14.91,21,15.78,18.44,15.78Zm0-2c-2.59,0-4.68-.87-4.68-2V13c0,1.08,2.1,2,4.68,2s4.68-.87,4.68-2V11.88C23.12,13,21,13.83,18.44,13.83Zm0-4.68c-2.59,0-4.68.87-4.68,2s2.1,2,4.68,2,4.68-.87,4.68-2S21,9.14,18.44,9.14Zm10.93,6.64c-2.59,0-4.68-.87-4.68-2V15c0,1.08,2.1,2,4.68,2s4.68-.87,4.68-2V13.83C34.05,14.91,32,15.78,29.37,15.78Zm0-4.68c-2.59,0-4.68.87-4.68,2s2.1,2,4.68,2,4.68-.87,4.68-2S32,11.1,29.37,11.1ZM18.91,17.72h-.47c-2.59,0-4.68-.87-4.68-2V17c0,1.08,2.1,2,4.68,2h0A1.76,1.76,0,0,1,18.91,17.72Zm-5.15,0v1.17c0,1.08,2.1,2,4.68,2V19.69C15.85,19.69,13.75,18.81,13.75,17.73ZM29.37,18.9c2.59,0,4.68-.87,4.68-2V15.78c0,1.08-2.1,2-4.68,2H28.9a1.76,1.76,0,0,1,.47,1.18Zm4.68,0V17.73c0,1.08-2.1,2-4.68,2v1.17C32,20.86,34.05,20,34.05,18.91ZM23.9,21.63c-2.59,0-4.68-.87-4.68-2v1.17c0,1.08,2.1,2,4.68,2s4.68-.87,4.68-2V19.68C28.59,20.76,26.49,21.63,23.9,21.63Zm0,2c-2.59,0-4.68-.87-4.68-2v1.17c0,1.08,2.1,2,4.68,2s4.68-.87,4.68-2V21.64C28.59,22.71,26.49,23.59,23.9,23.59Zm0-6.64c-2.59,0-4.68.87-4.68,2s2.1,2,4.68,2,4.68-.87,4.68-2S26.49,17,23.9,17Z"/></g></g></svg>