<svg xmlns="http://www.w3.org/2000/svg" xmlns:xlink="http://www.w3.org/1999/xlink" viewBox="0 0 47.8 25.31"><defs><style>.cls-1{fill:none;}.cls-2{fill:#ac0000;}.cls-3{fill:url(#New_Pattern_Swatch_1);}</style><pattern id="New_Pattern_Swatch_1" data-name="New Pattern Swatch 1" width="45" height="45" patternTransform="translate(-169.43 283.21) scale(0.83 0.8)" patternUnits="userSpaceOnUse" viewBox="0 0 45 45"><rect class="cls-1" width="45" height="45"/><rect class="cls-2" width="45" height="45"/></pattern></defs><title>nav4</title><g id="Layer_2" data-name="Layer 2"><g id="Layer_1-2" data-name="Layer 1"><rect class="cls-1" width="47.8" height="25.31"/><path class="cls-3" d="M17.7,15.29,17,19.19l-1-5.35-3.65-3.08a.55.55,0,0,1,.21-.95L35,3.88a.55.55,0,0,1,.61.81l-9.9,16.5a.55.55,0,0,1-.82.14l-5.93-5,9.91-7.54a.24.24,0,0,0-.27-.39Z"/><path class="cls-3" d="M18.61,17.14l1.53,1.22a.12.12,0,0,1,0,.19l-1.83,1.22a.12.12,0,0,1-.18-.11l.31-2.44A.12.12,0,0,1,18.61,17.14Z"/></g></g></svg>