<svg xmlns="http://www.w3.org/2000/svg" viewBox="0 0 15.61 15.89"><defs><style>.cls-1{fill:#fff;}.cls-2{fill:#a00e0e;}</style></defs><title>bitamin-title</title><g id="Layer_2" data-name="Layer 2"><g id="Layer_1-2" data-name="Layer 1"><path class="cls-1" d="M6.1,1.38h0C3.52,2.57-1.6,6.25.49,8.7A29.77,29.77,0,0,0,5,12.93c1.82,1.29,5.32,3.76,7.61,2.7s2.71-5.31,2.91-7.54a29.77,29.77,0,0,0-.27-6.19C14.77-1.26,8.64.22,6.1,1.38Z"/><path class="cls-1" d="M15.26,1.91C14.77-1.26,8.64.22,6.1,1.38h0A15.86,15.86,0,0,0,1,5.16,16.54,16.54,0,0,1,5.67,1.84h0c2.54-1.17,8.67-2.65,9.16.53a29.77,29.77,0,0,1,.27,6.19c-.17,1.77-.46,4.84-1.73,6.54,1.6-1.56,1.94-5,2.12-7A29.77,29.77,0,0,0,15.26,1.91Z"/><path class="cls-2" d="M6.53,2.33h0c-2.2,1-6.64,4.21-4.83,6.33a25.83,25.83,0,0,0,3.92,3.68c1.58,1.12,4.62,3.27,6.6,2.34s2.35-4.61,2.53-6.54a25.83,25.83,0,0,0-.24-5.37C14.05,0,8.74,1.32,6.53,2.33Z"/><path class="cls-1" d="M10.8,7.82a1.87,1.87,0,0,0,.46-.29,1.67,1.67,0,0,0,.48-.73,1.82,1.82,0,0,0,.08-.93,1.91,1.91,0,0,0-.35-.83,2,2,0,0,0-.61-.55,5,5,0,0,0-.78-.35L8.68,3.67c-.07-.06-.11-.12-.1-.17h0a.13.13,0,0,0,0-.06s0-.08-.15-.11l-.61-.21a.13.13,0,0,0-.17.08A1.12,1.12,0,0,0,8.1,4.46L6.41,9.27a1.12,1.12,0,0,0-1.15.7.13.13,0,0,0,.08.17l.67.24a.13.13,0,0,0,.17-.07s.05-.07.21-.06l1.37.48a7.92,7.92,0,0,0,.92.28,2.38,2.38,0,0,0,1,0,1.9,1.9,0,0,0,.87-.47,2,2,0,0,0,.54-.82,2,2,0,0,0,.07-1.16A1.86,1.86,0,0,0,10.8,7.82ZM9.09,4.9l.77.27a2.72,2.72,0,0,1,.45.2,1.1,1.1,0,0,1,.3.25.77.77,0,0,1,.15.36.84.84,0,0,1,0,.43.83.83,0,0,1-.25.36A.72.72,0,0,1,10.1,7l-.2,0A.91.91,0,0,0,8.53,6.6h0Zm.68,4.87A1,1,0,0,1,9.3,10a1.52,1.52,0,0,1-.46,0,3.19,3.19,0,0,1-.53-.14l-.85-.3.7-2h0a.91.91,0,0,0,1.4.55l.19.13a1,1,0,0,1,.34.51,1,1,0,0,1,0,.63A.93.93,0,0,1,9.77,9.77Z"/></g></g></svg>