<svg xmlns="http://www.w3.org/2000/svg" xmlns:xlink="http://www.w3.org/1999/xlink" viewBox="0 0 47.8 25.3"><defs><style>.cls-1{fill:none;}.cls-2{fill:#ac0000;}.cls-3{fill:url(#New_Pattern_Swatch_1);}.cls-4{fill:url(#New_Pattern_Swatch_1-3);}.cls-5{fill:#a00e0e;}.cls-6{fill:url(#New_Pattern_Swatch_1-77);}</style><pattern id="New_Pattern_Swatch_1" data-name="New Pattern Swatch 1" width="45" height="45" patternTransform="translate(-202.13 139.03) scale(0.64 0.62)" patternUnits="userSpaceOnUse" viewBox="0 0 45 45"><rect class="cls-1" width="45" height="45"/><rect class="cls-2" width="45" height="45"/></pattern><pattern id="New_Pattern_Swatch_1-3" data-name="New Pattern Swatch 1" width="45" height="45" patternTransform="translate(-202.13 138.96) scale(0.64 0.62)" patternUnits="userSpaceOnUse" viewBox="0 0 45 45"><rect class="cls-1" width="45" height="45"/><rect class="cls-2" width="45" height="45"/></pattern><pattern id="New_Pattern_Swatch_1-77" data-name="New Pattern Swatch 1" width="45" height="45" patternTransform="translate(-182.81 272.83) scale(0.83 0.8)" patternUnits="userSpaceOnUse" viewBox="0 0 45 45"><rect class="cls-1" width="45" height="45"/><rect class="cls-2" width="45" height="45"/></pattern></defs><title>nav1</title><g id="Layer_2" data-name="Layer 2"><g id="Layer_1-2" data-name="Layer 1"><rect class="cls-1" width="47.8" height="25.3"/><polygon class="cls-3" points="17.84 14.34 24.7 14.35 24.7 16.61 28.64 12.65 24.7 8.69 24.7 10.97 17.84 10.96 17.84 14.34"/><circle class="cls-4" cx="34.65" cy="18.42" transform="translate(-3.35 28.22) rotate(-42.45)"/><circle class="cls-4" cx="38.12" cy="6.53" r="0.01" transform="translate(0.92 17.13) rotate(-25.63)"/><path class="cls-4" d="M38.81,4a8.57,8.57,0,0,0-4.32,1.17h-.06l-.08,0h0A8.61,8.61,0,1,0,38.81,4ZM36,5l-.14.11h-.05a.24.24,0,0,1-.1,0l0-.06V5h0L36,5Zm-.45,15.23-.1,0L35.25,20a7.73,7.73,0,0,1-.88-.49l-.17-.11h0l-.05,0L33.68,19l-.05,0-.06,0,0,0-.42-.38,0,0h0L33,18.41l-.31-.33,0-.06L32.57,18l-.36-.45h0l-.13-.18L32,17.19l-.08-.12-.09-.13,0-.06,0,0-.26-.46c-.07-.16-.18-.36-.25-.53l0-.07a5.52,5.52,0,0,1-.23-.63c-.05-.16-.1-.35-.15-.54s-.12-.54-.16-.78,0-.41-.05-.63,0-.44,0-.63,0-.31,0-.48,0-.22,0-.3.05-.42.08-.6a5.5,5.5,0,0,1,.15-.66l0-.06c.08-.28.15-.49.18-.58h0c.06-.17.14-.38.22-.54l0-.07,0-.08c.08-.16.16-.34.26-.52l.15-.26a5.32,5.32,0,0,1-.29.81h0a5.34,5.34,0,0,0-.1.82h0c.29-.35,0-.89.37-1.2-.28,2.48-.28,2.48.17,2.69h.16a.25.25,0,0,1,.1.14c.12.28.21.4.4.48h0l0,0c.32.79.32.79.7,1.09l.07,0a.54.54,0,0,1,0-.11.32.32,0,0,1,.12,0c.55.62-.35,1.14-.24,1.75-.12.15-.13.17,0,.42A4.19,4.19,0,0,0,34.54,17c.14.1.21.16.24.29l.33,1.64c.14.71.15.72.17.74v-.1a.4.4,0,0,1,.09.14l-.08,0v0l0,.06v.08h0l.08,0V20a1.22,1.22,0,0,0,.2.18h0Zm1.63.51h0Zm7.16-2,0,0h0c-.13.12-.24.21-.44.38h0c-.25.19-.4.3-.57.41l-.2.13-.3.17-.06,0-.13.07-.4.2-.06,0-.1,0-.15.06-.27.11-.36.13-.09,0-.21.06h0l-.25.07-.08,0h-.27l-.09,0-.16,0H40l-.26,0H38.27l-.27,0h-.06l-.2,0h0l-.16,0h-.06l-.16,0h-.18l-.09,0h0l-.44-.11h0c-.18-.06-.42-.14-.45-.28l.1-.14,0,0C36.06,20,36.06,20,36,20c.15-.11.15-.11.2-.19l0-.06a.44.44,0,0,1-.13-.11h0l.1,0,.08,0,.08,0a.24.24,0,0,1,0-.14h.08c.18,0,.36,0,.36-.21s-.1-.14-.1-.15l.17.05h0c.77,0,.7-1.12,1.45-1.2h.07c.46-.09.54-.88.57-1.22,0,0,.6-.86.6-.86,0-.34-.83-.61-.84-.61a3.46,3.46,0,0,0-.38-.07.49.49,0,0,1-.18,0c-.23-.28-.72-.24-.86-.65l0-.13a.56.56,0,0,0-.13-.26l-.05,0A.76.76,0,0,0,37,14L37,14h0a.73.73,0,0,0-.28-.09h-.14a.41.41,0,0,1-.24-.19c-.09-.15-.13-.2-.29-.25h0A.63.63,0,0,0,35.5,13l0,.08c-.2,0-.2,0-.7-.35-.16.12-.16.12-.24.11v0l.08-.11c-.27-.08-.27-.08-.75.38-.11-.05-.19-.16-.31-.2l-.15,0h-.09c-.41-.22,0-.67-.12-1a.59.59,0,0,0-.31-.23l-.08,0h0l-.07,0,0-.08c.08-.2.27-.34.3-.57V11L33,10.91c-.28,0-.42.28-.68.29h0a1.14,1.14,0,0,1,.48-1.51l.09,0h.08l.2.16h.12v0h0a.54.54,0,0,1,.19,0s0,0,.16.14h.1c.16.22,0,.48.1.71h.09c.15-.27,0-.6.18-.86s.56-.23.8-.43c0-.16,0-.16,0-.2a7.51,7.51,0,0,0,.6-.49l.18,0,0-.08s0-.07,0-.1a1.4,1.4,0,0,1,.6-.25v0l-.08.09V8.4l0,0a1.45,1.45,0,0,0,.65-.27l0-.09c-.07,0-.12.09-.19.12l0,0,0-.08h-.11L36.47,8l.05-.08h-.09c.11,0,.14,0,.17-.11l-.06-.06a1.79,1.79,0,0,0-.45.12l0,0,.21-.12a.37.37,0,0,1,.25-.07l.06,0a.31.31,0,0,0,.11.13h0l.07,0V7.7c.24,0,.64-.14.67-.37l-.06-.06h0V7.17c-.18-.09-.18-.09-.29-.6h0l-.06,0,0,0h0a.4.4,0,0,1-.23.11.63.63,0,0,1,0-.18l.07-.06,0,0-.13-.14c-.05-.05-.06-.06-.07-.06h-.19l-.16.18,0,.08-.13.12c0,.13,0,.13-.39.4-.13.29-.13.29-.24.34h0l0,0V7.12l0,0,0-.07.08-.15a3.75,3.75,0,0,0-.31-.39h-.06c0-.09,0-.09.14-.29a8.68,8.68,0,0,1,.93-.38L36,6,36,6h.16l.05,0h0l.08,0h0a.25.25,0,0,1,0-.22l0,0,0,0a.41.41,0,0,0,.28-.16s.06,0,.07,0l0-.06.06,0,.11,0h0a.72.72,0,0,1-.07.14l-.1.05v.06l.08,0,.06,0H37l0,.06-.16.1,0,0h-.1L36.53,6h0l0,.06h.17c0,.06,0,.14.1.2h.05c.05,0,.09.1.16.11h0V6.27h0l.06.05h0l0-.06.07-.05v0A.35.35,0,0,0,37.21,6l0-.07h0l0,.09.1,0L37.57,6V5.89l-.19-.19,0,0,0-.07-.08-.15h-.05a.32.32,0,0,1,0-.17l0,0-.07,0h0c-.23,0-.44-.09-.61.19l0,.08-.07.06-.19.06v0a.29.29,0,0,0,.09-.11h0l-.09,0h0l.08,0h0c.1-.16.1-.16.18-.22s.21,0,.31-.09l0,0c-.13,0-.22.09-.34.13l-.14.05-.14.09h-.13l-.06.07-.08,0h0l-.07,0h0V5.33H36a.26.26,0,0,0,.23-.07c0-.1,0-.1.23-.2l.12,0,0,0h-.29l.1-.08V4.9s.06,0,.07-.06h0l0,0h0l.14,0h.09l-.12,0h0a1.34,1.34,0,0,0,.28,0h0s0,0,0,0h0l.11,0h0l.08,0h.15l.24,0,.21,0h0l.15,0h1.59l.17,0h.2l.22,0h0l.15,0,.08,0h0l.24,0h0a8.33,8.33,0,0,1,.9.25l.41.16h0v0l0,0h0l.12,0h0l.11.06,0,0h0a1.37,1.37,0,0,0-.55-.08l-.11,0h0v0h-.08l0,0h0a.65.65,0,0,0,0,.11h0l0,0a1,1,0,0,0,0,.18h.07l0,0,0,.06c0,.09.11.17.16.26v.05l0,0a.66.66,0,0,0,0,.2s.21.42.43.33h.07a.32.32,0,0,0,0-.13h0a.73.73,0,0,1,.33.18l0,0v0h0l-.08,0-.05,0,0,0,0-.06h0v0h0c-.06.23.2.26.27.41-.15.08-.19.1-.19.51l0,.07a.14.14,0,0,1-.15,0h0l.1.1,0,0h0c-.12,0-.13,0-.16,0l-.06,0h0c.1.13.32.18.45.29a.6.6,0,0,1,.1.18h0a.34.34,0,0,1,0,.1l-.05,0h-.14l-.32,0a.25.25,0,0,0-.1.09h0c.14.24.11.56.33.76h0l.07,0a.44.44,0,0,1,.22.06l.06,0,.17-.06h0c.14,0,.15-.07.18-.14V9a1,1,0,0,0,0-.75h0v0l0,0,.14,0h0l0,0c0-.08,0-.09,0-.12h.21c.14.06.65.39.78.47s0,.09-.11.16v.05l.27.09,0-.16c0-.12,0-.23,0-.23l0-.06V8.25h.11l0,0h0A1.76,1.76,0,0,0,43.79,8h-.06c-.07,0-.08,0-.12-.15v0h.12a1.45,1.45,0,0,0,.39.15l0-.08a.21.21,0,0,1,.08,0c.06.15.06.15.36.44a.49.49,0,0,0,.32.22.81.81,0,0,0-.28-.42l0,0h.05v0h0V8c.07,0,.11,0,.25.19l0,0,.08.06a.35.35,0,0,0,.08.09h0l.06,0h0v0h0l.06,0v0h0v0a.38.38,0,0,1,0,0h.12v0c0-.08,0-.08,0-.12a2.15,2.15,0,0,1,.29.5l.06.14v0s-.05.06-.08.06h0a.27.27,0,0,0,0,.12l-.05,0c-.16,0-.31-.08-.47,0h0c0,.05,0,.05.05.32l0,0H45c-.18,0-.32-.18-.52-.14h0a.34.34,0,0,1-.25-.09v0c0-.1,0-.12-.11-.27v0h0l0,0h-.17a2.14,2.14,0,0,1-.22.12h0l-.14,0h0L43.39,9l-.73.4c-.19.24-.08.54-.15.8h0a.29.29,0,0,1,0,.07h0l0,.06-.09.07-.07.09a.42.42,0,0,0-.08.1s-.4.81-.2,1.08,0,.56,0,.84c.05.09.05.09.09.32l.09.14.07,0c.6,1,1,.94,1.07.94l.11,0c.25-.13.25-.13.31-.14l.16,0H44l.11-.07.23-.19a.62.62,0,0,1,.26-.15c.14,0,.16,0,.21.12s.08.11.16.1l.08,0,.07,0h.07v0l0,.07h.08c.12.25-.11.48,0,.72.33,1.14.33,1.14.32,1.28l-.47,1.76c-.07.21-.26.82-.3.94l-.3.3Z"/><path class="cls-4" d="M39.05,20.64h-.13l.07,0h.08l0,0Z"/><path class="cls-4" d="M37,4.81h0l0,0h0Z"/><path class="cls-4" d="M40.45,4.82h0l-.21,0s0,0,0,0l0,0,0,0h-.13s0,0,0,0H40l0,.06,0,0H40l.07,0,.06,0h.12l.06,0h0l.08,0h0l-.07,0h0l.09,0h.1S40.48,4.83,40.45,4.82Z"/><path class="cls-4" d="M43.28,8.68h0s0,0,0-.07h0l0,.06h0Z"/><path class="cls-4" d="M41.3,6.66h0l0,0a0,0,0,0,0,0,0l0,.08,0-.05h0Z"/><path class="cls-4" d="M42.1,10.46s0,0,0-.09v0l0,.17,0,0Z"/><path class="cls-4" d="M39.86,10.41h0Z"/><path class="cls-4" d="M40.17,10.39h0Z"/><path class="cls-4" d="M39.65,5.54h0V5.49l0-.21v0h-.06v0h0v0l0,0-.05,0,0,0h0l.06,0v0h0l0,0L39.41,5h0c0-.07,0-.09,0-.14h0l0,0H39.2l0,0v0h0l0,0h0l0,0H39L39,4.7h-.08l-.14,0-.18,0h-.13l-.17,0h0l0,0h0l.08,0h0l0,0h0l-.05,0h-.08v0h-.4l-.05,0h0v0l-.27.08s-.09.06-.1.1l0,0h0l0,0h-.05l.05,0h0l-.06,0L37.2,5l0,0h0l.07,0c.06-.05.06-.05.06-.08h0s0,0-.08,0l-.06.06h0l0,0h0L37,5h-.09c-.07,0-.07.06-.07.07h0a.13.13,0,0,0,.09,0L37.06,5h0l0,0c-.1.05-.1.05-.1.08l.25.1s.2,0,.17-.11h-.22l0,0h.09l0,0h.14s0,0,0,0h.05c.59-.24.59-.24.68-.24h0l0,0h0L37.82,5V5h0s0,0,0,.09,0,0,0,0l.13,0h0c.19,0,.19,0,.19.14s0,.17,0,.25h0l0,0h0l0,.06c0,.05,0,.05,0,.06s0,0,0,0l.12,0h0v0h0s0,0-.06.05A.26.26,0,0,0,38,6c0,.1.15.52.26.55h0c.09,0,.13.11.23.12s0,0,.08-.07v0l0-.06h0l.15-.37c.08,0,.18,0,.25-.1l.23-.19h0c.17,0,.44-.18.36-.28Z"/><path class="cls-4" d="M42.21,7.42a.29.29,0,0,0,.13-.08h0a.14.14,0,0,0,0,0l0,0v0l0-.06v0h0s0,0-.1-.05h0s0,0-.22-.12l-.26-.16h0v0a.46.46,0,0,0,0-.08h-.14v0h0V6.55h0v0h0v0s0,.06-.06.06h0a0,0,0,0,0,0,0h0l0,0h0l0,0a.89.89,0,0,0,.1.14l0,0a.24.24,0,0,0,.07,0h-.12l0,0s0,0,0,.1l-.09,0,.07.09.05.06v.1c.06.05.09.06.11.06l0,0h0l.11-.08,0,0h0a.19.19,0,0,0,0-.07l-.07-.15V7h0s0,0,0,0h0l0,0,0,0h.05a.14.14,0,0,1,.11,0l0,.05s0,0,0,0h0a.06.06,0,0,0,0,0h0v0h0l0,0h0l0,0h0l0,.07h0l.15.06v0h0v0h0l0,0H42A.84.84,0,0,0,42.21,7.42Z"/><path class="cls-4" d="M40.24,5.94l-.08,0h0l-.09,0H40V6A.24.24,0,0,0,39.85,6h0a.12.12,0,0,0,0,.09l.08,0,0,0,.11,0,0,0a.63.63,0,0,0,.23,0h0c.08,0,.23-.06.22-.2h0Z"/><path class="cls-4" d="M36.85,4.87h0s0,0,0,0l0,0h-.16l.08-.08.06,0h0a1.06,1.06,0,0,0-.29,0s0,0,0,0h0l-.06,0,0,0h.05l.1,0h0l.1,0,.09,0Z"/><path class="cls-4" d="M37.49,7.78a.11.11,0,0,1-.1-.09l.07-.12a.34.34,0,0,0-.26.17c-.07.1-.1.11-.15.12L37,8l.1,0,.14,0h0s0,0,.06.07l.1,0a.16.16,0,0,0,.1.07h0a.12.12,0,0,0,0-.07s0,0-.07-.3Z"/><path class="cls-4" d="M34.39,11.46l-.39-.4s0,0-.13-.07l-.21-.14-.08,0h0c-.14,0-.22.08-.29.18l.26,0a.36.36,0,0,0,.24.16l.09,0s0,0,.14.29l.14,0a.34.34,0,0,0,.24,0Z"/><path class="cls-4" d="M36.75,5h0a.31.31,0,0,0-.17,0l0,0s0,0-.07,0l-.09.09s0,0,0,0,.07,0,.18,0,.21-.12.19-.14h0Z"/><path class="cls-4" d="M37,5l.08,0s0,0,0,0-.06,0-.1,0,0,0,0,0h0c-.06,0-.1,0-.08.06h0s0,0,0,0,0,0,0,0h.06Z"/><path class="cls-4" d="M34.83,11.58h0l-.3,0c0,.11,0,.11-.21.15.09.12.26.11.36.21l0,0a.26.26,0,0,1,.21-.06h0a.4.4,0,0,1,.13,0,.12.12,0,0,0,0-.05A.27.27,0,0,0,34.83,11.58Z"/><path class="cls-4" d="M37.14,4.79l0,0h.08l.1-.05,0,0,0,0s0,0,0,0h-.1l-.08,0Z"/><path class="cls-4" d="M43.53,8.19v0h0v0h0v0h0l0,.06v.09l0,0v0l.1.15h0a.07.07,0,0,0,0,0h0v0h0v0h0v0h0v0h0l0,0h0l-.08-.09h0a1.27,1.27,0,0,0-.06-.13h-.06v0h0v0h0v0Z"/><path class="cls-4" d="M36.94,4.77h0l.19,0H37l0,0h0Z"/><path class="cls-4" d="M36,6.11s0,0,0,0h0s.06,0,.12-.06h0l0,0S36.1,6.06,36,6.11Z"/><path class="cls-4" d="M45.16,8.63h0a.16.16,0,0,0-.1,0,.07.07,0,0,0,0,0s.08,0,.12,0S45.17,8.66,45.16,8.63Z"/><path class="cls-4" d="M36.95,5.56v0l-.12.07,0,.06.15-.1Z"/><path class="cls-4" d="M35.73,6.8h0s0,0,.08,0h0l0,0S35.78,6.75,35.73,6.8Z"/><path class="cls-4" d="M34.13,10.85h0c0-.09,0-.14,0-.2C34.05,10.76,34,10.79,34.13,10.85Z"/><path class="cls-4" d="M34.26,10.55h0c0-.07,0-.13,0-.14s-.07,0-.13.06h.12Z"/><path class="cls-4" d="M36.2,6.19h0s0,0,0,0h0l.08,0h0a.41.41,0,0,0,0,0h0S36.22,6.17,36.2,6.19Z"/><path class="cls-4" d="M37,20.44h0l.06,0h0l-.11,0Z"/><path class="cls-4" d="M37.45,4.74l0,0h0l0,0h0Z"/><path class="cls-4" d="M40.18,4.66h0l0,0h0Z"/><path class="cls-4" d="M41.73,10.55h.07s0,0,.05-.08h0C41.78,10.48,41.75,10.49,41.73,10.55Z"/><path class="cls-4" d="M36.9,20.39h0s0,0,0,0h0s0,0,0,0Z"/><path class="cls-4" d="M36.41,6.08s0,0,0,0h0s0,0,0,0Z"/><path class="cls-4" d="M40.36,4.74Z"/><path class="cls-5" d="M11.05,12.52a1.87,1.87,0,0,0,.46-.29,1.67,1.67,0,0,0,.48-.73,1.82,1.82,0,0,0,.08-.93,1.91,1.91,0,0,0-.35-.83,2,2,0,0,0-.61-.55,5,5,0,0,0-.78-.35L8.93,8.37c-.07-.06-.11-.12-.1-.17h0a.13.13,0,0,0,0-.06s0-.08-.15-.11l-.61-.21a.13.13,0,0,0-.17.08,1.12,1.12,0,0,0,.46,1.27L6.66,14a1.12,1.12,0,0,0-1.15.7.13.13,0,0,0,.08.17l.67.24A.13.13,0,0,0,6.43,15s.05-.07.21-.06L8,15.43a7.92,7.92,0,0,0,.92.28,2.38,2.38,0,0,0,1,0,1.9,1.9,0,0,0,.87-.47,2,2,0,0,0,.54-.82,2,2,0,0,0,.07-1.16A1.86,1.86,0,0,0,11.05,12.52ZM9.34,9.6l.77.27a2.72,2.72,0,0,1,.45.2,1.1,1.1,0,0,1,.3.25.77.77,0,0,1,.15.36.84.84,0,0,1,0,.43.83.83,0,0,1-.25.36.72.72,0,0,1-.38.18l-.2,0a.91.91,0,0,0-1.37-.38h0ZM10,14.47a1,1,0,0,1-.47.22,1.52,1.52,0,0,1-.46,0,3.19,3.19,0,0,1-.53-.14l-.85-.3.7-2h0a.91.91,0,0,0,1.4.55l.19.13a1,1,0,0,1,.34.51,1,1,0,0,1,0,.63A.93.93,0,0,1,10,14.47Z"/><path class="cls-6" d="M15.51,6.62a29.77,29.77,0,0,1,.27,6.19c-.21,2.22-.62,6.49-2.91,7.54s-5.79-1.41-7.61-2.7A29.77,29.77,0,0,1,.74,13.4c-2.09-2.44,3-6.13,5.57-7.29h0C8.89,4.92,15,3.44,15.51,6.62ZM6.78,7h0c-2.2,1-6.64,4.21-4.83,6.33a25.83,25.83,0,0,0,3.92,3.68c1.58,1.12,4.62,3.27,6.6,2.34s2.35-4.61,2.53-6.54a25.83,25.83,0,0,0-.24-5.37C14.3,4.73,9,6,6.78,7Z"/></g></g></svg>