<svg xmlns="http://www.w3.org/2000/svg" xmlns:xlink="http://www.w3.org/1999/xlink" viewBox="0 0 47.8 25.3"><defs><style>.cls-1{fill:none;}.cls-2{fill:#ac0000;}.cls-3{fill:url(#New_Pattern_Swatch_1);}</style><pattern id="New_Pattern_Swatch_1" data-name="New Pattern Swatch 1" width="45" height="45" patternTransform="translate(-217.87 170.55) scale(0.83 0.85)" patternUnits="userSpaceOnUse" viewBox="0 0 45 45"><rect class="cls-1" width="45" height="45"/><rect class="cls-2" width="45" height="45"/></pattern></defs><title>nav2</title><g id="Layer_2" data-name="Layer 2"><g id="Layer_1-2" data-name="Layer 1"><rect class="cls-1" width="47.8" height="25.3"/><path class="cls-3" d="M34.12,14.67a.66.66,0,0,1-.93,0l-1.95-1.95a.66.66,0,0,1,0-.94L32,11A.66.66,0,0,1,33,11L34.9,13a.66.66,0,0,1,0,.93Z"/><path class="cls-3" d="M26.49,22.31,32.8,16a.66.66,0,0,0,0-.94l-2-1.95a.66.66,0,0,0-.93,0L23.6,19.42Z"/><polygon class="cls-3" points="23.02 21.45 22.97 21.6 22.44 23.46 24.29 22.92 24.45 22.88 23.02 21.45"/><path class="cls-3" d="M17.9,8.62h9.58a.6.6,0,0,0,0-1.2H17.9a.6.6,0,1,0,0,1.2Z"/><path class="cls-3" d="M17.9,11.15h9.58a.6.6,0,0,0,0-1.2H17.9a.6.6,0,1,0,0,1.2Z"/><path class="cls-3" d="M17.9,13.68h9.58a.6.6,0,0,0,0-1.2H17.9a.6.6,0,1,0,0,1.2Z"/><path class="cls-3" d="M17.9,16.21h9.58a.6.6,0,0,0,0-1.2H17.9a.6.6,0,1,0,0,1.2Z"/><path class="cls-3" d="M29.48,1.84H19.1a.79.79,0,0,0-.55.22l-3.6,3.46a.8.8,0,0,0-.24.58V20.62a.8.8,0,0,0,.8.8H23l.46-1.6H16.3V6.74h2.93a.62.62,0,0,0,.62-.62V3.44h8.84V19.82H24l1.6,1.6h3.89a.8.8,0,0,0,.8-.8v-18A.8.8,0,0,0,29.48,1.84Z"/></g></g></svg>