<svg xmlns="http://www.w3.org/2000/svg" xmlns:xlink="http://www.w3.org/1999/xlink" viewBox="0 0 47.8 25.31"><defs><style>.cls-1{fill:none;}.cls-2{fill:#ac0000;}.cls-3{fill:url(#New_Pattern_Swatch_1);}</style><pattern id="New_Pattern_Swatch_1" data-name="New Pattern Swatch 1" width="45" height="45" patternTransform="translate(-304.52 18.11) scale(1.13 1.1)" patternUnits="userSpaceOnUse" viewBox="0 0 45 45"><rect class="cls-1" width="45" height="45"/><rect class="cls-2" width="45" height="45"/></pattern></defs><title>nav1_1</title><g id="Layer_2" data-name="Layer 2"><g id="Layer_1-2" data-name="Layer 1"><rect class="cls-1" width="47.8" height="25.31"/><path class="cls-3" d="M23.87,13a.29.29,0,0,1-.21-.09l-2.22-2.23a.29.29,0,0,1,0-.42l.06-.05a.29.29,0,0,1,.19-.08,1.06,1.06,0,0,0,.71-.26.68.68,0,0,0-.07-.93l0,0a.67.67,0,0,0-.91-.06,1.12,1.12,0,0,0-.26.72.29.29,0,0,1-.08.18L21,9.8a.29.29,0,0,1-.21.09.3.3,0,0,1-.21-.09L18.38,7.58a.29.29,0,0,1,0-.41L20.24,5.3a1.41,1.41,0,0,1-.62-.35,1.26,1.26,0,0,1,0-1.74l0,0a1.25,1.25,0,0,1,1.74-.07,1.42,1.42,0,0,1,.36.64l1.86-1.87a.3.3,0,0,1,.42,0l2.21,2.22a.29.29,0,0,1,0,.42l-.1.09a.29.29,0,0,1-.18.08,1.11,1.11,0,0,0-.71.26.68.68,0,0,0,.07.93l0,0a.66.66,0,0,0,.91.06,1.12,1.12,0,0,0,.26-.72A.29.29,0,0,1,26.63,5l.09-.09a.29.29,0,0,1,.21-.09.3.3,0,0,1,.21.09l2.22,2.23a.29.29,0,0,1,0,.41L27.49,9.46a1.43,1.43,0,0,1,.64.39A1.26,1.26,0,0,1,28,11.58h0l0,0a1.25,1.25,0,0,1-1.74,0,1.4,1.4,0,0,1-.32-.59l-1.85,1.86A.29.29,0,0,1,23.87,13Zm-1.65-2.37,1.65,1.66,2-2a.31.31,0,0,1,.22-.09.29.29,0,0,1,.21.1l0,.05a.29.29,0,0,1,.07.19,1.12,1.12,0,0,0,.24.73.66.66,0,0,0,.92,0l0,0a.68.68,0,0,0,.09-.92A1.07,1.07,0,0,0,27,10a.29.29,0,0,1-.18-.09l-.08-.08a.29.29,0,0,1,0-.41l2-2L27.07,5.7a1.45,1.45,0,0,1-.36.66,1.25,1.25,0,0,1-1.73,0l0,0a1.26,1.26,0,0,1-.07-1.75,1.43,1.43,0,0,1,.66-.37L23.87,2.48l-2,2a.29.29,0,0,1-.21.09.29.29,0,0,1-.21-.09l-.07-.08a.29.29,0,0,1-.08-.18A1.12,1.12,0,0,0,21,3.51a.66.66,0,0,0-.92.07l0,0a.67.67,0,0,0-.05.92,1.07,1.07,0,0,0,.72.26.29.29,0,0,1,.18.08l.07.07a.29.29,0,0,1,0,.42l-2,2L20.64,9a1.41,1.41,0,0,1,.35-.6,1.14,1.14,0,0,1,.82-.33,1.32,1.32,0,0,1,.93.39l0,0a1.26,1.26,0,0,1,.06,1.75A1.41,1.41,0,0,1,22.22,10.61Zm5.6.76h0Z"/><path class="cls-3" d="M23.94,23.54a.29.29,0,0,1-.21-.09l-2.22-2.23a.29.29,0,0,1,0-.42l.06-.05a.29.29,0,0,1,.19-.08,1.06,1.06,0,0,0,.71-.26.68.68,0,0,0-.07-.93l0,0a.67.67,0,0,0-.91-.06,1.12,1.12,0,0,0-.26.72.3.3,0,0,1-.08.18l-.05.06a.29.29,0,0,1-.42,0l-2.21-2.22a.29.29,0,0,1,0-.41l1.86-1.87a1.42,1.42,0,0,1-.62-.35,1.26,1.26,0,0,1,0-1.74l0,0a1.25,1.25,0,0,1,1.74-.07,1.43,1.43,0,0,1,.36.64l1.86-1.87a.3.3,0,0,1,.42,0l2.21,2.22a.29.29,0,0,1,0,.42l-.1.09a.29.29,0,0,1-.18.08,1.11,1.11,0,0,0-.71.26.68.68,0,0,0,.07.93l0,0a.66.66,0,0,0,.91.06,1.12,1.12,0,0,0,.26-.72.29.29,0,0,1,.08-.18l.09-.09a.29.29,0,0,1,.21-.09.28.28,0,0,1,.21.09l2.22,2.23a.29.29,0,0,1,0,.41L27.57,20a1.43,1.43,0,0,1,.64.39,1.26,1.26,0,0,1-.11,1.74h0l0,0a1.25,1.25,0,0,1-1.74,0,1.41,1.41,0,0,1-.32-.59l-1.85,1.86A.29.29,0,0,1,23.94,23.54Zm-1.65-2.37,1.65,1.66,2-2a.29.29,0,0,1,.43,0l0,.06a.29.29,0,0,1,.07.19,1.12,1.12,0,0,0,.24.73.66.66,0,0,0,.92,0l0,0a.68.68,0,0,0,.09-.92,1.11,1.11,0,0,0-.71-.28.29.29,0,0,1-.18-.09l-.08-.08a.29.29,0,0,1,0-.42l2-2-1.67-1.68a1.46,1.46,0,0,1-.36.66,1.25,1.25,0,0,1-1.73,0l0,0a1.26,1.26,0,0,1-.07-1.75,1.43,1.43,0,0,1,.66-.37L23.94,13l-2,2a.28.28,0,0,1-.21.09.29.29,0,0,1-.21-.09L21.44,15a.29.29,0,0,1-.08-.18,1.13,1.13,0,0,0-.27-.72.66.66,0,0,0-.92.07l0,0a.67.67,0,0,0-.05.92,1.06,1.06,0,0,0,.72.26.29.29,0,0,1,.18.08l.07.07a.29.29,0,0,1,0,.42l-2,2,1.64,1.65a1.41,1.41,0,0,1,.35-.6,1.14,1.14,0,0,1,.82-.33h0a1.32,1.32,0,0,1,.93.39l0,0a1.26,1.26,0,0,1,.06,1.75A1.41,1.41,0,0,1,22.29,21.17Zm5.6.76h0Z"/><path class="cls-3" d="M30.08,17.62l-.42-.41L30.89,16a1.45,1.45,0,0,1-.66-.36,1.26,1.26,0,0,1,0-1.74l0,0a1.25,1.25,0,0,1,1.74-.07,1.44,1.44,0,0,1,.37.66l1.65-1.67-2-2a.29.29,0,0,1,0-.42l.08-.08a.29.29,0,0,1,.18-.08A1.11,1.11,0,0,0,33,9.89.68.68,0,0,0,33,9l0,0A.66.66,0,0,0,32,8.89a1.13,1.13,0,0,0-.25.72.3.3,0,0,1-.08.18l-.07.07a.29.29,0,0,1-.21.1.3.3,0,0,1-.21-.09L29.52,8.2l.41-.42L31.27,9.1a1.42,1.42,0,0,1,.35-.63,1.25,1.25,0,0,1,1.74,0l0,0a1.26,1.26,0,0,1,.08,1.75,1.42,1.42,0,0,1-.63.37l1.87,1.87a.29.29,0,0,1,0,.41l-2.2,2.23a.32.32,0,0,1-.21.09.29.29,0,0,1-.21-.09l-.09-.1a.3.3,0,0,1-.08-.18,1.13,1.13,0,0,0-.26-.72.67.67,0,0,0-.92.07l0,0a.67.67,0,0,0-.06.92,1.11,1.11,0,0,0,.72.26.3.3,0,0,1,.19.08l.09.09a.29.29,0,0,1,0,.42Z"/><path class="cls-3" d="M17.81,17.52l-1.28-1.3a1.4,1.4,0,0,1-.32.59,1.25,1.25,0,0,1-1.74,0l0,0A1.26,1.26,0,0,1,14.32,15a1.43,1.43,0,0,1,.65-.38l-1.86-1.88a.29.29,0,0,1,0-.41l2.23-2.23a.29.29,0,0,1,.21-.09.29.29,0,0,1,.21.09l.09.09a.3.3,0,0,1,.08.18,1.13,1.13,0,0,0,.26.72.66.66,0,0,0,.91-.06l0,0a.67.67,0,0,0,.07-.92,1.11,1.11,0,0,0-.71-.27.29.29,0,0,1-.18-.08l-.1-.09a.29.29,0,0,1,0-.42L17.66,7.8l.42.42L16.94,9.34a1.43,1.43,0,0,1,.66.37,1.25,1.25,0,0,1-.06,1.74l0,0a1.24,1.24,0,0,1-1.74.05,1.46,1.46,0,0,1-.36-.66l-1.67,1.67,2,2a.29.29,0,0,1,0,.41l-.08.08a.29.29,0,0,1-.18.09,1.11,1.11,0,0,0-.71.28.69.69,0,0,0,.1.92l0,0a.66.66,0,0,0,.91,0,1.13,1.13,0,0,0,.24-.73.29.29,0,0,1,.07-.19l0-.06a.3.3,0,0,1,.21-.1.31.31,0,0,1,.22.09l1.66,1.68Z"/></g></g></svg>