<svg xmlns="http://www.w3.org/2000/svg" xmlns:xlink="http://www.w3.org/1999/xlink" viewBox="0 0 47.8 25.31"><defs><style>.cls-1{fill:none;}.cls-2{fill:#ac0000;}.cls-3{fill:url(#New_Pattern_Swatch_1);}</style><pattern id="New_Pattern_Swatch_1" data-name="New Pattern Swatch 1" width="45" height="45" patternTransform="translate(-171.69 37.52) scale(1.11 1.08)" patternUnits="userSpaceOnUse" viewBox="0 0 45 45"><rect class="cls-1" width="45" height="45"/><rect class="cls-2" width="45" height="45"/></pattern></defs><title>nav2-1_1</title><g id="Layer_2" data-name="Layer 2"><g id="Layer_1-2" data-name="Layer 1"><rect class="cls-1" width="47.8" height="25.31"/><path class="cls-3" d="M33.81,10.23a5.55,5.55,0,0,0-.57-.06c-.17,0-.34-.05-.52-.05s-.25,0-.37,0a5.8,5.8,0,0,0-.59.06,5.57,5.57,0,1,0,2.05,0Zm-1.09,9.85a4.36,4.36,0,0,1-.56-8.67,3.12,3.12,0,0,1,1.25,0,4.36,4.36,0,0,1-.69,8.66Z"/><path class="cls-3" d="M35.49,14.85h-1.9v-1.9a.86.86,0,1,0-1.73,0v1.9H30a.86.86,0,0,0,0,1.73h1.9v1.9a.86.86,0,1,0,1.73,0v-1.9h1.9a.86.86,0,0,0,0-1.73Z"/><path class="cls-3" d="M26.56,15.7H19.92L19,13.41h8a6.35,6.35,0,0,1,.3-.62H18.83v.06l-1-2.5H29.8a6.06,6.06,0,0,1,1.64-.62H17.63l-.78-2h17.4V7.07H16.62L15.35,3.75H11.18v.62h3.73l4.57,12h7.13a6,6,0,0,1-.06-.61Z"/><path class="cls-3" d="M21.06,17.78a1.77,1.77,0,1,0,1.77,1.77A1.77,1.77,0,0,0,21.06,17.78Zm0,2.91a1.14,1.14,0,1,1,1.14-1.14A1.14,1.14,0,0,1,21.06,20.69Z"/><path class="cls-3" d="M28.89,20.69a1.14,1.14,0,0,1-1.14-1.14,1.08,1.08,0,0,1,0-.18,6.15,6.15,0,0,1-.42-.66,1.72,1.72,0,0,0-.24.84,1.77,1.77,0,0,0,1.77,1.77,1.72,1.72,0,0,0,.84-.24,6.13,6.13,0,0,1-.66-.42A1.08,1.08,0,0,1,28.89,20.69Z"/></g></g></svg>