<svg xmlns="http://www.w3.org/2000/svg" xmlns:xlink="http://www.w3.org/1999/xlink" viewBox="0 0 47.8 25.31"><defs><style>.cls-1{fill:none;}.cls-2{fill:#ac0000;}.cls-3{fill:url(#New_Pattern_Swatch_1);}</style><pattern id="New_Pattern_Swatch_1" data-name="New Pattern Swatch 1" width="45" height="45" patternTransform="translate(-202.97 87.86) scale(0.85 0.83)" patternUnits="userSpaceOnUse" viewBox="0 0 45 45"><rect class="cls-1" width="45" height="45"/><rect class="cls-2" width="45" height="45"/></pattern></defs><title>nav2_1</title><g id="Layer_2" data-name="Layer 2"><g id="Layer_1-2" data-name="Layer 1"><rect class="cls-1" width="47.8" height="25.31"/><polygon class="cls-3" points="35.61 7.75 35.61 7.12 17.71 7.12 16.42 3.75 12.2 3.75 12.2 4.38 15.99 4.38 20.63 16.51 32.23 16.51 32.23 15.87 21.06 15.87 20.17 13.55 33.67 13.55 33.67 12.92 19.95 12.92 19.95 12.98 18.98 10.44 34.77 10.44 34.77 9.81 18.74 9.81 17.95 7.75 35.61 7.75"/><path class="cls-3" d="M22.21,18A1.79,1.79,0,1,0,24,19.78,1.79,1.79,0,0,0,22.21,18Zm0,3a1.16,1.16,0,1,1,1.16-1.16A1.16,1.16,0,0,1,22.21,20.94Z"/><path class="cls-3" d="M30.16,18A1.79,1.79,0,1,0,32,19.78,1.79,1.79,0,0,0,30.16,18Zm0,3a1.16,1.16,0,1,1,1.16-1.16A1.16,1.16,0,0,1,30.16,20.94Z"/></g></g></svg>