<svg xmlns="http://www.w3.org/2000/svg" xmlns:xlink="http://www.w3.org/1999/xlink" viewBox="0 0 47.8 25.31"><defs><style>.cls-1{fill:none;}.cls-2{fill:#ac0000;}.cls-3{fill:url(#New_Pattern_Swatch_1);}</style><pattern id="New_Pattern_Swatch_1" data-name="New Pattern Swatch 1" width="45" height="45" patternTransform="translate(-252.49 185.7) scale(1.18 1.15)" patternUnits="userSpaceOnUse" viewBox="0 0 45 45"><rect class="cls-1" width="45" height="45"/><rect class="cls-2" width="45" height="45"/></pattern></defs><title>nav2-2_1</title><g id="Layer_2" data-name="Layer 2"><g id="Layer_1-2" data-name="Layer 1"><rect class="cls-1" width="47.8" height="25.31"/><path class="cls-3" d="M37,17.79h0l-3.88-3.88a.92.92,0,0,0-1.3,0l-.09.09-.64-.61a5.84,5.84,0,0,0,1.38-3.75A5.95,5.95,0,1,0,30.59,14l.62.59-.1.1h0a.92.92,0,0,0,0,1.3l5.35,5.35,2.05-2.05Zm-10.42-3a5.1,5.1,0,1,1,5.1-5.1A5.11,5.11,0,0,1,26.62,14.74Zm5.89-.31a.13.13,0,0,1,.09,0l3.32,3.32-.93.93L31.67,15.4a.13.13,0,0,1,0-.18l.75-.75A.13.13,0,0,1,32.51,14.43Zm3,4.85.93-.93.91.91-.93.93Z"/><path class="cls-3" d="M27.16,5.72a.46.46,0,0,0-.53.41.47.47,0,0,0,.41.53,3,3,0,0,1,2.6,3,3,3,0,0,1-.3,1.31.47.47,0,0,0,.22.63.46.46,0,0,0,.21,0,.48.48,0,0,0,.43-.27,4,4,0,0,0-3-5.64Z"/><path class="cls-3" d="M25.05,6a4.14,4.14,0,0,0-.51.26A.47.47,0,0,0,25,7a2.68,2.68,0,0,1,.38-.2A.47.47,0,0,0,25.05,6Z"/><path class="cls-3" d="M24.62,15.82H19.5l-.85-2.23h2.69a6.73,6.73,0,0,1-.45-.61H18.44V13l-.93-2.43H20c0-.2,0-.4-.06-.61H17.28l-.75-2H20c0-.21.12-.41.19-.61H16.29L15,4.19H11v.61h3.64l4.45,11.64H30.22v-.61H28.46a6.47,6.47,0,0,1-1.91.31A6.6,6.6,0,0,1,24.62,15.82Z"/><path class="cls-3" d="M20.61,17.85a1.72,1.72,0,1,0,1.72,1.72A1.72,1.72,0,0,0,20.61,17.85Zm0,2.83a1.11,1.11,0,1,1,1.11-1.11A1.11,1.11,0,0,1,20.61,20.68Z"/><path class="cls-3" d="M28.23,17.85A1.72,1.72,0,1,0,30,19.57,1.72,1.72,0,0,0,28.23,17.85Zm0,2.83a1.11,1.11,0,1,1,1.11-1.11A1.11,1.11,0,0,1,28.23,20.68Z"/></g></g></svg>