<svg xmlns="http://www.w3.org/2000/svg" xmlns:xlink="http://www.w3.org/1999/xlink" viewBox="0 0 47.8 25.31"><defs><style>.cls-1{fill:none;}.cls-2{fill:#ac0000;}.cls-3{fill:url(#New_Pattern_Swatch_1);}.cls-4{fill:url(#New_Pattern_Swatch_1-9);}.cls-5{fill:url(#New_Pattern_Swatch_1-17);}.cls-6{fill:url(#New_Pattern_Swatch_1-19);}</style><pattern id="New_Pattern_Swatch_1" data-name="New Pattern Swatch 1" width="45" height="45" patternTransform="translate(-69.65 15.59) scale(0.19 0.18)" patternUnits="userSpaceOnUse" viewBox="0 0 45 45"><rect class="cls-1" width="45" height="45"/><rect class="cls-2" width="45" height="45"/></pattern><pattern id="New_Pattern_Swatch_1-9" data-name="New Pattern Swatch 1" width="45" height="45" patternTransform="translate(-321.59 99.52) scale(1.18 1.15)" patternUnits="userSpaceOnUse" viewBox="0 0 45 45"><rect class="cls-1" width="45" height="45"/><rect class="cls-2" width="45" height="45"/></pattern><pattern id="New_Pattern_Swatch_1-17" data-name="New Pattern Swatch 1" width="45" height="45" patternTransform="matrix(0.12, 0.14, -0.14, 0.11, -56.99, -11.11)" patternUnits="userSpaceOnUse" viewBox="0 0 45 45"><rect class="cls-1" width="45" height="45"/><rect class="cls-2" width="45" height="45"/></pattern><pattern id="New_Pattern_Swatch_1-19" data-name="New Pattern Swatch 1" width="45" height="45" patternTransform="matrix(0.08, 0.17, -0.16, 0.08, -49.59, -17.19)" patternUnits="userSpaceOnUse" viewBox="0 0 45 45"><rect class="cls-1" width="45" height="45"/><rect class="cls-2" width="45" height="45"/></pattern></defs><title>nav3_1</title><g id="Layer_2" data-name="Layer 2"><g id="Layer_1-2" data-name="Layer 1"><rect class="cls-1" width="47.8" height="25.31"/><path class="cls-3" d="M24.16,17.74A4.86,4.86,0,1,1,29,12.89,4.86,4.86,0,0,1,24.16,17.74Zm0-9.06a4.21,4.21,0,1,0,4.21,4.21A4.21,4.21,0,0,0,24.16,8.68Z"/><path class="cls-3" d="M32.28,22.51l-4.41-4.41a.76.76,0,0,1,0-1.07h0l.62-.62a.76.76,0,0,1,1.07,0L34,20.82Zm-3.95-5a.11.11,0,0,0,0,.15l3.95,3.95.77-.77-3.95-3.95a.11.11,0,0,0-.15,0Z"/><path class="cls-3" d="M31.06,21.29l-3.2-3.2a.76.76,0,0,1,0-1.07h0l.62-.62a.76.76,0,0,1,1.07,0l3.2,3.2Zm-2.74-3.81a.11.11,0,0,0,0,.15l2.74,2.74.77-.77-2.74-2.74a.11.11,0,0,0-.15,0Z"/><polygon class="cls-3" points="28.19 17.17 27.42 16.44 27.87 15.96 28.64 16.69 28.19 17.17"/><path class="cls-4" d="M19.81,9a5.4,5.4,0,0,1,.43-.44L18.8,7.15,20.9,5a.31.31,0,0,0,0-.44l-.08-.07a.3.3,0,0,0-.19-.08,1.11,1.11,0,0,1-.75-.27.7.7,0,0,1,.06-1l0,0a.69.69,0,0,1,1-.08,1.17,1.17,0,0,1,.28.75.31.31,0,0,0,.08.19l.08.08a.31.31,0,0,0,.22.1.3.3,0,0,0,.22-.09l2.09-2.1L25.6,3.79a1.49,1.49,0,0,0-.69.38A1.32,1.32,0,0,0,25,6l0,0a1.3,1.3,0,0,0,1.81.05,1.51,1.51,0,0,0,.38-.69l1.74,1.75L27.53,8.57A5.44,5.44,0,0,1,28,9l1.62-1.63a.31.31,0,0,0,0-.43L27.28,4.61a.32.32,0,0,0-.22-.09.31.31,0,0,0-.22.1l-.09.1a.31.31,0,0,0-.08.19,1.17,1.17,0,0,1-.27.75.69.69,0,0,1-.95-.06l0,0a.71.71,0,0,1-.07-1,1.16,1.16,0,0,1,.74-.27.3.3,0,0,0,.19-.08l.1-.1a.31.31,0,0,0,0-.44L24.09,1.4a.32.32,0,0,0-.43,0L21.72,3.35a1.49,1.49,0,0,0-.38-.66,1.3,1.3,0,0,0-1.81.07l0,0a1.31,1.31,0,0,0,0,1.81,1.48,1.48,0,0,0,.65.37l-1.94,2a.31.31,0,0,0,0,.43Z"/><path class="cls-4" d="M26.94,20.25a.31.31,0,0,0,0,.43l.08.08a.31.31,0,0,0,.19.09,1.16,1.16,0,0,1,.74.3.71.71,0,0,1-.1,1l0,0a.69.69,0,0,1-1,0,1.17,1.17,0,0,1-.25-.76.31.31,0,0,0-.08-.19l-.05-.06a.31.31,0,0,0-.45,0l-2.1,2.11-1.72-1.73a1.46,1.46,0,0,0,.63-.37,1.32,1.32,0,0,0-.06-1.82l0,0a1.37,1.37,0,0,0-1-.41h0a1.19,1.19,0,0,0-.85.34,1.47,1.47,0,0,0-.36.63l-1.71-1.72,1.41-1.41a5.49,5.49,0,0,1-.44-.43l-1.62,1.63a.31.31,0,0,0,0,.43l2.3,2.32a.31.31,0,0,0,.22.09.31.31,0,0,0,.22-.1l.06-.06a.31.31,0,0,0,.08-.19,1.17,1.17,0,0,1,.27-.75.7.7,0,0,1,.95.06l0,0a.71.71,0,0,1,.07,1,1.11,1.11,0,0,1-.74.27.31.31,0,0,0-.19.08l-.06.06a.31.31,0,0,0,0,.44l2.31,2.32a.31.31,0,0,0,.43,0L26.09,22a1.48,1.48,0,0,0,.33.61,1.3,1.3,0,0,0,1.82,0l0,0h0a1.32,1.32,0,0,0,.11-1.81,1.49,1.49,0,0,0-.67-.4l.89-.9L28.18,19Zm1.12,2.08h0Z"/><path class="cls-4" d="M31,14.31a.69.69,0,0,1,1-.08,1.17,1.17,0,0,1,.28.75.31.31,0,0,0,.08.19l.09.1a.31.31,0,0,0,.22.1.33.33,0,0,0,.22-.09L35.16,13a.31.31,0,0,0,0-.43l-1.95-1.95a1.48,1.48,0,0,0,.66-.38,1.32,1.32,0,0,0-.08-1.82l0,0a1.3,1.3,0,0,0-1.81,0,1.49,1.49,0,0,0-.36.65L30.19,7.57,29.76,8l1.76,1.75a.32.32,0,0,0,.22.09.31.31,0,0,0,.22-.1L32,9.67a.31.31,0,0,0,.08-.19,1.18,1.18,0,0,1,.26-.75.69.69,0,0,1,.95.06l0,0a.71.71,0,0,1,.08,1,1.16,1.16,0,0,1-.74.28.31.31,0,0,0-.19.08l-.08.08a.31.31,0,0,0,0,.44l2.09,2.09-1.72,1.74a1.5,1.5,0,0,0-.38-.69,1.3,1.3,0,0,0-1.82.08l0,0a1.31,1.31,0,0,0,0,1.81,1.51,1.51,0,0,0,.69.38l-.59.59.43.43.95-1a.31.31,0,0,0,0-.44l-.1-.09a.31.31,0,0,0-.19-.08,1.16,1.16,0,0,1-.75-.27.7.7,0,0,1,.06-1Z"/><path class="cls-4" d="M16,15.45a.31.31,0,0,0-.22.1l-.05.06a.3.3,0,0,0-.08.19,1.17,1.17,0,0,1-.25.76.69.69,0,0,1-1,0l0,0a.72.72,0,0,1-.1-1,1.16,1.16,0,0,1,.74-.29.31.31,0,0,0,.19-.09l.08-.08a.31.31,0,0,0,0-.43l-2.07-2.1L15,10.8a1.52,1.52,0,0,0,.37.69,1.3,1.3,0,0,0,1.82-.05l0,0a1.3,1.3,0,0,0,.06-1.81,1.48,1.48,0,0,0-.69-.39L17.82,8l-.43-.43L15.86,9.12a.31.31,0,0,0,0,.44l.1.1a.31.31,0,0,0,.19.08,1.15,1.15,0,0,1,.74.28.7.7,0,0,1-.07,1l0,0a.68.68,0,0,1-1,.06,1.18,1.18,0,0,1-.27-.75.31.31,0,0,0-.08-.19l-.09-.1a.31.31,0,0,0-.22-.1A.3.3,0,0,0,15,10l-2.32,2.32a.31.31,0,0,0,0,.43l1.94,2a1.49,1.49,0,0,0-.67.4A1.32,1.32,0,0,0,14,16.94l0,0a1.3,1.3,0,0,0,1.81,0,1.46,1.46,0,0,0,.34-.61l1.34,1.36.44-.43-1.73-1.76A.32.32,0,0,0,16,15.45Z"/><path class="cls-5" d="M26.75,14.53a.38.38,0,0,1-.17,0,.39.39,0,0,1-.18-.52,2.45,2.45,0,0,0,.25-1.08,2.48,2.48,0,0,0-2.14-2.45.39.39,0,0,1-.33-.44.38.38,0,0,1,.44-.33,3.26,3.26,0,0,1,2.49,4.65A.39.39,0,0,1,26.75,14.53Z"/><path class="cls-6" d="M22.66,10.79a.39.39,0,0,1-.2-.72,3.41,3.41,0,0,1,.42-.22.39.39,0,0,1,.31.72,2.23,2.23,0,0,0-.32.16A.39.39,0,0,1,22.66,10.79Z"/></g></g></svg>