<svg xmlns="http://www.w3.org/2000/svg" xmlns:xlink="http://www.w3.org/1999/xlink" viewBox="0 0 47.8 25.31"><defs><style>.cls-1{fill:none;}.cls-2{fill:#ac0000;}.cls-3{fill:url(#New_Pattern_Swatch_1);}</style><pattern id="New_Pattern_Swatch_1" data-name="New Pattern Swatch 1" width="45" height="45" patternTransform="translate(-265.52 53.88) scale(1.51 1.46)" patternUnits="userSpaceOnUse" viewBox="0 0 45 45"><rect class="cls-1" width="45" height="45"/><rect class="cls-2" width="45" height="45"/></pattern></defs><title>nav4_1</title><g id="Layer_2" data-name="Layer 2"><g id="Layer_1-2" data-name="Layer 1"><rect class="cls-1" width="47.8" height="25.31"/><path class="cls-3" d="M20.64,11.32H18.73a.31.31,0,0,1-.31-.31V9.1a.31.31,0,0,1,.31-.31h1a.31.31,0,0,1,0,.62H19V10.7h1.6a.31.31,0,0,1,0,.62Z"/><path class="cls-3" d="M25,10.4h-2.9a.35.35,0,1,1,0-.69H25a.35.35,0,1,1,0,.69Z"/><path class="cls-3" d="M26.07,14.56H22.13a.35.35,0,1,1,0-.69h3.93a.35.35,0,1,1,0,.69Z"/><path class="cls-3" d="M26.07,18.72H22.13a.35.35,0,1,1,0-.69h3.93a.35.35,0,1,1,0,.69Z"/><path class="cls-3" d="M19.7,10.36a.23.23,0,0,1-.14-.41L22,8.09a.23.23,0,0,1,.28.37l-2.43,1.85A.23.23,0,0,1,19.7,10.36Z"/><path class="cls-3" d="M20.64,15.58H18.73a.31.31,0,0,1-.31-.31V13.37a.31.31,0,0,1,.31-.31h1a.31.31,0,0,1,0,.62H19V15h1.6a.31.31,0,0,1,0,.62Z"/><path class="cls-3" d="M19.7,14.62a.23.23,0,0,1-.14-.41L22,12.36a.23.23,0,0,1,.28.37l-2.43,1.85A.23.23,0,0,1,19.7,14.62Z"/><path class="cls-3" d="M20.66,19.85H18.75a.31.31,0,0,1-.31-.31V17.63a.31.31,0,0,1,.31-.31h1a.31.31,0,0,1,0,.62h-.65v1.29h1.6a.31.31,0,0,1,0,.62Z"/><path class="cls-3" d="M19.72,18.88a.23.23,0,0,1-.14-.41L22,16.62a.23.23,0,1,1,.28.37l-2.43,1.85A.23.23,0,0,1,19.72,18.88Z"/><path class="cls-3" d="M29.79,19.33h-.36a.35.35,0,1,1,0-.69h.36a.69.69,0,0,0,.69-.69V5a.78.78,0,0,0-.78-.78H20.32a.48.48,0,0,0-.48.48v.48a.35.35,0,0,1-.69,0V4.65a1.17,1.17,0,0,1,1.17-1.17H29.7A1.48,1.48,0,0,1,31.18,5v13A1.38,1.38,0,0,1,29.79,19.33Z"/><path class="cls-3" d="M28.23,9.19H25.81a.35.35,0,0,1-.35-.35V6.42h.69V8.5h2.07Z"/><path class="cls-3" d="M27.5,21.83H17.78a1.15,1.15,0,0,1-1.15-1.15V7.14A1.15,1.15,0,0,1,17.78,6h7.77a1.14,1.14,0,0,1,.81.34l2.19,2.19h0a.35.35,0,0,1,.1.24V20.68A1.15,1.15,0,0,1,27.5,21.83ZM17.78,6.68a.46.46,0,0,0-.46.46V20.68a.46.46,0,0,0,.46.46H27.5a.46.46,0,0,0,.46-.46V8.9L25.87,6.81a.45.45,0,0,0-.32-.13Z"/></g></g></svg>