<svg xmlns="http://www.w3.org/2000/svg" viewBox="0 0 14.22 15.06"><defs><style>.cls-1{fill:#fff;}.cls-2{fill:#d9d9d9;}.cls-3{fill:none;stroke:#cecece;stroke-miterlimit:10;stroke-width:0.31px;}.cls-4{fill:#6c6d6d;}</style></defs><title>add-btn</title><g id="Layer_2" data-name="Layer 2"><g id="Layer_1-2" data-name="Layer 1"><rect class="cls-1" x="0.15" y="0.15" width="13.91" height="14.75" rx="2.34" ry="2.34"/><path class="cls-2" d="M14.06,11v1.58a2.34,2.34,0,0,1-2.34,2.34H2.49A2.33,2.33,0,0,1,.16,12.57V11a2.33,2.33,0,0,0,2.33,2.34h9.23A2.34,2.34,0,0,0,14.06,11Z"/><rect class="cls-3" x="0.15" y="0.15" width="13.91" height="14.75" rx="2.34" ry="2.34"/><path class="cls-4" d="M8.16,2.26a5.34,5.34,0,0,0-.55-.06c-.17,0-.33-.05-.5-.05s-.24,0-.36,0a5.58,5.58,0,0,0-.57.06,5.36,5.36,0,1,0,2,0Zm-1,9.47a4.19,4.19,0,0,1-.54-8.34,4.13,4.13,0,0,1,.54-.05,4.12,4.12,0,0,1,.66.07,4.19,4.19,0,0,1-.66,8.33Z"/><path class="cls-4" d="M9.77,6.7H7.94V4.87a.83.83,0,1,0-1.66,0V6.7H4.45a.83.83,0,0,0,0,1.66H6.28v1.83a.83.83,0,1,0,1.66,0V8.36H9.77a.83.83,0,1,0,0-1.66Z"/></g></g></svg>