<svg xmlns="http://www.w3.org/2000/svg" viewBox="0 0 61.37 61.37"><defs><style>.cls-1{fill:#AC0000;}.cls-2{fill:none;stroke:#AC0000;stroke-miterlimit:10;stroke-width:2.5px;}</style></defs><title>alert-danger</title><g id="Layer_2" data-name="Layer 2"><g id="Layer_1-2" data-name="Layer 1"><path class="cls-1" d="M43.67,18.06h0a1.85,1.85,0,0,0-2.61,0l-10.34,10-10-10.34a1.85,1.85,0,0,0-2.61,0h0a1.85,1.85,0,0,0,0,2.61l10,10.34-10.34,10a1.85,1.85,0,0,0,0,2.61h0a1.85,1.85,0,0,0,2.61,0l10.34-10,10,10.34a1.85,1.85,0,0,0,2.61,0h0a1.85,1.85,0,0,0,0-2.61l-10-10.34,10.34-10A1.85,1.85,0,0,0,43.67,18.06Z"/><rect class="cls-2" x="1.25" y="1.25" width="58.87" height="58.87" rx="29.43" ry="29.43"/></g></g></svg>