<svg xmlns="http://www.w3.org/2000/svg" viewBox="0 0 53 60"><defs><style>.cls-1{fill:#AC0000;}</style></defs><title>alert-delete</title><g id="Layer_2" data-name="Layer 2"><g id="Layer_1-2" data-name="Layer 1"><g id="_50d95ded-ea3c-482a-a495-df6420665a21" data-name="50d95ded-ea3c-482a-a495-df6420665a21"><g id="_648c9fdb-c0d1-4e82-83bc-eba169df5b56" data-name="648c9fdb-c0d1-4e82-83bc-eba169df5b56"><g id="_1fe448c5-209b-477e-bd1e-06c9c98d4467" data-name="1fe448c5-209b-477e-bd1e-06c9c98d4467"><g id="_53969077-b346-434a-a37f-01ee58c2b6a8" data-name="53969077-b346-434a-a37f-01ee58c2b6a8"><path class="cls-1" d="M4,51a9,9,0,0,0,9,9H40a9,9,0,0,0,9-9h0V15H4Z"/><path class="cls-1" d="M51,4H41a6,6,0,0,0-5-4H17a6,6,0,0,0-5,4H2A2,2,0,0,0,0,6H0V9a2,2,0,0,0,2,2H51a2,2,0,0,0,2-2h0V6A2,2,0,0,0,51,4Z"/></g></g></g></g></g></g></svg>