<svg xmlns="http://www.w3.org/2000/svg" xmlns:xlink="http://www.w3.org/1999/xlink" viewBox="0 0 45.78 45.78"><defs><style>.cls-1{fill:none;}.cls-2{fill:#ac0000;}.cls-3{fill:#eae8e6;stroke:#aba8a4;stroke-miterlimit:10;stroke-width:0.36px;}.cls-4{fill:url(#New_Pattern_Swatch_1);}</style><pattern id="New_Pattern_Swatch_1" data-name="New Pattern Swatch 1" width="45" height="45" patternTransform="translate(-160.53 107) scale(1.73 1.67)" patternUnits="userSpaceOnUse" viewBox="0 0 45 45"><rect class="cls-1" width="45" height="45"/><rect class="cls-2" width="45" height="45"/></pattern></defs><title>avatar</title><g id="Layer_2" data-name="Layer 2"><g id="Layer_1-2" data-name="Layer 1"><rect class="cls-3" x="0.18" y="0.18" width="45.42" height="45.42"/><circle class="cls-4" cx="22.89" cy="13.35" r="7.82"/><path class="cls-4" d="M22.91,22.8a14.2,14.2,0,0,1,12,6.41l0,0A14.23,14.23,0,0,0,22.91,22.8Z"/><path class="cls-4" d="M22.89,22.8h0c-7.74,0-14,5.86-14,13.08V38h0v-2C8.87,28.77,15.16,22.8,22.89,22.8Z"/><path class="cls-4" d="M36.91,36.09v-.21a12.37,12.37,0,0,0-2-6.7l0,0A12.7,12.7,0,0,1,36.91,36.09Z"/><path class="cls-4" d="M34.88,29.22a14.2,14.2,0,0,0-12-6.41h0c-7.73,0-14,6-14,13.29v2h28v-2A12.7,12.7,0,0,0,34.88,29.22Z"/><polygon class="cls-4" points="22.89 22.8 22.89 22.8 22.9 22.8 22.89 22.8"/></g></g></svg>