<svg xmlns="http://www.w3.org/2000/svg" xmlns:xlink="http://www.w3.org/1999/xlink" viewBox="0 0 8.97 8.97"><defs><style>.cls-1{fill:none;}.cls-2{fill:#ac0000;}.cls-3{fill:url(#New_Pattern_Swatch_1);}</style><pattern id="New_Pattern_Swatch_1" data-name="New Pattern Swatch 1" width="45" height="45" patternTransform="translate(-111.76 -89.41) scale(0.48 0.46)" patternUnits="userSpaceOnUse" viewBox="0 0 45 45"><rect class="cls-1" width="45" height="45"/><rect class="cls-2" width="45" height="45"/></pattern></defs><title>Asset 7ldpi</title><g id="Layer_2" data-name="Layer 2"><g id="Layer_1-2" data-name="Layer 1"><path class="cls-3" d="M5.49,8H5.34l.09.31h0l.08,0a.1.1,0,0,0,.05,0,.12.12,0,0,0,0-.13.09.09,0,0,0,0-.07Z"/><path class="cls-3" d="M3.66.91a.08.08,0,0,1-.05,0,.06.06,0,0,1-.06,0h0l0,.2.09,0h0l0,0,0,0V1s0,0,0-.05l-.06,0S3.67.91,3.66.91Z"/><path class="cls-3" d="M3.76,8l0,0h0L3.61,8l0,.17h0a.07.07,0,0,1,.06,0,.1.1,0,0,1,.05,0h0a.05.05,0,0,0,0,0l0,0V8Z"/><path class="cls-3" d="M5,8.08a.14.14,0,0,0-.1.07.13.13,0,0,0,0,.12.23.23,0,0,0,.06.12.17.17,0,0,0,.12,0,.17.17,0,0,0,.1-.07.28.28,0,0,0,0-.13.24.24,0,0,0-.06-.11A.19.19,0,0,0,5,8.08Z"/><path class="cls-3" d="M4,4.11a.53.53,0,0,1,.87,0L5.11,4a.59.59,0,0,0,.23-.24.56.56,0,0,0,.1-.33.62.62,0,0,0-.09-.32.59.59,0,0,0-.21-.23.86.86,0,0,0-.28-.11,1.89,1.89,0,0,0-.35,0H3.87V4.12H4Z"/><path class="cls-3" d="M3.54.87h0s0,0,0,0,0,0,.05,0,0,0,0,0l0,0v0a.05.05,0,0,0,0,0l0,0H3.49l0,.16Z"/><path class="cls-3" d="M3.71,8.22h0l-.06,0s0,0,0-.05h0l0,.19.08,0h.09l0,0a.05.05,0,0,0,0,0,.06.06,0,0,0,0-.06Z"/><path class="cls-3" d="M5,6.21a1.17,1.17,0,0,0,.33-.11.77.77,0,0,0,.29-.28.72.72,0,0,0,.11-.37A.81.81,0,0,0,5.54,5a.74.74,0,0,0-.38-.29l-.22,0a.52.52,0,0,1-.92,0H3.87V6.24h.7A2.34,2.34,0,0,0,5,6.21Z"/><path class="cls-3" d="M4.47,8.11a.16.16,0,0,0-.11.05.29.29,0,0,0-.05.13.21.21,0,0,0,.05.12.16.16,0,0,0,.11.05.18.18,0,0,0,.11-.05.17.17,0,0,0,0-.12.16.16,0,0,0,0-.12A.17.17,0,0,0,4.47,8.11Z"/><path class="cls-3" d="M4.49,0A4.49,4.49,0,1,0,9,4.49,4.49,4.49,0,0,0,4.49,0ZM8.35,4.35a.2.2,0,0,1,0,.08.17.17,0,0,1-.12.07h0a.14.14,0,0,1-.12-.06.2.2,0,0,1,0-.08.25.25,0,0,1,0-.09A.77.77,0,0,1,8.08,4l0-.1a.1.1,0,0,1,0,0l.1.12a1.2,1.2,0,0,1,.11.23A.41.41,0,0,1,8.35,4.35Zm-.11-.74c0,.15,0,.27-.11.28h0a.18.18,0,0,1-.2-.2,1,1,0,0,1,0-.24c0-.08,0-.15,0-.15l.11.1A.78.78,0,0,1,8.24,3.61ZM7.72,2.45a.19.19,0,0,1,0,.29h0l.12.08L8,2.91,8,3A.19.19,0,0,1,8,3.3H8a.2.2,0,0,1-.24-.16.49.49,0,0,1,0-.12s0-.09,0-.13a.94.94,0,0,1,0-.14h0a.21.21,0,0,1-.26-.13.85.85,0,0,1,0-.24c0-.08,0-.14,0-.14l.14.06A.54.54,0,0,1,7.72,2.45Zm-.39-.51a.2.2,0,0,1,0,.3h0a.18.18,0,0,1-.27-.08A.8.8,0,0,1,7,1.93l0-.14.15,0A1.63,1.63,0,0,1,7.33,1.94Zm-.47-.43c.13.08.15.22.09.28H7a.19.19,0,0,1-.29,0,1.74,1.74,0,0,1-.13-.2l-.07-.13h.15A.66.66,0,0,1,6.86,1.51Zm-.79-.38a.77.77,0,0,1,.26,0,.24.24,0,0,1,.14.12.14.14,0,0,1,0,.14h0a.16.16,0,0,1-.12.06.2.2,0,0,1-.17-.05A1.45,1.45,0,0,1,6,1.26l-.09-.12ZM5.34.64l.1,0,.11,0,.08.07a.21.21,0,0,1,0,.11.21.21,0,0,1,0,.11.16.16,0,0,1,0,.09.18.18,0,0,1-.08.07.2.2,0,0,1-.11,0l-.11,0-.1,0Zm-.53,0A.25.25,0,0,1,5,.58a.19.19,0,0,1,.16.1.25.25,0,0,1,0,.19.31.31,0,0,1-.09.18.23.23,0,0,1-.18.05A.22.22,0,0,1,4.77,1a.25.25,0,0,1,0-.19A.31.31,0,0,1,4.81.63Zm-.55,0a.22.22,0,0,1,.34,0,.25.25,0,0,1,.07.19A.24.24,0,0,1,4.6,1a.18.18,0,0,1-.16.08A.22.22,0,0,1,4.27,1,.25.25,0,0,1,4.2.81.26.26,0,0,1,4.26.62ZM4,.59,4,1l.15,0v.09l-.24,0L3.87.6ZM3.4.64a0,0,0,0,0,0,0l.12,0h.13l.06,0,0,.07a.13.13,0,0,1,0,.06.05.05,0,0,1,0,0l.07,0a.2.2,0,0,1,0,.08.22.22,0,0,1,0,.08.21.21,0,0,1,0,.06l-.07,0-.07,0-.12,0s0,0,0,0H3.44a.11.11,0,0,1,.06-.09L3.42.72s-.08,0-.08-.07Zm-.83.52a.72.72,0,0,1,.26,0H3l-.09.12c-.05.05-.11.14-.16.18a.18.18,0,0,1-.17.05.14.14,0,0,1-.12-.06h0a.17.17,0,0,1,0-.14A.26.26,0,0,1,2.57,1.16ZM2,1.52a.66.66,0,0,1,.25-.07l.15,0-.06.13a1.93,1.93,0,0,1-.13.21.2.2,0,0,1-.29,0H2C1.9,1.74,1.91,1.61,2,1.52ZM1.58,2a.9.9,0,0,1,.24-.12.63.63,0,0,1,.14,0l0,.14a1.22,1.22,0,0,1-.1.23.18.18,0,0,1-.27.08h0A.19.19,0,0,1,1.58,2ZM.87,3.44l.1-.1H1a.2.2,0,0,1-.06-.29L1,3l.1-.09.13-.08h0a.2.2,0,0,1,0-.3.83.83,0,0,1,.21-.16l.14-.06,0,.15a1.44,1.44,0,0,1-.05.24.21.21,0,0,1-.26.13h0v.27a.45.45,0,0,1,0,.12A.2.2,0,0,1,1,3.34H1a.81.81,0,0,1,0,.14,1.13,1.13,0,0,1,0,.25.18.18,0,0,1-.2.2h0a.19.19,0,0,1-.12-.27A.82.82,0,0,1,.87,3.44ZM.76,5.55a.83.83,0,0,1,0-.26l0-.14h0c-.09,0-.19-.07-.19-.22a.69.69,0,0,1,0-.13.43.43,0,0,1,0-.12l.07-.14h0a.14.14,0,0,1-.12-.07.2.2,0,0,1,0-.08.38.38,0,0,1,0-.1.72.72,0,0,1,.1-.24l.1-.12a.1.1,0,0,0,0,0l0,.1A1.27,1.27,0,0,1,1,4.31a.28.28,0,0,1,0,.09.2.2,0,0,1,0,.08.14.14,0,0,1-.12.06h0l.08.13.05.11,0,.11a.19.19,0,0,1-.13.26h0l.1.12a1.21,1.21,0,0,1,.14.2A.19.19,0,0,1,1,5.74H1C.91,5.78.78,5.71.76,5.55Zm.22.6a1.06,1.06,0,0,1,0-.26.81.81,0,0,1,0-.14l.11.09A1.41,1.41,0,0,1,1.27,6a.19.19,0,0,1,0,.28h0A.2.2,0,0,1,1,6.15Zm.32.56a.56.56,0,0,1,0-.12.68.68,0,0,1,0-.14.63.63,0,0,1,0-.15l.12.08.11.07a.73.73,0,0,1,.09.08.2.2,0,0,1,0,.29h0A.2.2,0,0,1,1.3,6.71ZM2,7.26a.19.19,0,0,1-.29,0A1.09,1.09,0,0,1,1.6,7c0-.08,0-.14,0-.14l.14,0A.9.9,0,0,1,1.93,7,.19.19,0,0,1,2,7.26Zm1,.66H3A.15.15,0,0,1,2.9,8a.22.22,0,0,1-.18,0,.63.63,0,0,1-.17-.19l-.07-.14h0a.18.18,0,0,1-.13.06H2.26l-.08-.07A.93.93,0,0,1,2,7.4a.42.42,0,0,1,0-.1.1.1,0,0,0,0,0H2l.1,0a.75.75,0,0,1,.24.08.16.16,0,0,1,.08.06.16.16,0,0,1,0,.07.15.15,0,0,1,0,.13h.14a1,1,0,0,1,.25,0A.18.18,0,0,1,3,7.79a.13.13,0,0,1,0,.13Zm.21-1H2.74a.68.68,0,0,1,.58-.64V2.7a.69.69,0,0,1-.58-.64h.49c0,.07,0,.14.17.17h1a4.45,4.45,0,0,1,.56,0,1.4,1.4,0,0,1,.48.2,1.4,1.4,0,0,1,.38.42A1.16,1.16,0,0,1,6,3.45,1.11,1.11,0,0,1,5.86,4a1.28,1.28,0,0,1-.31.35A1.22,1.22,0,0,1,6,4.74a1.27,1.27,0,0,1,.2.7,1.31,1.31,0,0,1-.15.61,1.24,1.24,0,0,1-.42.46,1.71,1.71,0,0,1-.61.22l-.63,0h-1C3.23,6.8,3.23,6.92,3.23,6.92Zm.58,1.33a.19.19,0,0,1,0,.08.16.16,0,0,1,0,.07.07.07,0,0,1-.06,0l-.07,0-.08,0-.12,0H3.37a.08.08,0,0,1,.08-.06l.1-.43a.09.09,0,0,1-.06-.09l.06,0h0l0,0,.12,0,.06,0a.09.09,0,0,1,0,0l0,.06a.09.09,0,0,1,0,.07.07.07,0,0,1,0,.06s0,0,0,0A.16.16,0,0,1,3.81,8.25Zm.36.28-.25,0L4,8h.1L4,8.42l.16,0Zm.47,0a.23.23,0,0,1-.17.07.22.22,0,0,1-.17-.07.28.28,0,0,1-.07-.19A.25.25,0,0,1,4.3,8.1a.22.22,0,0,1,.34,0,.29.29,0,0,1,0,.38Zm.53-.06a.22.22,0,0,1-.15.1.2.2,0,0,1-.18-.06.26.26,0,0,1-.09-.17.27.27,0,0,1,0-.2A.21.21,0,0,1,5,8a.22.22,0,0,1,.18.06.28.28,0,0,1,0,.37Zm.48-.11a.18.18,0,0,1-.08.07l-.11,0-.1,0L5.23,8l.1,0h.11a.14.14,0,0,1,.11,0A.16.16,0,0,1,5.63,8a.24.24,0,0,1,0,.1.21.21,0,0,1,0,.11A.3.3,0,0,1,5.65,8.31Zm.84-.55a.67.67,0,0,1-.17.2.2.2,0,0,1-.17,0A.14.14,0,0,1,6,7.93H6a.17.17,0,0,1,0-.14.21.21,0,0,1,.13-.11l.25,0h.14A.55.55,0,0,1,6.49,7.76ZM7,7.29l0,.1a.8.8,0,0,1-.13.22l-.08.07H6.69a.15.15,0,0,1-.13-.06h0a.17.17,0,0,1,0-.14.25.25,0,0,1,0-.07l.07-.06a1.35,1.35,0,0,1,.24-.08l.1,0H7Zm.39-.35a.85.85,0,0,1-.09.24A.2.2,0,0,1,7,7.25H7A.19.19,0,0,1,7.1,7a.61.61,0,0,1,.21-.12l.14-.06S7.44,6.86,7.42,6.94Zm.35-.52a.71.71,0,0,1,0,.14.56.56,0,0,1,0,.12c-.06.13-.2.17-.27.11h0a.2.2,0,0,1,0-.29l.1-.07a.39.39,0,0,1,.1-.08l.12-.08A.63.63,0,0,1,7.77,6.42ZM8,6.12a.19.19,0,0,1-.26.15h0a.2.2,0,0,1,0-.28,1,1,0,0,1,.17-.18L8,5.71a.8.8,0,0,1,0,.15A2.26,2.26,0,0,1,8,6.12Zm0-.41H8a.2.2,0,0,1-.09-.28,1.21,1.21,0,0,1,.14-.2l.09-.12a.76.76,0,0,1,0,.14,1.27,1.27,0,0,1,0,.26C8.22,5.66,8.09,5.74,8,5.71Zm.14-.6h0A.2.2,0,0,1,8,4.85a.76.76,0,0,1,0-.11l.06-.11.07-.13.07.13a.5.5,0,0,1,.05.13.53.53,0,0,1,0,.12C8.35,5,8.24,5.13,8.15,5.11Z"/><path class="cls-3" d="M5.42,1.09h.06A.14.14,0,0,0,5.57,1a.17.17,0,0,0,0-.07.16.16,0,0,0,0-.07.1.1,0,0,0-.06,0l-.07,0h0l-.09.31h0Z"/><path class="cls-3" d="M4.94,1S5,1,5.05,1A.24.24,0,0,0,5.11.86a.15.15,0,0,0,0-.13A.11.11,0,0,0,5,.67a.11.11,0,0,0-.11,0,.14.14,0,0,0-.06.12.19.19,0,0,0,0,.13A.2.2,0,0,0,4.94,1Z"/><path class="cls-3" d="M4.44,1a.14.14,0,0,0,.1,0,.21.21,0,0,0,0-.13.21.21,0,0,0,0-.12.11.11,0,0,0-.11,0,.13.13,0,0,0-.11,0,.16.16,0,0,0,0,.12.17.17,0,0,0,0,.12A.14.14,0,0,0,4.44,1Z"/></g></g></svg>