<svg xmlns="http://www.w3.org/2000/svg" xmlns:xlink="http://www.w3.org/1999/xlink" viewBox="0 0 207.93 131.79"><defs><style>.cls-1,.cls-16{fill:none;}.cls-2{fill:#ac0000;}.cls-3{fill:#6c6d6d;}.cls-4{fill:url(#New_Pattern_Swatch_1);}.cls-14,.cls-5,.cls-7{fill:#fff;}.cls-6{fill:#AC0000;}.cls-7{font-size:6.45px;}.cls-14,.cls-7{font-family:GodoB, Godo B;}.cls-10,.cls-8,.cls-9{font-size:4.84px;}.cls-9{letter-spacing:-0.08em;}.cls-10{letter-spacing:-0.03em;}.cls-11{fill:#2d3c58;}.cls-12{fill:url(#New_Pattern_Swatch_1-13);}.cls-13{fill:url(#New_Pattern_Swatch_1-31);}.cls-14{font-size:9.36px;}.cls-15{letter-spacing:-0.08em;}.cls-16{stroke:#2c3d4f;stroke-linecap:round;stroke-miterlimit:10;stroke-width:0.59px;}</style><pattern id="New_Pattern_Swatch_1" data-name="New Pattern Swatch 1" width="45" height="45" patternTransform="translate(-103.77 179.3) scale(1.51 1.46)" patternUnits="userSpaceOnUse" viewBox="0 0 45 45"><rect class="cls-1" width="45" height="45"/><rect class="cls-2" width="45" height="45"/></pattern><pattern id="New_Pattern_Swatch_1-13" data-name="New Pattern Swatch 1" width="45" height="45" patternTransform="translate(-116.94 -72.01) scale(0.42 0.4)" patternUnits="userSpaceOnUse" viewBox="0 0 45 45"><rect class="cls-1" width="45" height="45"/><rect class="cls-2" width="45" height="45"/></pattern><pattern id="New_Pattern_Swatch_1-31" data-name="New Pattern Swatch 1" width="45" height="45" patternTransform="translate(-116.94 -78.07) scale(0.42 0.4)" patternUnits="userSpaceOnUse" viewBox="0 0 45 45"><rect class="cls-1" width="45" height="45"/><rect class="cls-2" width="45" height="45"/></pattern></defs><title>blood-id.svg</title><g id="Layer_2" data-name="Layer 2"><g id="Layer_1-2" data-name="Layer 1"><path class="cls-3" d="M11.75,81.54"/><circle class="cls-4" cx="102.96" cy="70.2" r="6.83"/><path class="cls-4" d="M103,78.46a12.4,12.4,0,0,1,10.46,5.6l0,0A12.43,12.43,0,0,0,103,78.46Z"/><path class="cls-4" d="M103,78.46h0c-6.76,0-12.24,5.12-12.24,11.43v1.88h0v-1.7C90.72,83.66,96.21,78.46,103,78.46Z"/><path class="cls-4" d="M115.21,90.06v-.18A10.8,10.8,0,0,0,113.48,84l0,0A11.09,11.09,0,0,1,115.21,90.06Z"/><path class="cls-4" d="M113.44,84.06A12.4,12.4,0,0,0,103,78.46h0c-6.75,0-12.24,5.21-12.24,11.61v1.7h24.49v-1.7A11.09,11.09,0,0,0,113.44,84.06Z"/><polygon class="cls-4" points="102.96 78.46 102.96 78.46 102.97 78.46 102.96 78.46"/><rect class="cls-5" y="14.65" width="207.93" height="102.61"/><path class="cls-6" d="M207.93,4.22A4.23,4.23,0,0,0,203.7,0H4.22A4.23,4.23,0,0,0,0,4.22V14.65H207.93Z"/><path class="cls-6" d="M0,127.57a4.23,4.23,0,0,0,4.22,4.22H203.7a4.23,4.23,0,0,0,4.22-4.22V117.26H0Z"/><text class="cls-7" transform="translate(76.14 126.62)">www.<tspan class="cls-8" x="17.7" y="0">B</tspan><tspan class="cls-9" x="20.87" y="0">L</tspan><tspan class="cls-8" x="23.32" y="0">OOD.</tspan><tspan class="cls-10" x="35.45" y="0">L</tspan><tspan class="cls-8" x="38.14" y="0">AND</tspan></text><line class="cls-11" x1="29.93" y1="97.41" x2="29.93" y2="97.42"/><path class="cls-12" d="M68.59,56.93h-.13l.07.27h0l.08,0,0,0a.13.13,0,0,0,0-.12.15.15,0,0,0,0-.06Z"/><path class="cls-12" d="M67,50.73a.06.06,0,0,1-.1,0h0l0,.17H67l0,0,0,0a.08.08,0,0,0,0,0,.08.08,0,0,0,0,0l0,0Z"/><path class="cls-12" d="M67.07,56.92l0,0h-.1l0,.14h0A.06.06,0,0,1,67,57h0l0,0,0,0a.07.07,0,0,0,0,0Z"/><path class="cls-12" d="M68.13,57A.12.12,0,0,0,68,57a.15.15,0,0,0,0,.11.16.16,0,0,0,.05.1.12.12,0,0,0,.1,0,.12.12,0,0,0,.09-.06.16.16,0,0,0,0-.11.15.15,0,0,0-.05-.1A.12.12,0,0,0,68.13,57Z"/><path class="cls-12" d="M67.32,53.52a.46.46,0,0,1,.76,0l.17-.07a.5.5,0,0,0,.21-.2.57.57,0,0,0,.08-.29.57.57,0,0,0-.08-.28.53.53,0,0,0-.18-.2.73.73,0,0,0-.24-.09l-.31,0h-.56v1.21h.15Z"/><path class="cls-12" d="M66.88,50.69h0a.06.06,0,0,1,0,0H67l0,0a.07.07,0,0,0,0,0l0,0,0,0h-.13l0,.14Z"/><path class="cls-12" d="M67,57.11h0a.06.06,0,0,1-.09,0h0l0,.17.07,0H67l0,0,0,0a.08.08,0,0,0,0-.05Z"/><path class="cls-12" d="M68.12,55.35a1,1,0,0,0,.28-.09.65.65,0,0,0,.25-.24.63.63,0,0,0,.1-.33.69.69,0,0,0-.12-.4A.66.66,0,0,0,68.3,54l-.2,0a.46.46,0,0,1-.81,0h-.13v1.41h.61Z"/><path class="cls-12" d="M67.7,57a.12.12,0,0,0-.1,0,.15.15,0,0,0,0,.11.16.16,0,0,0,0,.11.12.12,0,0,0,.19,0,.16.16,0,0,0,0-.11.15.15,0,0,0,0-.11A.12.12,0,0,0,67.7,57Z"/><path class="cls-13" d="M67.71,49.93a3.92,3.92,0,1,0,3.92,3.92A3.92,3.92,0,0,0,67.71,49.93Zm3.37,3.8a.18.18,0,0,1,0,.07.14.14,0,0,1-.11.06h0a.14.14,0,0,1-.11-.06.19.19,0,0,1,0-.06.2.2,0,0,1,0-.08.83.83,0,0,1,.06-.21l0-.09v0l.08.1a.81.81,0,0,1,.1.2A.24.24,0,0,1,71.08,53.73Zm-.1-.64a.17.17,0,0,1-.09.24h0a.17.17,0,0,1-.18-.18.86.86,0,0,1,0-.21c0-.07,0-.13,0-.13l.09.09A.78.78,0,0,1,71,53.09Zm-.45-1a.17.17,0,0,1,0,.26h0l.11.07.09.07.07.09c.07.11,0,.23,0,.25h0a.17.17,0,0,1-.21-.14.56.56,0,0,1,0-.1s0-.08,0-.11,0-.13,0-.13h0a.18.18,0,0,1-.23-.11,1,1,0,0,1,0-.21c0-.07,0-.13,0-.13l.12.05A.72.72,0,0,1,70.54,52.07Zm-.34-.44a.17.17,0,0,1,0,.26h0a.17.17,0,0,1-.24-.07.81.81,0,0,1-.09-.2l0-.12.13,0A.82.82,0,0,1,70.2,51.63Zm-.41-.38a.17.17,0,0,1,.08.25h0a.17.17,0,0,1-.25,0,1.31,1.31,0,0,1-.12-.18l-.06-.12h.13A.62.62,0,0,1,69.79,51.25Zm-.69-.33a.59.59,0,0,1,.23,0,.21.21,0,0,1,.12.11.13.13,0,0,1,0,.12h0a.14.14,0,0,1-.11.06.19.19,0,0,1-.15,0A1.43,1.43,0,0,1,69,51l-.08-.1Zm-.64-.43.09,0,.09,0a.2.2,0,0,1,.11.15.24.24,0,0,1,0,.1.23.23,0,0,1,0,.08l-.07.06-.09,0-.1,0-.09,0Zm-.46,0a.19.19,0,0,1,.16,0,.19.19,0,0,1,.14.09.24.24,0,0,1,0,.17.23.23,0,0,1-.08.15.19.19,0,0,1-.29,0,.23.23,0,0,1,0-.17A.24.24,0,0,1,68,50.48Zm-.48,0a.19.19,0,0,1,.29,0,.24.24,0,0,1,.06.16.23.23,0,0,1-.06.16.19.19,0,0,1-.29,0,.23.23,0,0,1-.06-.16A.24.24,0,0,1,67.52,50.48Zm-.26,0,0,.36.13,0v.08l-.22,0-.06-.44Zm-.5,0h0l.11,0H67l0,0a.12.12,0,0,1,0,.06.11.11,0,0,1,0,.06l0,0,.06,0a.13.13,0,0,1,0,.07.14.14,0,0,1,0,.07.12.12,0,0,1,0,.06l-.06,0H67l-.1,0s0,0,0,0H66.8a.07.07,0,0,1,0-.08l-.07-.37a.07.07,0,0,1-.07-.06h0Zm-.72.46a.59.59,0,0,1,.23,0h.13l-.08.1a1.42,1.42,0,0,1-.14.16.19.19,0,0,1-.15,0,.14.14,0,0,1-.11-.06h0a.13.13,0,0,1,0-.12A.21.21,0,0,1,66,50.95Zm-.46.31a.62.62,0,0,1,.22-.07h.13l-.06.12a1.31,1.31,0,0,1-.11.18.17.17,0,0,1-.25,0h0A.17.17,0,0,1,65.58,51.26Zm-.4.39a.83.83,0,0,1,.2-.1l.13,0,0,.12a.81.81,0,0,1-.08.2.17.17,0,0,1-.24.07h0A.17.17,0,0,1,65.18,51.65Zm-.63,1.29.09-.09h0c-.07,0-.12-.14-.05-.25l.07-.09.09-.08.11-.07h0a.17.17,0,0,1,0-.26A.71.71,0,0,1,65,52l.12-.05s0,.06,0,.13a1,1,0,0,1,0,.21.18.18,0,0,1-.23.11h0s0,.06,0,.13,0,.07,0,.11a.55.55,0,0,1,0,.1.17.17,0,0,1-.21.15h0s0,.06,0,.13a.87.87,0,0,1,0,.21.17.17,0,0,1-.17.18h0a.17.17,0,0,1-.1-.24A.77.77,0,0,1,64.55,52.94Zm-.1,1.85a.83.83,0,0,1,0-.23,1.26,1.26,0,0,1,0-.12h0c-.08,0-.17-.06-.16-.2a.54.54,0,0,1,0-.11.79.79,0,0,1,0-.11l.06-.12h0a.14.14,0,0,1-.11-.06.18.18,0,0,1,0-.07.24.24,0,0,1,0-.09.81.81,0,0,1,.09-.21l.08-.1v0l0,.08a.84.84,0,0,1,.06.21.2.2,0,0,1,0,.08.19.19,0,0,1,0,.06.14.14,0,0,1-.1.06h0l.06.11.05.1,0,.1a.17.17,0,0,1-.11.23h0l.09.1a.81.81,0,0,1,.12.18.17.17,0,0,1-.07.24h0C64.58,55,64.47,54.92,64.45,54.78Zm.2.52a.76.76,0,0,1,0-.23,1.28,1.28,0,0,1,0-.13l.09.08a.9.9,0,0,1,.15.15.18.18,0,0,1,0,.25h0A.17.17,0,0,1,64.65,55.31Zm.28.48a.49.49,0,0,1,0-.1s0-.08,0-.12a1.27,1.27,0,0,1,0-.13l.11.07.09.06.08.06a.17.17,0,0,1,0,.25h0C65.11,55.94,65,55.91,64.93,55.79Zm.61.48a.17.17,0,0,1-.26-.05.79.79,0,0,1-.08-.21,1.22,1.22,0,0,1,0-.13l.12,0a.85.85,0,0,1,.19.1.17.17,0,0,1,.06.24h0Zm.9.58h0a.13.13,0,0,1-.1.07.21.21,0,0,1-.16,0,.6.6,0,0,1-.15-.17L66,56.6h0a.13.13,0,0,1-.11.06h-.08l-.07-.05a.81.81,0,0,1-.12-.19.61.61,0,0,1,0-.09v0h0l.09,0a.83.83,0,0,1,.21.06l.06.05,0,.06a.14.14,0,0,1,0,.12h.13a1.4,1.4,0,0,1,.21,0,.19.19,0,0,1,.12.1.14.14,0,0,1,0,.12Zm.18-.88h-.42a.6.6,0,0,1,.5-.56V52.29a.6.6,0,0,1-.5-.56h.42c0,.06,0,.12.16.15h.88a2.87,2.87,0,0,1,.49,0,1.1,1.1,0,0,1,.42.17,1,1,0,0,1,.33.37,1,1,0,0,1,.13.49.91.91,0,0,1-.12.46,1.07,1.07,0,0,1-.27.3,1,1,0,0,1,.42.37,1.1,1.1,0,0,1,.17.62,1.13,1.13,0,0,1-.13.53,1,1,0,0,1-.37.4,1.33,1.33,0,0,1-.53.19,4.63,4.63,0,0,1-.55,0h-.87C66.62,55.87,66.61,56,66.61,56Zm.51,1.16a.13.13,0,0,1,0,.08.14.14,0,0,1,0,.06l-.05,0h-.13l-.1,0s0,0,0,0h0a.07.07,0,0,1,.07-.05l.08-.37a.07.07,0,0,1,0-.08h0s0,0,0,0l.1,0,.06,0,0,0,0,.05a.12.12,0,0,1,0,.06.11.11,0,0,1,0,.05l0,0A.13.13,0,0,1,67.12,57.13Zm.31.25-.22,0,0-.44h.08l0,.36.13,0Zm.41,0a.19.19,0,0,1-.29,0,.23.23,0,0,1-.06-.16.24.24,0,0,1,.06-.16.19.19,0,0,1,.29,0,.24.24,0,0,1,.06.16A.23.23,0,0,1,67.84,57.34Zm.47,0a.19.19,0,0,1-.29,0,.23.23,0,0,1-.08-.15A.24.24,0,0,1,68,57a.19.19,0,0,1,.29,0,.24.24,0,0,1,.08.16A.23.23,0,0,1,68.31,57.29Zm.42-.09a.2.2,0,0,1-.07.06l-.09,0-.09,0-.12-.43.09,0,.1,0,.1,0,.07.06a.24.24,0,0,1,0,.09.23.23,0,0,1,0,.09A.21.21,0,0,1,68.73,57.19Zm.73-.48a.59.59,0,0,1-.15.17.21.21,0,0,1-.16,0,.13.13,0,0,1-.1-.07h0a.14.14,0,0,1,0-.12.19.19,0,0,1,.12-.1,1.38,1.38,0,0,1,.21,0h.13Zm.47-.41a.62.62,0,0,1,0,.09.81.81,0,0,1-.12.2l-.07.05h-.08a.13.13,0,0,1-.11-.05h0a.14.14,0,0,1,0-.12.17.17,0,0,1,0-.06l.06-.05a.84.84,0,0,1,.21-.07l.09,0h0Zm.34-.31a.8.8,0,0,1-.08.21.17.17,0,0,1-.25.06h0A.17.17,0,0,1,70,56a.86.86,0,0,1,.19-.1l.12,0A1.25,1.25,0,0,1,70.28,56Zm.31-.45s0,.08,0,.12a.5.5,0,0,1,0,.11c-.06.12-.18.15-.24.1h0a.17.17,0,0,1,0-.25l.08-.07.09-.07.11-.07A1.27,1.27,0,0,1,70.58,55.54Zm.22-.27a.17.17,0,0,1-.22.14h0a.18.18,0,0,1,0-.25A.89.89,0,0,1,70.7,55l.09-.09a1.31,1.31,0,0,1,0,.13A.76.76,0,0,1,70.8,55.27Zm0-.36h0a.17.17,0,0,1-.07-.24.81.81,0,0,1,.12-.18l.08-.1a1.24,1.24,0,0,1,0,.12.83.83,0,0,1,0,.23C71,54.88,70.86,54.94,70.79,54.92Zm.13-.52h0a.17.17,0,0,1-.12-.22.54.54,0,0,1,0-.1l0-.1.06-.11L71,54a.79.79,0,0,1,0,.11.55.55,0,0,1,0,.11C71.08,54.33,71,54.41,70.92,54.4Z"/><path class="cls-12" d="M68.53,50.88h.05a.13.13,0,0,0,.08-.09.15.15,0,0,0,0-.07.13.13,0,0,0,0-.06l-.05,0-.06,0h0l-.08.27h.09Z"/><path class="cls-12" d="M68.1,50.81a.12.12,0,0,0,.1,0,.16.16,0,0,0,0-.21.13.13,0,0,0-.19,0,.15.15,0,0,0-.05.1.16.16,0,0,0,0,.11A.12.12,0,0,0,68.1,50.81Z"/><path class="cls-12" d="M67.67,50.79a.12.12,0,0,0,.09,0,.16.16,0,0,0,0-.11.15.15,0,0,0,0-.11.13.13,0,0,0-.19,0,.15.15,0,0,0,0,.11.16.16,0,0,0,0,.11A.12.12,0,0,0,67.67,50.79Z"/><path class="cls-12" d="M65.91,40.42a.21.21,0,0,0-.15-.1c-.09,0-.18,0-.18,0v0a1.12,1.12,0,0,0,.25.06Z"/><path class="cls-13" d="M71.62,40a3.88,3.88,0,0,0-.28-1.45h0c0-.11-.12-.21-.18-.32L71,38c-.06-.09-.09-.19-.16-.28h0a3.91,3.91,0,0,0-.92-.88h0a3.83,3.83,0,0,0-.8-.4h0L69,36.33l-.24-.08-.06,0h0a3.83,3.83,0,0,0-.57-.11h0l-.36,0h0l-.32,0h0l-.2,0h-.07l-.29.06h0l-.06,0-.16.06a3.88,3.88,0,0,0-.45.16l-.07,0-.07,0h0l-.15.09a3.88,3.88,0,0,0-.61.43h0l-.06.06a3.9,3.9,0,0,0-.29.29l-.15.19a3.92,3.92,0,0,0-.25.34l-.08.15a3.87,3.87,0,0,0-.35.83c0,.05,0,.1,0,.15h0a3.69,3.69,0,0,0,.38,2.81l0,0A3.91,3.91,0,0,0,66,43.54l.06,0a3.87,3.87,0,0,0,.45.16l.16.06.06,0h0l.37.07.2,0h0l.32,0h0l.33,0h0a3.86,3.86,0,0,0,.58-.11h0l.06,0a3.89,3.89,0,0,0,1.18-.53h0a3.92,3.92,0,0,0,.92-.88h0a3.9,3.9,0,0,0,.5-.88h0A3.88,3.88,0,0,0,71.62,40h0ZM69.19,43.6l-.38.14a2.54,2.54,0,0,0,.24-.2l.12-.1a3.29,3.29,0,0,0,.36-.43,3.58,3.58,0,0,1,.35.23,3.8,3.8,0,0,1-.53.3Zm-2.13-.11.1.19.06.09.09.11a3.84,3.84,0,0,1-.6-.11,2.48,2.48,0,0,1-.42-.33l-.1-.12a3.26,3.26,0,0,1-.27-.32,3.61,3.61,0,0,1,.36-.15l0,.08c.06.13,0,.06.08.2s0,.12.11.24,0,.16.09.21a.36.36,0,0,0,.23,0h0a.21.21,0,0,0,.11-.16.29.29,0,0,1,0-.06l0,.05Zm-.8.11-.17-.06a3.78,3.78,0,0,1-.54-.3,3.67,3.67,0,0,1,.36-.24,3.26,3.26,0,0,0,.37.43l.12.1a2.56,2.56,0,0,0,.25.21Zm-2.35-4.38v0a1,1,0,0,0,0,.25,1.6,1.6,0,0,0,.16.39,1.36,1.36,0,0,1,.06.16h-.29a3.88,3.88,0,0,1,.07-.74Zm2.34-2.8h0a.28.28,0,0,1-.06.09.09.09,0,0,1-.07,0H66l.09-.05Zm3.1.07a3.78,3.78,0,0,1,.53.3l-.11.07h0s0,0,0,0l-.2.14a3.31,3.31,0,0,0-.36-.43l-.05,0v-.12s0,0,0,0l.06,0ZM71,39.57a3.34,3.34,0,0,0-.38,0,.06.06,0,0,1-.06,0l-.07-.26a.08.08,0,0,1,0-.09s.42,0,0,0h-.21c0-.06,0-.11,0-.17l.21-.08,0,.1a.43.43,0,0,0,.09.07.18.18,0,0,1,0-.08s0,0,0,0,.09.1.09.1,0,.09.07.11l0,0,.07-.09S71,39,71,39s.08,0,.1.15a.14.14,0,0,0,.17.13.06.06,0,0,1,.07.07v0l0,.08,0,0-.12.09s0,0-.08,0S71.16,39.58,71,39.57Zm-1.86,3.86a2.48,2.48,0,0,1-.41.33,3.86,3.86,0,0,1-.61.12l.08-.11.07-.09.1-.18.06-.1c0-.08.08-.18.11-.28l0-.07q.06-.19.12-.4a3.58,3.58,0,0,1,.82.34,3.32,3.32,0,0,1-.26.31ZM67.09,36.6l0,0a.06.06,0,0,1,0,0,1.6,1.6,0,0,1,0,.25c0,.09,0,.09-.05.21a.4.4,0,0,1-.06.2s0,.05,0,.08-.19,0-.28,0h0c0-.09.05-.18.08-.27l0-.14c0-.09.07-.17.1-.25l0-.09,0,0Zm.46.83c0-.09.1-.08.17-.13h0v.22h0l-.15,0A.18.18,0,0,1,67.54,37.43Zm1.27-1.13,0,0h0Zm0,.05s0,0,0,0l.08,0,.14.12c0,.05,0,.19,0,0h0l0,0,.11.13a3.25,3.25,0,0,1,.25.3,3.6,3.6,0,0,1-.7.29c.06-.07.09-.16,0-.15h-.19l-.06-.2,0-.06c0-.1-.08-.2-.12-.29l-.05-.1-.1-.18-.07-.09-.08-.11a3.85,3.85,0,0,1,.61.12Zm2.37,2.29c.06,0,.1-.05.11.07s0,.11-.12.15l-.08,0a.06.06,0,0,1-.08,0l0-.15.17-.07Zm-1,2.93c-.1.35.06.36,0,.52l0,0-.15,0a5.42,5.42,0,0,0,.2-.76S70.29,41.36,70.23,41.57Zm-2.48.93h0v-.31c.06-.11.22-.29.17-.38h0a9.25,9.25,0,0,1,.93.06c0,.28-.1.54-.16.77h0A3.64,3.64,0,0,0,67.75,42.5ZM65.38,38a.09.09,0,0,0,0-.09l.06,0s0,.09,0,.13S65.36,38.07,65.38,38Zm1.77-.55,0,0a.72.72,0,0,0,.29.15c.14.05.11,0,.08-.13h.16v.7a9.32,9.32,0,0,1-1-.06s.09-.11.06-.17,0,0-.14-.09c0-.18.07-.36.11-.51h0Zm1.17,0,.32-.07h0c.06.23.11.49.16.76a9.31,9.31,0,0,1-1.11.07v-.7a3.51,3.51,0,0,0,.48,0Zm1.91.39a.22.22,0,0,0,0-.08s.08.09,0,0-.11-.08-.12-.2v-.12c0-.13-.11-.14,0-.13h.1a.15.15,0,0,0,0,.1l0,.06.11.08h0c.1,0,.3,0,.17,0l-.11.07a.06.06,0,0,0,0,.07v0l0,0-.41.13c0-.09-.09-.16-.13-.25H70s.18,0,.13.07l0,.1Zm.78.78a.06.06,0,0,1,0-.06h0a.06.06,0,0,1,.08,0l0,0-.15.06Zm-.76.07h0c.14,0,.17,0,.21.09l0,.06-.2.08C70.29,38.87,70.25,38.8,70.24,38.72Zm-.67.52s.1-.13.11,0v.13l-.18.19a1.29,1.29,0,0,0-.19.22c-.06.1-.09,0-.17.22H69c0-.25,0-.5,0-.75.18,0,.34-.08.51-.11S69.54,39.23,69.57,39.24ZM69,40.42a1.38,1.38,0,0,0,0,.34l-.09,0c0-.25,0-.49,0-.72h.13C69.06,40.23,69,40.15,69,40.42Zm-3.63-.21-.16-.09a.14.14,0,0,0-.16,0s0-.06,0-.08h1.37c0,.23,0,.47,0,.72-.19,0-.36.08-.54.12a.17.17,0,0,0-.11-.05h-.16a.14.14,0,0,0-.13.08h0v0h0a.92.92,0,0,1-.23.06c-.08,0,0,0-.07,0s0,0,0-.08,0,0,0,0a6.15,6.15,0,0,1-.05-.62h0l.16.12a.31.31,0,0,1,.11,0,.22.22,0,0,1,.08.06C65.59,40.28,65.41,40.21,65.41,40.21Zm.52-2.85c.09,0,0,0,0,0l0,0a.09.09,0,0,1,.09,0l.09.06h0a.31.31,0,0,0,.17,0c.1,0,0,0,0-.08s0,0,0-.06,0,0,0,0,.2.1.3.13-.07.33-.1.51l-.14-.07c-.3-.17,0,0,0-.12s0,0-.12-.07-.08,0-.08,0a.09.09,0,0,1-.07.07h0c-.13,0,0-.09,0-.15a.17.17,0,0,0-.15-.07.42.42,0,0,0-.21.08c-.09.06,0,0,0,.12s0,0,0,.1-.11.14-.19.18l-.17,0a4.22,4.22,0,0,1,.31-.59Zm1.81,4.3v-1a9.28,9.28,0,0,1,1.22.08c0,.38-.06.74-.11,1.08a9.28,9.28,0,0,0-1-.06A.5.5,0,0,0,67.74,41.67Zm-1.23-.74c0-.06,0-.11,0-.16a9.22,9.22,0,0,1,1.22-.08v1a.64.64,0,0,0-.25-.08,2.78,2.78,0,0,1-.41-.07.14.14,0,0,1-.08-.06,1.06,1.06,0,0,1-.12-.19.78.78,0,0,0-.27-.19C66.54,41.07,66.63,41,66.51,40.92Zm.11-2.64,0,.07v-.08Zm1.1,1.06V40H66.47c0-.25,0-.5,0-.75A9.3,9.3,0,0,0,67.72,39.34Zm0,.69v.63a9.26,9.26,0,0,0-1.23.08c0-.25,0-.48,0-.71Zm0,.63V40H69c0,.23,0,.46,0,.71A9.3,9.3,0,0,0,67.74,40.66Zm0-.65v-.67A9.31,9.31,0,0,0,69,39.26c0,.25,0,.51,0,.75Zm-2.06-1.07.17-.06c.09,0,0,0,.05-.11s0,0,.06-.07,0,0,.08,0,0,0,.11,0h.06l.22-.09c.1,0,0-.09,0-.09s-.22.1-.17,0-.11-.16-.07-.17.28,0,.36,0h.05s0,.1,0,.15v0h0c0,.26-.07.51-.08.78a8.32,8.32,0,0,1-.92-.2l0,0,0,0Zm.8,1.82c0,.05,0,.1,0,.16l-.1,0c-.31,0-.27,0-.38,0l-.05,0C66.14,40.84,66.3,40.79,66.48,40.76ZM69,39.24a9.25,9.25,0,0,1-1.22.08V38.26a9.3,9.3,0,0,0,1.11-.07C68.9,38.53,68.94,38.88,69,39.24Zm-2.46,0c0-.26,0-.52.08-.77l0,0c.06,0,0,0,.28,0s0-.09-.08-.1-.11-.06-.11-.13,0,0,0,0h0a9.41,9.41,0,0,0,1,.06v1.06A9.22,9.22,0,0,1,66.5,39.24ZM65.6,38l-.05,0a.09.09,0,0,1-.05,0l-.08,0h0s0-.09,0-.13ZM70,39c0-.09,0-.12.14-.2s0-.09.08-.09,0,.15.06.23Zm0-.88a1.55,1.55,0,0,1-.07.18s-.08,0-.08,0a.29.29,0,0,0-.17,0c-.07,0-.11-.09-.07,0a.31.31,0,0,0,.19.19s0-.12,0,0-.22.18-.25.19,0-.22-.09,0-.08.22,0,.33l0,0c-.17,0-.33.08-.5.11,0-.36-.06-.71-.11-1,.2,0,.38-.07.57-.11v0a.1.1,0,0,1,.08.07h0a.1.1,0,0,0,.16,0l0,0a.1.1,0,0,0,0-.12l0-.06L70,38s0,.08,0,.12Zm-4.76,1.81a.09.09,0,0,0,.05-.13l-.06-.1c-.07-.11,0-.07,0-.19s0,0,.15-.1,0-.05,0-.12a.06.06,0,0,1,.05-.06l.05,0,.08-.1h0l0-.05a8.3,8.3,0,0,0,.93.2c0,.25,0,.51,0,.75H65.08s0,0,0-.06A.21.21,0,0,0,65.21,39.94Zm.1,1.24a.17.17,0,0,1,.12,0,.53.53,0,0,0-.07.21c0,.07-.1.09,0,.16s0,.1.16.28l.11.18-.18,0a5.36,5.36,0,0,1-.24-.89A.21.21,0,0,0,65.31,41.19Zm3.55.65c.05-.34.09-.7.11-1.08l.09,0,.07.11c.13.18,0,.06.13.18s.19.12.26.11.28,0,.35,0,.21-.09.26,0,.05,0,.05.09,0,0,0,0a5.37,5.37,0,0,1-.21.76A8.58,8.58,0,0,0,68.87,41.84Zm.88-4.39c0,.07,0,.13,0,.13a.17.17,0,0,1,.05,0A4.25,4.25,0,0,1,70,38l-.31.06,0,0c-.07,0-.08-.06-.06-.08a.1.1,0,0,0,0-.11v0a.1.1,0,0,0-.07,0h-.08c-.13,0,0,.15,0,.12v0a.54.54,0,0,1,0,.1l0,0,0,.05c-.19,0-.37.08-.56.11,0-.28-.1-.53-.16-.77h0l0,0a3.64,3.64,0,0,0,.76-.32A4.25,4.25,0,0,1,69.74,37.45ZM65.64,42v0a.14.14,0,0,0,.06.05,1.41,1.41,0,0,1,.33.22c.07.09,0,.13.09.23s.1.17.15.26a3.61,3.61,0,0,0-.36.15,4.23,4.23,0,0,1-.47-.9Zm3.07.59c.06-.23.11-.49.16-.77a8.54,8.54,0,0,1,1.14.22,4.24,4.24,0,0,1-.47.9A3.63,3.63,0,0,0,68.7,42.63Zm1.4-3.41,0,0-.14,0h-.14s0-.07.12-.16,0,0,.07-.09h0l.3-.07c0,.06,0,.11,0,.17C70.14,39.16,70.12,39.2,70.1,39.22Zm.66-.46h0a1.38,1.38,0,0,0-.16-.19s-.06,0-.07-.06a.06.06,0,0,1,.08-.07c.08,0,.17,0,.18.09A.6.6,0,0,1,70.77,38.76Zm-.31-.91a0,0,0,0,1,0,0,.27.27,0,0,1-.18.13h0s0,0-.09,0,0,0-.07,0h0S70,38,70,38l.41-.13Zm-.65-.32s0,0,0,0v0ZM69.75,37c0,.18,0,.24,0,.31s0,0,0,.12c-.07-.12-.12-.26-.19-.37l.2-.13Zm-2,5.23v.27h-.11a.82.82,0,0,0,.1-.26Zm2.58-5-.06-.05a1.08,1.08,0,0,0-.39-.27h0l.09-.06a3.79,3.79,0,0,1,.47.39Zm-2.09-.91.06.08a3,3,0,0,1,.29.63l0,.1,0,.1h0a.59.59,0,0,1-.26,0,.06.06,0,0,0-.07,0,.08.08,0,0,0,0,.1c.09.07,0,.06.09.07s.21,0,.22,0h0l-.3.06-.1,0a3.47,3.47,0,0,1-.47,0v-.24a.46.46,0,0,1,.19-.14c.12,0,.05-.1.15-.12s0-.26.05-.3.06-.15,0-.18,0-.14,0-.18-.1-.07-.1-.07l-.16-.07h-.13v-.08l.37,0ZM67,36.63c0,.08-.07.18-.11.27l0,.07q-.06.19-.12.4c-.09,0-.17-.08-.26-.11a.09.09,0,0,0,.09,0c.06,0,.14-.09.14-.13s0-.08-.07-.11a.09.09,0,0,1,0-.08v0a.06.06,0,0,0,0,0s-.09-.1-.09-.13a.24.24,0,0,1,.1-.15c.06-.05.25,0,.28,0H67Zm-.3-.36h.06Zm-1.37,1.64a.09.09,0,0,1,0-.07v0a.21.21,0,0,1,0-.18c0-.1,0-.09,0-.12s.13-.09.17-.13a.1.1,0,0,1,.1,0h.15a4.25,4.25,0,0,0-.31.59l-.07,0Zm-.07-.85h0l.23-.19s0,.05,0,.07l0,0h0l-.06.07A.09.09,0,0,1,65.27,37.06Zm-.73,2.77,0-.07,0,0s.12,0,.14-.07,0,0,0,0a.26.26,0,0,1,.14,0c.07,0,0,.12.08.21s0,0,0,0,0,0,0,.07h-.58l.06-.16Zm.52.2s0,.06,0,.09a.18.18,0,0,0,0,.06h0c0,.2,0,.4.05.6l0,0a.09.09,0,0,1,0-.06.22.22,0,0,0-.06-.18c-.08-.06-.07,0-.1,0s0,0-.06-.07a.09.09,0,0,1,0-.07,1.59,1.59,0,0,0,.08-.21c0-.09-.1,0-.15,0s-.05.08-.12.2-.07,0-.13-.1,0,0,0-.05a.23.23,0,0,1,0-.15h.59Zm-.87.14a.77.77,0,0,0,.12.21h0l.21.22a.06.06,0,0,0,.05,0,.09.09,0,0,1,.08,0l.09.07a.35.35,0,0,1,.09.1l.09,0a.09.09,0,0,1,.06.09.08.08,0,0,0,0,0l.06.09a7,7,0,0,0-.93.37A3.87,3.87,0,0,1,63.84,40h.3S64.16,40.11,64.19,40.17Zm.87.92,0,0a.41.41,0,0,0,.1.05,5.4,5.4,0,0,0,.24.9,7.48,7.48,0,0,0-.81.27,3.87,3.87,0,0,1-.49-.88A7,7,0,0,1,65.06,41.09Zm2.68,1.43h0a3.63,3.63,0,0,1,.92.13h0c0,.11-.06.2-.09.29l0,.11c0,.11-.08.22-.13.32v0a2.3,2.3,0,0,1-.15.28l0,.06-.12.15-.36,0Zm3.09-.19h0l-.16-.05.11-.14a2.52,2.52,0,0,0,.28-.36l.24-.33h0A3.88,3.88,0,0,1,70.84,42.32Zm-3.13-6.12h-.15l-.08,0h-.18l.06-.08.36,0Zm-.44,0h-.09s0,0-.06,0l.2,0Zm-2.65,6.13a7.53,7.53,0,0,1,.81-.27,4.26,4.26,0,0,0,.47.9,3.65,3.65,0,0,0-.36.24,3.81,3.81,0,0,1-.49-.4L65,42.75A4,4,0,0,1,64.63,42.35Zm5.77.47a3.81,3.81,0,0,1-.49.4,3.68,3.68,0,0,0-.36-.24,4.26,4.26,0,0,0,.47-.9l.15,0c-.08.11-.14.15-.15.31a3,3,0,0,1-.05.39.09.09,0,0,1,0,.05L69.8,43s.19.07.44-.19a4.69,4.69,0,0,0,.41-.52l.16.05a4,4,0,0,1-.33.38Zm1.14-3.47a.85.85,0,0,0,0-.1,3.86,3.86,0,0,1,.08.75h-.07a.58.58,0,0,1,0-.07C71.55,39.85,71.52,39.48,71.53,39.36Zm-4.18,4.53a1.31,1.31,0,0,1-.13-.17l0,0A2.3,2.3,0,0,1,67,43.4v0l0-.06.05-.18c0-.11.2-.1.21-.2a.58.58,0,0,1,.05-.16.14.14,0,0,1,.11-.08.21.21,0,0,0,.12-.07.73.73,0,0,0,.06-.1h.12V43.9h0Zm4-2.45h0a.44.44,0,0,0,.06-.13,3.38,3.38,0,0,1,.09-.49,2.14,2.14,0,0,0,.08-.39h0s0-.25,0-.39h.08A3.87,3.87,0,0,1,71.33,41.44Z"/><text class="cls-14" transform="translate(58.05 10.78)">B<tspan class="cls-15" x="6.14" y="0">L</tspan><tspan x="10.88" y="0">OODER IDENTITY</tspan></text><path class="cls-13" d="M70,105.27v1.5a.12.12,0,0,1-.12.12H64.71a.12.12,0,0,1-.12-.12V99.91a.12.12,0,0,1,.12-.12h3.9v1.3a.12.12,0,0,0,.12.12H70v1.7l0,0h0v0l.21-.39v-1.38a.12.12,0,0,0,0-.08l-1.42-1.42a.12.12,0,0,0-.08,0h-4a.36.36,0,0,0-.35.35v6.86a.36.36,0,0,0,.35.35h5.21a.36.36,0,0,0,.35-.35v-1.93l-.18.33ZM68.85,100l1,1h-1Z"/><path class="cls-12" d="M65.42,101.21h2.37a.12.12,0,1,0,0-.24H65.42a.12.12,0,1,0,0,.24Z"/><path class="cls-12" d="M69.21,101.69H65.42a.12.12,0,1,0,0,.24h3.79a.12.12,0,0,0,0-.24Z"/><path class="cls-12" d="M69.21,102.4H65.42a.12.12,0,1,0,0,.24h3.79a.12.12,0,0,0,0-.24Z"/><path class="cls-12" d="M69.33,103.22a.12.12,0,0,0-.12-.12H65.42a.12.12,0,0,0,0,.24h3.79A.12.12,0,0,0,69.33,103.22Z"/><path class="cls-12" d="M65.42,103.82a.12.12,0,0,0,0,.24h2.43a.12.12,0,0,0,0-.24Z"/><path class="cls-12" d="M71.75,101.65h0l.13-.23a.13.13,0,0,0-.05-.18l-.07,0,.14-.26a.13.13,0,0,0-.05-.18l-.06,0a.13.13,0,0,0-.12.07l-.14.26,0,0-.06,0a.13.13,0,0,0-.12.07l-1,1.87h0l.58.31.74-1.37a.64.64,0,0,1,0,.55L71,103.62a.13.13,0,0,0,.05.18l.06,0a.13.13,0,0,0,.12-.07l.63-1.16A1,1,0,0,0,71.75,101.65Z"/><path class="cls-12" d="M70.15,103.2l-.11.2-.73,1.34h0a3.54,3.54,0,0,0-.29,1.07l-.08,0h0l-.12,0a2.11,2.11,0,0,1-.47.07c-.22,0-.34-.07-.34-.21a.31.31,0,0,1,0-.09c0-.07.05-.15,0-.2a.11.11,0,0,0-.08,0,.44.44,0,0,0-.17,0,1.89,1.89,0,0,0-.36.25l-.1.09c-.11.1-.25.23-.36.24s-.05,0-.06,0,0-.14.21-.52h0l0,0c.15-.22.24-.37.16-.44a.14.14,0,0,0-.09,0,1.29,1.29,0,0,0-.51.23h0c-.18.11-.36.24-.52.37l-.38.28a.47.47,0,0,1-.23.1s-.07,0-.07-.08a.34.34,0,0,1,.09-.25.61.61,0,0,1,.36-.22s.15-.08.15-.13,0,0,0,0h0a1,1,0,0,0-.7.51.26.26,0,0,0,0,.27.2.2,0,0,0,.18.09.43.43,0,0,0,.18,0,3.37,3.37,0,0,0,.66-.44h0l.34-.25a2.1,2.1,0,0,1,.49-.24.55.55,0,0,1-.12.23h0l0,.05-.05.08v0c-.12.17-.28.4-.21.59a.13.13,0,0,0,.13.1,1,1,0,0,0,.52-.29h0a1.54,1.54,0,0,1,.49-.32h0a.64.64,0,0,1,0,.12.25.25,0,0,0,.07.3.55.55,0,0,0,.36.11,1.89,1.89,0,0,0,.54-.1l.12,0h0l.08,0a3.7,3.7,0,0,0,.88-.89h0l.15-.27.24-.44.45-.83-.45-.25Z"/><line class="cls-16" x1="75.95" y1="106.83" x2="150.83" y2="106.83"/><path class="cls-12" d="M67.69,66.73h.1l.08,0a.18.18,0,0,0,.07-.07h0a.17.17,0,0,0,0-.09.19.19,0,0,0,0-.11.18.18,0,0,0-.09-.07h0a.19.19,0,0,1-.15.07h0a.18.18,0,0,1-.14-.07v.38h.17Z"/><path class="cls-12" d="M67.67,66a.18.18,0,0,1,.13.06h0a.13.13,0,0,0,.06-.05.15.15,0,0,0,0-.08.16.16,0,0,0,0-.08l0-.05-.07,0h-.24v.32a.18.18,0,0,1,.14-.07Z"/><path class="cls-13" d="M67.89,67.75l3.05-2.52a.31.31,0,0,0-.21-.08H64.6a.31.31,0,0,0-.21.08l3.05,2.52A.37.37,0,0,0,67.89,67.75ZM67.34,67v0h-.19v0a.23.23,0,0,1,.17-.21v-1a.23.23,0,0,1-.17-.21,0,0,0,0,1,0,0h.14a0,0,0,0,1,0,0l0,0h.45a.4.4,0,0,1,.15.06.38.38,0,0,1,.12.13.36.36,0,0,1,0,.18.33.33,0,0,1,0,.17l-.06.08a.37.37,0,0,1,.11.11.4.4,0,0,1,.06.22.41.41,0,0,1,0,.19.38.38,0,0,1-.13.14.48.48,0,0,1-.19.07h-.47Z"/><path class="cls-13" d="M67.91,68.15a.39.39,0,0,1-.48,0l-3.14-2.59v3.49a.32.32,0,0,0,.32.32h6.12a.32.32,0,0,0,.32-.32V65.56Zm-1.67-.46L64.76,69.1a.13.13,0,0,1-.09,0,.13.13,0,0,1-.09-.23l1.48-1.41a.13.13,0,1,1,.18.19Zm4.53,1.4a.13.13,0,0,1-.19,0L69.1,67.69a.13.13,0,1,1,.18-.19l1.48,1.41A.13.13,0,0,1,70.76,69.1Z"/></g></g></svg>