<svg xmlns="http://www.w3.org/2000/svg" xmlns:xlink="http://www.w3.org/1999/xlink" viewBox="0 0 28.75 28.75"><defs><style>.cls-1{isolation:isolate;}.cls-2{fill:#fad235;}.cls-3{fill:url(#linear-gradient);}.cls-4{fill:url(#linear-gradient-2);}.cls-5{fill:#e7bf21;}.cls-6{fill:url(#linear-gradient-3);}.cls-7{fill:url(#linear-gradient-4);}.cls-8{fill:#d69f35;mix-blend-mode:multiply;}.cls-9{fill:#59595c;mix-blend-mode:screen;}.cls-10{fill:#fff1bc;}</style><linearGradient id="linear-gradient" x1="1290.78" y1="189.62" x2="1305.18" y2="165.76" gradientTransform="matrix(0.94, -0.33, 0.33, 0.94, -1275.58, 269.84)" gradientUnits="userSpaceOnUse"><stop offset="0" stop-color="#ffefb4"/><stop offset="0.03" stop-color="#fff0ba"/><stop offset="0.07" stop-color="#fff3c7"/><stop offset="0.14" stop-color="#ffefac"/><stop offset="0.18" stop-color="#fff2bd"/><stop offset="0.24" stop-color="#fff6d6"/><stop offset="0.28" stop-color="#fff7df"/><stop offset="1" stop-color="#ffefb4"/></linearGradient><linearGradient id="linear-gradient-2" x1="1299.79" y1="195.51" x2="1314.19" y2="171.64" gradientTransform="matrix(0.94, -0.33, 0.33, 0.94, -1275.58, 269.84)" gradientUnits="userSpaceOnUse"><stop offset="0.39" stop-color="#a47b2c"/><stop offset="0.91" stop-color="#a1742b"/></linearGradient><linearGradient id="linear-gradient-3" x1="1300.27" y1="192.26" x2="1312.34" y2="173.78" xlink:href="#linear-gradient"/><linearGradient id="linear-gradient-4" x1="1292.87" y1="187.19" x2="1304.94" y2="168.7" xlink:href="#linear-gradient-2"/></defs><title>blood-icon</title><g class="cls-1"><g id="Layer_2" data-name="Layer 2"><g id="Layer_1-2" data-name="Layer 1"><circle class="cls-2" cx="14.38" cy="14.38" r="14.37" transform="matrix(0.94, -0.33, 0.33, 0.94, -3.91, 5.49)"/><path class="cls-3" d="M1.1,19.22A14.37,14.37,0,0,1,20.8,1.53,14.37,14.37,0,1,0,8.25,27.37,14.32,14.32,0,0,1,1.1,19.22Z"/><path class="cls-4" d="M20.49,1.37A14.37,14.37,0,0,1,7.93,27.22,14.37,14.37,0,1,0,20.49,1.37Z"/><circle class="cls-5" cx="14.38" cy="14.38" r="11.53" transform="matrix(0.94, -0.33, 0.33, 0.94, -3.91, 5.49)"/><path class="cls-6" d="M19.27,3.94A11.53,11.53,0,0,1,9.2,24.68,11.53,11.53,0,1,0,19.27,3.94Z"/><path class="cls-7" d="M3.91,18.36A11.54,11.54,0,0,1,19.63,4.11,11.53,11.53,0,1,0,9.56,24.85,11.49,11.49,0,0,1,3.91,18.36Z"/><path class="cls-8" d="M4.94,18.6a11.54,11.54,0,0,1,13.59-15,11.53,11.53,0,1,0-6.86,22A11.5,11.5,0,0,1,4.94,18.6Z"/><path class="cls-9" d="M8.92,27.32A13.92,13.92,0,0,1,1.1,19,14.07,14.07,0,0,1,17.89.77a14.31,14.31,0,0,0-3.44,1.74A11.86,11.86,0,0,0,6.38,23.13,17.46,17.46,0,0,0,8.92,27.32Z"/><path class="cls-8" d="M20.2,15.83a4.13,4.13,0,0,0-1.66-1.46,4.26,4.26,0,0,0,1.07-1.21,3.61,3.61,0,0,0,.46-1.83,4,4,0,0,0-.51-2,4.16,4.16,0,0,0-1.32-1.46,4.4,4.4,0,0,0-1.67-.7,11.4,11.4,0,0,0-2-.15H11.11c-.42-.13-.6-.36-.62-.59a.18.18,0,0,1,0,0H8.82L8.69,7l.67.89v0L9.47,8a2.77,2.77,0,0,0,1.35.72l0,12.45a2.5,2.5,0,0,0-1.85,1.45H8.23l.56.74h1.67s0-.41.69-.58h3.44a18.42,18.42,0,0,0,2.21-.08A5.29,5.29,0,0,0,18.91,22a4.14,4.14,0,0,0,1.46-1.59,4.5,4.5,0,0,0,.52-2.1A4.4,4.4,0,0,0,20.2,15.83Zm-7.47-7H15a6.69,6.69,0,0,1,1.22.1,2.9,2.9,0,0,1,1,.36,2.12,2.12,0,0,1,.73.8,2.28,2.28,0,0,1,.31,1.12,2.26,2.26,0,0,1-.33,1.15,2,2,0,0,1-.83.8,3,3,0,0,1-.69.29,1.82,1.82,0,0,0-3,.13l0,0h-.54ZM18.59,19.6a2.59,2.59,0,0,1-1,1,3.88,3.88,0,0,1-1.12.36,7.8,7.8,0,0,1-1.33.11H12.71V15.42h.47l.17.23h0a1.84,1.84,0,0,0,.58.53,1.83,1.83,0,0,0,2.48-.66,4.24,4.24,0,0,1,.78.18,2.63,2.63,0,0,1,1.3,1A2.75,2.75,0,0,1,19,18.29,2.49,2.49,0,0,1,18.59,19.6Z"/><path class="cls-2" d="M19.64,15.08A4.13,4.13,0,0,0,18,13.63a4.26,4.26,0,0,0,1.07-1.21,3.61,3.61,0,0,0,.46-1.83,4,4,0,0,0-.51-2,4.16,4.16,0,0,0-1.32-1.46A4.4,4.4,0,0,0,16,6.48a11.4,11.4,0,0,0-2-.15H10.55c-.42-.13-.6-.36-.62-.59a.18.18,0,0,1,0,0H8.26a2.37,2.37,0,0,0,2,2.21l0,12.45a2.37,2.37,0,0,0-2,2.21H9.9s0-.41.69-.58H14A18.42,18.42,0,0,0,16.24,22a5.29,5.29,0,0,0,2.11-.76,4.14,4.14,0,0,0,1.46-1.59,4.5,4.5,0,0,0,.52-2.1A4.4,4.4,0,0,0,19.64,15.08Zm-7.47-7h2.22a6.69,6.69,0,0,1,1.22.1,2.9,2.9,0,0,1,1,.36,2.12,2.12,0,0,1,.73.8,2.28,2.28,0,0,1,.31,1.12,2.26,2.26,0,0,1-.33,1.15,2,2,0,0,1-.83.8,3,3,0,0,1-.69.29,1.82,1.82,0,0,0-3,.13l0,0h-.54ZM18,18.85a2.59,2.59,0,0,1-1,1,3.88,3.88,0,0,1-1.12.36,7.8,7.8,0,0,1-1.33.11H12.15V14.67h.5a1.83,1.83,0,0,0,3.2.11,4.24,4.24,0,0,1,.78.18,2.63,2.63,0,0,1,1.3,1,2.75,2.75,0,0,1,.48,1.61A2.49,2.49,0,0,1,18,18.85Z"/><path class="cls-10" d="M10.35,20.51,10.37,8h-.14l0,12.45a2.37,2.37,0,0,0-2,2.21h.11A2.38,2.38,0,0,1,10.35,20.51Z"/><path class="cls-10" d="M9.81,5.9a.18.18,0,0,0,0,0c0,.22.19.45.6.57h3.43a11.12,11.12,0,0,1,1.91.15,5.79,5.79,0,0,1,1.93.72,4.6,4.6,0,0,1,1,.79,4,4,0,0,0-1-.94A4.4,4.4,0,0,0,16,6.48a11.4,11.4,0,0,0-2-.15H10.51c-.42-.13-.6-.36-.62-.59a.18.18,0,0,1,0,0H8.22A2.14,2.14,0,0,0,8.65,7a2,2,0,0,1-.28-1.1Z"/><path class="cls-10" d="M17.24,11.66a2,2,0,0,1-.83.8,3,3,0,0,1-.69.29,1.82,1.82,0,0,0-3,.13l0,0h-.38v.15h.47l0,0a1.78,1.78,0,0,1,2.94-.13,3.52,3.52,0,0,0,.75-.3,2,2,0,0,0,.81-.78,2.2,2.2,0,0,0,.32-1.12,2.07,2.07,0,0,0,0-.45,2.1,2.1,0,0,1,0,.24A2.26,2.26,0,0,1,17.24,11.66Z"/><path class="cls-10" d="M19.75,15.31l-.14-.23a4.1,4.1,0,0,0-1.53-1.39l-.07.09A4.39,4.39,0,0,1,19.75,15.31Z"/><path class="cls-10" d="M18,18.85a2.59,2.59,0,0,1-1,1,3.88,3.88,0,0,1-1.12.36,7.8,7.8,0,0,1-1.33.11H12.36v.2h2.37a7.61,7.61,0,0,0,1.3-.11A3.79,3.79,0,0,0,17.12,20a2.53,2.53,0,0,0,1-.94,2.43,2.43,0,0,0,.38-1.27,2.79,2.79,0,0,0-.21-1.08,3,3,0,0,1,.11.81A2.49,2.49,0,0,1,18,18.85Z"/></g></g></g></svg>