<svg xmlns="http://www.w3.org/2000/svg" xmlns:xlink="http://www.w3.org/1999/xlink" viewBox="0 0 47.8 25.31"><defs><style>.cls-1{fill:none;}.cls-2{fill:#ac0000;}.cls-3{fill:url(#New_Pattern_Swatch_1);}</style><pattern id="New_Pattern_Swatch_1" data-name="New Pattern Swatch 1" width="45" height="45" patternTransform="translate(-245.05 -26.57) scale(1.51 1.46)" patternUnits="userSpaceOnUse" viewBox="0 0 45 45"><rect class="cls-1" width="45" height="45"/><rect class="cls-2" width="45" height="45"/></pattern></defs><title>blood-email</title><g id="Layer_2" data-name="Layer 2"><g id="Layer_1-2" data-name="Layer 1"><rect class="cls-1" width="47.8" height="25.31"/><circle class="cls-3" cx="23.9" cy="6.26" r="5.93"/><path class="cls-3" d="M23.91,13.43A10.77,10.77,0,0,1,33,18.29l0,0A10.8,10.8,0,0,0,23.91,13.43Z"/><path class="cls-3" d="M23.9,13.43h0c-5.87,0-10.63,4.44-10.63,9.92V25h0V23.51C13.27,18,18,13.43,23.9,13.43Z"/><path class="cls-3" d="M34.54,23.51v-.16A9.38,9.38,0,0,0,33,18.27l0,0A9.63,9.63,0,0,1,34.54,23.51Z"/><path class="cls-3" d="M33,18.29a10.77,10.77,0,0,0-9.09-4.86h0C18,13.43,13.27,18,13.27,23.51V25H34.54V23.51A9.63,9.63,0,0,0,33,18.29Z"/><polygon class="cls-3" points="23.9 13.43 23.9 13.43 23.91 13.43 23.9 13.43"/></g></g></svg>