<svg xmlns="http://www.w3.org/2000/svg" xmlns:xlink="http://www.w3.org/1999/xlink" viewBox="0 0 17.01 17.01"><defs><style>.cls-1{fill:none;}.cls-2{fill:#ac0000;}.cls-3{fill:url(#New_Pattern_Swatch_1);}</style><pattern id="New_Pattern_Swatch_1" data-name="New Pattern Swatch 1" width="45" height="45" patternTransform="translate(-221.26 -148.19) scale(0.91 0.88)" patternUnits="userSpaceOnUse" viewBox="0 0 45 45"><rect class="cls-1" width="45" height="45"/><rect class="cls-2" width="45" height="45"/></pattern></defs><title>blood-wallet-icon</title><g id="Layer_2" data-name="Layer 2"><g id="Layer_1-2" data-name="Layer 1"><path class="cls-3" d="M10.42,15.2a.33.33,0,0,0-.14,0l-.14,0h0l.16.59h0l.17-.06.08-.07a.28.28,0,0,0,.05-.26.33.33,0,0,0-.07-.13A.3.3,0,0,0,10.42,15.2Z"/><path class="cls-3" d="M6.93,1.73a.12.12,0,0,1-.21,0h0l.07.36.16,0,.08,0,.07,0A.17.17,0,0,0,7.12,2a.17.17,0,0,0,0-.09.18.18,0,0,0-.05-.1.17.17,0,0,0-.1,0Z"/><path class="cls-3" d="M7.12,15.17l-.06,0-.08,0-.14,0-.07.31h0a.12.12,0,0,1,.2,0h0l.06,0a.15.15,0,0,0,0-.07.15.15,0,0,0,0-.08A.14.14,0,0,0,7.12,15.17Z"/><path class="cls-3" d="M9.4,15.33a.27.27,0,0,0-.19.12.33.33,0,0,0-.05.24.34.34,0,0,0,.11.22.26.26,0,0,0,.22.07.27.27,0,0,0,.19-.12.34.34,0,0,0,.06-.24.33.33,0,0,0-.11-.22A.27.27,0,0,0,9.4,15.33Z"/><path class="cls-3" d="M7.66,7.79A1,1,0,0,1,9.3,7.72a1.62,1.62,0,0,0,.38-.16,1.09,1.09,0,0,0,.45-.44,1.23,1.23,0,0,0,.18-.63,1.25,1.25,0,0,0-.17-.61,1.16,1.16,0,0,0-.4-.44,1.59,1.59,0,0,0-.52-.2,3.65,3.65,0,0,0-.67-.05H7.34V7.82h.3Z"/><path class="cls-3" d="M6.71,1.65h0a.12.12,0,0,1,.19,0l0,0a.13.13,0,0,0,0-.06.14.14,0,0,0,0-.15l-.06,0H6.76l-.14,0,.06.31Z"/><path class="cls-3" d="M7,15.58l0,0a.12.12,0,0,1-.21-.05h0l-.08.36.16,0H7l.08,0a.17.17,0,0,0,0-.08.18.18,0,0,0,0-.11A.18.18,0,0,0,7,15.58Z"/><path class="cls-3" d="M9.39,11.77a2.11,2.11,0,0,0,.61-.2,1.42,1.42,0,0,0,.55-.53,1.36,1.36,0,0,0,.21-.71,1.5,1.5,0,0,0-.27-.88,1.43,1.43,0,0,0-.71-.54,2.3,2.3,0,0,0-.43-.1,1,1,0,0,1-1.75-.06H7.34v3.06H8.67A4.26,4.26,0,0,0,9.39,11.77Z"/><path class="cls-3" d="M8.47,15.38a.27.27,0,0,0-.21.09.33.33,0,0,0-.09.23.34.34,0,0,0,.08.23.26.26,0,0,0,.41,0,.34.34,0,0,0,.09-.23.33.33,0,0,0-.08-.23A.27.27,0,0,0,8.47,15.38Z"/><path class="cls-3" d="M8.5,0A8.5,8.5,0,1,0,17,8.5,8.5,8.5,0,0,0,8.5,0Zm7.32,8.24a.4.4,0,0,1-.06.16.29.29,0,0,1-.23.14h0a.3.3,0,0,1-.23-.12.4.4,0,0,1-.07-.14.44.44,0,0,1,0-.18,1.79,1.79,0,0,1,.12-.45c0-.07,0-.14.06-.19l0-.08a1.7,1.7,0,0,1,.18.22,1.77,1.77,0,0,1,.21.44A.52.52,0,0,1,15.82,8.24Zm-.21-1.39a.38.38,0,0,1-.2.53h0A.37.37,0,0,1,15,7a1.87,1.87,0,0,1,0-.46c0-.15.06-.28.06-.28a2.68,2.68,0,0,1,.2.19A1.7,1.7,0,0,1,15.61,6.85Zm-1-2.21a.36.36,0,0,1,0,.56h0l.24.15.2.16a1.1,1.1,0,0,1,.15.19c.15.25.06.5-.1.55h0a.38.38,0,0,1-.46-.31,1.21,1.21,0,0,1,0-.23c0-.08,0-.16,0-.24s0-.28,0-.28h0A.38.38,0,0,1,14.13,5,2.11,2.11,0,0,1,14,4.52c0-.15,0-.27,0-.27l.26.11A1.55,1.55,0,0,1,14.64,4.64Zm-.74-1a.37.37,0,0,1,.08.56h0a.37.37,0,0,1-.52-.15,1.77,1.77,0,0,1-.19-.43c0-.15-.09-.27-.09-.27a1.34,1.34,0,0,1,.27.07A1.79,1.79,0,0,1,13.9,3.68ZM13,2.86a.37.37,0,0,1,.17.54h0a.37.37,0,0,1-.54-.06A2.84,2.84,0,0,1,12.38,3c-.07-.14-.13-.25-.13-.25l.28,0A1.34,1.34,0,0,1,13,2.86Zm-1.5-.72A1.28,1.28,0,0,1,12,2.2a.46.46,0,0,1,.27.23.29.29,0,0,1,0,.27h0a.3.3,0,0,1-.23.13.42.42,0,0,1-.32-.09,3.11,3.11,0,0,1-.31-.35l-.17-.22Zm-1.38-.92.2.05.2.08a.43.43,0,0,1,.23.33.51.51,0,0,1,0,.21.49.49,0,0,1-.09.18.44.44,0,0,1-.37.16l-.21,0-.2-.05Zm-1,0a.41.41,0,0,1,.34-.1.41.41,0,0,1,.3.19.52.52,0,0,1,.08.37A.51.51,0,0,1,9.67,2,.42.42,0,0,1,9,1.9a.5.5,0,0,1-.09-.37A.52.52,0,0,1,9.13,1.2Zm-1,0a.42.42,0,0,1,.64,0,.51.51,0,0,1,.14.36.51.51,0,0,1-.13.36.42.42,0,0,1-.64,0A.5.5,0,0,1,8,1.54.52.52,0,0,1,8.08,1.18Zm-.56-.07.1.78.29,0,0,.17-.47.06-.12-1Zm-1.08.1s0,0,0,0l.23,0h.13l.12,0a.27.27,0,0,1,.1.08.27.27,0,0,1,.06.12.24.24,0,0,1,0,.12.28.28,0,0,1-.05.09.27.27,0,0,1,.12.08.29.29,0,0,1,.07.15.29.29,0,0,1,0,.14.27.27,0,0,1-.08.12A.35.35,0,0,1,7,2.2l-.14,0-.22,0s0,0,0,0l-.11,0a.16.16,0,0,1,.1-.17l-.15-.81a.16.16,0,0,1-.16-.12l.11,0Zm-1.57,1a1.29,1.29,0,0,1,.49-.07l.28,0-.16.22a3.07,3.07,0,0,1-.31.35.42.42,0,0,1-.32.1.3.3,0,0,1-.23-.12h0a.29.29,0,0,1,0-.27A.46.46,0,0,1,4.87,2.21Zm-1,.68a1.34,1.34,0,0,1,.47-.15l.28,0s0,.12-.12.25a2.85,2.85,0,0,1-.25.4.37.37,0,0,1-.54.07h0A.37.37,0,0,1,3.87,2.89ZM3,3.73a1.8,1.8,0,0,1,.44-.22,1.34,1.34,0,0,1,.27-.08s0,.11-.08.27a1.77,1.77,0,0,1-.18.43.37.37,0,0,1-.52.16h0A.37.37,0,0,1,3,3.73ZM1.64,6.53a2.72,2.72,0,0,1,.2-.2h0c-.16-.05-.26-.3-.11-.55a1.11,1.11,0,0,1,.15-.19l.2-.16.23-.16h0a.36.36,0,0,1,0-.56,1.54,1.54,0,0,1,.39-.3l.26-.11s0,.12,0,.27A2.11,2.11,0,0,1,2.8,5a.38.38,0,0,1-.49.24h0s0,.12,0,.28,0,.16,0,.24a1.19,1.19,0,0,1,0,.23.38.38,0,0,1-.45.32h0s0,.12.06.28a1.9,1.9,0,0,1,0,.46.37.37,0,0,1-.38.39h0a.38.38,0,0,1-.21-.53A1.68,1.68,0,0,1,1.64,6.53Zm-.21,4A1.81,1.81,0,0,1,1.5,10a2.73,2.73,0,0,1,.08-.27h0c-.16,0-.37-.14-.36-.43a1.16,1.16,0,0,1,0-.24,1.73,1.73,0,0,1,.09-.24,2.82,2.82,0,0,1,.13-.25h0a.29.29,0,0,1-.23-.13.4.4,0,0,1-.07-.15.52.52,0,0,1,0-.2,1.75,1.75,0,0,1,.21-.45,1.71,1.71,0,0,1,.17-.23l0,.07s0,.11.07.18a1.81,1.81,0,0,1,.13.45.44.44,0,0,1,0,.18.4.4,0,0,1-.06.14.3.3,0,0,1-.23.13h0s.07.11.14.24l.11.22a1.16,1.16,0,0,1,.09.21.38.38,0,0,1-.24.49h0l.19.21a1.76,1.76,0,0,1,.26.39.37.37,0,0,1-.15.52h0C1.72,10.95,1.48,10.82,1.44,10.53Zm.42,1.13a1.64,1.64,0,0,1,0-.49,2.78,2.78,0,0,1,0-.28l.2.18a2,2,0,0,1,.33.33.38.38,0,0,1-.06.54h0A.36.36,0,0,1,1.86,11.66Zm.6,1.05a1.07,1.07,0,0,1-.08-.23c0-.09,0-.18,0-.26a2.75,2.75,0,0,1,0-.28l.24.14.2.14a1.3,1.3,0,0,1,.18.14.38.38,0,0,1,0,.55H3C2.85,13,2.59,13,2.46,12.72Zm1.32,1.05a.38.38,0,0,1-.56-.11A1.72,1.72,0,0,1,3,13.2,2.64,2.64,0,0,1,3,12.92l.26.1a1.85,1.85,0,0,1,.41.22.37.37,0,0,1,.12.53h0ZM5.72,15h0a.29.29,0,0,1-.22.16.46.46,0,0,1-.34-.09,1.3,1.3,0,0,1-.33-.37,2.8,2.8,0,0,1-.14-.25h0a.29.29,0,0,1-.24.12.44.44,0,0,1-.17,0,.48.48,0,0,1-.16-.11A1.76,1.76,0,0,1,3.87,14a1.32,1.32,0,0,1-.07-.19l0-.08.08,0,.19,0A1.81,1.81,0,0,1,4.5,14a.48.48,0,0,1,.14.11.37.37,0,0,1,.08.13.3.3,0,0,1,0,.26h0l.28,0a3,3,0,0,1,.46.06.42.42,0,0,1,.26.21.3.3,0,0,1,0,.26Zm.4-1.91H5.2a1.29,1.29,0,0,1,1.1-1.21V5.11A1.29,1.29,0,0,1,5.2,3.91h.91a.13.13,0,0,0,0,0c0,.12.11.25.34.32H8.37a6.22,6.22,0,0,1,1.07.08,2.39,2.39,0,0,1,.91.38,2.28,2.28,0,0,1,.72.79,2.17,2.17,0,0,1,.28,1.07,2,2,0,0,1-.25,1,2.33,2.33,0,0,1-.58.66,2.25,2.25,0,0,1,.91.79,2.4,2.4,0,0,1,.38,1.34,2.46,2.46,0,0,1-.28,1.15,2.26,2.26,0,0,1-.79.87,2.88,2.88,0,0,1-1.15.42,10,10,0,0,1-1.2,0H6.49C6.13,12.89,6.12,13.11,6.12,13.11Zm1.11,2.52a.29.29,0,0,1,0,.17.3.3,0,0,1-.06.13.27.27,0,0,1-.12.08.34.34,0,0,1-.15,0l-.14,0-.22,0s-.05,0-.05,0l-.11,0a.16.16,0,0,1,.16-.11l.18-.8a.16.16,0,0,1-.1-.17l.11,0h0s0,0,0,0L7,15l.12,0a.29.29,0,0,1,.1.07.28.28,0,0,1,.06.11.26.26,0,0,1,0,.13.24.24,0,0,1-.06.11l-.09.06A.28.28,0,0,1,7.23,15.63Zm.67.54-.47-.05.11-1,.18,0L7.62,16l.29,0Zm.89-.1a.42.42,0,0,1-.64,0A.5.5,0,0,1,8,15.71a.52.52,0,0,1,.13-.36.42.42,0,0,1,.64,0,.52.52,0,0,1,.13.36A.51.51,0,0,1,8.79,16.07Zm1-.11a.42.42,0,0,1-.63.08A.5.5,0,0,1,9,15.71a.52.52,0,0,1,.08-.37.42.42,0,0,1,.63-.08.52.52,0,0,1,.18.34A.5.5,0,0,1,9.81,16Zm.9-.2a.44.44,0,0,1-.16.14l-.2.07-.2.05-.25-.93.2-.05.21,0a.45.45,0,0,1,.21,0,.44.44,0,0,1,.16.13.52.52,0,0,1,.1.19.49.49,0,0,1,0,.2A.45.45,0,0,1,10.71,15.76Zm1.59-1a1.29,1.29,0,0,1-.32.38.46.46,0,0,1-.34.1.29.29,0,0,1-.22-.15h0a.3.3,0,0,1,0-.26.42.42,0,0,1,.25-.22,3,3,0,0,1,.46-.07l.28,0S12.39,14.58,12.31,14.71Zm1-.9a1.35,1.35,0,0,1-.07.19,1.75,1.75,0,0,1-.25.42.48.48,0,0,1-.16.12.44.44,0,0,1-.17,0,.29.29,0,0,1-.24-.12h0a.3.3,0,0,1,0-.26.37.37,0,0,1,.08-.13.48.48,0,0,1,.14-.12,1.82,1.82,0,0,1,.45-.15l.19,0,.08,0Zm.75-.67a1.73,1.73,0,0,1-.17.47.38.38,0,0,1-.55.12h0a.37.37,0,0,1,.11-.53,1.86,1.86,0,0,1,.41-.23l.26-.1A2.71,2.71,0,0,1,14.07,13.15Zm.67-1c0,.08,0,.17,0,.26a1.09,1.09,0,0,1-.07.23c-.12.26-.38.32-.51.22h0a.38.38,0,0,1,0-.55,1.28,1.28,0,0,1,.18-.14L14.5,12l.24-.15A2.76,2.76,0,0,1,14.74,12.17Zm.48-.58a.36.36,0,0,1-.48.3h0a.38.38,0,0,1-.08-.54A1.92,1.92,0,0,1,15,11l.2-.19a2.85,2.85,0,0,1,.05.28A1.66,1.66,0,0,1,15.21,11.59Zm0-.77h0A.37.37,0,0,1,15,10.3a1.75,1.75,0,0,1,.25-.39l.18-.22a2.68,2.68,0,0,1,.08.27,1.8,1.8,0,0,1,.07.49C15.58,10.74,15.34,10.87,15.18,10.82Zm.27-1.13h0a.38.38,0,0,1-.26-.49A1.17,1.17,0,0,1,15.29,9l.1-.22c.07-.14.13-.24.13-.24a2.75,2.75,0,0,1,.14.25,1.72,1.72,0,0,1,.1.24,1.2,1.2,0,0,1,0,.24C15.82,9.54,15.62,9.72,15.46,9.69Z"/><path class="cls-3" d="M10.28,2.07l.11,0a.28.28,0,0,0,.18-.2.32.32,0,0,0,0-.15.29.29,0,0,0-.06-.13.33.33,0,0,0-.11-.08l-.13,0h0L10.09,2h0Z"/><path class="cls-3" d="M9.36,1.91a.26.26,0,0,0,.21-.07.35.35,0,0,0,.06-.46.27.27,0,0,0-.41-.05.34.34,0,0,0-.11.22.34.34,0,0,0,.05.24A.26.26,0,0,0,9.36,1.91Z"/><path class="cls-3" d="M8.41,1.86a.27.27,0,0,0,.2-.1.34.34,0,0,0,.08-.23.33.33,0,0,0-.09-.23.27.27,0,0,0-.41,0,.33.33,0,0,0-.08.23.34.34,0,0,0,.09.23A.26.26,0,0,0,8.41,1.86Z"/></g></g></svg>