<svg xmlns="http://www.w3.org/2000/svg" xmlns:xlink="http://www.w3.org/1999/xlink" viewBox="0 0 47.8 25.31"><defs><style>.cls-1{isolation:isolate;}.cls-2{fill:none;}.cls-3{fill:#fad235;}.cls-4{fill:url(#linear-gradient);}.cls-5{fill:url(#linear-gradient-2);}.cls-6{fill:#e7bf21;}.cls-7{fill:url(#linear-gradient-3);}.cls-8{fill:url(#linear-gradient-4);}.cls-9{fill:#d69f35;mix-blend-mode:multiply;}.cls-10{fill:#59595c;mix-blend-mode:screen;}.cls-11{fill:#fff1bc;}</style><linearGradient id="linear-gradient" x1="-490.83" y1="301.87" x2="-482.28" y2="287.7" gradientTransform="matrix(0.94, -0.33, 0.33, 0.94, 384.16, -425.75)" gradientUnits="userSpaceOnUse"><stop offset="0" stop-color="#ffefb4"/><stop offset="0.03" stop-color="#fff0ba"/><stop offset="0.07" stop-color="#fff3c7"/><stop offset="0.14" stop-color="#ffefac"/><stop offset="0.18" stop-color="#fff2bd"/><stop offset="0.24" stop-color="#fff6d6"/><stop offset="0.28" stop-color="#fff7df"/><stop offset="1" stop-color="#ffefb4"/></linearGradient><linearGradient id="linear-gradient-2" x1="-485.48" y1="305.36" x2="-476.93" y2="291.19" gradientTransform="matrix(0.94, -0.33, 0.33, 0.94, 384.16, -425.75)" gradientUnits="userSpaceOnUse"><stop offset="0.39" stop-color="#a47b2c"/><stop offset="0.91" stop-color="#a1742b"/></linearGradient><linearGradient id="linear-gradient-3" x1="-485.2" y1="303.43" x2="-478.03" y2="292.46" xlink:href="#linear-gradient"/><linearGradient id="linear-gradient-4" x1="-489.59" y1="300.42" x2="-482.42" y2="289.44" xlink:href="#linear-gradient-2"/></defs><title>bloodland-coin</title><g class="cls-1"><g id="Layer_2" data-name="Layer 2"><g id="Layer_1-2" data-name="Layer 1"><rect class="cls-2" width="47.8" height="25.31"/><circle class="cls-3" cx="23.9" cy="12.66" r="8.53" transform="translate(-2.83 8.51) rotate(-19.09)"/><path class="cls-4" d="M16,15.54A8.53,8.53,0,0,1,27.72,5a8.53,8.53,0,1,0-7.46,15.35A8.5,8.5,0,0,1,16,15.54Z"/><path class="cls-5" d="M27.53,4.93a8.53,8.53,0,0,1-7.46,15.35A8.53,8.53,0,1,0,27.53,4.93Z"/><circle class="cls-6" cx="23.9" cy="12.66" r="6.85" transform="translate(-2.83 8.51) rotate(-19.09)"/><path class="cls-7" d="M26.81,6.46a6.85,6.85,0,0,1-6,12.32,6.85,6.85,0,1,0,6-12.32Z"/><path class="cls-8" d="M17.69,15A6.85,6.85,0,0,1,27,6.56a6.85,6.85,0,1,0-6,12.31A6.82,6.82,0,0,1,17.69,15Z"/><path class="cls-9" d="M18.3,15.17a6.85,6.85,0,0,1,8.07-8.9,6.85,6.85,0,1,0-4.07,13A6.83,6.83,0,0,1,18.3,15.17Z"/><path class="cls-10" d="M20.67,20.35a8.27,8.27,0,0,1-4.65-5A8.35,8.35,0,0,1,26,4.58a8.5,8.5,0,0,0-2,1,7,7,0,0,0-4.79,12.24A10.37,10.37,0,0,0,20.67,20.35Z"/><path class="cls-9" d="M27.36,13.52a2.45,2.45,0,0,0-1-.86,2.53,2.53,0,0,0,.63-.72,2.14,2.14,0,0,0,.28-1.08A2.36,2.36,0,0,0,27,9.69a2.47,2.47,0,0,0-.79-.87,2.61,2.61,0,0,0-1-.41A6.77,6.77,0,0,0,24,8.32H22c-.25-.08-.36-.22-.37-.35a.11.11,0,0,1,0,0h-1l-.07.3.4.53v0l.07.08a1.64,1.64,0,0,0,.8.43v7.4a1.48,1.48,0,0,0-1.1.86h-.43l.33.44h1s0-.24.41-.34h2a10.94,10.94,0,0,0,1.31,0,3.14,3.14,0,0,0,1.25-.45,2.46,2.46,0,0,0,.87-.95A2.67,2.67,0,0,0,27.77,15,2.61,2.61,0,0,0,27.36,13.52ZM22.92,9.38h1.32a4,4,0,0,1,.73.06,1.72,1.72,0,0,1,.57.22,1.26,1.26,0,0,1,.43.48,1.36,1.36,0,0,1,.18.67,1.34,1.34,0,0,1-.2.68,1.19,1.19,0,0,1-.49.48,1.78,1.78,0,0,1-.41.17,1.08,1.08,0,0,0-1.79.08l0,0h-.32Zm3.48,6.38a1.54,1.54,0,0,1-.6.57,2.31,2.31,0,0,1-.67.21,4.63,4.63,0,0,1-.79.06H22.91V13.28h.28l.1.14h0a1.09,1.09,0,0,0,.35.32,1.08,1.08,0,0,0,1.47-.39,2.52,2.52,0,0,1,.46.11,1.56,1.56,0,0,1,.77.59,1.63,1.63,0,0,1,.29,1A1.48,1.48,0,0,1,26.41,15.76Z"/><path class="cls-3" d="M27,13.08a2.45,2.45,0,0,0-1-.86,2.53,2.53,0,0,0,.63-.72A2.14,2.14,0,0,0,27,10.41a2.36,2.36,0,0,0-.3-1.16,2.47,2.47,0,0,0-.79-.87,2.61,2.61,0,0,0-1-.41,6.77,6.77,0,0,0-1.16-.09H21.63c-.25-.08-.36-.22-.37-.35a.11.11,0,0,1,0,0h-1a1.41,1.41,0,0,0,1.19,1.31v7.4a1.41,1.41,0,0,0-1.2,1.31h1s0-.24.41-.34h2a10.94,10.94,0,0,0,1.31,0,3.14,3.14,0,0,0,1.25-.45,2.46,2.46,0,0,0,.87-.95,2.67,2.67,0,0,0,.31-1.25A2.61,2.61,0,0,0,27,13.08ZM22.59,8.94h1.32a4,4,0,0,1,.73.06,1.72,1.72,0,0,1,.57.22,1.26,1.26,0,0,1,.43.48,1.36,1.36,0,0,1,.18.67,1.34,1.34,0,0,1-.2.68,1.19,1.19,0,0,1-.49.48,1.78,1.78,0,0,1-.41.17,1.08,1.08,0,0,0-1.79.08l0,0h-.32Zm3.48,6.38a1.54,1.54,0,0,1-.6.57,2.31,2.31,0,0,1-.67.21,4.63,4.63,0,0,1-.79.06H22.58V12.83h.3a1.08,1.08,0,0,0,1.9.06,2.52,2.52,0,0,1,.46.11,1.56,1.56,0,0,1,.77.59,1.63,1.63,0,0,1,.29,1A1.48,1.48,0,0,1,26.08,15.32Z"/><path class="cls-11" d="M21.51,16.3V8.86h-.09v7.4a1.41,1.41,0,0,0-1.2,1.31h.07A1.41,1.41,0,0,1,21.51,16.3Z"/><path class="cls-11" d="M21.19,7.63a.1.1,0,0,0,0,0c0,.13.11.27.36.34h2A6.61,6.61,0,0,1,24.72,8a3.44,3.44,0,0,1,1.15.43,2.73,2.73,0,0,1,.57.47,2.4,2.4,0,0,0-.59-.56,2.61,2.61,0,0,0-1-.41,6.77,6.77,0,0,0-1.16-.09H21.61c-.25-.08-.36-.22-.37-.35a.11.11,0,0,1,0,0h-1a1.27,1.27,0,0,0,.25.73,1.17,1.17,0,0,1-.16-.65Z"/><path class="cls-11" d="M25.61,11a1.19,1.19,0,0,1-.49.48,1.78,1.78,0,0,1-.41.17,1.08,1.08,0,0,0-1.79.08l0,0h-.22v.09h.28v0a1.06,1.06,0,0,1,1.75-.07,2.09,2.09,0,0,0,.44-.18,1.16,1.16,0,0,0,.48-.47,1.31,1.31,0,0,0,.19-.67,1.23,1.23,0,0,0,0-.27,1.25,1.25,0,0,1,0,.14A1.34,1.34,0,0,1,25.61,11Z"/><path class="cls-11" d="M27.09,13.21,27,13.08a2.44,2.44,0,0,0-.91-.82l0,.06A2.6,2.6,0,0,1,27.09,13.21Z"/><path class="cls-11" d="M26.06,15.32a1.54,1.54,0,0,1-.6.57,2.31,2.31,0,0,1-.67.21,4.63,4.63,0,0,1-.79.06h-1.3v.12h1.41a4.52,4.52,0,0,0,.77-.06,2.25,2.25,0,0,0,.65-.21,1.5,1.5,0,0,0,.58-.56,1.44,1.44,0,0,0,.23-.76,1.66,1.66,0,0,0-.12-.64,1.76,1.76,0,0,1,.06.48A1.48,1.48,0,0,1,26.06,15.32Z"/></g></g></g></svg>