<svg xmlns="http://www.w3.org/2000/svg" viewBox="0 0 17.25 17.25"><defs><style>.cls-1{fill:#fff;}</style></defs><title>cell</title><g id="Layer_2" data-name="Layer 2"><g id="Layer_1-2" data-name="Layer 1"><circle class="cls-1" cx="4.47" cy="14.4" transform="translate(-8.55 6.79) rotate(-42.45)"/><circle class="cls-1" cx="7.94" cy="2.51" r="0.01" transform="translate(-0.3 3.68) rotate(-25.63)"/><path class="cls-1" d="M8.62,0A8.57,8.57,0,0,0,4.3,1.17H4.25l-.08,0h0A8.61,8.61,0,1,0,8.62,0ZM5.86.93,5.72,1H5.67a.24.24,0,0,1-.1,0l0-.06V1h0L5.8.94ZM5.41,16.16l-.1,0L5.07,16a7.73,7.73,0,0,1-.88-.49L4,15.4H4l-.05,0L3.49,15l-.05,0-.06,0,0,0-.42-.38,0,0h0l-.11-.11-.31-.33,0-.06-.05-.06L2,13.49H2l-.13-.18-.08-.13L1.73,13l-.09-.13,0-.06,0,0-.26-.46c-.07-.16-.18-.36-.25-.53l0-.07a5.52,5.52,0,0,1-.23-.63c-.05-.16-.1-.35-.15-.54S.55,10,.51,9.8s0-.41-.05-.63,0-.44,0-.63,0-.31,0-.48,0-.22,0-.3.05-.42.08-.6a5.5,5.5,0,0,1,.15-.66l0-.06C.8,6.16.87,6,.91,5.86h0c.06-.17.14-.38.22-.54l0-.07,0-.08c.08-.16.16-.34.26-.52l.15-.26a5.32,5.32,0,0,1-.29.81h0A5.34,5.34,0,0,0,1.2,6h0c.29-.35,0-.89.37-1.2C1.3,7.29,1.3,7.29,1.75,7.5h.16a.25.25,0,0,1,.1.14c.12.28.21.4.4.48h0l0,0c.32.79.32.79.7,1.09l.07,0a.54.54,0,0,1,0-.11.32.32,0,0,1,.12,0c.55.62-.35,1.14-.24,1.75-.12.15-.13.17,0,.42A4.19,4.19,0,0,0,4.36,13c.14.1.21.16.24.29l.33,1.64c.14.71.15.72.17.74v-.1a.4.4,0,0,1,.09.14l-.08,0v0l0,.06v.08h0l.08,0V16a1.22,1.22,0,0,0,.2.18h0ZM7,16.66H7Zm7.16-2,0,0h0c-.13.12-.24.21-.44.38h0c-.25.19-.4.3-.57.41l-.2.13-.3.17-.06,0-.13.07-.4.2-.06,0-.1,0-.15.06-.27.11-.36.13-.09,0-.21.06h0l-.25.07-.08,0h-.27l-.09,0-.16,0H9.81l-.26,0H8.09l-.27,0H7.75l-.2,0h0l-.16,0H7.33l-.16,0H7l-.09,0h0l-.44-.11h0c-.18-.06-.42-.14-.45-.28l.1-.14,0,0c-.17-.09-.17-.09-.19-.12.15-.11.15-.11.2-.19l0-.06a.44.44,0,0,1-.13-.11h0l.1,0,.08,0,.08,0a.24.24,0,0,1,0-.14H6.3c.18,0,.36,0,.36-.21s-.1-.14-.1-.15l.17.05h0c.77,0,.7-1.12,1.45-1.2h.07c.46-.09.54-.88.57-1.22,0,0,.6-.86.6-.87,0-.33-.83-.61-.84-.61a3.46,3.46,0,0,0-.38-.07.49.49,0,0,1-.18,0c-.23-.28-.72-.24-.86-.65l0-.13A.56.56,0,0,0,7,10.12l-.05,0a.76.76,0,0,0-.14-.1l-.07,0h0a.73.73,0,0,0-.28-.09H6.35a.41.41,0,0,1-.24-.19C6,9.5,6,9.45,5.81,9.4h0A.63.63,0,0,0,5.32,9l0,.08c-.2,0-.2,0-.7-.35-.16.12-.16.12-.24.11v0l.08-.11c-.27-.08-.27-.08-.75.38-.11-.05-.19-.16-.31-.2l-.15,0H3.1c-.41-.22,0-.67-.12-1a.59.59,0,0,0-.31-.23l-.08,0h0l-.07,0,0-.08c.08-.2.27-.34.3-.57V6.94l-.05-.06c-.28,0-.42.28-.68.29H2a1.14,1.14,0,0,1,.48-1.51l.09,0H2.7l.2.16H3v0h0a.54.54,0,0,1,.19,0s0,0,.16.14h.1c.16.22,0,.48.1.71H3.7c.15-.27,0-.6.18-.86s.56-.23.8-.43c0-.16,0-.16,0-.2a7.51,7.51,0,0,0,.6-.49l.18,0,0-.08s0-.07,0-.1a1.4,1.4,0,0,1,.6-.25v0L6,4.3v.08l0,0a1.45,1.45,0,0,0,.65-.27l0-.09c-.07,0-.12.09-.19.12l0,0,0-.08H6.39L6.28,4l.05-.08H6.25c.11,0,.14,0,.17-.11l-.06-.06a1.79,1.79,0,0,0-.45.12l0,0,.21-.12a.37.37,0,0,1,.25-.07l.06,0a.31.31,0,0,0,.11.13h0l.07,0V3.67c.24,0,.64-.14.67-.37l-.06-.06h0V3.14C7,3.06,7,3.06,6.93,2.54h0l-.06,0,0,0h0a.4.4,0,0,1-.23.11.63.63,0,0,1,0-.18l.07-.06,0,0-.13-.14c-.05-.05-.06-.06-.07-.06H6.19L6,2.32,6,2.4l-.13.12c0,.13,0,.13-.39.4-.13.29-.13.29-.24.34h0l0,0V3.1l0,0,0-.07.08-.15A3.75,3.75,0,0,0,5,2.46H4.94c0-.09,0-.09.14-.29A8.68,8.68,0,0,1,6,1.78l-.2.15,0,.07H6l.05,0h0l.08,0h0a.24.24,0,0,1,0-.21l0,0,0,0a.41.41,0,0,0,.28-.16s.06,0,.07,0l0-.06.06,0,.11,0h0a.72.72,0,0,1-.07.14l-.1.05v.06l.08,0,.06,0h.09l0,.06-.16.1,0,0h-.1L6.34,2h0l0,.06h.17c0,.06,0,.14.1.2h.05c.05,0,.09.1.16.11h0V2.24h0L7,2.29H7l0-.06.07-.05v0A.35.35,0,0,0,7,2l0-.07h0l0,.09.1,0,.16-.11V1.87L7.2,1.68l0,0,0-.07L7.2,1.42H7.15a.32.32,0,0,1,0-.17l0,0L7,1.2H7c-.23,0-.44-.09-.61.19l0,.08-.07.06-.19.06v0a.29.29,0,0,0,.09-.11h0l-.09,0h0l.08,0h0c.1-.16.1-.16.18-.22s.21,0,.31-.09l0,0c-.13,0-.22.09-.34.13l-.14.05-.14.09H5.95l-.06.07-.08,0h0l-.07,0h0V1.3h.06A.26.26,0,0,0,6,1.23c0-.1,0-.1.23-.2l.12,0,0,0H6.1L6.2,1V.88s.06,0,.07-.06h0l0,0h0l.14,0h.09l-.12,0h0a1.58,1.58,0,0,0,.27,0h0l.11,0h0l.08,0h.15l.24,0,.21,0h0l.15,0H9.31l.17,0h.2l.22,0h0l.15,0,.08,0h0l.24,0h0a8.33,8.33,0,0,1,.9.25l.41.16h0v0l0,0h0l.12,0h0L12,1.2l0,0h0a1.37,1.37,0,0,0-.55-.08l-.11,0h0v0h-.08l0,0h0a.65.65,0,0,0,0,.11h0l0,0a1,1,0,0,0,0,.18h.07l0,0,0,.06c0,.09.11.17.16.26V1.9l0,0a.66.66,0,0,0,0,.2s.21.42.43.33H12a.32.32,0,0,0,0-.13h0a.73.73,0,0,1,.33.18l0,0v0h0l-.08,0-.05,0,0,0,0-.06h0v0h0c-.06.23.2.26.27.41-.15.08-.19.1-.19.51l0,.07a.14.14,0,0,1-.15,0h0l.1.1,0,0h0c-.12,0-.13,0-.16,0l-.06,0a0,0,0,0,0,0,0c.1.13.32.18.45.29a.6.6,0,0,1,.1.18h0a.34.34,0,0,1,0,.1l-.05,0h-.14l-.32,0a.25.25,0,0,0-.1.09h0c.14.24.11.56.33.76h0l.07,0a.44.44,0,0,1,.22.06l.06,0,.17-.06h0c.14,0,.15-.07.18-.14V5a1,1,0,0,0,0-.75h0v0l0,0,.14,0h0l0,0c0-.08,0-.09,0-.12h.21c.14.06.65.39.78.47s0,.09-.11.16v.05l.27.09,0-.16c0-.12,0-.23,0-.23l0-.06V4.22h.11l0,0h0a1.76,1.76,0,0,0-.57-.26h-.06c-.07,0-.08,0-.12-.15v0h.12a1.45,1.45,0,0,0,.39.15l0-.08a.21.21,0,0,1,.08,0c.06.15.06.15.36.44a.49.49,0,0,0,.32.22.81.81,0,0,0-.28-.42l0,0h.05V4h0V4c.07,0,.11,0,.25.19l0,0,.08.06a.35.35,0,0,0,.08.09h0l.06,0h0v0h0l.06,0v0h0v0a.38.38,0,0,1,0,0h.12v0c0-.08,0-.08,0-.12a2.15,2.15,0,0,1,.29.5l.06.14v0s-.05.06-.08.06h0a.27.27,0,0,0,0,.12l-.05,0c-.16,0-.31-.08-.47,0h0c0,.05,0,.05.05.32l0,0h-.09c-.18,0-.32-.18-.52-.14h0a.34.34,0,0,1-.25-.09v0c0-.1,0-.12-.11-.27v0h0l0,0h-.17a2.14,2.14,0,0,1-.22.12h0l-.14,0h0L13.21,5l-.73.4c-.19.24-.08.54-.15.8h0a.29.29,0,0,1,0,.07h0l0,.06-.09.07-.07.09a.42.42,0,0,0-.08.1s-.4.81-.2,1.08,0,.56,0,.84c.05.09.05.09.09.32L12,9l.07,0c.6,1,1,.94,1.07.94l.11,0c.25-.13.25-.13.31-.14l.16,0h.09l.11-.07.23-.19a.62.62,0,0,1,.26-.15c.14,0,.16,0,.21.12s.08.11.16.1l.08,0,.07,0H15v0l0,.07h.08c.12.25-.11.48,0,.72.33,1.14.33,1.14.32,1.28l-.47,1.76c-.07.21-.26.82-.3.94l-.3.3Z"/><path class="cls-1" d="M8.87,16.61H8.74l.07,0h.08l0,0Z"/><path class="cls-1" d="M6.84.79h0l0,0h0Z"/><path class="cls-1" d="M10.26.79h0L10,.75s0,0,0,0l0,0,0,0H9.87s0,0,0,0H9.81l0,.06,0,0H9.8l.07,0,.06,0H10l.06,0h0l.08,0h0l-.07,0h0l.09,0h.1S10.3.8,10.26.79Z"/><path class="cls-1" d="M13.1,4.65h0s0,0,0-.07h0l0,.06h0Z"/><path class="cls-1" d="M11.12,2.63h0l0,0a0,0,0,0,0,0,0l0,.08,0-.05h0Z"/><path class="cls-1" d="M11.92,6.43s0,0,0-.09v0l0,.17,0,0Z"/><path class="cls-1" d="M9.68,6.38h0Z"/><path class="cls-1" d="M10,6.37h0Z"/><path class="cls-1" d="M9.47,1.51h0V1.46l0-.21v0H9.4v0h0v0l0,0-.05,0,0,0h0l.06,0v0h0l0,0L9.22.95h0c0-.07,0-.09,0-.14h0l0,0H9l0,0v0H9l0,0h0l0,0H8.85l-.07,0H8.71l-.14,0L8.4.73H8.26L8.1.78h0l0,0h0l.08,0h0l0,0h0l-.05,0H8v0h-.4L7.53.7h0v0L7.27.74s-.09.06-.1.1l0,0h0l0,0H7.1l.05,0h0l-.06,0L7,.94l0,0H7l.07,0C7.15.8,7.15.8,7.15.78h0s0,0-.08,0L7,.86H7l0,0h0L6.84.95H6.75C6.68,1,6.67,1,6.67,1h0a.13.13,0,0,0,.09,0L6.87.95h0l0,0c-.1.05-.1.05-.1.08l.25.1s.2,0,.17-.11H7L7,1h.09l0,0h.14s0,0,0,0h.05C7.86.82,7.86.82,8,.82h0l0,0h0L7.63,1V1h0s0,0,0,.09,0,0,0,0l.13,0h0c.19,0,.19,0,.19.14s0,.17,0,.25h0l0,0h0l0,.06c0,.05,0,.05,0,.06s0,0,0,0l.12,0H8v0H8s0,0-.06.05A.26.26,0,0,0,7.84,2c0,.1.15.52.26.54h0c.09,0,.13.11.23.12s0,0,.08-.07v0l0-.06h0l.15-.37c.08,0,.18,0,.25-.1l.23-.19h0c.17,0,.44-.18.36-.28Z"/><path class="cls-1" d="M12,3.39a.29.29,0,0,0,.13-.08h0a.14.14,0,0,0,0,0l0,0v0l0-.06v0h0s0,0-.1-.05h0s0,0-.22-.12l-.26-.16h0v0a.46.46,0,0,0,0-.08h-.14v0h0V2.52h0v0h0s0,0,0,0,0,.06-.06.06h0a0,0,0,0,0,0,0h0l0,0h0l0,0a.89.89,0,0,0,.1.14l0,0a.24.24,0,0,0,.07,0h-.12l0,0s0,0,0,.1l-.09,0,.07.09.05.06v.1c.06.05.09.06.11.06l0,0h0l.11-.08,0,0h0a.19.19,0,0,0,0-.07L11.43,3V3h0s0,0,0,0h0l0,0,0,0h.05a.14.14,0,0,1,.11,0l0,.05s0,0,0,0h0a.06.06,0,0,0,0,0h0v0h0v0h0l0,0h0l0,.07h0l.15.06v0h0v0h0l0,0h.06A.84.84,0,0,0,12,3.39Z"/><path class="cls-1" d="M10.06,1.91l-.08,0h0L9.89,2H9.78V2A.24.24,0,0,0,9.67,2h0a.12.12,0,0,0,0,.09l.08,0,0,0,.11,0,0,0a.63.63,0,0,0,.23,0h0c.08,0,.23-.06.22-.2h0Z"/><path class="cls-1" d="M6.67.84h0s0,0,0,0l0,0H6.53L6.62.75l.06,0h0A1.17,1.17,0,0,0,6.4.78s0,0,0,0h0l-.06,0,0,0h.05l.1,0h0l.1,0,.09,0Z"/><path class="cls-1" d="M7.3,3.75a.11.11,0,0,1-.1-.09l.07-.12A.34.34,0,0,0,7,3.71c-.07.1-.1.11-.15.12l0,.12.1,0,.14,0h0s0,0,.06.07l.1,0a.16.16,0,0,0,.1.07h0a.12.12,0,0,0,0-.07s0,0-.07-.3Z"/><path class="cls-1" d="M4.21,7.43,3.82,7s0,0-.13-.07l-.21-.14-.08,0h0c-.14,0-.22.08-.29.18l.26,0a.36.36,0,0,0,.24.16l.09,0s0,0,.14.29l.14,0a.34.34,0,0,0,.24,0Z"/><path class="cls-1" d="M6.57,1h0A.31.31,0,0,0,6.4,1l0,0s0,0-.07,0l-.09.09s0,0,0,0,.07,0,.18,0S6.59,1,6.57,1h0Z"/><path class="cls-1" d="M6.78.93l.08,0s0,0,0,0-.06,0-.1,0,0,0,0,0h0c-.06,0-.1,0-.08.06h0s0,0,0,0,0,0,0,0h.06Z"/><path class="cls-1" d="M4.64,7.55h0l-.3,0c0,.11,0,.11-.21.15.09.12.26.11.36.21l0,0a.26.26,0,0,1,.21-.06h0a.4.4,0,0,1,.13,0,.12.12,0,0,0,0-.05A.27.27,0,0,0,4.64,7.55Z"/><path class="cls-1" d="M7,.76l0,0H7l.1-.05,0,0,0,0s0,0,0,0H7L7,.75Z"/><path class="cls-1" d="M13.35,4.16v0h0v0h0v0h0l0,.06v.09l0,0v0l.1.15h0a.07.07,0,0,0,0,0h0v0h0v0h0v0h0v0h0l0,0h0l-.08-.09h0a1.27,1.27,0,0,0-.06-.13h-.06v0h0v0h0v0h0v0Z"/><path class="cls-1" d="M6.76.74h0L7,.7H6.78l0,0h0Z"/><path class="cls-1" d="M5.85,2.08s0,0,0,0h0s.06,0,.12-.06H6L6,2S5.92,2,5.85,2.08Z"/><path class="cls-1" d="M15,4.6h0a.16.16,0,0,0-.1,0,.07.07,0,0,0,0,0s.08,0,.12,0S15,4.63,15,4.6Z"/><path class="cls-1" d="M6.76,1.53v0l-.12.07,0,.06.15-.1Z"/><path class="cls-1" d="M5.55,2.77h0s0,0,.08,0h0l0,0S5.59,2.72,5.55,2.77Z"/><path class="cls-1" d="M3.94,6.82H4c0-.09,0-.14,0-.2C3.87,6.73,3.86,6.76,3.94,6.82Z"/><path class="cls-1" d="M4.07,6.52h0c0-.07,0-.13,0-.14s-.07,0-.13.06H4Z"/><path class="cls-1" d="M6,2.17H6s0,0,0,0H6l.08,0h0a.41.41,0,0,0,0,0h0S6,2.15,6,2.17Z"/><path class="cls-1" d="M6.85,16.41h0l.06,0H7l-.11,0Z"/><path class="cls-1" d="M7.26.72l0,0h0l0,0h0Z"/><path class="cls-1" d="M10,.63h0l0,0h0Z"/><path class="cls-1" d="M11.54,6.53h.07s0,0,.05-.08h0C11.6,6.45,11.56,6.46,11.54,6.53Z"/><path class="cls-1" d="M6.72,16.36h0s0,0,0,0h0s0,0,0,0Z"/><path class="cls-1" d="M6.22,2.06s0,0,0,0h0s0,0,0,0Z"/><path class="cls-1" d="M10.18.71Z"/></g></g></svg>