<svg xmlns="http://www.w3.org/2000/svg" viewBox="0 0 14.82 6.51"><defs><style>.cls-1{fill:#AC0000;}</style></defs><title>dot-land-info</title><g id="Layer_2" data-name="Layer 2"><g id="Layer_1-2" data-name="Layer 1"><path class="cls-1" d="M2,3.3H6.48L6.29,6H.63L2,3.3ZM.24,6.51H6.51a.24.24,0,0,0,.24-.22L7,3.08a.24.24,0,0,0-.24-.26H1.86A.24.24,0,0,0,1.65,3L0,6.16a.24.24,0,0,0,.21.35Z"/><path class="cls-1" d="M11.62.48l.66,1.34h-4L8.23.48ZM8.08,2.3h4.58a.24.24,0,0,0,.2-.36L12,.13A.24.24,0,0,0,11.76,0H8a.24.24,0,0,0-.24.25l.1,1.82a.24.24,0,0,0,.24.23Z"/><path class="cls-1" d="M13.21,3A.24.24,0,0,0,13,2.82H8.12a.24.24,0,0,0-.24.25l.18,3.21a.24.24,0,0,0,.24.23h6.27a.24.24,0,0,0,.2-.36L13.21,3Z"/><path class="cls-1" d="M2,2.18a.24.24,0,0,0,.2.11H6.78A.24.24,0,0,0,7,2.07L7.14.26A.24.24,0,0,0,6.9,0H3.12a.24.24,0,0,0-.21.13L2,1.95a.24.24,0,0,0,0,.23Z"/></g></g></svg>