<?xml version="1.0" encoding="utf-8"?>
<!-- Generator: Adobe Illustrator 21.0.0, SVG Export Plug-In . SVG Version: 6.00 Build 0)  -->
<svg version="1.1" id="Layer_1" xmlns="http://www.w3.org/2000/svg" xmlns:xlink="http://www.w3.org/1999/xlink" x="0px" y="0px"
	 viewBox="0 0 33.2 31.2" style="enable-background:new 0 0 33.2 31.2;" xml:space="preserve">
<style type="text/css">
	.st0{fill:#AC0000;stroke:#FFFFFF;stroke-miterlimit:10;}
</style>
<title>chat-icon</title>
<g id="Layer_1-2">
	<path class="st0" d="M31.1,26l-0.4,0.3c3.4-4.6,2.3-11.1-2.3-14.5s-11.1-2.3-14.5,2.3s-2.3,11.1,2.3,14.5c3.1,2.3,7.2,2.6,10.6,0.9
		l4.9,1L31.1,26z"/>
	<path class="st0" d="M13.4,0.5c-7.1,0-12.9,5.7-13,12.8c0,2.4,0.7,4.8,2,6.9L2.3,20l-0.4,6.3l5.4-1.6c6.2,3.5,14.1,1.2,17.6-5
		s1.2-14.1-5-17.6C17.8,1,15.6,0.5,13.4,0.5z"/>
</g>
</svg>
