<svg xmlns="http://www.w3.org/2000/svg" xmlns:xlink="http://www.w3.org/1999/xlink" viewBox="0 0 7.74 4.84"><defs><style>.cls-1{fill:none;}.cls-2{fill:#ac0000;}.cls-3{fill:url(#New_Pattern_Swatch_1);}</style><pattern id="New_Pattern_Swatch_1" data-name="New Pattern Swatch 1" width="45" height="45" patternTransform="translate(-111.76 -87.36) scale(0.48 0.46)" patternUnits="userSpaceOnUse" viewBox="0 0 45 45"><rect class="cls-1" width="45" height="45"/><rect class="cls-2" width="45" height="45"/></pattern></defs><title>Asset 8ldpi</title><g id="Layer_2" data-name="Layer 2"><g id="Layer_1-2" data-name="Layer 1"><path class="cls-3" d="M3.9,1.82H4l.09,0,.08-.08h0a.22.22,0,0,0,0-.1.18.18,0,0,0,0-.13.16.16,0,0,0-.1-.08H4a.23.23,0,0,1-.17.08h0a.21.21,0,0,1-.16-.08v.43Z"/><path class="cls-3" d="M3.87,1A.18.18,0,0,1,4,1.1l0,0A.13.13,0,0,0,4.12,1a.15.15,0,0,0,0-.09.15.15,0,0,0,0-.09s0,0,0-.06L4,.75H3.71v.37A.21.21,0,0,1,3.87,1Z"/><path class="cls-3" d="M4.12,3,7.62.1A.37.37,0,0,0,7.37,0h-7A.35.35,0,0,0,.12.1L3.61,3A.44.44,0,0,0,4.12,3Zm-.63-.9a0,0,0,0,1,0,0H3.29a0,0,0,0,1,0,0s0,0,0,0a.26.26,0,0,1,.19-.24V.72A.26.26,0,0,1,3.26.48a0,0,0,0,1,0,0h.16s0,0,0,0,0,0,0,0h.33L4,.51a.36.36,0,0,1,.17.07.4.4,0,0,1,.14.15A.38.38,0,0,1,4.4.94a.32.32,0,0,1-.05.19.47.47,0,0,1-.06.09.34.34,0,0,1,.12.12.43.43,0,0,1,.07.25.54.54,0,0,1-.05.22A.5.5,0,0,1,4.28,2a.57.57,0,0,1-.22.07H3.52Z"/><path class="cls-3" d="M4.14,3.44a.44.44,0,0,1-.55,0L0,.48v4a.36.36,0,0,0,.36.36h7a.37.37,0,0,0,.37-.36v-4ZM2.23,2.91.54,4.53a.21.21,0,0,1-.11,0,.16.16,0,0,1-.11-.05.15.15,0,0,1,0-.21L2,2.69a.17.17,0,0,1,.22,0A.15.15,0,0,1,2.23,2.91ZM7.41,4.52a.16.16,0,0,1-.11.05.21.21,0,0,1-.1,0L5.51,2.91a.14.14,0,0,1,0-.21.17.17,0,0,1,.22,0L7.41,4.31A.14.14,0,0,1,7.41,4.52Z"/></g></g></svg>