<svg xmlns="http://www.w3.org/2000/svg" viewBox="0 0 33.25 33.25"><defs><style>.cls-1{stroke:#000;}.cls-1,.cls-2{stroke-miterlimit:10;stroke-width:0.01px;}.cls-2{fill:#fff;stroke:#fff;}</style></defs><title>light-particle</title><g id="Layer_2" data-name="Layer 2"><g id="Layer_1-2" data-name="Layer 1"><polygon class="cls-1" points="18.47 11.09 22.17 11.09 22.17 7.39 22.17 3.7 18.47 3.7 18.47 7.39 18.47 11.09"/><polygon class="cls-1" points="14.78 22.17 11.09 22.17 11.09 25.86 11.09 29.56 14.78 29.56 14.78 25.86 14.78 22.17"/><polygon class="cls-1" points="14.78 7.39 14.78 3.7 11.09 3.7 11.09 7.39 11.09 11.09 14.78 11.09 14.78 7.39"/><rect class="cls-1" x="14.78" width="3.69" height="3.69"/><polygon class="cls-1" points="7.39 18.47 3.7 18.47 3.7 22.17 7.39 22.17 11.09 22.17 11.09 18.47 7.39 18.47"/><rect class="cls-1" y="14.78" width="3.69" height="3.69"/><polygon class="cls-1" points="11.09 14.78 11.09 11.09 7.39 11.09 3.7 11.09 3.7 14.78 7.39 14.78 11.09 14.78"/><polygon class="cls-1" points="22.17 18.47 22.17 22.17 25.86 22.17 29.56 22.17 29.56 18.47 25.86 18.47 22.17 18.47"/><rect class="cls-1" x="29.56" y="14.78" width="3.69" height="3.69"/><polygon class="cls-1" points="25.86 14.78 29.56 14.78 29.56 11.09 25.86 11.09 22.17 11.09 22.17 14.78 25.86 14.78"/><polygon class="cls-1" points="18.47 25.86 18.47 29.56 22.17 29.56 22.17 25.86 22.17 22.17 18.47 22.17 18.47 25.86"/><rect class="cls-1" x="14.78" y="29.56" width="3.69" height="3.69"/><polygon class="cls-2" points="25.86 14.78 22.17 14.78 22.17 11.09 18.47 11.09 18.47 7.39 18.47 3.7 14.78 3.7 14.78 7.39 14.78 11.09 11.09 11.09 11.09 14.78 7.39 14.78 3.7 14.78 3.7 18.47 7.39 18.47 11.09 18.47 11.09 22.17 14.78 22.17 14.78 25.86 14.78 29.56 18.47 29.56 18.47 25.86 18.47 22.17 22.17 22.17 22.17 18.47 25.86 18.47 29.56 18.47 29.56 14.78 25.86 14.78"/></g></g></svg>