<svg xmlns="http://www.w3.org/2000/svg" viewBox="0 0 30 30"><defs><style>.cls-1{fill:#a30814;}.cls-2{fill:#fff;}.cls-3{fill:#AC0000;}</style></defs><title>Asset 1ldpi</title><g id="Layer_2" data-name="Layer 2"><g id="Layer_1-2" data-name="Layer 1"><circle class="cls-1" cx="15" cy="15" r="15"/><path class="cls-2" d="M29.25,15.14q0-.36,0-.78A13.12,13.12,0,0,1,29,16.91a2.45,2.45,0,0,0,0,.27h0v0c-.06.42-.09.68-.12.88h0s0,.08,0,.11c0,.23-.09.4-.17.7h0l0,.13h0a13.57,13.57,0,0,1-.79,1.93,1,1,0,0,1,0,.1v0a7.91,7.91,0,0,1-2.57,3.24h-.07s.38-1.22.52-1.62l.78-2.93c0-.23,0-.23-.52-2.13-.11-.41.27-.78.07-1.2h-.13l0-.12v0l-.13,0-.11.06-.12.06c-.15,0-.16,0-.28-.17s-.12-.22-.35-.2a1,1,0,0,0-.44.24c-.13.12-.18.16-.38.32a1.18,1.18,0,0,1-.19.11l-.15,0a1.09,1.09,0,0,0-.26,0c-.1,0-.1,0-.52.24a1.07,1.07,0,0,1-.19.07S22,17.11,21,15.5l-.12.06-.15-.24c-.06-.39-.06-.39-.15-.53-.07-.46.12-.94,0-1.4-.33-.45.33-1.79.34-1.8a.7.7,0,0,1,.13-.17.63.63,0,0,1,.12-.14.69.69,0,0,0,.23-.21h0a.36.36,0,0,0,0-.11h0c.13-.44-.07-.94.25-1.34,0,0,.75-.42,1.22-.66a.67.67,0,0,1,.19-.1h.06l.24,0h0a3.24,3.24,0,0,0,.37-.19l0,0H24l0,0,0,0,0,0v0c.17.25.17.28.18.45v0a.59.59,0,0,0,.42.15h0c.33-.07.57.19.87.24h.14l0-.08c-.12-.44-.12-.44-.09-.52h0c.27-.11.52,0,.78,0L26.57,9c0-.14,0-.14,0-.2h.06a.33.33,0,0,0,.14-.1v0a2.59,2.59,0,0,1-.1-.24,3.83,3.83,0,0,0-.49-.84.37.37,0,0,0,0,.21v0H26v.07a.17.17,0,0,0,0,.07h0v0l-.1,0,0,0V8h0l0,0-.1-.07h0a.64.64,0,0,1-.13-.15l-.14-.1,0-.07c-.23-.31-.3-.32-.42-.32a.14.14,0,0,0,0,.06l0,0h0v.08h-.09l.05.07a1.35,1.35,0,0,1,.46.7.85.85,0,0,1-.53-.36c-.5-.48-.5-.48-.59-.73A.33.33,0,0,0,24.15,7l-.06.13a2.67,2.67,0,0,1-.66-.26.46.46,0,0,0-.2,0s0,0,0,.06c.07.18.08.19.2.25h.1a3,3,0,0,1,.95.43h0l.08.05h-.18a.51.51,0,0,0,0,.09.76.76,0,0,0,.08.11s0,.17,0,.37.08.28.08.28l-.45-.15V8.29c.1-.11.18-.19.18-.26-.21-.14-1-.68-1.29-.78h0l0,0h0a.34.34,0,0,1-.14,0h-.15c0,.05,0,.06.06.2l-.06,0h0a1,1,0,0,0-.24,0l0,0v0h0a1.6,1.6,0,0,1-.06,1.25V9c-.06.12-.07.16-.31.23h0a1,1,0,0,1-.28.1l-.1,0a1,1,0,0,0-.37-.1l-.12,0h0c-.37-.35-.32-.87-.55-1.28h0a.44.44,0,0,1,.17-.16l.53,0,.23,0,.09,0a.51.51,0,0,0,0-.17h0a1.21,1.21,0,0,0-.17-.31c-.22-.17-.58-.26-.75-.48v0l.1-.06c.07,0,.08,0,.27,0h0l0-.08a1.2,1.2,0,0,0-.17-.17h0a.27.27,0,0,0,.25-.06l0-.12c0-.68.07-.71.33-.85-.13-.25-.57-.32-.46-.7h0v0h0l.08.1.05,0,.08.07.13.07h0l0-.08s0,0,0-.06a1.14,1.14,0,0,0-.55-.31l0,0a.48.48,0,0,1-.07.21.37.37,0,0,1-.13,0c-.36.16-.7-.54-.71-.55a1.22,1.22,0,0,1,0-.33l0,0s0,0,0,0a.43.43,0,0,0,0,0c-.07-.16-.18-.29-.26-.44a.3.3,0,0,1,0-.1l-.08,0h-.12c0-.1-.05-.2-.08-.3s0,0,0-.06v0h0c0-.07,0-.13,0-.19h0l.06,0h.14v0h0l.18,0a2.21,2.21,0,0,1,.92.13h0l.08,0-.18-.1h0l-.2-.08-.06,0h0l0,0,0,0h0l.14,0,.1.05,0,0,.11,0h0c-.12-.1-.47-.34-.47-.34h.08a1.25,1.25,0,0,0-.2-.17l.07,0A1.39,1.39,0,0,0,20,1.93h-.13l0,0,0,0a.42.42,0,0,1,.12,0h0l-.12,0h-.06l-.15-.05-.14,0-.58-.19,0,0h.15l.54.14h0l.23.06.46.18.05,0h0l-.33-.14-.76-.21h0l-.42-.11H19l.18,0h0l-.07,0-.21-.06h0s0,0,0,0h-.12l-.12,0-.13,0A11.07,11.07,0,0,0,17.3,1h.09A3.48,3.48,0,0,0,17,1h-.32l0,0h.06l-.14,0h0a.48.48,0,0,1,.12,0H16.7l-.16,0h-.06l-.29,0h0l-.24,0H14.37l-.23,0h-.38l-.24,0h-.09l-.27,0H13.1l-.37.05L12.3,1h-.09l-.12,0H12l.08,0-.15,0-.06,0-.52.13-.08,0,.33-.09.11,0-.21.05L11,1.33l-.3.08h0l0,0-.34.12h0l-.09,0-.06,0,.06,0,.49-.16.16,0,0,0h0v0h0l-.08,0a3.13,3.13,0,0,0-.62.37h0a1.73,1.73,0,0,1-.28.2l.14,0,.1.1h.09l-.12.09v0h.08l0,.07,0,.1a.58.58,0,0,0,.17-.06l.08,0,.23-.19-.14,0L10.65,2A1.27,1.27,0,0,1,11,2l.09,0h.26l0,.08h0a.27.27,0,0,1-.12.09v.15a.7.7,0,0,1-.17.13h0l.05,0,0,0,.05,0,0,0h0l0,0h0l.07,0h.14l0,.06-.19.08c-.32.15-.32.15-.39.32a.43.43,0,0,1-.39.12l-.07,0,0,0v.13h0l.11,0h0l.14,0,.1-.12H11l0,0,.23-.16.23-.09c.19-.06.34-.22.56-.21l.09.07c-.17.07-.35.08-.52.15s-.13.1-.29.36h0l-.13.08v0l.15,0h0a.4.4,0,0,1-.15.19l0,0a2.81,2.81,0,0,0,.31-.1l.12-.1-.05-.14c.3-.46.65-.39,1-.31h0l.11,0,.05.06a.5.5,0,0,0,0,.27h.06l0,0c.12.23.12.23.14.25l-.06.12-.09,0,.31.32v.1A1.2,1.2,0,0,1,12.9,4l-.16,0-.06-.14h-.07l0,.11a.58.58,0,0,1,.12.25v0l-.12.09,0,.1h0l-.11-.09h-.06V4.5l-.06,0c-.11,0-.17-.13-.26-.19H12c-.09-.09-.09-.23-.17-.32H11.5l-.07-.11h0a1.52,1.52,0,0,1,.28-.09h.17l.07,0a1.45,1.45,0,0,1,.26-.17l.08-.1h-.15l-.1,0-.14,0v-.1l.16-.09a1.08,1.08,0,0,0,.12-.24l-.06,0-.18,0-.1-.06,0,.1s-.08.06-.12.08a.66.66,0,0,1-.46.26l-.08.06-.05,0a.38.38,0,0,0,0,.36h0L11,4l0,0-.08,0a.78.78,0,0,0-.22,0h-.05l-.07-.12c.11-.09.23-.16.33-.25a14.64,14.64,0,0,0-1.54.63,3.72,3.72,0,0,0-.24.49h.1a5.79,5.79,0,0,1,.51.66l-.13.24a.45.45,0,0,1,.06.12l-.07,0V6L9.52,6H9.6c.19-.08.19-.08.4-.56.68-.44.68-.44.64-.67a2,2,0,0,1,.22-.19l.05-.14.27-.3h.32s0,0,.12.1l.22.24,0,.07-.11.1a1.11,1.11,0,0,0,.08.3.65.65,0,0,0,.38-.19h0l0,0,.1,0h0c.19.86.19.86.49,1l0,.16,0,0h0l.1.1c0,.38-.71.54-1.11.61v.11l-.12,0h0a.43.43,0,0,1-.19-.21l-.1-.08a.59.59,0,0,0-.42.13l-.35.2-.05,0a2.42,2.42,0,0,1,.76-.21l.1.09c0,.11-.1.15-.28.19h.15l-.09.13a1,1,0,0,0,.19.16h.19l-.08.13,0,0c.11,0,.2-.15.32-.2s0,.11,0,.15A2.25,2.25,0,0,1,11,8l0,0,0-.14L11,7.63v0A2.37,2.37,0,0,0,10,8c0,.05,0,.12.05.17l0,.13-.3-.07c-.3.31-.68.52-1,.81,0,.07,0,.07-.07.34-.4.33-1,.28-1.34.72s0,1-.3,1.43H6.88c-.17-.37.1-.81-.16-1.18H6.55c-.2-.2-.2-.2-.28-.24a1,1,0,0,0-.32,0h0l0,0v.12h0s0,0-.11,0l-.05,0c-.12-.09-.21-.19-.33-.28H5.22l-.15.06a1.91,1.91,0,0,0-.8,2.52h.07c.44,0,.67-.52,1.13-.48l.09.1v.15c0,.38-.36.62-.5.94L5,13.43l.12.07h.07l.13-.06a1,1,0,0,1,.51.38c.24.53-.5,1.28.19,1.64a.43.43,0,0,0,.16,0,1,1,0,0,1,.25,0c.2.07.33.25.52.34.8-.77.8-.77,1.25-.64a1.18,1.18,0,0,1-.13.18v0c.14,0,.14,0,.4-.18.82.54.82.54,1.16.59l.08-.14a1.08,1.08,0,0,1,.81.69h0c.27.07.33.16.49.41a.69.69,0,0,0,.41.32h.23a1.25,1.25,0,0,1,.47.16h0a1.37,1.37,0,0,1,.35.25l.09.07a.9.9,0,0,1,.23.43c0,.08,0,.15.07.22.23.68,1,.61,1.43,1.09a.72.72,0,0,0,.3.05,4.66,4.66,0,0,1,.63.12s1.38.45,1.39,1c0,0-.95,1.42-1,1.45-.06.56-.18,1.87-1,2h-.1c-1.25.13-1.13,1.91-2.42,2h-.08l-.29-.08s0,0,.16.25c0,.4-.3.37-.59.35h0l-.11,0h0a.36.36,0,0,0-.07.24l-.13,0-.13,0-.16-.05h0a.67.67,0,0,0,.22.19l0,.09c-.09.14-.09.14-.34.32,0,0,0,0,.32.2l0,.08a1.6,1.6,0,0,1-.16.23c.06.22.46.36.75.46h-.23l.08.05h-.05a4.91,4.91,0,0,1-1-.34l-.14-.1c-.07-.09-.18-.1-.26-.18a2.07,2.07,0,0,1-.35-.32v-.14l-.12,0,0,0,0-.13-.07-.1v0l.13,0a.61.61,0,0,0-.15-.23v.16s0-.06-.29-1.24h0C9,24.85,8.77,24,8.52,22.7c0-.21-.17-.31-.39-.48A7,7,0,0,1,6,19.29c-.17-.42-.16-.44,0-.7-.18-1,1.33-1.87.41-2.92a.48.48,0,0,0-.19.09,1,1,0,0,0,0,.18L6.12,16c-.64-.5-.64-.5-1.17-1.81l-.07-.06h0c-.31-.13-.47-.32-.66-.79A.43.43,0,0,0,4,13.11H3.78C3,12.77,3,12.77,3.49,8.63c-.66.53-.13,1.43-.62,2v0A9.07,9.07,0,0,1,3,9.26l0,0a6.81,6.81,0,0,0,.5-1.47c0-.36,0-.36,2.48-3.34l.07,0c.16-.17.32-.33.49-.49l.18-.14.06-.12a4.52,4.52,0,0,1,.5-.43c.29-.22.56-.49.87-.69h0l.14-.09h0l-.09,0-.07,0,0,0a.73.73,0,0,1,.22-.16l-.37.17,0,0,.08,0h0l0,0H8l0,0H8l0,0h0l0,0-.06,0L7.3,3l-.3.2-.5.35-.18.14-.17.13-.62.53-.12.1c-.23.22-.53.5-.75.73l-.09.1-.08.08-.63.74,0,0c0,.07-.1.14-.15.21l-.23.32c-.18.24-.35.49-.49.71h0l-.41.69c-.17.31-.33.62-.46.9,0,0,0,.08,0,.13L2,9.24c-.13.29-.27.65-.38.95h0c-.06.16-.19.52-.32,1l0,.11A9.42,9.42,0,0,0,1,12.47c0,.3-.11.71-.15,1,0,.14,0,.31,0,.52s0,.58,0,.83,0,.71.05,1.09.06.76.09,1.09.16.89.27,1.35.17.66.26.94a11.35,11.35,0,0,0,.4,1.1l.05.12c.12.29.3.65.43.93l.45.8a.59.59,0,0,1,0,.08l.07.11L3,22.7c.05.07.09.14.14.2l.15.22a3,3,0,0,0,.22.32l0,0c.19.26.42.55.62.78l.09.1.08.1.53.57.19.18,0,0,0,0,.73.66,0,0L6,26l.09.08c.22.18.44.35.81.61l.09.06H7l.3.2a14.3,14.3,0,0,0,1.52.85l.43.2.17.07h0l.26.1a13.85,13.85,0,0,0,2.25.71H12l.16,0h.05l.1,0h.11L12.24,29h0l.06,0,.47.1h0l.1,0h0l-.11,0L12.55,29h.06A1.29,1.29,0,0,0,12.4,29h-.05l0,0h.21l.06,0h0l-.05,0h.71v0h-.1a.88.88,0,0,0-.25,0h0l.05,0h-.1a.21.21,0,0,0-.11,0h0l.11,0h.1l0,0,.05,0h0l.19,0h0l.15,0,.12,0h.13l.47,0h1.85l.26,0h.1l.26,0h0l.4-.05h0l.12,0h0l.23,0h.2l.14,0h0l.26-.06h0l.18,0,.08,0,.13,0,.44-.11h0l.05,0,.37-.1.16-.06.63-.22.46-.18.26-.1.18-.09.1,0,.69-.34a1.71,1.71,0,0,0,.23-.13l.11-.06.52-.3.34-.22c.29-.19.55-.38,1-.71h0c.35-.29.54-.45.77-.66h0l.08-.08.13-.12c.23-.21.44-.44.65-.67l.07-.06a2.3,2.3,0,0,1,.2-.22c.16-.19.33-.39.46-.57a.44.44,0,0,0,.08-.11l.08-.09c.19-.26.38-.53.56-.8l0,0,0,0,0,0,0,0v0l0-.05c.16-.27.33-.59.5-.91l.24-.46a4.08,4.08,0,0,0,.2-.39l.05-.11h0c.14-.34.27-.66.38-1l0,.07c-.1.29-.21.55-.3.77.18-.47.3-.77.38-1l0,.09v0l.11-.33,0-.06h0c0-.05,0-.1.05-.16l.1-.37.09-.29c.06-.3.11-.56.16-.79s.05-.3.08-.45a13.18,13.18,0,0,0,.16-1.66C29.23,15.46,29.24,15.31,29.25,15.14ZM25.8,8.4a.24.24,0,0,1-.2,0,.21.21,0,0,1,0-.08.31.31,0,0,1,.17,0v0C25.84,8.35,25.83,8.39,25.8,8.4Zm-2.66-1,0,0h0v0h0v0h0a1.89,1.89,0,0,1,.09.21l0,0h0l.14.15v0l0,0h0V8h0V8h0s0,0,0,.05h0a0,0,0,0,1,0,0h0v0h0s0,.06-.08.08h0L23.32,8l0,0s0,0,0,0a.28.28,0,0,1,0-.09V7.78l-.07-.1h0l0,0h0l0,0h0s0,0,0,0h0a0,0,0,0,1,0,0h0v0h0s0,0,0,0h0Zm-.46.84h0c0,.09,0,.12,0,.12h0l-.06,0A1.17,1.17,0,0,1,22.68,8.25ZM20.19,2.17h.09a.37.37,0,0,1,.13.07h0a0,0,0,0,1,0,0h0l-.1,0H20.2l0,0h0ZM11.92,3.25l.2-.11,0,0h0l-.25.17A.42.42,0,0,1,11.92,3.25Zm-1.62,2c-.06.06-.08.08-.12.07h0l-.07,0c.08-.09.11-.12.15-.12l.05,0Zm.59-1h0A.15.15,0,0,1,11,4.17s0,0,0,0,0,0,0,.07h0l-.13,0h0s0,0,0-.07Zm-.28-.15c.12-.07.16-.08.2-.07l0,0h0c-.1.07-.16.11-.2.1h0S10.61,4.15,10.61,4.09Zm.71,0h0l-.06,0s0,0,0-.06l.06,0S11.32,4.05,11.32,4.08ZM7.4,11.68c.09.09.09.18,0,.33h0C7.3,11.9,7.3,11.84,7.4,11.68Zm0-.3c.11-.08.18-.11.22-.1s.06.12,0,.24v0l-.06-.12ZM17.23,1.32h.18l.14,0h.05l.06,0h0s0,0,0,0h0l-.12,0h.05l-.21,0-.28-.07Zm-.12,0h0Zm.15,0h.11l-.08,0s0,0,0,0Zm.56.53h0l0,0Zm.13.12h0C18,2,18,2,18,2h-.1l-.06,0-.16,0h0l.13.08h0l0,0h0l0,0h0v0h0a.23.23,0,0,1-.11,0l-.14,0h0l-.1,0-.1,0h-.09l-.1,0-.11-.05,0,0h.17l-.07,0a.53.53,0,0,1-.06-.1h.1a.08.08,0,0,1,0,0h.22l0,0,.05,0s0,0,0,.06Zm2.36,9.44c0,.09,0,.12-.09.13H20.1c0-.12.09-.13.21-.16Zm-2.77-7h0a.91.91,0,0,1-.39,0l0-.08-.19,0L17,4.08l-.13,0s0-.12,0-.15H17a.45.45,0,0,1,.18.1,0,0,0,0,1,0,0v0h0s0,0,0,0h.15l.14,0h0l.14,0,.28.17h0C17.92,4.22,17.67,4.31,17.54,4.32Zm-.06-2.67h0c.07,0,.07,0,.07,0h-.09Zm.23-.17h-.2l-.06,0s0,0,0,0h0l0,0h.09l.09,0h.12ZM15.43,28.3h.22l0,0h-.14ZM12,28h0l0,0a0,0,0,0,1,0,0l.05,0h0S12.08,28,12,28Zm.43,0-.1,0h-.07a.28.28,0,0,1,0-.09l.17.07Zm8.26-16.62h0l0,0c0-.09,0-.16.06-.28a.19.19,0,0,1,0,.08C20.77,11.28,20.77,11.31,20.72,11.35ZM19.64,4.49h0l.06.13c-.07,0-.1-.06-.1-.08S19.61,4.51,19.64,4.49Zm-.22.62h0l0,0h0V5a.13.13,0,0,1,0-.05l0,0h0s.07-.06.09-.11v0l0,0h0l0,.07V5h0l.06,0a.12.12,0,0,1,.1,0l0,0a.57.57,0,0,1,.05.14s0,.07,0,.08h0l.43.28c.31.2.32.2.36.2h0a.19.19,0,0,1,.17.09h0a0,0,0,0,1,0,0,.42.42,0,0,1,0,.1.07.07,0,0,0,0,.06s.05,0,.06.06v0h0a.47.47,0,0,1-.21.13,1.21,1.21,0,0,1-.42.14h-.11l0,0v0h0l0,0h0l0,0,0,0-.25-.09,0,0a.49.49,0,0,1,0-.11V6l0,0h0l0,0h0a0,0,0,0,0,0,0h0V5.81h0a.07.07,0,0,0,.07,0l-.09-.08A.2.2,0,0,0,20,5.6h-.09l0,0-.05,0h-.06s.07,0,.09.08h0l0,.05,0,0,.11.24a.38.38,0,0,1,0,.12h0v0l0,0a.7.7,0,0,1-.19.13l0,0-.07,0s-.1,0-.19-.09a.88.88,0,0,1,0-.17l-.09-.11-.12-.15.15,0c0-.1,0-.14,0-.17l.06,0h.2a.26.26,0,0,1-.11-.07l0,0a1.29,1.29,0,0,1-.18-.24.43.43,0,0,1,0-.07l0,.09-.06-.13s0,0,0,0,0,0,.06,0V5Zm-.05-3.33.19.06.28.06h0l.08,0h0a.69.69,0,0,1-.25,0l0,0a1.91,1.91,0,0,1-.35-.14l0,0h-.17l-.2-.07-.05,0-.29-.11h0l-.06,0-.29-.12h.14l.1,0h0Zm-6.7,0h.1s0,0,0,0l0,0s0,0,0,0L12.55,2h-.06s0,0,0,0h-.09l0,0s0,0,0,0l0,0,.14-.06h.06Zm-.51.39L12,2.25h-.1s0,0,0,0,.05-.06,0-.07h0s0,0,.14-.1h.07s0,0,0,0,.1,0,.16,0,0,.06,0,.06Zm-.59-.29s0,0,0,0l.19,0c-.09,0-.14,0-.15,0s0,0,.05,0a1.31,1.31,0,0,1,.27,0h.13l0,0C11.93,1.83,11.58,1.9,11.57,1.89Zm.71-.1h0l0,0h.15v0h0l-.31.07h0l.06,0h.11Zm0,.17h0s0,0,0,0l.09,0h0s0,0,0,0L12.27,2h0ZM13,1.82H12.9l0,0H13Zm3.77-.77Zm2,.33h0Zm-1.66-.24h0ZM16.66.9h0Zm0,.09h.14a.28.28,0,0,1,.13,0h.15a0,0,0,0,1,0,0H16.9l-.23,0h0s0,0,0,0Zm-5.17,1.1s-.06,0-.09,0,0,0,.07-.06l.09,0,0,0s0,0,0-.05A2.12,2.12,0,0,1,12,1.84s0,0,0,0l-.11,0L11.75,2H12s0,0,0,0-.05,0-.05,0H12a1,1,0,0,1-.15.07.53.53,0,0,1-.16,0h0Zm-.27.53s0-.05,0-.07l.14-.15c.05,0,.05,0,.12,0l0,0a.55.55,0,0,1,.29,0h0s-.25.2-.32.23S11.22,2.63,11.19,2.62ZM13,2.39h-.09s0,0,0,0h-.23l0-.06H12.5l0,0h0s0,0,0,0h.27l.09,0h0c0,.15-.25.18-.29.18-.37-.13-.4-.15-.42-.17s0,0,.17-.13l0,0s0,0-.06,0l-.18.12a.26.26,0,0,1-.15,0h0s0-.05.13-.13l.07,0h0a.07.07,0,0,0,.06,0s0,0,.1-.08,0,0,.09,0h0L12.5,2h0l0,0h0a.43.43,0,0,1,.1-.09c.07,0,.07,0,.13,0h0s0,0-.09.12l-.12.05h-.05l0,0s0,0,.13-.07l.1,0h0l-.09.07h.09s0,0,.06,0H13l0,0,0,0h-.14s0,0,0,0A.33.33,0,0,1,13,1.86l.45-.13s0,0,0,.06h0a.28.28,0,0,0,.09-.06.3.3,0,0,1,.14,0h0l.2,0h0v0h.08l.12,0h.11s0,0,0,0h.14a.2.2,0,0,1,.08,0h0l0,0a.12.12,0,0,1,.05.05h0a.39.39,0,0,1-.13.06h0l0,0,0,0h.07l.29-.07h.09l.06,0,0,0v0h0l.29-.07a.91.91,0,0,1,.23,0h.13l.11,0h.05l.06,0s0,0,0,.06h0l0,0h0s0,0,0-.06l.06,0h0v0h0l0,0h0a.54.54,0,0,1,.15,0l.05,0h0V2h0c0,.07,0,.11.06.23h0l.16.22a.21.21,0,0,1,0,.06h0a.08.08,0,0,1,0,0l-.1,0h0l.05,0,.08.07a.18.18,0,0,1,.05.07l0,0,0,0V2.63h0s0,0,.05,0h0l0,0h0l0,0a3.35,3.35,0,0,1,.06.36s0,.07,0,.11l-.05,0,.07.07c.13.16-.32.45-.6.47h-.05L15.67,4c-.12.1-.28.09-.42.16L15,4.79h0v0h0l-.05.1V5c0,.1-.1.11-.13.11s-.23-.18-.38-.2h-.07c-.18,0-.42-.74-.44-.91a.44.44,0,0,1,.24-.41c.09,0,.09,0,.11-.08h0v0h0c-.16.07-.16.07-.21.07s-.06,0-.08-.07a.45.45,0,0,1,0-.11l.08-.09v0l-.07,0h0c.06-.13,0-.29.08-.42s0-.19-.32-.24h0c-.07,0-.14,0-.22,0s0,0-.05-.07,0-.14,0-.15l.08,0a.11.11,0,0,0,0,0s0,0,.48-.11l0,0v0l0,0h.06C14,2,14,2,13,2.39ZM14.08,4.8h0ZM12.3,7c.07,0,.13,0,.24-.2A.55.55,0,0,1,13,6.52l-.11.19a.19.19,0,0,0,.17.16h.13c.13.43.13.43.11.5a.16.16,0,0,1-.08.12l-.07,0A.31.31,0,0,1,13,7.38l-.17,0s-.06-.09-.11-.11h0a1.66,1.66,0,0,0-.22,0l-.18,0C12.25,7.15,12.28,7.08,12.3,7ZM7,12.52a.37.37,0,0,0-.15-.08.64.64,0,0,1-.4-.27l-.44,0c.12-.15.27-.34.49-.29h0a.61.61,0,0,1,.14.07c.12.07.23.16.35.24s.19.11.22.11l.65.67h0a.6.6,0,0,1-.4.05A.9.9,0,0,1,7.23,13C7.06,12.57,7.06,12.57,7,12.52Zm2,1.11a.12.12,0,0,1,0,.08.58.58,0,0,0-.22-.07h0a.43.43,0,0,0-.35.1l0,0c-.17-.16-.45-.15-.6-.35.33-.07.33-.07.35-.24l.5,0h0C8.94,13.3,9,13.58,9,13.63ZM4.07,17.29c.08,0,.12.11.15.21h0l-.16.08c0-.07,0-.17,0-.3ZM8.3,24.62h0ZM2.93,8.45h0v0h0l0,0h0Zm3.81-4.7h0l-.39.29h0a1.49,1.49,0,0,1,.38-.34ZM12.17,29h0Zm.84-.17a1.1,1.1,0,0,1-.28,0h-.08l.34,0s0,0,0,0Zm5.35.06h0l-.09,0h-.05l.17,0Zm9.5-7.75.06-.12Z"/><path class="cls-3" d="M12.16,29h.09Z"/><polygon class="cls-3" points="12.8 29.08 12.8 29.08 12.8 29.08 12.8 29.08"/><path class="cls-3" d="M15.64,28.32h-.21l.11.05h.14l0,0Z"/><path class="cls-3" d="M18.26,28.87h0l.09,0h0l-.17,0Z"/><path class="cls-3" d="M12.73,28.8a1.1,1.1,0,0,0,.28,0h0s0,0,0,0l-.34,0h.08Z"/><path class="cls-3" d="M12.18,29h0Z"/><path class="cls-3" d="M17.93,28.94l-.26.06h0l-.14,0h-.2l-.23,0h0l-.12,0h.11l.12,0h.08l.27-.05.15,0h.18l.06,0h.16l-.18,0Z"/><polygon class="cls-3" points="18.79 1.38 18.78 1.38 18.78 1.38 18.79 1.38"/><path class="cls-3" d="M16.63.84h-.09l.16,0Z"/><path class="cls-3" d="M29.22,14.36c0-.15,0-.3,0-.46v-.13c0-.36-.07-.7-.12-1,0,0,0-.05,0-.07v-.1c0-.08,0-.16,0-.23v0a1,1,0,0,0,0-.2v0h0l0-.07,0,.14c0-.15-.07-.3-.1-.45h0a.43.43,0,0,1,0,0h0v0h0a.56.56,0,0,0,0-.07h0l-.06-.23-.05-.19,0-.13-.08-.26,0-.09v0h0l0-.1h0a.65.65,0,0,0,0-.13l0-.09h0s0-.09-.05-.13c-.1-.3-.22-.62-.37-1L27.92,9h0l0-.05v0l0,0a2.2,2.2,0,0,0-.15-.31h0V8.5h0v0h0l0,0h0l0-.06h0v0l0,0v0h0c-.16-.28-.35-.62-.51-.88L27,7.34a9.8,9.8,0,0,0-.66-1l-.05-.06-.61-.75-.27-.29c-.15-.16-.29-.31-.43-.44s-.12-.13-.2-.2l-.12-.11L24.06,4l-.19-.16-.13-.1c-.22-.18-.45-.34-.82-.59L22.71,3a15.67,15.67,0,0,0-1.8-1h0l-.19-.08c-.4-.17-.74-.3-1.06-.41a13.4,13.4,0,0,0-1.57-.45h0L17.65,1h0l-.14,0-.27,0h0L16.83.87h0l-.11,0h0a.48.48,0,0,0-.12,0h0l.14,0h-.06l0,0H17a2,2,0,0,1,.4.05H17.3a11.07,11.07,0,0,1,1.27.28l.13,0,.12,0h.12s0,0,0,0h0l.21.06.07,0h0l-.18,0h-.07l.42.11h0l.76.21.33.14h0l-.05,0-.46-.18-.23-.06h0l-.54-.14H19l0,0,.58.19.14,0,.15.05H20l.12,0h0a.42.42,0,0,0-.12,0l0,0,0,0H20a1.39,1.39,0,0,1,.19.06l-.07,0a1.25,1.25,0,0,1,.2.17h-.08s.35.24.47.34h0l-.11,0,0,0-.1-.05-.14,0h0l0,0,0,0h0l.06,0,.2.08h0l.18.1-.08,0h0a2.21,2.21,0,0,0-.92-.13l-.18,0h0v0H19.5l-.06,0h0c0,.06,0,.12,0,.19h0v0s0,0,0,.06,0,.2.08.3h.12l.08,0a.3.3,0,0,0,0,.1c.08.15.19.28.26.44a.43.43,0,0,1,0,0s0,0,0,0l0,0a1.22,1.22,0,0,0,0,.33s.35.71.71.55a.37.37,0,0,0,.13,0,.48.48,0,0,0,.07-.21l0,0a1.14,1.14,0,0,1,.55.31s0,0,0,.06l0,.08h0l-.13-.07-.08-.07-.05,0-.08-.1h0v0h0c-.11.38.33.45.46.7-.26.14-.32.17-.33.85l0,.12a.27.27,0,0,1-.25.06h0a1.2,1.2,0,0,1,.17.17l0,.08h0c-.19-.06-.2-.06-.27,0l-.1.06v0c.17.22.53.31.75.48a1.21,1.21,0,0,1,.17.31h0a.51.51,0,0,1,0,.17l-.09,0-.23,0-.53,0a.44.44,0,0,0-.17.16h0c.23.41.18.93.55,1.28h0l.12,0c.13,0,.13,0,.37.1l.1,0a1,1,0,0,0,.28-.1h0c.24-.07.25-.11.31-.23V8.89a1.6,1.6,0,0,0,.06-1.25h0v0l0,0a1,1,0,0,1,.24,0h0l.06,0c-.06-.14-.07-.15-.06-.2h.15a.34.34,0,0,0,.14,0h0l0,0h0c.24.1,1.08.64,1.29.78,0,.07-.08.15-.18.26v.08l.45.15s0-.12-.08-.28,0-.37,0-.37a.76.76,0,0,1-.08-.11.51.51,0,0,1,0-.09h.18l-.08-.05h0a3,3,0,0,0-.95-.43h-.1c-.12-.06-.13-.07-.2-.25,0,0,0,0,0-.06a.46.46,0,0,1,.2,0,2.67,2.67,0,0,0,.66.26L24.15,7a.33.33,0,0,1,.13.07c.09.25.09.25.59.73a.85.85,0,0,0,.53.36,1.35,1.35,0,0,0-.46-.7l-.05-.07H25V7.34h0l0,0a.14.14,0,0,1,0-.06c.12,0,.19,0,.42.32l0,.07.14.1a.64.64,0,0,0,.13.15h0l.1.07,0,0h0v0l0,0,.1,0v0h0a.17.17,0,0,1,0-.07V7.76h.2v0a.37.37,0,0,1,0-.21,3.83,3.83,0,0,1,.49.84,2.59,2.59,0,0,0,.1.24v0a.33.33,0,0,1-.14.1h-.06c0,.06,0,.06,0,.2L26.48,9c-.26,0-.51-.13-.78,0h0c0,.08,0,.08.09.52l0,.08H25.6c-.3-.05-.54-.31-.87-.24h0a.59.59,0,0,1-.42-.15v0c0-.17,0-.2-.18-.45l0-.05v0l0,0,0,0h-.25l0,0a3.24,3.24,0,0,1-.37.19h0l-.24,0h-.06a.67.67,0,0,0-.19.1c-.47.24-1.22.66-1.22.66-.32.4-.12.9-.25,1.34h0a.36.36,0,0,1,0,.11h0a.69.69,0,0,1-.23.21.63.63,0,0,0-.12.14.7.7,0,0,0-.13.17s-.67,1.35-.34,1.8c.16.46,0,.94,0,1.4.09.14.09.14.15.53l.15.24L21,15.5c1,1.61,1.75,1.57,1.78,1.56A1.07,1.07,0,0,0,23,17c.42-.22.42-.22.52-.24a1.09,1.09,0,0,1,.26,0l.15,0a1.18,1.18,0,0,0,.19-.11c.2-.16.25-.2.38-.32a1,1,0,0,1,.44-.24c.23,0,.27,0,.35.2s.13.19.28.17l.12-.06.11-.06.13,0v0l0,.12H26c.2.42-.18.79-.07,1.2.55,1.9.55,1.9.52,2.13l-.78,2.93c-.14.4-.52,1.62-.52,1.62h.07a7.91,7.91,0,0,0,2.57-3.24l.06-.12,0,0a13.57,13.57,0,0,0,.79-1.93h0l0-.13h0c.08-.3.13-.47.17-.7,0,0,0-.07,0-.11h0c0-.2.06-.46.12-.88v0h0a2.45,2.45,0,0,1,0-.27A13.12,13.12,0,0,0,29.22,14.36ZM21.87,3.87h0ZM28,10.72a1.89,1.89,0,0,0,0-.23l0,0c0,.07,0,.14,0,.21Z"/><path class="cls-3" d="M12.47,1.87l0,0s0,0,0,0l0,0h.09s0,0,0,0h.06l.16-.09s0,0,0,0l0,0s0,0,0,0h-.11l-.05,0h0Z"/><path class="cls-3" d="M22.7,8.38h0s0,0,0-.12h0a1.17,1.17,0,0,0-.05.11l.06,0Z"/><path class="cls-3" d="M16.63,1h0l.23,0h.16a0,0,0,0,0,0,0h-.42S16.62,1,16.63,1Z"/><path class="cls-3" d="M23.27,7.93s0,0,0,0l0,0,.17.25h0s.07,0,.08-.08h0v0h0a0,0,0,0,0,0,0h0s0,0,0-.05h0V8h0V8h0l0,0v0l-.14-.15,0,0a1.89,1.89,0,0,0-.09-.21h0v0h0v0h0l0,0,0,0h0l0,0h0v0h0a0,0,0,0,0,0,0h0s0,0,0,0h0l0,0h0l0,0h0l.07.1v.06A.28.28,0,0,0,23.27,7.93Z"/><path class="cls-3" d="M19.39,5V5s-.05,0-.06,0,0,0,0,0l.06.13,0-.09h0Z"/><path class="cls-3" d="M17.42,1.3h-.16s0,0,0,0l.08,0h.05Z"/><polygon class="cls-3" points="10.7 1.41 10.7 1.42 10.7 1.41 10.7 1.41"/><path class="cls-3" d="M11,1.33l.46-.13.21-.05-.11,0-.4.11.07,0L11,1.33l-.19.06H10.7l.13,0Z"/><path class="cls-3" d="M16.63,20.42c0-.56-1.38-1-1.39-1a4.66,4.66,0,0,0-.63-.12.72.72,0,0,1-.3-.05c-.39-.48-1.2-.41-1.43-1.09,0-.07,0-.14-.07-.22a.9.9,0,0,0-.23-.43l-.09-.07a1.37,1.37,0,0,0-.35-.25h0a1.25,1.25,0,0,0-.47-.16h-.23a.69.69,0,0,1-.41-.32c-.16-.25-.22-.34-.49-.41h0a1.08,1.08,0,0,0-.81-.69l-.08.14c-.34-.05-.34-.05-1.16-.59-.26.2-.26.2-.4.18v0a1.18,1.18,0,0,0,.13-.18C7.75,15,7.75,15,7,15.77c-.19-.09-.32-.27-.52-.34a1,1,0,0,0-.25,0,.43.43,0,0,1-.16,0c-.69-.36.05-1.11-.19-1.64a1,1,0,0,0-.51-.38l-.13.06H5.12L5,13.43l.06-.14c.14-.32.45-.56.5-.94V12.2l-.09-.1c-.46,0-.69.47-1.13.48H4.27a1.91,1.91,0,0,1,.8-2.52L5.22,10h.13c.12.09.21.19.33.28l.05,0c.11,0,.11,0,.11,0h0v-.12l0,0H6a1,1,0,0,1,.32,0c.08,0,.08,0,.28.24h.17c.26.37,0,.81.16,1.18H7c.25-.45,0-1,.3-1.43s.94-.39,1.34-.72c0-.27,0-.27.07-.34.32-.29.7-.5,1-.81l.3.07,0-.13S10,8.08,10,8a2.37,2.37,0,0,1,1-.42v0l-.14.15,0,.14,0,0A2.25,2.25,0,0,0,12,7.51s0-.11,0-.15-.21.15-.32.2l0,0,.08-.13h-.19a1,1,0,0,1-.19-.16l.09-.13h-.15c.18,0,.24-.08.28-.19l-.1-.09a2.58,2.58,0,0,0-.76.2l.05,0,.35-.2a.59.59,0,0,1,.42-.13l.1.08a.43.43,0,0,0,.19.21h0l.12,0V6.75c.4-.07,1.07-.23,1.11-.61l-.1-.1h0l0,0,0-.16c-.3-.14-.3-.14-.49-1h0l-.1,0,0,0h0a.65.65,0,0,1-.38.19,1.11,1.11,0,0,1-.08-.3l.11-.1,0-.07-.22-.24c-.08-.09-.1-.09-.12-.1h-.32l-.27.3-.05.14a2,2,0,0,0-.22.19c0,.23,0,.23-.64.67-.21.48-.21.48-.4.56H9.52L9.57,6V5.78l.07,0a.45.45,0,0,0-.06-.12l.13-.24a5.79,5.79,0,0,0-.51-.66h-.1a3.72,3.72,0,0,1,.24-.49,14.64,14.64,0,0,1,1.54-.63c-.1.09-.22.16-.33.25l.07.12h.05a.78.78,0,0,1,.22,0L11,4l0,0,.13,0h0a.38.38,0,0,1,0-.36l.05,0,.08-.06a.66.66,0,0,0,.46-.26s.11,0,.12-.08l0-.1.1.06.18,0,.06,0a1.08,1.08,0,0,1-.12.24l-.16.09v.1l.14,0,.1,0h.15l-.08.1a1.45,1.45,0,0,0-.26.17l-.07,0h-.17a1.52,1.52,0,0,0-.28.09h0L11.5,4h.28c.08.09.08.23.17.32H12c.09.06.15.16.26.19l.06,0V4.36h.06l.11.09h0l0-.1.12-.09v0A.58.58,0,0,0,12.57,4l0-.11h.07l.06.14.16,0a1.2,1.2,0,0,0,.26-.18v-.1l-.31-.32.09,0L13,3.25s0,0-.14-.25l0,0h-.06a.5.5,0,0,1,0-.27l-.05-.06-.11,0h0c-.38-.08-.73-.15-1,.31l.05.14-.12.1a2.81,2.81,0,0,1-.31.1l0,0A.4.4,0,0,0,11.32,3h0l-.15,0v0L11.29,3h0c.16-.26.16-.26.29-.36s.35-.08.52-.15L12,2.4c-.22,0-.37.15-.56.21l-.23.09L11,2.86l0,0h-.18l-.1.12-.14,0h0l-.11,0h0V2.8l0,0,.07,0a.43.43,0,0,0,.39-.12c.07-.17.07-.17.39-.32l.19-.08,0-.06h-.14l-.07,0h0l0,0h0l0,0-.05,0,0,0-.05,0h0a.7.7,0,0,0,.17-.13V2.08A.27.27,0,0,0,11.32,2h0l0-.08h-.26L11,2a1.27,1.27,0,0,0-.32.09l-.17.15.14,0-.23.19-.08,0a.58.58,0,0,1-.17.06l0-.1,0-.07h-.08v0l.12-.09h-.09l-.1-.1-.14,0a1.73,1.73,0,0,0,.28-.2h0a3.13,3.13,0,0,1,.62-.37l.08,0h0v0h0l-.16,0-.49.16-.06,0,.06,0,.09,0h0l-.56.21-.13.05.08,0-.11.05-.18.07-.1,0L9,2.06,9.2,2,9,2.07H9l0,0L9,2.1h0a1.66,1.66,0,0,0-.27.13l-.09,0h0l-.13.07L8,2.58H8l0,0,0,0L7.8,2.7h0l.06,0,0,0h0l0,0H8l0,0h0l0,0h0a.15.15,0,0,0-.08,0l0,0,.37-.17a.73.73,0,0,0-.22.16l0,0,.07,0,.09,0h0l-.14.09h0c-.31.2-.58.47-.87.69a4.52,4.52,0,0,0-.5.43l-.06.12L6.6,4c-.17.16-.33.32-.49.49L6,4.47c-2.49,3-2.49,3-2.48,3.34a6.81,6.81,0,0,1-.5,1.47l0,0a9.07,9.07,0,0,0-.16,1.36v0c.49-.58,0-1.48.62-2C3,12.77,3,12.77,3.78,13.12H4a.43.43,0,0,1,.17.24c.19.47.35.66.66.79h0l.07.06c.53,1.31.53,1.31,1.17,1.81l.12-.08a1,1,0,0,1,0-.18.48.48,0,0,1,.19-.09c.92,1-.59,1.91-.41,2.92-.2.26-.21.28,0,.7a7,7,0,0,0,2.14,2.93c.22.17.35.27.39.48.25,1.29.43,2.15.54,2.73.24,1.18.25,1.2.29,1.24v-.16a.61.61,0,0,1,.15.23l-.13,0v0l.07.1,0,.13,0,0,.12,0v.14a2.07,2.07,0,0,0,.35.32c.08.08.19.09.26.18l.14.1a4.91,4.91,0,0,0,1,.34h.05l-.08-.05h.23c-.29-.1-.69-.24-.75-.46a1.6,1.6,0,0,0,.16-.23l0-.08c-.28-.15-.28-.15-.32-.2.25-.18.25-.18.34-.32l0-.09a.67.67,0,0,1-.22-.19h0l.16.05.13,0,.13,0a.36.36,0,0,1,.07-.24h0l.11,0h0c.29,0,.6.05.59-.35-.16-.22-.16-.22-.16-.25l.29.08h.08c1.29-.08,1.17-1.86,2.42-2h.1c.78-.15.9-1.46,1-2C15.68,21.84,16.63,20.43,16.63,20.42ZM10.14,1.62h0Z"/><path class="cls-3" d="M17,11.26h0Z"/><path class="cls-3" d="M20.67,11.4l0,0h0c.05,0,.05-.07,0-.15a.19.19,0,0,0,0-.08C20.71,11.24,20.69,11.31,20.67,11.4Z"/><path class="cls-3" d="M21.32,10.89c-.46.07-.93.12-1.42.17l0,0,1.49-.17Z"/><path class="cls-3" d="M28.41,19.82a1.21,1.21,0,0,0,.05-.14l0-.09c-.08.23-.2.53-.38,1C28.2,20.37,28.31,20.11,28.41,19.82Z"/><path class="cls-3" d="M18.43,11.19h0l.82-.06h-.05Z"/><path class="cls-3" d="M17.52,11.24h0Z"/><path class="cls-3" d="M2.94,8.47v0h0l0,0Z"/><path class="cls-3" d="M12.28,29h0l-.1,0h.07Z"/><path class="cls-3" d="M13.54,29.18h-.07l-.12,0-.15,0h0l-.19,0h0l-.05,0,0,0h-.1l-.11,0h0a.21.21,0,0,1,.11,0h.1l-.05,0h0a.88.88,0,0,1,.25,0h.1v0h-.71l.05,0h0l-.06,0H12.3l0,0h.05a1.29,1.29,0,0,1,.21.06h-.06l.27.06.11,0h-.08l.26,0h0l.35,0Z"/><path class="cls-3" d="M16.56,29.16h.05l.46-.06H17Z"/><path class="cls-3" d="M27.68,8.5h0v0Z"/><path class="cls-3" d="M12.64,2a.43.43,0,0,0-.1.09h0l-.08.06h0c-.07,0-.07,0-.09,0s-.07.07-.1.08a.07.07,0,0,1-.06,0h0l-.07,0c-.12.08-.12.1-.13.13h0a.26.26,0,0,0,.15,0l.18-.12s0,0,.06,0l0,0c-.16.09-.16.09-.17.13s.05,0,.42.17c0,0,.33,0,.29-.18h0l-.09,0h-.27s0,0,0,0h0l0,0h.13l0,.06h.23s0,0,0,0H13C14,2,14,2,14.11,2h-.06l0,0v0l0,0c-.47.09-.47.09-.48.11a.11.11,0,0,1,0,0l-.08,0s0,0,0,.15,0,.06.05.07.15,0,.22,0h0c.32,0,.32.06.32.24s0,.29-.08.42h0l.07,0v0L14,3.32a.45.45,0,0,0,0,.11s0,.07.08.07,0,0,.21-.07h0v0h0s0,0-.11.08a.44.44,0,0,0-.24.41c0,.17.26.87.44.91h.07c.15,0,.22.19.38.2s.08,0,.13-.11v0l.05-.1v0l.25-.62c.14-.07.3-.06.42-.16l.39-.32h.05c.28,0,.73-.31.6-.47l-.07-.07-.07-.09,0-.09.14.09a3.35,3.35,0,0,0-.06-.36l0,0h0l0,0h0s0,0-.05,0h0V2.7l0,0,0,0a.18.18,0,0,0-.05-.07l-.08-.07-.05,0h0l.1,0a.08.08,0,0,0,0,0h0a.21.21,0,0,0,0-.06l-.16-.22h0c-.08-.12-.08-.16-.06-.23h0v0h0l-.05,0a.54.54,0,0,0-.15,0h0l0,0h0v0h0l-.06,0s0,0,0,.06h0l0,0h0s0,0,0-.06l-.06,0h-.05l-.11,0h-.13a.91.91,0,0,0-.23,0l-.29.07h0v0l0,0-.06,0h-.09l-.29.07v0h-.06l0,0h0a.39.39,0,0,0,.13-.06h0a.12.12,0,0,0-.05-.05h0a.2.2,0,0,0-.08,0h-.14s0,0,0,0h-.11l-.12,0h-.08v0h0l-.2,0h0a.3.3,0,0,0-.14,0,.28.28,0,0,1-.09.06h0s0,0,0-.06L13,1.86a.33.33,0,0,0-.16.17s0,0,0,0H13l0,0,0,0h-.11s0,0-.06,0h-.09l.09-.07h0l-.1,0c-.1.07-.1.07-.13.07l0,0h.05l.12-.05c.09-.09.09-.09.09-.12h0C12.71,1.92,12.71,1.92,12.64,2Z"/><path class="cls-3" d="M17.63,1.81l-.05,0,0,0h-.21s0,0,0,0h-.1a.53.53,0,0,0,.06.1l.07,0h-.17l0,0,.11.05.1,0h.09l.1,0,.1,0h0l.14,0a.23.23,0,0,0,.11,0h0v0h0l0,0h0l0,0h0L17.81,2l0,0h-.05l.16,0,.06,0H18s0,0-.07-.05h0l-.35-.06S17.63,1.84,17.63,1.81Z"/><path class="cls-3" d="M19.7,2A.69.69,0,0,0,20,2h0l-.08,0h0l-.28-.06-.19-.06-.92-.37h0l-.1,0h-.14l.29.12.06,0h0l.29.11.05,0,.2.07h.17l0,0a1.91,1.91,0,0,0,.35.14Z"/><path class="cls-3" d="M17.91,4h0l-.28-.17-.14,0h0l-.14,0H17.2s0,0,0,0h0V4s0,0,0,0a.45.45,0,0,0-.18-.1H16.9s0,.11,0,.15l.13,0-.07.07.19,0,0,.08a.91.91,0,0,0,.39,0h0C17.67,4.31,17.92,4.22,17.91,4Z"/><path class="cls-3" d="M12,2h-.07s0,0,.05,0,0,0,0,0h-.26l.14-.13.11,0s0,0,0,0a2.12,2.12,0,0,0-.49.09s0,0,0,.05l0,0-.09,0c-.07,0-.08.05-.07.06s.06,0,.09,0l.17,0h0a.53.53,0,0,0,.16,0A1,1,0,0,0,12,2Z"/><path class="cls-3" d="M12.54,6.81c-.11.16-.17.18-.24.2s-.05.14-.07.2l.18.06a1.66,1.66,0,0,1,.22,0h0c.05,0,.07.06.11.11l.17,0a.31.31,0,0,0,.16.13l.07,0a.16.16,0,0,0,.08-.12c0-.07,0-.07-.11-.5H13a.19.19,0,0,1-.17-.16L13,6.52A.55.55,0,0,0,12.54,6.81Z"/><path class="cls-3" d="M12.82,29.08h0l-.47-.1-.06,0h0l.18.05H12.3l.1,0h.07l.27.05h.08Z"/><path class="cls-3" d="M20.05,6.08v0h0a.38.38,0,0,0,0-.12l-.11-.24,0,0,0-.05h0s-.06,0-.09-.08h.06l.05,0,0,0H20a.2.2,0,0,1,.18.07l.09.08a.07.07,0,0,1-.07,0h0v.05h0a0,0,0,0,1,0,0h0l0,0h0l0,0V6a.49.49,0,0,0,0,.11l0,0,.25.09,0,0,0,0h0l0,0h0v0l0,0h.11a1.21,1.21,0,0,0,.42-.14.47.47,0,0,0,.21-.13h0v0s0,0-.06-.06a.07.07,0,0,1,0-.06.42.42,0,0,0,0-.1,0,0,0,0,0,0,0h0a.19.19,0,0,0-.17-.09h0s0,0-.36-.2L20,5.27h0s0,0,0-.08A.57.57,0,0,0,20,5l0,0a.12.12,0,0,0-.1,0l-.06,0h0V4.81l0-.07h0l0,0v0s0,.1-.09.11h0l0,0a.13.13,0,0,0,0,.05V5h0l0,0h0a.43.43,0,0,0,0,.07,1.29,1.29,0,0,0,.18.24l0,0a.26.26,0,0,0,.11.07h-.2l-.06,0s0,.07,0,.17l-.15,0,.12.15.09.11a.88.88,0,0,0,0,.17c.09.09.15.1.19.09l.07,0,0,0A1,1,0,0,0,20,6.12Z"/><path class="cls-3" d="M7,12.23c-.12-.08-.23-.17-.35-.24a.61.61,0,0,0-.14-.07h0c-.22-.05-.37.14-.49.29l.44,0a.64.64,0,0,0,.4.27.37.37,0,0,1,.15.08c.07.05.07.05.24.48a.9.9,0,0,0,.23.07.6.6,0,0,0,.4-.05h0l-.65-.67S7.19,12.34,7,12.23Z"/><path class="cls-3" d="M11.81,2.32h0a.55.55,0,0,0-.29,0l0,0c-.07,0-.07,0-.12,0l-.14.15s-.05.06,0,.07.11,0,.3-.07.36-.2.32-.23Z"/><path class="cls-3" d="M17.23,1.32h-.17l.28.07.21,0H17.5l.12,0h0l-.06,0h-.05l-.14,0h-.18Z"/><path class="cls-3" d="M14.9.75Z"/><path class="cls-3" d="M11.88,2.24H12l.18-.07.12-.07s0,0,0-.06-.11,0-.16,0,0,0,0,0h-.07c-.11.06-.17.09-.14.1h0s0,0,0,.07-.06,0,0,0Z"/><path class="cls-3" d="M8.34,13.77l0,0a.43.43,0,0,1,.35-.1h0a.58.58,0,0,1,.22.07.12.12,0,0,0,0-.08c0-.05-.05-.33-.39-.41h0l-.5,0c0,.17,0,.17-.35.24C7.89,13.62,8.17,13.61,8.34,13.77Z"/><path class="cls-3" d="M11.62,1.82s.06,0,.15,0l-.19,0s0,0,0,0,.36-.06.46-.08l0,0h-.13a1.31,1.31,0,0,0-.27,0S11.62,1.81,11.62,1.82Z"/><path class="cls-3" d="M17.71,1.48h-.12l-.09,0h-.09l0,0h0s0,0,0,0l.06,0h.2Z"/><path class="cls-3" d="M12.1,1.84h.05l.31-.07h0v0h-.15l0,0h-.13l-.06,0Z"/><path class="cls-3" d="M14.4.76h0Z"/><path class="cls-3" d="M14.57.76h0Z"/><path class="cls-3" d="M12,1.08H12l-.08,0Z"/><path class="cls-3" d="M6.74,3.79h0a1.49,1.49,0,0,0-.38.34h0l.39-.29Z"/><path class="cls-3" d="M20.28,2.19h-.11s0,0,0,0h.05l.05,0,.05,0h0a0,0,0,0,0,0,0h0A.37.37,0,0,0,20.28,2.19Z"/><path class="cls-3" d="M10.61,4.09c0,.06,0,.07,0,.07h0s.1,0,.2-.1h0l0,0S10.73,4,10.61,4.09Z"/><path class="cls-3" d="M25.8,8.4s0-.05,0-.11v0a.31.31,0,0,0-.17,0,.21.21,0,0,0,0,.08A.24.24,0,0,0,25.8,8.4Z"/><path class="cls-3" d="M12.14,3.18l0,0-.2.11a.42.42,0,0,0,0,.1l.25-.17Z"/><path class="cls-3" d="M4.07,17.29H4c0,.13,0,.23,0,.3l.16-.08h0C4.19,17.4,4.15,17.31,4.07,17.29Z"/><path class="cls-3" d="M10.11,5.25l.06,0h0s.06,0,.12-.07v0l-.05,0S10.19,5.16,10.11,5.25Z"/><path class="cls-3" d="M7.43,12h0c0-.15,0-.24,0-.33C7.3,11.84,7.3,11.9,7.43,12Z"/><path class="cls-3" d="M12.35,1.89h0l-.09,0s0,0,0,0h0l.07-.05s0,0,0,0Z"/><path class="cls-3" d="M7.65,11.5v0c0-.12,0-.23,0-.24s-.11,0-.22.1h.2Z"/><path class="cls-3" d="M10.89,4.24h0s0,.06,0,.07h0l.13,0h0s0,0,0-.07,0,0,0,0A.15.15,0,0,0,10.89,4.24Z"/><path class="cls-3" d="M12.32,28h0l.1,0h0l-.17-.07a.28.28,0,0,0,0,.09h0Z"/><path class="cls-3" d="M13,1.82h0l0,0H13l0,0Z"/><path class="cls-3" d="M16.26,29.19h0Z"/><polygon class="cls-3" points="16.25 29.2 16.25 29.2 16.26 29.19 16.25 29.2 16.25 29.2"/><path class="cls-3" d="M16.81,1.05h0Z"/><path class="cls-3" d="M17.19,1.3Z"/><path class="cls-3" d="M17.55,1.68h0s0,0-.07,0h.05Z"/><path class="cls-3" d="M16.65.9Z"/><path class="cls-3" d="M20.1,11.51h.12s.07,0,.09-.13v0C20.19,11.38,20.13,11.39,20.1,11.51Z"/><path class="cls-3" d="M19.65,4.49h0s0,0,0,0,0,0,.1.08Z"/><path class="cls-3" d="M17.12,1.14h0Z"/><path class="cls-3" d="M12.06,27.91h0l-.05,0a0,0,0,0,0,0,0l0,0h0c.05,0,.05,0,0-.06Z"/><path class="cls-3" d="M11.25,4.11l.06,0h0s0,0,0,0l-.06,0S11.23,4.1,11.25,4.11Z"/><path class="cls-3" d="M18.79,1.38h0Z"/><path class="cls-3" d="M15.33.75h0Z"/><path class="cls-3" d="M17.82,1.81h0l0,0h0Z"/></g></g></svg>