<svg xmlns="http://www.w3.org/2000/svg" viewBox="0 0 41.7 13.89"><defs><style>.cls-1{fill:#2c3d4f;}</style></defs><title>number-code</title><g id="Layer_2" data-name="Layer 2"><g id="Layer_1-2" data-name="Layer 1"><polygon class="cls-1" points="0 13.89 0.57 13.89 0.57 0 0 0 0 13.89 0 13.89"/><polygon class="cls-1" points="0.86 13.89 1.15 13.89 1.15 0 0.86 0 0.86 13.89 0.86 13.89"/><polygon class="cls-1" points="1.73 13.89 2.01 13.89 2.01 0 1.73 0 1.73 13.89 1.73 13.89"/><polygon class="cls-1" points="3.16 13.89 3.45 13.89 3.45 0 3.16 0 3.16 13.89 3.16 13.89"/><polygon class="cls-1" points="3.74 13.89 4.03 13.89 4.03 0 3.74 0 3.74 13.89 3.74 13.89"/><polygon class="cls-1" points="4.89 13.89 5.46 13.89 5.46 0 4.89 0 4.89 13.89 4.89 13.89"/><polygon class="cls-1" points="6.33 13.89 6.61 13.89 6.61 0 6.33 0 6.33 13.89 6.33 13.89"/><polygon class="cls-1" points="7.48 13.89 7.76 13.89 7.76 0 7.48 0 7.48 13.89 7.48 13.89"/><polygon class="cls-1" points="8.05 13.89 8.63 13.89 8.63 0 8.05 0 8.05 13.89 8.05 13.89"/><polygon class="cls-1" points="9.49 13.89 9.78 13.89 9.78 0 9.49 0 9.49 13.89 9.49 13.89"/><polygon class="cls-1" points="10.64 13.89 10.93 13.89 10.93 0 10.64 0 10.64 13.89 10.64 13.89"/><polygon class="cls-1" points="11.79 13.89 12.37 13.89 12.37 0 11.79 0 11.79 13.89 11.79 13.89"/><polygon class="cls-1" points="12.65 13.89 12.94 13.89 12.94 0 12.65 0 12.65 13.89 12.65 13.89"/><polygon class="cls-1" points="13.23 13.89 13.8 13.89 13.8 0 13.23 0 13.23 13.89 13.23 13.89"/><polygon class="cls-1" points="14.67 13.89 14.95 13.89 14.95 0 14.67 0 14.67 13.89 14.67 13.89"/><polygon class="cls-1" points="15.82 13.89 16.01 13.89 16.01 0 15.82 0 15.82 13.89 15.82 13.89"/><polygon class="cls-1" points="16.39 13.89 17.16 13.89 17.16 0 16.39 0 16.39 13.89 16.39 13.89"/><polygon class="cls-1" points="17.54 13.89 18.6 13.89 18.6 0 17.54 0 17.54 13.89 17.54 13.89"/><polygon class="cls-1" points="18.98 13.89 19.17 13.89 19.17 0 18.98 0 18.98 13.89 18.98 13.89"/><polygon class="cls-1" points="19.55 13.89 20.03 13.89 20.03 0 19.55 0 19.55 13.89 19.55 13.89"/><polygon class="cls-1" points="20.7 13.89 21.57 13.89 21.57 0 20.7 0 20.7 13.89 20.7 13.89"/><polygon class="cls-1" points="22.14 13.89 22.43 13.89 22.43 0 22.14 0 22.14 13.89 22.14 13.89"/><polygon class="cls-1" points="23.29 13.89 23.58 13.89 23.58 0 23.29 0 23.29 13.89 23.29 13.89"/><polygon class="cls-1" points="23.87 13.89 24.44 13.89 24.44 0 23.87 0 23.87 13.89 23.87 13.89"/><polygon class="cls-1" points="25.31 13.89 26.17 13.89 26.17 0 25.31 0 25.31 13.89 25.31 13.89"/><polygon class="cls-1" points="27.03 13.89 27.32 13.89 27.32 0 27.03 0 27.03 13.89 27.03 13.89"/><polygon class="cls-1" points="27.61 13.89 28.18 13.89 28.18 0 27.61 0 27.61 13.89 27.61 13.89"/><polygon class="cls-1" points="28.47 13.89 29.04 13.89 29.04 0 28.47 0 28.47 13.89 28.47 13.89"/><polygon class="cls-1" points="30.19 13.89 30.48 13.89 30.48 0 30.19 0 30.19 13.89 30.19 13.89"/><polygon class="cls-1" points="30.77 13.89 31.06 13.89 31.06 0 30.77 0 30.77 13.89 30.77 13.89"/><polygon class="cls-1" points="31.63 13.89 32.21 13.89 32.21 0 31.63 0 31.63 13.89 31.63 13.89"/><polygon class="cls-1" points="32.49 13.89 33.65 13.89 33.65 0 32.49 0 32.49 13.89 32.49 13.89"/><polygon class="cls-1" points="33.93 13.89 34.51 13.89 34.51 0 33.93 0 33.93 13.89 33.93 13.89"/><polygon class="cls-1" points="34.8 13.89 35.08 13.89 35.08 0 34.8 0 34.8 13.89 34.8 13.89"/><polygon class="cls-1" points="35.66 13.89 36.23 13.89 36.23 0 35.66 0 35.66 13.89 35.66 13.89"/><polygon class="cls-1" points="36.52 13.89 37.38 13.89 37.38 0 36.52 0 36.52 13.89 36.52 13.89"/><polygon class="cls-1" points="37.96 13.89 38.53 13.89 38.53 0 37.96 0 37.96 13.89 37.96 13.89"/><polygon class="cls-1" points="39.4 13.89 40.26 13.89 40.26 0 39.4 0 39.4 13.89 39.4 13.89"/><polygon class="cls-1" points="40.55 13.89 40.83 13.89 40.83 0 40.55 0 40.55 13.89 40.55 13.89"/><polygon class="cls-1" points="41.12 13.89 41.7 13.89 41.7 0 41.12 0 41.12 13.89 41.12 13.89"/></g></g></svg>