<svg xmlns="http://www.w3.org/2000/svg" viewBox="0 0 42.21 42.21"><defs><style>.cls-1{fill:#2c3d4f;}</style></defs><title>qr-code</title><g id="Layer_2" data-name="Layer 2"><g id="Layer_1-2" data-name="Layer 1"><path class="cls-1" d="M4,14.07h10V0H0V14.07H4ZM2,2h10v10H2Z"/><polygon class="cls-1" points="2.01 16.08 0 16.08 0 20.1 2.01 20.1 2.01 18.09 4.02 18.09 4.02 16.08 2.01 16.08"/><polygon class="cls-1" points="8.04 10.05 10.05 10.05 10.05 4.02 8.04 4.02 6.03 4.02 4.02 4.02 4.02 10.05 6.03 10.05 8.04 10.05"/><polygon class="cls-1" points="6.03 32.16 4.02 32.16 4.02 38.19 6.03 38.19 8.04 38.19 10.05 38.19 10.05 32.16 8.04 32.16 6.03 32.16"/><polygon class="cls-1" points="10.05 18.09 10.05 16.08 8.04 16.08 6.03 16.08 6.03 18.09 8.04 18.09 10.05 18.09"/><path class="cls-1" d="M10,28.14H0V42.21H14.07V28.14H10Zm2,12.06H2v-10h10Z"/><rect class="cls-1" x="12.06" y="16.08" width="2.01" height="2.01"/><polygon class="cls-1" points="16.08 20.1 18.09 20.1 18.09 22.11 20.1 22.11 20.1 24.12 22.11 24.12 24.12 24.12 24.12 22.11 22.11 22.11 22.11 20.1 20.1 20.1 20.1 18.09 22.11 18.09 22.11 16.08 24.12 16.08 24.12 20.1 26.13 20.1 26.13 8.04 24.12 8.04 24.12 10.05 22.11 10.05 22.11 12.06 24.12 12.06 24.12 14.07 22.11 14.07 22.11 12.06 20.1 12.06 20.1 14.07 18.09 14.07 18.09 12.06 16.08 12.06 16.08 16.08 18.09 16.08 18.09 18.09 16.08 18.09 14.07 18.09 14.07 20.1 16.08 20.1"/><polygon class="cls-1" points="18.09 32.16 16.08 32.16 16.08 36.18 18.09 36.18 20.1 36.18 20.1 34.17 18.09 34.17 18.09 32.16"/><polygon class="cls-1" points="20.1 26.13 20.1 24.12 18.09 24.12 18.09 22.11 16.08 22.11 16.08 24.12 14.07 24.12 12.06 24.12 12.06 22.11 14.07 22.11 14.07 20.1 12.06 20.1 12.06 18.09 10.05 18.09 10.05 20.1 8.04 20.1 6.03 20.1 6.03 18.09 4.02 18.09 4.02 22.11 2.01 22.11 2.01 24.12 4.02 24.12 6.03 24.12 8.04 24.12 8.04 22.11 10.05 22.11 10.05 26.13 12.06 26.13 14.07 26.13 16.08 26.13 16.08 28.14 18.09 28.14 18.09 26.13 20.1 26.13"/><polygon class="cls-1" points="20.1 38.19 18.09 38.19 16.08 38.19 16.08 42.21 18.09 42.21 18.09 40.2 20.1 40.2 22.11 40.2 22.11 38.19 20.1 38.19"/><polygon class="cls-1" points="24.12 8.04 24.12 6.03 22.11 6.03 22.11 4.02 20.1 4.02 20.1 2.01 22.11 2.01 22.11 4.02 24.12 4.02 24.12 2.01 26.13 2.01 26.13 0 24.12 0 22.11 0 20.1 0 18.09 0 16.08 0 16.08 2.01 18.09 2.01 18.09 8.04 20.1 8.04 20.1 10.05 22.11 10.05 22.11 8.04 24.12 8.04"/><rect class="cls-1" x="22.11" y="40.2" width="2.01" height="2.01"/><polygon class="cls-1" points="28.14 22.11 30.15 22.11 30.15 16.08 28.14 16.08 28.14 20.1 26.13 20.1 26.13 22.11 28.14 22.11"/><rect class="cls-1" x="28.14" y="24.12" width="2.01" height="2.01"/><polygon class="cls-1" points="28.14 38.19 26.13 38.19 26.13 40.2 28.14 40.2 30.15 40.2 30.15 36.18 28.14 36.18 28.14 38.19"/><path class="cls-1" d="M34.17,32.16h4v-2h-2v-2h-4v-2h-2v2h-4v-2h-6v2h-2v2h2v4h2v2h4v-4h2v-2h2v2h-2v2h4v-2Zm-10-2h-2v-2h2Z"/><rect class="cls-1" x="32.16" y="34.17" width="2.01" height="2.01"/><rect class="cls-1" x="32.16" y="38.19" width="2.01" height="2.01"/><polygon class="cls-1" points="34.17 4.02 32.16 4.02 32.16 10.05 34.17 10.05 36.18 10.05 38.19 10.05 38.19 4.02 36.18 4.02 34.17 4.02"/><rect class="cls-1" x="36.18" y="26.13" width="2.01" height="2.01"/><polygon class="cls-1" points="36.18 36.18 34.17 36.18 34.17 38.19 36.18 38.19 36.18 42.21 38.19 42.21 38.19 40.2 40.2 40.2 42.21 40.2 42.21 36.18 40.2 36.18 38.19 36.18 38.19 34.17 36.18 34.17 36.18 36.18"/><polygon class="cls-1" points="38.19 20.1 38.19 18.09 36.18 18.09 34.17 18.09 32.16 18.09 32.16 22.11 34.17 22.11 34.17 20.1 36.18 20.1 36.18 24.12 38.19 24.12 38.19 22.11 40.2 22.11 42.21 22.11 42.21 20.1 40.2 20.1 38.19 20.1"/><path class="cls-1" d="M40.2,0H28.14V14.07H42.21V0Zm0,12.06h-10V2h10Z"/><rect class="cls-1" x="40.2" y="16.08" width="2.01" height="2.01"/><rect class="cls-1" x="40.2" y="24.12" width="2.01" height="2.01"/><polygon class="cls-1" points="40.2 32.16 38.19 32.16 38.19 34.17 40.2 34.17 42.21 34.17 42.21 30.15 40.2 30.15 40.2 32.16"/></g></g></svg>