<svg xmlns="http://www.w3.org/2000/svg" viewBox="0 0 17.16 11.65"><defs><style>.cls-1{fill:#6c6d6d;}</style></defs><title>sm-add-friend</title><g id="Layer_2" data-name="Layer 2"><g id="Layer_1-2" data-name="Layer 1"><path class="cls-1" d="M14.47,5a3.31,3.31,0,0,0-.34,0c-.1,0-.2,0-.31,0L13.6,5l-.35,0a3.32,3.32,0,1,0,1.22,0Zm-.65,5.87a2.6,2.6,0,0,1-.33-5.17,2.56,2.56,0,0,1,.33,0,2.56,2.56,0,0,1,.41,0,2.6,2.6,0,0,1-.41,5.16Z"/><path class="cls-1" d="M15.47,7.79H14.34V6.66a.51.51,0,1,0-1,0V7.79H12.17a.51.51,0,0,0,0,1h1.13V10a.51.51,0,1,0,1,0V8.82h1.13a.51.51,0,1,0,0-1Z"/><circle class="cls-1" cx="9.83" cy="2.8" r="2.8"/><circle class="cls-1" cx="3.38" cy="5.67" r="1.89"/><path class="cls-1" d="M3.38,8A3.28,3.28,0,0,0,0,11.11v.52H4.43v-.76a4.52,4.52,0,0,1,.72-2.45A3.54,3.54,0,0,0,3.38,8Z"/><path class="cls-1" d="M10.14,8.31a3.64,3.64,0,0,1,.55-1.91l.1-.13a5.37,5.37,0,0,0-1-.09h0A5.09,5.09,0,0,0,5.52,8.47a4.43,4.43,0,0,0-.71,2.4v.76h7.46a3.64,3.64,0,0,1-2.14-3.33Z"/></g></g></svg>