<svg xmlns="http://www.w3.org/2000/svg" viewBox="0 0 20.4 12.3"><defs><style>.cls-1{fill:none;}.cls-2{fill:#6c6d6d;}</style></defs><title>sm-change-land-price</title><g id="Layer_2" data-name="Layer 2"><g id="Layer_1-2" data-name="Layer 1"><rect class="cls-1" width="20.4" height="12.3"/><path class="cls-2" d="M6.09,7h.15V5.82a.74.74,0,0,0,.34.1.66.66,0,0,0,.65-.65v0h0a.67.67,0,0,0-.61-.69.76.76,0,0,0-.39.1V3.24a.16.16,0,0,0-.16-.16H4.41a.16.16,0,0,0-.11,0,.16.16,0,0,0,0,.11v.07a.16.16,0,0,0,0,.1.59.59,0,0,1,.17.37.35.35,0,0,1-.36.32h0a.36.36,0,0,1-.37-.32.59.59,0,0,1,.17-.37.16.16,0,0,0,0-.1V3.24a.16.16,0,0,0-.16-.16H2.11A.16.16,0,0,0,2,3.23v1.4a.75.75,0,0,0-.37-.1A.66.66,0,0,0,1,5.2v0a.67.67,0,0,0,.64.67A.75.75,0,0,0,2,5.79v1.4a.16.16,0,0,0,.16.16H3.78a.16.16,0,0,0,.11,0,.16.16,0,0,0,0-.11v0a.16.16,0,0,0,0-.1.6.6,0,0,1-.17-.37.36.36,0,0,1,.36-.32h0a.36.36,0,0,1,.37.32.56.56,0,0,1-.17.37.16.16,0,0,0,0,.1v0a.16.16,0,0,0,.16.16H5.94v-.2A.16.16,0,0,1,6.09,7Zm1-1.77h0Z"/><path class="cls-2" d="M9.92,11.27h0a.39.39,0,0,1-.12-.08L7.59,9a1.6,1.6,0,0,1-.22-2H6.09a.16.16,0,0,0-.16.16V8.55a.76.76,0,0,0-.37-.1H5.44a.68.68,0,0,0-.5.66v0a.67.67,0,0,0,.64.67l.18,0,.18-.08v1.4a.16.16,0,0,0,.16.16H7.76a.16.16,0,0,0,.16-.16v0h0a.16.16,0,0,0,0-.1.6.6,0,0,1-.17-.37.36.36,0,0,1,.36-.32h0a.36.36,0,0,1,.37.32.56.56,0,0,1-.17.37.16.16,0,0,0,0,.1v0a.16.16,0,0,0,.16.16H10Z"/><path class="cls-2" d="M12.13,1.19A.16.16,0,0,0,12,1h-1.4a.75.75,0,0,0,.1-.38A.67.67,0,0,0,10,0h0A.66.66,0,0,0,9.3.67.75.75,0,0,0,9.4,1h-1v.31H9.67a.16.16,0,0,0,.11,0,.16.16,0,0,0,0-.11V1.13a.16.16,0,0,0,0-.1A.6.6,0,0,1,9.61.66.35.35,0,0,1,10,.34h0a.36.36,0,0,1,.38.32A.59.59,0,0,1,10.2,1a.16.16,0,0,0,0,.1v.06a.16.16,0,0,0,.16.16h1.5V2.48l.31-.31Z"/><path class="cls-2" d="M11.12,3.18v0a.35.35,0,0,1,.32-.37h.07l.24-.24a.74.74,0,0,0-.31-.08.66.66,0,0,0-.63.68v0a.76.76,0,0,0,.06.25l.26-.26Z"/><path class="cls-2" d="M4.26,11a.16.16,0,0,0,0,.12v0a.16.16,0,0,0,0,.1.6.6,0,0,1,.18.36.35.35,0,0,1-.35.33h0a.36.36,0,0,1-.38-.31.59.59,0,0,1,.16-.37.16.16,0,0,0,0-.1v-.06A.16.16,0,0,0,3.73,11H2.24V9.7a.77.77,0,0,0,.38.11.66.66,0,0,0,.63-.67v0a.66.66,0,0,0-.63-.67.76.76,0,0,0-.39.11V7.7H1.93V8.8A.16.16,0,0,0,2.08,9h.07a.16.16,0,0,0,.1,0,.59.59,0,0,1,.37-.17.36.36,0,0,1,.32.37v0a.35.35,0,0,1-.32.36.6.6,0,0,1-.37-.17.16.16,0,0,0-.1,0H2.09a.16.16,0,0,0-.11,0,.15.15,0,0,0,0,.11v1.67a.16.16,0,0,0,.15.16h1.4a.76.76,0,0,0-.1.39.67.67,0,0,0,.7.61h0a.66.66,0,0,0,.65-.65.74.74,0,0,0-.1-.34h1V11H4.38A.16.16,0,0,0,4.26,11Z"/><path class="cls-2" d="M8.49,4.95V3.7a.77.77,0,0,0,.38.11.66.66,0,0,0,.63-.67v0a.66.66,0,0,0-.63-.67.76.76,0,0,0-.39.11V1.7H8.18V2.8A.16.16,0,0,0,8.34,3h.07a.16.16,0,0,0,.1,0,.59.59,0,0,1,.37-.17.36.36,0,0,1,.32.37v0a.35.35,0,0,1-.32.36.6.6,0,0,1-.37-.17.16.16,0,0,0-.1,0H8.34a.16.16,0,0,0-.11,0,.15.15,0,0,0,0,.11V5.1a.16.16,0,0,0,.15.16H9L9.35,5Z"/><path class="cls-2" d="M19,10.44H13.86L19.26,5a.39.39,0,0,0,0-.56l-4-4a.39.39,0,0,0-.56,0L8.48,6.64a1.61,1.61,0,0,0,0,2.27l2.2,2.2a.4.4,0,0,0,.28.12H19a.39.39,0,1,0,0-.79Zm-6.3,0H11.12L9,8.35A.82.82,0,0,1,9,7.19l1.06-1.06L13.15,9.2a.39.39,0,0,0,.58-.54L10.65,5.58,15,1.28l3.48,3.48Z"/></g></g></svg>