<svg xmlns="http://www.w3.org/2000/svg" viewBox="0 0 11 13"><title>sm-droplet</title><g id="cdc33a62-c6cf-470b-86ba-d5646f198afa" data-name="Layer 2"><g id="4c4384a2-de54-4f2f-8b2a-72995cbf2322" data-name="Layer 1"><polygon points="7 13 6 13 6 13 5 13 5 13 4 13 4 13 3 13 3 13 4 13 4 13 5 13 5 13 6 13 6 13 7 13 7 13 8 13 8 13 7 13 7 13" fill="#6c6d6d"/><polygon points="2 13 1 13 1 13 2 13 2 13 3 13 3 13 2 13 2 13" fill="#6c6d6d"/><rect y="13" width="1" height="0.52" fill="#6c6d6d"/><polygon points="10 13 10 13 10 13 10 13 11 13 11 13 10 13" fill="#6c6d6d"/><polygon points="8 13 8 13 9 13 9 13 9 13 9 13 8 13" fill="#6c6d6d"/><polygon points="6 8 6 7 5 7 5 8 5 8 5 8 5 9 5 9 6 9 6 9 6 8 6 8 6 8" fill="#6c6d6d"/><rect x="5" y="6" width="1" height="0.52" fill="#6c6d6d"/><polygon points="6 0 6 0 6 1 5 1 5 1 6 1 6 1 6 1 6 0" fill="#6c6d6d"/><polygon points="7 1 6 1 6 2 6 2 7 2 7 2 7 1" fill="#6c6d6d"/><polygon points="7 2 7 2 7 3 7 3 7 3 7 3 7 2" fill="#6c6d6d"/><rect x="7" y="3" width="1" height="0.52" fill="#6c6d6d"/><polygon points="8 4 8 4 8 4 8 5 8 5 8 4 8 4" fill="#6c6d6d"/><rect x="8" y="5" width="1" height="0.52" fill="#6c6d6d"/><polygon points="9 5 9 5 9 6 9 6 9 6 9 6 9 5" fill="#6c6d6d"/><polygon points="10 7 10 6 9 6 9 7 9 7 9 8 10 8 10 7 10 7" fill="#6c6d6d"/><polygon points="10 8 10 8 10 9 10 9 10 10 10 10 10 9 10 9 10 8 10 8 10 8" fill="#6c6d6d"/><polygon points="9 10 9 11 10 11 10 10 10 10 9 10 9 10" fill="#6c6d6d"/><rect x="9" y="11" width="1" height="0.52" fill="#6c6d6d"/><rect x="8" y="11" width="1" height="0.52" fill="#6c6d6d"/><rect x="8" y="12" width="1" height="0.52" fill="#6c6d6d"/><rect x="3" y="12" width="1" height="0.52" fill="#6c6d6d"/><rect x="2" y="11" width="1" height="0.52" fill="#6c6d6d"/><rect x="2" y="11" width="1" height="0.52" fill="#6c6d6d"/><polygon points="1 11 2 11 2 10 2 10 1 10 1 10 1 11" fill="#6c6d6d"/><polygon points="1 8 1 8 1 9 1 9 1 10 1 10 1 9 1 9 1 8 1 8 1 7 1 7 1 8" fill="#6c6d6d"/><polygon points="1 6 1 7 1 7 2 7 2 7 2 6 2 6 1 6 1 6" fill="#6c6d6d"/><polygon points="2 5 2 6 2 6 2 5 2 5 2 5 2 5" fill="#6c6d6d"/><rect x="3" y="3" width="1" height="0.52" fill="#6c6d6d"/><rect x="4" y="2" width="1" height="0.52" fill="#6c6d6d"/><rect x="4" y="2" width="1" height="0.52" fill="#6c6d6d"/><rect x="5" y="1" width="1" height="0.52" fill="#6c6d6d"/><rect x="3" y="3" width="1" height="0.52" fill="#6c6d6d"/><polygon points="2 4 2 5 3 5 3 4 3 4 2 4 2 4" fill="#6c6d6d"/><rect x="2" y="10" width="1" height="0.52" fill="#6c6d6d"/><rect x="2" y="11" width="1" height="0.52" fill="#6c6d6d"/><rect x="3" y="11" width="1" height="0.52" fill="#6c6d6d"/><polygon points="6 12 6 12 5 12 5 12 4 12 4 12 3 12 3 13 4 13 4 13 5 13 5 13 6 13 6 13 7 13 7 13 7 12 7 12 6 12" fill="#6c6d6d"/><polygon points="2 7 2 6 2 6 2 6 2 6 2 7 2 7 2 7 2 7" fill="#6c6d6d"/><polygon points="3 5 3 5 2 5 2 5 2 6 3 6 3 5" fill="#6c6d6d"/><rect x="4" y="3" width="1" height="0.52" fill="#6c6d6d"/><rect x="4" y="2" width="1" height="0.52" fill="#6c6d6d"/><rect x="5" y="2" width="1" height="0.52" fill="#6c6d6d"/><rect x="6" y="2" width="1" height="0.52" fill="#6c6d6d"/><rect x="7" y="3" width="1" height="0.52" fill="#6c6d6d"/><polygon points="8 5 8 6 8 6 9 6 9 6 9 5 8 5" fill="#6c6d6d"/><polygon points="6 2 6 1 6 1 5 1 5 2 6 2 6 2" fill="#6c6d6d"/><polygon points="8 4 7 4 7 4 7 5 8 5 8 4 8 4" fill="#6c6d6d"/><rect x="8" y="5" width="1" height="0.52" fill="#6c6d6d"/><polygon points="2 9 2 9 2 8 2 8 2 7 1 7 1 8 1 8 1 9 1 9 1 10 2 10 2 9" fill="#6c6d6d"/><polygon points="3 4 3 4 3 4 3 4 3 5 3 5 3 4" fill="#6c6d6d"/><rect x="3" y="3" width="1" height="0.52" fill="#6c6d6d"/><polygon points="3 9 3 9 3 8 3 8 3 7 2 7 2 8 2 8 2 9 2 9 2 10 2 10 3 10 3 10 3 9" fill="#6c6d6d"/><polygon points="8 10 8 11 8 11 8 10 8 10 8 10 8 10" fill="#6c6d6d"/><polygon points="8 8 8 8 8 9 8 9 8 10 9 10 9 9 9 9 9 8 9 8 8 8" fill="#6c6d6d"/><rect x="3" y="10" width="1" height="0.52" fill="#6c6d6d"/><polygon points="7 11 6 11 6 11 5 11 5 11 4 11 4 11 3 11 3 11 4 11 4 11 5 11 5 11 6 11 6 11 7 11 7 11 8 11 8 11 7 11 7 11" fill="#6c6d6d"/><polygon points="3 7 3 6 3 6 3 5 3 5 3 5 3 5 3 6 3 6 3 7 3 7 3 7 3 7" fill="#6c6d6d"/><polygon points="8 7 8 6 8 6 8 7 8 7 8 8 8 8 8 7 8 7" fill="#6c6d6d"/><polygon points="8 5 7 5 7 6 7 6 8 6 8 6 8 5" fill="#6c6d6d"/><rect x="7" y="5" width="1" height="0.52" fill="#6c6d6d"/><rect x="6" y="4" width="1" height="0.52" fill="#6c6d6d"/><rect x="5" y="3" width="1" height="0.52" fill="#6c6d6d"/><rect x="6" y="3" width="1" height="0.52" fill="#6c6d6d"/><rect x="5" y="2" width="1" height="0.52" fill="#6c6d6d"/><rect x="4" y="4" width="1" height="0.52" fill="#6c6d6d"/><polygon points="5 3 5 4 5 4 5 4 4 4 4 5 4 5 4 6 4 6 4 7 4 7 5 7 5 7 5 6 5 6 5 5 5 5 5 5 5 4 6 4 6 4 6 3 5 3" fill="#6c6d6d"/><rect x="4" y="3" width="1" height="0.52" fill="#6c6d6d"/><polygon points="2 9 2 9 2 8 2 8 2 7 2 7 2 8 2 8 2 9 2 9 2 10 2 10 2 10 2 10 2 9" fill="#6c6d6d"/><rect x="8" y="10" width="1" height="0.52" fill="#6c6d6d"/><rect x="2" y="10" width="1" height="0.52" fill="#6c6d6d"/><rect x="3" y="11" width="1" height="0.52" fill="#6c6d6d"/><rect x="8" y="11" width="1" height="0.52" fill="#6c6d6d"/><polygon points="7 11 6 11 6 11 5 11 5 11 4 11 4 11 3 11 3 12 4 12 4 12 5 12 5 12 6 12 6 12 7 12 7 12 8 12 8 11 7 11 7 11" fill="#6c6d6d"/><polygon points="3 7 3 6 3 6 2 6 2 6 2 7 2 7 3 7 3 7" fill="#6c6d6d"/><polygon points="8 6 8 7 8 7 8 8 9 8 9 7 9 7 9 6 8 6" fill="#6c6d6d"/><rect x="7" y="5" width="1" height="0.52" fill="#6c6d6d"/><rect x="4" y="3" width="1" height="0.52" fill="#6c6d6d"/><rect x="4" y="3" width="1" height="0.52" fill="#6c6d6d"/><rect x="5" y="2" width="1" height="0.52" fill="#6c6d6d"/><polygon points="6 2 6 2 5 2 5 2 6 2 6 3 6 3 6 2 6 2" fill="#6c6d6d"/><polygon points="8 5 8 5 8 6 8 6 8 6 8 6 8 5" fill="#6c6d6d"/><polygon points="7 4 7 4 7 3 7 3 6 3 6 3 6 4 6 4 7 4 7 5 7 5 7 4 7 4" fill="#6c6d6d"/><polygon points="7 10 7 10 6 10 6 10 5 10 5 10 4 10 4 10 4 10 3 10 3 9 3 9 3 8 3 8 3 7 3 7 3 8 3 8 3 9 3 9 3 10 3 10 3 10 3 11 4 11 4 11 5 11 5 11 6 11 6 11 7 11 7 11 8 11 8 10 8 10 7 10 7 10" fill="#6c6d6d"/><polygon points="8 8 8 8 8 9 8 9 8 10 8 10 8 9 8 9 8 8 8 8 8 8" fill="#6c6d6d"/><polygon points="8 7 8 6 7 6 7 7 7 7 7 8 8 8 8 7 8 7" fill="#6c6d6d"/><polygon points="4 6 4 5 4 5 4 5 4 4 4 4 4 5 3 5 3 5 3 6 3 6 4 6 4 6" fill="#6c6d6d"/><polygon points="7 5 7 5 7 5 7 4 6 4 6 5 6 5 7 5 7 6 7 6 7 6 7 6 7 5" fill="#6c6d6d"/><rect x="4" y="4" width="1" height="0.52" fill="#6c6d6d"/><rect x="5" y="3" width="1" height="0.52" fill="#6c6d6d"/><rect x="5" y="3" width="1" height="0.52" fill="#6c6d6d"/><rect x="6" y="3" width="1" height="0.52" fill="#6c6d6d"/><polygon points="7 8 7 8 7 9 7 9 7 9 7 10 6 10 6 10 5 10 5 10 4 10 4 9 4 9 4 9 4 8 4 8 4 7 3 7 3 8 3 8 3 9 3 9 3 10 4 10 4 10 4 10 5 10 5 10 6 10 6 10 7 10 7 10 7 10 8 10 8 9 8 9 8 8 8 8 7 8" fill="#6c6d6d"/><polygon points="4 7 4 6 4 6 4 5 4 5 4 6 4 6 3 6 3 7 4 7 4 7 4 7 4 7" fill="#6c6d6d"/><polygon points="7 7 7 6 7 6 7 7 7 7 7 8 7 8 7 7 7 7" fill="#6c6d6d"/><rect x="5" y="4" width="1" height="0.52" fill="#6c6d6d"/><rect x="6" y="5" width="1" height="0.52" fill="#6c6d6d"/><polygon points="7 5 6 5 6 6 6 6 7 6 7 6 7 5" fill="#6c6d6d"/><polygon points="4 8 4 8 4 8 4 8 4 9 4 9 4 9 4 9 4 8" fill="#6c6d6d"/><polygon points="6 9 5 9 5 9 4 9 4 10 5 10 5 10 6 10 6 10 7 10 7 9 6 9 6 9" fill="#6c6d6d"/><polygon points="7 8 7 8 7 9 7 9 7 9 7 9 7 8 7 8 7 8" fill="#6c6d6d"/><polygon points="7 7 7 6 6 6 6 7 6 7 6 8 7 8 7 7 7 7" fill="#6c6d6d"/><polygon points="6 5 6 5 6 6 6 6 6 6 6 6 6 5" fill="#6c6d6d"/><polygon points="6 8 6 8 6 9 6 9 5 9 5 9 5 8 5 8 4 8 4 8 4 9 4 9 5 9 5 9 6 9 6 9 7 9 7 9 7 8 7 8 6 8" fill="#6c6d6d"/><polygon points="5 7 5 6 6 6 6 6 6 5 6 5 5 5 5 5 5 5 5 6 5 6 5 7 5 7 5 7 5 7" fill="#6c6d6d"/><polygon points="6 7 6 7 6 7 6 8 6 8 6 7 6 7" fill="#6c6d6d"/><polygon points="9 8 9 7 9 7 9 6 9 6 9 7 9 7 9 8 9 8 9 9 9 9 9 10 9 10 8 10 8 11 8 11 9 11 9 11 9 11 9 10 9 10 10 10 10 9 10 9 10 8 10 8 9 8" fill="#6c6d6d"/><rect x="7" y="12" width="1" height="0.52" fill="#6c6d6d"/><rect x="8" y="11" width="1" height="0.52" fill="#6c6d6d"/></g></g></svg>