<svg xmlns="http://www.w3.org/2000/svg" viewBox="0 0 6.09 12.72"><defs><style>.cls-1{fill:#6c6d6d;}</style></defs><title>sm-item</title><g id="Layer_2" data-name="Layer 2"><g id="Layer_1-2" data-name="Layer 1"><path class="cls-1" d="M5.06,12.72H1a.5.5,0,0,1-.5-.5V9.6A.17.17,0,0,1,.7,9.43h4.7a.17.17,0,0,1,.17.17v2.62A.5.5,0,0,1,5.06,12.72Z"/><path class="cls-1" d="M5.92,9.51H.17A.17.17,0,0,1,0,9.35V7.88A.58.58,0,0,1,.58,7.3H5.51a.58.58,0,0,1,.58.58V9.35A.17.17,0,0,1,5.92,9.51ZM.34,9.18H5.75V7.88a.24.24,0,0,0-.24-.24H.58a.24.24,0,0,0-.24.24Z"/><path class="cls-1" d="M5.06,12.72H1a.5.5,0,0,1-.5-.5V9.6a.17.17,0,1,1,.34,0v2.62a.17.17,0,0,0,.17.17h4a.17.17,0,0,0,.17-.17V9.6a.17.17,0,1,1,.34,0v2.62A.5.5,0,0,1,5.06,12.72Z"/><path class="cls-1" d="M3,7.58H3L1.81,7.29h0a1.37,1.37,0,0,1-.92-1,1.13,1.13,0,0,1,.9-1.32.94.94,0,0,1,1.09.74.78.78,0,0,1-.62.91.66.66,0,0,1-.77-.52A.17.17,0,1,1,1.8,6a.32.32,0,0,0,.38.26.45.45,0,0,0,.35-.52.6.6,0,0,0-.7-.48.79.79,0,0,0-.63.92A1,1,0,0,0,1.89,7L3,7.25a.17.17,0,0,1,0,.33Z"/><path class="cls-1" d="M3,7.59a.17.17,0,0,1,0-.33L4.2,7a1,1,0,0,0,.69-.79.79.79,0,0,0-.63-.92.6.6,0,0,0-.7.48.45.45,0,0,0,.35.52A.32.32,0,0,0,4.28,6a.17.17,0,1,1,.33.06.66.66,0,0,1-.77.52.78.78,0,0,1-.62-.91.94.94,0,0,1,1.09-.74,1.13,1.13,0,0,1,.9,1.32,1.37,1.37,0,0,1-.92,1h0l-1.21.3Z"/><path class="cls-1" d="M3.44,2A4.65,4.65,0,0,0,3,2.43a1.24,1.24,0,0,1,1,.68L4,3.2a1.59,1.59,0,0,1,.06.26,1.51,1.51,0,0,1,0,.23,1.15,1.15,0,0,0,.21-.33,1.83,1.83,0,0,0,.13-.57,3.11,3.11,0,0,0,0-.41,1.53,1.53,0,0,0-.59-.52A2.35,2.35,0,0,0,4.26.57,1.76,1.76,0,0,1,4,1.36,3.09,3.09,0,0,1,3.44,2Z"/><path class="cls-1" d="M3.64,4h0a1,1,0,0,0,.26-.14L4,3.75a1.43,1.43,0,0,0,0-.22A.65.65,0,0,1,3.64,4Z"/><path class="cls-1" d="M4.52,2.56c0,.08,0,.16,0,.24a1.9,1.9,0,0,1-.16.59,1.19,1.19,0,0,1-.26.36s0,0,0,.06A1.26,1.26,0,0,1,4,4.14a1.19,1.19,0,0,1-.16.3,1.3,1.3,0,0,1-.16.18,1.59,1.59,0,0,0,1-1.48A1.35,1.35,0,0,0,4.52,2.56Z"/><path class="cls-1" d="M3.61.5A.42.42,0,0,0,3.71.16.4.4,0,0,0,3.65,0h0A.53.53,0,0,1,4.07.6,1.29,1.29,0,0,1,4,.87a1.4,1.4,0,0,1-.18.39l-.06.09a2.65,2.65,0,0,1-.58.5l-.34.21-.33.22A2.13,2.13,0,0,0,2,2.85a1.2,1.2,0,0,0-.16.38,1.39,1.39,0,0,0,0,.41,1.55,1.55,0,0,0,0,.2,1.49,1.49,0,0,0,.06.2,1.72,1.72,0,0,0,.19.36l.14.18a1.55,1.55,0,0,1-.8-1.41c0-.12,0-.24,0-.35a2.81,2.81,0,0,1,1-1.23l.06,0a4,4,0,0,0,1-.93Z"/><path class="cls-1" d="M4,4.13A1.21,1.21,0,0,0,4,3.8H4L4,3.85A1,1,0,0,1,3.68,4L3.55,4h0L3.46,4a1,1,0,0,1-.76-.26c-.44-.38-.22-1,.07-1.36l.55-.55.26-.26a3.11,3.11,0,0,1-.35.27l-.34.22-.33.23A2.08,2.08,0,0,0,2,2.88a1.14,1.14,0,0,0-.14.36,1.32,1.32,0,0,0,0,.39,1.52,1.52,0,0,0,.27.72,2.25,2.25,0,0,0,.25.3A1.56,1.56,0,0,0,3,4.77a1.71,1.71,0,0,0,.62-.12,1.31,1.31,0,0,0,.21-.23A1.15,1.15,0,0,0,4,4.13Z"/><path class="cls-1" d="M3.53.49c-.22,0-.84.07-1.07,1l0,0a3.12,3.12,0,0,0-1,1.06C1.72-.14,3.35,0,3.35,0h.08a.22.22,0,0,1,.2.17h0a.36.36,0,0,1-.09.29Z"/><rect class="cls-1" x="2.91" y="4.49" width="0.26" height="2.85"/></g></g></svg>