<?xml version="1.0" encoding="utf-8"?>
<!-- Generator: Adobe Illustrator 23.0.0, SVG Export Plug-In . SVG Version: 6.00 Build 0)  -->
<svg version="1.1" id="Layer_1" xmlns="http://www.w3.org/2000/svg" xmlns:xlink="http://www.w3.org/1999/xlink" x="0px" y="0px"
	 viewBox="0 0 1000 1000" style="enable-background:new 0 0 1000 1000;" xml:space="preserve">
<style type="text/css">
	.st0{fill:#4F4C4D;}
</style>
<g>
	<path class="st0" d="M770.5,231.4c-35.6,1.8-69.3-41.2-81.7-54.3l-67.2-68.2c-29.8-29.8-50.5-42-122.2-40.5H126.2
		C61.8,68.4,10,121.2,10,185.6v116.6v513.2c0,64.4,51.8,116.3,116.2,116.3h746.4c64.4,0,117.4-51.9,117.4-116.3V348.9
		c0-64.4-53-117.2-117.4-117.2L770.5,231.4z M78.8,185.4c0-25.8,21.6-46.7,47.4-46.7h373.2c42.7,0,48.9,1.3,93.3,46.7l70,70
		c20.9,20.3,38.5,46.6,92,46.6l117.9-0.1c25.8,0,47.1,21.1,47.1,46.9v466.5c0,25.8-21.3,46-47.1,46H126.2c-25.8,0-47.4-20.2-47.4-46
		C78.8,815.3,78.8,185.4,78.8,185.4z M564,366.4c13.4-13.5,35.2-13.5,48.6,0l135.2,126.1c26,26,32.7,38,32.7,64.5
		c0,25.5-8.9,41.3-30.4,62.8l-136,126.6c-13.4,13.5-35.2,13.5-48.6,0c-13.4-13.5-13.4-35.5,0-49l84.4-79.6l27.2-24.5
		c0-0.1-380.9-0.1-418.9-0.1c-0.9,0.1-1.8,0.1-2.8,0.1c-19.5,0-35.3-15.8-35.3-35.3c0-19.4,15.8-35.2,35.2-35.3v-0.1l422.4-0.7
		L564,415.4C550.6,401.8,550.6,379.9,564,366.4z"/>
</g>
</svg>
