<svg xmlns="http://www.w3.org/2000/svg" viewBox="0 0 9.79 9.79"><defs><style>.cls-1{fill:#6c6d6d;}</style></defs><title>sm-nutri</title><g id="Layer_2" data-name="Layer 2"><g id="Layer_1-2" data-name="Layer 1"><polygon class="cls-1" points="9.46 0 9.46 0.33 9.46 0.33 9.46 0 9.13 0 9.13 0.33 8.81 0.33 8.81 0.65 8.81 0.65 8.81 0.98 8.81 1.3 9.13 1.3 9.13 0.98 9.13 0.65 9.13 0.65 9.13 0.33 9.13 0.33 9.13 0.65 9.13 0.98 9.46 0.98 9.46 0.65 9.79 0.65 9.79 0.33 9.79 0 9.46 0"/><path class="cls-1" d="M8.81,1.63V1h0V.65H8.48V1H7.83V.65H6.53V1H5.87v.33H5.55v.33H5.22V1.31H4.57V2h.33v.33H4.57v.33H4.24v.33H3.91v.33H3.59v.33H3.26v.33H2.94v.33H2.61v.33H2.28v.33H2v.33H1.63v.33H1.3v.33H1V6.2H.65v.65H.33V8.48H0V9.79H1.3V9.46H2.94V9.14h.65V8.81h.33V8.48h.33V8.16h.33V7.83h.33V7.51h.33V7.18h.33V6.85h.33V6.53H6.2V6.2h.33V5.87h.33V5.55h.33V5.22h0v0H7.5V4.89h.33v.33h.65V4.57H8.16V4.24h.33V3.92h.33V3.26h.33V2H8.81Zm-2,3.59h0Zm.33-.32H6.85v0H2.94V4.57h.33V4.24h.33V3.92h.33V3.59h.33V3.26h.33V2.94h.33V2.61h.65v.33h.33v.33H6.2v.33h.33v.33h.33v.33h.33v.65Z"/></g></g></svg>