<svg xmlns="http://www.w3.org/2000/svg" viewBox="0 0 7.59 11.64"><defs><style>.cls-1{fill:#6c6d6d;}</style></defs><title>sm-planting</title><g id="Layer_2" data-name="Layer 2"><g id="Layer_1-2" data-name="Layer 1"><polygon class="cls-1" points="6 8.03 6 7.63 6.41 7.63 6.41 7.23 6.81 7.23 6.81 6.03 6.81 5.62 5.2 5.62 5.2 6.03 4.8 6.03 4.8 6.43 4.4 6.43 4.4 7.63 4.4 8.03 4.8 8.03 6 8.03"/><polygon class="cls-1" points="6 4.82 6 4.42 6.41 4.42 6.41 3.21 6.41 2.81 4.8 2.81 4.8 3.21 4.4 3.21 4.4 4.42 4.4 4.82 4.8 4.82 6 4.82"/><polygon class="cls-1" points="3.19 7.23 2.79 7.23 2.79 6.83 2.39 6.83 2.39 6.43 0.78 6.43 0.78 6.83 0.78 8.03 1.18 8.03 1.18 8.44 1.59 8.44 1.59 8.84 2.79 8.84 3.19 8.84 3.19 8.44 3.19 7.23"/><polygon class="cls-1" points="3.19 3.62 2.79 3.62 2.79 3.21 1.18 3.21 1.18 3.62 1.18 4.82 1.59 4.82 1.59 5.22 2.79 5.22 3.19 5.22 3.19 4.82 3.19 3.62"/><path class="cls-1" d="M7.19,10.84v-.4h-.4v-.8h-.4v-.4h-.8v-.4h-.4v.4H4v-.8h.4V8H4V5.22h.4v-.4H4v-2h.4v-.4h.4V.8H4.4V.4H4V0h-.4V.4h-.4V.8h-.4V2.41h.4v.4h.4V5.22h-.4v.4h.4V8.84h-.4v.4H.8v1.2H.4v.4H0v.8H7.59v-.8Zm-4-1.2h0Zm1.2,0h0Zm-.8-.4h0Z"/></g></g></svg>