<svg xmlns="http://www.w3.org/2000/svg" viewBox="0 0 15.59 11.99"><defs><style>.cls-1{fill:#6c6d6d;}</style></defs><title>sm-purchase</title><g id="Layer_2" data-name="Layer 2"><g id="Layer_1-2" data-name="Layer 1"><path class="cls-1" d="M3.6,5.1c-2,0-3.6-.67-3.6-1.5v.9C0,5.32,1.61,6,3.6,6s3.6-.67,3.6-1.5V3.6C7.19,4.42,5.58,5.1,3.6,5.1Zm0-1.5c-2,0-3.6-.67-3.6-1.5V3c0,.83,1.61,1.5,3.6,1.5s3.6-.67,3.6-1.5V2.1C7.19,2.93,5.58,3.6,3.6,3.6ZM3.6,0C1.61,0,0,.67,0,1.5S1.61,3,3.6,3s3.6-.67,3.6-1.5S5.58,0,3.6,0ZM12,5.1c-2,0-3.6-.67-3.6-1.5v.9C8.39,5.32,10,6,12,6s3.6-.67,3.6-1.5V3.6C15.59,4.42,14,5.1,12,5.1Zm0-3.6c-2,0-3.6.67-3.6,1.5S10,4.5,12,4.5s3.6-.67,3.6-1.5S14,1.5,12,1.5ZM4,6.59H3.6c-2,0-3.6-.67-3.6-1.5V6c0,.83,1.61,1.5,3.6,1.5h0A1.35,1.35,0,0,1,4,6.59Zm-4,0v.9C0,8.32,1.61,9,3.6,9v-.9C1.61,8.09,0,7.42,0,6.59Zm12,.9c2,0,3.6-.67,3.6-1.5V5.1c0,.83-1.61,1.5-3.6,1.5h-.36a1.35,1.35,0,0,1,.36.91Zm3.6,0v-.9c0,.83-1.61,1.5-3.6,1.5V9C14,9,15.59,8.32,15.59,7.49ZM7.79,9.59c-2,0-3.6-.67-3.6-1.5V9c0,.83,1.61,1.5,3.6,1.5s3.6-.67,3.6-1.5v-.9C11.39,8.92,9.78,9.59,7.79,9.59Zm0,1.5c-2,0-3.6-.67-3.6-1.5v.9c0,.83,1.61,1.5,3.6,1.5s3.6-.67,3.6-1.5v-.9C11.39,10.42,9.78,11.09,7.79,11.09Zm0-5.1c-2,0-3.6.67-3.6,1.5S5.81,9,7.79,9s3.6-.67,3.6-1.5S9.78,6,7.79,6Z"/></g></g></svg>