<svg id="Layer_1" data-name="Layer 1" xmlns="http://www.w3.org/2000/svg" viewBox="0 0 451.35 336"><defs><style>.cls-1{fill:#6c6e6d;}</style></defs><title>icon thư(bloolanf)</title><path class="cls-1" d="M332,0H41.78A41.78,41.78,0,0,0,0,41.78V208a41.78,41.78,0,0,0,41.78,41.78H220.46a23.81,23.81,0,0,1,5.12-16.16l14.62-18.47a24,24,0,0,1,30-6.39c8.94,4.7,24.84,14.27,37.91,28.59C319.48,219.57,341,191,373.73,167.93V41.78A41.78,41.78,0,0,0,332,0ZM319.37,75.14c-13.38,10.23-27,20.1-40.7,29.77Q265.74,114,252.6,122.8l73.89,76-94.81-62.21c-5.25,3.4-10.51,6.77-15.76,10.17l-21.3,13.34-7,4.41-7.06-4.39L159,146.83c-4.76-3.06-11.67-7.46-11.67-7.46L43.51,207.52l80.83-83.18Q110,114.79,95.77,104.92c-13.84-9.67-27.55-19.55-41-29.78S27.89,54.42,15,43.12C31,49.42,46.34,56.56,61.62,63.88s30.29,15.08,45.2,23,29.63,16.15,44.27,24.52c7.33,4.17,14.56,8.5,21.84,12.74l14.59,8.79L202,124.17c7.23-4.24,14.4-8.57,21.67-12.74,14.52-8.38,29.13-16.61,43.93-24.53s29.73-15.65,44.87-23,30.45-14.47,46.25-20.77C346,54.42,332.72,64.87,319.37,75.14Z"/><path class="cls-1" d="M314.38,269.85c-13-22.84-36.67-37.73-49.88-44.67a12.68,12.68,0,0,0-15.82,3.39L232.5,249a12.75,12.75,0,0,0,4.73,19.47c35.25,16.5,58.55,45.15,70.6,63.29a9.48,9.48,0,0,0,16.7-1.77c44.91-111.49,126.82-180,126.82-180C357.89,179.86,314.38,269.85,314.38,269.85Z"/></svg>