<svg xmlns="http://www.w3.org/2000/svg" viewBox="0 0 20.4 12.3"><defs><style>.cls-1{fill:none;}.cls-2{fill:#6c6d6d;}</style></defs><title>sm-remove-land</title><g id="Layer_2" data-name="Layer 2"><g id="Layer_1-2" data-name="Layer 1"><rect class="cls-1" width="20.4" height="12.3"/><path class="cls-1" d="M11.13,10.29h-.05a2.72,2.72,0,0,0,.39.46.42.42,0,0,0,0-.14A.36.36,0,0,0,11.13,10.29Z"/><path class="cls-2" d="M9.14,7h.15V5.82a.74.74,0,0,0,.34.1.66.66,0,0,0,.65-.65v0h0a.67.67,0,0,0-.61-.69.76.76,0,0,0-.39.1V3.24a.16.16,0,0,0-.15-.16H7.46a.16.16,0,0,0-.11,0,.16.16,0,0,0,0,.11v.07a.15.15,0,0,0,0,.1.59.59,0,0,1,.17.37.35.35,0,0,1-.36.32h0a.36.36,0,0,1-.37-.32.59.59,0,0,1,.17-.37.15.15,0,0,0,0-.1V3.24a.16.16,0,0,0-.15-.16H5.17A.16.16,0,0,0,5,3.23V4.63a.75.75,0,0,0-.37-.1A.66.66,0,0,0,4,5.2v0a.67.67,0,0,0,.63.67A.75.75,0,0,0,5,5.8v1.4a.16.16,0,0,0,.15.15H6.84a.16.16,0,0,0,.11,0,.15.15,0,0,0,0-.11v0a.16.16,0,0,0,0-.1.59.59,0,0,1-.17-.37.35.35,0,0,1,.36-.32h0a.36.36,0,0,1,.37.32.56.56,0,0,1-.17.36.15.15,0,0,0,0,.1v0a.16.16,0,0,0,.15.16H9v-.2A.16.16,0,0,1,9.14,7Zm1-1.76h0Z"/><path class="cls-2" d="M9.86,8.8A3.42,3.42,0,0,1,10.38,7H9.29v.2a.16.16,0,0,1-.16.16H9V8.55a.76.76,0,0,0-.37-.1A.66.66,0,0,0,8,9.12v0a.67.67,0,0,0,.63.67A.75.75,0,0,0,9,9.72v1.4a.16.16,0,0,0,.15.15h1.66a.15.15,0,0,0,.07,0A3.45,3.45,0,0,1,9.86,8.8Z"/><path class="cls-2" d="M9.25,7.31a.15.15,0,0,0,0-.11V7H9.14A.16.16,0,0,0,9,7.15v.2h.15A.15.15,0,0,0,9.25,7.31Z"/><path class="cls-2" d="M11.46,1.36h1.26a.16.16,0,0,0,.11,0,.16.16,0,0,0,0-.11V1.14a.16.16,0,0,0,0-.1.6.6,0,0,1-.18-.37A.35.35,0,0,1,13,.36h0a.36.36,0,0,1,.38.32.59.59,0,0,1-.17.37.16.16,0,0,0,0,.1V1.2a.16.16,0,0,0,.16.16h1.5V2.6a.76.76,0,0,0-.38-.11.66.66,0,0,0-.62.68v0a.67.67,0,0,0,.63.67.76.76,0,0,0,.38-.11v.92h.31V3.49A.16.16,0,0,0,15,3.34H15a.16.16,0,0,0-.1,0,.59.59,0,0,1-.36.17.36.36,0,0,1-.32-.36v0a.35.35,0,0,1,.31-.37.6.6,0,0,1,.37.17.16.16,0,0,0,.1,0H15a.16.16,0,0,0,.11,0,.17.17,0,0,0,0-.11V1.2A.16.16,0,0,0,15,1h-1.4a.75.75,0,0,0,.1-.37A.67.67,0,0,0,13,0h0a.66.66,0,0,0-.66.63.75.75,0,0,0,.1.36h-1Z"/><path class="cls-2" d="M7.32,11a.16.16,0,0,0,0,.12v0a.15.15,0,0,0,0,.1.6.6,0,0,1,.18.36.35.35,0,0,1-.35.33h0a.36.36,0,0,1-.38-.31.59.59,0,0,1,.16-.37.16.16,0,0,0,0-.1v-.06A.16.16,0,0,0,6.79,11H5.3V9.69a.77.77,0,0,0,.38.11.66.66,0,0,0,.63-.67v0a.66.66,0,0,0-.63-.67.75.75,0,0,0-.38.11V7.7H5v1.1A.16.16,0,0,0,5.15,9h.07a.16.16,0,0,0,.1,0,.59.59,0,0,1,.37-.17A.36.36,0,0,1,6,9.11v0a.35.35,0,0,1-.32.36.6.6,0,0,1-.37-.17.15.15,0,0,0-.1,0H5.15a.16.16,0,0,0-.11,0,.15.15,0,0,0,0,.11V11.1a.16.16,0,0,0,.15.16h1.4a.75.75,0,0,0-.1.38.67.67,0,0,0,.7.61h0a.66.66,0,0,0,.65-.65.74.74,0,0,0-.1-.34h1V11H7.43A.16.16,0,0,0,7.32,11Z"/><path class="cls-2" d="M13.15,5.28a.15.15,0,0,0,0-.1V5.12A.16.16,0,0,0,13,5H11.54V3.7a.77.77,0,0,0,.38.11.66.66,0,0,0,.63-.67v0a.66.66,0,0,0-.63-.67.76.76,0,0,0-.39.11V1.71h-.31v1.1a.16.16,0,0,0,.16.16h.07a.16.16,0,0,0,.1,0,.59.59,0,0,1,.37-.17.36.36,0,0,1,.32.37v0a.35.35,0,0,1-.32.36.6.6,0,0,1-.37-.17.16.16,0,0,0-.1,0h-.07a.16.16,0,0,0-.11,0,.15.15,0,0,0,0,.11V5.11a.16.16,0,0,0,.15.16h1.4a.85.85,0,0,0-.05.13l.36,0Z"/><path class="cls-2" d="M14,5.28h1V5H13.67a.16.16,0,0,0-.11,0,.16.16,0,0,0,0,.12v0a.16.16,0,0,0,0,.1l.08.11a3.51,3.51,0,0,1,.35,0A.74.74,0,0,0,14,5.28Z"/><path class="cls-2" d="M13.91,5.8l-.31,0-.28,0-.2,0-.32,0a3,3,0,1,0,1.12,0Zm-.59,5.38a2.37,2.37,0,0,1-.94-.2,2.51,2.51,0,0,1-1-.87,2.38,2.38,0,1,1,2,1.06Z"/><path class="cls-2" d="M14.83,8.33h-3a.47.47,0,0,0,0,.94h3a.47.47,0,1,0,0-.94Z"/></g></g></svg>