<svg xmlns="http://www.w3.org/2000/svg" viewBox="0 0 10.91 12.46"><defs><style>.cls-1{fill:#6c6d6d;}</style></defs><title>sm-recycle</title><g id="Layer_2" data-name="Layer 2"><g id="Layer_1-2" data-name="Layer 1"><path class="cls-1" d="M.78,10.55A1.92,1.92,0,0,0,2.7,12.46H8.22a1.92,1.92,0,0,0,1.92-1.92V3.11H.78Z"/><path class="cls-1" d="M10.44.83H8.51A1.15,1.15,0,0,0,7.41,0H3.51a1.15,1.15,0,0,0-1.1.83H.47A.47.47,0,0,0,0,1.31v.52a.47.47,0,0,0,.47.47h10a.47.47,0,0,0,.47-.47V1.31A.47.47,0,0,0,10.44.83Z"/></g></g></svg>