<svg xmlns="http://www.w3.org/2000/svg" viewBox="0 0 20.4 12.3"><defs><style>.cls-1{fill:none;}.cls-2{fill:#6c6d6d;}</style></defs><title>sm-sell-land</title><g id="Layer_2" data-name="Layer 2"><g id="Layer_1-2" data-name="Layer 1"><rect class="cls-1" width="20.4" height="12.3"/><path class="cls-2" d="M9.9,7.32a.16.16,0,0,1-.11,0H8.13A.16.16,0,0,1,8,7.2v0a.15.15,0,0,1,0-.1.56.56,0,0,0,.17-.36.36.36,0,0,0-.37-.32h0a.35.35,0,0,0-.36.32.59.59,0,0,0,.17.37.16.16,0,0,1,0,.1v0a.15.15,0,0,1,0,.11.16.16,0,0,1-.11,0H5.83a.16.16,0,0,1-.15-.15V5.8a.75.75,0,0,1-.36.1.67.67,0,0,1-.63-.67v0a.66.66,0,0,1,.62-.68.75.75,0,0,1,.37.1V3.24a.16.16,0,0,1,.16-.16H7.48a.16.16,0,0,1,.15.16v.07a.16.16,0,0,1,0,.1.59.59,0,0,0-.17.37.36.36,0,0,0,.37.32h0a.35.35,0,0,0,.36-.32A.59.59,0,0,0,8,3.42a.16.16,0,0,1,0-.1V3.25a.16.16,0,0,1,0-.11.16.16,0,0,1,.11,0H9.78a.16.16,0,0,1,.15.15v1.4a.76.76,0,0,1,.38-.1.67.67,0,0,1,.61.69h0v0a.66.66,0,0,1-.65.65.74.74,0,0,1-.34-.1V7.21A.16.16,0,0,1,9.9,7.32Zm.88-2.07h0Z"/><path class="cls-2" d="M13.87,11.23a.16.16,0,0,1-.11,0H12.1a.16.16,0,0,1-.15-.16v0a.16.16,0,0,1,0-.1.56.56,0,0,0,.17-.36.36.36,0,0,0-.37-.32h0a.35.35,0,0,0-.36.32.59.59,0,0,0,.17.37.16.16,0,0,1,0,.1v0a.16.16,0,0,1-.16.16H9.8a.16.16,0,0,1-.15-.15V9.72a.75.75,0,0,1-.36.1.67.67,0,0,1-.63-.67v0a.66.66,0,0,1,.62-.68.75.75,0,0,1,.37.1V7.16A.16.16,0,0,1,9.79,7h1.65a.16.16,0,0,1,.15.16v.07a.16.16,0,0,1,0,.1.59.59,0,0,0-.17.37.36.36,0,0,0,.37.32h0a.35.35,0,0,0,.36-.32A.59.59,0,0,0,12,7.34a.16.16,0,0,1,0-.1V7.17a.16.16,0,0,1,0-.11.15.15,0,0,1,.11,0h1.66a.16.16,0,0,1,.15.15v1.4a.76.76,0,0,1,.38-.1.67.67,0,0,1,.61.69h0v0a.66.66,0,0,1-.65.65.75.75,0,0,1-.34-.1v1.38A.16.16,0,0,1,13.87,11.23Zm.88-2.07h0Z"/><path class="cls-2" d="M15.83,4.68h-.31V3.75a.76.76,0,0,1-.38.11.67.67,0,0,1-.63-.67v0a.66.66,0,0,1,.62-.68.76.76,0,0,1,.38.11V1.36H14a.16.16,0,0,1-.16-.16V1.14a.16.16,0,0,1,0-.1.59.59,0,0,0,.17-.37.36.36,0,0,0-.38-.32h0a.35.35,0,0,0-.36.32.6.6,0,0,0,.18.37.16.16,0,0,1,0,.1V1.2a.16.16,0,0,1,0,.11.16.16,0,0,1-.11,0H12.11V1.05h1A.75.75,0,0,1,13,.69a.66.66,0,0,1,.66-.63h0a.67.67,0,0,1,.68.62.75.75,0,0,1-.1.37h1.39a.16.16,0,0,1,.16.15V2.86a.17.17,0,0,1,0,.11.16.16,0,0,1-.11,0h-.07a.16.16,0,0,1-.1,0,.59.59,0,0,0-.37-.17.35.35,0,0,0-.31.37v0a.36.36,0,0,0,.32.36.59.59,0,0,0,.36-.17.16.16,0,0,1,.1,0h.07a.16.16,0,0,1,.16.15Z"/><path class="cls-2" d="M9.33,11.28h-1a.74.74,0,0,1,.1.34.66.66,0,0,1-.65.65h0a.67.67,0,0,1-.69-.61.76.76,0,0,1,.1-.38H5.79a.16.16,0,0,1-.15-.16V9.44a.15.15,0,0,1,0-.11.16.16,0,0,1,.11,0h.07a.16.16,0,0,1,.1,0,.6.6,0,0,0,.37.17.35.35,0,0,0,.32-.36v0a.36.36,0,0,0-.32-.37A.59.59,0,0,0,6,8.91a.16.16,0,0,1-.1,0H5.8a.16.16,0,0,1-.16-.16V7.7H6v.84a.75.75,0,0,1,.38-.11A.66.66,0,0,1,7,9.11v0a.66.66,0,0,1-.63.67.77.77,0,0,1-.38-.11v1.25H7.44a.16.16,0,0,1,.15.16v.06a.16.16,0,0,1,0,.1.59.59,0,0,0-.16.37.36.36,0,0,0,.38.31h0a.35.35,0,0,0,.35-.33A.59.59,0,0,0,8,11.26a.16.16,0,0,1,0-.1v0A.16.16,0,0,1,8,11a.16.16,0,0,1,.11,0H9.33Z"/><path class="cls-2" d="M15.57,5.29h-1a.74.74,0,0,1,.1.34.66.66,0,0,1-.65.65h0a.67.67,0,0,1-.69-.61.76.76,0,0,1,.1-.38H12a.16.16,0,0,1-.15-.16V3.45a.15.15,0,0,1,0-.11.16.16,0,0,1,.11,0h.07a.16.16,0,0,1,.1,0,.6.6,0,0,0,.37.17.35.35,0,0,0,.32-.36v0a.36.36,0,0,0-.32-.37.59.59,0,0,0-.37.17.16.16,0,0,1-.1,0H12a.16.16,0,0,1-.16-.16V1.71h.31v.84a.75.75,0,0,1,.38-.11.66.66,0,0,1,.63.67v0a.66.66,0,0,1-.63.67.77.77,0,0,1-.38-.11V5h1.49a.16.16,0,0,1,.15.16v.06a.16.16,0,0,1,0,.1.59.59,0,0,0-.16.37A.36.36,0,0,0,14,6h0a.35.35,0,0,0,.35-.33.59.59,0,0,0-.18-.36.16.16,0,0,1,0-.1v0a.16.16,0,0,1,0-.12.16.16,0,0,1,.11,0h1.25Z"/></g></g></svg>