<svg xmlns="http://www.w3.org/2000/svg" viewBox="0 0 11.52 13.19"><defs><style>.cls-1{fill:#6c6d6d;}</style></defs><title>sm-sendblood</title><g id="Layer_2" data-name="Layer 2"><g id="Layer_1-2" data-name="Layer 1"><path class="cls-1" d="M7.32,2.66H6.4V4.43A.44.44,0,0,1,6,4.87H5.07a.44.44,0,0,1-.44-.44V2.66H3.7a.32.32,0,0,1-.24-.53L5.1.19a.54.54,0,0,1,.82,0L7.56,2.13A.32.32,0,0,1,7.32,2.66ZM2.66,9.21C1.19,9.21,0,8.71,0,8.1v.66c0,.61,1.19,1.11,2.66,1.11s2.66-.5,2.66-1.11V8.1C5.32,8.71,4.13,9.21,2.66,9.21Zm0-1.11C1.19,8.1,0,7.6,0,7v.66c0,.61,1.19,1.11,2.66,1.11s2.66-.5,2.66-1.11V7C5.32,7.6,4.13,8.1,2.66,8.1Zm0-2.66C1.19,5.44,0,5.94,0,6.55S1.19,7.66,2.66,7.66s2.66-.5,2.66-1.11S4.13,5.44,2.66,5.44Zm6.2,3.77c-1.47,0-2.66-.5-2.66-1.11v.66c0,.61,1.19,1.11,2.66,1.11s2.66-.5,2.66-1.11V8.1C11.52,8.71,10.33,9.21,8.86,9.21Zm0-2.66C7.39,6.55,6.2,7,6.2,7.66S7.39,8.76,8.86,8.76s2.66-.5,2.66-1.11S10.33,6.55,8.86,6.55ZM2.92,10.31H2.66C1.19,10.31,0,9.82,0,9.21v.66C0,10.48,1.19,11,2.66,11h0A1,1,0,0,1,2.92,10.31ZM8.86,11c1.47,0,2.66-.5,2.66-1.11V9.21c0,.61-1.19,1.11-2.66,1.11H8.59a1,1,0,0,1,.27.67Zm-3.1,1.55c-1.47,0-2.66-.5-2.66-1.11v.66c0,.61,1.19,1.11,2.66,1.11s2.66-.5,2.66-1.11v-.66C8.42,12,7.23,12.53,5.76,12.53Zm0-2.66c-1.47,0-2.66.5-2.66,1.11s1.19,1.11,2.66,1.11,2.66-.5,2.66-1.11S7.23,9.87,5.76,9.87Z"/></g></g></svg>