<svg xmlns="http://www.w3.org/2000/svg" viewBox="0 0 13.28 13.28"><defs><style>.cls-1{fill:#603813;}.cls-2{fill:#754c24;}.cls-3{fill:#999290;}.cls-4{fill:#6d6460;}.cls-5{fill:#534741;}</style></defs><title>sm-shovel</title><g id="Layer_2" data-name="Layer 2"><g id="Layer_1-2" data-name="Layer 1"><rect class="cls-1" x="9.92" y="2.62" width="0.67" height="0.67"/><rect class="cls-1" x="9.25" y="3.29" width="0.67" height="0.67"/><rect class="cls-1" x="8.58" y="3.96" width="0.67" height="0.67"/><rect class="cls-1" x="7.91" y="4.63" width="0.67" height="0.67"/><rect class="cls-1" x="7.24" y="5.3" width="0.67" height="0.67"/><rect class="cls-1" x="6.64" y="5.97" width="0.6" height="0.67"/><rect class="cls-1" x="5.97" y="6.64" width="0.67" height="0.67"/><rect class="cls-1" x="5.3" y="7.31" width="0.67" height="0.6"/><rect class="cls-1" x="4.63" y="7.91" width="0.67" height="0.67"/><rect class="cls-2" x="9.25" y="2.62" width="0.67" height="0.67"/><rect class="cls-2" x="8.58" y="3.29" width="0.67" height="0.67"/><rect class="cls-2" x="7.91" y="3.96" width="0.67" height="0.67"/><rect class="cls-2" x="7.24" y="4.63" width="0.67" height="0.67"/><rect class="cls-2" x="6.64" y="5.3" width="0.6" height="0.67"/><rect class="cls-2" x="5.97" y="5.97" width="0.67" height="0.67"/><rect class="cls-2" x="5.3" y="6.64" width="0.67" height="0.67"/><rect class="cls-2" x="4.63" y="7.31" width="0.67" height="0.6"/><polygon class="cls-3" points="2.62 11.94 1.95 11.94 1.27 11.94 0.6 11.94 0.6 12.61 1.27 12.61 1.95 12.61 2.62 12.61 3.29 12.61 3.29 11.94 2.62 11.94"/><polygon class="cls-4" points="2.62 7.31 2.62 7.91 1.95 7.91 1.95 8.58 1.27 8.58 1.27 9.25 0.6 9.25 0.6 9.92 1.27 9.92 1.95 9.92 1.95 9.25 2.62 9.25 2.62 8.58 3.29 8.58 3.29 7.91 3.29 7.31 2.62 7.31"/><polygon class="cls-5" points="13.24 1.27 12.61 1.27 12.61 1.95 12.61 2.62 13.24 2.62 13.28 2.62 13.28 1.95 13.28 1.27 13.24 1.27"/><rect class="cls-5" x="11.94" y="0.67" width="0.67" height="0.6"/><polygon class="cls-5" points="11.27 2.62 10.6 2.62 10.6 3.29 11.27 3.29 11.94 3.29 12.61 3.29 12.61 2.62 11.94 2.62 11.27 2.62"/><polygon class="cls-5" points="11.94 0.67 11.94 0 11.27 0 10.6 0 10.6 0.67 11.27 0.67 11.94 0.67"/><polygon class="cls-5" points="10.6 1.27 10.6 0.67 9.92 0.67 9.92 1.27 9.92 1.95 9.92 2.62 10.6 2.62 10.6 1.95 10.6 1.27"/><path class="cls-5" d="M6,9.25H5.3V8.58H4.63V7.91H4v-.6H3.29V8.58H2.62v.67H1.94v.67H.6V9.25H0v4H4v-.67h.67v-.67H5.3v-.67H6v-.67h.67V9.92H6ZM2.62,12.61H.6v-.67H3.29v.67Z"/><rect class="cls-5" x="2.62" y="6.64" width="0.67" height="0.67"/><rect class="cls-5" x="1.94" y="7.31" width="0.67" height="0.6"/><rect class="cls-5" x="1.27" y="7.91" width="0.67" height="0.67"/><rect class="cls-5" x="0.6" y="8.58" width="0.67" height="0.67"/></g></g></svg>