<svg xmlns="http://www.w3.org/2000/svg" viewBox="0 0 20.77 15.49"><defs><style>.cls-1{fill:#6c6d6d;}</style></defs><title>sm-send-mail</title><g id="Layer_2" data-name="Layer 2"><g id="Layer_1-2" data-name="Layer 1"><path class="cls-1" d="M16.21,0V1.71a4,4,0,0,0-3.53,3.92h0a5,5,0,0,1,3.51-1.39h0V6.06l2.08-1.38,2-1.35.45-.3Z"/><path class="cls-1" d="M7.6,9.6l.23,0A.65.65,0,0,0,8,9.52a.41.41,0,0,0,.16-.15h0a.38.38,0,0,0,.06-.2.43.43,0,0,0-.08-.25A.41.41,0,0,0,8,8.76l-.08,0a.42.42,0,0,1-.33.16h0a.41.41,0,0,1-.32-.15V9.6H7.6Z"/><path class="cls-1" d="M7.55,8.07a.41.41,0,0,1,.29.12l.06,0A.3.3,0,0,0,8,8a.34.34,0,0,0,.05-.17A.35.35,0,0,0,8,7.7a.31.31,0,0,0-.11-.12.46.46,0,0,0-.15-.06l-.21,0H7.23v.72a.41.41,0,0,1,.32-.15Z"/><path class="cls-1" d="M8,11.86l6.81-5.62a.7.7,0,0,0-.47-.19H.71a.7.7,0,0,0-.47.19L7,11.86A.82.82,0,0,0,8,11.86ZM6.81,10.12a.06.06,0,0,1,0,0l-.05,0H6.42l-.05,0a.08.08,0,0,1,0-.05.5.5,0,0,1,.37-.47V7.46A.5.5,0,0,1,6.35,7a.08.08,0,0,1,.08-.08h.31A.08.08,0,0,1,6.82,7s0,0,0,0H7.5a2.17,2.17,0,0,1,.37,0,.89.89,0,0,1,.34.14.84.84,0,0,1,.27.3.81.81,0,0,1,.1.4.74.74,0,0,1-.1.38.83.83,0,0,1-.13.17.83.83,0,0,1,.24.24.89.89,0,0,1,.14.49.91.91,0,0,1-.11.42.84.84,0,0,1-.3.32,1.06,1.06,0,0,1-.42.15l-.42,0H6.87S6.81,10.11,6.81,10.12Z"/><path class="cls-1" d="M8.08,12.77a.87.87,0,0,1-1.07,0L0,7v7.8a.71.71,0,0,0,.71.71H14.38a.71.71,0,0,0,.71-.71V7Zm-3.73-1L1,14.88a.29.29,0,0,1-.2.08.3.3,0,0,1-.21-.51l3.3-3.14a.3.3,0,1,1,.41.43Zm10.11,3.13a.3.3,0,0,1-.42,0l-3.3-3.14a.3.3,0,1,1,.41-.43l3.3,3.14A.3.3,0,0,1,14.46,14.87Z"/></g></g></svg>