<svg xmlns="http://www.w3.org/2000/svg" viewBox="0 0 13.28 13.28"><defs><style>.cls-1{fill:#6c6d6d;}</style></defs><title>sm-shovel-2</title><g id="Layer_2" data-name="Layer 2"><g id="Layer_1-2" data-name="Layer 1"><polygon class="cls-1" points="13.24 1.27 12.61 1.27 12.61 1.95 12.61 2.62 13.24 2.62 13.28 2.62 13.28 1.95 13.28 1.27 13.24 1.27"/><rect class="cls-1" x="11.94" y="0.67" width="0.67" height="0.6"/><polygon class="cls-1" points="11.27 2.62 10.6 2.62 10.6 1.95 10.6 1.27 10.6 0.67 9.92 0.67 9.92 1.27 9.92 1.95 9.92 2.62 9.25 2.62 9.25 3.29 8.58 3.29 8.58 3.96 7.91 3.96 7.91 4.63 7.24 4.63 7.24 5.3 6.64 5.3 6.64 5.97 5.97 5.97 5.97 6.64 5.3 6.64 5.3 7.31 4.63 7.31 4.63 7.91 3.96 7.91 3.96 7.31 3.29 7.31 3.29 6.64 2.62 6.64 2.62 7.31 1.95 7.31 1.95 7.91 1.27 7.91 1.27 8.58 0.6 8.58 0.6 9.25 0 9.25 0 9.92 0 10.6 0 11.27 0 11.94 0 12.61 0 13.28 0.6 13.28 1.27 13.28 1.95 13.28 2.62 13.28 3.29 13.28 3.96 13.28 3.96 12.61 4.63 12.61 4.63 11.94 5.3 11.94 5.3 11.27 5.97 11.27 5.97 10.6 6.64 10.6 6.64 9.92 5.97 9.92 5.97 9.25 5.3 9.25 5.3 8.58 5.3 7.91 5.97 7.91 5.97 7.31 6.64 7.31 6.64 6.64 7.24 6.64 7.24 5.97 7.91 5.97 7.91 5.3 8.58 5.3 8.58 4.63 9.25 4.63 9.25 3.96 9.92 3.96 9.92 3.29 10.6 3.29 11.27 3.29 11.94 3.29 12.61 3.29 12.61 2.62 11.94 2.62 11.27 2.62"/><polygon class="cls-1" points="11.94 0.67 11.94 0 11.27 0 10.6 0 10.6 0.67 11.27 0.67 11.94 0.67"/></g></g></svg>