<svg xmlns="http://www.w3.org/2000/svg" viewBox="0 0 17.25 12.89"><defs><style>.cls-1{fill:#6c6d6d;}</style></defs><title>sm-send</title><g id="Layer_2" data-name="Layer 2"><g id="Layer_1-2" data-name="Layer 1"><path class="cls-1" d="M4.08,8.37l-.52,2.86L2.82,7.32.14,5.06a.4.4,0,0,1,.16-.7L16.74,0a.4.4,0,0,1,.45.59L9.93,12.7a.4.4,0,0,1-.6.1L5,9.14l7.27-5.53a.17.17,0,0,0-.2-.28Z"/><path class="cls-1" d="M4.74,9.73l1.12.9a.09.09,0,0,1,0,.14l-1.34.9a.09.09,0,0,1-.13-.08L4.6,9.79A.09.09,0,0,1,4.74,9.73Z"/></g></g></svg>