<svg xmlns="http://www.w3.org/2000/svg" viewBox="0 0 10.12 10.12"><defs><style>.cls-1{fill:#6c6d6d;}</style></defs><title>sm-smell</title><g id="Layer_2" data-name="Layer 2"><g id="Layer_1-2" data-name="Layer 1"><path class="cls-1" d="M9.66,7.36V6.9H9.2V6.44h.46V5.06H9.2V4.6H8.74V4.14H9.2V3.22H8.74V2.76H8.28V2.3H7.36V1.38H6.9V.92H6.44V.46H6V0H5.06V.46H4.6V.92h.46v.92H2.76V2.3H1.84v.46H1.38v.46H.92v.92h.46V4.6H.92v.46H.46V6.44H.92V6.9H.46v.46H0V9.2H.46v.46H.92v.46H9.2V9.66h.46V9.2h.46V7.36ZM2.3,4.6h.46V4.14h.92V4.6h.46V6.44H3.68V6.9H2.76V6.44H2.3V4.6Zm5.52.46V6.44H7.36V6.9H6.44V6.44H6V4.6h.46V4.14h.92V4.6h.46Z"/><polygon class="cls-1" points="7.36 5.52 7.36 5.06 6.9 5.06 6.9 4.6 6.44 4.6 6.44 5.06 6.44 5.52 6.44 5.98 6.44 6.44 6.9 6.44 7.36 6.44 7.36 5.98 7.36 5.52"/><polygon class="cls-1" points="2.76 5.52 2.76 5.98 2.76 6.44 3.22 6.44 3.68 6.44 3.68 5.98 3.68 5.52 3.68 5.06 3.22 5.06 3.22 4.6 2.76 4.6 2.76 5.06 2.76 5.52"/></g></g></svg>