<svg xmlns="http://www.w3.org/2000/svg" viewBox="0 0 11 15"><title>sm-water-spray</title><g id="7f585a40-f935-4664-88dd-f563d1c4c57e" data-name="Layer 2"><g id="a8d698c6-9c27-448c-88f2-a44541763639" data-name="Layer 1"><polygon points="5 5 5 6 5 6 6 6 6 6 6 5 5 5" fill="#6c6d6d"/><rect x="5" y="7" height="0.43" fill="#6c6d6d"/><polygon points="5 8 5 9 6 9 6 8 6 8 5 8 5 8" fill="#6c6d6d"/><rect x="5" y="10" height="0.43" fill="#6c6d6d"/><polygon points="5 11 5 11 6 11 6 11 6 10 5 10 5 11" fill="#6c6d6d"/><polygon points="5 3 5 4 5 4 5 5 5 5 6 5 6 5 6 4 6 4 6 3 5 3" fill="#6c6d6d"/><polygon points="5 7 5 7 6 7 6 7 6 6 5 6 5 7" fill="#6c6d6d"/><rect x="5" y="7" height="0.43" fill="#6c6d6d"/><polygon points="5 9 5 10 6 10 6 9 6 9 5 9 5 9" fill="#6c6d6d"/><rect x="5" y="10" height="0.43" fill="#6c6d6d"/><rect x="5" y="11" height="0.43" fill="#6c6d6d"/><polygon points="10 5 10 5 9 5 9 4 9 4 9 4 9 3 9 3 8 3 8 3 8 3 8 4 8 4 8 4 8 5 9 5 9 5 9 5 9 6 10 6 10 6 10 5 10 5" fill="#6c6d6d"/><polygon points="9 1 8 1 8 1 7 1 7 1 7 1 6 1 6 1 6 1 5 1 5 1 5 2 4 2 4 2 4 2 4 3 4 3 4 3 5 3 5 3 5 3 6 3 6 3 7 3 7 3 7 3 8 3 8 3 8 3 9 3 9 3 9 3 9 2 9 2 9 1 9 1 9 1" fill="#6c6d6d"/><polygon points="10 1 10 1 10 1 9 1 9 1 9 2 9 2 9 3 10 3 10 3 10 2 10 2 10 2 10 1 10 1" fill="#6c6d6d"/><polygon points="5 1 5 1 4 1 4 1 4 1 4 2 3 2 3 2 3 3 4 3 4 2 4 2 4 2 5 2 5 1 5 1 6 1 6 1 6 1 6 1 5 1" fill="#6c6d6d"/><polygon points="5 4 5 4 5 5 5 5 5 6 4 6 4 6 4 6 4 7 4 7 5 7 5 7 5 6 5 6 5 5 5 5 5 4 5 4 5 3 5 3 5 4" fill="#6c6d6d"/><polygon points="7 6 6 6 6 5 6 5 6 4 6 4 6 3 6 3 6 4 6 4 6 5 6 5 6 6 6 6 6 7 6 7 7 7 7 7 7 6 7 6 7 6" fill="#6c6d6d"/><polygon points="8 10 8 9 8 9 7 9 7 9 7 10 7 10 7 10 8 10 8 10 8 10" fill="#6c6d6d"/><polygon points="8 12 8 11 8 11 8 10 8 10 8 11 8 11 7 11 7 12 7 12 7 12 7 12 6 12 6 12 5 12 5 12 4 12 4 12 4 12 3 12 3 11 3 11 3 11 3 10 3 10 3 11 3 11 3 12 2 12 2 12 2 13 3 13 3 13 3 13 4 13 4 13 5 13 5 13 6 13 6 13 7 13 7 13 7 13 8 13 8 13 9 13 9 12 9 12 8 12" fill="#6c6d6d"/><polygon points="3 10 3 10 3 9 3 9 3 9 3 9 3 10 3 10 3 10 3 10 3 10" fill="#6c6d6d"/><path d="M7,10H7ZM5,10H5ZM4,7H4Zm0,3H4ZM6,8H6ZM6,9H6Z" fill="#6c6d6d"/><polygon points="8 13 7 13 7 13 7 13 6 13 6 13 5 13 5 13 4 13 4 13 3 13 3 13 3 13 2 13 2 13 3 13 3 13 3 13 4 13 4 13 5 13 5 13 6 13 6 13 7 13 7 13 7 13 8 13 8 13 9 13 9 13 8 13 8 13" fill="#6c6d6d"/><rect x="10" y="2" height="0.43" fill="#6c6d6d"/><rect x="10" y="1" height="0.43" fill="#6c6d6d"/><polygon points="10 1 10 2 10 2 11 2 11 2 11 1 10 1" fill="#6c6d6d"/><polygon points="7 5 6 5 6 6 7 6 7 6 7 5 7 5" fill="#6c6d6d"/><polygon points="7 6 7 6 7 6 7 6 7 7 7 7 7 7 7 7 7 6" fill="#6c6d6d"/><polygon points="8 8 8 7 8 7 7 7 7 7 7 8 7 8 7 9 8 9 8 8 8 8" fill="#6c6d6d"/><polygon points="8 10 8 9 8 9 8 9 8 9 8 10 8 10 8 10 8 10 8 10 8 10" fill="#6c6d6d"/><polygon points="9 11 9 10 8 10 8 11 8 11 8 12 9 12 9 11 9 11" fill="#6c6d6d"/><polygon points="9 12 9 13 9 13 9 12 9 12 9 12 9 12" fill="#6c6d6d"/><polygon points="5 6 5 5 4 5 4 5 4 6 4 6 5 6" fill="#6c6d6d"/><polygon points="4 7 4 6 4 6 3 6 3 6 3 7 3 7 4 7 4 7" fill="#6c6d6d"/><polygon points="3 8 3 8 3 7 3 7 3 7 3 7 3 8 3 8 3 9 3 9 3 8" fill="#6c6d6d"/><polygon points="3 10 3 10 3 9 3 9 3 9 3 9 3 10 3 10 3 10 3 10 3 10" fill="#6c6d6d"/><polygon points="3 11 3 11 3 10 2 10 2 11 2 11 2 12 3 12 3 11" fill="#6c6d6d"/><polygon points="2 12 2 12 2 12 2 13 2 13 2 12 2 12" fill="#6c6d6d"/><polygon points="8 3 7 3 7 4 7 4 8 4 8 4 8 3" fill="#6c6d6d"/><rect x="8" y="4" height="0.43" fill="#6c6d6d"/><rect x="8" y="5" height="0.43" fill="#6c6d6d"/><polygon points="9 3 9 3 9 4 9 4 9 4 9 4 9 3" fill="#6c6d6d"/><rect x="9" y="5" height="0.43" fill="#6c6d6d"/><rect x="9" y="4" height="0.43" fill="#6c6d6d"/><rect x="10" y="5" height="0.43" fill="#6c6d6d"/><polygon points="9 1 9 1 10 1 10 0 9 0 9 0 9 0 8 0 8 0 8 0 8 1 8 1 9 1" fill="#6c6d6d"/><polygon points="4 3 5 3 5 3 4 3 4 3 4 3 3 3 3 3 3 3 4 3 4 3" fill="#6c6d6d"/><polygon points="8 15 7 15 7 15 7 15 6 15 6 15 5 15 5 15 4 15 4 15 3 15 3 15 3 15 2 15 2 15 3 15 3 15 3 15 4 15 4 15 5 15 5 15 6 15 6 15 7 15 7 15 7 15 8 15 8 15 9 15 9 15 8 15 8 15" fill="#6c6d6d"/><rect x="1" y="15" height="0.43" fill="#6c6d6d"/><polygon points="0 15 0 15 0 15 1 15 1 15 0 15 0 15" fill="#6c6d6d"/><rect x="10" y="15" height="0.43" fill="#6c6d6d"/><polygon points="9 15 9 15 10 15 10 15 10 15 10 15 9 15" fill="#6c6d6d"/></g></g></svg>