<svg xmlns="http://www.w3.org/2000/svg" viewBox="0 0 10 13"><title>sm-water-bucket</title><g id="df366db1-8d43-493e-b16b-b3f5fcfe3d92" data-name="Layer 2"><g id="b5186f34-2cb2-4c14-b851-23108193b0a6" data-name="Layer 1"><polygon points="5 0 5 0 5 0 4 0 4 0 4 1 5 1 5 1 5 1 6 1 6 0 6 0 5 0" fill="#6c6d6d"/><polygon points="6 0 6 0 6 1 6 1 6 0 6 0 6 0" fill="#6c6d6d"/><polygon points="4 0 4 1 4 1 4 0 4 0 4 0 4 0" fill="#6c6d6d"/><rect x="3" y="5" height="0.42" fill="#6c6d6d"/><rect x="5" y="5" height="0.42" fill="#6c6d6d"/><rect x="6" y="5" height="0.42" fill="#6c6d6d"/><rect x="2" y="5" height="0.42" fill="#6c6d6d"/><rect x="4" y="5" height="0.42" fill="#6c6d6d"/><rect x="5" y="5" height="0.42" fill="#6c6d6d"/><rect x="7" y="5" height="0.42" fill="#6c6d6d"/><polygon points="2 5 2 5 2 5 1 5 1 5 1 5 1 5 2 5 2 5 2 5 3 5 3 5 3 5 3 5 2 5" fill="#6c6d6d"/><polygon points="6 4 6 4 5 4 5 4 5 4 4 4 4 4 3 4 3 4 3 5 3 5 4 5 4 5 5 5 5 5 5 5 6 5 6 5 7 5 7 4 6 4" fill="#6c6d6d"/><polygon points="8 5 7 5 7 5 7 5 7 5 8 5 8 5 8 5 8 5" fill="#6c6d6d"/><polygon points="9 5 8 5 8 5 8 5 8 5 9 5 9 5 9 5 9 5" fill="#6c6d6d"/><polygon points="8 6 8 6 8 6 7 6 7 6 7 6 7 6 8 6 8 6 8 6 8 6 9 6 9 5 8 5 8 6" fill="#6c6d6d"/><polygon points="3 6 2 6 2 6 2 5 1 5 1 6 2 6 2 6 2 6 3 6 3 6 3 6 3 6" fill="#6c6d6d"/><polygon points="6 6 5 6 5 6 5 6 4 6 4 6 3 6 3 6 3 7 3 7 4 7 4 7 5 7 5 7 5 7 6 7 6 7 7 7 7 6 6 6 6 6" fill="#6c6d6d"/><path d="M8,6H8ZM6,10H6ZM5,8H5M5,8H5" fill="#6c6d6d"/><polygon points="8 6 8 7 8 7 8 7 8 7 8 8 8 8 8 8 8 8 8 8 8 8 8 9 8 9 8 9 8 9 8 10 8 10 8 10 7 10 7 11 7 11 7 11 7 11 7 11 7 11 6 11 6 12 6 12 6 12 5 12 5 12 5 12 4 12 4 12 3 12 3 12 3 13 3 13 4 13 4 13 5 13 5 13 5 13 6 13 6 13 7 13 7 13 7 13 7 12 8 12 8 12 8 12 8 12 8 11 8 11 8 11 8 11 8 11 8 11 8 10 8 10 8 10 8 10 8 9 8 9 8 9 8 9 8 8 9 8 9 8 9 8 9 8 9 8 9 7 9 7 9 7 9 7 9 6 8 6" fill="#6c6d6d"/><polygon points="2 5 2 5 2 5 3 5 3 5 3 4 3 4 2 4 2 4 2 5 1 5 1 5 1 5 1 5 2 5" fill="#6c6d6d"/><polygon points="4 4 4 4 5 4 5 4 5 4 6 4 6 4 7 4 7 4 6 4 6 4 5 4 5 4 5 4 4 4 4 4 3 4 3 4 3 4 3 4 4 4" fill="#6c6d6d"/><polygon points="7 5 8 5 8 5 8 5 8 5 9 5 9 5 9 5 9 5 8 5 8 4 8 4 8 4 7 4 7 4 7 5 7 5" fill="#6c6d6d"/><polygon points="9 5 9 5 9 5 9 6 9 6 8 6 8 6 9 6 9 7 9 7 9 7 9 7 9 8 9 8 9 8 9 8 9 8 8 8 8 9 8 9 8 9 8 9 8 10 8 10 8 10 8 10 8 11 8 11 8 11 8 11 8 11 8 11 8 12 8 12 8 12 8 12 7 12 7 13 8 13 8 13 8 13 8 12 9 12 9 12 9 12 9 11 9 11 9 11 9 11 9 11 9 11 9 10 9 10 9 10 9 10 9 9 9 9 9 9 9 9 9 8 10 8 10 8 10 8 10 8 10 8 10 7 10 7 10 7 10 7 10 6 10 6 10 6 10 6 10 5 10 5 10 5 9 5" fill="#6c6d6d"/><polygon points="8 7 8 7 8 6 8 6 7 6 7 6 7 7 7 7 8 7" fill="#6c6d6d"/><polygon points="3 7 4 7 4 7 5 7 5 7 5 7 6 7 6 7 7 7 7 7 6 7 6 7 5 7 5 7 5 7 4 7 4 7 3 7 3 7 3 7 3 7" fill="#6c6d6d"/><polygon points="7 1 7 0 7 0 6 0 6 1 7 1 7 1" fill="#6c6d6d"/><polygon points="8 1 8 1 8 1 8 1 7 1 7 1 8 1" fill="#6c6d6d"/><rect x="8" y="1" height="0.42" fill="#6c6d6d"/><polygon points="4 1 4 0 3 0 3 0 3 1 3 1 4 1" fill="#6c6d6d"/><polygon points="3 1 3 1 3 1 2 1 2 1 3 1 3 1" fill="#6c6d6d"/><rect x="2" y="1" height="0.42" fill="#6c6d6d"/><polygon points="8 3 9 3 9 2 9 2 8 2 8 2 8 3" fill="#6c6d6d"/><polygon points="2 2 2 2 1 2 1 2 1 3 2 3 2 2" fill="#6c6d6d"/><polygon points="9 3 9 4 9 4 9 4 9 5 9 5 9 4 9 4 9 4 9 3 9 3 9 3 9 3 9 3 9 3" fill="#6c6d6d"/><polygon points="1 4 1 4 1 4 1 3 1 3 1 3 1 3 1 3 1 3 1 4 1 4 1 4 1 5 1 5 1 4" fill="#6c6d6d"/><polygon points="3 12 2 12 2 12 2 12 2 11 2 11 2 11 2 11 2 11 2 11 2 10 2 10 2 10 2 10 2 9 2 9 2 9 2 9 2 8 1 8 1 8 1 8 1 8 1 8 1 7 1 7 1 7 1 7 1 6 2 6 2 7 2 7 3 7 3 7 3 6 3 6 2 6 2 6 2 6 1 6 1 6 1 5 1 5 1 5 0 5 0 5 1 5 1 5 0 5 0 6 0 6 0 6 0 6 0 7 0 7 0 7 0 7 0 8 0 8 0 8 0 8 0 8 1 8 1 9 1 9 1 9 1 9 1 10 1 10 1 10 1 10 1 11 1 11 1 11 1 11 1 11 1 11 1 12 1 12 1 12 2 12 2 13 2 13 3 13 3 13 3 12 3 12" fill="#6c6d6d"/><polygon points="6 13 6 13 5 13 5 13 5 13 4 13 4 13 3 13 3 13 3 13 3 13 2 13 2 13 3 13 3 13 3 13 3 13 4 13 4 13 5 13 5 13 5 13 6 13 6 13 7 13 7 13 7 13 8 13 8 13 8 13 8 13 7 13 7 13 7 13 6 13" fill="#6c6d6d"/><rect x="1" y="13" height="0.42" fill="#6c6d6d"/><polygon points="0 13 0 13 0 13 1 13 1 13 0 13 0 13" fill="#6c6d6d"/><rect x="10" y="13" height="0.42" fill="#6c6d6d"/><polygon points="8 13 8 13 9 13 9 13 9 13 9 13 8 13" fill="#6c6d6d"/></g></g></svg>