<svg xmlns="http://www.w3.org/2000/svg" xmlns:xlink="http://www.w3.org/1999/xlink" viewBox="0 0 21.53 21.53"><defs><style>.cls-1{fill:none;}.cls-2{fill:#ac0000;}.cls-3{fill:url(#New_Pattern_Swatch_1);}.cls-4{fill:#f4f4f4;}</style><pattern id="New_Pattern_Swatch_1" data-name="New Pattern Swatch 1" width="45" height="45" patternTransform="translate(-245.05 -26.57) scale(1.51 1.46)" patternUnits="userSpaceOnUse" viewBox="0 0 45 45"><rect class="cls-1" width="45" height="45"/><rect class="cls-2" width="45" height="45"/></pattern></defs><title>turn-off-on</title><g id="Layer_2" data-name="Layer 2"><g id="Layer_1-2" data-name="Layer 1"><circle class="cls-3" cx="10.76" cy="10.76" r="10.76"/><path class="cls-4" d="M5.37,5l.24-.21c.17-.22.26-.56.5-.72,0,0-.38.26-.71.52a7.9,7.9,0,0,0-1.06,1h0C4.45,5.52,5.2,5.13,5.37,5Z"/><path class="cls-4" d="M5.52,5.91a.26.26,0,0,0,0,.08s.05,0,.08,0a12.73,12.73,0,0,1,1.27-.74C6.94,5.18,7,5.12,7,5s0-.27.07-.3l-.24.12L6.52,5l-.34.22-.1.07A2.21,2.21,0,0,0,5.52,5.91Z"/><path class="cls-4" d="M7.1,4.5a14.31,14.31,0,0,1,1.43-.57h0s.1-.06,0-.09a1.32,1.32,0,0,0-.69,0l-.08,0L7.44,4l-.31.13-.25.11s0,.1,0,.25S7,4.54,7.1,4.5Z"/><path class="cls-4" d="M2.45,8.1l0,0a3.74,3.74,0,0,1,.4-.42L3,7.56a3.88,3.88,0,0,1,.32-.79,2.18,2.18,0,0,1,.15-.25l0,0a2.83,2.83,0,0,1,.17-.84.13.13,0,0,0,0-.08s0,0-.05,0l-.31.26A2.5,2.5,0,0,0,3,6.14a2.16,2.16,0,0,0-.15.25,4,4,0,0,0-.46,1.57C2.42,8.07,2.43,8.07,2.45,8.1Z"/><path class="cls-4" d="M3.48,7a.4.4,0,0,1-.13.31L3,7.56a4.06,4.06,0,0,0-.14.78c0,.12,0,.12,0,.15l0,0A3.76,3.76,0,0,1,3.31,8c.14-.13.3-.26.47-.39a.4.4,0,0,0,.13-.31A3.14,3.14,0,0,1,4.08,6,.13.13,0,0,0,4.1,6s0,0-.05,0l-.31.26a2.58,2.58,0,0,0-.25.26A3.87,3.87,0,0,0,3.48,7Z"/><path class="cls-4" d="M3,10.66A2.59,2.59,0,0,0,3,10.33,6.25,6.25,0,0,1,3.6,8.24l-.2.42A7.67,7.67,0,0,0,3,9.86a5.79,5.79,0,0,0-.15.9L3,10.67Z"/><path class="cls-4" d="M3.77,7.9l-.17.34.25-.49Z"/><path class="cls-4" d="M5.24,7.82c.44-.26.89-.52,1.37-.76A.3.3,0,0,1,7,7.2l.12.3.19-.1a.35.35,0,0,0,.2-.4,13.32,13.32,0,0,1-.49-1.53c0-.08-.11-.1-.23,0a14,14,0,0,0-1.4.82.75.75,0,0,0-.24.32A4.23,4.23,0,0,0,5,7.82l.1,0C5.16,7.74,5.22,7.76,5.24,7.82Z"/><path class="cls-4" d="M5.27,8.62h0a6.81,6.81,0,0,1,0-.69.29.29,0,0,0,0-.1L5,8c0,.16,0,.33,0,.51S5.12,8.7,5.27,8.62Z"/><path class="cls-4" d="M8.31,6.94A23.52,23.52,0,0,1,10.65,6c.18-.08.22-.18.12-.32A5,5,0,0,0,9.42,4.51a.54.54,0,0,0-.37,0,15.78,15.78,0,0,0-1.57.62c-.12.07-.17.14-.16.23.13.36.32.87.58,1.49C8,7,8.12,7,8.31,6.94Z"/><path class="cls-4" d="M2.72,13.94a4.07,4.07,0,0,1,.34-.37,7.15,7.15,0,0,1-.22-1.23l0-.55A1.13,1.13,0,0,1,3,11.27v0H3a.53.53,0,0,1,.05.23,7.07,7.07,0,0,0,.39,1.75l.14-.12a7.17,7.17,0,0,1-.42-1.8,1,1,0,0,1,0-.4l0-.14c0-.12-.09-.15-.18-.11a.93.93,0,0,1,0,.14,1.16,1.16,0,0,0-.14.46V11.1l0-.34-.41.35a4.18,4.18,0,0,0-.45.47.59.59,0,0,0-.06.35,5.19,5.19,0,0,0,.46,1.67l.11.23C2.59,14,2.66,14,2.72,13.94Z"/><path class="cls-4" d="M3.06,13.58v0a7.38,7.38,0,0,0,.44,1.22c.1.22.26.49.37.7a.89.89,0,0,1,.07-.88.72.72,0,0,0-.1-.48l-.16-.32q-.14-.31-.25-.62l-.24.21Z"/><path class="cls-4" d="M3.75,8.8a.61.61,0,0,1,.14-.34,4.33,4.33,0,0,1,.56-.37l.32-.17A4.28,4.28,0,0,1,5,6.68a.19.19,0,0,0,0-.12s0,0-.08,0-.33.27-.48.4a3.81,3.81,0,0,0-.41.43,3.34,3.34,0,0,0-.23.38,6,6,0,0,0-.7,2.39c0,.18,0,.19,0,.22l0,0a5.37,5.37,0,0,1,.48-.52A5.19,5.19,0,0,1,3.75,8.8Z"/><path class="cls-4" d="M3.81,12.6a.31.31,0,0,1-.05.38l-.18.14c.07.18.14.37.23.55L4,14c.11.2.21.26.3.18a6.32,6.32,0,0,1,.68-.71c.24-.22.5-.44.79-.66a.41.41,0,0,0,.11-.16.35.35,0,0,1,0-.08.6.6,0,0,0-.05-.28l-.15-.32-.11-.25c-.16.05-.29,0-.4-.19L5,11.17q-.13-.29-.25-.58l-.06,0a4.64,4.64,0,0,0-.6.4c-.08,0-.14,0-.19-.18l-.06-.25c0-.11,0-.23-.06-.34a5.62,5.62,0,0,0-.52.56l0,.1a7.43,7.43,0,0,0,.5,1.45Z"/><path class="cls-4" d="M4.42,9.7c0-.13-.07-.25-.11-.37l-.46.39-.13.12q0,.21,0,.42l.11-.1C4,10,4.22,9.85,4.42,9.7Z"/><path class="cls-4" d="M5,8c0-.06,0-.11,0-.17l-.21.1c0,.07,0,.13,0,.2Z"/><path class="cls-4" d="M5.43,9.66l.06.26a.32.32,0,0,1-.14.37l-.27.13a10.73,10.73,0,0,0,.46,1.28l.06,0A23.86,23.86,0,0,1,8,10.27a.41.41,0,0,0,.17-.53L8,9.41c-.32-.69-.59-1.33-.84-1.91A20.56,20.56,0,0,0,5.28,8.61,8.13,8.13,0,0,0,5.43,9.66Z"/><path class="cls-4" d="M4.77,8.66q0-.27,0-.54l-.37.24a.52.52,0,0,0-.2.5c0,.15.07.31.11.46l.25-.2A.61.61,0,0,0,4.77,8.66Z"/><path class="cls-4" d="M4.9,9.69c-.05-.18-.14-.23-.29-.14l-.19.15q.14.44.32.9l.34-.18C5,10.17,4.95,9.93,4.9,9.69Z"/><path class="cls-4" d="M9,10.13l.17.36a.43.43,0,0,0,.56.22,29.31,29.31,0,0,1,2.92-1.16A.38.38,0,0,0,12.87,9l-.16-.37a16.29,16.29,0,0,0-1.29-2.32.51.51,0,0,0-.55-.17A27.26,27.26,0,0,0,8.15,7.25a.38.38,0,0,0-.22.48C8.25,8.44,8.61,9.25,9,10.13Z"/><path class="cls-4" d="M7.57,16.55c.15-.14.32-.27.5-.41s.07-.18,0-.32a10.45,10.45,0,0,1-1.39-1.76c-.11-.15-.22-.19-.35-.11L6,14.2a8,8,0,0,0,.75.9c.09.1.1.18,0,.24l-.38.32A3.05,3.05,0,0,0,6,16s-.13,0-.25,0l-.27-.2a6.85,6.85,0,0,0,1.3,1.18c.15.09.25.11.32.06A4,4,0,0,1,7.57,16.55Z"/><path class="cls-4" d="M5.15,15a4.93,4.93,0,0,1,.52-.55L6,14.2c-.11-.15-.21-.3-.31-.46s-.17-.14-.27-.09-.33.26-.47.39a3.8,3.8,0,0,0-.4.43c0,.07,0,.16.06.28a5.2,5.2,0,0,0,1,1c-.11-.12-.21-.25-.3-.38S5.1,15.09,5.15,15Z"/><path class="cls-4" d="M6.68,17.58a8.42,8.42,0,0,1-2.06-2c-.14-.18-.24-.23-.3-.17a.88.88,0,0,0-.07.88l0,.05c.14.2.35.45.5.64A7,7,0,0,0,6.6,18.51c.22.12.23.11.27.1a.71.71,0,0,1,.05-.71C6.94,17.82,6.86,17.72,6.68,17.58Z"/><path class="cls-4" d="M4.19,17.09a5.5,5.5,0,0,1-1.37-1.26c-.09-.11-.16-.15-.2-.11a.54.54,0,0,0,0,.56l0,0c.09.13.23.29.33.41a4.63,4.63,0,0,0,1.21,1c.14.08.16.07.18.07a.44.44,0,0,1,0-.45C4.37,17.24,4.31,17.17,4.19,17.09Z"/><path class="cls-4" d="M5.9,12.93a15.38,15.38,0,0,0,1.86,2.45.42.42,0,0,0,.5.12,19.94,19.94,0,0,1,2-1.17.34.34,0,0,0,.1-.48C9.91,13,9.44,12.08,9,11.13a.4.4,0,0,0-.53-.2A24.64,24.64,0,0,0,6,12.37a.42.42,0,0,0-.13.18.37.37,0,0,1,0,.08A.54.54,0,0,0,5.9,12.93Z"/><path class="cls-4" d="M10.18,4A7.74,7.74,0,0,0,9,4.1l-.5.12-.1,0a1.78,1.78,0,0,1,.76,0,1,1,0,0,0,.37,0L10,4.07,10.5,4l-.06,0h-.26Z"/><path class="cls-4" d="M11.44,4.86l-.17-.18-.06,0a.18.18,0,0,0-.1.22c.14.33.31.71.5,1.12l.08.17a.2.2,0,0,0,.26.1c.33-.15.66-.29,1-.41l0,0c-.08-.09,0-.14,0-.15l.31-.15.17-.06h0l-.08-.17q-.14-.31-.29-.57-.49.1-1,.23A.66.66,0,0,1,11.44,4.86Z"/><path class="cls-4" d="M13,4.79h0l.36-.07a6,6,0,0,0-.61-.3Z"/><path class="cls-4" d="M10.75,4h0L10.5,4a7,7,0,0,1,.77.69c.36-.16.73-.31,1.09-.44a5.68,5.68,0,0,0-.57-.16l-.21,0h.1l.77.16h0a.24.24,0,0,1,.26.08h0l.11,0a9.37,9.37,0,0,1,.89.35c.27,0,.52-.07.76-.08s.19-.06-.06-.26A6.94,6.94,0,0,0,11.8,3.07,2.47,2.47,0,0,0,11.26,3a7.19,7.19,0,0,0-1,.13l-.69.16s-.19.07,0,.16a4.6,4.6,0,0,1,.83.5h.11Z"/><path class="cls-4" d="M13.31,5.78l-.37.13a2.6,2.6,0,0,1,.38.46l.55-.06a.57.57,0,0,1,.37.19,5.78,5.78,0,0,1,.45.55,2.39,2.39,0,0,1,.47-.11s.09-.05,0-.24a3.07,3.07,0,0,0-1.2-1.15.6.6,0,0,0-.25-.06l-.26.06A.17.17,0,0,1,13.31,5.78Z"/><path class="cls-4" d="M16.49,4.09c.08.14.17.19.27.15A4.87,4.87,0,0,1,17.23,4a2.66,2.66,0,0,1,.65-.18s.09-.05,0-.24a3.07,3.07,0,0,0-1.2-1.15.6.6,0,0,0-.25-.06,1.77,1.77,0,0,0-.43.12l-.31.15s-.09.06,0,.15A4,4,0,0,1,16.49,4.09Z"/><path class="cls-4" d="M19.5,6.59a2.73,2.73,0,0,0-1.12-.93.63.63,0,0,0-.23,0,1.84,1.84,0,0,0-.4.1l-.29.12s-.08,0,0,.12a3.28,3.28,0,0,1,.77,1c.07.11.15.15.25.12l.44-.18a2.75,2.75,0,0,1,.6-.14S19.6,6.75,19.5,6.59Z"/><path class="cls-4" d="M11.87,12l-.09-.2c-.23-.49-.43-.95-.6-1.35a.25.25,0,0,1,0,0l-1.07.46a.37.37,0,0,0-.17.5c.42.89.84,1.75,1.24,2.56a.34.34,0,0,0,.43.19,20.89,20.89,0,0,1,2.08-.83.38.38,0,0,0,.2-.44c-.08-.43-.18-.86-.3-1.3-.47.16-.94.35-1.4.57A.24.24,0,0,1,11.87,12Z"/><path class="cls-4" d="M13.93,11.17l-.09-.2a9.11,9.11,0,0,0-.72-1.3.28.28,0,0,0-.31-.1,15.23,15.23,0,0,0-1.52.6.21.21,0,0,0-.13.22c.5-.21,1-.39,1.5-.56a.38.38,0,0,1,.46.25c.17.48.32,1,.45,1.46l.23-.08A.21.21,0,0,0,13.93,11.17Z"/><path class="cls-4" d="M14,7.33c-.11,0-.19,0-.27-.15a5.89,5.89,0,0,0-.44-.81l-.41.07-.7.16c-.14.05-.17.14-.09.27a9.92,9.92,0,0,1,.95,1.66l.12.26a.35.35,0,0,0,.38.22l.75-.17a7.82,7.82,0,0,1,1-.14c.11,0,.14-.12.08-.3l-.11-.26A6.46,6.46,0,0,0,14.68,7l-.18.07A4.87,4.87,0,0,0,14,7.33Z"/><path class="cls-4" d="M15.68,9.73a6.71,6.71,0,0,0-.89.12l-.64.15c-.13.05-.18.16-.14.32a11.28,11.28,0,0,1,.47,1.95c0,.15.1.21.22.2l.52-.12a5.43,5.43,0,0,1,.72-.1c.08,0,.13-.11.15-.27a6.57,6.57,0,0,0-.18-2C15.86,9.82,15.78,9.74,15.68,9.73Z"/><path class="cls-4" d="M10.38,18.64a8.41,8.41,0,0,1-2.7-.78c-.21-.09-.34-.11-.39-.06a.67.67,0,0,0-.05.67,1.21,1.21,0,0,0,.38.2,7.43,7.43,0,0,0,2.73.45c.29,0,.33,0,.35,0a.36.36,0,0,1,0-.35A.81.81,0,0,0,10.38,18.64Z"/><path class="cls-4" d="M14,5.11a1.22,1.22,0,0,0,.44.22,1.47,1.47,0,0,1,.75.25l-.13-.1A7.49,7.49,0,0,0,14,4.81l-.28-.14-.31,0A6.17,6.17,0,0,1,14,5.11Z"/><path class="cls-4" d="M12.74,4.29l-.28-.08-.1,0,.46.18Z"/><path class="cls-4" d="M16.75,7.63l.14.33c.1.22.21.34.33.37a1.41,1.41,0,0,1,1,.4,1.31,1.31,0,0,0-.09-.27L18,8.14q-.09-.2-.2-.39c-.12-.22-.3-.5-.43-.71a7.33,7.33,0,0,0-.8-1l-.4-.38a1.43,1.43,0,0,0-.81-.29c-.05,0-.11,0,.07.23A7.41,7.41,0,0,1,16.75,7.63Z"/><path class="cls-4" d="M16.89,12.31a.88.88,0,0,1,.62.26h0a.6.6,0,0,0,.08-.23,5.84,5.84,0,0,0,0-2.25,1.39,1.39,0,0,0-.11-.36,1.09,1.09,0,0,0-.76-.32c-.09,0-.11.1-.08.29A7.18,7.18,0,0,1,16.79,12C16.79,12.18,16.81,12.28,16.89,12.31Z"/><path class="cls-4" d="M19.45,9.11A.66.66,0,0,0,19,8.91c-.05,0-.07.06,0,.17a4.36,4.36,0,0,1,.1,1.4c0,.11,0,.17.06.19a.54.54,0,0,1,.38.16h0a.37.37,0,0,0,0-.14,3.54,3.54,0,0,0,0-1.36A.84.84,0,0,0,19.45,9.11Z"/><path class="cls-4" d="M11.21,17.83A9.34,9.34,0,0,1,9.1,16.48c-.18-.13-.33-.16-.46-.09s-.42.33-.6.5a4.79,4.79,0,0,0-.51.54c0,.09,0,.18.24.3a8.47,8.47,0,0,0,2.66.84c.27,0,.37,0,.41,0a2.4,2.4,0,0,1,.26-.27l.3-.25S11.43,17.93,11.21,17.83Z"/><path class="cls-4" d="M11.05,15.27h0c.36.63.69,1.19,1,1.65a.23.23,0,0,1,0,.19l.17-.09c.05,0,0-.1,0-.2-.26-.4-.56-.89-.87-1.44A.25.25,0,0,0,11.05,15.27Z"/><path class="cls-4" d="M11.3,17.38a7.22,7.22,0,0,1-1.52-1.06c-.11-.11-.12-.21,0-.28a13.13,13.13,0,0,1,1.3-.76h0a.28.28,0,0,0-.36-.14A15.19,15.19,0,0,0,9.14,16c-.1.09-.08.2,0,.33A8.36,8.36,0,0,0,11,17.56a.42.42,0,0,0,.32,0,7.6,7.6,0,0,1,.77-.45l0,0c-.18.1-.34.2-.5.3A.37.37,0,0,1,11.3,17.38Z"/><path class="cls-4" d="M13.5,15.42l.62-.15A13.05,13.05,0,0,0,14,13.89c0-.2-.14-.29-.3-.26a19.78,19.78,0,0,0-2,.78.3.3,0,0,0-.1.42c.38.75.73,1.42,1,2,.08.13.16.18.24.15l.57-.24-.18-.93C13.31,15.6,13.37,15.48,13.5,15.42Z"/><path class="cls-4" d="M14.79,16.47l-.35.08s-.1,0-.07-.24a8.78,8.78,0,0,0,.13-1.11l-.38.08a9.39,9.39,0,0,1,0,1,.4.4,0,0,1-.16.31l-.42.15.16.78.43-.13c.06,0,.07.07,0,.21A4.14,4.14,0,0,1,14,18a7.6,7.6,0,0,1,.81-.16c.07,0,.14-.11.2-.26a10.7,10.7,0,0,0,.3-1.17h0A3.68,3.68,0,0,0,14.79,16.47Z"/><path class="cls-4" d="M16.39,13.18a7.38,7.38,0,0,0-1,.13l-.71.16c-.15.06-.22.19-.22.41a11.69,11.69,0,0,1,0,1.31l.78-.13c.14,0,.2.1.19.3q-.07.54-.17,1s.13-.09.26-.3a8.56,8.56,0,0,0,.95-2.57C16.53,13.31,16.5,13.19,16.39,13.18Z"/><path class="cls-4" d="M16.33,16.23a8.49,8.49,0,0,0,1.06-2.57c.05-.2.12-.31.2-.34a1.78,1.78,0,0,0-.36-.07c-.09,0-.16.13-.22.35a8.49,8.49,0,0,1-1.06,2.57c-.15.25-.14.28-.13.31a.57.57,0,0,1,.37.15l.1-.07H16.2S16.18,16.48,16.33,16.23Z"/><path class="cls-4" d="M17.61,13.31h0a.74.74,0,0,1,.37.23.8.8,0,0,1-.07.41,7.74,7.74,0,0,1-1.42,2.42l-.17.17a.5.5,0,0,1,.29.14,1.33,1.33,0,0,0,.26-.25A7.74,7.74,0,0,0,18.26,14a.8.8,0,0,0,.07-.41A1,1,0,0,0,17.61,13.31Z"/><path class="cls-4" d="M11.92,18.43a7.12,7.12,0,0,0-.55.61c0,.05,0,.08.21.08a4,4,0,0,0,1.27-.21,5,5,0,0,1-.69-.44C12.1,18.43,12,18.38,11.92,18.43Z"/><path class="cls-4" d="M13.74,17.82l-.07-.32-.38.13c-.08,0,0,.15,0,.23.15.3.28.54.38.7A2.85,2.85,0,0,0,14,18l-.07,0C13.83,18,13.77,18,13.74,17.82Z"/></g></g></svg>