<svg xmlns="http://www.w3.org/2000/svg" viewBox="0 0 45.54 57.51"><defs><style>.cls-1{fill:#fff;}.cls-2,.cls-3,.cls-4{fill:#AC0000;}.cls-3{fill-rule:evenodd;}.cls-4{font-size:7.25px;font-family:SpoqaHanSans-Bold, SpoqaHanSans Bold;font-weight:700;}</style></defs><title>wallet-logo</title><g id="Layer_2" data-name="Layer 2"><g id="Layer_1-2" data-name="Layer 1"><circle cx="5.67" cy="51.83" r="5.67"/><path class="cls-1" d="M6.24,50.76a10.74,10.74,0,0,0-1,1,2.85,2.85,0,0,1,2.2,1.57,1.54,1.54,0,0,1,.08.21,3.67,3.67,0,0,1,.14.6,3.48,3.48,0,0,1,0,.54,2.66,2.66,0,0,0,.48-.75,4.23,4.23,0,0,0,.3-1.32,7.18,7.18,0,0,0,0-1,3.52,3.52,0,0,0-1.37-1.19,5.43,5.43,0,0,0,1-3,4.07,4.07,0,0,1-.59,1.8A7.14,7.14,0,0,1,6.24,50.76Z"/><path class="cls-1" d="M6.7,55.33h0l.06,0a2.28,2.28,0,0,0,.6-.32l.21-.18a3.31,3.31,0,0,0,0-.52A1.49,1.49,0,0,1,6.7,55.33Z"/><path class="cls-1" d="M8.72,52.07c0,.19,0,.38,0,.56A4.39,4.39,0,0,1,8.3,54a2.74,2.74,0,0,1-.59.82s0,.09,0,.13a2.92,2.92,0,0,1-.17.78,2.75,2.75,0,0,1-.38.7,3,3,0,0,1-.37.4A3.68,3.68,0,0,0,9,53.39,3.11,3.11,0,0,0,8.72,52.07Z"/><path class="cls-1" d="M6.63,47.3a1,1,0,0,0,.21-.77.92.92,0,0,0-.12-.3h0a1.21,1.21,0,0,1,1,1.32,3,3,0,0,1-.09.61,3.23,3.23,0,0,1-.42.9L7,49.27A6.11,6.11,0,0,1,5.7,50.42l-.78.49c-.26.16-.52.33-.77.51a4.92,4.92,0,0,0-1.32,1.3,2.78,2.78,0,0,0-.37.87,3.2,3.2,0,0,0-.07.94,3.57,3.57,0,0,0,.07.47,3.44,3.44,0,0,0,.14.45,4,4,0,0,0,.45.83,4.62,4.62,0,0,0,.33.41,3.57,3.57,0,0,1-1.84-3.26c0-.28,0-.55,0-.81A6.48,6.48,0,0,1,4,49.77l.13-.1a9.29,9.29,0,0,0,2.38-2.14Z"/><path class="cls-2" d="M7.44,55.68a2.8,2.8,0,0,0,.14-.75h0L7.41,55a2.33,2.33,0,0,1-.63.29l-.3.07.06,0-.27.05a2.26,2.26,0,0,1-1.76-.61c-1-.87-.51-2.33.16-3.13,0,0,.89-.9,1.28-1.26.21-.19.41-.38.6-.59a7.18,7.18,0,0,1-.81.63L5,51c-.26.17-.51.34-.76.52A4.81,4.81,0,0,0,2.94,52.8a2.63,2.63,0,0,0-.33.83,3,3,0,0,0,0,.89,3.5,3.5,0,0,0,.63,1.66,5.18,5.18,0,0,0,.57.69,3.61,3.61,0,0,0,1.41.3A4,4,0,0,0,6.6,56.9a3,3,0,0,0,.49-.53A2.65,2.65,0,0,0,7.44,55.68Z"/><path class="cls-1" d="M6.43,47.29c-.51,0-1.95.17-2.46,2.27l-.11.08a7.2,7.2,0,0,0-2.24,2.45C2.26,45.84,6,46.16,6,46.16h.19a.5.5,0,0,1,.47.39h0a.83.83,0,0,1-.21.68Z"/><path d="M17.19,51.29a2.09,2.09,0,0,0,.37-.48,1.94,1.94,0,0,0,.23-1,2.17,2.17,0,0,0-.91-1.76,2.14,2.14,0,0,0-.83-.36,5.22,5.22,0,0,0-.93-.07h-1.6c-.1,0-.16-.09-.16-.14h0a.15.15,0,0,0,0-.07s-.08-.07-.19-.06h-.7a.15.15,0,0,0-.15.15,1.26,1.26,0,0,0,.93,1.18v5.74a1.26,1.26,0,0,0-.93,1.18.15.15,0,0,0,.15.15h.77a.15.15,0,0,0,.14-.14s0-.09.19-.14h1.57a8.29,8.29,0,0,0,1,0,2.53,2.53,0,0,0,1-.39,2.11,2.11,0,0,0,.72-.82,2.38,2.38,0,0,0,.26-1.08,2.32,2.32,0,0,0-.34-1.26A2.06,2.06,0,0,0,17.19,51.29Zm-2.8-2.46h.88a2.85,2.85,0,0,1,.54,0,1.17,1.17,0,0,1,.39.15.86.86,0,0,1,.29.33,1,1,0,0,1,.12.47,1,1,0,0,1-.13.48.8.8,0,0,1-.33.33l-.2.1a1,1,0,0,0-.72-.33,1,1,0,0,0-.81.44h0Zm2.45,4.92a1.07,1.07,0,0,1-.41.41,1.6,1.6,0,0,1-.48.16,3.34,3.34,0,0,1-.59.05h-1V52h0A1,1,0,0,0,16,52l.24.06a1.08,1.08,0,0,1,.53.42,1.2,1.2,0,0,1,.2.68A1.07,1.07,0,0,1,16.84,53.74Z"/><path d="M20.37,53.46V48.63a.64.64,0,0,0-.64-.64h-.27a.64.64,0,0,0-.64.64V55a.64.64,0,0,0,.64.64h3.44a.64.64,0,0,0,.64-.64v-.27a.64.64,0,0,0-.64-.64H21A.64.64,0,0,1,20.37,53.46Z"/><path d="M45.54,51.76a3.71,3.71,0,0,0-.74-2.36A4.17,4.17,0,0,0,42.42,48a4.23,4.23,0,0,0-.62-.1H40.23a1,1,0,0,0-1,1V55a.91.91,0,0,0,.91.91H41.8a4.23,4.23,0,0,0,.62-.1,4.17,4.17,0,0,0,2.38-1.4A3.71,3.71,0,0,0,45.54,52s0-.09,0-.13S45.54,51.8,45.54,51.76Zm-1.65.3a2.55,2.55,0,0,1-3,2.34v-5a2.55,2.55,0,0,1,3,2.34c0,.06,0,.11,0,.17S43.9,52,43.89,52.06Z"/><path d="M34.26,47.78a4,4,0,0,0-3,1.35l-.22.27h0a4,4,0,0,0-.79,2.4h0a2.47,2.47,0,1,1-.14-.82,5.08,5.08,0,0,1,.7-1.86,4,4,0,1,0,0,5.38l.23-.29a4,4,0,0,0,.79-2.14h0c0-.19,0-.23,0-.42a2.44,2.44,0,0,1,2.64-2.28,2.47,2.47,0,1,1-2.51,3.28,5.08,5.08,0,0,1-.7,1.86,4,4,0,1,0,3-6.74Z"/><path class="cls-3" d="M21.3,27.21a.33.33,0,0,0,.24-.1h0a.34.34,0,0,0,0-.47h0a.34.34,0,0,0-.47,0h0a.34.34,0,0,0,0,.47h0A.33.33,0,0,0,21.3,27.21Z"/><path class="cls-3" d="M20,30.29a.33.33,0,0,0,.24-.1h0a.34.34,0,0,0,0-.47h0a.34.34,0,0,0-.47,0h0a.34.34,0,0,0,0,.47h0A.33.33,0,0,0,20,30.29Z"/><path class="cls-3" d="M16.93,29.52a.33.33,0,0,0,.24-.1h0a.34.34,0,0,0,0-.47h0a.34.34,0,0,0-.47,0h0a.34.34,0,0,0,0,.47h0A.33.33,0,0,0,16.93,29.52Z"/><path class="cls-3" d="M32.54,11.13H15.93l3.92,6.78.26,0a1.28,1.28,0,0,1,.91.38h0a1.28,1.28,0,0,1,0,1.81h0a1.28,1.28,0,0,1-1.81,0h0a1.28,1.28,0,0,1-.15-1.63l-4.22-7.31H11.28a.72.72,0,1,1,0-1.44H32.54a6.41,6.41,0,0,1,4.21,1.58L35.42,8.34,32.81,2.59A4.43,4.43,0,0,0,27,.39l-13.28,6C11.51,7.42,10,8.52,9,10.37L13.42,18h2.8l.51.88a1.3,1.3,0,0,1,.32,0,1.28,1.28,0,0,1,.91.38h0A1.28,1.28,0,0,1,18,21h0a1.28,1.28,0,0,1-1.81,0h0A1.28,1.28,0,0,1,16,19.4l-.29-.5h-2.8L8.59,11.48a11.68,11.68,0,0,0-.46,2.22l4.82,8.1H20.1a1.29,1.29,0,0,1,.29-.43h0a1.28,1.28,0,0,1,1.81,0h0a1.28,1.28,0,0,1,0,1.81h0a1.28,1.28,0,0,1-1.81,0h0a1.28,1.28,0,0,1-.28-.43H12.4L8,15.36q0,.37,0,.77v1.78l1.88,3.25.22,0a1.28,1.28,0,0,1,.91.38h0a1.28,1.28,0,0,1,0,1.81h0a1.28,1.28,0,0,1-1.81,0h0a1.28,1.28,0,0,1-.12-1.67L8,19.82V24.1h9.59a1.29,1.29,0,0,1,.28-.43h0a1.28,1.28,0,0,1,1.81,0H20v0h0v0h0v0h0v0h0v0h0v0h0v.47h0v0h0v0h0v0h0v0h0v0h0v0h-.32a1.28,1.28,0,0,1-1.81,0h0a1.29,1.29,0,0,1-.28-.43H8v2.48A5,5,0,0,0,8.21,29l.86-1.48a1.28,1.28,0,0,1,.12-1.67h0a1.28,1.28,0,0,1,1.81,0h0a1.28,1.28,0,0,1,0,1.81h0a1.28,1.28,0,0,1-.91.38l-.22,0L8.68,30.05a5.06,5.06,0,0,0,.94,1.16L12.4,26.4h7.7a1.28,1.28,0,0,1,.28-.43h0a1.28,1.28,0,0,1,1.81,0h0a1.28,1.28,0,0,1,0,1.81h0a1.28,1.28,0,0,1-1.81,0h0a1.29,1.29,0,0,1-.29-.43H12.95l-2.56,4.44a5,5,0,0,0,1.28.56l1.21-2.1h2.8l.29-.5a1.28,1.28,0,0,1,.18-1.58h0a1.28,1.28,0,0,1,1.81,0h0A1.28,1.28,0,0,1,18,30h0a1.28,1.28,0,0,1-1.23.34l-.51.88h-2.8l-.76,1.32H18l1.05-1.82a1.28,1.28,0,0,1,.15-1.63h0a1.28,1.28,0,0,1,1.81,0h0a1.28,1.28,0,0,1,0,1.81h0a1.28,1.28,0,0,1-.91.38l-.26,0-.75,1.3H32.54a5,5,0,0,0,5-5v-2H28.82a3.9,3.9,0,0,1,0-7.79h8.73V16.13A5,5,0,0,0,32.54,11.13Z"/><path class="cls-3" d="M20.11,19.5a.34.34,0,0,0,.24-.1h0a.34.34,0,0,0,0-.47h0a.34.34,0,0,0-.47,0h0a.34.34,0,0,0,0,.47h0A.34.34,0,0,0,20.11,19.5Z"/><path class="cls-3" d="M21.3,22.61a.33.33,0,0,0,.24-.1h0a.34.34,0,0,0,0-.47h0a.34.34,0,0,0-.47,0h0a.34.34,0,0,0,0,.47h0A.33.33,0,0,0,21.3,22.61Z"/><path class="cls-3" d="M10.09,27.05a.34.34,0,0,0,.24-.1h0a.34.34,0,0,0,0-.47h0a.34.34,0,0,0-.47,0h0a.34.34,0,0,0,0,.47h0A.34.34,0,0,0,10.09,27.05Z"/><path class="cls-3" d="M17.05,20.41a.33.33,0,0,0,.24-.1h0a.34.34,0,0,0,0-.47h0a.34.34,0,0,0-.47,0h0a.34.34,0,0,0,0,.47h0A.33.33,0,0,0,17.05,20.41Z"/><path class="cls-3" d="M18.78,24.91a.33.33,0,0,0,.24-.1h0a.34.34,0,0,0,0-.47h0a.34.34,0,0,0-.47,0h0a.34.34,0,0,0,0,.47h0A.33.33,0,0,0,18.78,24.91Z"/><path class="cls-3" d="M10.09,22.77a.33.33,0,0,0,.24-.1h0a.34.34,0,0,0,0-.47h0a.34.34,0,0,0-.47,0h0a.34.34,0,0,0,0,.47h0A.34.34,0,0,0,10.09,22.77Z"/><path class="cls-3" d="M25.79,21.6a3,3,0,0,0,3,3h8.73v-6H28.82A3,3,0,0,0,25.79,21.6Zm5,0a1.66,1.66,0,1,1-1.66-1.66A1.66,1.66,0,0,1,30.83,21.6Z"/><text class="cls-4" transform="translate(8.45 43.42)">WALLET</text></g></g></svg>