<svg id="Layer_1" data-name="Layer 1" xmlns="http://www.w3.org/2000/svg" viewBox="0 0 30 30"><defs><style>.cls-1{fill:#0f2e4e;}.cls-2{fill:none;}</style></defs><title>Artboard 17</title><path class="cls-1" d="M5.1,13.94l2.71,2.42L7,12.82,8.37,12l2.52,4.29-1,.61-.59-1-1.1-2.11.76,3.66-.68.4L5.4,15.42l1.31,2,.59,1-1,.61L3.74,14.74Z"/><path class="cls-1" d="M15.5,13.39a2.94,2.94,0,0,1-.13,1.31,2,2,0,0,1-.67.94,2.14,2.14,0,0,1-1.09.43,2.16,2.16,0,0,1-1.15-.17,2,2,0,0,1-.85-.75,2.86,2.86,0,0,1-.42-1.21l0-.28a3,3,0,0,1,.13-1.31,2,2,0,0,1,.67-.94A2.15,2.15,0,0,1,13,11a2.13,2.13,0,0,1,1.15.17,2,2,0,0,1,.86.77,2.86,2.86,0,0,1,.42,1.23Zm-1.24-.07a2.1,2.1,0,0,0-.37-1.09.79.79,0,0,0-.75-.3q-.9.1-.8,1.45l0,.36a2.15,2.15,0,0,0,.36,1.09.79.79,0,0,0,.76.31.78.78,0,0,0,.65-.46,2.09,2.09,0,0,0,.13-1.13Z"/><path class="cls-1" d="M16.34,15.84,17.57,11l1.55.4A2.36,2.36,0,0,1,20.2,12a2.1,2.1,0,0,1,.59,1,2.55,2.55,0,0,1,0,1.26l-.06.22a2.57,2.57,0,0,1-.58,1.12,2.11,2.11,0,0,1-1,.62,2.31,2.31,0,0,1-1.21,0Zm2.16-3.63-.77,3,.4.1a.93.93,0,0,0,.86-.16,1.8,1.8,0,0,0,.54-1l.05-.21a1.78,1.78,0,0,0,0-1.12,1,1,0,0,0-.69-.55Z"/><path class="cls-1" d="M24.4,17l-1.58-1-.65,1L24,18.23l-.5.77-2.87-1.88L23.39,13l2.88,1.88-.51.78-1.87-1.22-.57.88,1.58,1Z"/><path class="cls-1" d="M5.1,13.94l2.71,2.42L7,12.82,8.37,12l2.52,4.29-1,.61-.59-1-1.1-2.11.76,3.66-.68.4L5.4,15.42l1.31,2,.59,1-1,.61L3.74,14.74Z"/><path class="cls-1" d="M15.5,13.39a2.94,2.94,0,0,1-.13,1.31,2,2,0,0,1-.67.94,2.14,2.14,0,0,1-1.09.43,2.16,2.16,0,0,1-1.15-.17,2,2,0,0,1-.85-.75,2.86,2.86,0,0,1-.42-1.21l0-.28a3,3,0,0,1,.13-1.31,2,2,0,0,1,.67-.94A2.15,2.15,0,0,1,13,11a2.13,2.13,0,0,1,1.15.17,2,2,0,0,1,.86.77,2.86,2.86,0,0,1,.42,1.23Zm-1.24-.07a2.1,2.1,0,0,0-.37-1.09.79.79,0,0,0-.75-.3q-.9.1-.8,1.45l0,.36a2.15,2.15,0,0,0,.36,1.09.79.79,0,0,0,.76.31.78.78,0,0,0,.65-.46,2.09,2.09,0,0,0,.13-1.13Z"/><path class="cls-1" d="M16.34,15.84,17.57,11l1.55.4A2.36,2.36,0,0,1,20.2,12a2.1,2.1,0,0,1,.59,1,2.55,2.55,0,0,1,0,1.26l-.06.22a2.57,2.57,0,0,1-.58,1.12,2.11,2.11,0,0,1-1,.62,2.31,2.31,0,0,1-1.21,0Zm2.16-3.63-.77,3,.4.1a.93.93,0,0,0,.86-.16,1.8,1.8,0,0,0,.54-1l.05-.21a1.78,1.78,0,0,0,0-1.12,1,1,0,0,0-.69-.55Z"/><path class="cls-1" d="M24.4,17l-1.58-1-.65,1L24,18.23l-.5.77-2.87-1.88L23.39,13l2.88,1.88-.51.78-1.87-1.22-.57.88,1.58,1Z"/><rect class="cls-2" width="30" height="30"/></svg>